<svg width="256" height="200" viewBox="0 0 256 200" fill="none" xmlns="http://www.w3.org/2000/svg">
<path d="M255.223 199.178H0.773543C0.348094 199.178 0 198.953 0 198.678C0 198.403 0.348094 198.178 0.773543 198.178H255.226C255.656 198.178 256 198.403 256 198.678C256 198.953 255.656 199.178 255.226 199.178H255.223Z" fill="black"/>
<path d="M253.671 150.178H2.3287C2.14792 150.178 2 149.953 2 149.678C2 149.403 2.14792 149.178 2.3287 149.178H253.671C253.852 149.178 254 149.403 254 149.678C254 149.953 253.852 150.178 253.671 150.178Z" fill="black"/>
<path d="M114.978 114.66H89.4966C89.2087 114.66 88.9731 114.896 88.9731 115.183V146.751C88.9731 147.038 89.2087 147.274 89.4966 147.274H114.978C115.269 147.274 115.502 147.038 115.502 146.751V115.183C115.502 114.896 115.269 114.66 114.978 114.66ZM114.455 146.227H90.0201V115.707H114.455V146.227ZM148.236 114.66H122.755C122.464 114.66 122.231 114.896 122.231 115.183V146.751C122.231 147.038 122.464 147.274 122.755 147.274H148.236C148.527 147.274 148.76 147.038 148.76 146.751V115.183C148.76 114.896 148.527 114.66 148.236 114.66ZM147.713 146.227H123.278V115.707H147.713V146.227ZM181.685 114.66H156.204C155.916 114.66 155.68 114.896 155.68 115.183V146.751C155.68 147.038 155.916 147.274 156.204 147.274H181.685C181.976 147.274 182.209 147.038 182.209 146.751V115.183C182.209 114.896 181.976 114.66 181.685 114.66ZM181.162 146.227H156.727V115.707H181.162V146.227ZM215.226 114.66H189.744C189.456 114.66 189.221 114.896 189.221 115.183V146.751C189.221 147.038 189.456 147.274 189.744 147.274H215.226C215.516 147.274 215.749 147.038 215.749 146.751V115.183C215.749 114.896 215.516 114.66 215.226 114.66ZM214.702 146.227H190.268V115.707H214.702V146.227ZM229.968 98.8502C229.968 98.8319 229.962 98.8136 229.962 98.7953C229.962 98.7796 229.962 98.7639 229.957 98.7482C229.952 98.7298 229.947 98.7115 229.941 98.6958C229.936 98.6801 229.934 98.667 229.928 98.6513C229.92 98.633 229.91 98.6173 229.9 98.599C229.892 98.5859 229.886 98.5728 229.879 98.5623C229.865 98.544 229.852 98.5309 229.839 98.5152C229.831 98.5047 229.824 98.4943 229.816 98.4864C229.8 98.4707 229.782 98.4576 229.763 98.4445C229.753 98.4367 229.748 98.4288 229.737 98.4236C229.716 98.4105 229.695 98.4 229.674 98.3896C229.667 98.3843 229.659 98.3791 229.651 98.3765C229.625 98.366 229.596 98.3581 229.567 98.3503C229.562 98.3503 229.557 98.3477 229.551 98.3451C229.517 98.3372 229.483 98.3346 229.447 98.3346H229.439C229.366 98.3346 229.292 98.3346 229.211 98.3346C226.735 98.3346 221.128 97.8477 213.349 97.0154V87.1631C213.349 86.8752 213.113 86.6396 212.826 86.6396H191.407C191.119 86.6396 190.883 86.8752 190.883 87.1631V94.411C168.194 91.6443 139.122 87.8227 112.879 84.2943C112.879 84.2812 112.881 84.2707 112.881 84.2577V70.4294H117.462C117.753 70.4294 117.986 70.1938 117.986 69.9059V56.5435C117.986 56.2556 117.753 56.02 117.462 56.02H60.2224C59.9345 56.02 59.6989 56.2556 59.6989 56.5435V69.9059C59.6989 70.1938 59.9345 70.4294 60.2224 70.4294H64.7036V77.7401C52.6081 76.0753 44.8996 74.9995 44.5436 74.9498C44.5305 74.9498 44.52 74.9498 44.5069 74.9498C44.4938 74.9498 44.4834 74.9472 44.4729 74.9472C44.4677 74.9472 44.4624 74.9472 44.4598 74.9472C44.4389 74.9472 44.4153 74.9498 44.3944 74.9524C44.3813 74.9524 44.3682 74.955 44.3577 74.9577C44.3368 74.9629 44.3159 74.9708 44.2949 74.9786C44.2844 74.9838 44.274 74.9865 44.2609 74.9917C44.2399 74.9995 44.2216 75.0126 44.2033 75.0231C44.1928 75.0283 44.1824 75.0362 44.1719 75.0414C44.1562 75.0519 44.1405 75.0676 44.1248 75.0807C44.1143 75.0885 44.1038 75.0964 44.096 75.1069C44.0829 75.1199 44.0698 75.1356 44.0593 75.1514C44.0515 75.1618 44.041 75.1749 44.0332 75.1854C44.0227 75.2011 44.0148 75.2168 44.007 75.2325C43.9991 75.2482 43.9913 75.2613 43.9861 75.277C43.9808 75.2927 43.9756 75.3084 43.9704 75.3241C43.9651 75.3424 43.9599 75.3581 43.9573 75.3791C43.9573 75.3843 43.9546 75.3896 43.9546 75.3948C43.9546 75.4079 43.9546 75.4183 43.9546 75.4314C43.9546 75.4419 43.952 75.455 43.952 75.4655V83.9514C43.952 83.9514 43.952 83.9619 43.952 83.9671C43.952 83.9854 43.9546 84.0011 43.9573 84.0195C43.9573 84.0352 43.9625 84.0509 43.9651 84.0666C43.9703 84.0849 43.9756 84.1006 43.9808 84.1163C43.9861 84.132 43.9913 84.1477 43.9965 84.1608C44.0044 84.1765 44.0122 84.1922 44.0201 84.2053C44.0279 84.2184 44.0358 84.2341 44.0463 84.2472C44.0567 84.2603 44.0672 84.2734 44.0777 84.2891C44.0855 84.2969 44.0908 84.3048 44.0986 84.3126L53.2599 93.7435C53.2939 93.7801 53.3332 93.8063 53.375 93.8299L67.1169 146.416H62.3976C62.1097 146.416 61.8741 146.651 61.8741 146.939V150.017C61.8741 150.305 62.1097 150.541 62.3976 150.541C62.6855 150.541 62.9211 150.305 62.9211 150.017V147.463H82.7487V149.703C82.7487 149.991 82.9842 150.227 83.2722 150.227C83.5601 150.227 83.7957 149.991 83.7957 149.703V112.092H220.817V149.8C220.817 150.088 221.052 150.323 221.34 150.323C221.628 150.323 221.864 150.088 221.864 149.8V107.396C225.259 107.7 227.777 107.868 229.227 107.868C229.305 107.868 229.384 107.868 229.457 107.868C229.475 107.868 229.491 107.865 229.507 107.862C229.525 107.862 229.541 107.862 229.559 107.857C229.575 107.854 229.591 107.847 229.609 107.841C229.625 107.836 229.643 107.831 229.659 107.826C229.674 107.818 229.688 107.81 229.703 107.802C229.719 107.794 229.735 107.786 229.748 107.779C229.761 107.768 229.774 107.758 229.787 107.747C229.8 107.737 229.813 107.726 229.826 107.713C229.837 107.703 229.847 107.687 229.858 107.674C229.868 107.661 229.881 107.648 229.889 107.635C229.9 107.621 229.905 107.606 229.913 107.59C229.92 107.574 229.931 107.561 229.936 107.546C229.944 107.53 229.947 107.514 229.952 107.496C229.957 107.48 229.962 107.464 229.965 107.446C229.968 107.428 229.97 107.409 229.97 107.391C229.97 107.375 229.975 107.36 229.975 107.344V98.8581V98.8502H229.968ZM191.93 87.6866H212.302V89.2623H191.93V87.6866ZM191.93 90.3093H212.302V96.9054C206.515 96.2772 199.602 95.471 191.93 94.5392V90.3093ZM60.7459 69.3824V57.067H116.939V69.3824H60.7459ZM111.834 70.4294V84.1556C94.1924 81.7841 77.8906 79.554 65.7506 77.884V70.4294H111.834ZM68.198 146.421L53.4248 89.8958C54.443 90.0371 56.4899 90.3198 59.7173 90.7648L69.7344 146.418H68.198V146.421ZM70.7998 146.421L63.154 103.933L70.9306 111.938C70.9594 111.967 70.9882 111.99 71.0196 112.011L73.8832 146.421H70.8024H70.7998ZM74.9328 146.421L70.4255 92.241C72.3127 92.5002 74.0664 92.741 76.0217 93.008L79.5946 93.4974L77.3723 146.421H74.9328ZM82.7487 146.421H78.4193L79.4977 120.756L82.7487 124.104V146.421ZM85.2693 111.05H83.7957V107.87H85.2693V111.05ZM88.4522 111.05H86.3163V107.87H88.4522V111.05ZM91.6168 111.05H89.4992V107.87H91.6168V111.05ZM94.7997 111.05H92.6638V107.87H94.7997V111.05ZM97.8988 111.05H95.8467V107.87H97.8988V111.05ZM101.082 111.05H98.9458V107.87H101.082V111.05ZM104.246 111.05H102.129V107.87H104.246V111.05ZM107.429 111.05H105.293V107.87H107.429V111.05ZM110.594 111.05H108.476V107.87H110.594V111.05ZM113.777 111.05H111.641V107.87H113.777V111.05ZM116.941 111.05H114.824V107.87H116.941V111.05ZM120.124 111.05H117.988V107.87H120.124V111.05ZM123.223 111.05H121.171V107.87H123.223V111.05ZM126.406 111.05H124.27V107.87H126.406V111.05ZM129.571 111.05H127.453V107.87H129.571V111.05ZM132.753 111.05H130.618V107.87H132.753V111.05ZM135.913 111.05H133.8V107.87H135.913V111.05ZM139.096 111.05H136.96V107.87H139.096V111.05ZM142.26 111.05H140.143V107.87H142.26V111.05ZM145.443 111.05H143.307V107.87H145.443V111.05ZM148.542 111.05H146.49V107.87H148.542V111.05ZM151.725 111.05H149.589V107.87H151.725V111.05ZM154.89 111.05H152.772V107.87H154.89V111.05ZM158.073 111.05H155.937V107.87H158.073V111.05ZM161.237 111.05H159.12V107.87H161.237V111.05ZM164.42 111.05H162.284V107.87H164.42V111.05ZM167.585 111.05H165.467V107.87H167.585V111.05ZM170.767 111.05H168.632V107.87H170.767V111.05ZM173.867 111.05H171.814V107.87H173.867V111.05ZM177.05 111.05H174.914V107.87H177.05V111.05ZM180.214 111.05H178.096V107.87H180.214V111.05ZM183.397 111.05H181.261V107.87H183.397V111.05ZM186.614 111.05H184.444V107.87H186.614V111.05ZM189.797 111.05H187.661V107.87H189.797V111.05ZM192.896 111.05H190.844V107.87H192.896V111.05ZM196.079 111.05H193.943V107.87H196.079V111.05ZM199.243 111.05H197.126V107.87H199.243V111.05ZM202.426 111.05H200.29V107.87H202.426V111.05ZM205.465 111.05H203.473V107.87H205.465V111.05ZM208.564 111.05H206.512V107.87H208.564V111.05ZM211.747 111.05H209.611V107.87H211.747V111.05ZM214.912 111.05H212.794V107.87H214.912V111.05ZM83.2722 106.823C82.9842 106.823 82.7487 107.059 82.7487 107.347V122.601L79.5789 119.34C79.5789 119.34 79.5632 119.33 79.5579 119.322L80.6599 93.0656C80.6599 93.0656 80.6599 93.0472 80.6599 93.0394C80.6599 93.0211 80.6599 93.0027 80.6573 92.9844C80.6573 92.9687 80.6521 92.953 80.6494 92.9347C80.6442 92.9164 80.6416 92.9007 80.6363 92.8849C80.6311 92.8692 80.6259 92.8535 80.618 92.8378C80.6102 92.8221 80.6049 92.8064 80.5971 92.7933C80.5892 92.7776 80.5788 92.7645 80.5709 92.7488C80.5604 92.7358 80.5526 92.7227 80.5421 92.7096C80.5317 92.6965 80.5212 92.6834 80.5081 92.6729C80.4976 92.6625 80.4845 92.6494 80.4714 92.6389C80.4584 92.6284 80.4453 92.618 80.4296 92.6075C80.4165 92.597 80.4008 92.5892 80.3877 92.5813C80.372 92.5735 80.3563 92.5656 80.3406 92.5604C80.3249 92.5551 80.3092 92.5499 80.2935 92.5447C80.2751 92.5394 80.2594 92.5342 80.2411 92.5316C80.2306 92.5316 80.2228 92.5264 80.2149 92.5237L76.1709 91.9688C73.9931 91.6704 72.0693 91.4087 69.9281 91.1129C69.9072 91.1103 69.8863 91.1129 69.8679 91.1129C69.8522 91.1129 69.8365 91.1129 69.8208 91.1129C69.8208 91.1129 69.8182 91.1129 69.8156 91.1129C69.7999 91.1129 69.7842 91.1181 69.7685 91.1208C69.7528 91.1234 69.7371 91.126 69.7214 91.1286C69.6978 91.1338 69.6769 91.1443 69.6533 91.1548C69.6454 91.1574 69.635 91.16 69.6271 91.1653C69.6036 91.1757 69.5826 91.1914 69.5617 91.2071C69.5565 91.2124 69.5486 91.215 69.5434 91.2202C69.525 91.2359 69.5067 91.2516 69.4884 91.27C69.4805 91.2778 69.4753 91.283 69.4675 91.2909C69.4544 91.3066 69.4413 91.3249 69.4282 91.3432C69.4203 91.3537 69.4125 91.3642 69.4072 91.3746C69.3968 91.393 69.3889 91.4113 69.3811 91.4296C69.3758 91.4427 69.368 91.4532 69.3654 91.4663C69.3575 91.4872 69.3549 91.5081 69.3497 91.5291C69.3497 91.5396 69.3418 91.5526 69.3418 91.5631C69.3418 91.5631 69.3418 91.5657 69.3418 91.5683C69.3418 91.5867 69.3418 91.6024 69.3418 91.6207C69.3418 91.639 69.3418 91.6573 69.3418 91.6757V91.6809L70.8992 110.393L62.8373 102.093L60.6988 90.2125C60.6988 90.2125 60.6936 90.1994 60.6936 90.1915C60.691 90.1732 60.6831 90.1549 60.6779 90.1392C60.6726 90.1235 60.6674 90.1078 60.6596 90.0921C60.6517 90.0764 60.6465 90.0633 60.6386 90.0502C60.6308 90.0345 60.6203 90.0188 60.6098 90.0031C60.602 89.9926 60.5915 89.9821 60.5837 89.9691C60.5706 89.9533 60.5575 89.9403 60.5444 89.9272C60.5339 89.9167 60.5234 89.9088 60.513 89.901C60.4973 89.8879 60.4816 89.8774 60.4659 89.867C60.4554 89.8591 60.4423 89.8539 60.4292 89.846C60.4109 89.8356 60.3952 89.8277 60.3769 89.8199C60.3638 89.8146 60.3507 89.8094 60.3376 89.8068C60.3193 89.8015 60.2983 89.7963 60.2774 89.7911C60.2722 89.7911 60.2643 89.7884 60.2591 89.7858C55.2858 89.0974 52.9746 88.7781 52.8227 88.7571C52.7861 88.7519 52.7468 88.7493 52.7102 88.7519C52.6971 88.7519 52.684 88.7571 52.6709 88.7571C52.65 88.7598 52.6317 88.7624 52.6107 88.7676C52.5924 88.7729 52.5767 88.7807 52.5584 88.7859C52.4877 88.8121 52.4249 88.854 52.3725 88.9063C52.3673 88.9116 52.3594 88.9168 52.3516 88.9247C52.3385 88.9378 52.3307 88.9535 52.3176 88.9692C52.3097 88.9823 52.2992 88.9927 52.2914 89.0058C52.2809 89.0215 52.2757 89.0398 52.2678 89.0582C52.2626 89.0712 52.2547 89.0843 52.2495 89.0974C52.239 89.1288 52.2312 89.1629 52.226 89.1995C52.226 89.21 52.226 89.2178 52.226 89.2283C52.226 89.2519 52.2207 89.278 52.2233 89.3042C52.2233 89.3304 52.2312 89.3566 52.2364 89.3801C52.2364 89.388 52.2364 89.3958 52.239 89.4037V89.4089L52.8699 91.8222L45.9335 84.6817C60.4502 86.7024 174.757 102.564 215.943 106.821H83.2931L83.2722 106.823ZM218.097 111.05H215.961V107.87H218.097V111.05ZM220.819 111.05H219.144V107.87H220.819V111.05ZM228.926 106.823C210.844 106.582 54.6027 84.8387 44.999 83.5012V76.0701C47.0904 76.3606 54.4535 77.3867 65.1198 78.8551C65.1303 78.8551 65.1407 78.8551 65.1512 78.8604C95.5509 83.0457 152.743 90.825 191.27 95.5129C191.315 95.526 191.362 95.5339 191.409 95.5339C191.417 95.5339 191.422 95.5339 191.427 95.5339C199.476 96.5128 206.706 97.3556 212.7 98.0022C212.739 98.0126 212.781 98.0179 212.826 98.0179C212.831 98.0179 212.836 98.0179 212.841 98.0179C220.584 98.8502 226.245 99.3528 228.921 99.3894V106.828L228.926 106.823ZM103.097 137.44H112.449C112.737 137.44 112.973 137.205 112.973 136.917V131.854C112.973 131.566 112.737 131.331 112.449 131.331H103.097C102.809 131.331 102.574 131.566 102.574 131.854V136.917C102.574 137.205 102.809 137.44 103.097 137.44ZM103.621 132.378H111.926V136.393H103.621V132.378ZM103.097 144.638H112.449C112.737 144.638 112.973 144.403 112.973 144.115V139.052C112.973 138.765 112.737 138.529 112.449 138.529H103.097C102.809 138.529 102.574 138.765 102.574 139.052V144.115C102.574 144.403 102.809 144.638 103.097 144.638ZM103.621 139.576H111.926V143.591H103.621V139.576ZM91.7712 123.24H101.124C101.414 123.24 101.647 123.005 101.647 122.717V117.654C101.647 117.366 101.414 117.131 101.124 117.131H91.7712C91.4833 117.131 91.2477 117.366 91.2477 117.654V122.717C91.2477 123.005 91.4833 123.24 91.7712 123.24ZM92.2947 118.178H100.6V122.193H92.2947V118.178ZM103.097 123.24H112.449C112.737 123.24 112.973 123.005 112.973 122.717V117.654C112.973 117.366 112.737 117.131 112.449 117.131H103.097C102.809 117.131 102.574 117.366 102.574 117.654V122.717C102.574 123.005 102.809 123.24 103.097 123.24ZM103.621 118.178H111.926V122.193H103.621V118.178ZM91.7712 137.44H101.124C101.414 137.44 101.647 137.205 101.647 136.917V131.854C101.647 131.566 101.414 131.331 101.124 131.331H91.7712C91.4833 131.331 91.2477 131.566 91.2477 131.854V136.917C91.2477 137.205 91.4833 137.44 91.7712 137.44ZM92.2947 132.378H100.6V136.393H92.2947V132.378ZM91.7712 130.313H101.124C101.414 130.313 101.647 130.077 101.647 129.789V124.727C101.647 124.439 101.414 124.203 101.124 124.203H91.7712C91.4833 124.203 91.2477 124.439 91.2477 124.727V129.789C91.2477 130.077 91.4833 130.313 91.7712 130.313ZM92.2947 125.25H100.6V129.266H92.2947V125.25ZM91.7712 144.638H101.124C101.414 144.638 101.647 144.403 101.647 144.115V139.052C101.647 138.765 101.414 138.529 101.124 138.529H91.7712C91.4833 138.529 91.2477 138.765 91.2477 139.052V144.115C91.2477 144.403 91.4833 144.638 91.7712 144.638ZM92.2947 139.576H100.6V143.591H92.2947V139.576ZM103.097 130.313H112.449C112.737 130.313 112.973 130.077 112.973 129.789V124.727C112.973 124.439 112.737 124.203 112.449 124.203H103.097C102.809 124.203 102.574 124.439 102.574 124.727V129.789C102.574 130.077 102.809 130.313 103.097 130.313ZM103.621 125.25H111.926V129.266H103.621V125.25ZM136.486 130.313H145.838C146.126 130.313 146.362 130.077 146.362 129.789V124.727C146.362 124.439 146.126 124.203 145.838 124.203H136.486C136.198 124.203 135.963 124.439 135.963 124.727V129.789C135.963 130.077 136.198 130.313 136.486 130.313ZM137.01 125.25H145.315V129.266H137.01V125.25ZM136.486 123.24H145.838C146.126 123.24 146.362 123.005 146.362 122.717V117.654C146.362 117.366 146.126 117.131 145.838 117.131H136.486C136.198 117.131 135.963 117.366 135.963 117.654V122.717C135.963 123.005 136.198 123.24 136.486 123.24ZM137.01 118.178H145.315V122.193H137.01V118.178ZM136.486 137.44H145.838C146.126 137.44 146.362 137.205 146.362 136.917V131.854C146.362 131.566 146.126 131.331 145.838 131.331H136.486C136.198 131.331 135.963 131.566 135.963 131.854V136.917C135.963 137.205 136.198 137.44 136.486 137.44ZM137.01 132.378H145.315V136.393H137.01V132.378ZM125.16 130.313H134.512C134.803 130.313 135.036 130.077 135.036 129.789V124.727C135.036 124.439 134.803 124.203 134.512 124.203H125.16C124.872 124.203 124.637 124.439 124.637 124.727V129.789C124.637 130.077 124.872 130.313 125.16 130.313ZM125.684 125.25H133.989V129.266H125.684V125.25ZM136.486 144.638H145.838C146.126 144.638 146.362 144.403 146.362 144.115V139.052C146.362 138.765 146.126 138.529 145.838 138.529H136.486C136.198 138.529 135.963 138.765 135.963 139.052V144.115C135.963 144.403 136.198 144.638 136.486 144.638ZM137.01 139.576H145.315V143.591H137.01V139.576ZM125.16 123.24H134.512C134.803 123.24 135.036 123.005 135.036 122.717V117.654C135.036 117.366 134.803 117.131 134.512 117.131H125.16C124.872 117.131 124.637 117.366 124.637 117.654V122.717C124.637 123.005 124.872 123.24 125.16 123.24ZM125.684 118.178H133.989V122.193H125.684V118.178ZM125.16 137.44H134.512C134.803 137.44 135.036 137.205 135.036 136.917V131.854C135.036 131.566 134.803 131.331 134.512 131.331H125.16C124.872 131.331 124.637 131.566 124.637 131.854V136.917C124.637 137.205 124.872 137.44 125.16 137.44ZM125.684 132.378H133.989V136.393H125.684V132.378ZM125.16 144.638H134.512C134.803 144.638 135.036 144.403 135.036 144.115V139.052C135.036 138.765 134.803 138.529 134.512 138.529H125.16C124.872 138.529 124.637 138.765 124.637 139.052V144.115C124.637 144.403 124.872 144.638 125.16 144.638ZM125.684 139.576H133.989V143.591H125.684V139.576ZM158.609 130.313H167.962C168.252 130.313 168.485 130.077 168.485 129.789V124.727C168.485 124.439 168.252 124.203 167.962 124.203H158.609C158.321 124.203 158.086 124.439 158.086 124.727V129.789C158.086 130.077 158.321 130.313 158.609 130.313ZM159.133 125.25H167.438V129.266H159.133V125.25ZM169.935 137.44H179.287C179.575 137.44 179.811 137.205 179.811 136.917V131.854C179.811 131.566 179.575 131.331 179.287 131.331H169.935C169.647 131.331 169.412 131.566 169.412 131.854V136.917C169.412 137.205 169.647 137.44 169.935 137.44ZM170.459 132.378H178.764V136.393H170.459V132.378ZM169.935 130.313H179.287C179.575 130.313 179.811 130.077 179.811 129.789V124.727C179.811 124.439 179.575 124.203 179.287 124.203H169.935C169.647 124.203 169.412 124.439 169.412 124.727V129.789C169.412 130.077 169.647 130.313 169.935 130.313ZM170.459 125.25H178.764V129.266H170.459V125.25ZM169.935 144.638H179.287C179.575 144.638 179.811 144.403 179.811 144.115V139.052C179.811 138.765 179.575 138.529 179.287 138.529H169.935C169.647 138.529 169.412 138.765 169.412 139.052V144.115C169.412 144.403 169.647 144.638 169.935 144.638ZM170.459 139.576H178.764V143.591H170.459V139.576ZM169.935 123.24H179.287C179.575 123.24 179.811 123.005 179.811 122.717V117.654C179.811 117.366 179.575 117.131 179.287 117.131H169.935C169.647 117.131 169.412 117.366 169.412 117.654V122.717C169.412 123.005 169.647 123.24 169.935 123.24ZM170.459 118.178H178.764V122.193H170.459V118.178ZM158.609 137.44H167.962C168.252 137.44 168.485 137.205 168.485 136.917V131.854C168.485 131.566 168.252 131.331 167.962 131.331H158.609C158.321 131.331 158.086 131.566 158.086 131.854V136.917C158.086 137.205 158.321 137.44 158.609 137.44ZM159.133 132.378H167.438V136.393H159.133V132.378ZM158.609 123.24H167.962C168.252 123.24 168.485 123.005 168.485 122.717V117.654C168.485 117.366 168.252 117.131 167.962 117.131H158.609C158.321 117.131 158.086 117.366 158.086 117.654V122.717C158.086 123.005 158.321 123.24 158.609 123.24ZM159.133 118.178H167.438V122.193H159.133V118.178ZM158.609 144.638H167.962C168.252 144.638 168.485 144.403 168.485 144.115V139.052C168.485 138.765 168.252 138.529 167.962 138.529H158.609C158.321 138.529 158.086 138.765 158.086 139.052V144.115C158.086 144.403 158.321 144.638 158.609 144.638ZM159.133 139.576H167.438V143.591H159.133V139.576ZM192.15 123.24H201.502C201.793 123.24 202.026 123.005 202.026 122.717V117.654C202.026 117.366 201.793 117.131 201.502 117.131H192.15C191.862 117.131 191.626 117.366 191.626 117.654V122.717C191.626 123.005 191.862 123.24 192.15 123.24ZM192.673 118.178H200.979V122.193H192.673V118.178ZM203.476 123.24H212.828C213.116 123.24 213.352 123.005 213.352 122.717V117.654C213.352 117.366 213.116 117.131 212.828 117.131H203.476C203.188 117.131 202.952 117.366 202.952 117.654V122.717C202.952 123.005 203.188 123.24 203.476 123.24ZM203.999 118.178H212.305V122.193H203.999V118.178ZM203.476 137.44H212.828C213.116 137.44 213.352 137.205 213.352 136.917V131.854C213.352 131.566 213.116 131.331 212.828 131.331H203.476C203.188 131.331 202.952 131.566 202.952 131.854V136.917C202.952 137.205 203.188 137.44 203.476 137.44ZM203.999 132.378H212.305V136.393H203.999V132.378ZM203.476 144.638H212.828C213.116 144.638 213.352 144.403 213.352 144.115V139.052C213.352 138.765 213.116 138.529 212.828 138.529H203.476C203.188 138.529 202.952 138.765 202.952 139.052V144.115C202.952 144.403 203.188 144.638 203.476 144.638ZM203.999 139.576H212.305V143.591H203.999V139.576ZM203.476 130.313H212.828C213.116 130.313 213.352 130.077 213.352 129.789V124.727C213.352 124.439 213.116 124.203 212.828 124.203H203.476C203.188 124.203 202.952 124.439 202.952 124.727V129.789C202.952 130.077 203.188 130.313 203.476 130.313ZM203.999 125.25H212.305V129.266H203.999V125.25ZM192.15 130.313H201.502C201.793 130.313 202.026 130.077 202.026 129.789V124.727C202.026 124.439 201.793 124.203 201.502 124.203H192.15C191.862 124.203 191.626 124.439 191.626 124.727V129.789C191.626 130.077 191.862 130.313 192.15 130.313ZM192.673 125.25H200.979V129.266H192.673V125.25ZM192.15 144.638H201.502C201.793 144.638 202.026 144.403 202.026 144.115V139.052C202.026 138.765 201.793 138.529 201.502 138.529H192.15C191.862 138.529 191.626 138.765 191.626 139.052V144.115C191.626 144.403 191.862 144.638 192.15 144.638ZM192.673 139.576H200.979V143.591H192.673V139.576ZM192.15 137.44H201.502C201.793 137.44 202.026 137.205 202.026 136.917V131.854C202.026 131.566 201.793 131.331 201.502 131.331H192.15C191.862 131.331 191.626 131.566 191.626 131.854V136.917C191.626 137.205 191.862 137.44 192.15 137.44ZM192.673 132.378H200.979V136.393H192.673V132.378ZM65.2323 61.8099H73.2733C73.5612 61.8099 73.7968 61.5744 73.7968 61.2864C73.7968 60.9985 73.5612 60.7629 73.2733 60.7629H65.2323C64.9418 60.7629 64.7088 60.9985 64.7088 61.2864C64.7088 61.5744 64.9418 61.8099 65.2323 61.8099ZM76.6342 61.8099H81.2803C81.5708 61.8099 81.8038 61.5744 81.8038 61.2864C81.8038 60.9985 81.5708 60.7629 81.2803 60.7629H76.6342C76.3463 60.7629 76.1107 60.9985 76.1107 61.2864C76.1107 61.5744 76.3463 61.8099 76.6342 61.8099ZM87.112 64.6813H65.2323C64.9418 64.6813 64.7088 64.9169 64.7088 65.2048C64.7088 65.4928 64.9418 65.7283 65.2323 65.7283H87.112C87.4 65.7283 87.6356 65.4928 87.6356 65.2048C87.6356 64.9169 87.4 64.6813 87.112 64.6813ZM98.4249 64.6813H91.2399C90.9493 64.6813 90.7164 64.9169 90.7164 65.2048C90.7164 65.4928 90.9493 65.7283 91.2399 65.7283H98.4249C98.7155 65.7283 98.9484 65.4928 98.9484 65.2048C98.9484 64.9169 98.7155 64.6813 98.4249 64.6813Z" fill="black"/>
<path d="M58.4374 126.049H54.7729C54.4823 126.049 54.2494 126.284 54.2494 126.572V138.351C54.2494 138.639 54.4823 138.874 54.7729 138.874H57.9139V150.13C57.9139 150.418 58.1469 150.653 58.4374 150.653C58.7279 150.653 58.9609 150.418 58.9609 150.13V126.572C58.9609 126.284 58.7253 126.049 58.4374 126.049ZM57.9139 137.827H55.2964V127.096H57.9139V137.827Z" fill="black"/>
<path d="M56.6052 136.519C56.8931 136.519 57.1287 136.283 57.1287 135.995V128.404C57.1287 128.116 56.8931 127.881 56.6052 127.881C56.3172 127.881 56.0817 128.116 56.0817 128.404V135.995C56.0817 136.283 56.3146 136.519 56.6052 136.519Z" fill="black"/>
<path d="M47.4308 51.9679C47.4308 51.9496 47.4308 51.9313 47.4256 51.913C47.4256 51.8973 47.4204 51.8815 47.4151 51.8658C47.4099 51.8501 47.4046 51.8318 47.3994 51.8161C47.3942 51.8004 47.3863 51.7847 47.3785 51.769C47.3706 51.7533 47.3628 51.7402 47.3549 51.7245C47.3471 51.7088 47.3366 51.6957 47.3261 51.6826C47.3157 51.6695 47.3052 51.6564 47.2947 51.6434C47.2842 51.6303 47.2712 51.6198 47.2607 51.6093C47.2476 51.5989 47.2345 51.5858 47.2214 51.5753C47.2083 51.5648 47.1926 51.557 47.1795 51.5465C47.1665 51.5387 47.1508 51.5308 47.135 51.523C47.1193 51.5151 47.101 51.5072 47.0827 51.502C47.0748 51.4994 47.067 51.4942 47.0565 51.4915L35.016 47.9187V46.7669L38.3088 35.9383C38.3088 35.9383 38.3088 35.9252 38.3114 35.92C38.3167 35.8965 38.3219 35.8729 38.3245 35.8467C38.3245 35.8336 38.3271 35.8179 38.3298 35.8048C38.3298 35.7996 38.3298 35.7944 38.3298 35.7865V31.3656C38.3298 31.0776 38.0942 30.8421 37.8063 30.8421H36.5368C36.3692 29.3475 35.4976 25.0521 31.0165 23.7539V14.1162C31.0165 13.8283 30.7809 13.5927 30.493 13.5927C30.205 13.5927 29.9695 13.8283 29.9695 14.1162V23.5209C29.4145 23.4293 28.8204 23.3743 28.1686 23.3743C27.721 23.3743 27.3022 23.4005 26.9017 23.445V5.45488C28.1712 5.20883 29.1319 4.09116 29.1319 2.75361C29.1319 1.23546 27.8964 0 26.3782 0C24.8601 0 23.6246 1.23546 23.6246 2.75361C23.6246 4.09378 24.5852 5.21145 25.8547 5.45488V23.6204C20.9234 24.7197 20.0308 29.2846 19.8711 30.8421H18.7011C18.4132 30.8421 18.1776 31.0776 18.1776 31.3656V35.7865C18.1776 35.7865 18.1776 35.797 18.1776 35.8048C18.1776 35.8179 18.1776 35.8336 18.1828 35.8467C18.1854 35.8729 18.1907 35.8965 18.1959 35.92C18.1959 35.9252 18.1959 35.9331 18.1985 35.9383L21.4914 46.7669V47.9187L9.45084 51.4915C9.45084 51.4915 9.43513 51.4994 9.42466 51.502C9.40634 51.5072 9.39063 51.5151 9.37231 51.523C9.3566 51.5308 9.34352 51.5387 9.32782 51.5465C9.31211 51.5544 9.29902 51.5648 9.28594 51.5753C9.27285 51.5858 9.25976 51.5962 9.24667 51.6093C9.23359 51.6198 9.22312 51.6329 9.21265 51.6434C9.20218 51.6564 9.19171 51.6695 9.18124 51.6826C9.17077 51.6957 9.16291 51.7088 9.15244 51.7245C9.14459 51.7376 9.13674 51.7533 9.12888 51.769C9.12103 51.7847 9.1158 51.8004 9.10795 51.8161C9.10271 51.8318 9.09748 51.8475 9.09224 51.8658C9.08701 51.8815 9.08439 51.8973 9.08177 51.913C9.07915 51.9313 9.07654 51.9496 9.07654 51.9679C9.07654 51.9758 9.07654 51.9863 9.07654 51.9941V57.8887C9.07654 57.8887 9.07653 57.907 9.07915 57.9149C9.07915 57.9306 9.07916 57.9437 9.08439 57.9594C9.08701 57.9856 9.09224 58.0117 9.10009 58.0353C9.10009 58.0432 9.10009 58.051 9.10533 58.0589L18.1776 84.4433V87.3566C18.1776 87.6445 18.4132 87.8801 18.7011 87.8801H20.57V150.017C20.57 150.305 20.8056 150.541 21.0935 150.541C21.3814 150.541 21.617 150.305 21.617 150.017V87.8801H34.893V150.017C34.893 150.305 35.1286 150.541 35.4165 150.541C35.7044 150.541 35.94 150.305 35.94 150.017V87.8801H37.8089C38.0968 87.8801 38.3324 87.6445 38.3324 87.3566V84.4433L47.4047 58.0589C47.4047 58.0589 47.4073 58.0432 47.4099 58.0353C47.4177 58.0117 47.423 57.9856 47.4256 57.9594C47.4256 57.9437 47.4282 57.9306 47.4308 57.9149C47.4308 57.9044 47.4334 57.8966 47.4334 57.8887V51.9941C47.4334 51.9941 47.4334 51.9758 47.4308 51.9679ZM41.8765 54.664V52.5176H43.4836V54.664H41.8765ZM43.4836 55.711V57.3652H41.8765V55.711H43.4836ZM36.5786 31.8891H37.2854V32.9125H36.5786V31.8891ZM36.5786 33.9595H37.2854V35.263H36.5786V33.9595ZM33.9245 32.9125V31.8891H35.5316V32.9125H33.9245ZM35.5316 33.9595V35.263H33.9245V33.9595H35.5316ZM24.6716 2.75361C24.6716 1.81393 25.4359 1.047 26.3782 1.047C27.3205 1.047 28.0849 1.81131 28.0849 2.75361C28.0849 3.69592 27.3205 4.46023 26.3782 4.46023C25.4359 4.46023 24.6716 3.69592 24.6716 2.75361ZM28.1686 24.4239C34.2622 24.4239 35.3118 29.2166 35.4924 30.8421H20.9129C21.0726 29.2166 22.0567 24.4239 28.1686 24.4239ZM31.3436 32.9125V31.8891H32.8749V32.9125H31.3436ZM32.8749 33.9595V35.263H31.3436V33.9595H32.8749ZM28.6921 32.9125V31.8891H30.294V32.9125H28.6921ZM30.294 33.9595V35.263H28.6921V33.9595H30.294ZM26.1139 32.9125V31.8891H27.6451V32.9125H26.1139ZM27.6451 33.9595V35.263H26.1139V33.9595H27.6451ZM23.4597 32.9125V31.8891H25.0669V32.9125H23.4597ZM25.0669 33.9595V35.263H23.4597V33.9595H25.0669ZM20.8815 31.8891H22.4127V32.9125H20.8815V31.8891ZM20.8815 33.9595H22.4127V35.263H20.8815V33.9595ZM19.2246 31.8891H19.8345V32.9125H19.2246V31.8891ZM19.2246 33.9595H19.8345V35.263H19.2246V33.9595ZM19.4078 36.31H37.1021L34.1051 46.1675H22.4049L19.4078 36.31ZM33.969 47.2145V47.7878H22.541V47.2145H33.969ZM22.0934 48.8348H34.4166L43.303 51.4706H13.2043L22.0908 48.8348H22.0934ZM39.2982 54.664V52.5176H40.8295V54.664H39.2982ZM40.8295 55.711V57.3652H39.2982V55.711H40.8295ZM36.6493 54.664V52.5176H38.2512V54.664H36.6493ZM38.2512 55.711V57.3652H36.6493V55.711H38.2512ZM34.0685 54.664V52.5176H35.5997V54.664H34.0685ZM35.5997 55.711V57.3652H34.0685V55.711H35.5997ZM31.2704 54.664V52.5176H33.0215V54.664H31.2704ZM33.0215 55.711V57.3652H31.2704V55.711H33.0215ZM28.6921 54.664V52.5176H30.2233V54.664H28.6921ZM30.2233 55.711V57.3652H28.6921V55.711H30.2233ZM26.038 54.664V52.5176H27.6451V54.664H26.038ZM27.6451 55.711V57.3652H26.038V55.711H27.6451ZM23.4597 54.664V52.5176H24.991V54.664H23.4597ZM24.991 55.711V57.3652H23.4597V55.711H24.991ZM20.8082 54.664V52.5176H22.4101V54.664H20.8082ZM22.4101 55.711V57.3652H20.8082V55.711H22.4101ZM18.2273 54.664V52.5176H19.7586V54.664H18.2273ZM19.7586 55.711V57.3652H18.2273V55.711H19.7586ZM15.5732 54.664V52.5176H17.1803V54.664H15.5732ZM17.1803 55.711V57.3652H15.5732V55.711H17.1803ZM12.9949 52.5176H14.5262V54.664H12.9949V52.5176ZM12.9949 55.711H14.5262V57.3652H12.9949V55.711ZM10.1209 52.5176H11.9479V54.664H10.1209V52.5176ZM10.1209 55.711H11.9479V57.3652H10.1209V55.711ZM37.2801 86.8331H19.222V84.8778H37.2801V86.8331ZM37.4293 83.8308H19.0702L10.3303 58.4096H46.1718L37.432 83.8308H37.4293ZM46.3812 57.3626H44.5254V55.7083H46.3812V57.3626ZM46.3812 54.6613H44.5254V52.515H46.3812V54.6613ZM30.4877 12.1845C30.7756 12.1845 31.0112 11.9489 31.0112 11.661V8.9126C31.0112 8.62468 30.7756 8.3891 30.4877 8.3891C30.1998 8.3891 29.9642 8.62468 29.9642 8.9126V11.661C29.9642 11.9489 30.1998 12.1845 30.4877 12.1845Z" fill="black"/>
<path d="M51.8937 137.042H39.3297C39.0417 137.042 38.8062 137.278 38.8062 137.566V143.324C38.8062 143.612 39.0417 143.848 39.3297 143.848H39.8532V149.606C39.8532 149.894 40.0887 150.13 40.3767 150.13C40.6646 150.13 40.9002 149.894 40.9002 149.606V143.848H50.0614V149.606C50.0614 149.894 50.297 150.13 50.5849 150.13C50.8728 150.13 51.1084 149.894 51.1084 149.606V143.848H51.8937C52.1816 143.848 52.4172 143.612 52.4172 143.324V137.566C52.4172 137.278 52.1816 137.042 51.8937 137.042ZM51.3702 142.801H39.8532V138.089H51.3702V142.801ZM41.1619 142.015H45.3499C45.6378 142.015 45.8734 141.78 45.8734 141.492C45.8734 141.204 45.6378 140.968 45.3499 140.968H41.1619C40.874 140.968 40.6384 141.204 40.6384 141.492C40.6384 141.78 40.874 142.015 41.1619 142.015ZM47.4439 142.015H49.5379C49.8258 142.015 50.0614 141.78 50.0614 141.492C50.0614 141.204 49.8258 140.968 49.5379 140.968H47.4439C47.156 140.968 46.9204 141.204 46.9204 141.492C46.9204 141.78 47.156 142.015 47.4439 142.015ZM41.1619 140.183H42.9942C43.2821 140.183 43.5177 139.948 43.5177 139.66C43.5177 139.372 43.2821 139.136 42.9942 139.136H41.1619C40.874 139.136 40.6384 139.372 40.6384 139.66C40.6384 139.948 40.874 140.183 41.1619 140.183Z" fill="black"/>
<path d="M230.407 132.854H225.434C225.144 132.854 224.911 133.09 224.911 133.378V149.868C224.911 150.156 225.144 150.391 225.434 150.391C225.725 150.391 225.958 150.156 225.958 149.868V143.586H230.407C230.695 143.586 230.931 143.35 230.931 143.062V133.378C230.931 133.09 230.695 132.854 230.407 132.854ZM229.884 142.539H225.958V133.901H229.884V142.539ZM227.918 141.361C228.209 141.361 228.442 141.125 228.442 140.837V135.699C228.442 135.411 228.209 135.176 227.918 135.176C227.628 135.176 227.395 135.411 227.395 135.699V140.837C227.395 141.125 227.63 141.361 227.918 141.361Z" fill="black"/>
<path d="M22.035 175.047H9.73273C9.4448 175.047 9.20923 174.811 9.20923 174.524C9.20923 174.236 9.4448 174 9.73273 174H22.035C22.3229 174 22.5585 174.236 22.5585 174.524C22.5585 174.811 22.3229 175.047 22.035 175.047Z" fill="black"/>
<path d="M51.2961 175.047H38.9938C38.7059 175.047 38.4703 174.811 38.4703 174.524C38.4703 174.236 38.7059 174 38.9938 174H51.2961C51.584 174 51.8196 174.236 51.8196 174.524C51.8196 174.811 51.584 175.047 51.2961 175.047Z" fill="black"/>
<path d="M79.5284 175.047H67.2261C66.9382 175.047 66.7026 174.811 66.7026 174.524C66.7026 174.236 66.9382 174 67.2261 174H79.5284C79.819 174 80.0519 174.236 80.0519 174.524C80.0519 174.811 79.819 175.047 79.5284 175.047Z" fill="black"/>
<path d="M107.2 175.047H94.8975C94.6096 175.047 94.374 174.811 94.374 174.524C94.374 174.236 94.6096 174 94.8975 174H107.2C107.49 174 107.723 174.236 107.723 174.524C107.723 174.811 107.49 175.047 107.2 175.047Z" fill="black"/>
<path d="M134.2 175.047H121.898C121.61 175.047 121.374 174.811 121.374 174.524C121.374 174.236 121.61 174 121.898 174H134.2C134.49 174 134.723 174.236 134.723 174.524C134.723 174.811 134.49 175.047 134.2 175.047Z" fill="black"/>
<path d="M166.2 175.047H153.898C153.61 175.047 153.374 174.811 153.374 174.524C153.374 174.236 153.61 174 153.898 174H166.2C166.49 174 166.723 174.236 166.723 174.524C166.723 174.811 166.49 175.047 166.2 175.047Z" fill="black"/>
<path d="M195.12 175.047H182.818C182.53 175.047 182.294 174.811 182.294 174.524C182.294 174.236 182.53 174 182.818 174H195.12C195.411 174 195.644 174.236 195.644 174.524C195.644 174.811 195.411 175.047 195.12 175.047Z" fill="black"/>
<path d="M224.381 175.047H212.079C211.791 175.047 211.555 174.811 211.555 174.524C211.555 174.236 211.791 174 212.079 174H224.381C224.671 174 224.904 174.236 224.904 174.524C224.904 174.811 224.671 175.047 224.381 175.047Z" fill="black"/>
<path d="M254.357 175.047H242.055C241.767 175.047 241.531 174.811 241.531 174.524C241.531 174.236 241.767 174 242.055 174H254.357C254.647 174 254.88 174.236 254.88 174.524C254.88 174.811 254.647 175.047 254.357 175.047Z" fill="black"/>
</svg>
