<svg width="256" height="187" viewBox="0 0 256 187" fill="none" xmlns="http://www.w3.org/2000/svg">
<path d="M229.992 160.716L228.287 160.08L227.942 159.408L223.74 148.581L220.398 139.975L220.243 139.579L212.493 119.612V119.595L205.568 101.763L204.931 100.145L201.848 92.2095V92.1922L200.849 89.6275V89.6103L200.815 89.5415V89.5243L200.35 88.3366L200.901 88.13H200.918V88.1128L201.486 87.9062L201.934 89.0595V89.0767L205.603 98.5093V98.5266L206.24 100.145L212.251 115.636V115.653L219.847 135.173L219.985 135.534V135.551L223.206 143.848L229.493 160.045L229.992 160.716Z" fill="white"/>
<path d="M216.799 85.8438L247.716 167.639L246.355 167.484L215.662 86.2741L216.799 85.8438Z" fill="white"/>
<path d="M196.301 186.539H187.121L189.653 157.57L197.783 160.049L196.301 186.539ZM189.016 184.818H194.682L195.991 161.305L191.203 159.825L189.016 184.801V184.818Z" fill="white"/>
<path d="M198.437 148.409L190.721 145.311L196.026 84.6186L201.21 83.6719L201.968 84.2743V84.8079L198.454 148.426L198.437 148.409ZM192.546 144.192L196.852 145.931L200.211 85.5997L197.628 86.0817L192.546 144.192Z" fill="white"/>
<path d="M200.159 186.588H193.855V185.728L195.526 159.375L200.848 160.993L200.159 186.588ZM195.63 184.867H198.471L199.092 162.267L197.111 161.664L195.63 184.884V184.867Z" fill="white"/>
<path d="M201.159 149.513L196.268 147.551L200.35 83.3125L202.95 84.3281L201.176 149.513H201.159ZM198.059 146.415L199.506 147L200.608 106.36L198.059 146.415Z" fill="white"/>
<path d="M159.581 131.783L157.961 131.129L148.075 109.079L142.649 97.0303V97.013L142.391 96.445L129.284 67.2521L110.062 24.4266L109.235 22.6021L104.395 11.8268V11.8096L104.429 10.2605L104.223 8.45312L104.464 8.98672L110.13 21.6037L110.94 23.4111L129.077 63.8095V63.8267L142.047 92.7271L142.288 93.2434V93.2607L147.627 105.12L159.581 131.783Z" fill="white"/>
<path d="M196.957 90.2158L196.268 91.5928L179.078 121.147L178.269 122.524L170.346 136.14L169.209 135.675L177.735 121.044L178.527 119.667L196.526 88.7355L196.974 87.9609L196.957 90.2158Z" fill="white"/>
<path d="M92.7686 186.454H77.9043L83.2437 125.039L95.9723 128.912L95.9378 129.583L92.7686 186.437V186.454ZM79.7989 184.733H91.1495L94.181 130.186L84.7939 127.311L79.7989 184.733Z" fill="white"/>
<path d="M97.1777 107.457L85.207 102.655L93.4918 7.48532L102.827 5.78125L97.1777 107.475V107.457ZM87.0328 101.519L95.5931 104.961L101.001 7.84679L95.1108 8.9312L91.8038 46.7477L87.0328 101.519Z" fill="white"/>
<path d="M101.363 187.001L89.7363 186.501V185.675L93.3706 128.133L102.62 130.938L101.363 187.001ZM91.5104 184.849L99.6746 185.21L100.863 132.212L94.9552 130.405L91.5104 184.849Z" fill="white"/>
<path d="M103.069 109.871L94.7324 106.497L94.7669 105.877L101.123 5.40625L105.342 7.74719L103.069 109.871ZM96.5409 105.361L101.398 107.323L103.603 8.74554L102.69 8.22915L96.5409 105.361Z" fill="white"/>
<path d="M211.063 87.5478L210.736 89.5101L206.241 100.148L205.569 101.766L201.332 111.783V111.801L199.351 116.483V116.5L199.058 117.171L192.737 132.146L188.035 143.283L185.537 142.267H185.52L178.269 122.524L177.735 121.044L136.931 10.0557V10.0385L135.967 5.90745L136.018 4.03125L136.363 4.96074V4.97796L178.527 119.667L179.078 121.147L186.984 142.663L193.082 128.222L199.299 113.505V113.488L199.54 112.92V112.902L201.418 108.479V108.461L204.932 100.148L205.603 98.5296V98.5124L210.581 86.7732V86.756L210.771 86.3085L211.063 87.5478Z" fill="white"/>
<path d="M134.519 142.504L0.568359 101.554L0.671703 100.04L1.46401 99.9191L48.7955 96.4766L48.9677 96.5454L133.641 127.219L134.519 142.521V142.504ZM5.71833 101.313L132.659 140.128L131.987 128.441L48.5544 98.2151L5.71833 101.331V101.313Z" fill="white"/>
<path d="M1.13584 101.658L0.998047 99.9363L5.18347 99.5749L48.6051 96.4766L48.7429 98.1978H48.7257L1.13584 101.658Z" fill="white"/>
<path d="M216.127 167.458L151.537 147.698L149.9 133.102L215.524 156.872L216.127 167.441V167.458ZM153.121 146.39L214.266 165.083L213.87 158.112L151.933 135.683L153.139 146.39H153.121Z" fill="white"/>
<path d="M148.177 146.654L146.076 146.069L144.732 131.18L146.782 132.006L148.177 146.654Z" fill="white"/>
<path d="M224.067 169.871L222.103 169.286L221.139 158.82L222.482 159.406H223.085L223.171 160.18L224.067 169.871Z" fill="white"/>
<path d="M234.383 173.038L225.306 170.267L224.152 160.008L255.707 171.437L255.5 172.952L254.708 173.021H234.366L234.383 173.038ZM226.891 168.958L234.625 171.317H250.247L226.185 162.573L226.891 168.941V168.958Z" fill="white"/>
<path d="M1.2918 101.639C0.964543 101.639 0.654511 101.518 0.413375 101.294C0.155016 101.053 0 100.709 0 100.348V90.3642L49.5362 85.9922V98.1272L1.39514 101.639C1.39514 101.639 1.32625 101.639 1.2918 101.639ZM1.7224 91.9478V99.8829L12.2635 99.0739L47.8138 96.5436V87.8856L1.7224 91.9478Z" fill="white"/>
<path d="M133.745 129.077L47.8145 97.9388V87.3185C47.8145 86.9398 48.0039 86.5956 48.3139 86.389C48.624 86.1825 49.0201 86.148 49.3646 86.2857L133.245 120.195L133.762 129.077H133.745ZM49.5369 96.7339L131.885 126.564L131.575 121.365L49.5369 88.2136V96.7339Z" fill="white"/>
<path d="M146.956 133.929L144.906 133.103L144.131 124.617L146.181 125.426L146.956 133.929Z" fill="white"/>
<path d="M215.627 158.75L150.107 135.031L149.16 126.648L215.3 153.38L215.61 158.75H215.627ZM162.819 137.785L162.974 137.837L213.75 156.237L213.647 154.55L151.193 129.299L151.692 133.757L162.802 137.768L162.819 137.785Z" fill="white"/>
<path d="M223.275 161.639L221.483 160.847L221.277 160.262L220.863 155.562L222.655 156.354L222.861 156.922L223.275 161.639Z" fill="white"/>
<path d="M256 173.381L224.377 161.917L223.809 156.805L256 169.818V173.381ZM225.962 160.678L253.038 170.489L225.841 159.49L225.979 160.678H225.962Z" fill="white"/>
<path d="M225.427 186.533H215.523L211.32 114.188L221.104 139.49L225.427 186.533ZM217.142 184.812H223.532L219.398 139.766L213.663 125.014L217.142 184.812Z" fill="white"/>
<path d="M224.066 169.87L222.12 169.285L219.416 139.765L211.648 119.592L209.426 81.3964L214.335 80.4841C214.679 80.4152 215.041 80.5013 215.316 80.7251C215.592 80.9316 215.781 81.2587 215.799 81.6201L224.066 169.87ZM213.353 119.419L218.968 133.895L214.111 82.2914L211.2 82.825L213.336 119.419H213.353Z" fill="white"/>
<path d="M228.889 186.69L223.688 186.535L221.931 167.446L222.103 167.498L218.951 133.898L224.583 148.495L228.872 186.707L228.889 186.69ZM225.272 184.831L226.96 184.9L222.895 148.788L221.828 146.051L224.049 169.873L223.877 169.822L225.255 184.831H225.272Z" fill="white"/>
<path d="M224.065 169.867L222.119 169.282L213.938 80.6875L217.072 81.4104L218.054 90.1718L225.357 155.064L221.843 146.027L224.065 169.85V169.867ZM221.085 139.366L222.136 142.068L217.623 102.049L221.085 139.366Z" fill="white"/>
<path d="M151.537 186.446H135.363L128.146 62.6172L143.235 96.3543L151.519 186.446H151.537ZM136.982 184.725H149.642L141.547 96.6641L130.42 71.8777L136.982 184.725Z" fill="white"/>
<path d="M151.898 186.449H149.814L141.564 96.6672L128.439 67.3021L128.233 63.8767L124.633 1.80735L134.519 0V1.03277L151.916 186.449H151.898ZM130.127 67.0439L141.288 91.8992L132.866 2.04832L126.407 3.2188L126.579 6.14497L130.127 67.0439Z" fill="white"/>
<path d="M157.65 186.692L150.554 186.451V185.625L150.089 185.677L141.305 91.9531L148.918 108.977L157.633 186.675L157.65 186.692ZM151.742 184.765L155.721 184.902L147.23 109.304L143.992 102.109L151.742 184.765Z" fill="white"/>
<path d="M151.898 186.447H149.814L132.676 0.1875H134.484V0.514543L136.861 1.59895L137.791 9.94717L149.555 114.463L143.992 102.122L151.898 186.465V186.447ZM143.234 96.235L146.593 103.705L135.242 2.75221L134.605 2.45959L143.217 96.235H143.234Z" fill="white"/>
<path d="M126.131 4.66621L125.718 6.19815L110.94 23.411L110.061 24.4265L103.964 31.5354L100.295 35.8042L100.071 36.0624V36.0796L90.9425 46.6827V46.6999L54.3932 89.25L53.7387 88.6992L52.0508 88.2L91.287 42.8787L100.278 32.7231L100.485 32.4821L104.033 28.4715L109.234 22.602L110.13 21.6036L125.597 4.1154L126.407 3.20312L126.131 4.66621Z" fill="white"/>
<path d="M94.2148 11.9666L10.2307 91.1627L5.87305 91.593L94.6627 9.19531L94.2148 11.9666Z" fill="white"/>
</svg>
