<svg width="31" height="31" viewBox="0 0 31 31" fill="none" xmlns="http://www.w3.org/2000/svg">
<path d="M12.8965 14.8352C13.3988 14.0525 13.6639 13.6661 14.3666 12.9919L17.7897 9.76736C19.9792 7.70797 22.176 5.65954 24.4118 3.65029L26.0481 2.17736C26.745 1.54825 27.4436 0.771189 28.429 0.665656C30.1611 0.454803 31.4096 2.33882 30.5859 3.87996C30.4006 4.22681 30.1176 4.52678 29.866 4.82705L28.8669 6.00326C26.3591 8.91241 23.8083 11.7128 21.1357 14.4677L19.4055 16.2305C18.8474 16.791 17.3755 18.2856 16.6605 18.3103C16.3376 18.3215 16.1221 18.1038 15.904 17.8998L14.1986 16.2006C13.8098 15.8141 13.2492 15.2549 12.8965 14.8352Z" fill="#322554"/>
<path d="M15.1732 21.7231C14.22 21.995 13.664 21.3323 13.0555 20.7407L11.6561 19.3706C10.7788 18.5044 9.05195 17.3653 9.90853 16.0046C10.1351 15.6447 10.4741 15.2182 10.9063 15.1179C11.8196 15.029 12.4139 15.9756 13.0204 16.5712L14.852 18.3815C15.3902 18.9154 16.7941 19.9912 16.3646 20.8177C16.1382 21.2535 15.6322 21.5846 15.1732 21.7231Z" fill="#322554"/>
<path d="M5.14426 30.2075C4.29712 30.3849 2.70139 30.3181 1.82246 30.3181C1.37994 30.3181 0.203852 30.5335 0.155496 29.8426C0.128967 29.4635 0.54929 29.2027 0.770002 28.9593C2.34446 27.2229 2.43873 25.7863 2.75873 23.6756C3.16055 21.0252 4.83728 18.8329 7.66499 18.6237C9.10172 18.5084 9.82322 19.3894 10.7152 20.257C11.5875 21.1055 12.5727 21.8215 12.7296 23.1046C13.1138 26.2483 10.0761 28.87 7.36083 29.7549C6.64058 29.9897 5.89536 30.1207 5.14426 30.2075Z" fill="#322554"/>
</svg>
