<svg width="174" height="187" viewBox="0 0 174 187" fill="none" xmlns="http://www.w3.org/2000/svg">
<path d="M155.815 111.809C156.039 112.792 155.874 115.399 155.868 116.516L152.118 116.495C152.102 114.951 152.096 113.412 152.118 111.868C153.443 112.092 154.506 112.076 155.82 111.804L155.815 111.809Z" stroke="white" stroke-width="1.33567" stroke-miterlimit="10"/>
<path d="M143.687 10.5811C143.933 11.0993 144.066 11.7779 144.264 12.3282C144.98 14.2782 146.016 15.8276 147.678 17.0832C147.042 17.9487 146.241 18.7447 145.52 19.5461C145.108 20.0216 144.681 20.4651 144.237 20.9085C143.895 19.5408 143.783 18.0983 143.575 16.7038C143.302 14.8766 142.896 12.9853 142.827 11.1421L143.682 10.5811H143.687Z" stroke="white" stroke-width="1.33567" stroke-miterlimit="10"/>
<path d="M155.633 119.492C155.66 119.503 155.692 119.508 155.719 119.524C156.146 119.754 167.825 137.94 168.755 139.463C168.995 139.858 169.279 140.27 169.391 140.724L169.236 140.841C169.081 140.841 168.905 140.841 168.755 140.815C168.728 140.809 168.525 140.751 168.488 140.718C167.97 140.286 166.826 138.25 166.335 137.523L159.961 127.896C158.315 125.417 156.552 122.922 155.11 120.32C155.27 120.037 155.452 119.77 155.628 119.497L155.633 119.492Z" stroke="white" stroke-width="1.33567" stroke-miterlimit="10"/>
<path d="M152.064 119.508C152.385 119.668 152.566 119.946 152.78 120.224C149.676 125.214 146.417 130.151 143.142 135.028C142.325 136.241 141.512 137.459 140.711 138.683C140.3 139.308 139.899 140.029 139.423 140.606C139.215 140.863 139.082 140.815 138.777 140.847C138.542 140.836 138.398 140.868 138.2 140.734C138.179 140.467 138.259 140.27 138.398 140.045C139.536 138.143 140.93 136.321 142.148 134.467C145.413 129.456 148.714 124.471 152.059 119.508H152.064Z" stroke="white" stroke-width="1.33567" stroke-miterlimit="10"/>
<path d="M140.551 13.3327C140.855 13.7013 141.806 21.0742 141.999 22.068C140.727 22.442 139.343 22.5755 138.045 22.8587L128.775 24.9317C128.257 25.0118 127.755 25.156 127.247 25.2896C128.984 23.4891 130.993 21.8596 132.863 20.1927C135.422 17.9114 137.949 15.5659 140.551 13.3327Z" stroke="white" stroke-width="1.33567" stroke-miterlimit="10"/>
<path d="M134.717 143.229L172.965 143.261C172.986 144.015 172.965 144.773 172.965 145.532C168.84 145.692 164.668 145.484 160.538 145.463L134.701 145.388L134.711 143.224L134.717 143.229Z" stroke="white" stroke-width="1.33567" stroke-miterlimit="10"/>
<path d="M140.337 24.7499L140.535 24.7873C140.337 25.2949 137.5 28.1051 136.934 28.7142L129.192 37.2091C128.252 38.2349 127.189 39.6667 126.109 40.5216C125.933 40.3185 125.928 40.0514 125.89 39.7896C125.602 37.4121 125.345 35.0239 125.116 32.6411C124.971 31.2039 124.784 29.7614 124.752 28.3188C126.061 27.9449 127.424 27.6831 128.749 27.3785C132.601 26.4863 136.496 25.7063 140.332 24.7499H140.337Z" stroke="white" stroke-width="1.33567" stroke-miterlimit="10"/>
<path d="M153.662 97.6403C153.71 97.6349 153.753 97.6242 153.801 97.6242C155.046 97.496 156.627 98.2066 157.546 99.0187C158.721 100.066 159.448 101.647 159.549 103.213C159.656 104.837 159.053 106.552 157.984 107.77C156.969 108.924 155.617 109.57 154.084 109.656C152.748 109.645 151.514 109.245 150.451 108.433C150.365 108.368 150.285 108.304 150.205 108.24C150.125 108.176 150.05 108.107 149.97 108.032C149.895 107.962 149.82 107.888 149.746 107.813C149.671 107.738 149.601 107.663 149.532 107.583C149.463 107.503 149.398 107.428 149.329 107.343C149.265 107.262 149.201 107.177 149.137 107.097C149.078 107.011 149.019 106.926 148.96 106.84C148.902 106.755 148.848 106.664 148.795 106.573C148.741 106.482 148.693 106.392 148.645 106.301C148.597 106.21 148.549 106.114 148.506 106.018C148.463 105.921 148.421 105.825 148.383 105.729C148.346 105.633 148.308 105.537 148.276 105.435C148.244 105.339 148.212 105.238 148.18 105.136C148.154 105.035 148.127 104.933 148.1 104.832C148.073 104.73 148.052 104.629 148.036 104.527C148.015 104.425 147.999 104.324 147.988 104.217C147.79 102.678 148.196 101.188 149.153 99.9643C150.285 98.5218 151.872 97.854 153.651 97.6242L153.662 97.6403Z" stroke="white" stroke-width="1.33567" stroke-miterlimit="10"/>
<path d="M153.336 99.8415C154.073 99.7881 154.682 99.8842 155.35 100.221C156.301 100.696 157.07 101.556 157.391 102.577C157.69 103.539 157.535 104.554 157.044 105.425C156.403 106.552 155.51 107.081 154.298 107.391C154.116 107.407 153.934 107.407 153.753 107.396C153.571 107.385 153.389 107.364 153.208 107.327C153.026 107.289 152.85 107.246 152.679 107.188C152.508 107.129 152.337 107.059 152.171 106.974C152.112 106.942 152.054 106.915 151.995 106.878C151.936 106.846 151.883 106.808 151.824 106.776C151.765 106.739 151.712 106.702 151.658 106.664C151.605 106.627 151.551 106.584 151.498 106.541C151.445 106.498 151.396 106.456 151.343 106.413C151.295 106.37 151.247 106.322 151.199 106.279C151.151 106.231 151.103 106.183 151.06 106.135C151.017 106.087 150.969 106.034 150.926 105.986C150.884 105.932 150.841 105.884 150.803 105.831C150.761 105.777 150.723 105.724 150.686 105.67C150.648 105.617 150.611 105.558 150.579 105.499C150.547 105.441 150.51 105.387 150.483 105.328C150.456 105.27 150.424 105.211 150.392 105.152C150.365 105.093 150.339 105.029 150.312 104.97C150.285 104.906 150.264 104.848 150.242 104.783C150.221 104.719 150.2 104.655 150.178 104.591C150.162 104.532 150.146 104.474 150.13 104.415C150.114 104.356 150.104 104.297 150.093 104.233C150.082 104.174 150.071 104.11 150.061 104.052C150.055 103.993 150.045 103.929 150.039 103.87C150.039 103.811 150.029 103.747 150.029 103.688C150.029 103.629 150.029 103.565 150.029 103.507C150.029 103.448 150.029 103.384 150.039 103.325C150.039 103.261 150.05 103.202 150.055 103.143C150.061 103.085 150.071 103.02 150.082 102.962C150.093 102.903 150.104 102.839 150.12 102.78C150.136 102.721 150.146 102.662 150.162 102.604C150.178 102.545 150.2 102.486 150.216 102.427C150.237 102.369 150.258 102.31 150.28 102.256C150.301 102.198 150.328 102.144 150.355 102.085C150.381 102.032 150.408 101.973 150.435 101.92C150.461 101.866 150.494 101.813 150.526 101.76C151.161 100.67 152.166 100.157 153.341 99.8415H153.336Z" stroke="white" stroke-width="1.33567" stroke-miterlimit="10"/>
<path d="M153.325 102.246C153.582 102.214 153.854 102.182 154.111 102.224C154.479 102.288 154.827 102.545 155.035 102.849C155.27 103.197 155.339 103.608 155.233 104.009C155.094 104.543 154.757 104.799 154.298 105.067C154.095 105.099 153.881 105.131 153.678 105.12C153.293 105.099 152.903 104.896 152.663 104.591C152.412 104.271 152.342 103.859 152.406 103.458C152.508 102.876 152.85 102.55 153.32 102.235L153.325 102.246Z" stroke="white" stroke-width="1.33567" stroke-miterlimit="10"/>
<path d="M122.359 29.7187C122.749 30.9528 122.765 33.0899 122.893 34.4469C123.16 37.2732 123.55 40.1529 123.625 42.9846C122.311 43.1662 120.986 43.2624 119.672 43.4654C114.954 44.192 110.258 45.0949 105.529 45.7681L104.172 45.9925C107.886 42.477 111.818 39.1645 115.632 35.7559C117.855 33.7684 119.992 31.5138 122.364 29.7133L122.359 29.7187Z" stroke="white" stroke-width="1.33567" stroke-miterlimit="10"/>
<path d="M152.764 18.9104H154.757L154.725 95.3323C154.068 95.3643 153.405 95.3483 152.748 95.3429C152.566 91.7527 152.689 88.1036 152.679 84.508L152.657 63.7302L152.668 36.6375C152.631 30.7284 152.668 24.8194 152.764 18.9104Z" stroke="white" stroke-width="1.33567" stroke-miterlimit="10"/>
<path d="M120.708 45.6986C120.949 45.6612 121.077 45.6398 121.317 45.7253C120.852 46.4893 120.014 47.2373 119.415 47.9212C117.524 50.0689 115.611 52.206 113.677 54.3164L107.036 61.6839C105.818 63.0463 104.68 64.5476 103.334 65.7871C103.109 64.1843 103.184 62.48 103.099 60.8612L102.495 48.5943C105.765 48.0921 109.029 47.5686 112.288 47.0343C115.088 46.5588 117.877 46.0245 120.703 45.6986H120.708Z" stroke="white" stroke-width="1.33567" stroke-miterlimit="10"/>
<path d="M45.2854 100.921C45.9265 101.482 46.4661 102.326 47.0004 102.994L50.6174 107.546L60.0152 119.284C61.6287 121.271 63.3223 123.2 64.8984 125.219L50.4304 125.198C49.2657 120.122 48.1651 115.031 47.1233 109.928C46.4982 106.921 45.8197 103.955 45.2907 100.926L45.2854 100.921Z" stroke="white" stroke-width="1.33567" stroke-miterlimit="10"/>
<path d="M152.358 1.05516C154.143 0.862818 156.082 1.16201 157.61 2.13438C159.363 3.24566 160.613 5.16368 161.045 7.18322C161.072 7.3061 161.094 7.42899 161.115 7.55721C161.136 7.68009 161.152 7.80832 161.168 7.9312C161.184 8.05408 161.195 8.1823 161.2 8.30519C161.211 8.43341 161.211 8.55629 161.216 8.68452C161.216 8.81274 161.216 8.93562 161.216 9.06385C161.216 9.19207 161.206 9.31495 161.195 9.44318C161.184 9.5714 161.174 9.69429 161.152 9.81717C161.136 9.94005 161.115 10.0683 161.094 10.1912C161.072 10.314 161.045 10.4369 161.019 10.5598C160.992 10.6827 160.96 10.8056 160.923 10.9231C160.891 11.046 160.853 11.1635 160.81 11.2864C160.768 11.4039 160.725 11.5215 160.682 11.639C160.634 11.7566 160.586 11.8741 160.533 11.9863C160.479 12.1038 160.426 12.216 160.367 12.3282C160.308 12.4404 160.249 12.5526 160.185 12.6595C160.121 12.7663 160.057 12.8785 159.988 12.98C158.716 14.9248 156.9 15.9185 154.666 16.3833C152.716 16.581 150.862 16.2925 149.217 15.1652C147.555 14.0326 146.471 12.1626 146.113 10.1965C145.733 8.14491 146.075 6.104 147.272 4.37297C147.347 4.26611 147.422 4.15926 147.496 4.05775C147.577 3.95624 147.657 3.84938 147.737 3.75321C147.822 3.6517 147.908 3.55553 147.993 3.45937C148.084 3.3632 148.17 3.27237 148.266 3.18155C148.357 3.09072 148.453 2.99989 148.549 2.91441C148.645 2.82893 148.747 2.74345 148.848 2.66331C148.95 2.58316 149.051 2.50302 149.158 2.42823C149.265 2.35343 149.372 2.27863 149.479 2.20918C149.585 2.13972 149.698 2.07027 149.81 2.00615C149.922 1.94204 150.034 1.87793 150.152 1.81916C150.269 1.76039 150.381 1.70162 150.504 1.64819C150.622 1.59477 150.745 1.54134 150.862 1.49326C150.985 1.44517 151.103 1.40243 151.226 1.35969C151.348 1.31695 151.471 1.27955 151.6 1.24215C151.722 1.20475 151.851 1.17269 151.979 1.14598C152.107 1.11392 152.235 1.08721 152.358 1.06584V1.05516Z" stroke="white" stroke-width="1.33567" stroke-miterlimit="10"/>
<path d="M152.545 4.10576C153.528 3.99891 154.469 4.03096 155.382 4.46906C156.509 5.00867 157.343 6.04516 157.744 7.21521C157.77 7.29 157.792 7.35946 157.813 7.43426C157.834 7.50905 157.856 7.58385 157.872 7.65865C157.888 7.73345 157.909 7.80824 157.92 7.88304C157.936 7.95784 157.947 8.03264 157.957 8.11278C157.968 8.18758 157.979 8.26772 157.984 8.34251C157.989 8.41731 157.995 8.49745 158 8.57225C158 8.64705 158 8.72719 158 8.80199C158 8.87678 158 8.95692 157.989 9.03172C157.989 9.10652 157.979 9.18666 157.968 9.26146C157.957 9.33625 157.947 9.41639 157.936 9.49119C157.925 9.56599 157.909 9.64079 157.893 9.71558C157.877 9.79038 157.856 9.86518 157.84 9.93998C157.818 10.0148 157.797 10.0896 157.776 10.159C157.754 10.2338 157.728 10.3033 157.701 10.3781C157.674 10.4475 157.642 10.5223 157.61 10.5918C157.578 10.6612 157.546 10.7307 157.509 10.8002C156.857 12.0557 155.815 12.6754 154.517 13.0975C153.469 13.2471 152.486 13.2631 151.509 12.7983C150.435 12.2908 149.644 11.3291 149.254 10.2178C149.227 10.143 149.201 10.0735 149.179 9.99875C149.158 9.92395 149.137 9.84915 149.115 9.77435C149.094 9.69956 149.078 9.62476 149.062 9.54996C149.046 9.47516 149.035 9.39502 149.024 9.32023C149.014 9.24543 149.003 9.16529 148.998 9.09049C148.992 9.01569 148.987 8.93555 148.982 8.86075C148.982 8.78061 148.982 8.70582 148.982 8.62568C148.982 8.54554 148.982 8.47074 148.987 8.3906C148.987 8.31046 148.998 8.23566 149.008 8.16086C149.019 8.08606 149.024 8.00592 149.04 7.93113C149.051 7.85633 149.067 7.77619 149.083 7.70139C149.099 7.62659 149.115 7.5518 149.137 7.477C149.158 7.4022 149.179 7.3274 149.201 7.2526C149.222 7.17781 149.249 7.10301 149.275 7.03355C149.302 6.95876 149.334 6.8893 149.361 6.81985C149.393 6.75039 149.425 6.67559 149.457 6.60614C150.104 5.28115 151.193 4.56523 152.545 4.11644V4.10576Z" stroke="white" stroke-width="1.33567" stroke-miterlimit="10"/>
<path d="M152.967 6.41381C153.368 6.38709 153.747 6.39244 154.132 6.53135C154.73 6.7504 155.243 7.1885 155.5 7.78153C155.526 7.84565 155.553 7.9151 155.575 7.97921C155.596 8.04867 155.617 8.11812 155.633 8.18758C155.649 8.25703 155.66 8.32649 155.671 8.39594C155.681 8.4654 155.681 8.5402 155.687 8.60965C155.687 8.67911 155.687 8.7539 155.681 8.82336C155.676 8.89281 155.665 8.96761 155.655 9.03707C155.644 9.10652 155.628 9.17598 155.607 9.24543C155.585 9.31489 155.564 9.379 155.537 9.44845C155.227 10.1964 154.693 10.517 153.977 10.8108C153.667 10.8536 153.336 10.875 153.031 10.8055C152.962 10.7895 152.887 10.7681 152.823 10.7467C152.754 10.7254 152.684 10.6986 152.62 10.6666C152.556 10.6345 152.486 10.6025 152.428 10.5651C152.364 10.5277 152.305 10.4903 152.241 10.4475C152.182 10.4048 152.123 10.3567 152.07 10.3086C152.016 10.2605 151.963 10.2071 151.915 10.1537C151.867 10.1003 151.819 10.0415 151.776 9.98807C151.733 9.9293 151.69 9.87053 151.653 9.80641C151.338 9.28283 151.242 8.62034 151.418 8.03264C151.669 7.19918 152.251 6.78779 152.989 6.41915L152.967 6.41381Z" stroke="white" stroke-width="1.33567" stroke-miterlimit="10"/>
<path d="M99.9678 49.5454C100.294 50.0904 100.999 65.7071 100.94 67.5824C94.2297 67.7052 87.4979 67.5824 80.7875 67.6037H79.5801C81.3645 65.7926 83.4696 64.1096 85.3769 62.4213C90.2281 58.1151 95.1701 53.9104 99.9678 49.5401V49.5454Z" stroke="white" stroke-width="1.33567" stroke-miterlimit="10"/>
<path d="M153.79 123.13C154.495 123.59 163.572 138.304 165.453 140.681C161.735 140.718 158.016 140.681 154.303 140.67H142.485C143.911 138.341 145.471 136.102 146.941 133.805C149.222 130.252 151.45 126.646 153.79 123.13Z" stroke="white" stroke-width="1.33567" stroke-miterlimit="10"/>
<path d="M56.9484 159.685C62.9376 159.658 68.9214 159.658 74.9105 159.69C74.8998 163.751 74.9212 167.811 74.9907 171.866L56.9431 171.856C56.9538 167.801 56.879 163.74 56.9484 159.68V159.685Z" stroke="white" stroke-width="1.33567" stroke-miterlimit="10"/>
<path d="M17.0064 159.664C23.0864 159.583 29.1824 159.68 35.2677 159.696L35.3051 171.866C33.3657 172.037 31.2661 171.888 29.3106 171.888L17.0171 171.877L17.0064 159.664Z" stroke="white" stroke-width="1.33567" stroke-miterlimit="10"/>
<path d="M78.1483 69.9492C81.3859 69.8637 84.6396 69.9171 87.8827 69.9171C91.7721 69.9064 95.6563 69.9171 99.5458 69.9545C98.2689 71.9313 96.4684 73.641 94.8816 75.3667C92.9422 77.4931 91.0242 79.6301 89.1222 81.7886L83.1704 88.3921C82.0805 89.6156 81.0761 90.9299 79.9114 92.0839C79.4786 89.5141 79.4359 86.2497 79.2061 83.573C78.9283 80.5758 78.6772 77.5785 78.4421 74.5759C78.3246 73.0372 78.1643 71.4879 78.1429 69.9438L78.1483 69.9492Z" stroke="white" stroke-width="1.33567" stroke-miterlimit="10"/>
<path d="M47.0056 96.4917C52.5513 96.4169 58.1024 96.4917 63.6481 96.4917C67.6444 96.4917 71.6835 96.3741 75.6745 96.5344C74.4884 98.2655 72.9444 99.8469 71.5232 101.386C69.9258 103.111 68.3443 104.848 66.7789 106.6C64.2839 109.234 61.8904 111.932 59.4861 114.646C57.1514 111.996 55.0624 109.143 52.8345 106.408C50.4891 103.523 47.9192 100.686 45.8463 97.5923L47.0003 96.4863L47.0056 96.4917Z" stroke="white" stroke-width="1.33567" stroke-miterlimit="10"/>
<path d="M77.4643 139.003C80.7554 138.939 84.0518 138.977 87.3429 138.966L87.3322 162.554C87.3269 164.456 87.3322 166.353 87.3483 168.255C87.3643 169.382 87.4978 170.632 87.3483 171.743L87.204 171.85L77.4643 171.861L77.475 148.198C77.475 145.131 77.4215 142.07 77.4643 139.003Z" stroke="white" stroke-width="1.33567" stroke-miterlimit="10"/>
<path d="M75.7065 70.9321C75.792 71.055 75.8081 71.1191 75.8241 71.2741C76.0592 73.7691 76.166 76.2855 76.3637 78.7805L77.6085 94.0927C69.0549 94.0606 60.5012 94.0767 51.9476 94.1408H49.8319C50.8417 92.8051 52.3857 91.7419 53.6305 90.6146C57.0552 87.4517 60.5226 84.3423 64.0381 81.2756L71.9773 74.1591C73.2008 73.0745 74.4029 71.9152 75.7119 70.9375L75.7065 70.9321Z" stroke="white" stroke-width="1.33567" stroke-miterlimit="10"/>
<path d="M37.6986 148.855L54.5281 148.818L54.5014 171.856C48.8969 171.941 43.2817 171.856 37.6772 171.85C37.6665 164.189 37.5971 156.517 37.6986 148.855Z" stroke="white" stroke-width="1.33567" stroke-miterlimit="10"/>
<path d="M134.759 147.952C137.196 147.894 139.643 147.942 142.079 147.947L166.303 147.968C168.547 147.968 170.801 147.931 173.04 148.022V156.041C173.045 157.446 173.109 158.878 173.013 160.278C169.498 160.326 165.971 160.267 162.451 160.267L134.743 160.289C134.637 156.191 134.738 152.056 134.759 147.952Z" stroke="white" stroke-width="1.33567" stroke-miterlimit="10"/>
<path d="M58.7276 127.656L91.7134 127.623C91.7722 130.573 91.6707 133.543 91.6653 136.492L46.2418 136.519L13.1278 136.476C13.0904 133.554 13.0957 130.637 13.1438 127.714C28.3331 127.522 43.533 127.778 58.7276 127.666V127.656Z" stroke="white" stroke-width="1.33567" stroke-miterlimit="10"/>
<path d="M33.3283 82.4617C34.9204 82.451 36.5927 82.5579 37.9497 83.4875C38.8313 84.0912 39.4403 84.9621 39.7769 85.9719C40.2684 87.4571 40.3913 89.1668 40.6691 90.7108C40.9256 92.132 41.2782 93.5264 41.5667 94.9422C41.8339 96.2512 42.0209 97.5708 42.2933 98.8745L45.5631 114.251C46.3591 117.9 47.2139 121.527 47.9032 125.198C43.832 125.177 39.7609 125.177 35.6844 125.198L20.96 125.23C21.3126 122.724 21.8896 120.235 22.3704 117.75C23.2306 113.054 24.1335 108.363 25.0738 103.683L27.2323 92.4632C27.6009 90.5345 27.8734 88.5096 28.3863 86.6237C28.6 85.833 28.9419 85.1063 29.4655 84.4706C30.47 83.2524 31.7682 82.6327 33.3283 82.4724V82.4617Z" stroke="white" stroke-width="1.33567" stroke-miterlimit="10"/>
<path d="M33.2215 84.2943C34.1778 84.2035 35.2036 84.2889 36.0852 84.695C36.1439 84.7217 36.2081 84.7538 36.2668 84.7858C36.3256 84.8179 36.3844 84.8499 36.4431 84.882C36.5019 84.9194 36.5553 84.9514 36.6141 84.9888C36.6675 85.0262 36.7263 85.0636 36.7797 85.1064C36.8332 85.1438 36.8866 85.1865 36.94 85.2292C36.9934 85.272 37.0415 85.3147 37.0949 85.3575C37.143 85.4002 37.1965 85.4483 37.2392 85.4964C37.2873 85.5445 37.3354 85.5926 37.3781 85.6406C37.4209 85.6887 37.4689 85.7422 37.5117 85.7902C37.5544 85.8383 37.5972 85.8971 37.6346 85.9505C37.6773 86.0039 37.7147 86.0574 37.7521 86.1161C37.7895 86.1696 37.8269 86.2283 37.859 86.2871C37.8964 86.3459 37.9284 86.4046 37.9605 86.4634C37.9925 86.5222 38.0246 86.581 38.0513 86.6451C38.078 86.7038 38.1101 86.768 38.1368 86.8267C38.1635 86.8908 38.1902 86.9496 38.2116 87.0137C38.5749 88.0181 38.4253 89.1935 37.9658 90.1445C37.3728 91.384 36.3416 92.0252 35.0861 92.4472C34.0389 92.6342 33.1146 92.6129 32.1423 92.1053C31.1592 91.5924 30.4807 90.6948 30.1548 89.6423C29.8075 88.5364 29.8716 87.3343 30.438 86.3138C31.0737 85.1705 32.0194 84.6522 33.2215 84.2889V84.2943Z" stroke="white" stroke-width="1.33567" stroke-miterlimit="10"/>
<path d="M33.7131 86.6931C34.055 86.6717 34.3916 86.6557 34.7175 86.7732C35.2197 86.9495 35.6525 87.3556 35.8502 87.8471C36.0105 88.2425 36.0212 88.6966 35.8448 89.092C35.6205 89.5888 35.2625 89.8453 34.771 90.0376C34.4077 90.075 34.0123 90.1017 33.6543 90.0056C33.2376 89.8934 32.8476 89.5942 32.6392 89.2202C32.4255 88.8355 32.3935 88.376 32.527 87.9593C32.7247 87.3235 33.1468 86.9976 33.7131 86.6931Z" stroke="white" stroke-width="1.33567" stroke-miterlimit="10"/>
<path d="M17.3483 138.95L74.9478 138.966C75.0974 145.03 74.9478 151.131 74.9745 157.201C71.2987 157.291 67.6069 157.222 63.9312 157.227L56.9483 157.206V151.04C56.9376 149.935 57.007 148.775 56.8895 147.675C56.8468 147.301 56.8094 146.777 56.4568 146.553C56.2804 146.446 56.0774 146.424 55.8797 146.419C52.3589 146.301 48.79 146.414 45.2585 146.403C42.523 146.398 39.7128 146.232 36.9826 146.366C36.4965 146.392 36.0423 146.467 35.5775 146.622C35.3585 146.852 35.3424 147.124 35.305 147.439C35.1768 148.588 35.2623 149.833 35.2676 150.998L35.2944 157.238H17.033C17.001 155.165 16.8674 139.377 17.0865 138.993L17.3483 138.955V138.95Z" stroke="white" stroke-width="1.33567" stroke-miterlimit="10"/>
<path d="M141.368 8.9089L141.4 8.93027C141.213 9.40577 140.214 10.111 139.819 10.485C138.804 11.452 137.837 12.4618 136.811 13.4128C134.701 15.3682 132.51 17.2328 130.373 19.1562L103.489 43.3639L62.8361 79.0264C56.5691 84.6309 50.3448 90.2727 44.158 95.9627C43.8054 94.0607 43.4314 92.1587 43.0414 90.2674C42.7422 88.4402 42.6193 86.2176 41.8286 84.5293C40.8616 82.4617 39.0344 81.1955 36.94 80.4529C37.8162 79.7797 38.7886 79.2027 39.6969 78.5616C43.6077 75.8368 47.556 73.1708 51.5363 70.5529L71.0104 57.2282L108.65 31.1986C119.597 23.8257 130.507 16.394 141.374 8.90356L141.368 8.9089Z" stroke="white" stroke-width="1.33567" stroke-miterlimit="10"/>
<path d="M1.18672 174.265C12.9086 174.137 24.6465 174.265 36.3683 174.265L110.386 174.281V185.693L1.10658 185.667C1.08521 181.969 0.834102 177.925 1.18672 174.26V174.265Z" stroke="white" stroke-width="1.33567" stroke-miterlimit="10"/>
</svg>
