<svg width="28" height="24" viewBox="0 0 28 24" fill="none" xmlns="http://www.w3.org/2000/svg">
<path d="M25.1992 9.69434C25.1992 9.18097 24.9991 8.69888 24.6364 8.33589L16.8616 0.561354C16.1137 -0.187118 14.8932 -0.187118 14.1453 0.561354L4.63747 10.0695L15.1283 20.5603L24.6364 11.0525C24.9991 10.6895 25.1992 10.2071 25.1992 9.69434ZM0.562763 14.1442C0.200093 14.5072 0 14.9893 0 15.5023C0 16.0157 0.200093 16.4978 0.562763 16.8608L7.10736 23.406C7.1889 23.4875 7.29941 23.5334 7.41469 23.5336L11.9874 23.5414C12.0894 23.5417 12.1875 23.5011 12.2597 23.4288L14.2228 21.4657L3.73204 10.9749L0.562763 14.1442ZM26.6861 21.2366H17.722C17.0867 21.2366 16.5689 21.7537 16.5689 22.389C16.5689 23.0243 17.0867 23.5414 17.722 23.5414H26.6861C27.3214 23.5414 27.8392 23.0243 27.8392 22.389C27.8392 21.7537 27.3214 21.2366 26.6861 21.2366Z" fill="#322554"/>
</svg>
