<svg width="352" height="136" viewBox="0 0 352 136" fill="none" xmlns="http://www.w3.org/2000/svg">
<path d="M102.61 57.3438H4.10352V60.166H102.61V57.3438Z" stroke="black" stroke-width="1.95993" stroke-miterlimit="10"/>
<path d="M102.609 60.1641H6.18066V64.0317H102.609V60.1641Z" stroke="black" stroke-width="1.95993" stroke-miterlimit="10"/>
<path d="M267.61 24.4922H86.708V28.3598H267.61V24.4922Z" stroke="black" stroke-width="1.95993" stroke-miterlimit="10"/>
<path d="M102.609 64.0312H29.7393V133.374H102.609V64.0312Z" stroke="black" stroke-width="1.95993" stroke-miterlimit="10"/>
<path d="M245.763 28.3438H102.832V134.036H245.763V28.3438Z" stroke="black" stroke-width="1.95993" stroke-miterlimit="10"/>
<path d="M42.5578 64.0312H37.3574V124.24H42.5578V64.0312Z" stroke="black" stroke-width="1.95993" stroke-miterlimit="10"/>
<path d="M102.322 129.142H37.6576C34.9529 129.142 32.7578 126.947 32.7578 124.242H102.322V129.142Z" stroke="black" stroke-width="1.95993" stroke-miterlimit="10"/>
<path d="M102.688 37.2727H92.3524L0.980469 57.3424H102.609C102.609 57.3424 102.688 36.8285 102.688 37.2727Z" stroke="black" stroke-width="1.95993" stroke-linejoin="round"/>
<path d="M245.945 61.3281L346.398 61.3281V58.0224L245.945 58.0224V61.3281Z" stroke="black" stroke-width="1.95993" stroke-miterlimit="10"/>
<path d="M245.945 65.8438L343.523 65.8438V61.3228L245.945 61.3228V65.8438Z" stroke="black" stroke-width="1.95993" stroke-miterlimit="10"/>
<path d="M245.841 34.5709H260.122L350.723 58.0378H245.958C245.958 58.0378 245.854 34.0483 245.854 34.5709H245.841Z" stroke="black" stroke-width="1.95993" stroke-linejoin="round"/>
<path d="M276.233 24.493H77.6396L167.718 1L276.233 24.493Z" stroke="black" stroke-width="1.95993" stroke-linejoin="round"/>
<path d="M175.44 67.2969H161.473V124.083H175.44V67.2969Z" stroke="black" stroke-width="1.95993" stroke-miterlimit="10"/>
<path d="M225.393 69.0781H189.121V127.641H225.393V69.0781Z" stroke="black" stroke-width="1.95993" stroke-miterlimit="10"/>
<path d="M189.303 127.284L182.025 133.974V62.0703" stroke="black" stroke-width="1.95993" stroke-linejoin="round"/>
<path d="M225.393 127.648L236.695 134.038" stroke="black" stroke-width="1.95993" stroke-miterlimit="10"/>
<path d="M205.846 72.7188H192.466V78.9644H205.846V72.7188Z" stroke="black" stroke-width="1.95993" stroke-miterlimit="10"/>
<path d="M222.126 72.7188H208.746V78.9644H222.126V72.7188Z" stroke="black" stroke-width="1.95993" stroke-miterlimit="10"/>
<path d="M205.846 81.7891H192.466V88.0347H205.846V81.7891Z" stroke="black" stroke-width="1.95993" stroke-miterlimit="10"/>
<path d="M222.126 81.7891H208.746V88.0347H222.126V81.7891Z" stroke="black" stroke-width="1.95993" stroke-miterlimit="10"/>
<path d="M205.846 90.8594H192.466V97.105H205.846V90.8594Z" stroke="black" stroke-width="1.95993" stroke-miterlimit="10"/>
<path d="M222.126 90.8594H208.746V97.105H222.126V90.8594Z" stroke="black" stroke-width="1.95993" stroke-miterlimit="10"/>
<path d="M205.846 99.9219H192.466V106.168H205.846V99.9219Z" stroke="black" stroke-width="1.95993" stroke-miterlimit="10"/>
<path d="M222.126 99.9219H208.746V106.168H222.126V99.9219Z" stroke="black" stroke-width="1.95993" stroke-miterlimit="10"/>
<path d="M205.846 108.992H192.466V115.238H205.846V108.992Z" stroke="black" stroke-width="1.95993" stroke-miterlimit="10"/>
<path d="M222.126 108.992H208.746V115.238H222.126V108.992Z" stroke="black" stroke-width="1.95993" stroke-miterlimit="10"/>
<path d="M205.846 118.062H192.466V124.308H205.846V118.062Z" stroke="black" stroke-width="1.95993" stroke-miterlimit="10"/>
<path d="M222.126 118.062H208.746V124.308H222.126V118.062Z" stroke="black" stroke-width="1.95993" stroke-miterlimit="10"/>
<path d="M161.473 28.2969V134.042" stroke="black" stroke-width="1.95993" stroke-miterlimit="10"/>
<path d="M341.394 65.8047H246.207V128.836H341.394V65.8047Z" stroke="black" stroke-width="1.95993" stroke-miterlimit="10"/>
<path d="M335.253 74.7344H250.074V128.541H335.253V74.7344Z" stroke="black" stroke-width="1.95993" stroke-miterlimit="10"/>
<path d="M31.5295 51.8392C31.8561 54.2042 29.4389 56.3209 27.1 56.1902C24.7481 56.2294 22.4093 54.0082 22.8535 51.6562C25.2054 55.0404 29.0469 55.1319 31.5425 51.8392H31.5295Z" fill="black"/>
<path d="M40.3097 51.8392C40.6495 54.2042 38.2192 56.3209 35.8803 56.1902C33.5284 56.2294 31.1895 54.0082 31.6338 51.6562C33.9857 55.0404 37.8272 55.1319 40.3228 51.8392H40.3097Z" fill="black"/>
<path d="M48.9201 51.8392C49.2598 54.2042 46.8295 56.3209 44.4907 56.1902C42.1387 56.2294 39.7999 54.0082 40.2441 51.6562C42.5961 55.0404 46.4375 55.1319 48.9332 51.8392H48.9201Z" fill="black"/>
<path d="M57.6089 51.8392C57.9356 54.2042 55.5184 56.3209 53.1664 56.1902C50.8145 56.2294 48.4757 54.0082 48.9199 51.6562C51.2718 55.0404 55.1133 55.1319 57.6089 51.8392Z" fill="black"/>
<path d="M66.3898 51.8392C66.7295 54.2042 64.2992 56.3209 61.9604 56.1902C59.6085 56.2294 57.2696 54.0082 57.7139 51.6562C60.0658 55.0404 63.9072 55.1319 66.4029 51.8392H66.3898Z" fill="black"/>
<path d="M74.9872 51.8392C75.327 54.2042 72.8966 56.3209 70.5578 56.1902C68.2189 56.2294 65.867 54.0082 66.3113 51.6562C68.6632 55.0404 72.5047 55.1319 75.0003 51.8392H74.9872Z" fill="black"/>
<path d="M83.4279 51.8392C83.7676 54.2042 81.3373 56.3209 78.9985 56.1902C76.6465 56.2294 74.3077 54.0082 74.752 51.6562C77.1039 55.0404 80.9584 55.1319 83.441 51.8392H83.4279Z" fill="black"/>
<path d="M92.2086 51.8392C92.5483 54.2042 90.118 56.3209 87.766 56.1902C85.4141 56.2294 83.0753 54.0082 83.5195 51.6562C85.8714 55.0404 89.726 55.1319 92.2086 51.8392Z" fill="black"/>
<path d="M100.819 51.8392C101.158 54.2042 98.7279 56.3209 96.3891 56.1902C94.0372 56.2294 91.6983 54.0082 92.1426 51.6562C94.4945 55.0404 98.349 55.1319 100.832 51.8392H100.819Z" fill="black"/>
<path d="M86.6421 46.1439C86.9688 48.5088 84.5516 50.6256 82.1996 50.4949C79.8477 50.5341 77.5089 48.3129 77.9531 45.9609C80.305 49.3581 84.1596 49.4365 86.6421 46.1439Z" fill="black"/>
<path d="M95.2531 46.1439C95.5928 48.5088 93.1625 50.6256 90.8237 50.4949C88.4717 50.5341 86.1329 48.3129 86.5771 45.9609C88.9291 49.3581 92.7705 49.4365 95.2662 46.1439H95.2531Z" fill="black"/>
<path d="M101.734 50.0873C98.7944 51.0803 95.4233 48.9767 95.2012 45.9845L95.3841 45.9453C95.7892 47.1735 96.7299 48.1274 97.8275 48.5194C98.912 48.9375 100.114 48.7937 100.989 48.2711L101.734 50.0873Z" fill="black"/>
<path d="M83.6112 40.1953C84.2122 45.0429 76.3725 46.258 75.4971 41.4497C78.5938 43.3704 81.2462 42.9653 83.6112 40.1953Z" fill="black"/>
<path d="M92.2222 40.1986C92.5619 42.5635 90.1316 44.6803 87.7797 44.5496C85.4278 44.5888 83.0889 42.3675 83.5332 40.0156C85.8851 43.4128 89.7266 43.4912 92.2222 40.1986Z" fill="black"/>
<path d="M100.819 40.1986C101.158 42.5635 98.7279 44.6803 96.3891 44.5496C94.0372 44.5888 91.6983 42.3675 92.1426 40.0156C94.4945 43.4128 98.336 43.4912 100.832 40.1986H100.819Z" fill="black"/>
<path d="M69.565 46.1439C69.8917 48.5088 67.4744 50.6256 65.1225 50.4949C62.7706 50.5341 60.4317 48.3129 60.876 45.9609C63.2279 49.3581 67.0694 49.4365 69.565 46.1439Z" fill="black"/>
<path d="M61.0851 46.1439C61.4249 48.5088 58.9945 50.6256 56.6557 50.4949C54.3038 50.5341 51.9649 48.3129 52.4092 45.9609C54.7611 49.3581 58.6026 49.4365 61.0982 46.1439H61.0851Z" fill="black"/>
<path d="M52.5398 46.1406C53.1539 50.9359 45.4056 52.2164 44.4648 47.4603C47.5746 49.3026 50.1748 48.8845 52.5398 46.1406Z" fill="black"/>
<path d="M78.1627 46.1439C78.4893 48.5088 76.0721 50.6256 73.7201 50.4949C71.3682 50.5341 69.0294 48.3129 69.4736 45.9609C71.8255 49.3581 75.667 49.4365 78.1627 46.1439Z" fill="black"/>
<path d="M325.296 52.0234C326.838 54.2055 328.889 54.5975 331.071 54.3884C331.725 54.3754 332.09 53.4869 332.587 52.9903C333.541 55.695 331.006 56.7534 328.706 56.283C326.746 55.9172 325.035 54.0226 325.296 52.0234Z" fill="black"/>
<path d="M316.516 52.0267C318.999 55.3194 322.853 55.241 325.205 51.8438C325.636 54.1957 323.297 56.4169 320.958 56.3777C318.62 56.5084 316.189 54.3917 316.516 52.0267Z" fill="black"/>
<path d="M307.906 52.0267C310.388 55.3194 314.243 55.241 316.595 51.8438C317.026 54.1957 314.687 56.4169 312.348 56.3777C310.009 56.5084 307.579 54.3917 307.919 52.0267H307.906Z" fill="black"/>
<path d="M299.478 52.0267C301.96 55.3194 305.815 55.241 308.167 51.8438C308.598 54.1957 306.259 56.4169 303.92 56.3777C301.582 56.5084 299.151 54.3917 299.478 52.0267Z" fill="black"/>
<path d="M290.684 52.0267C293.167 55.3194 297.021 55.241 299.373 51.8438C299.804 54.1957 297.465 56.4169 295.126 56.3777C292.788 56.5084 290.357 54.3917 290.684 52.0267Z" fill="black"/>
<path d="M282.087 52.0267C284.57 55.3194 288.424 55.241 290.776 51.8438C291.221 54.1957 288.869 56.4169 286.53 56.3777C284.191 56.5084 281.761 54.3917 282.1 52.0267H282.087Z" fill="black"/>
<path d="M273.162 52.0267C275.658 55.3194 279.5 55.241 281.851 51.8438C282.283 54.1957 279.944 56.4169 277.605 56.3777C275.266 56.5084 272.836 54.3917 273.162 52.0267Z" fill="black"/>
<path d="M264.735 52.0267C267.217 55.3194 271.072 55.241 273.424 51.8438C273.855 54.1957 271.516 56.4169 269.177 56.3777C266.838 56.5084 264.408 54.3917 264.735 52.0267Z" fill="black"/>
<path d="M256.882 53.1059C257.222 53.4718 257.509 53.8376 257.81 54.0728C258.672 54.6739 259.848 54.3995 260.854 54.3864C262.239 54.1904 263.572 53.4326 264.631 51.8516C265.009 53.916 263.219 55.9544 261.168 56.2941C259.051 56.7383 256.164 55.7192 256.869 53.1059H256.882Z" fill="black"/>
<path d="M295.884 46.8392C298.367 50.1319 302.221 50.0535 304.573 46.6562C305.017 49.0082 302.665 51.2294 300.327 51.1902C297.988 51.3209 295.557 49.2042 295.897 46.8392H295.884Z" fill="black"/>
<path d="M287.274 46.8392C289.756 50.1319 293.611 50.0535 295.963 46.6562C296.394 49.0082 294.055 51.2294 291.716 51.1902C289.377 51.3209 286.947 49.2042 287.274 46.8392Z" fill="black"/>
<path d="M283.028 40.8906C285.367 43.5169 287.732 44.0004 290.907 42.4847C289.744 46.9795 282.361 45.4769 283.028 40.8906Z" fill="black"/>
<path d="M274.365 40.8939C276.847 44.1865 280.702 44.1081 283.054 40.7109C283.498 43.0629 281.146 45.2841 278.807 45.2449C276.468 45.3756 274.038 43.2588 274.365 40.8939Z" fill="black"/>
<path d="M265.689 40.8939C268.171 44.1865 272.026 44.1081 274.378 40.7109C274.809 43.0629 272.47 45.2841 270.131 45.2449C267.792 45.3756 265.362 43.2588 265.689 40.8939Z" fill="black"/>
<path d="M256.96 40.8939C259.443 44.1865 263.297 44.1081 265.649 40.7109C266.08 43.0629 263.742 45.2841 261.403 45.2449C259.064 45.3756 256.634 43.2588 256.973 40.8939H256.96Z" fill="black"/>
<path d="M248.285 40.8939C250.767 44.1865 254.622 44.1081 256.974 40.7109C257.405 43.0629 255.066 45.2841 252.727 45.2449C250.388 45.3756 247.958 43.2588 248.298 40.8939H248.285Z" fill="black"/>
<path d="M261.298 36.5657C263.781 39.8584 267.635 39.78 269.987 36.3828C270.431 38.7347 268.08 40.956 265.741 40.9168C263.402 41.0474 260.972 38.9307 261.298 36.5657Z" fill="black"/>
<path d="M269.752 37.3359C272.091 39.9361 274.365 40.4196 277.566 39.0345C276.351 43.4379 269.06 41.8438 269.752 37.3359Z" fill="black"/>
<path d="M252.635 36.5657C255.118 39.8584 258.972 39.78 261.324 36.3828C261.768 38.7347 259.416 40.956 257.078 40.9168C254.739 41.0474 252.308 38.9307 252.648 36.5657H252.635Z" fill="black"/>
<path d="M245.92 38.3289C249.082 39.0606 251.251 38.1852 253.211 35.8594C254.152 40.0144 247.619 42.1312 245.92 38.3289Z" fill="black"/>
<path d="M304.364 46.8359C305.984 49.0572 307.996 49.4884 310.296 49.1356C311.015 49.0311 311.42 48.234 311.942 47.6591C312.779 50.2723 310.218 51.5528 307.944 51.1217C305.906 50.8473 304.076 48.8873 304.364 46.8359Z" fill="black"/>
<path d="M261.703 46.8392C264.186 50.1319 268.041 50.0535 270.392 46.6562C270.824 49.0082 268.485 51.2294 266.146 51.1902C263.807 51.3209 261.377 49.2042 261.717 46.8392H261.703Z" fill="black"/>
<path d="M257.144 50.205C257.745 49.813 258.973 48.9637 259.535 48.5195C260.214 48.0099 260.815 47.5264 261.795 46.6641C262.945 49.2381 259.313 51.982 257.144 50.205Z" fill="black"/>
<path d="M278.794 46.8392C281.277 50.1319 285.131 50.0535 287.483 46.6562C287.914 49.0082 285.576 51.2294 283.237 51.1902C280.898 51.3209 278.468 49.2042 278.807 46.8392H278.794Z" fill="black"/>
<path d="M270.184 46.8392C272.667 50.1319 276.521 50.0535 278.873 46.6562C279.317 49.0082 276.965 51.2294 274.626 51.1902C272.288 51.3209 269.857 49.2042 270.184 46.8392Z" fill="black"/>
<path d="M133.564 18.5189C136.046 21.8115 139.901 21.7331 142.253 18.3359C142.684 20.6879 140.345 22.9091 138.006 22.8699C135.667 23.0006 133.237 20.8838 133.577 18.5189H133.564Z" fill="black"/>
<path d="M124.952 18.5189C127.435 21.8115 131.29 21.7331 133.641 18.3359C134.073 20.6879 131.734 22.9091 129.395 22.8699C127.056 23.0006 124.626 20.8838 124.966 18.5189H124.952Z" fill="black"/>
<path d="M150.641 18.5189C153.124 21.8115 156.978 21.7331 159.33 18.3359C159.761 20.6879 157.422 22.9091 155.083 22.8699C152.745 23.0006 150.314 20.8838 150.654 18.5189H150.641Z" fill="black"/>
<path d="M159.12 18.5189C161.603 21.8115 165.458 21.7331 167.809 18.3359C168.241 20.6879 165.902 22.9091 163.563 22.8699C161.224 23.0006 158.794 20.8838 159.12 18.5189Z" fill="black"/>
<path d="M142.043 18.5189C144.526 21.8115 148.38 21.7331 150.732 18.3359C151.164 20.6879 148.825 22.9091 146.486 22.8699C144.147 23.0006 141.717 20.8838 142.043 18.5189Z" fill="black"/>
<path d="M99.3822 18.5189C101.865 21.8115 105.719 21.7331 108.071 18.3359C108.502 20.6879 106.164 22.9091 103.825 22.8699C101.486 23.0006 99.0555 20.8838 99.3952 18.5189H99.3822Z" fill="black"/>
<path d="M92.5879 20.9361C95.7238 21.4849 97.7752 20.6095 99.709 18.3359C100.715 22.3081 94.3649 24.6077 92.5879 20.9361Z" fill="black"/>
<path d="M116.472 18.5189C118.955 21.8115 122.809 21.7331 125.161 18.3359C125.592 20.6879 123.253 22.9091 120.915 22.8699C118.576 23.0006 116.145 20.8838 116.485 18.5189H116.472Z" fill="black"/>
<path d="M107.862 18.5189C110.344 21.8115 114.199 21.7331 116.551 18.3359C116.982 20.6879 114.643 22.9091 112.304 22.8699C109.965 23.0006 107.535 20.8838 107.862 18.5189Z" fill="black"/>
<path d="M202.291 18.5189C204.774 21.8115 208.628 21.7331 210.98 18.3359C211.412 20.6879 209.073 22.9091 206.734 22.8699C204.395 23.0006 201.965 20.8838 202.304 18.5189H202.291Z" fill="black"/>
<path d="M193.681 18.5189C196.164 21.8115 200.018 21.7331 202.37 18.3359C202.814 20.6879 200.462 22.9091 198.123 22.8699C195.785 23.0006 193.354 20.8838 193.694 18.5189H193.681Z" fill="black"/>
<path d="M219.368 18.5189C221.851 21.8115 225.706 21.7331 228.058 18.3359C228.489 20.6879 226.15 22.9091 223.811 22.8699C221.472 23.0006 219.042 20.8838 219.382 18.5189H219.368Z" fill="black"/>
<path d="M227.849 18.5189C230.332 21.8115 234.186 21.7331 236.538 18.3359C236.982 20.6879 234.63 22.9091 232.291 22.8699C229.953 23.0006 227.522 20.8838 227.862 18.5189H227.849Z" fill="black"/>
<path d="M236.211 18.5189C238.694 21.8115 242.548 21.7331 244.9 18.3359C245.345 20.6879 242.993 22.9091 240.654 22.8699C238.315 23.0006 235.885 20.8838 236.211 18.5189Z" fill="black"/>
<path d="M244.94 18.5234C247.318 21.2935 249.983 21.6985 253.067 19.7517C252.205 24.5862 244.339 23.3841 244.94 18.5234Z" fill="black"/>
<path d="M210.772 18.5189C213.254 21.8115 217.109 21.7331 219.461 18.3359C219.892 20.6879 217.553 22.9091 215.214 22.8699C212.875 23.0006 210.445 20.8838 210.785 18.5189H210.772Z" fill="black"/>
<path d="M167.862 18.7845C170.344 22.0772 174.199 21.9988 176.551 18.6016C176.982 20.9535 174.643 23.1747 172.304 23.1355C169.965 23.2662 167.535 21.1495 167.875 18.7845H167.862Z" fill="black"/>
<path d="M185.201 18.5189C187.683 21.8115 191.538 21.7331 193.89 18.3359C194.321 20.6879 191.982 22.9091 189.643 22.8699C187.304 23.0006 184.874 20.8838 185.201 18.5189Z" fill="black"/>
<path d="M176.59 18.5189C179.073 21.8115 182.927 21.7331 185.279 18.3359C185.71 20.6879 183.372 22.9091 181.033 22.8699C178.694 23.0006 176.264 20.8838 176.603 18.5189H176.59Z" fill="black"/>
<path d="M136.15 13.7142C138.632 17.0069 142.487 16.9285 144.839 13.5312C145.283 15.8832 142.931 18.1044 140.592 18.0652C138.253 18.1959 135.823 16.0792 136.163 13.7142H136.15Z" fill="black"/>
<path d="M127.539 13.7142C130.022 17.0069 133.877 16.9285 136.228 13.5312C136.66 15.8832 134.321 18.1044 131.982 18.0652C129.643 18.1959 127.213 16.0792 127.539 13.7142Z" fill="black"/>
<path d="M153.242 13.7142C155.724 17.0069 159.579 16.9285 161.931 13.5312C162.362 15.8832 160.023 18.1044 157.684 18.0652C155.345 18.1959 152.915 16.0792 153.255 13.7142H153.242Z" fill="black"/>
<path d="M161.721 13.7142C164.204 17.0069 168.058 16.9285 170.41 13.5312C170.841 15.8832 168.502 18.1044 166.164 18.0652C163.825 18.1959 161.394 16.0792 161.721 13.7142Z" fill="black"/>
<path d="M144.63 13.7142C147.113 17.0069 150.967 16.9285 153.319 13.5312C153.764 15.8832 151.412 18.1044 149.073 18.0652C146.734 18.1959 144.304 16.0792 144.63 13.7142Z" fill="black"/>
<path d="M119.06 13.7142C121.543 17.0069 125.397 16.9285 127.749 13.5312C128.193 15.8832 125.841 18.1044 123.502 18.0652C121.164 18.1959 118.733 16.0792 119.06 13.7142Z" fill="black"/>
<path d="M112.527 16.0269C115.676 16.7325 117.832 15.844 119.779 13.5312C120.733 17.6602 114.239 19.803 112.527 16.0269Z" fill="black"/>
<path d="M204.878 13.7142C207.361 17.0069 211.215 16.9285 213.567 13.5312C213.998 15.8832 211.66 18.1044 209.321 18.0652C206.982 18.1959 204.552 16.0792 204.891 13.7142H204.878Z" fill="black"/>
<path d="M196.268 13.7142C198.751 17.0069 202.605 16.9154 204.957 13.5312C205.388 15.8832 203.049 18.1044 200.71 18.0652C198.372 18.1959 195.941 16.0792 196.268 13.7142Z" fill="black"/>
<path d="M221.956 13.7109C224.295 16.285 226.53 16.7946 229.731 15.4357C228.398 19.8521 221.264 18.1404 221.956 13.7109Z" fill="black"/>
<path d="M213.359 13.7142C215.841 17.0069 219.696 16.9285 222.048 13.5312C222.479 15.8832 220.14 18.1044 217.801 18.0652C215.462 18.1959 213.032 16.0792 213.359 13.7142Z" fill="black"/>
<path d="M170.698 13.7142C173.18 17.0069 177.035 16.9285 179.387 13.5312C179.818 15.8832 177.479 18.1044 175.14 18.0652C172.801 18.1959 170.371 16.0792 170.711 13.7142H170.698Z" fill="black"/>
<path d="M187.788 13.7142C190.271 17.0069 194.126 16.9285 196.477 13.5312C196.909 15.8832 194.57 18.1044 192.231 18.0652C189.892 18.1959 187.462 16.0792 187.801 13.7142H187.788Z" fill="black"/>
<path d="M179.177 13.7142C181.66 17.0069 185.514 16.9285 187.866 13.5312C188.31 15.8832 185.958 18.1044 183.62 18.0652C181.281 18.1959 178.85 16.0792 179.19 13.7142H179.177Z" fill="black"/>
<path d="M132.531 10.7609C135.693 11.6102 137.954 10.7478 139.914 8.38281C140.867 12.5509 134.204 14.7069 132.531 10.7609Z" fill="black"/>
<path d="M148.315 8.56574C150.797 11.8584 154.652 11.78 157.004 8.38281C157.448 10.7347 155.096 12.956 152.757 12.9168C150.418 13.0474 147.988 10.9307 148.328 8.56574H148.315Z" fill="black"/>
<path d="M156.795 8.56574C159.278 11.8584 163.132 11.78 165.484 8.38281C165.915 10.7347 163.577 12.956 161.238 12.9168C158.899 13.0474 156.469 10.9307 156.795 8.56574Z" fill="black"/>
<path d="M139.704 8.56574C142.187 11.8584 146.042 11.78 148.393 8.38281C148.825 10.7347 146.486 12.956 144.147 12.9168C141.808 13.0474 139.378 10.9307 139.704 8.56574Z" fill="black"/>
<path d="M191.342 8.56574C193.825 11.8584 197.679 11.78 200.031 8.38281C200.462 10.7347 198.123 12.956 195.785 12.9168C193.446 13.0474 191.015 10.9307 191.355 8.56574H191.342Z" fill="black"/>
<path d="M165.772 8.56574C168.254 11.8584 172.109 11.78 174.461 8.38281C174.892 10.7347 172.553 12.956 170.214 12.9168C167.875 13.0474 165.445 10.9307 165.772 8.56574Z" fill="black"/>
<path d="M182.862 8.56574C185.344 11.8584 189.199 11.78 191.551 8.38281C191.982 10.7347 189.643 12.956 187.304 12.9168C184.965 13.0474 182.535 10.9307 182.862 8.56574Z" fill="black"/>
<path d="M174.251 8.56574C176.734 11.8584 180.588 11.78 182.94 8.38281C183.372 10.7347 181.033 12.956 178.694 12.9168C176.355 13.0474 173.925 10.9307 174.251 8.56574Z" fill="black"/>
<path d="M155.828 5.32739C158.99 6.64708 161.551 5.81084 163.55 3.28906C164.452 7.74464 157.239 9.63924 155.828 5.32739Z" fill="black"/>
<path d="M164.295 3.17188C166.412 6.64748 170.07 6.80428 172.527 3.30254C172.971 5.62832 170.671 7.83651 168.359 7.82344C165.863 8.01944 163.89 5.47153 164.295 3.17188Z" fill="black"/>
<path d="M172.318 3.48438C174.696 6.25441 177.361 6.65946 180.445 4.7126C179.583 9.54709 171.717 8.345 172.318 3.48438Z" fill="black"/>
<path d="M200.084 8.96875C202.462 11.7388 205.127 12.1438 208.211 10.197C207.348 15.0315 199.482 13.8294 200.084 8.96875Z" fill="black"/>
<path d="M114.526 28.3594H102.832V30.8289H114.526V28.3594Z" stroke="black" stroke-width="0.65331" stroke-miterlimit="10"/>
<path d="M126.26 28.3594H114.526V30.8289H126.26V28.3594Z" stroke="black" stroke-width="0.65331" stroke-miterlimit="10"/>
<path d="M137.993 28.3594H126.26V30.8289H137.993V28.3594Z" stroke="black" stroke-width="0.65331" stroke-miterlimit="10"/>
<path d="M149.713 28.3594H137.979V30.8289H149.713V28.3594Z" stroke="black" stroke-width="0.65331" stroke-miterlimit="10"/>
<path d="M161.473 28.3594H149.714V30.8289H161.473V28.3594Z" stroke="black" stroke-width="0.65331" stroke-miterlimit="10"/>
<path d="M120.354 30.8281H108.62V33.2976H120.354V30.8281Z" stroke="black" stroke-width="0.65331" stroke-miterlimit="10"/>
<path d="M132.087 30.8281H120.354V33.2976H132.087V30.8281Z" stroke="black" stroke-width="0.65331" stroke-miterlimit="10"/>
<path d="M143.808 30.8281H132.074V33.2976H143.808V30.8281Z" stroke="black" stroke-width="0.65331" stroke-miterlimit="10"/>
<path d="M155.541 30.8281H143.808V33.2976H155.541V30.8281Z" stroke="black" stroke-width="0.65331" stroke-miterlimit="10"/>
<path d="M161.486 30.8281H155.541V33.2976H161.486V30.8281Z" stroke="black" stroke-width="0.65331" stroke-miterlimit="10"/>
<path d="M108.607 30.8281H102.832V33.2976H108.607V30.8281Z" stroke="black" stroke-width="0.65331" stroke-miterlimit="10"/>
<path d="M114.526 33.2891H102.832V35.7586H114.526V33.2891Z" stroke="black" stroke-width="0.65331" stroke-miterlimit="10"/>
<path d="M126.26 33.2891H114.526V35.7586H126.26V33.2891Z" stroke="black" stroke-width="0.65331" stroke-miterlimit="10"/>
<path d="M137.993 33.2891H126.26V35.7586H137.993V33.2891Z" stroke="black" stroke-width="0.65331" stroke-miterlimit="10"/>
<path d="M149.713 33.2891H137.979V35.7586H149.713V33.2891Z" stroke="black" stroke-width="0.65331" stroke-miterlimit="10"/>
<path d="M161.473 33.2891H149.714V35.7586H161.473V33.2891Z" stroke="black" stroke-width="0.65331" stroke-miterlimit="10"/>
<path d="M120.354 35.7578H108.62V38.2273H120.354V35.7578Z" stroke="black" stroke-width="0.65331" stroke-miterlimit="10"/>
<path d="M132.087 35.7578H120.354V38.2273H132.087V35.7578Z" stroke="black" stroke-width="0.65331" stroke-miterlimit="10"/>
<path d="M143.808 35.7578H132.074V38.2273H143.808V35.7578Z" stroke="black" stroke-width="0.65331" stroke-miterlimit="10"/>
<path d="M155.541 35.7578H143.808V38.2273H155.541V35.7578Z" stroke="black" stroke-width="0.65331" stroke-miterlimit="10"/>
<path d="M161.486 35.7578H155.541V38.2273H161.486V35.7578Z" stroke="black" stroke-width="0.65331" stroke-miterlimit="10"/>
<path d="M108.607 35.7578H102.832V38.2273H108.607V35.7578Z" stroke="black" stroke-width="0.65331" stroke-miterlimit="10"/>
<path d="M114.526 38.2266H102.832V40.6961H114.526V38.2266Z" stroke="black" stroke-width="0.65331" stroke-miterlimit="10"/>
<path d="M126.26 38.2266H114.526V40.6961H126.26V38.2266Z" stroke="black" stroke-width="0.65331" stroke-miterlimit="10"/>
<path d="M137.993 38.2266H126.26V40.6961H137.993V38.2266Z" stroke="black" stroke-width="0.65331" stroke-miterlimit="10"/>
<path d="M149.713 38.2266H137.979V40.6961H149.713V38.2266Z" stroke="black" stroke-width="0.65331" stroke-miterlimit="10"/>
<path d="M161.473 38.2266H149.714V40.6961H161.473V38.2266Z" stroke="black" stroke-width="0.65331" stroke-miterlimit="10"/>
<path d="M120.354 40.6953H108.62V43.1648H120.354V40.6953Z" stroke="black" stroke-width="0.65331" stroke-miterlimit="10"/>
<path d="M132.087 40.6953H120.354V43.1648H132.087V40.6953Z" stroke="black" stroke-width="0.65331" stroke-miterlimit="10"/>
<path d="M143.808 40.6953H132.074V43.1648H143.808V40.6953Z" stroke="black" stroke-width="0.65331" stroke-miterlimit="10"/>
<path d="M155.541 40.6953H143.808V43.1648H155.541V40.6953Z" stroke="black" stroke-width="0.65331" stroke-miterlimit="10"/>
<path d="M161.486 40.6953H155.541V43.1648H161.486V40.6953Z" stroke="black" stroke-width="0.65331" stroke-miterlimit="10"/>
<path d="M108.607 40.6953H102.832V43.1648H108.607V40.6953Z" stroke="black" stroke-width="0.65331" stroke-miterlimit="10"/>
<path d="M114.526 43.1641H102.832V45.6336H114.526V43.1641Z" stroke="black" stroke-width="0.65331" stroke-miterlimit="10"/>
<path d="M126.26 43.1641H114.526V45.6336H126.26V43.1641Z" stroke="black" stroke-width="0.65331" stroke-miterlimit="10"/>
<path d="M137.993 43.1641H126.26V45.6336H137.993V43.1641Z" stroke="black" stroke-width="0.65331" stroke-miterlimit="10"/>
<path d="M149.713 43.1641H137.979V45.6336H149.713V43.1641Z" stroke="black" stroke-width="0.65331" stroke-miterlimit="10"/>
<path d="M161.473 43.1641H149.714V45.6336H161.473V43.1641Z" stroke="black" stroke-width="0.65331" stroke-miterlimit="10"/>
<path d="M120.354 45.6328H108.62V48.1023H120.354V45.6328Z" stroke="black" stroke-width="0.65331" stroke-miterlimit="10"/>
<path d="M132.087 45.6328H120.354V48.1023H132.087V45.6328Z" stroke="black" stroke-width="0.65331" stroke-miterlimit="10"/>
<path d="M143.808 45.6328H132.074V48.1023H143.808V45.6328Z" stroke="black" stroke-width="0.65331" stroke-miterlimit="10"/>
<path d="M155.541 45.6328H143.808V48.1023H155.541V45.6328Z" stroke="black" stroke-width="0.65331" stroke-miterlimit="10"/>
<path d="M161.486 45.6328H155.541V48.1023H161.486V45.6328Z" stroke="black" stroke-width="0.65331" stroke-miterlimit="10"/>
<path d="M108.607 45.6328H102.832V48.1023H108.607V45.6328Z" stroke="black" stroke-width="0.65331" stroke-miterlimit="10"/>
<path d="M114.526 48.1016H102.832V50.5711H114.526V48.1016Z" stroke="black" stroke-width="0.65331" stroke-miterlimit="10"/>
<path d="M126.26 48.1016H114.526V50.5711H126.26V48.1016Z" stroke="black" stroke-width="0.65331" stroke-miterlimit="10"/>
<path d="M137.993 48.1016H126.26V50.5711H137.993V48.1016Z" stroke="black" stroke-width="0.65331" stroke-miterlimit="10"/>
<path d="M149.713 48.1016H137.979V50.5711H149.713V48.1016Z" stroke="black" stroke-width="0.65331" stroke-miterlimit="10"/>
<path d="M161.473 48.1016H149.714V50.5711H161.473V48.1016Z" stroke="black" stroke-width="0.65331" stroke-miterlimit="10"/>
<path d="M120.354 50.5703H108.62V53.0398H120.354V50.5703Z" stroke="black" stroke-width="0.65331" stroke-miterlimit="10"/>
<path d="M132.087 50.5703H120.354V53.0398H132.087V50.5703Z" stroke="black" stroke-width="0.65331" stroke-miterlimit="10"/>
<path d="M143.808 50.5703H132.074V53.0398H143.808V50.5703Z" stroke="black" stroke-width="0.65331" stroke-miterlimit="10"/>
<path d="M155.541 50.5703H143.808V53.0398H155.541V50.5703Z" stroke="black" stroke-width="0.65331" stroke-miterlimit="10"/>
<path d="M161.486 50.5703H155.541V53.0398H161.486V50.5703Z" stroke="black" stroke-width="0.65331" stroke-miterlimit="10"/>
<path d="M108.607 50.5703H102.832V53.0398H108.607V50.5703Z" stroke="black" stroke-width="0.65331" stroke-miterlimit="10"/>
<path d="M114.526 53.0391H102.832V55.5086H114.526V53.0391Z" stroke="black" stroke-width="0.65331" stroke-miterlimit="10"/>
<path d="M126.26 53.0391H114.526V55.5086H126.26V53.0391Z" stroke="black" stroke-width="0.65331" stroke-miterlimit="10"/>
<path d="M137.993 53.0391H126.26V55.5086H137.993V53.0391Z" stroke="black" stroke-width="0.65331" stroke-miterlimit="10"/>
<path d="M149.713 53.0391H137.979V55.5086H149.713V53.0391Z" stroke="black" stroke-width="0.65331" stroke-miterlimit="10"/>
<path d="M161.473 53.0391H149.714V55.5086H161.473V53.0391Z" stroke="black" stroke-width="0.65331" stroke-miterlimit="10"/>
<path d="M120.354 55.5H108.62V57.9695H120.354V55.5Z" stroke="black" stroke-width="0.65331" stroke-miterlimit="10"/>
<path d="M132.087 55.5H120.354V57.9695H132.087V55.5Z" stroke="black" stroke-width="0.65331" stroke-miterlimit="10"/>
<path d="M143.808 55.5H132.074V57.9695H143.808V55.5Z" stroke="black" stroke-width="0.65331" stroke-miterlimit="10"/>
<path d="M155.541 55.5H143.808V57.9695H155.541V55.5Z" stroke="black" stroke-width="0.65331" stroke-miterlimit="10"/>
<path d="M161.486 55.5H155.541V57.9695H161.486V55.5Z" stroke="black" stroke-width="0.65331" stroke-miterlimit="10"/>
<path d="M108.607 55.5H102.832V57.9695H108.607V55.5Z" stroke="black" stroke-width="0.65331" stroke-miterlimit="10"/>
<path d="M114.526 57.9688H102.832V60.4383H114.526V57.9688Z" stroke="black" stroke-width="0.65331" stroke-miterlimit="10"/>
<path d="M126.26 57.9688H114.526V60.4383H126.26V57.9688Z" stroke="black" stroke-width="0.65331" stroke-miterlimit="10"/>
<path d="M137.993 57.9688H126.26V60.4383H137.993V57.9688Z" stroke="black" stroke-width="0.65331" stroke-miterlimit="10"/>
<path d="M149.713 57.9688H137.979V60.4383H149.713V57.9688Z" stroke="black" stroke-width="0.65331" stroke-miterlimit="10"/>
<path d="M161.473 57.9688H149.714V60.4383H161.473V57.9688Z" stroke="black" stroke-width="0.65331" stroke-miterlimit="10"/>
<path d="M120.354 60.4375H108.62V62.907H120.354V60.4375Z" stroke="black" stroke-width="0.65331" stroke-miterlimit="10"/>
<path d="M132.087 60.4375H120.354V62.907H132.087V60.4375Z" stroke="black" stroke-width="0.65331" stroke-miterlimit="10"/>
<path d="M143.808 60.4375H132.074V62.907H143.808V60.4375Z" stroke="black" stroke-width="0.65331" stroke-miterlimit="10"/>
<path d="M155.541 60.4375H143.808V62.907H155.541V60.4375Z" stroke="black" stroke-width="0.65331" stroke-miterlimit="10"/>
<path d="M161.486 60.4375H155.541V62.907H161.486V60.4375Z" stroke="black" stroke-width="0.65331" stroke-miterlimit="10"/>
<path d="M108.607 60.4375H102.832V62.907H108.607V60.4375Z" stroke="black" stroke-width="0.65331" stroke-miterlimit="10"/>
<path d="M114.526 62.9062H102.832V65.3758H114.526V62.9062Z" stroke="black" stroke-width="0.65331" stroke-miterlimit="10"/>
<path d="M126.26 62.9062H114.526V65.3758H126.26V62.9062Z" stroke="black" stroke-width="0.65331" stroke-miterlimit="10"/>
<path d="M137.993 62.9062H126.26V65.3758H137.993V62.9062Z" stroke="black" stroke-width="0.65331" stroke-miterlimit="10"/>
<path d="M149.713 62.9062H137.979V65.3758H149.713V62.9062Z" stroke="black" stroke-width="0.65331" stroke-miterlimit="10"/>
<path d="M161.473 62.9062H149.714V65.3758H161.473V62.9062Z" stroke="black" stroke-width="0.65331" stroke-miterlimit="10"/>
<path d="M120.354 65.375H108.62V67.8445H120.354V65.375Z" stroke="black" stroke-width="0.65331" stroke-miterlimit="10"/>
<path d="M132.087 65.375H120.354V67.8445H132.087V65.375Z" stroke="black" stroke-width="0.65331" stroke-miterlimit="10"/>
<path d="M143.808 65.375H132.074V67.8445H143.808V65.375Z" stroke="black" stroke-width="0.65331" stroke-miterlimit="10"/>
<path d="M155.541 65.375H143.808V67.8445H155.541V65.375Z" stroke="black" stroke-width="0.65331" stroke-miterlimit="10"/>
<path d="M161.486 65.375H155.541V67.8445H161.486V65.375Z" stroke="black" stroke-width="0.65331" stroke-miterlimit="10"/>
<path d="M108.607 65.375H102.832V67.8445H108.607V65.375Z" stroke="black" stroke-width="0.65331" stroke-miterlimit="10"/>
<path d="M114.526 67.8438H102.832V70.3133H114.526V67.8438Z" stroke="black" stroke-width="0.65331" stroke-miterlimit="10"/>
<path d="M126.26 67.8438H114.526V70.3133H126.26V67.8438Z" stroke="black" stroke-width="0.65331" stroke-miterlimit="10"/>
<path d="M137.993 67.8438H126.26V70.3133H137.993V67.8438Z" stroke="black" stroke-width="0.65331" stroke-miterlimit="10"/>
<path d="M149.713 67.8438H137.979V70.3133H149.713V67.8438Z" stroke="black" stroke-width="0.65331" stroke-miterlimit="10"/>
<path d="M161.473 67.8438H149.714V70.3133H161.473V67.8438Z" stroke="black" stroke-width="0.65331" stroke-miterlimit="10"/>
<path d="M120.354 70.3125H108.62V72.782H120.354V70.3125Z" stroke="black" stroke-width="0.65331" stroke-miterlimit="10"/>
<path d="M132.087 70.3125H120.354V72.782H132.087V70.3125Z" stroke="black" stroke-width="0.65331" stroke-miterlimit="10"/>
<path d="M143.808 70.3125H132.074V72.782H143.808V70.3125Z" stroke="black" stroke-width="0.65331" stroke-miterlimit="10"/>
<path d="M155.541 70.3125H143.808V72.782H155.541V70.3125Z" stroke="black" stroke-width="0.65331" stroke-miterlimit="10"/>
<path d="M161.486 70.3125H155.541V72.782H161.486V70.3125Z" stroke="black" stroke-width="0.65331" stroke-miterlimit="10"/>
<path d="M108.607 70.3125H102.832V72.782H108.607V70.3125Z" stroke="black" stroke-width="0.65331" stroke-miterlimit="10"/>
<path d="M114.526 72.7812H102.832V75.2508H114.526V72.7812Z" stroke="black" stroke-width="0.65331" stroke-miterlimit="10"/>
<path d="M126.26 72.7812H114.526V75.2508H126.26V72.7812Z" stroke="black" stroke-width="0.65331" stroke-miterlimit="10"/>
<path d="M137.993 72.7812H126.26V75.2508H137.993V72.7812Z" stroke="black" stroke-width="0.65331" stroke-miterlimit="10"/>
<path d="M149.713 72.7812H137.979V75.2508H149.713V72.7812Z" stroke="black" stroke-width="0.65331" stroke-miterlimit="10"/>
<path d="M161.473 72.7812H149.714V75.2508H161.473V72.7812Z" stroke="black" stroke-width="0.65331" stroke-miterlimit="10"/>
<path d="M120.354 75.2578H108.62V77.7273H120.354V75.2578Z" stroke="black" stroke-width="0.65331" stroke-miterlimit="10"/>
<path d="M132.087 75.2578H120.354V77.7273H132.087V75.2578Z" stroke="black" stroke-width="0.65331" stroke-miterlimit="10"/>
<path d="M143.808 75.2578H132.074V77.7273H143.808V75.2578Z" stroke="black" stroke-width="0.65331" stroke-miterlimit="10"/>
<path d="M155.541 75.2578H143.808V77.7273H155.541V75.2578Z" stroke="black" stroke-width="0.65331" stroke-miterlimit="10"/>
<path d="M161.486 75.2578H155.541V77.7273H161.486V75.2578Z" stroke="black" stroke-width="0.65331" stroke-miterlimit="10"/>
<path d="M108.607 75.2578H102.832V77.7273H108.607V75.2578Z" stroke="black" stroke-width="0.65331" stroke-miterlimit="10"/>
<path d="M114.526 77.7266H102.832V80.1961H114.526V77.7266Z" stroke="black" stroke-width="0.65331" stroke-miterlimit="10"/>
<path d="M126.26 77.7266H114.526V80.1961H126.26V77.7266Z" stroke="black" stroke-width="0.65331" stroke-miterlimit="10"/>
<path d="M137.993 77.7266H126.26V80.1961H137.993V77.7266Z" stroke="black" stroke-width="0.65331" stroke-miterlimit="10"/>
<path d="M149.713 77.7266H137.979V80.1961H149.713V77.7266Z" stroke="black" stroke-width="0.65331" stroke-miterlimit="10"/>
<path d="M161.473 77.7266H149.714V80.1961H161.473V77.7266Z" stroke="black" stroke-width="0.65331" stroke-miterlimit="10"/>
<path d="M120.354 80.1797H108.62V82.6492H120.354V80.1797Z" stroke="black" stroke-width="0.65331" stroke-miterlimit="10"/>
<path d="M132.087 80.1797H120.354V82.6492H132.087V80.1797Z" stroke="black" stroke-width="0.65331" stroke-miterlimit="10"/>
<path d="M143.808 80.1797H132.074V82.6492H143.808V80.1797Z" stroke="black" stroke-width="0.65331" stroke-miterlimit="10"/>
<path d="M155.541 80.1797H143.808V82.6492H155.541V80.1797Z" stroke="black" stroke-width="0.65331" stroke-miterlimit="10"/>
<path d="M161.486 80.1797H155.541V82.6492H161.486V80.1797Z" stroke="black" stroke-width="0.65331" stroke-miterlimit="10"/>
<path d="M108.607 80.1797H102.832V82.6492H108.607V80.1797Z" stroke="black" stroke-width="0.65331" stroke-miterlimit="10"/>
<path d="M114.526 82.6484H102.832V85.1179H114.526V82.6484Z" stroke="black" stroke-width="0.65331" stroke-miterlimit="10"/>
<path d="M126.26 82.6484H114.526V85.1179H126.26V82.6484Z" stroke="black" stroke-width="0.65331" stroke-miterlimit="10"/>
<path d="M137.993 82.6484H126.26V85.1179H137.993V82.6484Z" stroke="black" stroke-width="0.65331" stroke-miterlimit="10"/>
<path d="M149.713 82.6484H137.979V85.1179H149.713V82.6484Z" stroke="black" stroke-width="0.65331" stroke-miterlimit="10"/>
<path d="M161.473 82.6484H149.714V85.1179H161.473V82.6484Z" stroke="black" stroke-width="0.65331" stroke-miterlimit="10"/>
<path d="M120.354 85.1172H108.62V87.5867H120.354V85.1172Z" stroke="black" stroke-width="0.65331" stroke-miterlimit="10"/>
<path d="M132.087 85.1172H120.354V87.5867H132.087V85.1172Z" stroke="black" stroke-width="0.65331" stroke-miterlimit="10"/>
<path d="M143.808 85.1172H132.074V87.5867H143.808V85.1172Z" stroke="black" stroke-width="0.65331" stroke-miterlimit="10"/>
<path d="M155.541 85.1172H143.808V87.5867H155.541V85.1172Z" stroke="black" stroke-width="0.65331" stroke-miterlimit="10"/>
<path d="M161.486 85.1172H155.541V87.5867H161.486V85.1172Z" stroke="black" stroke-width="0.65331" stroke-miterlimit="10"/>
<path d="M108.607 85.1172H102.832V87.5867H108.607V85.1172Z" stroke="black" stroke-width="0.65331" stroke-miterlimit="10"/>
<path d="M114.526 87.5859H102.832V90.0555H114.526V87.5859Z" stroke="black" stroke-width="0.65331" stroke-miterlimit="10"/>
<path d="M126.26 87.5859H114.526V90.0555H126.26V87.5859Z" stroke="black" stroke-width="0.65331" stroke-miterlimit="10"/>
<path d="M137.993 87.5859H126.26V90.0555H137.993V87.5859Z" stroke="black" stroke-width="0.65331" stroke-miterlimit="10"/>
<path d="M149.713 87.5859H137.979V90.0555H149.713V87.5859Z" stroke="black" stroke-width="0.65331" stroke-miterlimit="10"/>
<path d="M161.473 87.5859H149.714V90.0555H161.473V87.5859Z" stroke="black" stroke-width="0.65331" stroke-miterlimit="10"/>
<path d="M120.354 90.0547H108.62V92.5242H120.354V90.0547Z" stroke="black" stroke-width="0.65331" stroke-miterlimit="10"/>
<path d="M132.087 90.0547H120.354V92.5242H132.087V90.0547Z" stroke="black" stroke-width="0.65331" stroke-miterlimit="10"/>
<path d="M143.808 90.0547H132.074V92.5242H143.808V90.0547Z" stroke="black" stroke-width="0.65331" stroke-miterlimit="10"/>
<path d="M155.541 90.0547H143.808V92.5242H155.541V90.0547Z" stroke="black" stroke-width="0.65331" stroke-miterlimit="10"/>
<path d="M161.486 90.0547H155.541V92.5242H161.486V90.0547Z" stroke="black" stroke-width="0.65331" stroke-miterlimit="10"/>
<path d="M108.607 90.0547H102.832V92.5242H108.607V90.0547Z" stroke="black" stroke-width="0.65331" stroke-miterlimit="10"/>
<path d="M114.526 92.5312H102.832V95.0008H114.526V92.5312Z" stroke="black" stroke-width="0.65331" stroke-miterlimit="10"/>
<path d="M126.26 92.5312H114.526V95.0008H126.26V92.5312Z" stroke="black" stroke-width="0.65331" stroke-miterlimit="10"/>
<path d="M137.993 92.5312H126.26V95.0008H137.993V92.5312Z" stroke="black" stroke-width="0.65331" stroke-miterlimit="10"/>
<path d="M149.713 92.5312H137.979V95.0008H149.713V92.5312Z" stroke="black" stroke-width="0.65331" stroke-miterlimit="10"/>
<path d="M161.473 92.5312H149.714V95.0008H161.473V92.5312Z" stroke="black" stroke-width="0.65331" stroke-miterlimit="10"/>
<path d="M120.354 95H108.62V97.4695H120.354V95Z" stroke="black" stroke-width="0.65331" stroke-miterlimit="10"/>
<path d="M132.087 95H120.354V97.4695H132.087V95Z" stroke="black" stroke-width="0.65331" stroke-miterlimit="10"/>
<path d="M143.808 95H132.074V97.4695H143.808V95Z" stroke="black" stroke-width="0.65331" stroke-miterlimit="10"/>
<path d="M155.541 95H143.808V97.4695H155.541V95Z" stroke="black" stroke-width="0.65331" stroke-miterlimit="10"/>
<path d="M161.486 95H155.541V97.4695H161.486V95Z" stroke="black" stroke-width="0.65331" stroke-miterlimit="10"/>
<path d="M108.607 95H102.832V97.4695H108.607V95Z" stroke="black" stroke-width="0.65331" stroke-miterlimit="10"/>
<path d="M114.526 97.4688H102.832V99.9383H114.526V97.4688Z" stroke="black" stroke-width="0.65331" stroke-miterlimit="10"/>
<path d="M126.26 97.4688H114.526V99.9383H126.26V97.4688Z" stroke="black" stroke-width="0.65331" stroke-miterlimit="10"/>
<path d="M137.993 97.4688H126.26V99.9383H137.993V97.4688Z" stroke="black" stroke-width="0.65331" stroke-miterlimit="10"/>
<path d="M149.713 97.4688H137.979V99.9383H149.713V97.4688Z" stroke="black" stroke-width="0.65331" stroke-miterlimit="10"/>
<path d="M161.473 97.4688H149.714V99.9383H161.473V97.4688Z" stroke="black" stroke-width="0.65331" stroke-miterlimit="10"/>
<path d="M120.354 99.9375H108.62V102.407H120.354V99.9375Z" stroke="black" stroke-width="0.65331" stroke-miterlimit="10"/>
<path d="M132.087 99.9375H120.354V102.407H132.087V99.9375Z" stroke="black" stroke-width="0.65331" stroke-miterlimit="10"/>
<path d="M143.808 99.9375H132.074V102.407H143.808V99.9375Z" stroke="black" stroke-width="0.65331" stroke-miterlimit="10"/>
<path d="M155.541 99.9375H143.808V102.407H155.541V99.9375Z" stroke="black" stroke-width="0.65331" stroke-miterlimit="10"/>
<path d="M161.486 99.9375H155.541V102.407H161.486V99.9375Z" stroke="black" stroke-width="0.65331" stroke-miterlimit="10"/>
<path d="M108.607 99.9375H102.832V102.407H108.607V99.9375Z" stroke="black" stroke-width="0.65331" stroke-miterlimit="10"/>
<path d="M114.526 102.391H102.832V104.86H114.526V102.391Z" stroke="black" stroke-width="0.65331" stroke-miterlimit="10"/>
<path d="M126.26 102.391H114.526V104.86H126.26V102.391Z" stroke="black" stroke-width="0.65331" stroke-miterlimit="10"/>
<path d="M137.993 102.391H126.26V104.86H137.993V102.391Z" stroke="black" stroke-width="0.65331" stroke-miterlimit="10"/>
<path d="M149.713 102.391H137.979V104.86H149.713V102.391Z" stroke="black" stroke-width="0.65331" stroke-miterlimit="10"/>
<path d="M161.473 102.391H149.714V104.86H161.473V102.391Z" stroke="black" stroke-width="0.65331" stroke-miterlimit="10"/>
<path d="M120.354 104.859H108.62V107.329H120.354V104.859Z" stroke="black" stroke-width="0.65331" stroke-miterlimit="10"/>
<path d="M132.087 104.859H120.354V107.329H132.087V104.859Z" stroke="black" stroke-width="0.65331" stroke-miterlimit="10"/>
<path d="M143.808 104.859H132.074V107.329H143.808V104.859Z" stroke="black" stroke-width="0.65331" stroke-miterlimit="10"/>
<path d="M155.541 104.859H143.808V107.329H155.541V104.859Z" stroke="black" stroke-width="0.65331" stroke-miterlimit="10"/>
<path d="M161.486 104.859H155.541V107.329H161.486V104.859Z" stroke="black" stroke-width="0.65331" stroke-miterlimit="10"/>
<path d="M108.607 104.859H102.832V107.329H108.607V104.859Z" stroke="black" stroke-width="0.65331" stroke-miterlimit="10"/>
<path d="M114.526 107.328H102.832V109.798H114.526V107.328Z" stroke="black" stroke-width="0.65331" stroke-miterlimit="10"/>
<path d="M126.26 107.328H114.526V109.798H126.26V107.328Z" stroke="black" stroke-width="0.65331" stroke-miterlimit="10"/>
<path d="M137.993 107.328H126.26V109.798H137.993V107.328Z" stroke="black" stroke-width="0.65331" stroke-miterlimit="10"/>
<path d="M149.713 107.328H137.979V109.798H149.713V107.328Z" stroke="black" stroke-width="0.65331" stroke-miterlimit="10"/>
<path d="M161.473 107.328H149.714V109.798H161.473V107.328Z" stroke="black" stroke-width="0.65331" stroke-miterlimit="10"/>
<path d="M120.354 109.805H108.62V112.274H120.354V109.805Z" stroke="black" stroke-width="0.65331" stroke-miterlimit="10"/>
<path d="M132.087 109.805H120.354V112.274H132.087V109.805Z" stroke="black" stroke-width="0.65331" stroke-miterlimit="10"/>
<path d="M143.808 109.805H132.074V112.274H143.808V109.805Z" stroke="black" stroke-width="0.65331" stroke-miterlimit="10"/>
<path d="M155.541 109.805H143.808V112.274H155.541V109.805Z" stroke="black" stroke-width="0.65331" stroke-miterlimit="10"/>
<path d="M161.486 109.805H155.541V112.274H161.486V109.805Z" stroke="black" stroke-width="0.65331" stroke-miterlimit="10"/>
<path d="M108.607 109.805H102.832V112.274H108.607V109.805Z" stroke="black" stroke-width="0.65331" stroke-miterlimit="10"/>
<path d="M114.526 112.273H102.832V114.743H114.526V112.273Z" stroke="black" stroke-width="0.65331" stroke-miterlimit="10"/>
<path d="M126.26 112.273H114.526V114.743H126.26V112.273Z" stroke="black" stroke-width="0.65331" stroke-miterlimit="10"/>
<path d="M137.993 112.273H126.26V114.743H137.993V112.273Z" stroke="black" stroke-width="0.65331" stroke-miterlimit="10"/>
<path d="M149.713 112.273H137.979V114.743H149.713V112.273Z" stroke="black" stroke-width="0.65331" stroke-miterlimit="10"/>
<path d="M161.473 112.273H149.714V114.743H161.473V112.273Z" stroke="black" stroke-width="0.65331" stroke-miterlimit="10"/>
<path d="M120.354 114.742H108.62V117.212H120.354V114.742Z" stroke="black" stroke-width="0.65331" stroke-miterlimit="10"/>
<path d="M132.087 114.742H120.354V117.212H132.087V114.742Z" stroke="black" stroke-width="0.65331" stroke-miterlimit="10"/>
<path d="M143.808 114.742H132.074V117.212H143.808V114.742Z" stroke="black" stroke-width="0.65331" stroke-miterlimit="10"/>
<path d="M155.541 114.742H143.808V117.212H155.541V114.742Z" stroke="black" stroke-width="0.65331" stroke-miterlimit="10"/>
<path d="M161.486 114.742H155.541V117.212H161.486V114.742Z" stroke="black" stroke-width="0.65331" stroke-miterlimit="10"/>
<path d="M108.607 114.742H102.832V117.212H108.607V114.742Z" stroke="black" stroke-width="0.65331" stroke-miterlimit="10"/>
<path d="M114.526 117.211H102.832V119.68H114.526V117.211Z" stroke="black" stroke-width="0.65331" stroke-miterlimit="10"/>
<path d="M126.26 117.211H114.526V119.68H126.26V117.211Z" stroke="black" stroke-width="0.65331" stroke-miterlimit="10"/>
<path d="M137.993 117.211H126.26V119.68H137.993V117.211Z" stroke="black" stroke-width="0.65331" stroke-miterlimit="10"/>
<path d="M149.713 117.211H137.979V119.68H149.713V117.211Z" stroke="black" stroke-width="0.65331" stroke-miterlimit="10"/>
<path d="M161.473 117.211H149.714V119.68H161.473V117.211Z" stroke="black" stroke-width="0.65331" stroke-miterlimit="10"/>
<path d="M120.354 119.68H108.62V122.149H120.354V119.68Z" stroke="black" stroke-width="0.65331" stroke-miterlimit="10"/>
<path d="M132.087 119.68H120.354V122.149H132.087V119.68Z" stroke="black" stroke-width="0.65331" stroke-miterlimit="10"/>
<path d="M143.808 119.68H132.074V122.149H143.808V119.68Z" stroke="black" stroke-width="0.65331" stroke-miterlimit="10"/>
<path d="M155.541 119.68H143.808V122.149H155.541V119.68Z" stroke="black" stroke-width="0.65331" stroke-miterlimit="10"/>
<path d="M161.486 119.68H155.541V122.149H161.486V119.68Z" stroke="black" stroke-width="0.65331" stroke-miterlimit="10"/>
<path d="M108.607 119.68H102.832V122.149H108.607V119.68Z" stroke="black" stroke-width="0.65331" stroke-miterlimit="10"/>
<path d="M114.526 122.148H102.832V124.618H114.526V122.148Z" stroke="black" stroke-width="0.65331" stroke-miterlimit="10"/>
<path d="M126.26 122.148H114.526V124.618H126.26V122.148Z" stroke="black" stroke-width="0.65331" stroke-miterlimit="10"/>
<path d="M137.993 122.148H126.26V124.618H137.993V122.148Z" stroke="black" stroke-width="0.65331" stroke-miterlimit="10"/>
<path d="M149.713 122.148H137.979V124.618H149.713V122.148Z" stroke="black" stroke-width="0.65331" stroke-miterlimit="10"/>
<path d="M161.473 122.148H149.714V124.618H161.473V122.148Z" stroke="black" stroke-width="0.65331" stroke-miterlimit="10"/>
<path d="M120.354 124.602H108.62V127.071H120.354V124.602Z" stroke="black" stroke-width="0.65331" stroke-miterlimit="10"/>
<path d="M132.087 124.602H120.354V127.071H132.087V124.602Z" stroke="black" stroke-width="0.65331" stroke-miterlimit="10"/>
<path d="M143.808 124.602H132.074V127.071H143.808V124.602Z" stroke="black" stroke-width="0.65331" stroke-miterlimit="10"/>
<path d="M155.541 124.602H143.808V127.071H155.541V124.602Z" stroke="black" stroke-width="0.65331" stroke-miterlimit="10"/>
<path d="M161.486 124.602H155.541V127.071H161.486V124.602Z" stroke="black" stroke-width="0.65331" stroke-miterlimit="10"/>
<path d="M108.607 124.602H102.832V127.071H108.607V124.602Z" stroke="black" stroke-width="0.65331" stroke-miterlimit="10"/>
<path d="M114.526 127.078H102.832V129.548H114.526V127.078Z" stroke="black" stroke-width="0.65331" stroke-miterlimit="10"/>
<path d="M126.26 127.078H114.526V129.548H126.26V127.078Z" stroke="black" stroke-width="0.65331" stroke-miterlimit="10"/>
<path d="M137.993 127.078H126.26V129.548H137.993V127.078Z" stroke="black" stroke-width="0.65331" stroke-miterlimit="10"/>
<path d="M149.713 127.078H137.979V129.548H149.713V127.078Z" stroke="black" stroke-width="0.65331" stroke-miterlimit="10"/>
<path d="M161.473 127.078H149.714V129.548H161.473V127.078Z" stroke="black" stroke-width="0.65331" stroke-miterlimit="10"/>
<path d="M120.354 129.547H108.62V132.016H120.354V129.547Z" stroke="black" stroke-width="0.65331" stroke-miterlimit="10"/>
<path d="M132.087 129.547H120.354V132.016H132.087V129.547Z" stroke="black" stroke-width="0.65331" stroke-miterlimit="10"/>
<path d="M143.808 129.547H132.074V132.016H143.808V129.547Z" stroke="black" stroke-width="0.65331" stroke-miterlimit="10"/>
<path d="M155.541 129.547H143.808V132.016H155.541V129.547Z" stroke="black" stroke-width="0.65331" stroke-miterlimit="10"/>
<path d="M161.486 129.547H155.541V132.016H161.486V129.547Z" stroke="black" stroke-width="0.65331" stroke-miterlimit="10"/>
<path d="M108.607 129.547H102.832V132.016H108.607V129.547Z" stroke="black" stroke-width="0.65331" stroke-miterlimit="10"/>
<path d="M42.5312 84.2422H102.335" stroke="black" stroke-width="1.95993" stroke-miterlimit="10"/>
<path d="M42.5312 107.398H102.335" stroke="black" stroke-width="1.95993" stroke-miterlimit="10"/>
<path d="M81.0762 64.125V123.929" stroke="black" stroke-width="1.95993" stroke-miterlimit="10"/>
<path d="M256.621 82.2188H335.005" stroke="black" stroke-width="1.95993" stroke-miterlimit="10"/>
<path d="M256.621 92.8438H335.005" stroke="black" stroke-width="1.95993" stroke-miterlimit="10"/>
<path d="M256.621 103.477H335.005" stroke="black" stroke-width="1.95993" stroke-miterlimit="10"/>
<path d="M256.621 114.117H335.005" stroke="black" stroke-width="1.95993" stroke-miterlimit="10"/>
<path d="M256.621 124.75H335.005" stroke="black" stroke-width="1.95993" stroke-miterlimit="10"/>
<path d="M245.763 43.5209V134.044H236.695V62.2447H161.473V43.5078H245.75L245.763 43.5209Z" stroke="black" stroke-width="1.95993" stroke-miterlimit="10"/>
</svg>
