<svg width="149" height="188" viewBox="0 0 149 188" fill="none" xmlns="http://www.w3.org/2000/svg">
<path d="M22.6707 120.291C21.0032 118.829 19.9434 116.633 19.9434 114.176C19.9434 109.777 23.3418 106.212 27.534 106.212C31.7262 106.212 35.1246 109.777 35.1246 114.176C35.1246 115.605 34.7654 116.945 34.1387 118.105" stroke="black" stroke-width="3.69554" stroke-miterlimit="10" stroke-linecap="round" stroke-linejoin="round"/>
<path d="M38.1555 122.483C37.4223 120.522 35.9707 118.943 34.1392 118.098" stroke="black" stroke-width="3.69554" stroke-miterlimit="10" stroke-linecap="round" stroke-linejoin="round"/>
<path d="M8.08712 119.685C7.18837 118.377 6.66064 116.771 6.66064 115.036C6.66064 110.637 10.0591 107.072 14.2513 107.072C16.9535 107.072 19.326 108.553 20.6712 110.784" stroke="black" stroke-width="3.69554" stroke-miterlimit="10" stroke-linecap="round" stroke-linejoin="round"/>
<path d="M18.1375 124.445C17.1071 121.329 14.2838 119.092 10.9637 119.092C6.77146 119.092 3.37305 122.657 3.37305 127.056C3.37305 130.905 5.97471 134.116 9.43373 134.858V139.003H57.0574C57.1209 138.586 57.155 138.161 57.155 137.725C57.155 133.326 53.7565 129.761 49.5643 129.761C48.9642 129.761 48.3847 129.842 47.8245 129.979C47.7387 125.658 44.3802 122.181 40.2412 122.181C36.049 122.181 32.6506 125.746 32.6506 130.145" stroke="black" stroke-width="3.69554" stroke-miterlimit="10" stroke-linecap="round" stroke-linejoin="round"/>
<path d="M130.494 122.165C128.472 120.752 127.137 118.317 127.137 115.551C127.137 111.185 130.46 107.645 134.56 107.645C138.661 107.645 141.984 111.184 141.984 115.551C141.984 118.077 140.872 120.325 139.14 121.772" stroke="black" stroke-width="3.69554" stroke-miterlimit="10" stroke-linecap="round" stroke-linejoin="round"/>
<path d="M123.102 107.471C122.815 106.629 122.659 105.719 122.659 104.771C122.659 100.406 125.982 96.866 130.082 96.866C134.183 96.866 137.506 100.404 137.506 104.771C137.506 105.933 137.271 107.036 136.848 108.031" stroke="black" stroke-width="3.69554" stroke-miterlimit="10" stroke-linecap="round" stroke-linejoin="round"/>
<path d="M115.02 118.683C113.278 119.436 111.867 120.872 111.076 122.678C110.261 122.351 109.383 122.165 108.461 122.165C104.36 122.165 101.037 125.703 101.037 130.07H95.0757" stroke="black" stroke-width="3.69554" stroke-miterlimit="10" stroke-linecap="round" stroke-linejoin="round"/>
<path d="M139.282 121.772C142.609 121.772 145.307 124.645 145.307 128.188C145.307 131.73 142.609 134.603 139.282 134.603V139.004H57.0576" stroke="black" stroke-width="3.69554" stroke-miterlimit="10" stroke-linecap="round" stroke-linejoin="round"/>
<path d="M120.563 123.177C117.033 122.566 114.339 119.306 114.339 115.375C114.339 111.009 117.662 107.469 121.763 107.469C124.526 107.469 126.935 109.076 128.214 111.46" stroke="black" stroke-width="3.69554" stroke-miterlimit="10" stroke-linecap="round" stroke-linejoin="round"/>
<path d="M69.291 134.304C69.291 130.366 72.2903 127.172 75.9888 127.172C79.6873 127.172 82.6866 130.366 82.6866 134.304" stroke="black" stroke-width="3.69554" stroke-miterlimit="10" stroke-linecap="round" stroke-linejoin="round"/>
<path d="M53.8003 130.388C53.8003 126.868 56.4803 124.015 59.7871 124.015C62.1182 124.015 64.1375 125.433 65.1264 127.504" stroke="black" stroke-width="3.69554" stroke-miterlimit="10" stroke-linecap="round" stroke-linejoin="round"/>
<path d="M83.7393 126.76C85.3313 123.676 88.9721 122.548 91.8694 124.245C93.9123 125.44 95.0402 127.719 94.9707 130.042" stroke="black" stroke-width="3.69554" stroke-miterlimit="10" stroke-linecap="round" stroke-linejoin="round"/>
<path d="M67.1958 122.29C70.2941 122.29 72.8056 124.821 72.8056 127.941" stroke="black" stroke-width="3.69554" stroke-miterlimit="10" stroke-linecap="round" stroke-linejoin="round"/>
<path d="M81.6633 122.111C81.6633 122.111 80.4586 121.382 79.4002 122.51C78.3418 123.637 79.1518 124.785 79.1518 124.785" stroke="black" stroke-width="3.69554" stroke-miterlimit="10" stroke-linecap="round" stroke-linejoin="round"/>
<path d="M69.0074 114.025C67.8426 114.025 66.898 115.003 66.8419 116.229C66.7547 116.218 66.6689 116.2 66.5787 116.2C65.2631 116.2 64.1988 117.313 64.15 118.701C64.0259 118.686 63.9046 118.661 63.7775 118.661C61.8884 118.661 60.3569 120.291 60.3569 122.302C60.3569 122.923 60.5033 123.507 60.7605 124.019" stroke="black" stroke-width="3.69554" stroke-miterlimit="10" stroke-linecap="round" stroke-linejoin="round"/>
<path d="M79.7803 113.338C80.9451 113.338 81.8897 114.316 81.9459 115.542C82.0331 115.531 82.1188 115.513 82.209 115.513C83.5246 115.513 84.5889 116.626 84.6377 118.014C84.7619 117.999 84.8831 117.974 85.0102 117.974C86.8994 117.974 88.4308 119.604 88.4308 121.615C88.4308 122.236 88.2844 122.82 88.0272 123.332" stroke="black" stroke-width="3.69554" stroke-miterlimit="10" stroke-linecap="round" stroke-linejoin="round"/>
<path d="M79.3346 24.2764H70.6265V100.055H79.3346V24.2764Z" stroke="black" stroke-width="1.84777" stroke-miterlimit="10" stroke-linecap="round" stroke-linejoin="round"/>
<path d="M79.3346 18.0357H70.6265V24.2764H79.3346V18.0357Z" stroke="black" stroke-width="1.84777" stroke-miterlimit="10" stroke-linecap="round" stroke-linejoin="round"/>
<path d="M70.6265 18.0357C70.6265 18.0357 73.8076 5.91106 74.9798 5.91106C76.152 5.91106 79.3332 18.0357 79.3332 18.0357" stroke="black" stroke-width="1.84777" stroke-miterlimit="10" stroke-linecap="round" stroke-linejoin="round"/>
<path d="M70.6262 69.565C70.6262 69.565 65.8516 76.5194 65.8516 78.1229C65.8516 79.7263 65.8516 100.053 65.8516 100.053H70.6262" stroke="black" stroke-width="1.84777" stroke-miterlimit="10" stroke-linecap="round" stroke-linejoin="round"/>
<path d="M79.3325 69.565C79.3325 69.565 84.1072 76.5194 84.1072 78.1229C84.1072 79.7263 84.1072 100.053 84.1072 100.053H79.3325" stroke="black" stroke-width="1.84777" stroke-miterlimit="10" stroke-linecap="round" stroke-linejoin="round"/>
<path d="M70.6265 100.055V110.575" stroke="black" stroke-width="1.84777" stroke-miterlimit="10" stroke-linecap="round" stroke-linejoin="round"/>
<path d="M79.3325 100.055V113.338" stroke="black" stroke-width="1.84777" stroke-miterlimit="10" stroke-linecap="round" stroke-linejoin="round"/>
</svg>
