<svg width="148" height="155" viewBox="0 0 148 155" fill="none" xmlns="http://www.w3.org/2000/svg">
<path d="M26.4414 22.207V2H130.214V143.691H26.4414V80.0753" stroke="black" stroke-width="2.57125" stroke-miterlimit="10"/>
<path d="M26.4414 22.207V2H130.214V143.691H26.4414V80.0753" stroke="black" stroke-width="2.57125" stroke-miterlimit="10"/>
<path d="M84.3252 22.2031H7.98926V79.4513H84.3252V22.2031Z" stroke="black" stroke-width="2.57125" stroke-miterlimit="10"/>
<path d="M7.61133 73.0859H83.9473" stroke="black" stroke-width="2.57125" stroke-miterlimit="10"/>
<path d="M7.61133 27.1953H83.9473" stroke="black" stroke-width="1.5125" stroke-miterlimit="10"/>
<path d="M7.61133 61.8672H83.9473" stroke="black" stroke-width="2.57125" stroke-miterlimit="10"/>
<path d="M73.4655 30.4375H39.041V73.09H73.4655V30.4375Z" stroke="black" stroke-width="1.5125" stroke-miterlimit="10"/>
<path d="M56.2529 30.8125V72.3458" stroke="black" stroke-width="1.5125" stroke-miterlimit="10"/>
<path d="M73.4655 100.523H39.041V143.176H73.4655V100.523Z" stroke="black" stroke-width="2.57125" stroke-miterlimit="10"/>
<path d="M56.2529 100.906V142.44" stroke="black" stroke-width="2.57125" stroke-miterlimit="10"/>
<path d="M16.2168 62.125V72.8486" stroke="black" stroke-width="2.57125" stroke-miterlimit="10"/>
<path d="M30.9336 62.125V72.8486" stroke="black" stroke-width="2.57125" stroke-miterlimit="10"/>
<path d="M45.6504 62.125V72.8486" stroke="black" stroke-width="2.57125" stroke-miterlimit="10"/>
<path d="M64.1182 62.125V72.8486" stroke="black" stroke-width="2.57125" stroke-miterlimit="10"/>
<path d="M78.835 62.125V72.8486" stroke="black" stroke-width="2.57125" stroke-miterlimit="10"/>
<path d="M91.0557 2.24219V143.192" stroke="black" stroke-width="2.57125" stroke-miterlimit="10"/>
<path d="M120.489 21.7109H99.541V130.218H120.489V21.7109Z" stroke="black" stroke-width="1.5125" stroke-miterlimit="10"/>
<path d="M99.2832 78.0781H119.989" stroke="black" stroke-width="1.5125" stroke-miterlimit="10"/>
<path d="M110.265 21.9531V129.719" stroke="black" stroke-width="1.5125" stroke-miterlimit="10"/>
<path d="M146.429 144.555H2V153.161H146.429V144.555Z" stroke="black" stroke-width="2.57125" stroke-miterlimit="10"/>
<path d="M129.216 137.445H104.018" stroke="black" stroke-width="1.5125" stroke-miterlimit="10"/>
<path d="M117.237 14.4766H92.0537" stroke="black" stroke-width="1.5125" stroke-miterlimit="10"/>
<path d="M130.214 8.49219H105.016" stroke="black" stroke-width="1.5125" stroke-miterlimit="10"/>
<path d="M116.738 132.711H91.5547" stroke="black" stroke-width="1.5125" stroke-miterlimit="10"/>
<path d="M12.9805 32.1875H26.4417" stroke="black" stroke-width="1.5125" stroke-miterlimit="10"/>
<path d="M16.958 36.1641H30.4344" stroke="black" stroke-width="1.5125" stroke-miterlimit="10"/>
<path d="M130.684 16.7891H140.409V144.429" stroke="black" stroke-width="2.57125" stroke-miterlimit="10"/>
<path d="M4.26855 144.435V139.414C4.26855 137.311 5.96256 135.617 8.06493 135.617H16.5803C18.6827 135.617 20.3767 137.311 20.3767 139.414V144.435" stroke="black" stroke-width="2.57125" stroke-miterlimit="10"/>
</svg>
