<svg width="149" height="184" viewBox="0 0 149 184" fill="none" xmlns="http://www.w3.org/2000/svg">
<path d="M130.782 25.1818C124.96 19.3329 116.997 16.5382 108.955 17.5015C102.646 18.2637 96.4357 21.3813 92.179 26.4521L90.305 24.5626C88.7145 22.9587 86.62 22.0801 84.3784 22.0801C82.1369 22.0801 80.0424 22.9641 78.4519 24.5626L59.4541 43.7186C53.2022 46.0369 46.9135 49.7951 40.662 54.9876L40.641 55.0088H40.62L40.536 55.0723L34.9979 59.6932C31.6803 62.4668 31.2132 67.4317 33.9376 70.7822C34.1003 70.9887 34.263 71.1739 34.4468 71.338C35.9533 72.8571 37.9691 73.6352 39.9848 73.6352C41.1659 73.6352 42.368 73.3494 43.4651 72.8148L46.9086 76.287L23.6012 99.7724C20.8926 97.9251 17.1655 98.1898 14.7666 100.614L12.5041 102.89C9.7955 105.642 9.7955 110.094 12.5041 112.825L23.1708 123.581C24.1052 124.523 25.3493 125.02 26.5934 125.02C27.8375 125.02 29.0764 124.549 30.016 123.581L35.2916 118.261V118.24L52.494 100.894C53.3707 100.01 54.8772 100.031 55.7539 100.894C56.6515 101.799 56.6515 103.276 55.7539 104.181L38.5461 121.532V121.554L33.2915 126.852C31.3964 128.763 31.3964 131.859 33.2915 133.77L43.9581 144.526C45.3229 145.902 47.0919 146.579 48.8873 146.579C50.6773 146.579 52.4515 145.902 53.8165 144.526L56.079 142.244C57.4018 140.91 58.1157 139.143 58.1157 137.274C58.1157 135.834 57.6905 134.479 56.9136 133.331L80.2049 109.845L83.4647 113.132C83.5277 113.196 83.5855 113.233 83.6485 113.296C82.1629 116.271 82.6931 119.987 85.092 122.411C85.2757 122.596 85.4595 122.761 85.6432 122.903C87.0867 124.116 88.861 124.708 90.6091 124.708C92.8715 124.708 95.0867 123.745 96.6353 121.855L101.218 116.271L101.197 116.25C101.239 116.208 101.281 116.186 101.318 116.149C107.019 109.168 110.987 102.085 113.187 95.1247L130.797 77.367C132.388 75.7632 133.259 73.6512 133.259 71.3911C133.259 69.1309 132.383 67.0189 130.797 65.4151L129.616 64.2242C130.147 63.7742 130.656 63.319 131.144 62.8268C135.196 58.7406 137.8 53.1775 138.493 47.16C139.417 39.0404 136.609 31.0369 130.782 25.1818ZM80.2888 26.4363C81.3859 25.33 82.8347 24.7319 84.3622 24.7319C85.9107 24.7319 87.3544 25.3459 88.4356 26.4363L90.572 28.5693C88.1889 32.1633 86.7452 36.5779 86.7033 41.6698C85.3385 41.4845 83.9526 41.6063 82.6088 42.0191C76.824 40.6005 70.8397 40.6218 64.7291 42.0826L80.2888 26.4363ZM89.3911 48.7103C90.105 49.9012 90.8346 51.071 91.6115 52.1984C91.6745 52.2831 91.7322 52.3625 91.7952 52.4471C92.6089 53.5957 93.4436 54.7073 94.3201 55.7712C94.3621 55.8135 94.4041 55.8559 94.4199 55.8929C95.3385 56.9833 96.2939 58.0471 97.2703 59.0317C98.2677 60.0374 99.307 60.9796 100.383 61.9059C100.425 61.9482 100.467 61.9905 100.525 62.0276C101.585 62.9115 102.682 63.7531 103.821 64.5736C103.905 64.6371 103.984 64.6953 104.068 64.7588C105.186 65.5369 106.331 66.278 107.527 66.9977C107.648 67.0613 107.774 67.1407 107.895 67.2253C109.076 67.9029 110.278 68.5592 111.517 69.1732C111.617 69.2155 111.701 69.2738 111.779 69.3161C112.042 70.4647 112.005 71.6344 111.716 72.7672C104.955 74.9215 100.824 79.5635 99.1337 86.9951L80.1574 106.129L50.6039 76.2822L69.5586 57.1695C76.9287 55.4863 81.5691 51.2995 83.6904 44.4608C84.8085 44.175 85.9686 44.1538 87.113 44.4184C87.155 44.519 87.2127 44.6037 87.2547 44.6831C87.8636 45.9376 88.4988 47.1655 89.1865 48.3353C89.2495 48.4888 89.3281 48.5885 89.3911 48.7103ZM110.766 94.1255C108.792 100.509 105.228 106.998 100.136 113.445L91.6636 106.363C95.9576 99.9163 99.2805 93.8187 101.538 88.2126C101.58 88.128 101.601 88.0697 101.622 87.985C101.622 87.9639 101.622 87.9639 101.643 87.9427C103.028 81.3528 106.225 77.4518 111.884 75.4616C112.535 78.5846 112.74 81.7869 112.514 85.0315L108.115 83.7189C107.422 83.5124 106.687 83.9041 106.488 84.6028C106.283 85.3015 106.672 86.0425 107.365 86.2436L112.21 87.6833C112.147 88.1756 112.068 88.6678 111.984 89.16L108.871 88.2338C108.178 88.0273 107.443 88.419 107.244 89.1177C107.039 89.8164 107.428 90.5574 108.121 90.7585L111.417 91.743C111.233 92.4629 111.029 93.1827 110.829 93.8972C110.787 93.9608 110.787 94.0461 110.766 94.1255ZM69.5588 47.6466L62.4145 49.4515L61.6428 45.7781C64.026 44.9788 66.4302 44.3808 68.8081 44.0313L69.5588 47.6466ZM59.1546 46.6779L60.131 51.32C60.215 51.6693 60.4144 51.9763 60.7189 52.1616C60.9236 52.2833 61.1651 52.368 61.4118 52.368C61.5115 52.368 61.6165 52.3468 61.7373 52.3257L71.4275 49.8802C72.1204 49.7162 72.5246 49.0175 72.3829 48.3188L71.4275 43.7192C74.6874 43.4704 77.8999 43.6768 81.039 44.3332C79.0652 50.0604 75.1964 53.2626 68.6611 54.66C68.5771 54.6812 68.5194 54.7023 68.4354 54.7235C62.8763 56.9837 56.8081 60.3289 50.3931 64.6799L46.0623 59.4927L43.3537 56.1898C48.6241 51.9553 53.9208 48.7952 59.1546 46.6779ZM36.3094 69.4912C36.1887 69.3695 36.0837 69.2636 35.984 69.1207C34.1519 66.8818 34.4774 63.5789 36.6769 61.7527L41.3384 57.8729L41.5011 58.0793L48.2203 66.2518C46.53 67.4427 44.8188 68.6972 43.1284 69.9887C41.0548 71.5236 38.1204 71.3173 36.3094 69.4912ZM45.6743 71.3385C47.4067 70.047 49.1546 68.7714 50.866 67.5805C54.9815 64.7275 58.9499 62.3033 62.7347 60.3342L48.7454 74.4401L45.6743 71.3385ZM28.183 121.719C27.3484 122.56 25.8628 122.56 25.0281 121.719L14.3614 110.963C12.6712 109.259 12.6712 106.469 14.3614 104.744L16.6187 102.484C17.4743 101.621 18.5714 101.192 19.6948 101.192C20.8129 101.192 21.9153 101.621 22.771 102.462H22.792L33.4429 113.202C34.3196 114.086 34.3196 115.499 33.4429 116.362L33.4219 116.383L28.183 121.719ZM54.2036 140.381L51.9412 142.663C50.2509 144.367 47.4845 144.367 45.7732 142.663L35.1066 131.907C34.2299 131.023 34.2299 129.61 35.1066 128.726L40.3822 123.406C40.8074 122.978 41.3796 122.75 41.9518 122.75C42.524 122.75 43.0909 122.978 43.5423 123.406L54.2038 134.162V134.183C55.0174 135.004 55.4636 136.115 55.4636 137.285C55.4899 138.449 55.0383 139.561 54.2036 140.381ZM55.1433 131.367L45.411 121.554C44.8388 120.977 44.1511 120.591 43.4372 120.363L47.1432 116.626L53.7783 123.317C54.0408 123.581 54.3663 123.708 54.697 123.708C55.0224 123.708 55.3689 123.586 55.6156 123.317C56.1248 122.803 56.1248 121.962 55.6156 121.448L48.9804 114.758L52.6234 111.084L55.2114 113.694C55.4738 113.958 55.7993 114.085 56.13 114.085C56.4555 114.085 56.8019 113.964 57.0486 113.694C57.5578 113.18 57.5578 112.339 57.0486 111.825L54.4607 109.216L57.5945 106.056C59.5105 104.124 59.5105 100.985 57.5945 99.0531C55.7415 97.1846 52.5026 97.1846 50.6286 99.0531L44.9068 104.823L39.6522 99.5241C39.143 99.0107 38.3084 99.0107 37.7992 99.5241C37.29 100.038 37.29 100.879 37.7992 101.393L43.0538 106.691L36.4554 113.344C36.2296 112.603 35.8464 111.926 35.2742 111.354L25.5419 101.541L48.7338 78.1557L78.3196 107.988L55.1433 131.367ZM82.0414 107.982L96.0522 93.8547C94.0784 97.671 91.6743 101.699 88.8448 105.865C87.6637 107.59 86.4196 109.353 85.1179 111.1L82.0414 107.982ZM94.6241 120.177C92.7921 122.416 89.5112 122.723 87.2961 120.876C87.1753 120.776 87.0494 120.67 86.9286 120.548C85.1175 118.701 84.9129 115.763 86.4614 113.672C87.7423 111.968 88.9863 110.242 90.1674 108.538L93.7317 111.513L98.477 115.477L94.6241 120.177ZM128.95 67.273C130.047 68.3793 130.64 69.8401 130.64 71.3804C130.64 72.9418 130.052 74.3975 128.95 75.4878L114.451 90.1072C115.532 84.5441 115.448 79.0817 114.168 73.8048C114.556 72.471 114.677 71.0948 114.514 69.7397C119.28 69.6974 123.737 68.3424 127.527 65.8387L128.95 67.273ZM135.895 46.8419C135.286 52.262 132.944 57.2692 129.296 60.9478C125.039 65.2405 119.48 67.3524 113.233 67.0877C113.17 67.0665 113.113 67.0241 113.05 67.003C111.79 66.389 110.546 65.7326 109.343 65.0551C109.281 65.0128 109.223 64.9916 109.16 64.9546C107.958 64.2347 106.777 63.499 105.637 62.7156C105.595 62.6945 105.574 62.6521 105.538 62.6309C104.399 61.8317 103.275 60.9689 102.241 60.085L102.199 60.0426C101.118 59.1375 100.099 58.1953 99.123 57.2109C98.1466 56.2264 97.2279 55.1995 96.3356 54.1304L96.2726 54.0668C95.396 52.9976 94.5614 51.9126 93.7687 50.764C93.7267 50.7216 93.7057 50.6793 93.6689 50.6422C92.8973 49.5148 92.1414 48.3239 91.4485 47.1117C91.4065 47.0482 91.3645 46.9899 91.3278 46.9264C90.6349 45.7143 90.0049 44.481 89.396 43.1895C89.375 43.126 89.333 43.0678 89.312 43.0043C88.7398 29.6603 98.8816 21.424 109.244 20.1544C116.493 19.2704 123.659 21.7952 128.913 27.0725C134.184 32.3285 136.729 39.5319 135.895 46.8419Z" fill="black"/>
<path d="M109.79 24.589C102.194 25.5153 93.9263 31.2212 93.7637 41.5689C93.7637 41.7753 93.8057 41.9976 93.9054 42.1828C96.1679 46.6767 98.9762 50.6624 102.273 53.9864C105.591 57.3317 109.522 60.1687 114 62.4448C114.184 62.5453 114.388 62.5877 114.588 62.5877H114.609C120.268 62.4871 124.016 59.8987 126.131 57.7604C129.066 54.8015 130.934 50.7576 131.444 46.3273C132.115 40.4149 130.058 34.5608 125.806 30.2729C121.538 25.9643 115.696 23.8903 109.79 24.589ZM128.871 46.0418C128.446 49.8793 126.814 53.3728 124.31 55.8975C122.556 57.6654 119.522 59.7774 114.903 59.9414C110.808 57.8242 107.186 55.1988 104.152 52.1394C101.118 49.0801 98.5144 45.4278 96.4146 41.2992C96.7191 32.6979 103.501 28.0135 110.137 27.2137C115.228 26.5997 120.299 28.4046 123.999 32.1415C127.669 35.8573 129.438 40.9285 128.871 46.0418Z" fill="black"/>
<path d="M121.827 45.222C121.564 47.4609 120.667 49.4512 119.281 50.8485C118.325 51.8119 117.165 52.4312 115.822 52.6747C115.108 52.8176 114.64 53.4951 114.782 54.215C114.903 54.8501 115.454 55.2842 116.063 55.2842C116.147 55.2842 116.226 55.2842 116.31 55.263C118.184 54.9136 119.811 54.0509 121.134 52.6959C122.924 50.891 124.105 48.3237 124.43 45.5078C124.514 44.788 124.005 44.1317 123.27 44.0523C122.577 43.9676 121.905 44.5022 121.827 45.222Z" fill="black"/>
<path d="M82.1842 58.2588C81.1868 57.2531 79.8851 56.7185 78.4782 56.7185C77.0713 56.7185 75.7696 57.2743 74.7722 58.2588L60.967 72.179C58.9303 74.2327 58.9303 77.578 60.967 79.6317L76.5622 95.3568C77.5805 96.3837 78.9243 96.8971 80.2682 96.8971C81.612 96.8971 82.9558 96.3836 83.9742 95.3568L97.7794 81.4366C98.7768 80.4309 99.3069 79.1182 99.3069 77.6997C99.3069 76.2811 98.7557 74.9685 97.7794 73.9628L82.1842 58.2588ZM95.9478 79.5897L82.1426 93.5099C81.1242 94.5367 79.4549 94.5367 78.4365 93.5099L62.8414 77.7848C61.823 76.7579 61.823 75.0747 62.8414 74.0479L69.4188 67.4157L75.7494 73.7991C76.0119 74.0637 76.3373 74.1908 76.668 74.1908C76.9935 74.1908 77.34 74.069 77.5867 73.7991C78.0959 73.2856 78.0959 72.444 77.5867 71.9306L71.256 65.5472L73.9227 62.8583L85.7127 74.7465C85.9752 75.0112 86.3006 75.1382 86.6313 75.1382C86.9568 75.1382 87.3032 75.0165 87.5499 74.7465C88.0591 74.2331 88.0591 73.3915 87.5499 72.8781L75.76 60.9898L76.6366 60.1059C77.1248 59.6136 77.7967 59.3278 78.4896 59.3278C79.1825 59.3278 79.8544 59.5925 80.3426 60.1059L95.9378 75.831C96.426 76.3233 96.7095 77.0008 96.7095 77.6995C96.699 78.3982 96.436 79.0974 95.9478 79.5897Z" fill="black"/>
<path d="M77.5383 82.1141C75.9898 83.6755 75.9898 86.2214 77.5383 87.783C78.31 88.5611 79.3283 88.9528 80.3467 88.9528C81.365 88.9528 82.3834 88.5611 83.155 87.783C84.7035 86.2216 84.7035 83.6756 83.155 82.1141C81.6537 80.595 79.0239 80.595 77.5383 82.1141ZM81.3074 85.9145C80.7772 86.4491 79.9005 86.4491 79.3756 85.9145C78.8454 85.3799 78.8454 84.5172 79.3756 83.9825C79.6381 83.7179 79.9635 83.5697 80.331 83.5697C80.6985 83.5697 81.0239 83.7126 81.2864 83.9825C81.8376 84.5171 81.8376 85.3798 81.3074 85.9145Z" fill="black"/>
<path d="M87.4333 54.9335C90.2627 61.1528 94.4779 65.382 99.953 67.5205C100.116 67.5841 100.257 67.6052 100.42 67.6052C100.95 67.6052 101.439 67.2771 101.643 66.7636C101.906 66.0861 101.559 65.3239 100.887 65.0593C96.0003 63.1697 92.3782 59.4962 89.8112 53.8486C89.5068 53.1922 88.7299 52.9064 88.0789 53.1922C87.4175 53.4939 87.1288 54.2718 87.4333 54.9335Z" fill="black"/>
<path d="M110.71 123.814C110.2 123.3 109.366 123.3 108.857 123.814L99.3868 133.363C98.8776 133.876 98.8776 134.718 99.3868 135.231C99.6492 135.496 99.9747 135.623 100.305 135.623C100.631 135.623 100.977 135.501 101.224 135.231L110.694 125.682C111.219 125.169 111.219 124.327 110.71 123.814Z" fill="black"/>
<path d="M135.428 111.411L128.956 117.938C128.446 118.451 128.446 119.293 128.956 119.806C129.218 120.071 129.544 120.198 129.874 120.198C130.2 120.198 130.546 120.076 130.793 119.806L137.265 113.28C137.775 112.766 137.775 111.925 137.265 111.411C136.772 110.898 135.937 110.898 135.428 111.411Z" fill="black"/>
<path d="M124.027 122.929L104.131 142.99C103.622 143.504 103.622 144.345 104.131 144.859C104.394 145.123 104.719 145.25 105.05 145.25C105.376 145.25 105.722 145.129 105.969 144.859L125.864 124.797C126.373 124.284 126.373 123.442 125.864 122.929C125.35 122.416 124.536 122.416 124.027 122.929Z" fill="black"/>
<path d="M11.7737 58.5447C12.0992 58.5447 12.4456 58.423 12.6923 58.153L22.1622 48.6043C22.6714 48.0908 22.6714 47.2492 22.1622 46.7358C21.653 46.2224 20.8183 46.2224 20.3092 46.7358L10.855 56.2899C10.3458 56.8033 10.3458 57.6449 10.855 58.1583C11.1018 58.4018 11.4482 58.5447 11.7737 58.5447Z" fill="black"/>
<path d="M41.3378 43.1258C41.6632 43.1258 42.0097 43.0041 42.2564 42.7341L48.7288 36.2077C49.238 35.6943 49.238 34.8527 48.7288 34.3393C48.2196 33.8258 47.385 33.8258 46.8758 34.3393L40.4034 40.8657C39.8942 41.3791 39.8942 42.2207 40.4034 42.7341C40.6868 42.9829 41.0123 43.1258 41.3378 43.1258Z" fill="black"/>
<path d="M15.5802 67.786C15.8426 68.0506 16.1681 68.1777 16.4988 68.1777C16.8243 68.1777 17.1707 68.0559 17.4174 67.786L37.3129 47.7248C37.8221 47.2113 37.8221 46.3697 37.3129 45.8563C36.8037 45.3429 35.969 45.3429 35.4599 45.8563L15.5644 65.9175C15.071 66.431 15.071 67.2726 15.5802 67.786Z" fill="black"/>
</svg>
