<svg width="214" height="159" viewBox="0 0 214 159" fill="none" xmlns="http://www.w3.org/2000/svg">
<path d="M108.79 19.8355C106.6 22.1355 104.43 24.4655 102.27 26.7955C102.29 26.5355 102.15 26.2655 101.85 26.2655C89.6005 26.2655 77.3505 26.2655 65.1005 26.2655C59.0405 26.2655 52.9805 26.2555 46.9205 26.2655C40.7805 26.2855 34.4805 25.8655 28.3505 26.3955C27.9405 26.4355 27.9405 27.0555 28.3505 27.0855C34.4805 27.6155 40.7705 27.2055 46.9205 27.2155C52.9805 27.2255 59.0405 27.2155 65.1005 27.2155C77.3505 27.2155 89.6005 27.2155 101.85 27.2155C101.85 27.2155 101.86 27.2155 101.87 27.2155C95.3605 34.2455 88.9505 41.3755 82.4905 48.4555C78.1205 53.2455 73.7605 58.0455 69.4005 62.8355C65.0505 67.6255 60.5005 72.2755 56.4305 77.3555C56.2005 77.6355 56.5505 78.0155 56.8005 77.7655C61.4405 73.3155 65.6905 68.3255 70.0605 63.5655C74.4405 58.7855 78.8205 54.0055 83.1905 49.2255C91.9405 39.6555 100.76 30.1755 109.33 20.4155C109.67 20.0355 109.15 19.4655 108.8 19.8255L108.79 19.8355Z" fill="black" stroke="black"/>
<path d="M56.6101 77.4347C51.9201 76.7847 46.9101 77.2847 42.1801 77.2747C37.7101 77.2747 32.9901 76.8147 28.5201 77.2947C28.8301 73.3547 28.6401 69.3447 28.6401 65.4047C28.6401 60.9947 28.6401 56.5747 28.6301 52.1647C28.6301 47.8947 28.6101 43.6247 28.5901 39.3547C28.5901 37.2147 28.5801 35.0847 28.5701 32.9447C28.5701 30.9947 28.8201 28.7947 28.2401 26.9347C28.2101 26.8447 28.0901 26.8447 28.0601 26.9347C27.4801 28.7947 27.7401 30.9947 27.7301 32.9447C27.7301 34.9347 27.7201 36.9347 27.7101 38.9247C27.6901 43.3347 27.6801 47.7547 27.6701 52.1647C27.6701 56.4347 27.6601 60.7047 27.6601 64.9747C27.6601 69.0847 27.4501 73.2647 27.7801 77.3647H27.7601C27.2701 77.4247 27.2701 78.1447 27.7601 78.2047C27.7901 78.2047 27.8201 78.2047 27.8501 78.2047C27.8901 78.5947 28.3301 78.6047 28.4201 78.2647C32.9201 78.7547 37.6801 78.2947 42.1901 78.2947C46.9201 78.2947 51.9301 78.7847 56.6201 78.1347C57.0301 78.0747 57.0401 77.4847 56.6201 77.4247L56.6101 77.4347Z" fill="black" stroke="black"/>
<path d="M87.95 141.191C87.94 141.101 87.93 141.011 87.92 140.921C87.87 140.591 87.36 140.591 87.31 140.921C87.29 141.081 87.27 141.241 87.26 141.401C87.23 141.411 87.2 141.421 87.17 141.431C86.97 141.521 86.97 141.781 87.17 141.871C87.18 141.871 87.19 141.871 87.2 141.881C87.13 142.831 87.15 143.791 87.15 144.751C87.15 145.901 87.01 147.141 87.33 148.251C86.4 148.261 85.47 148.341 84.61 148.591C84.53 148.271 84.04 148.271 83.98 148.611C83.73 149.971 83.84 151.391 83.85 152.761C83.85 153.861 83.85 154.921 83.98 155.991C79.89 155.991 75.81 155.991 71.72 155.991C58.42 155.991 45.06 155.631 31.77 156.081C31.78 134.131 31.91 112.161 31.81 90.2111C31.85 87.3811 31.87 84.5511 31.76 81.7511C31.76 81.1911 31.76 80.6311 31.76 80.0711C33.48 80.6211 35.46 80.4011 37.24 80.4111C39.55 80.4311 41.85 80.4111 44.16 80.4111C48.63 80.4111 53.15 80.6211 57.61 80.3711C58.02 80.3511 58.11 79.8511 57.9 79.6011C60.16 78.0111 62.04 75.5211 63.93 73.4611C66.12 71.0711 68.3 68.6811 70.49 66.2811C74.96 61.4011 79.42 56.5111 83.88 51.6211C92.71 41.9411 101.54 32.2711 110.24 22.4511C110.48 22.1811 110.11 21.7911 109.87 22.0411C100.91 31.5711 92.08 41.2411 83.24 50.9211C78.87 55.7111 74.5 60.4911 70.13 65.2911C67.95 67.6911 65.76 70.0811 63.58 72.4811C61.59 74.6611 59.16 76.8511 57.65 79.4711C57.64 79.4711 57.63 79.4711 57.61 79.4611C53.15 79.2111 48.63 79.4211 44.16 79.4211C41.98 79.4211 39.81 79.4211 37.63 79.4211C35.73 79.4311 33.61 79.1711 31.77 79.7711C31.77 79.1811 31.77 78.5811 31.76 77.9911C31.76 77.7711 31.65 77.6211 31.51 77.5511C31.47 77.2611 31.12 77.2611 31.08 77.5511C30.94 77.6211 30.83 77.7611 30.82 77.9911C30.81 79.2511 30.81 80.5011 30.8 81.7611C30.7 84.4311 30.71 87.1211 30.75 89.8111C30.64 112.011 30.77 134.221 30.78 156.421C30.78 156.611 30.85 156.741 30.96 156.831C30.96 156.961 30.94 157.091 30.93 157.221C30.89 157.731 31.68 157.731 31.65 157.221C31.65 157.171 31.65 157.131 31.64 157.081C31.65 157.081 31.67 157.081 31.68 157.091C45.01 157.551 58.41 157.171 71.75 157.181C78.36 157.181 84.98 157.181 91.59 157.191C98.31 157.191 105.12 157.531 111.82 156.951C112.26 156.911 112.26 156.241 111.82 156.201C105.12 155.611 98.32 155.951 91.59 155.961C89.28 155.961 86.96 155.961 84.65 155.961C84.78 154.891 84.78 153.821 84.78 152.731C84.78 151.571 84.85 150.391 84.73 149.241C86.54 149.731 88.6 149.481 90.43 149.481C92.72 149.481 95.01 149.481 97.3 149.481C101.86 149.481 106.5 149.751 111.04 149.241C111.46 149.191 111.46 148.571 111.04 148.531C106.5 148.021 101.86 148.291 97.3 148.291C95.14 148.291 92.98 148.291 90.81 148.291C89.89 148.291 88.91 148.231 87.92 148.221C88.24 147.121 88.1 145.871 88.1 144.731C88.1 143.861 88.1 142.981 88.06 142.111" fill="black"/>
<path d="M87.95 141.191C87.94 141.101 87.93 141.011 87.92 140.921C87.87 140.591 87.36 140.591 87.31 140.921C87.29 141.081 87.27 141.241 87.26 141.401C87.23 141.411 87.2 141.421 87.17 141.431C86.97 141.521 86.97 141.781 87.17 141.871C87.18 141.871 87.19 141.871 87.2 141.881C87.13 142.831 87.15 143.791 87.15 144.751C87.15 145.901 87.01 147.141 87.33 148.251C86.4 148.261 85.47 148.341 84.61 148.591C84.53 148.271 84.04 148.271 83.98 148.611C83.73 149.971 83.84 151.391 83.85 152.761C83.85 153.861 83.85 154.921 83.98 155.991C79.89 155.991 75.81 155.991 71.72 155.991C58.42 155.991 45.06 155.631 31.77 156.081C31.78 134.131 31.91 112.161 31.81 90.2111C31.85 87.3811 31.87 84.5511 31.76 81.7511C31.76 81.1911 31.76 80.6311 31.76 80.0711C33.48 80.6211 35.46 80.4011 37.24 80.4111C39.55 80.4311 41.85 80.4111 44.16 80.4111C48.63 80.4111 53.15 80.6211 57.61 80.3711C58.02 80.3511 58.11 79.8511 57.9 79.6011C60.16 78.0111 62.04 75.5211 63.93 73.4611C66.12 71.0711 68.3 68.6811 70.49 66.2811C74.96 61.4011 79.42 56.5111 83.88 51.6211C92.71 41.9411 101.54 32.2711 110.24 22.4511C110.48 22.1811 110.11 21.7911 109.87 22.0411C100.91 31.5711 92.08 41.2411 83.24 50.9211C78.87 55.7111 74.5 60.4911 70.13 65.2911C67.95 67.6911 65.76 70.0811 63.58 72.4811C61.59 74.6611 59.16 76.8511 57.65 79.4711C57.64 79.4711 57.63 79.4711 57.61 79.4611C53.15 79.2111 48.63 79.4211 44.16 79.4211C41.98 79.4211 39.81 79.4211 37.63 79.4211C35.73 79.4311 33.61 79.1711 31.77 79.7711C31.77 79.1811 31.77 78.5811 31.76 77.9911C31.76 77.7711 31.65 77.6211 31.51 77.5511C31.47 77.2611 31.12 77.2611 31.08 77.5511C30.94 77.6211 30.83 77.7611 30.82 77.9911C30.81 79.2511 30.81 80.5011 30.8 81.7611C30.7 84.4311 30.71 87.1211 30.75 89.8111C30.64 112.011 30.77 134.221 30.78 156.421C30.78 156.611 30.85 156.741 30.96 156.831C30.96 156.961 30.94 157.091 30.93 157.221C30.89 157.731 31.68 157.731 31.65 157.221C31.65 157.171 31.65 157.131 31.64 157.081C31.65 157.081 31.67 157.081 31.68 157.091C45.01 157.551 58.41 157.171 71.75 157.181C78.36 157.181 84.98 157.181 91.59 157.191C98.31 157.191 105.12 157.531 111.82 156.951C112.26 156.911 112.26 156.241 111.82 156.201C105.12 155.611 98.32 155.951 91.59 155.961C89.28 155.961 86.96 155.961 84.65 155.961C84.78 154.891 84.78 153.821 84.78 152.731C84.78 151.571 84.85 150.391 84.73 149.241C86.54 149.731 88.6 149.481 90.43 149.481C92.72 149.481 95.01 149.481 97.3 149.481C101.86 149.481 106.5 149.751 111.04 149.241C111.46 149.191 111.46 148.571 111.04 148.531C106.5 148.021 101.86 148.291 97.3 148.291C95.14 148.291 92.98 148.291 90.81 148.291C89.89 148.291 88.91 148.231 87.92 148.221C88.24 147.121 88.1 145.871 88.1 144.731C88.1 143.861 88.1 142.981 88.06 142.111" stroke="black"/>
<path d="M101.26 28.4345C95.11 28.1445 88.9 28.4345 82.74 28.4445C76.7 28.4445 70.65 28.4445 64.61 28.4445C58.57 28.4445 52.52 28.4445 46.48 28.4445C40.38 28.4445 34.03 27.9145 27.96 28.6045C27.65 28.6445 27.65 29.1045 27.96 29.1345C34.03 29.8245 40.38 29.2945 46.48 29.2945C52.52 29.2945 58.57 29.2945 64.61 29.2945C70.65 29.2945 76.7 29.2945 82.74 29.2945C88.9 29.2945 95.11 29.5945 101.26 29.3045C101.79 29.2745 101.79 28.4245 101.26 28.3945V28.4345Z" fill="black" stroke="black"/>
<path d="M86.91 125.631C86.91 125.631 86.89 125.591 86.88 125.561C87 125.251 86.87 124.821 86.47 124.821C85.72 124.821 84.97 124.821 84.22 124.801C84.67 122.461 84.32 119.761 84.31 117.431C84.29 114.471 84.28 111.501 84.28 108.541C84.28 105.721 84.28 102.891 84.25 100.071C84.22 97.3709 84.58 94.1909 83.9 91.5809C83.88 91.5209 83.81 91.5209 83.79 91.5809C83.74 91.5309 83.67 91.5009 83.59 91.4909C80.44 91.1209 77.17 91.3909 74 91.3909C70.8 91.3909 67.61 91.3909 64.41 91.4009C58.18 91.4009 51.86 91.1009 45.63 91.4509C45.52 91.2109 45.16 91.2309 45.09 91.5109C44.82 91.6409 44.81 92.0709 45.06 92.2309C45.06 92.4709 45.05 92.7109 45.04 92.9609C44.71 96.3609 44.8 99.8809 44.89 103.351C44.87 110.451 44.96 117.571 44.96 124.661C43.88 124.711 42.81 124.811 41.78 125.031C41.57 125.071 41.52 125.351 41.62 125.531C41.61 125.591 41.59 125.641 41.58 125.701C41.56 125.861 41.56 126.031 41.56 126.191C41.55 126.571 41.55 126.961 41.54 127.341C41.54 127.461 41.59 127.551 41.66 127.611C41.69 127.681 41.73 127.731 41.8 127.741C45.35 128.301 49.17 127.921 52.75 127.931C56.38 127.931 60.01 127.941 63.64 127.931C71.13 127.931 78.72 128.321 86.19 127.851C86.24 127.851 86.28 127.831 86.32 127.811C86.39 128.311 87.08 128.301 87.11 127.761C87.14 127.021 86.99 126.351 86.92 125.621L86.91 125.631ZM64.41 92.3709C67.48 92.3709 70.54 92.3709 73.61 92.3809C76.9 92.3809 80.31 92.6709 83.58 92.2809C83.6 92.2809 83.62 92.2709 83.64 92.2609C83.19 94.6109 83.46 97.3009 83.43 99.6509C83.4 102.611 83.4 105.581 83.4 108.541C83.4 111.361 83.39 114.191 83.37 117.011C83.35 119.461 82.98 122.351 83.46 124.801C76.9 124.741 70.34 124.721 63.78 124.731H62.75C58.83 124.701 54.91 124.691 51 124.731C49.28 124.681 47.51 124.591 45.77 124.631C45.77 117.551 45.86 110.451 45.84 103.361C45.93 99.8809 46.02 96.3609 45.69 92.9609C45.69 92.7509 45.68 92.5309 45.67 92.3209C51.88 92.6709 58.18 92.3609 64.4 92.3709H64.41ZM63.63 127.031C60 127.031 56.37 127.031 52.74 127.031C49.28 127.031 45.61 126.691 42.17 127.171C42.17 126.841 42.17 126.511 42.16 126.181C42.16 126.031 42.16 125.871 42.14 125.711C44.99 126.231 48.06 126.021 51 125.941C54.92 125.971 58.83 125.961 62.75 125.941H63.78C71.34 125.951 78.9 125.941 86.46 125.851C86.41 126.281 86.34 126.701 86.31 127.131C86.27 127.111 86.23 127.101 86.17 127.091C78.7 126.621 71.11 127.011 63.62 127.011L63.63 127.031Z" fill="black" stroke="black"/>
<path d="M47.8203 108.254C47.8203 103.544 48.0303 98.7141 47.6603 94.0141C47.6403 93.7141 47.2503 93.7141 47.2303 94.0141C46.8603 98.7141 47.0803 103.534 47.0703 108.254C47.0703 112.954 46.7303 117.814 47.1303 122.494C47.1703 122.944 47.7303 122.944 47.7603 122.494C48.1603 117.814 47.8203 112.954 47.8203 108.254Z" fill="black" stroke="black"/>
<path d="M82.1497 108.41C82.1497 103.89 82.5897 99.01 81.9697 94.54C81.9397 94.32 81.5997 94.32 81.5597 94.54C80.9397 99.02 81.3897 103.88 81.3797 108.41C81.3797 112.97 80.9597 117.78 81.5197 122.29C81.5497 122.55 81.9697 122.55 81.9997 122.29C82.5597 117.77 82.1497 112.96 82.1397 108.41H82.1497Z" fill="black" stroke="black"/>
<path d="M63.5902 108.481C63.5902 103.811 63.9402 98.9312 63.4702 94.2812C63.6702 94.1212 63.6202 93.7312 63.3002 93.7012C60.7202 93.4112 58.0302 93.6412 55.4402 93.6412C52.8402 93.6412 50.1602 93.4512 47.5802 93.7612C47.2702 93.8012 47.2702 94.2412 47.5802 94.2812C50.1602 94.5912 52.8502 94.4012 55.4402 94.4012C57.8902 94.4012 60.4202 94.5912 62.8702 94.3712C62.4102 98.9812 62.7602 103.831 62.7602 108.461C62.7602 113.161 62.3402 118.101 62.8602 122.771C62.9102 123.211 63.4402 123.211 63.4902 122.771C64.0102 118.101 63.5902 113.161 63.5902 108.461V108.481Z" fill="black" stroke="black"/>
<path d="M82.1503 93.5569C82.1203 93.4169 81.9203 93.4169 81.9003 93.5569C81.9003 93.5569 81.9003 93.5669 81.9003 93.5769C81.8603 93.5569 81.8203 93.5369 81.7703 93.5369C78.8903 93.1769 75.9003 93.3869 73.0103 93.3869C70.5603 93.3869 67.4303 92.7969 65.0903 93.6469C64.9503 93.5969 64.7703 93.6669 64.7503 93.8869C64.3803 98.8169 64.6303 103.877 64.6103 108.827C64.6003 111.177 64.5903 113.527 64.5803 115.877C64.5803 118.217 64.3403 120.707 64.7003 123.017C64.7503 123.337 65.2503 123.347 65.3003 123.017C65.6503 120.837 65.4403 118.497 65.4303 116.287C65.4203 113.797 65.4103 111.307 65.4003 108.817C65.3803 103.977 65.6203 99.0069 65.2803 94.1769C67.5903 94.9169 70.6403 94.3769 73.0103 94.3769C75.9103 94.3769 78.9003 94.5869 81.7703 94.2269C81.7903 94.2269 81.8003 94.2169 81.8203 94.2069C81.8103 94.4569 81.8203 94.6969 81.8503 94.9269C81.8803 95.1169 82.1703 95.1169 82.2003 94.9269C82.2803 94.4869 82.2403 93.9869 82.1503 93.5569Z" fill="black" stroke="black"/>
<path d="M62.6101 122.321C60.2001 121.921 57.6801 122.131 55.2501 122.121C52.8601 122.121 50.2301 121.751 47.9001 122.351C47.6401 122.421 47.6401 122.861 47.9001 122.931C50.2301 123.531 52.8701 123.171 55.2501 123.161C57.6801 123.161 60.2001 123.361 62.6101 122.961C62.9001 122.911 62.9001 122.361 62.6101 122.321Z" fill="black" stroke="black"/>
<path d="M81.8904 122.294C79.0104 121.894 75.9604 122.194 73.0604 122.194C70.4004 122.194 67.5704 121.934 64.9404 122.414C64.7504 122.454 64.7504 122.814 64.9404 122.844C67.5704 123.324 70.4004 123.064 73.0604 123.064C75.9704 123.064 79.0104 123.364 81.8904 122.964C82.2904 122.914 82.2904 122.334 81.8904 122.284V122.294Z" fill="black" stroke="black"/>
<path d="M30.1802 78.0803C29.8302 77.9103 29.5002 77.9703 29.1202 77.9703C28.7902 77.9703 28.4602 77.9503 28.1302 77.9103C28.1602 77.6603 28.1902 77.4503 28.1102 77.2103C28.1102 77.1903 28.0902 77.1803 28.0802 77.1703C28.0502 76.8703 27.6302 76.7603 27.5702 77.1003C27.5102 77.4403 27.4402 77.7903 27.3802 78.1303C27.3502 78.3103 27.4302 78.5103 27.6002 78.5503C28.0502 78.6703 28.4802 78.7703 28.9502 78.8003C29.3702 78.8303 29.8302 78.9003 30.1902 78.6503C30.3602 78.5303 30.4002 78.2003 30.1902 78.0903L30.1802 78.0803Z" fill="black" stroke="black"/>
<path d="M40.17 82.5753C38.64 82.4253 37.09 82.4253 35.55 82.3853C34.22 82.3553 32.84 82.2253 31.54 82.5653C31.35 82.6153 31.35 82.9353 31.54 82.9853C32.84 83.3253 34.23 83.1953 35.55 83.1653C37.09 83.1353 38.64 83.1353 40.17 82.9753C40.41 82.9553 40.41 82.5953 40.17 82.5653V82.5753Z" fill="black" stroke="black"/>
<path d="M40.0199 82.8869C39.9999 82.7669 39.8199 82.7669 39.7999 82.8869C39.5999 84.1269 39.3799 85.5969 39.6299 86.8869C39.5999 86.8169 39.5499 86.7669 39.4699 86.7569C38.1799 86.5269 36.8599 86.6269 35.5599 86.6269C34.2899 86.6269 32.8899 86.4269 31.6799 86.8969C31.5299 86.9569 31.5299 87.1669 31.6799 87.2269C32.8899 87.6969 34.2899 87.4869 35.5599 87.4969C36.8599 87.4969 38.1799 87.5969 39.4699 87.3669C39.5999 87.3469 39.6599 87.2269 39.6699 87.0969C39.6699 87.1069 39.6699 87.1269 39.6699 87.1369C39.7299 87.3969 40.0899 87.3969 40.1499 87.1369C40.4699 85.8069 40.2299 84.2269 40.0199 82.8969V82.8869Z" fill="black" stroke="black"/>
<path d="M40.0199 93.1369C39.9999 93.0169 39.8199 93.0169 39.7999 93.1369C39.5999 94.3769 39.3799 95.8469 39.6299 97.1369C39.5999 97.0669 39.5499 97.0169 39.4699 97.0069C38.1799 96.7769 36.8599 96.8769 35.5599 96.8769C34.2899 96.8769 32.8899 96.6769 31.6799 97.1469C31.5299 97.2069 31.5299 97.4169 31.6799 97.4769C32.8899 97.9469 34.2899 97.7369 35.5599 97.7469C36.8599 97.7469 38.1799 97.8469 39.4699 97.6169C39.5999 97.5969 39.6599 97.4769 39.6699 97.3469C39.6699 97.3569 39.6699 97.3769 39.6699 97.3869C39.7299 97.6469 40.0899 97.6469 40.1499 97.3869C40.4699 96.0569 40.2299 94.4769 40.0199 93.1469V93.1369Z" fill="black" stroke="black"/>
<path d="M40.0199 108.52C39.9999 108.4 39.8199 108.4 39.7999 108.52C39.5999 109.76 39.3799 111.23 39.6299 112.52C39.5999 112.45 39.5499 112.4 39.4699 112.39C38.1799 112.16 36.8599 112.26 35.5599 112.26C34.2899 112.26 32.8899 112.06 31.6799 112.53C31.5299 112.59 31.5299 112.8 31.6799 112.86C32.8899 113.33 34.2899 113.12 35.5599 113.13C36.8599 113.13 38.1799 113.23 39.4699 113C39.5999 112.98 39.6599 112.86 39.6699 112.73C39.6699 112.74 39.6699 112.76 39.6699 112.77C39.7299 113.03 40.0899 113.03 40.1499 112.77C40.4699 111.44 40.2299 109.86 40.0199 108.53V108.52Z" fill="black" stroke="black"/>
<path d="M40.0199 122.176C39.9999 122.056 39.8199 122.056 39.7999 122.176C39.5999 123.416 39.3799 124.886 39.6299 126.176C39.5999 126.106 39.5499 126.056 39.4699 126.046C38.1799 125.816 36.8599 125.916 35.5599 125.916C34.2899 125.916 32.8899 125.716 31.6799 126.186C31.5299 126.246 31.5299 126.456 31.6799 126.516C32.8899 126.986 34.2899 126.776 35.5599 126.786C36.8599 126.786 38.1799 126.886 39.4699 126.656C39.5999 126.636 39.6599 126.516 39.6699 126.386C39.6699 126.396 39.6699 126.416 39.6699 126.426C39.7299 126.686 40.0899 126.686 40.1499 126.426C40.4699 125.096 40.2299 123.516 40.0199 122.186V122.176Z" fill="black" stroke="black"/>
<path d="M40.0199 135.848C39.9999 135.728 39.8199 135.728 39.7999 135.848C39.5999 137.088 39.3799 138.558 39.6299 139.848C39.5999 139.778 39.5499 139.728 39.4699 139.718C38.1799 139.488 36.8599 139.588 35.5599 139.588C34.2899 139.588 32.8899 139.388 31.6799 139.858C31.5299 139.918 31.5299 140.128 31.6799 140.188C32.8899 140.658 34.2899 140.448 35.5599 140.458C36.8599 140.458 38.1799 140.558 39.4699 140.328C39.5999 140.308 39.6599 140.188 39.6699 140.058C39.6699 140.068 39.6699 140.088 39.6699 140.098C39.7299 140.358 40.0899 140.358 40.1499 140.098C40.4699 138.768 40.2299 137.188 40.0199 135.858V135.848Z" fill="black" stroke="black"/>
<path d="M34.8403 100.824C34.8403 100.704 34.7404 100.704 34.7304 100.824C34.6404 102.064 34.5304 103.534 34.6504 104.824C34.6304 104.754 34.6104 104.704 34.5704 104.694C33.9504 104.464 33.3204 104.564 32.7004 104.564C32.0904 104.564 31.4204 104.364 30.8504 104.834C30.7804 104.894 30.7804 105.104 30.8504 105.164C31.4304 105.634 32.1004 105.424 32.7004 105.434C33.3204 105.434 33.9604 105.534 34.5704 105.304C34.6304 105.284 34.6603 105.164 34.6603 105.034C34.6603 105.044 34.6603 105.064 34.6603 105.074C34.6903 105.334 34.8604 105.334 34.8904 105.074C35.0404 103.744 34.9304 102.164 34.8304 100.834L34.8403 100.824Z" fill="black" stroke="black"/>
<path d="M34.8403 88.8712C34.8403 88.7512 34.7404 88.7512 34.7304 88.8712C34.6404 90.1113 34.5304 91.5813 34.6504 92.8713C34.6304 92.8013 34.6104 92.7512 34.5704 92.7412C33.9504 92.5112 33.3204 92.6112 32.7004 92.6112C32.0904 92.6112 31.4204 92.4112 30.8504 92.8812C30.7804 92.9412 30.7804 93.1512 30.8504 93.2112C31.4304 93.6812 32.1004 93.4713 32.7004 93.4813C33.3204 93.4813 33.9604 93.5812 34.5704 93.3512C34.6304 93.3312 34.6603 93.2112 34.6603 93.0812C34.6603 93.0912 34.6603 93.1113 34.6603 93.1213C34.6903 93.3813 34.8604 93.3813 34.8904 93.1213C35.0404 91.7913 34.9304 90.2112 34.8304 88.8812L34.8403 88.8712Z" fill="black" stroke="black"/>
<path d="M34.8403 116.199C34.8403 116.079 34.7404 116.079 34.7304 116.199C34.6404 117.439 34.5304 118.909 34.6504 120.199C34.6304 120.129 34.6104 120.079 34.5704 120.069C33.9504 119.839 33.3204 119.939 32.7004 119.939C32.0904 119.939 31.4204 119.739 30.8504 120.209C30.7804 120.269 30.7804 120.479 30.8504 120.539C31.4304 121.009 32.1004 120.799 32.7004 120.809C33.3204 120.809 33.9604 120.909 34.5704 120.679C34.6304 120.659 34.6603 120.539 34.6603 120.409C34.6603 120.419 34.6603 120.439 34.6603 120.449C34.6903 120.709 34.8604 120.709 34.8904 120.449C35.0404 119.119 34.9304 117.539 34.8304 116.209L34.8403 116.199Z" fill="black" stroke="black"/>
<path d="M34.8403 129.871C34.8403 129.751 34.7404 129.751 34.7304 129.871C34.6404 131.111 34.5304 132.581 34.6504 133.871C34.6304 133.801 34.6104 133.751 34.5704 133.741C33.9504 133.511 33.3204 133.611 32.7004 133.611C32.0904 133.611 31.4204 133.411 30.8504 133.881C30.7804 133.941 30.7804 134.151 30.8504 134.211C31.4304 134.681 32.1004 134.471 32.7004 134.481C33.3204 134.481 33.9604 134.581 34.5704 134.351C34.6304 134.331 34.6603 134.211 34.6603 134.081C34.6603 134.091 34.6603 134.111 34.6603 134.121C34.6903 134.381 34.8604 134.381 34.8904 134.121C35.0404 132.791 34.9304 131.211 34.8304 129.881L34.8403 129.871Z" fill="black" stroke="black"/>
<path d="M110.24 19.8355C112.43 22.1355 114.6 24.4655 116.76 26.7955C116.74 26.5355 116.88 26.2655 117.18 26.2655C129.43 26.2655 141.681 26.2655 153.931 26.2655C159.99 26.2655 166.05 26.2555 172.11 26.2655C178.25 26.2855 184.55 25.8655 190.68 26.3955C191.09 26.4355 191.09 27.0555 190.68 27.0855C184.55 27.6155 178.26 27.2055 172.11 27.2155C166.05 27.2255 159.99 27.2155 153.931 27.2155C141.681 27.2155 129.43 27.2155 117.18 27.2155C117.18 27.2155 117.17 27.2155 117.16 27.2155C123.67 34.2455 130.08 41.3755 136.54 48.4555C140.91 53.2455 145.27 58.0455 149.63 62.8355C153.98 67.6255 158.53 72.2755 162.6 77.3555C162.83 77.6355 162.481 78.0155 162.231 77.7655C157.591 73.3155 153.34 68.3255 148.97 63.5655C144.59 58.7855 140.211 54.0055 135.841 49.2255C127.091 39.6555 118.27 30.1755 109.7 20.4155C109.36 20.0355 109.88 19.4655 110.23 19.8255L110.24 19.8355Z" fill="black" stroke="black"/>
<path d="M162.42 77.4347C167.11 76.7847 172.12 77.2847 176.85 77.2747C181.32 77.2747 186.04 76.8147 190.51 77.2947C190.2 73.3547 190.39 69.3447 190.39 65.4047C190.39 60.9947 190.39 56.5747 190.4 52.1647C190.4 47.8947 190.42 43.6247 190.44 39.3547C190.44 37.2147 190.45 35.0847 190.46 32.9447C190.46 30.9947 190.21 28.7947 190.79 26.9347C190.82 26.8447 190.94 26.8447 190.97 26.9347C191.55 28.7947 191.29 30.9947 191.3 32.9447C191.3 34.9347 191.31 36.9347 191.32 38.9247C191.33 43.3347 191.35 47.7547 191.36 52.1647C191.36 56.4347 191.37 60.7047 191.37 64.9747C191.37 69.0847 191.58 73.2647 191.25 77.3647H191.27C191.76 77.4247 191.76 78.1447 191.27 78.2047C191.24 78.2047 191.21 78.2047 191.18 78.2047C191.14 78.5947 190.7 78.6047 190.61 78.2647C186.11 78.7547 181.35 78.2947 176.84 78.2947C172.11 78.2947 167.1 78.7847 162.41 78.1347C162 78.0747 162 77.4847 162.41 77.4247L162.42 77.4347Z" fill="black" stroke="black"/>
<path d="M131.08 141.191C131.09 141.101 131.1 141.011 131.11 140.921C131.16 140.591 131.67 140.591 131.72 140.921C131.74 141.081 131.76 141.241 131.77 141.401C131.8 141.411 131.83 141.421 131.86 141.431C132.06 141.521 132.06 141.781 131.86 141.871C131.85 141.871 131.84 141.871 131.83 141.881C131.9 142.831 131.88 143.791 131.88 144.751C131.88 145.901 132.02 147.141 131.7 148.251C132.63 148.261 133.56 148.341 134.42 148.591C134.5 148.271 134.99 148.271 135.05 148.611C135.3 149.971 135.19 151.391 135.18 152.761C135.18 153.861 135.18 154.921 135.05 155.991C139.14 155.991 143.22 155.991 147.31 155.991C160.61 155.991 173.97 155.631 187.26 156.081C187.25 134.131 187.12 112.161 187.22 90.2111C187.18 87.3811 187.16 84.5511 187.27 81.7511C187.27 81.1911 187.27 80.6311 187.27 80.0711C185.55 80.6211 183.57 80.4011 181.79 80.4111C179.48 80.4311 177.18 80.4111 174.87 80.4111C170.4 80.4111 165.88 80.6211 161.42 80.3711C161.01 80.3511 160.92 79.8511 161.13 79.6011C158.87 78.0111 156.99 75.5211 155.1 73.4611C152.91 71.0711 150.73 68.6811 148.54 66.2811C144.07 61.4011 139.61 56.5111 135.15 51.6211C126.32 41.9411 117.49 32.2711 108.79 22.4511C108.55 22.1811 108.92 21.7911 109.16 22.0411C118.12 31.5711 126.95 41.2411 135.79 50.9211C140.16 55.7111 144.53 60.4911 148.9 65.2911C151.08 67.6911 153.27 70.0811 155.45 72.4811C157.44 74.6611 159.87 76.8511 161.38 79.4711C161.39 79.4711 161.4 79.4711 161.42 79.4611C165.88 79.2111 170.4 79.4211 174.87 79.4211C177.05 79.4211 179.22 79.4211 181.4 79.4211C183.3 79.4311 185.42 79.1711 187.26 79.7711C187.26 79.1811 187.26 78.5811 187.27 77.9911C187.27 77.7711 187.38 77.6211 187.52 77.5511C187.56 77.2611 187.91 77.2611 187.95 77.5511C188.09 77.6211 188.2 77.7611 188.2 77.9911C188.21 79.2511 188.21 80.5011 188.22 81.7611C188.32 84.4311 188.31 87.1211 188.27 89.8111C188.38 112.011 188.25 134.221 188.24 156.421C188.24 156.611 188.17 156.741 188.06 156.831C188.06 156.961 188.08 157.091 188.09 157.221C188.13 157.731 187.34 157.731 187.37 157.221C187.37 157.171 187.37 157.131 187.38 157.081C187.37 157.081 187.35 157.081 187.34 157.091C174.01 157.551 160.61 157.171 147.27 157.181C140.66 157.181 134.04 157.181 127.43 157.191C120.71 157.191 113.9 157.531 107.2 156.951C106.76 156.911 106.76 156.241 107.2 156.201C113.9 155.611 120.7 155.951 127.43 155.961C129.74 155.961 132.06 155.961 134.37 155.961C134.24 154.891 134.24 153.821 134.24 152.731C134.24 151.571 134.17 150.391 134.29 149.241C132.48 149.731 130.42 149.481 128.59 149.481C126.3 149.481 124.01 149.481 121.72 149.481C117.16 149.481 112.52 149.751 107.98 149.241C107.56 149.191 107.56 148.571 107.98 148.531C112.52 148.021 117.16 148.291 121.72 148.291C123.88 148.291 126.04 148.291 128.21 148.291C129.13 148.291 130.11 148.231 131.1 148.221C130.78 147.121 130.92 145.871 130.92 144.731C130.92 143.861 130.92 142.981 130.96 142.111" fill="black"/>
<path d="M131.08 141.191C131.09 141.101 131.1 141.011 131.11 140.921C131.16 140.591 131.67 140.591 131.72 140.921C131.74 141.081 131.76 141.241 131.77 141.401C131.8 141.411 131.83 141.421 131.86 141.431C132.06 141.521 132.06 141.781 131.86 141.871C131.85 141.871 131.84 141.871 131.83 141.881C131.9 142.831 131.88 143.791 131.88 144.751C131.88 145.901 132.02 147.141 131.7 148.251C132.63 148.261 133.56 148.341 134.42 148.591C134.5 148.271 134.99 148.271 135.05 148.611C135.3 149.971 135.19 151.391 135.18 152.761C135.18 153.861 135.18 154.921 135.05 155.991C139.14 155.991 143.22 155.991 147.31 155.991C160.61 155.991 173.97 155.631 187.26 156.081C187.25 134.131 187.12 112.161 187.22 90.2111C187.18 87.3811 187.16 84.5511 187.27 81.7511C187.27 81.1911 187.27 80.6311 187.27 80.0711C185.55 80.6211 183.57 80.4011 181.79 80.4111C179.48 80.4311 177.18 80.4111 174.87 80.4111C170.4 80.4111 165.88 80.6211 161.42 80.3711C161.01 80.3511 160.92 79.8511 161.13 79.6011C158.87 78.0111 156.99 75.5211 155.1 73.4611C152.91 71.0711 150.73 68.6811 148.54 66.2811C144.07 61.4011 139.61 56.5111 135.15 51.6211C126.32 41.9411 117.49 32.2711 108.79 22.4511C108.55 22.1811 108.92 21.7911 109.16 22.0411C118.12 31.5711 126.95 41.2411 135.79 50.9211C140.16 55.7111 144.53 60.4911 148.9 65.2911C151.08 67.6911 153.27 70.0811 155.45 72.4811C157.44 74.6611 159.87 76.8511 161.38 79.4711C161.39 79.4711 161.4 79.4711 161.42 79.4611C165.88 79.2111 170.4 79.4211 174.87 79.4211C177.05 79.4211 179.22 79.4211 181.4 79.4211C183.3 79.4311 185.42 79.1711 187.26 79.7711C187.26 79.1811 187.26 78.5811 187.27 77.9911C187.27 77.7711 187.38 77.6211 187.52 77.5511C187.56 77.2611 187.91 77.2611 187.95 77.5511C188.09 77.6211 188.2 77.7611 188.2 77.9911C188.21 79.2511 188.21 80.5011 188.22 81.7611C188.32 84.4311 188.31 87.1211 188.27 89.8111C188.38 112.011 188.25 134.221 188.24 156.421C188.24 156.611 188.17 156.741 188.06 156.831C188.06 156.961 188.08 157.091 188.09 157.221C188.13 157.731 187.34 157.731 187.37 157.221C187.37 157.171 187.37 157.131 187.38 157.081C187.37 157.081 187.35 157.081 187.34 157.091C174.01 157.551 160.61 157.171 147.27 157.181C140.66 157.181 134.04 157.181 127.43 157.191C120.71 157.191 113.9 157.531 107.2 156.951C106.76 156.911 106.76 156.241 107.2 156.201C113.9 155.611 120.7 155.951 127.43 155.961C129.74 155.961 132.06 155.961 134.37 155.961C134.24 154.891 134.24 153.821 134.24 152.731C134.24 151.571 134.17 150.391 134.29 149.241C132.48 149.731 130.42 149.481 128.59 149.481C126.3 149.481 124.01 149.481 121.72 149.481C117.16 149.481 112.52 149.751 107.98 149.241C107.56 149.191 107.56 148.571 107.98 148.531C112.52 148.021 117.16 148.291 121.72 148.291C123.88 148.291 126.04 148.291 128.21 148.291C129.13 148.291 130.11 148.231 131.1 148.221C130.78 147.121 130.92 145.871 130.92 144.731C130.92 143.861 130.92 142.981 130.96 142.111" stroke="black"/>
<path d="M117.771 28.4345C123.921 28.1445 130.131 28.4345 136.291 28.4445C142.331 28.4445 148.381 28.4445 154.421 28.4445C160.461 28.4445 166.511 28.4445 172.551 28.4445C178.651 28.4445 185.001 27.9145 191.071 28.6045C191.381 28.6445 191.381 29.1045 191.071 29.1345C185.001 29.8245 178.651 29.2945 172.551 29.2945C166.511 29.2945 160.461 29.2945 154.421 29.2945C148.381 29.2945 142.331 29.2945 136.291 29.2945C130.131 29.2945 123.921 29.5945 117.771 29.3045C117.241 29.2745 117.241 28.4245 117.771 28.3945V28.4345Z" fill="black" stroke="black"/>
<path d="M131.93 127.77C131.95 128.31 132.65 128.33 132.72 127.82C132.76 127.84 132.8 127.85 132.85 127.86C140.32 128.33 147.91 127.94 155.4 127.94C159.03 127.94 162.66 127.94 166.29 127.94C169.87 127.94 173.69 128.32 177.24 127.75C177.31 127.74 177.35 127.68 177.38 127.62C177.45 127.56 177.5 127.48 177.5 127.35C177.5 126.97 177.5 126.58 177.48 126.2C177.48 126.04 177.48 125.87 177.46 125.71C177.46 125.65 177.44 125.6 177.42 125.54C177.52 125.37 177.46 125.08 177.26 125.04C176.22 124.83 175.16 124.72 174.08 124.67C174.08 117.58 174.17 110.47 174.15 103.36C174.24 99.8798 174.22 91.6498 173.95 91.5198C173.88 91.2398 160.86 91.4198 154.63 91.4098C151.43 91.4098 148.24 91.4098 145.04 91.3998C141.88 91.3998 138.6 91.1298 135.45 91.4998C135.36 91.5098 135.3 91.5498 135.25 91.5898C135.23 91.5298 135.15 91.5298 135.14 91.5898C134.45 94.1998 134.81 97.3798 134.79 100.08C134.76 102.9 134.77 105.73 134.76 108.55C134.76 111.52 134.75 114.48 134.73 117.44C134.72 119.77 134.37 122.48 134.82 124.81C134.07 124.81 133.32 124.81 132.57 124.83C132.17 124.83 132.04 125.26 132.16 125.57C132.16 125.59 132.13 125.61 132.13 125.64C132.06 126.36 131.91 127.04 131.94 127.78L131.93 127.77ZM173.35 92.3298C173.35 92.5398 173.34 92.7598 173.33 92.9698C173 96.3698 173.09 99.8898 173.18 103.37C173.16 110.46 173.25 117.56 173.25 124.64C171.51 124.61 169.74 124.7 168.02 124.74C164.1 124.71 160.19 124.72 156.27 124.74H155.24C148.68 124.73 142.12 124.74 135.56 124.8C136.04 122.35 135.66 119.46 135.65 117.01C135.63 114.19 135.63 111.36 135.62 108.54C135.62 105.58 135.62 102.61 135.59 99.6498C135.57 97.2998 135.83 94.6098 135.38 92.2598C135.4 92.2598 135.42 92.2798 135.44 92.2798C138.71 92.6598 142.12 92.3798 145.41 92.3798C148.48 92.3798 151.54 92.3798 154.61 92.3698C160.83 92.3698 167.13 92.6698 173.34 92.3198L173.35 92.3298ZM132.85 127.11C132.8 127.11 132.75 127.13 132.71 127.15C132.68 126.72 132.62 126.3 132.56 125.87C140.12 125.96 147.68 125.97 155.24 125.96H156.27C160.19 125.99 164.1 126 168.02 125.96C170.96 126.04 174.03 126.25 176.88 125.73C176.86 125.88 176.86 126.04 176.86 126.2C176.85 126.53 176.85 126.86 176.85 127.19C173.41 126.71 169.74 127.06 166.28 127.05C162.65 127.05 159.02 127.04 155.39 127.05C147.9 127.05 140.31 126.65 132.84 127.13L132.85 127.11Z" fill="black" stroke="black"/>
<path d="M171.21 108.254C171.21 103.544 171 98.7141 171.37 94.0141C171.39 93.7141 171.78 93.7141 171.8 94.0141C172.17 98.7141 171.95 103.534 171.96 108.254C171.96 112.954 172.3 117.814 171.9 122.494C171.86 122.944 171.3 122.944 171.27 122.494C170.87 117.814 171.21 112.954 171.21 108.254Z" fill="black" stroke="black"/>
<path d="M136.89 108.41C136.89 103.89 136.45 99.01 137.07 94.54C137.1 94.32 137.44 94.32 137.48 94.54C138.1 99.02 137.65 103.88 137.66 108.41C137.66 112.97 138.08 117.78 137.52 122.29C137.49 122.55 137.07 122.55 137.04 122.29C136.48 117.77 136.89 112.96 136.9 108.41H136.89Z" fill="black" stroke="black"/>
<path d="M155.44 108.481C155.44 103.811 155.09 98.9312 155.56 94.2812C155.36 94.1212 155.41 93.7312 155.73 93.7012C158.31 93.4112 161 93.6412 163.59 93.6412C166.19 93.6412 168.87 93.4512 171.45 93.7612C171.75 93.8012 171.76 94.2412 171.45 94.2812C168.87 94.5912 166.18 94.4012 163.59 94.4012C161.14 94.4012 158.61 94.5912 156.16 94.3712C156.62 98.9812 156.27 103.831 156.27 108.461C156.27 113.161 156.69 118.101 156.17 122.771C156.12 123.211 155.59 123.211 155.54 122.771C155.02 118.101 155.44 113.161 155.44 108.461V108.481Z" fill="black" stroke="black"/>
<path d="M136.88 93.5569C136.91 93.4169 137.11 93.4169 137.13 93.5569C137.13 93.5569 137.13 93.5669 137.13 93.5769C137.17 93.5569 137.21 93.5369 137.26 93.5369C140.14 93.1769 143.13 93.3869 146.02 93.3869C148.47 93.3869 151.6 92.7969 153.94 93.6469C154.08 93.5969 154.26 93.6669 154.28 93.8869C154.65 98.8169 154.4 103.877 154.42 108.827C154.43 111.177 154.44 113.527 154.45 115.877C154.45 118.217 154.69 120.707 154.33 123.017C154.28 123.337 153.78 123.347 153.73 123.017C153.38 120.837 153.59 118.497 153.6 116.287C153.61 113.797 153.62 111.307 153.63 108.817C153.65 103.977 153.41 99.0069 153.75 94.1769C151.44 94.9169 148.39 94.3769 146.02 94.3769C143.12 94.3769 140.13 94.5869 137.26 94.2269C137.24 94.2269 137.23 94.2169 137.21 94.2069C137.22 94.4569 137.21 94.6969 137.18 94.9269C137.15 95.1169 136.86 95.1169 136.83 94.9269C136.75 94.4869 136.79 93.9869 136.88 93.5569Z" fill="black" stroke="black"/>
<path d="M156.42 122.321C158.83 121.921 161.35 122.131 163.78 122.121C166.17 122.121 168.8 121.751 171.13 122.351C171.39 122.421 171.39 122.861 171.13 122.931C168.8 123.531 166.16 123.171 163.78 123.161C161.35 123.161 158.83 123.361 156.42 122.961C156.13 122.911 156.13 122.361 156.42 122.321Z" fill="black" stroke="black"/>
<path d="M137.14 122.294C140.02 121.894 143.07 122.194 145.97 122.194C148.63 122.194 151.46 121.934 154.09 122.414C154.28 122.454 154.28 122.814 154.09 122.844C151.46 123.324 148.63 123.064 145.97 123.064C143.06 123.064 140.02 123.364 137.14 122.964C136.74 122.914 136.74 122.334 137.14 122.284V122.294Z" fill="black" stroke="black"/>
<path d="M188.85 78.0803C189.2 77.9103 189.53 77.9703 189.91 77.9703C190.24 77.9703 190.57 77.9503 190.9 77.9103C190.87 77.6603 190.84 77.4503 190.92 77.2103C190.92 77.1903 190.94 77.1803 190.95 77.1703C190.98 76.8703 191.4 76.7603 191.46 77.1003C191.52 77.4403 191.59 77.7903 191.65 78.1303C191.68 78.3103 191.6 78.5103 191.43 78.5503C190.98 78.6703 190.55 78.7703 190.08 78.8003C189.66 78.8303 189.2 78.9003 188.84 78.6503C188.67 78.5303 188.63 78.2003 188.84 78.0903L188.85 78.0803Z" fill="black" stroke="black"/>
<path d="M178.86 82.5753C180.39 82.4253 181.94 82.4253 183.48 82.3853C184.81 82.3553 186.19 82.2253 187.49 82.5653C187.68 82.6153 187.68 82.9353 187.49 82.9853C186.19 83.3253 184.8 83.1953 183.48 83.1653C181.94 83.1353 180.39 83.1353 178.86 82.9753C178.62 82.9553 178.62 82.5953 178.86 82.5653V82.5753Z" fill="black" stroke="black"/>
<path d="M179.01 82.8869C179.03 82.7669 179.21 82.7669 179.23 82.8869C179.43 84.1269 179.65 85.5969 179.4 86.8869C179.43 86.8169 179.48 86.7669 179.56 86.7569C180.85 86.5269 182.17 86.6269 183.47 86.6269C184.74 86.6269 186.14 86.4269 187.35 86.8969C187.5 86.9569 187.5 87.1669 187.35 87.2269C186.14 87.6969 184.74 87.4869 183.47 87.4969C182.17 87.4969 180.85 87.5969 179.56 87.3669C179.43 87.3469 179.37 87.2269 179.36 87.0969C179.36 87.1069 179.36 87.1269 179.36 87.1369C179.3 87.3969 178.94 87.3969 178.88 87.1369C178.56 85.8069 178.8 84.2269 179.01 82.8969V82.8869Z" fill="black" stroke="black"/>
<path d="M179.01 93.1369C179.03 93.0169 179.21 93.0169 179.23 93.1369C179.43 94.3769 179.65 95.8469 179.4 97.1369C179.43 97.0669 179.48 97.0169 179.56 97.0069C180.85 96.7769 182.17 96.8769 183.47 96.8769C184.74 96.8769 186.14 96.6769 187.35 97.1469C187.5 97.2069 187.5 97.4169 187.35 97.4769C186.14 97.9469 184.74 97.7369 183.47 97.7469C182.17 97.7469 180.85 97.8469 179.56 97.6169C179.43 97.5969 179.37 97.4769 179.36 97.3469C179.36 97.3569 179.36 97.3769 179.36 97.3869C179.3 97.6469 178.94 97.6469 178.88 97.3869C178.56 96.0569 178.8 94.4769 179.01 93.1469V93.1369Z" fill="black" stroke="black"/>
<path d="M179.01 108.52C179.03 108.4 179.21 108.4 179.23 108.52C179.43 109.76 179.65 111.23 179.4 112.52C179.43 112.45 179.48 112.4 179.56 112.39C180.85 112.16 182.17 112.26 183.47 112.26C184.74 112.26 186.14 112.06 187.35 112.53C187.5 112.59 187.5 112.8 187.35 112.86C186.14 113.33 184.74 113.12 183.47 113.13C182.17 113.13 180.85 113.23 179.56 113C179.43 112.98 179.37 112.86 179.36 112.73C179.36 112.74 179.36 112.76 179.36 112.77C179.3 113.03 178.94 113.03 178.88 112.77C178.56 111.44 178.8 109.86 179.01 108.53V108.52Z" fill="black" stroke="black"/>
<path d="M179.01 122.176C179.03 122.056 179.21 122.056 179.23 122.176C179.43 123.416 179.65 124.886 179.4 126.176C179.43 126.106 179.48 126.056 179.56 126.046C180.85 125.816 182.17 125.916 183.47 125.916C184.74 125.916 186.14 125.716 187.35 126.186C187.5 126.246 187.5 126.456 187.35 126.516C186.14 126.986 184.74 126.776 183.47 126.786C182.17 126.786 180.85 126.886 179.56 126.656C179.43 126.636 179.37 126.516 179.36 126.386C179.36 126.396 179.36 126.416 179.36 126.426C179.3 126.686 178.94 126.686 178.88 126.426C178.56 125.096 178.8 123.516 179.01 122.186V122.176Z" fill="black" stroke="black"/>
<path d="M179.01 135.848C179.03 135.728 179.21 135.728 179.23 135.848C179.43 137.088 179.65 138.558 179.4 139.848C179.43 139.778 179.48 139.728 179.56 139.718C180.85 139.488 182.17 139.588 183.47 139.588C184.74 139.588 186.14 139.388 187.35 139.858C187.5 139.918 187.5 140.128 187.35 140.188C186.14 140.658 184.74 140.448 183.47 140.458C182.17 140.458 180.85 140.558 179.56 140.328C179.43 140.308 179.37 140.188 179.36 140.058C179.36 140.068 179.36 140.088 179.36 140.098C179.3 140.358 178.94 140.358 178.88 140.098C178.56 138.768 178.8 137.188 179.01 135.858V135.848Z" fill="black" stroke="black"/>
<path d="M184.2 100.824C184.2 100.704 184.3 100.704 184.31 100.824C184.4 102.064 184.51 103.534 184.39 104.824C184.41 104.754 184.43 104.704 184.47 104.694C185.09 104.464 185.72 104.564 186.34 104.564C186.95 104.564 187.62 104.364 188.19 104.834C188.26 104.894 188.26 105.104 188.19 105.164C187.61 105.634 186.94 105.424 186.34 105.434C185.72 105.434 185.08 105.534 184.47 105.304C184.41 105.284 184.38 105.164 184.38 105.034C184.38 105.044 184.38 105.064 184.38 105.074C184.35 105.334 184.18 105.334 184.15 105.074C184 103.744 184.11 102.164 184.21 100.834L184.2 100.824Z" fill="black" stroke="black"/>
<path d="M184.2 88.8712C184.2 88.7512 184.3 88.7512 184.31 88.8712C184.4 90.1113 184.51 91.5813 184.39 92.8713C184.41 92.8013 184.43 92.7512 184.47 92.7412C185.09 92.5112 185.72 92.6112 186.34 92.6112C186.95 92.6112 187.62 92.4112 188.19 92.8812C188.26 92.9412 188.26 93.1512 188.19 93.2112C187.61 93.6812 186.94 93.4713 186.34 93.4813C185.72 93.4813 185.08 93.5812 184.47 93.3512C184.41 93.3312 184.38 93.2112 184.38 93.0812C184.38 93.0912 184.38 93.1113 184.38 93.1213C184.35 93.3813 184.18 93.3813 184.15 93.1213C184 91.7913 184.11 90.2112 184.21 88.8812L184.2 88.8712Z" fill="black" stroke="black"/>
<path d="M184.2 116.199C184.2 116.079 184.3 116.079 184.31 116.199C184.4 117.439 184.51 118.909 184.39 120.199C184.41 120.129 184.43 120.079 184.47 120.069C185.09 119.839 185.72 119.939 186.34 119.939C186.95 119.939 187.62 119.739 188.19 120.209C188.26 120.269 188.26 120.479 188.19 120.539C187.61 121.009 186.94 120.799 186.34 120.809C185.72 120.809 185.08 120.909 184.47 120.679C184.41 120.659 184.38 120.539 184.38 120.409C184.38 120.419 184.38 120.439 184.38 120.449C184.35 120.709 184.18 120.709 184.15 120.449C184 119.119 184.11 117.539 184.21 116.209L184.2 116.199Z" fill="black" stroke="black"/>
<path d="M184.2 129.871C184.2 129.751 184.3 129.751 184.31 129.871C184.4 131.111 184.51 132.581 184.39 133.871C184.41 133.801 184.43 133.751 184.47 133.741C185.09 133.511 185.72 133.611 186.34 133.611C186.95 133.611 187.62 133.411 188.19 133.881C188.26 133.941 188.26 134.151 188.19 134.211C187.61 134.681 186.94 134.471 186.34 134.481C185.72 134.481 185.08 134.581 184.47 134.351C184.41 134.331 184.38 134.211 184.38 134.081C184.38 134.091 184.38 134.111 184.38 134.121C184.35 134.381 184.18 134.381 184.15 134.121C184 132.791 184.11 131.211 184.21 129.881L184.2 129.871Z" fill="black" stroke="black"/>
<path d="M78.5102 107.219C78.4602 107.219 78.4602 107.309 78.5102 107.309C78.5602 107.309 78.5602 107.219 78.5102 107.219Z" fill="black" stroke="black"/>
<path d="M87.3501 143.22C78.1301 142.54 68.7101 143.04 59.4701 143.11C50.1901 143.18 40.8701 142.97 31.5901 143.25C31.3801 143.25 31.3801 143.6 31.5901 143.6C40.8701 143.88 50.1901 143.68 59.4701 143.74C68.7101 143.81 78.1301 144.3 87.3501 143.63C87.5901 143.61 87.5901 143.23 87.3501 143.22Z" fill="black" stroke="black"/>
<path d="M187.56 143.069C183.34 142.789 178.89 142.929 174.63 142.929C169.88 142.929 165.13 142.929 160.37 142.929C150.92 142.929 141.28 142.729 131.86 143.049C131.33 143.069 131.33 143.359 131.86 143.379C141.28 143.699 150.92 143.499 160.37 143.499C164.88 143.499 169.4 143.499 173.91 143.499C178.4 143.499 183.11 143.659 187.55 143.359C187.9 143.339 187.9 143.099 187.55 143.069H187.56Z" fill="black" stroke="black"/>
<path d="M131.03 141.164C127.47 140.694 123.83 140.894 120.24 140.894C116.64 140.894 113.05 140.894 109.45 140.884C102.26 140.884 95.0604 140.764 87.8704 141.074C87.4404 141.094 87.4404 141.784 87.8704 141.804C95.0604 142.124 102.26 142.004 109.45 141.994C113.05 141.994 116.64 141.994 120.24 141.984C123.82 141.984 127.47 142.184 131.03 141.714C131.35 141.674 131.35 141.214 131.03 141.174V141.164Z" fill="black" stroke="black"/>
<path d="M122.561 128.504C122.561 124.004 122.571 119.514 122.571 115.014C122.571 106.144 122.821 97.1939 122.411 88.3439C122.671 88.2539 122.671 87.8039 122.391 87.7239C120.431 87.2039 118.231 87.4839 116.221 87.4839C113.811 87.4839 111.401 87.4839 108.991 87.4839C106.711 87.4839 104.421 87.4839 102.141 87.4839C100.181 87.4839 98.0005 87.2139 96.0505 87.6339C95.7705 87.4539 95.3305 87.5839 95.3305 88.0439C95.3305 89.7039 95.3305 91.3639 95.3405 93.0139C95.1105 100.114 95.3405 107.294 95.3405 114.354C95.3405 114.954 95.3405 115.554 95.3405 116.154C95.3205 124.324 95.3005 132.494 95.3205 140.664C95.3205 141.334 96.2705 141.334 96.2705 140.664C96.2905 132.494 96.2705 124.324 96.2505 116.154C96.2505 115.554 96.2505 114.944 96.2505 114.344C96.2505 107.274 96.4805 100.094 96.2505 93.0039C96.2505 91.5039 96.2505 89.9939 96.2605 88.4939C98.0405 88.8239 99.9805 88.5939 101.761 88.5939C104.171 88.5939 106.581 88.5939 108.991 88.5939C111.271 88.5939 113.561 88.5939 115.841 88.5939C117.731 88.5939 119.801 88.8339 121.691 88.5039C121.281 97.3039 121.541 106.204 121.531 115.014C121.531 119.514 121.531 124.004 121.541 128.504C121.541 132.664 121.131 137.134 121.691 141.254C121.741 141.644 122.351 141.644 122.411 141.254C122.971 137.134 122.551 132.664 122.561 128.504Z" fill="black" stroke="black"/>
<path d="M85.5898 148.136C84.7598 147.986 83.9898 148.216 83.3098 147.496C82.5898 146.726 82.6098 145.426 83.2298 144.606C83.2698 144.546 83.2998 144.486 83.3098 144.426C83.4898 144.216 83.6598 143.986 83.8098 143.706C83.9698 143.386 83.5698 143.016 83.3398 143.306C82.0898 144.896 80.0798 145.116 78.8298 143.356C78.7798 143.286 78.7098 143.256 78.6398 143.256C78.4498 143.166 78.1798 143.256 78.1898 143.556C78.2098 144.306 78.1498 145.126 77.9198 145.816C77.6498 146.146 77.4198 146.526 77.2498 146.926C77.1398 147.026 77.0198 147.106 76.8898 147.176C76.7598 147.116 76.5998 147.156 76.5198 147.326C76.3098 147.386 76.0798 147.406 75.8198 147.396C74.8998 147.346 73.3998 146.786 72.9498 145.786C72.9698 145.426 72.9498 145.066 72.8898 144.706C72.9198 144.596 72.9698 144.496 73.0198 144.376C73.1798 144.056 72.8798 143.786 72.6398 143.856C72.5298 143.576 72.3998 143.296 72.2198 143.026C71.9698 142.646 71.3798 143.006 71.6398 143.396C71.9098 143.816 72.0798 144.266 72.1698 144.726C72.0698 145.136 72.0898 145.526 72.1998 145.886C72.1698 146.086 72.1398 146.276 72.0798 146.466C72.0598 146.486 72.0598 146.516 72.0598 146.536C71.8598 147.146 71.5098 147.686 71.0198 148.056C71.0198 148.056 70.9998 148.056 70.9898 148.056C70.9398 148.086 70.8998 148.126 70.8498 148.156C70.3098 148.506 69.6298 148.666 68.8498 148.526C66.5598 148.096 65.6198 145.716 65.8498 143.426C65.8498 143.376 65.8098 143.346 65.7698 143.336C65.6798 143.336 65.5998 143.316 65.5098 143.316C65.4098 143.316 65.2798 143.386 65.2398 143.486C64.9798 144.086 64.9198 144.706 64.9898 145.306C64.2398 144.736 63.3698 144.406 62.6298 144.496C62.6998 144.176 62.7498 143.856 62.7798 143.526C62.8198 143.076 62.1998 143.096 62.1498 143.526C62.0998 143.956 61.9898 144.386 61.8298 144.806C61.5598 145.006 61.3398 145.316 61.1798 145.726C60.9798 145.936 60.8198 146.176 60.6998 146.446C60.6398 146.506 60.5698 146.556 60.5098 146.606C60.0398 146.946 59.5398 147.076 59.0298 147.076C58.4298 146.776 57.7698 146.596 57.1298 146.576C57.0698 146.546 56.9998 146.516 56.9398 146.486C56.9498 146.446 56.9698 146.406 56.9698 146.356C57.2898 144.126 55.4898 143.286 53.7898 143.006C52.6198 142.816 50.7898 142.536 49.5598 143.196C49.4398 143.156 49.2998 143.196 49.2198 143.346C49.1998 143.386 49.1698 143.426 49.1498 143.466C48.8998 143.676 48.6898 143.946 48.5398 144.286C46.9398 145.936 44.4498 145.456 43.1598 143.306C42.9998 143.036 42.6598 143.266 42.7798 143.556C43.3098 144.846 44.2498 145.596 45.2998 145.866C44.9698 146.076 44.6698 146.356 44.4098 146.666C44.1798 145.406 43.3998 144.326 42.1898 143.856C41.3898 143.546 39.2198 143.226 38.0598 143.856C37.7798 143.436 37.3198 143.246 36.8598 143.666C36.7298 143.786 36.8398 144.036 36.9998 144.026C37.2898 144.026 37.4898 144.096 37.6198 144.206C37.4498 144.406 37.3298 144.656 37.3098 144.976C37.3098 145.146 37.5098 145.226 37.6098 145.116C37.6298 145.096 37.6598 145.076 37.6798 145.056C37.6098 145.276 37.5698 145.506 37.5498 145.726C37.3498 146.156 37.1098 146.546 36.9598 146.756C36.8398 146.706 36.7198 146.656 36.5998 146.616C36.3098 146.516 36.0898 147.036 36.3898 147.166C36.4498 147.196 36.4998 147.216 36.5598 147.246C36.5498 147.256 36.5398 147.266 36.5298 147.276C35.9598 147.536 35.3898 147.876 34.9098 148.306C33.6698 148.656 32.4198 148.106 31.6398 146.916C31.5898 146.836 31.4498 146.886 31.4898 146.986C31.5798 147.256 31.7098 147.486 31.8398 147.696C31.7698 147.626 31.6998 147.546 31.6298 147.476C31.3198 147.156 30.8698 147.656 31.1598 147.986C31.9898 148.916 32.9298 149.836 33.2998 151.116C33.7298 152.616 33.3798 155.396 31.6298 155.696C31.4998 155.716 31.4898 155.926 31.5998 155.986C32.0398 156.246 32.4098 156.236 32.7398 156.076C32.8398 156.206 33.0398 156.236 33.1298 156.066C33.7798 154.826 35.5998 154.676 36.7598 154.616C38.1198 154.536 39.3298 154.806 40.2498 155.956C40.4798 156.236 40.8098 155.976 40.8098 155.676C42.1698 156.446 43.7498 156.946 45.0998 155.886C45.1398 155.856 45.1698 155.816 45.2098 155.776C45.3098 155.916 45.4298 156.056 45.5998 156.176C45.7498 156.276 45.9798 156.106 45.9098 155.916C45.8198 155.646 45.7598 155.386 45.7298 155.136C45.9698 154.706 46.0598 154.236 46.0398 153.746C46.0698 153.696 46.0898 153.656 46.1198 153.606C46.7198 152.716 47.5798 152.256 48.5798 152.586C48.8898 152.686 49.1498 152.846 49.3898 153.046C49.6298 153.526 49.9498 153.926 50.3398 154.256C50.6698 154.896 50.8898 155.616 51.0498 156.306C51.1498 156.756 51.7998 156.566 51.6898 156.116C51.5898 155.716 51.4698 155.286 51.3098 154.876C52.0798 155.226 52.9498 155.356 53.7698 155.246C54.0998 155.196 54.4298 155.106 54.7298 154.966C54.3698 155.336 54.0698 155.766 53.8598 156.246C53.7698 156.456 54.0198 156.616 54.1398 156.426C54.8698 155.336 56.0498 154.376 57.3398 154.396C58.6198 154.416 59.1098 155.316 59.7298 156.346C59.8298 156.516 60.0198 156.506 60.1198 156.376C60.3298 156.466 60.6098 156.336 60.5998 156.046C60.5398 154.706 60.7898 153.376 61.3098 152.166C61.3098 152.146 61.3098 152.126 61.3098 152.106C61.9498 151.536 62.8198 151.316 63.7798 151.666C65.5798 152.326 65.7098 154.366 65.6498 156.106C65.6398 156.456 66.1098 156.516 66.1998 156.186C66.3698 155.526 66.3898 154.836 66.2898 154.166C67.2698 155.086 68.6698 155.536 69.7598 155.096C69.6698 155.286 69.5898 155.496 69.5198 155.716C69.3998 156.146 70.0098 156.326 70.1298 155.896C70.9398 153.176 75.3198 152.946 75.7998 156.026C75.8598 156.386 76.3298 156.266 76.3498 155.946C76.3498 155.856 76.3498 155.776 76.3498 155.686C77.6198 157.056 80.2698 157.256 81.0198 155.426C81.2498 155.846 81.5398 156.246 81.8998 156.606C82.1898 156.896 82.5798 156.456 82.3298 156.136C80.4098 153.726 80.9198 150.116 83.7798 148.926C83.8298 148.906 83.8598 148.876 83.8998 148.846C84.5298 149.076 85.2098 149.076 85.6598 148.546C85.7698 148.416 85.7398 148.156 85.5598 148.126L85.5898 148.136ZM78.8498 144.336C79.0098 144.506 79.1898 144.666 79.3698 144.796C79.1698 144.856 78.9798 144.936 78.7998 145.056C78.8298 144.826 78.8498 144.586 78.8598 144.336H78.8498ZM77.5798 147.666C77.5798 147.666 77.5898 147.666 77.5998 147.646C77.9298 147.356 78.1998 146.986 78.3998 146.546C78.7398 146.066 79.1098 145.626 79.7098 145.456C81.0898 145.056 82.1698 146.506 81.9598 147.916C81.4998 151.046 76.6798 151.066 76.9698 148.046C77.1898 147.956 77.3998 147.826 77.5798 147.676V147.666ZM81.0098 150.616C80.7498 151.146 80.5798 151.726 80.4998 152.316C80.1298 151.846 79.6598 151.456 79.1498 151.166C79.8098 151.166 80.4598 150.976 81.0198 150.616H81.0098ZM77.6098 150.716C77.3898 150.726 77.1798 150.766 76.9798 150.846C76.9698 150.526 76.8998 150.216 76.7998 149.916C77.0098 150.236 77.2798 150.506 77.6098 150.716ZM76.3598 148.206C76.3398 148.556 76.3598 148.896 76.4598 149.206C76.2298 148.836 75.9398 148.496 75.5998 148.226C75.8698 148.256 76.1298 148.246 76.3598 148.206ZM72.7698 146.836C72.9898 147.076 73.2498 147.286 73.5298 147.476C73.1898 147.456 72.8398 147.476 72.4998 147.526C72.6098 147.306 72.6998 147.076 72.7698 146.836ZM66.8398 148.436C67.1698 148.696 67.5198 148.916 67.8798 149.086C67.4598 149.156 67.0398 149.286 66.6798 149.506C66.8098 149.156 66.8498 148.796 66.8298 148.436H66.8398ZM48.4398 145.266C48.5498 145.586 48.6798 145.886 48.8398 146.176C48.5598 145.926 48.2398 145.726 47.8898 145.596C48.0798 145.506 48.2598 145.396 48.4398 145.276V145.266ZM38.6298 144.586C38.6698 144.526 38.6798 144.476 38.6798 144.416C40.7698 143.566 44.0698 144.606 43.9498 147.286C43.9498 147.316 43.9498 147.336 43.9498 147.356C43.6898 147.826 43.4898 148.356 43.3998 148.896C43.3998 148.936 43.3998 148.976 43.3998 149.016C42.5498 149.956 40.9198 149.266 39.8098 148.456C38.6398 147.596 37.6298 146.066 38.6298 144.576V144.586ZM41.9998 150.146C41.7398 150.256 41.4798 150.386 41.2098 150.606C41.0998 150.696 40.9898 150.796 40.8698 150.906C40.8698 150.896 40.8698 150.876 40.8698 150.866C40.7998 150.456 40.6698 150.086 40.5098 149.746C41.0098 149.976 41.5198 150.116 41.9998 150.156V150.146ZM32.3998 148.296C32.9698 148.746 33.6998 148.916 34.4398 148.856C34.0798 149.346 33.8598 149.936 33.8698 150.636C33.5398 149.776 33.0098 149.006 32.3998 148.296ZM36.1498 153.996C35.4298 154.106 34.5598 154.206 33.8498 154.566C34.0098 154.136 34.1198 153.686 34.1698 153.316C34.2398 152.876 34.2298 152.456 34.1898 152.046C34.6598 153.006 35.5698 153.626 36.5598 153.946C36.4198 153.956 36.2798 153.976 36.1398 153.996H36.1498ZM34.4898 150.766C34.3998 149.886 34.7398 149.226 35.2598 148.686C35.8098 148.506 36.3298 148.206 36.7498 147.796C36.8498 147.696 36.9498 147.576 37.0498 147.466C37.6998 147.776 38.3298 148.116 38.8898 148.586C38.9698 148.666 39.0598 148.736 39.1398 148.816C39.1898 148.866 39.2498 148.906 39.2998 148.956C39.9498 149.666 40.2998 150.656 40.2698 151.526C39.8498 152.026 39.4898 152.606 39.4098 153.166C39.0898 153.366 38.6898 153.476 38.1798 153.476C36.6298 153.476 34.6798 152.696 34.4898 150.756V150.766ZM44.9898 155.086C44.6598 155.476 44.1698 155.746 43.5798 155.816C42.4398 155.936 41.3998 155.306 40.4498 154.686C40.2998 154.586 40.1598 154.656 40.0798 154.766C39.7098 154.476 39.3098 154.266 38.8898 154.136C39.1198 154.086 39.3198 154.006 39.5198 153.916C39.6098 154.106 39.7398 154.286 39.9298 154.456C40.1098 154.606 40.3698 154.316 40.2398 154.116C40.1298 153.936 40.0798 153.746 40.0798 153.546C40.5298 153.146 40.8198 152.576 40.8998 151.866C41.2498 151.466 41.6298 151.136 41.9098 150.956C43.3298 150.016 44.7098 151.446 45.2598 152.836C45.3598 153.086 45.4098 153.326 45.4298 153.566C45.1298 154.066 44.9498 154.606 44.9898 155.106V155.086ZM45.9198 152.886C45.7898 152.476 45.6098 152.066 45.3698 151.696C45.7798 151.956 46.2298 152.126 46.7098 152.176C46.4398 152.356 46.1698 152.606 45.9198 152.886ZM48.4398 151.816C48.6498 151.696 48.8398 151.546 49.0198 151.386C49.0198 151.596 49.0498 151.806 49.0898 152.006C48.8898 151.916 48.6698 151.856 48.4398 151.816ZM46.8598 151.406C45.6698 151.326 44.6798 150.396 43.9498 149.426C44.1398 149.186 44.2898 148.896 44.3898 148.516C44.4198 148.396 44.4298 148.286 44.4498 148.166C44.7898 147.526 45.1298 146.896 45.7398 146.516C47.2698 145.556 49.2998 146.586 49.4398 148.566C49.5498 150.126 48.2798 151.506 46.8698 151.416L46.8598 151.406ZM48.8398 144.926C49.0298 144.756 49.2098 144.566 49.3698 144.356C50.2498 143.596 51.2998 143.616 52.4398 143.696C53.8398 143.796 56.7398 143.956 56.2498 146.376C56.2298 146.496 56.1898 146.606 56.1598 146.716C55.7498 146.856 55.3898 147.096 55.1098 147.486C54.9898 147.656 54.8798 147.856 54.7898 148.056C53.9398 148.356 52.8998 148.266 52.1298 147.976C50.7398 147.456 49.4198 146.426 48.8398 144.916V144.926ZM54.5098 148.976C54.4498 149.306 54.4298 149.646 54.4498 149.976C54.1298 149.656 53.7898 149.346 53.4198 149.086C53.7898 149.096 54.1598 149.056 54.5098 148.976ZM50.4798 147.986C50.2898 148.036 50.2098 148.226 50.2398 148.416C50.1798 148.466 50.1098 148.506 50.0498 148.556C50.0098 148.116 49.8798 147.706 49.6998 147.326C49.9398 147.576 50.1998 147.786 50.4798 147.986ZM55.1998 153.796C54.8398 154.386 53.6598 154.506 53.0798 154.496C51.9798 154.476 51.0798 153.976 50.4698 153.226C50.4398 153.186 50.4198 153.156 50.3898 153.116C49.8198 152.356 49.5598 151.376 49.7198 150.396C49.8498 150.116 49.9398 149.816 49.9998 149.516C50.1198 149.246 50.2798 148.996 50.4798 148.746C50.5098 148.756 50.5398 148.766 50.5798 148.776C52.1198 148.826 53.2698 149.886 54.2998 151.026C54.4898 151.236 54.6898 151.456 54.8698 151.676C54.9498 151.826 55.0398 151.956 55.1398 152.086C55.3998 152.606 55.4998 153.326 55.1998 153.816V153.796ZM59.8098 153.696C59.6698 154.006 59.6098 154.356 59.6098 154.716C59.1098 154.176 58.3798 153.826 57.7498 153.756C57.0598 153.676 56.3798 153.846 55.7598 154.176C56.0698 153.786 56.2498 153.306 56.1898 152.766C56.2698 152.786 56.3498 152.806 56.4398 152.816C57.3598 153.466 58.4198 153.776 59.5998 153.356C59.7198 153.316 59.8198 153.256 59.9198 153.206C59.8698 153.366 59.8298 153.526 59.7998 153.696H59.8098ZM57.9398 152.896C57.4598 152.816 57.0298 152.626 56.6298 152.376C56.1798 151.906 55.6898 151.496 55.4298 150.856C55.1298 150.136 55.1598 149.276 55.4798 148.596C55.9198 148.346 56.2998 148.006 56.5698 147.556C56.6198 147.536 56.6698 147.506 56.7198 147.486C57.0198 147.406 57.3598 147.416 57.7098 147.486C57.9698 147.596 58.2298 147.666 58.4898 147.726C59.4598 148.156 60.3598 149.006 60.6098 149.896C61.1598 151.856 59.6098 153.156 57.9398 152.886V152.896ZM61.2898 151.336C61.3798 150.926 61.3998 150.486 61.3298 150.056C61.6498 150.376 62.0698 150.646 62.5298 150.836C62.0798 150.906 61.6598 151.076 61.2798 151.336H61.2898ZM65.0998 151.656C64.9098 151.476 64.6998 151.306 64.4698 151.176C64.6998 151.156 64.9198 151.106 65.1298 151.036C65.0998 151.246 65.0898 151.446 65.0898 151.646L65.0998 151.656ZM64.9498 150.196C63.8498 150.516 62.1698 150.046 61.5398 148.996C61.1198 148.306 61.1198 147.656 61.2998 147.026C61.8098 146.576 62.1698 145.996 62.4098 145.346C63.4298 144.766 64.5598 145.416 65.3098 146.406C65.4598 146.766 65.6498 147.096 65.8798 147.416C66.3498 148.586 66.2298 149.836 64.9598 150.206L64.9498 150.196ZM65.7298 151.196C65.7898 151.266 65.8898 151.296 65.9798 151.226C66.7498 150.676 67.2698 149.906 68.2798 149.836C69.6098 149.746 70.7298 151.066 70.6298 152.506C70.3798 156.126 65.4898 153.976 65.7298 151.186V151.196ZM71.1398 153.636C71.1798 153.526 71.2298 153.416 71.2598 153.296C71.3598 152.956 71.3898 152.616 71.3798 152.276C71.7198 152.616 72.0998 152.916 72.5098 153.156C72.0198 153.236 71.5498 153.396 71.1298 153.646L71.1398 153.636ZM75.7098 154.066C75.5298 153.876 75.3398 153.716 75.1198 153.586C75.3598 153.506 75.5898 153.386 75.8098 153.226C75.7198 153.526 75.6998 153.806 75.7098 154.076V154.066ZM75.7798 152.296C75.0198 153.046 73.5998 153.006 72.6798 152.426C71.7998 151.866 70.6298 150.576 70.8198 149.406C71.6098 148.786 72.2598 148.206 73.2998 148.166C74.6498 148.116 76.2298 149.096 76.3098 150.736C76.3198 150.956 76.3098 151.156 76.2698 151.346C76.0298 151.616 75.8498 151.956 75.7798 152.306V152.296ZM76.2498 153.356C76.3098 153.336 76.3698 153.306 76.4098 153.236C76.8798 152.266 77.1598 151.246 78.4298 151.726C79.3998 152.096 80.4598 153.076 80.5298 154.266C80.6798 157.106 75.8598 156.266 76.2598 153.356H76.2498ZM82.4398 148.806C82.4698 148.716 82.5098 148.636 82.5398 148.546C82.5998 148.346 82.6298 148.136 82.6398 147.936C82.7598 148.086 82.9198 148.226 83.0898 148.366C82.8598 148.496 82.6398 148.646 82.4398 148.806Z" fill="black" stroke="black"/>
<path d="M67.3797 6.1775C67.3797 4.5375 67.4997 2.8575 67.2497 1.2475C67.1997 0.9175 66.6897 0.9175 66.6397 1.2475C66.6097 1.4375 46.8297 1.3475 45.4697 2.1375C45.4297 2.1575 45.4297 2.2375 45.4697 2.2575C46.8397 3.0475 48.5297 2.7275 50.0397 2.7275H55.7097C59.1897 2.7275 63.0697 3.2475 66.5097 2.5775C66.4497 3.7775 66.5097 4.9875 66.5097 6.1875C66.5097 7.6275 66.4397 9.0975 66.6297 10.5175C61.2097 10.5075 55.6597 10.1775 50.2097 10.4375C48.7797 10.4475 47.3597 10.5175 45.9497 10.6975C46.3797 9.6975 46.1797 8.4375 46.1697 7.3375C46.1697 5.8775 46.2297 4.4075 46.0397 2.9575C45.9997 2.6475 45.5097 2.6475 45.4697 2.9575C45.2797 4.4075 45.3397 5.8775 45.3397 7.3375C45.3397 8.4975 45.1097 9.8475 45.6597 10.8775C45.5797 11.0575 45.6397 11.2975 45.8897 11.3275C47.2097 11.5075 48.5497 11.5775 49.8897 11.5975C49.7097 13.2675 49.7297 14.9975 49.7597 16.7075C49.7597 17.8775 49.7697 19.0475 49.7897 20.2175C49.7897 22.4075 49.7697 24.5975 49.8397 26.7875C49.8597 27.2575 50.5097 27.2575 50.4997 26.7875C50.5697 24.5975 50.5597 22.4075 50.5497 20.2175C50.5697 19.0475 50.5897 17.8775 50.5797 16.7075C50.6097 14.9975 50.6397 13.2775 50.4497 11.6075C54.7897 11.7975 59.1997 11.6275 63.5497 11.5475C63.5297 12.0575 63.5297 12.5675 63.5197 13.0775C63.3897 14.7375 63.4697 16.4275 63.4797 18.0775C63.4797 18.6675 63.4797 19.2575 63.4797 19.8475C63.4797 22.0075 63.4797 24.1575 63.4797 26.3175C63.4797 26.9375 64.3597 26.9375 64.3597 26.3175C64.3797 24.1575 64.3697 22.0075 64.3597 19.8475C64.3597 19.2575 64.3597 18.6675 64.3597 18.0775C64.3697 16.4275 64.4497 14.7275 64.3197 13.0775C64.3097 12.5675 64.2997 12.0475 64.2897 11.5375C65.2097 11.5275 66.1297 11.5175 67.0497 11.5175C67.5797 11.5175 67.3297 7.6175 67.3297 6.1775H67.3797Z" fill="black" stroke="black"/>
<path d="M187.52 146.815C187.57 146.735 187.56 146.625 187.52 146.545C187.39 146.305 187.25 146.275 187 146.215C186.65 146.125 186.36 145.975 186.11 145.695C185.59 145.095 185.72 144.385 185.69 143.655C185.69 143.505 185.56 143.445 185.45 143.485C185.28 143.265 184.87 143.335 184.86 143.705C184.85 144.585 184.7 145.475 184.35 146.135C183.96 146.245 183.62 146.525 183.42 147.025C183.01 147.185 182.51 147.185 181.88 146.925C181.2 146.655 180.52 146.265 180.31 145.445C180.14 144.765 180.25 144.015 180.29 143.335C180.31 142.955 179.79 142.895 179.69 143.245V143.265C179.54 143.255 179.38 143.355 179.4 143.575C179.49 144.905 179.01 146.235 177.99 146.935C177.59 147.025 177.22 147.185 176.89 147.395C175.79 147.615 174.68 147.205 174.03 146.175C174.4 145.245 174.44 144.135 174.44 143.155C174.44 142.745 173.89 142.755 173.87 143.155C173.76 145.105 173.28 147.445 171.04 147.395C169.08 147.355 168.34 145.075 168.9 143.305C169 142.975 168.56 142.795 168.4 143.075C168.11 143.575 167.96 144.125 167.94 144.665C167.89 144.595 167.85 144.535 167.8 144.475C166.56 143.135 163.47 143.075 161.97 143.705C161.76 143.795 161.71 144.005 161.77 144.165C161.72 144.235 161.67 144.315 161.62 144.385C161.57 144.295 161.53 144.205 161.47 144.125C160.3 142.445 157.66 142.365 156.12 143.425C156.05 143.475 156.03 143.545 156.03 143.615C155.59 143.945 155.29 144.415 155.13 144.965C155.05 144.815 154.96 144.665 154.86 144.515C153.68 142.875 150.8 142.535 149.03 143.305C148.94 143.175 148.79 143.105 148.64 143.235C147.79 143.945 147.46 145.435 147.52 146.845C146.9 146.165 146.11 145.835 145.26 145.725C145.93 145.225 146.42 144.485 146.57 143.475C146.62 143.155 146.28 143.005 146.11 143.265C145.42 144.245 144.97 145.145 143.86 145.635C142.63 146.175 141.35 145.915 140.26 145.145C140.23 145.125 140.2 145.115 140.18 145.105C140 144.935 139.81 144.795 139.6 144.675C139 144.355 137.63 144.085 136.82 144.455C136.82 144.135 136.78 143.815 136.71 143.485C136.63 143.135 136.12 143.205 136.13 143.575C136.15 144.885 135.99 146.105 135.13 147.105C134.19 148.195 132.79 148.595 131.46 148.365C131.18 148.315 131.06 148.745 131.34 148.835C132.43 149.185 133.58 148.995 134.54 148.445C134.35 149.735 134.61 151.095 135.49 151.895C135.4 151.915 135.32 151.955 135.24 152.015C135.16 152.075 135.14 152.165 135.18 152.265C135.32 152.625 135.62 152.635 135.92 152.825C136.34 153.085 136.71 153.465 136.99 153.905C137.24 154.315 137.43 154.775 137.5 155.265C137.57 155.705 137.5 156.145 137.64 156.565C137.69 156.725 137.89 156.825 138.01 156.675C138.1 156.555 138.17 156.425 138.22 156.275C138.28 156.265 138.33 156.225 138.35 156.145C138.8 154.215 139.7 151.775 141.74 151.305C141.86 151.275 141.98 151.265 142.1 151.255C142.77 151.855 143.62 152.155 144.49 152.185C145.43 153.185 145.92 154.805 145.88 156.225C145.88 156.475 146.2 156.565 146.31 156.355C146.45 156.085 146.53 155.805 146.57 155.525C146.89 156.015 147.28 156.425 147.67 156.685C149.26 157.755 151.61 157.475 152.77 155.785C153.18 155.195 153.36 154.605 153.37 154.055C153.66 154.635 154.04 155.155 154.51 155.575C155.95 156.835 158.25 156.925 159 154.775C159.21 154.175 159.31 153.525 159.29 152.875C159.81 153.365 160.48 153.765 161.18 154.005C160.17 154.135 159.23 154.555 158.64 155.595C158.47 155.895 158.87 156.245 159.09 155.975C160.02 154.845 161.21 154.685 162.52 154.785C163.91 154.885 164.76 155.195 165.77 156.295C165.92 156.455 166.26 156.355 166.23 156.085C166.09 154.795 164.93 154.315 163.84 154.115C164.25 153.965 164.61 153.725 164.88 153.365C164.98 153.235 165.04 153.105 165.11 152.975C165.48 153.985 166.21 154.805 167.26 155.115C167.61 155.215 167.96 155.245 168.29 155.215C167.97 155.635 168.52 156.235 168.84 155.815C169.73 154.645 171.23 153.625 172.57 153.615C173.07 153.965 173.62 154.205 174.16 154.235C174.47 154.535 174.75 154.935 174.96 155.485C175.07 155.775 175.4 155.735 175.57 155.545C175.65 155.835 175.76 156.105 175.88 156.355C176 156.595 176.4 156.495 176.37 156.215C176.3 155.505 176.06 154.815 176.08 154.085C176.12 152.615 177.18 152.135 178.38 152.165C179.25 152.185 180.28 152.225 180.82 153.075C181.41 153.995 181.19 155.195 181.11 156.235C181.08 156.615 181.62 156.705 181.73 156.365C181.74 156.475 181.75 156.585 181.77 156.705C181.8 156.895 182.1 156.905 182.12 156.705C182.48 153.885 184.03 151.865 186.78 151.975C187.22 151.995 187.2 151.295 186.78 151.245C186.66 151.235 186.54 151.225 186.42 151.225C187.51 150.235 187.75 148.415 186.86 147.175C186.84 147.145 186.81 147.125 186.8 147.105C187.09 147.155 187.35 147.105 187.51 146.805L187.52 146.815ZM161.87 147.705C162.08 148.015 162.33 148.305 162.62 148.555C162.27 148.445 161.91 148.365 161.56 148.355C161.69 148.155 161.79 147.935 161.88 147.705H161.87ZM156.46 143.865C157.65 143.805 158.81 143.235 159.99 143.815C160.58 144.105 161.02 144.725 161.25 145.435C161.19 145.895 161.25 146.365 161.41 146.815C161.34 147.505 161.03 148.145 160.42 148.505C159.12 149.255 157.49 149.295 156.44 148.065C155.27 146.695 155.87 145.275 156.46 143.875V143.865ZM155.41 147.975C155.47 148.095 155.52 148.215 155.59 148.315C155.73 148.525 155.88 148.705 156.03 148.865C155.69 148.855 155.36 148.875 155.03 148.965C155.19 148.645 155.32 148.315 155.41 147.965V147.975ZM148.32 149.575C148.55 149.885 148.84 150.165 149.17 150.385C148.77 150.355 148.37 150.365 147.99 150.445C148.15 150.175 148.26 149.875 148.32 149.575ZM138.02 154.285C137.9 153.985 137.77 153.715 137.63 153.495C137.49 153.265 137.2 152.895 136.87 152.575C137.51 152.725 138.19 152.755 138.83 152.635C138.46 153.145 138.18 153.705 138.02 154.285ZM139.92 151.395C139.05 152.125 137.07 152.045 136.16 151.415C135.08 150.665 135.07 149.405 135.04 148.125C135.04 148.125 135.04 148.125 135.04 148.115C135.8 147.535 136.39 146.705 136.66 145.735C136.66 145.735 136.68 145.725 136.69 145.715C137.11 144.975 138.16 144.995 138.82 145.175C139.71 145.415 140.18 146.075 140.54 146.965C141.09 148.325 141.09 150.435 139.93 151.395H139.92ZM140.99 146.275C141.22 146.355 141.47 146.415 141.72 146.465C141.7 146.485 141.67 146.495 141.65 146.525C141.51 146.705 141.39 146.905 141.29 147.105C141.21 146.815 141.11 146.545 140.99 146.285V146.275ZM145.81 152.685C145.67 152.485 145.53 152.295 145.37 152.115C145.57 152.085 145.76 152.015 145.95 151.955C145.97 151.985 145.98 152.015 146.01 152.035C145.91 152.235 145.84 152.455 145.81 152.685ZM144.65 151.425C143.99 150.885 143.25 150.525 142.57 150.455C142.49 150.455 142.41 150.455 142.33 150.455C141.51 149.535 141.3 148.055 142.07 146.985C142.08 146.965 142.09 146.945 142.1 146.925C142.16 146.945 142.22 146.945 142.29 146.925C143.65 146.555 145.23 146.055 146.53 146.925C147.96 147.875 148.18 149.905 146.65 150.885C146.07 151.255 145.36 151.445 144.66 151.445L144.65 151.425ZM151.9 155.615C150.67 156.905 148.52 156.785 147.38 155.435C146.49 154.385 146.64 153.245 146.47 151.995C147.66 151.465 148.72 150.895 150.07 151.295C151.75 151.785 153.59 153.865 151.91 155.625L151.9 155.615ZM151.48 151.135C151.95 151.155 152.41 151.105 152.83 150.975C152.77 151.445 152.78 151.925 152.85 152.385C152.51 151.895 152.04 151.465 151.49 151.135H151.48ZM148.84 148.795C148.17 147.615 148.15 145.145 148.95 143.945C150.28 143.715 151.94 143.445 153.24 143.945C155.63 144.885 155.33 147.885 153.72 149.455C152.41 150.735 149.81 150.485 148.85 148.795H148.84ZM158.54 154.295C157.89 156.435 155.6 155.725 154.54 154.455C153.79 153.545 153.49 152.415 153.54 151.245C154.5 150.135 155.47 149.145 156.99 149.815C157.57 150.075 158 150.525 158.29 151.065C158.34 151.395 158.45 151.705 158.62 151.995C158.79 152.745 158.77 153.555 158.55 154.285L158.54 154.295ZM164.46 152.655C163.81 153.845 162.19 153.455 161.22 153.105C159.86 152.605 158.64 151.565 158.97 149.835C159.2 149.805 159.43 149.755 159.65 149.685C159.67 149.685 159.68 149.685 159.7 149.685C160.73 149.315 161.58 148.885 162.69 149.265C163.86 149.655 165.25 151.225 164.47 152.665L164.46 152.655ZM164.99 150.355C164.79 150.035 164.53 149.745 164.24 149.485C164.52 149.565 164.81 149.615 165.09 149.625C165.01 149.865 164.97 150.105 164.99 150.355ZM162.98 147.905C162.54 147.495 162.26 147.005 162.12 146.475C162.13 146.125 162.1 145.775 162.03 145.435C162.05 145.075 162.13 144.725 162.27 144.375C163.33 144.205 164.45 144.115 165.52 144.235C166.47 144.345 167.47 144.665 167.66 145.885C167.74 146.415 167.41 147.195 167.09 147.685C166.57 147.865 166.05 148.225 165.65 148.695C164.73 148.885 163.69 148.565 162.98 147.915V147.905ZM167.25 154.215C166.17 153.695 165.64 152.555 165.68 151.355C165.74 151.325 165.78 151.275 165.8 151.185C165.9 150.585 166 149.955 166.24 149.445C166.52 149.335 166.8 149.185 167.06 148.965C167.23 148.825 167.38 148.635 167.53 148.435C167.6 148.425 167.66 148.405 167.73 148.395C169.34 148.295 170.58 149.965 170.51 151.655C170.42 153.505 168.95 155.025 167.26 154.215H167.25ZM168 147.575C168.16 147.205 168.26 146.795 168.31 146.395C168.77 147.375 169.63 148.125 170.71 148.245C170.81 148.255 170.91 148.255 171.01 148.255C170.8 148.595 170.67 148.985 170.62 149.405C170.06 148.395 169.12 147.655 167.99 147.565L168 147.575ZM170.94 153.055C171.05 152.755 171.13 152.445 171.17 152.115C171.31 152.355 171.49 152.595 171.69 152.825C171.43 152.875 171.18 152.955 170.94 153.055ZM175.09 153.285C174.89 153.395 174.67 153.425 174.44 153.415C174 153.085 173.48 152.875 172.93 152.795C172.6 152.545 172.31 152.265 172.11 152.005C171.4 151.065 170.88 149.075 171.89 148.165C171.92 148.165 171.94 148.145 171.97 148.135C172.06 148.265 172.22 148.345 172.34 148.245C173.45 147.335 174.76 147.675 175.57 148.895C176.35 150.075 176.54 152.515 175.08 153.285H175.09ZM179.64 146.035C179.68 146.155 179.73 146.265 179.79 146.375C179.92 146.625 180.11 146.845 180.32 147.045C179.95 146.925 179.56 146.855 179.16 146.845C179.35 146.595 179.51 146.325 179.64 146.035ZM176.61 151.815C176.69 151.405 176.72 150.965 176.69 150.545C176.94 150.925 177.28 151.225 177.67 151.465C177.29 151.515 176.93 151.625 176.61 151.815ZM176.89 148.525C176.89 148.465 176.89 148.415 176.89 148.375C177.19 148.225 177.5 148.075 177.8 147.935C177.83 147.925 177.87 147.915 177.9 147.895C178.2 147.765 178.51 147.655 178.85 147.625C179.89 147.505 181.15 147.925 181.45 149.165C182.15 152.125 176.48 151.735 176.9 148.535L176.89 148.525ZM181.97 154.545C181.95 153.845 181.81 153.165 181.42 152.575C181.22 152.275 180.96 152.055 180.67 151.885C181.35 151.685 181.93 151.235 182.16 150.405C182.19 150.305 182.2 150.215 182.22 150.125C182.24 150.175 182.25 150.235 182.27 150.275C182.66 151.115 183.4 151.645 184.22 151.825C183.2 152.405 182.36 153.375 181.97 154.535V154.545ZM185.88 150.685C185.18 151.145 184.29 151.065 183.62 150.575C183.22 150.275 182.95 149.825 182.87 149.295C182.85 149.175 182.89 148.125 183.13 148.165C183.22 148.185 183.32 148.145 183.39 148.085C184.06 147.955 184.54 147.495 184.87 146.885C185.55 146.785 186.34 147.335 186.65 148.005C187.09 148.955 186.69 150.145 185.87 150.685H185.88Z" fill="black" stroke="black"/>
<path d="M120.7 103.499C120.7 99.2994 121.01 94.9194 120.57 90.7494C120.53 90.3594 120.14 90.2994 119.98 90.5594C119.92 90.5094 119.85 90.4694 119.75 90.4694C113.48 90.4394 107.06 90.0394 100.76 90.3994C99.9498 90.3994 99.1498 90.4294 98.3698 90.5794C98.1998 90.5894 98.0398 90.6094 97.8698 90.6194C97.6698 90.4094 97.2698 90.4994 97.2498 90.8894C97.2398 91.2594 97.2298 91.6394 97.2198 92.0194C97.0898 94.0194 97.0798 96.0494 97.1098 98.0894C97.0798 102.969 97.1498 107.859 97.1798 112.739C97.1798 113.819 97.1798 114.899 97.1798 115.979C97.1798 124.239 97.1798 132.509 97.1798 140.769C97.1798 141.379 98.0498 141.379 98.0498 140.769C98.0498 132.509 98.0598 124.239 98.0498 115.979C98.0498 114.899 98.0498 113.809 98.0498 112.729C98.0798 107.859 98.1498 102.969 98.1198 98.0994C98.1498 96.0694 98.1398 94.0294 98.0098 92.0294C98.0098 91.7494 97.9998 91.4694 97.9898 91.1894C98.1198 91.1894 98.2398 91.2094 98.3698 91.2194C99.1498 91.3694 99.9498 91.4094 100.76 91.3994C107.05 91.7494 113.48 91.3494 119.75 91.3294C119.79 91.3294 119.83 91.3194 119.87 91.2994C119.51 95.2994 119.78 99.4994 119.79 103.509C119.79 107.619 119.79 111.729 119.79 115.829C119.79 124.189 119.77 132.549 119.76 140.899C119.76 141.579 120.72 141.579 120.72 140.899C120.72 132.539 120.69 124.179 120.69 115.829C120.69 111.719 120.69 107.609 120.69 103.509L120.7 103.499Z" fill="black" stroke="black"/>
<path d="M118.42 120.984C118.8 116.444 118.5 111.744 118.5 107.194C118.5 102.604 118.77 97.8839 118.37 93.3139C118.37 93.2639 118.34 93.2339 118.32 93.1939C118.44 93.0539 118.39 92.8039 118.16 92.7739C114.95 92.3339 111.53 92.6739 108.29 92.6639C105.38 92.6639 101.99 92.1439 99.1399 92.8739C99.0599 92.8939 99.0399 92.9739 99.0499 93.0439C99.0299 93.0639 99.0099 93.0839 99.0099 93.1139C98.4099 97.5439 98.8499 102.354 98.8499 106.834C98.8499 111.664 98.6399 116.534 98.8099 121.354C98.8299 121.824 99.3999 121.874 99.5299 121.494C102.39 121.914 105.42 121.624 108.29 121.624C111.59 121.624 115.01 121.884 118.29 121.504C118.59 121.474 118.62 121.114 118.42 120.964V120.984ZM108.28 120.794C105.43 120.794 102.4 120.514 99.5599 120.924C99.6999 116.244 99.5199 111.514 99.5099 106.834C99.5099 102.384 99.9399 97.6239 99.3599 93.2139C102.16 93.8739 105.44 93.3839 108.29 93.3839C111.46 93.3839 114.8 93.6939 117.95 93.2939C117.55 97.8639 117.82 102.584 117.82 107.174C117.82 111.694 117.53 116.354 117.89 120.854C114.73 120.534 111.46 120.774 108.29 120.774L108.28 120.794Z" fill="black" stroke="black"/>
<path d="M63.6995 15.0055C61.5695 14.7155 59.3495 14.8855 57.1995 14.8855C55.0495 14.8855 52.8395 14.7355 50.6995 15.0255C50.3995 15.0655 50.3895 15.5055 50.6995 15.5455C52.8395 15.8355 55.0495 15.6955 57.1995 15.6855C59.3495 15.6855 61.5695 15.8555 63.6995 15.5655C64.0295 15.5155 64.0295 15.0455 63.6995 14.9955V15.0055Z" fill="black" stroke="black"/>
<path d="M63.8295 19.9645C61.4295 19.6845 58.9695 19.8445 56.5595 19.8445C54.5095 19.8445 51.9795 19.4045 50.0395 20.2245C49.9895 20.2445 49.9895 20.3045 50.0395 20.3245C51.9795 21.1545 54.4995 20.7045 56.5595 20.7045C58.9695 20.7045 61.4395 20.8645 63.8295 20.5845C64.1895 20.5445 64.1895 20.0145 63.8295 19.9745V19.9645Z" fill="black" stroke="black"/>
<path d="M64.6105 24.7344C62.0505 24.5344 59.4505 24.5944 56.8805 24.5844C54.7005 24.5844 51.9705 24.0944 49.9105 24.9044C49.8605 24.9244 49.8605 25.0044 49.9105 25.0244C51.9805 25.8444 54.7005 25.3544 56.8805 25.3444C59.4505 25.3444 62.0505 25.3944 64.6105 25.1944C64.8805 25.1744 64.8805 24.7444 64.6105 24.7244V24.7344Z" fill="black" stroke="black"/>
<path d="M60.3602 11.4475C60.3602 11.0175 59.7602 11.0175 59.7502 11.4475C59.7402 12.7175 59.6602 14.0275 59.7802 15.2875C59.8202 15.6675 60.2802 15.6675 60.3202 15.2875C60.4502 14.0275 60.3702 12.7075 60.3502 11.4475H60.3602Z" fill="black" stroke="black"/>
<path d="M51.61 11.5083C51.29 12.5883 51.35 13.8883 51.41 15.0083C51.44 15.4683 52.09 15.4783 52.07 15.0083C52.04 13.8683 52.22 12.7283 52.17 11.5983C52.16 11.2383 51.7 11.1683 51.6 11.5183L51.61 11.5083Z" fill="black" stroke="black"/>
<path d="M55.5195 15.1488C55.5195 14.7788 55.0195 14.7888 54.9995 15.1488C54.9195 16.8588 54.9195 18.5688 54.9995 20.2788C55.0195 20.6888 55.5995 20.6888 55.5795 20.2788C55.5195 18.5688 55.4995 16.8588 55.5095 15.1488H55.5195Z" fill="black" stroke="black"/>
<path d="M60.2297 20.5562C60.2197 20.1062 59.5897 20.1062 59.5997 20.5562C59.6297 22.0962 59.6897 23.6763 59.9197 25.1963C59.9797 25.5763 60.5597 25.4863 60.5297 25.1063C60.4197 23.5863 60.2697 22.0762 60.2297 20.5562Z" fill="black" stroke="black"/>
<path d="M94.6296 34.6882C89.2196 34.3282 83.7296 34.6182 78.3196 34.6182C72.9096 34.6182 67.1896 34.6182 61.6196 34.6182C50.6196 34.6282 39.6096 34.5582 28.6096 34.7782C28.4296 34.7782 28.4296 35.0882 28.6096 35.0882C39.6096 35.3082 50.6196 35.2382 61.6196 35.2482C67.0596 35.2482 72.4996 35.2482 77.9296 35.2482C83.3596 35.2482 89.0996 35.5382 94.6296 35.1782C94.9296 35.1582 94.9296 34.6882 94.6296 34.6682V34.6882Z" fill="black" stroke="black"/>
<path d="M87.6101 42.63C82.7201 42.25 77.7301 42.55 72.8301 42.55C67.9001 42.55 62.9701 42.55 58.0401 42.57C48.1901 42.61 38.3201 42.48 28.4701 42.69C28.2001 42.69 28.2001 43.14 28.4701 43.15C38.3201 43.35 48.1901 43.23 58.0401 43.27C62.8401 43.29 67.6401 43.29 72.4401 43.29C77.4701 43.29 82.6001 43.6 87.6101 43.21C87.9501 43.18 87.9501 42.66 87.6101 42.64V42.63Z" fill="black" stroke="black"/>
<path d="M80.0699 51.0792C75.8299 50.6692 71.4899 50.9192 67.2299 50.9192C62.8199 50.9192 58.4099 50.9392 54.0099 50.9592C45.3499 50.9892 36.5999 50.6292 27.9499 51.0892C27.6899 51.0992 27.6899 51.5192 27.9499 51.5292C36.5999 51.9992 45.3499 51.6292 54.0099 51.6592C58.2899 51.6792 62.5699 51.6992 66.8499 51.6992C71.2399 51.6992 75.6999 51.9592 80.0699 51.5392C80.3499 51.5092 80.3499 51.0892 80.0699 51.0692V51.0792Z" fill="black" stroke="black"/>
<path d="M72.6698 59.1691C68.8698 58.7191 64.8998 59.0191 61.0698 59.0291C57.4598 59.0291 53.8498 59.0291 50.2498 59.0391C46.6398 59.0391 43.0298 59.0391 39.4298 59.0591C35.5998 59.0591 31.6498 58.7991 27.8298 59.2091C27.5698 59.2391 27.5698 59.6291 27.8298 59.6591C31.6498 60.0591 35.5898 59.7991 39.4298 59.8091C43.0398 59.8091 46.6498 59.8191 50.2498 59.8291C53.8598 59.8291 57.4698 59.8291 61.0698 59.8391C64.8898 59.8391 68.8598 60.1391 72.6698 59.6991C72.9798 59.6591 72.9798 59.2191 72.6698 59.1791V59.1691Z" fill="black" stroke="black"/>
<path d="M64.6102 67.955C58.5102 67.325 52.1602 67.835 46.0302 67.845C42.9302 67.845 39.8402 67.855 36.7402 67.865C33.9102 67.865 30.9802 67.645 28.1802 68.075C28.0102 68.105 28.0102 68.425 28.1802 68.445C30.9902 68.865 33.9102 68.645 36.7402 68.655C39.8402 68.655 42.9302 68.665 46.0302 68.675C52.1602 68.685 58.5102 69.185 64.6102 68.565C64.9602 68.525 64.9602 68.005 64.6102 67.975V67.955Z" fill="black" stroke="black"/>
<path d="M190.56 34.5845C179.52 33.8845 168.34 34.4045 157.29 34.4045C146.21 34.4045 135.09 34.1645 124.02 34.4945C123.67 34.5045 123.67 35.0745 124.02 35.0845C135.1 35.4245 146.21 35.1745 157.29 35.1745C168.35 35.1745 179.53 35.6945 190.56 34.9945C190.8 34.9745 190.8 34.5945 190.56 34.5845Z" fill="black" stroke="black"/>
<path d="M190.65 42.3198C180.71 42.2298 170.78 42.1998 160.84 42.2098C150.91 42.2098 140.96 42.0098 131.03 42.2898C130.95 42.2898 130.9 42.3198 130.85 42.3598C130.78 42.3598 130.71 42.3598 130.64 42.3598C130.32 42.3598 130.32 42.8998 130.64 42.9098C130.71 42.9098 130.78 42.9098 130.85 42.9098C130.9 42.9498 130.95 42.9798 131.03 42.9798C140.96 43.2598 150.91 43.0498 160.84 43.0598C170.78 43.0598 180.71 43.0398 190.65 42.9498C190.84 42.9498 190.93 42.7898 190.93 42.6398C190.93 42.4798 190.84 42.3198 190.65 42.3298V42.3198Z" fill="black" stroke="black"/>
<path d="M190.81 50.6483C186.45 50.2983 182.02 50.4883 177.65 50.4883C173.26 50.4883 168.88 50.4983 164.49 50.5083C155.74 50.5183 146.91 50.1383 138.17 50.6183C137.86 50.6383 137.86 51.1383 138.17 51.1483C146.91 51.6283 155.74 51.2483 164.49 51.2583C168.75 51.2583 173.01 51.2683 177.26 51.2783C181.75 51.2783 186.32 51.4783 190.81 51.1183C191.08 51.0983 191.08 50.6783 190.81 50.6483Z" fill="black" stroke="black"/>
<path d="M190.81 58.3277C183.16 57.7577 175.34 58.2077 167.67 58.2077C159.96 58.2077 152.24 58.0977 144.53 58.3277C144.24 58.3277 144.24 58.8177 144.53 58.8277C152.23 59.0577 159.96 58.9477 167.67 58.9477C175.34 58.9477 183.16 59.3977 190.81 58.8277C191.1 58.8077 191.1 58.3577 190.81 58.3377V58.3277Z" fill="black" stroke="black"/>
<path d="M190.689 66.7491C187.519 66.4191 184.259 66.6391 181.069 66.6391C177.859 66.6391 174.659 66.6391 171.449 66.6391C168.369 66.6391 165.289 66.6391 162.219 66.6291C158.909 66.6291 155.519 66.3891 152.219 66.7291C151.929 66.7591 151.929 67.1891 152.219 67.2191C155.399 67.5491 158.649 67.3291 161.839 67.3191C165.049 67.3191 168.249 67.2991 171.459 67.3091C174.539 67.3091 177.619 67.3091 180.689 67.3091C183.999 67.3091 187.399 67.5391 190.689 67.1991C190.959 67.1691 190.959 66.7691 190.689 66.7391V66.7491Z" fill="black" stroke="black"/>
<path d="M136.11 85.3199C117.68 85.3199 99.24 85.0499 80.81 85.3099C85.67 81.4099 90.14 77.0199 94.76 72.8999C99.6 68.5899 104.5 64.3199 109.15 59.8499C109.39 59.6199 109.02 59.2899 108.77 59.5099C103.78 63.6799 99.02 68.0699 94.21 72.3999C89.42 76.7099 84.3 80.8799 79.81 85.4399C79.66 85.5999 79.75 85.7899 79.91 85.8499C79.96 85.9899 80.09 86.0999 80.3 86.0999C98.89 86.3699 117.51 86.0999 136.11 86.0999C136.38 86.0999 136.52 85.9099 136.52 85.7199C136.52 85.5299 136.38 85.3399 136.11 85.3399V85.3199Z" fill="black" stroke="black"/>
<path d="M137.11 84.695C135.08 82.445 132.5 80.495 130.22 78.455C127.85 76.335 125.47 74.215 123.1 72.105C120.73 69.985 118.35 67.865 115.97 65.755C113.8 63.835 111.71 61.615 109.19 60.055C109.14 60.025 109.08 60.085 109.11 60.125C110.85 62.385 113.32 64.255 115.47 66.205C117.83 68.335 120.19 70.465 122.56 72.595C124.92 74.725 127.29 76.855 129.65 78.975C131.81 80.915 133.89 83.105 136.24 84.885C136.24 84.905 136.23 84.925 136.24 84.935C136.24 84.995 136.26 85.035 136.29 85.095C136.34 85.185 136.48 85.255 136.59 85.245C136.66 85.245 136.71 85.255 136.77 85.265C136.79 85.275 136.8 85.285 136.82 85.295C136.89 85.345 136.95 85.355 137.02 85.365C137.07 85.415 137.11 85.475 137.12 85.545C136.94 85.545 136.76 85.555 136.58 85.565C136.15 85.585 136.14 86.165 136.58 86.175C136.86 86.175 137.15 86.175 137.43 86.175C137.6 86.175 137.72 86.075 137.77 85.945C138.01 85.385 137.67 84.875 137.13 84.695H137.11Z" fill="black" stroke="black"/>
<path d="M136.26 85.2266C136.21 85.2266 136.21 85.2966 136.26 85.2966C136.31 85.2966 136.31 85.2266 136.26 85.2266Z" fill="black" stroke="black"/>
<path d="M131.06 83.0114C116.04 83.0114 101 82.7914 85.98 83.0014C89.94 79.8214 93.59 76.2414 97.35 72.8814C101.29 69.3614 105.29 65.8914 109.08 62.2414C109.27 62.0514 108.98 61.7914 108.77 61.9614C104.7 65.3614 100.82 68.9414 96.9 72.4714C92.99 75.9914 88.82 79.3814 85.16 83.1014C85.03 83.2314 85.11 83.3814 85.24 83.4314C85.28 83.5414 85.39 83.6314 85.56 83.6314C100.72 83.8514 115.9 83.6314 131.05 83.6314C131.27 83.6314 131.39 83.4714 131.39 83.3214C131.39 83.1614 131.28 83.0114 131.05 83.0114H131.06Z" fill="black" stroke="black"/>
<path d="M131.88 82.5072C130.23 80.6772 128.12 79.0772 126.26 77.4272C124.32 75.6972 122.39 73.9772 120.45 72.2472C118.51 70.5172 116.58 68.7872 114.64 67.0672C112.87 65.4972 111.17 63.6872 109.11 62.4272C109.07 62.4072 109.02 62.4472 109.05 62.4872C110.47 64.3272 112.48 65.8572 114.23 67.4472C116.15 69.1872 118.08 70.9172 120.01 72.6572C121.94 74.3872 123.86 76.1272 125.79 77.8572C127.55 79.4372 129.25 81.2272 131.17 82.6672C131.17 82.6772 131.17 82.6972 131.17 82.7072C131.17 82.7572 131.19 82.7872 131.21 82.8372C131.25 82.9172 131.36 82.9672 131.45 82.9572C131.5 82.9572 131.55 82.9572 131.6 82.9772C131.61 82.9772 131.63 82.9972 131.64 83.0072C131.69 83.0472 131.75 83.0572 131.8 83.0672C131.84 83.1072 131.87 83.1572 131.88 83.2172C131.73 83.2172 131.59 83.2172 131.44 83.2372C131.09 83.2472 131.08 83.7272 131.44 83.7272C131.67 83.7272 131.9 83.7272 132.14 83.7272C132.28 83.7272 132.37 83.6472 132.42 83.5372C132.61 83.0772 132.33 82.6672 131.9 82.5172L131.88 82.5072Z" fill="black" stroke="black"/>
<path d="M131.18 82.9375C131.18 82.9375 131.14 82.9975 131.18 82.9975C131.22 82.9975 131.22 82.9375 131.18 82.9375Z" fill="black" stroke="black"/>
<path d="M109.06 55.5853C104.12 55.5853 100.09 51.1753 100.09 45.7653C100.09 40.3553 104.11 35.9453 109.06 35.9453C114.01 35.9453 118.03 40.3553 118.03 45.7653C118.03 51.1753 114.01 55.5853 109.06 55.5853ZM109.06 36.7953C104.54 36.7953 100.87 40.8153 100.87 45.7653C100.87 50.7153 104.54 54.7353 109.06 54.7353C113.58 54.7353 117.25 50.7153 117.25 45.7653C117.25 40.8153 113.58 36.7953 109.06 36.7953Z" fill="black" stroke="black"/>
<path d="M109.06 53.4503C105.19 53.4503 102.04 50.0003 102.04 45.7603C102.04 41.5203 105.19 38.0703 109.06 38.0703C112.93 38.0703 116.08 41.5203 116.08 45.7603C116.08 50.0003 112.93 53.4503 109.06 53.4503ZM109.06 38.7403C105.53 38.7403 102.65 41.8903 102.65 45.7603C102.65 49.6303 105.52 52.7803 109.06 52.7803C112.6 52.7803 115.47 49.6303 115.47 45.7603C115.47 41.8903 112.6 38.7403 109.06 38.7403Z" fill="black" stroke="black"/>
<path d="M115.33 45.4975C113.49 45.4975 111.63 45.4375 109.76 45.3975C109.78 44.2275 109.78 43.0675 109.74 41.9175C109.74 41.1975 109.71 40.4875 109.61 39.7975C109.58 39.4575 109.56 39.1175 109.52 38.7775C109.48 38.4075 109.03 38.4075 108.99 38.7775C108.95 39.1175 108.93 39.4675 108.9 39.8075C108.8 40.4775 108.77 41.1875 108.77 41.8975C108.73 43.0475 108.73 44.2175 108.75 45.3775C106.66 45.3475 104.57 45.3575 102.5 45.5375C102 45.5775 102 46.3475 102.5 46.3875C104.57 46.5675 106.67 46.5875 108.77 46.5475C108.82 48.5975 108.89 50.6375 108.89 52.6275C108.89 53.1475 109.63 53.1475 109.63 52.6275C109.63 50.6275 109.7 48.5775 109.75 46.5275C111.62 46.4875 113.49 46.4275 115.34 46.4275C115.62 46.4275 115.76 46.1875 115.76 45.9575C115.76 45.7175 115.62 45.4875 115.34 45.4875L115.33 45.4975Z" fill="black" stroke="black"/>
<path d="M90.1504 81.2103C90.1504 80.6403 90.1804 80.0303 90.0004 79.4903C89.9804 79.4303 89.9104 79.4303 89.8904 79.4903C89.7104 80.0403 89.7404 80.6403 89.7404 81.2103C89.7404 81.7903 89.6804 82.3903 89.8304 82.9503C89.8604 83.0703 90.0104 83.0703 90.0504 82.9503C90.2104 82.3903 90.1504 81.7903 90.1404 81.2103H90.1504Z" fill="black" stroke="black"/>
<path d="M93.7596 79.7575C93.7596 78.5575 93.7996 77.3475 93.6796 76.1575C93.6596 75.9475 93.3996 75.9475 93.3796 76.1575C93.2596 77.3475 93.3096 78.5675 93.2996 79.7575C93.2996 80.7975 93.1596 81.8775 93.3696 82.8975C93.4096 83.0775 93.6596 83.0775 93.6996 82.8975C93.9096 81.8875 93.7796 80.7975 93.7696 79.7575H93.7596Z" fill="black" stroke="black"/>
<path d="M96.6702 77.9972C96.6702 76.5572 96.8102 75.0372 96.4302 73.6472C96.4202 73.6072 96.3602 73.6072 96.3502 73.6472C95.9702 75.0272 96.1102 76.5572 96.1102 77.9972C96.1102 79.6772 96.0202 81.3872 96.2002 83.0572C96.2302 83.3372 96.5702 83.3372 96.6002 83.0572C96.7802 81.3972 96.6902 79.6672 96.6902 77.9972H96.6702Z" fill="black" stroke="black"/>
<path d="M100.48 70.0859C100.48 70.0859 100.46 70.1159 100.48 70.1159C100.5 70.1159 100.5 70.0859 100.48 70.0859Z" fill="black" stroke="black"/>
<path d="M100.771 70.6047C100.771 70.2047 100.191 70.2047 100.201 70.6047C100.231 74.6747 99.8306 79.0247 100.301 83.0647C100.331 83.3247 100.641 83.3247 100.671 83.0647C101.141 79.0247 100.741 74.6847 100.771 70.6047Z" fill="black" stroke="black"/>
<path d="M104.26 74.7309C104.24 72.1109 104.49 69.3209 104.09 66.7309C104.07 66.6209 103.9 66.6209 103.88 66.7309C103.49 69.3209 103.73 72.1109 103.71 74.7309C103.69 77.3709 103.44 80.1509 103.79 82.7609C103.82 82.9709 104.15 82.9709 104.18 82.7609C104.52 80.1509 104.27 77.3709 104.26 74.7309Z" fill="black" stroke="black"/>
<path d="M107.71 73.2362C107.68 70.0662 107.81 66.8563 107.59 63.6962C107.57 63.4762 107.29 63.4762 107.27 63.6962C107.05 66.8563 107.18 70.0662 107.15 73.2362C107.12 76.3562 106.8 79.6862 107.17 82.7762C107.21 83.1362 107.64 83.1362 107.69 82.7762C108.06 79.6862 107.74 76.3562 107.71 73.2362Z" fill="black" stroke="black"/>
<path d="M111.9 73.3591C111.89 70.4991 112.2 67.3991 111.72 64.5891C111.7 64.4391 111.47 64.4391 111.45 64.5891C110.98 67.3991 111.29 70.5091 111.27 73.3591C111.25 76.5091 110.97 79.7991 111.29 82.9191C111.33 83.3191 111.82 83.3191 111.86 82.9191C112.18 79.7991 111.9 76.4991 111.88 73.3591H111.9Z" fill="black" stroke="black"/>
<path d="M115.01 75.0853C115.01 72.7253 115.24 70.1853 114.83 67.8553C114.81 67.7253 114.62 67.7253 114.6 67.8553C114.18 70.1853 114.42 72.7153 114.42 75.0853C114.42 77.7453 114.23 80.4853 114.47 83.1253C114.5 83.4753 114.93 83.4753 114.96 83.1253C115.2 80.4853 115.02 77.7453 115.01 75.0853Z" fill="black" stroke="black"/>
<path d="M118.34 77.1575C118.33 74.8975 118.44 72.5775 118.22 70.3275C118.19 70.0575 117.86 70.0575 117.83 70.3275C117.6 72.5775 117.72 74.8975 117.71 77.1575C117.7 79.1575 117.57 81.2175 117.82 83.1975C117.85 83.4175 118.2 83.4175 118.23 83.1975C118.49 81.2075 118.35 79.1575 118.34 77.1575Z" fill="black" stroke="black"/>
<path d="M121.47 73.5581C121.45 73.4181 121.23 73.4181 121.21 73.5581C120.8 76.6381 120.83 80.3381 121.13 83.4181C121.16 83.7181 121.53 83.7181 121.56 83.4181C121.85 80.3281 121.89 76.6281 121.48 73.5581H121.47Z" fill="black" stroke="black"/>
<path d="M124.69 79.9009C124.69 78.7209 124.78 77.4909 124.54 76.3309C124.51 76.1709 124.28 76.1709 124.25 76.3309C124.01 77.4909 124.1 78.7109 124.1 79.9009C124.1 81.0909 124 82.3009 124.23 83.4809C124.27 83.6609 124.54 83.6609 124.57 83.4809C124.79 82.3109 124.71 81.1009 124.7 79.9009H124.69Z" fill="black" stroke="black"/>
<path d="M127.67 79.7844C127.67 79.3844 127.11 79.3844 127.1 79.7844C127.08 81.0344 126.89 82.3344 127.21 83.5344C127.26 83.7144 127.5 83.7144 127.55 83.5344C127.87 82.3244 127.68 81.0344 127.66 79.7844H127.67Z" fill="black" stroke="black"/>
<path d="M63.6301 11.3502C59.2101 11.4302 54.7901 11.3001 50.3701 11.3601C49.9201 11.3601 49.9401 12.0601 50.3701 12.1101C54.7601 12.5501 59.2201 12.5302 63.6301 12.4502C64.2801 12.4402 64.2801 11.3402 63.6301 11.3502Z" fill="black" stroke="black"/>
<path d="M101.86 125.265C101.63 124.695 101.97 123.965 101.31 123.625C100.98 123.465 100.55 123.525 100.2 123.535C99.7801 123.555 99.3401 123.555 98.9601 123.735C98.8401 123.795 98.8401 124.015 98.9601 124.075C99.5401 124.365 100.18 124.155 100.78 124.305C101.13 124.395 101.01 124.665 101.01 124.975C101.01 125.235 101.05 125.475 101.19 125.685C101.48 126.125 102.05 125.755 101.85 125.265H101.86Z" fill="black" stroke="black"/>
<path d="M7.72 156.327C5.64 156.327 3.56 156.327 1.48 156.327C1.16 156.327 1 156.588 1 156.848C1 157.108 1.16 157.367 1.48 157.367C28.9 157.387 56.32 157.398 83.74 157.408C111.29 157.418 138.84 157.407 166.39 157.447C181.85 157.467 197.32 157.458 212.78 157.458C213.54 157.458 213.54 156.227 212.78 156.227C211.71 156.227 210.65 156.227 209.58 156.227C209.58 156.217 209.56 156.197 209.55 156.188" fill="black"/>
<path d="M7.72 156.327C5.64 156.327 3.56 156.327 1.48 156.327C1.16 156.327 1 156.588 1 156.848C1 157.108 1.16 157.367 1.48 157.367C28.9 157.387 56.32 157.398 83.74 157.408C111.29 157.418 138.84 157.407 166.39 157.447C181.85 157.467 197.32 157.458 212.78 157.458C213.54 157.458 213.54 156.227 212.78 156.227C211.71 156.227 210.65 156.227 209.58 156.227C209.58 156.217 209.56 156.197 209.55 156.188" stroke="black"/>
<path d="M189.45 147.875C189.4 147.875 189.4 147.955 189.45 147.955C189.5 147.955 189.5 147.875 189.45 147.875Z" fill="black" stroke="black"/>
</svg>
