<svg width="149" height="148" viewBox="0 0 149 148" fill="none" xmlns="http://www.w3.org/2000/svg">
<path d="M138.051 39.138C132.025 35.8442 123.54 33.0484 113.465 31.04C111.28 22.6045 106.587 14.9885 100.047 9.44517C92.9445 3.45198 83.9939 0.125992 74.8344 0.125992C65.6749 0.125992 56.7243 3.43591 49.6216 9.44517C43.0814 14.9885 38.3892 22.6045 36.2038 31.04C26.1283 33.0484 17.6437 35.8281 11.6177 39.138C4.53116 43.0264 0.931641 47.461 0.931641 52.3456C0.931641 59.5117 8.70918 65.762 23.4287 70.4215C37.184 74.7759 55.4548 77.186 74.8344 77.186C94.23 77.186 112.485 74.7919 126.256 70.4215C140.976 65.762 148.753 59.5117 148.753 52.3456C148.737 47.461 145.154 43.0264 138.051 39.138ZM74.8344 4.31962C91.2893 4.31962 105.366 15.7758 109.512 32.3414C100.851 38.8327 89.1843 42.1266 74.8344 42.1266C60.4845 42.1266 48.8182 38.8327 40.1568 32.3414C44.3027 15.7758 58.3794 4.31962 74.8344 4.31962ZM124.987 66.4207C111.617 70.6465 93.8122 72.9763 74.8344 72.9763C55.8565 72.9763 38.0517 70.6465 24.6821 66.4207C12.4212 62.5484 5.10966 57.2783 5.10966 52.3456C5.10966 45.7257 17.5955 39.0416 36.9912 35.1693C46.472 42.5604 59.1829 46.3202 74.8344 46.3202C90.4859 46.3202 103.197 42.5604 112.678 35.1693C132.089 39.0416 144.559 45.7418 144.559 52.3456C144.559 57.2783 137.231 62.5484 124.987 66.4207ZM77.8233 58.4191C77.8233 60.074 76.4895 61.4076 74.8344 61.4076C73.1792 61.4076 71.8455 60.074 71.8455 58.4191C71.8455 56.7641 73.1792 55.4305 74.8344 55.4305C76.4895 55.4144 77.8233 56.7641 77.8233 58.4191ZM52.948 56.4749C52.948 58.1299 51.6142 59.4635 49.9591 59.4635C48.3039 59.4635 46.9702 58.1299 46.9702 56.4749C46.9702 54.82 48.3039 53.4863 49.9591 53.4863C51.6142 53.4863 52.948 54.82 52.948 56.4749ZM102.699 56.4749C102.699 58.1299 101.365 59.4635 99.7097 59.4635C98.0545 59.4635 96.7208 58.1299 96.7208 56.4749C96.7208 54.82 98.0545 53.4863 99.7097 53.4863C101.365 53.4863 102.699 54.82 102.699 56.4749ZM28.0727 52.0724C28.0727 53.7274 26.7389 55.061 25.0838 55.061C23.4287 55.061 22.0949 53.7274 22.0949 52.0724C22.0949 50.4174 23.4287 49.0838 25.0838 49.0838C26.7389 49.0838 28.0727 50.4174 28.0727 52.0724ZM127.59 52.0724C127.59 53.7274 126.256 55.061 124.601 55.061C122.946 55.061 121.612 53.7274 121.612 52.0724C121.612 50.4174 122.946 49.0838 124.601 49.0838C126.24 49.0838 127.59 50.4174 127.59 52.0724ZM80.0569 11.0037C80.3622 9.879 81.5031 9.22023 82.628 9.52551C88.8629 11.1805 94.4068 14.7957 98.6812 19.9534C99.4204 20.8371 99.2918 22.1707 98.408 22.9098C98.0224 23.2311 97.5403 23.3918 97.0743 23.3918C96.4637 23.3918 95.8691 23.1347 95.4674 22.6366C91.7553 18.1538 86.9506 15.0367 81.5674 13.5906C80.4265 13.2693 79.7516 12.1285 80.0569 11.0037ZM99.7739 24.9825C100.802 24.4523 102.072 24.854 102.602 25.8662C102.827 26.3161 103.052 26.766 103.277 27.232C103.759 28.2764 103.309 29.5296 102.265 30.0116C101.975 30.1402 101.67 30.2045 101.381 30.2045C100.593 30.2045 99.8382 29.7546 99.4847 28.9994C99.2918 28.5977 99.099 28.196 98.8901 27.8104C98.3598 26.7821 98.7455 25.5288 99.7739 24.9825ZM76.9234 144.445V145.843C76.9234 147 75.9914 147.931 74.8344 147.931C73.6774 147.931 72.7454 147 72.7454 145.843V144.445C72.7454 143.288 73.6774 142.356 74.8344 142.356C75.9914 142.356 76.9234 143.288 76.9234 144.445ZM59.0382 84.0629L34.0344 146.614C33.713 147.433 32.9256 147.948 32.09 147.948C31.8329 147.948 31.5758 147.899 31.3187 147.803C30.2421 147.369 29.7278 146.148 30.1456 145.087L55.1334 82.5365C55.5673 81.46 56.7885 80.9458 57.8491 81.3636C58.9418 81.7652 59.4721 82.9864 59.0382 84.0629ZM119.523 145.071C119.957 146.148 119.427 147.369 118.35 147.787C118.093 147.899 117.836 147.948 117.579 147.948C116.743 147.948 115.956 147.449 115.634 146.63L90.6305 84.0629C90.1966 82.9864 90.7269 81.7652 91.8036 81.3475C92.8802 80.9137 94.1015 81.4439 94.5193 82.5204L119.523 145.071ZM76.9234 84.0629V137.745C76.9234 138.901 75.9914 139.833 74.8344 139.833C73.6774 139.833 72.7454 138.901 72.7454 137.745V84.0629C72.7454 82.906 73.6774 81.9741 74.8344 81.9741C75.9914 81.9581 76.9234 82.906 76.9234 84.0629Z" fill="black"/>
</svg>
