<svg width="88" height="239" viewBox="0 0 88 239" fill="none" xmlns="http://www.w3.org/2000/svg">
<path d="M85.0283 230.57H22.6885V238.15H85.0283V230.57Z" stroke="black" stroke-width="1.61796" stroke-linecap="round" stroke-linejoin="round"/>
<path d="M80.7008 10.6953H52.9043V230.576H80.7008V10.6953Z" stroke="black" stroke-width="1.61796" stroke-linecap="round" stroke-linejoin="round"/>
<path d="M61.6572 10.6953H6.89746V230.576H61.6572V10.6953Z" stroke="black" stroke-width="1.61796" stroke-linecap="round" stroke-linejoin="round"/>
<path d="M65.4434 230.57H3.10352V238.15H65.4434V230.57Z" stroke="black" stroke-width="1.61796" stroke-linecap="round" stroke-linejoin="round"/>
<path d="M65.4434 230.57H3.10352V238.15H65.4434V230.57Z" stroke="black" stroke-width="1.61796" stroke-linecap="round" stroke-linejoin="round"/>
<path d="M63.6069 8.90562C63.6069 10.0705 62.6604 11.009 61.5035 11.009H6.71955C5.55463 11.009 4.61621 10.0705 4.61621 8.90562V5.96094H63.6069V8.90562Z" stroke="black" stroke-width="1.61796" stroke-linecap="round" stroke-linejoin="round"/>
<path d="M83.1838 8.90562C83.1838 10.0705 82.2373 11.009 81.0804 11.009H26.3045C25.1396 11.009 24.2012 10.0705 24.2012 8.90562V5.96094H83.1918V8.90562H83.1838Z" stroke="black" stroke-width="1.61796" stroke-linecap="round" stroke-linejoin="round"/>
<path d="M22.6883 1H85.0282C86.1931 1 87.1315 1.9465 87.1315 3.10334V3.94468C87.1315 5.10961 86.185 6.04802 85.0282 6.04802H22.6883C21.5234 6.04802 20.585 5.10152 20.585 3.94468V3.10334C20.585 1.93841 21.5315 1 22.6883 1Z" stroke="black" stroke-width="1.61796" stroke-linecap="round" stroke-linejoin="round"/>
<path d="M53.0983 211.055H15.0439V230.567H53.0983V211.055Z" stroke="black" stroke-width="1.61796" stroke-linecap="round" stroke-linejoin="round"/>
<path d="M46.4883 218.565C46.4883 216.009 44.4174 213.93 41.8529 213.93H25.4226C22.8662 213.93 20.7871 216.001 20.7871 218.565V230.465H46.4803V218.565H46.4883Z" stroke="black" stroke-width="1.61796" stroke-linecap="round" stroke-linejoin="round"/>
<path d="M34.0631 213.93H25.4313C22.875 213.93 20.7959 216.001 20.7959 218.565V230.465H34.0631V213.93Z" stroke="black" stroke-width="1.61796" stroke-linecap="round" stroke-linejoin="round"/>
<path d="M55.129 233.095H13.2158V231.38C13.2158 230.911 13.596 230.539 14.0572 230.539H54.2876C54.7568 230.539 55.129 230.919 55.129 231.38V233.095Z" stroke="black" stroke-width="1.61796" stroke-linecap="round" stroke-linejoin="round"/>
<path d="M56.9169 235.61L11.5332 235.626V233.943C11.5332 233.482 11.9053 233.102 12.3745 233.102L56.0755 233.086C56.5447 233.086 56.9169 233.466 56.9169 233.927V235.61Z" stroke="black" stroke-width="1.61796" stroke-linecap="round" stroke-linejoin="round"/>
<path d="M59.2304 238.133L9.00098 238.158V236.475C9.00098 236.006 9.37311 235.634 9.84231 235.634L58.3891 235.609C58.8502 235.609 59.2304 235.982 59.2304 236.451V238.133Z" stroke="black" stroke-width="1.61796" stroke-linecap="round" stroke-linejoin="round"/>
<path d="M65.4433 226.991C65.4433 226.756 65.2572 226.57 65.0226 226.57H63.4451C63.2105 226.57 63.0244 226.756 63.0244 226.991V230.575H65.4433V226.991Z" stroke="black" stroke-width="1.61796" stroke-linecap="round" stroke-linejoin="round"/>
<path d="M5.53017 226.991C5.53017 226.756 5.34411 226.57 5.1095 226.57H3.532C3.29739 226.57 3.11133 226.756 3.11133 226.991V230.575H5.53017V226.991Z" stroke="black" stroke-width="1.61796" stroke-linecap="round" stroke-linejoin="round"/>
<path d="M85.0282 226.991C85.0282 226.756 84.8422 226.57 84.6076 226.57H83.03C82.7954 226.57 82.6094 226.756 82.6094 226.991V230.575H85.0282V226.991Z" stroke="black" stroke-width="1.61796" stroke-linecap="round" stroke-linejoin="round"/>
<path d="M85.0207 210.766C85.0207 211.462 84.4544 212.028 83.7587 212.028H22.9964C22.3007 212.028 21.7344 211.462 21.7344 210.766V208.234H85.0207V210.766Z" stroke="black" stroke-width="1.61796" stroke-linecap="round" stroke-linejoin="round"/>
<path d="M63.6069 8.90562C63.6069 10.0705 62.6604 11.009 61.5035 11.009H6.71955C5.55463 11.009 4.61621 10.0705 4.61621 8.90562V5.96094H63.6069V8.90562Z" stroke="black" stroke-width="1.61796" stroke-linecap="round" stroke-linejoin="round"/>
<path d="M3.10334 1H65.4432C66.6081 1 67.5465 1.9465 67.5465 3.10334V3.94468C67.5465 5.10961 66.6 6.04802 65.4432 6.04802H3.10334C1.93841 6.04802 1 5.10152 1 3.94468V3.10334C1 1.93841 1.9465 1 3.10334 1Z" stroke="black" stroke-width="1.61796" stroke-linecap="round" stroke-linejoin="round"/>
<path d="M4.31641 226.569V212.031" stroke="black" stroke-width="1.61796" stroke-linecap="round" stroke-linejoin="round"/>
<path d="M64.2373 226.569V212.031" stroke="black" stroke-width="1.61796" stroke-linecap="round" stroke-linejoin="round"/>
<path d="M83.8232 226.569V212.031" stroke="black" stroke-width="1.61796" stroke-linecap="round" stroke-linejoin="round"/>
<path d="M41.6188 209.083H26.8711V21.6432C26.8711 17.5741 30.1717 14.2734 34.2409 14.2734C38.31 14.2734 41.6107 17.5741 41.6107 21.6432V209.083H41.6188Z" stroke="black" stroke-width="1.61796" stroke-linecap="round" stroke-linejoin="round"/>
<path d="M34.8724 14.2734H33.6104V89.0392H34.8724V14.2734Z" stroke="black" stroke-width="1.61796" stroke-linecap="round" stroke-linejoin="round"/>
<path d="M32.4853 83.6094H35.9963C36.3846 83.6094 36.7001 83.9249 36.7001 84.3132V85.6237C36.7001 86.012 36.3846 86.3356 35.9882 86.3356H32.4772C32.0889 86.3356 31.7734 86.0201 31.7734 85.6318V84.3213C31.7734 83.933 32.0889 83.6175 32.4772 83.6175L32.4853 83.6094Z" stroke="black" stroke-width="1.61796" stroke-linecap="round" stroke-linejoin="round"/>
<path d="M30.4951 86.3281H38.0024C38.6901 86.3281 39.2483 86.8863 39.2483 87.5739V103.624C39.2483 104.312 38.6901 104.878 37.9944 104.878H30.487C29.7994 104.878 29.2412 104.32 29.2412 103.632V87.582C29.2412 86.8944 29.7994 86.3281 30.4951 86.3281Z" stroke="black" stroke-width="1.61796" stroke-linecap="round" stroke-linejoin="round"/>
<path d="M37.9946 86.3281H30.4873C29.7916 86.3281 29.2334 86.8863 29.2334 87.5739V89.0301H39.2405V87.5739C39.2405 86.8863 38.6823 86.3281 37.9865 86.3281H37.9946Z" stroke="black" stroke-width="1.61796" stroke-linecap="round" stroke-linejoin="round"/>
<path d="M32.0078 92V100.688" stroke="black" stroke-width="1.61796" stroke-linecap="round" stroke-linejoin="round"/>
<path d="M34.2412 90.8672V99.5556" stroke="black" stroke-width="1.61796" stroke-linecap="round" stroke-linejoin="round"/>
<path d="M36.0127 222.195H40.187" stroke="black" stroke-width="1.61796" stroke-linecap="round" stroke-linejoin="round"/>
<path d="M28.2217 222.195H32.396" stroke="black" stroke-width="1.61796" stroke-linecap="round" stroke-linejoin="round"/>
<path d="M22.7532 19.5156H10.9502V35.3311H22.7532V19.5156Z" stroke="black" stroke-width="1.61796" stroke-linecap="round" stroke-linejoin="round"/>
<path d="M10.9583 35.3281C10.9583 35.3281 10.9502 35.3686 10.9502 35.3848C10.9502 37.1969 12.4225 38.6611 14.2266 38.6611H19.4768C21.2889 38.6611 22.7532 37.1969 22.7532 35.3848C22.7532 35.3686 22.7532 35.3524 22.7532 35.3281H10.9664H10.9583Z" stroke="black" stroke-width="1.61796" stroke-linecap="round" stroke-linejoin="round"/>
<path d="M16.8555 19.5156V35.3311" stroke="black" stroke-width="1.61796" stroke-linecap="round" stroke-linejoin="round"/>
<path d="M10.9502 27.4297H22.7613" stroke="black" stroke-width="1.61796" stroke-linecap="round" stroke-linejoin="round"/>
<path d="M12.6973 17.4609H21.0136" stroke="black" stroke-width="1.61796" stroke-linecap="round" stroke-linejoin="round"/>
<path d="M57.5315 19.5156H45.7285V35.3311H57.5315V19.5156Z" stroke="black" stroke-width="1.61796" stroke-linecap="round" stroke-linejoin="round"/>
<path d="M45.7366 35.3281C45.7366 35.3281 45.7285 35.3686 45.7285 35.3848C45.7285 37.1969 47.2009 38.6611 49.0049 38.6611H54.2551C56.0673 38.6611 57.5315 37.1969 57.5315 35.3848C57.5315 35.3686 57.5315 35.3524 57.5315 35.3281H45.7447H45.7366Z" stroke="black" stroke-width="1.61796" stroke-linecap="round" stroke-linejoin="round"/>
<path d="M51.6338 19.5156V35.3311" stroke="black" stroke-width="1.61796" stroke-linecap="round" stroke-linejoin="round"/>
<path d="M45.7285 27.4297H57.5396" stroke="black" stroke-width="1.61796" stroke-linecap="round" stroke-linejoin="round"/>
<path d="M47.4756 17.4609H55.7919" stroke="black" stroke-width="1.61796" stroke-linecap="round" stroke-linejoin="round"/>
<path d="M22.7532 46.3516H10.9502V62.1671H22.7532V46.3516Z" stroke="black" stroke-width="1.61796" stroke-linecap="round" stroke-linejoin="round"/>
<path d="M10.9583 62.1641C10.9583 62.1641 10.9502 62.2045 10.9502 62.2207C10.9502 64.0328 12.4225 65.497 14.2266 65.497H19.4768C21.2889 65.497 22.7532 64.0328 22.7532 62.2207C22.7532 62.2045 22.7532 62.1883 22.7532 62.1641H10.9664H10.9583Z" stroke="black" stroke-width="1.61796" stroke-linecap="round" stroke-linejoin="round"/>
<path d="M16.8555 46.3516V62.1671" stroke="black" stroke-width="1.61796" stroke-linecap="round" stroke-linejoin="round"/>
<path d="M10.9502 54.2578H22.7613" stroke="black" stroke-width="1.61796" stroke-linecap="round" stroke-linejoin="round"/>
<path d="M12.6973 44.2969H21.0136" stroke="black" stroke-width="1.61796" stroke-linecap="round" stroke-linejoin="round"/>
<path d="M57.5315 46.3516H45.7285V62.1671H57.5315V46.3516Z" stroke="black" stroke-width="1.61796" stroke-linecap="round" stroke-linejoin="round"/>
<path d="M45.7366 62.1641C45.7366 62.1641 45.7285 62.2045 45.7285 62.2207C45.7285 64.0328 47.2009 65.497 49.0049 65.497H54.2551C56.0673 65.497 57.5315 64.0328 57.5315 62.2207C57.5315 62.2045 57.5315 62.1883 57.5315 62.1641H45.7447H45.7366Z" stroke="black" stroke-width="1.61796" stroke-linecap="round" stroke-linejoin="round"/>
<path d="M51.6338 46.3516V62.1671" stroke="black" stroke-width="1.61796" stroke-linecap="round" stroke-linejoin="round"/>
<path d="M45.7285 54.2578H57.5396" stroke="black" stroke-width="1.61796" stroke-linecap="round" stroke-linejoin="round"/>
<path d="M47.4756 44.2969H55.7919" stroke="black" stroke-width="1.61796" stroke-linecap="round" stroke-linejoin="round"/>
<path d="M22.7532 73.1797H10.9502V88.9952H22.7532V73.1797Z" stroke="black" stroke-width="1.61796" stroke-linecap="round" stroke-linejoin="round"/>
<path d="M10.9583 88.9922C10.9583 88.9922 10.9502 89.0326 10.9502 89.0488C10.9502 90.8609 12.4225 92.3252 14.2266 92.3252H19.4768C21.2889 92.3252 22.7532 90.8609 22.7532 89.0488C22.7532 89.0326 22.7532 89.0165 22.7532 88.9922H10.9664H10.9583Z" stroke="black" stroke-width="1.61796" stroke-linecap="round" stroke-linejoin="round"/>
<path d="M16.8555 73.1797V88.9952" stroke="black" stroke-width="1.61796" stroke-linecap="round" stroke-linejoin="round"/>
<path d="M10.9502 81.0938H22.7613" stroke="black" stroke-width="1.61796" stroke-linecap="round" stroke-linejoin="round"/>
<path d="M12.6973 71.125H21.0136" stroke="black" stroke-width="1.61796" stroke-linecap="round" stroke-linejoin="round"/>
<path d="M57.5315 73.1797H45.7285V88.9952H57.5315V73.1797Z" stroke="black" stroke-width="1.61796" stroke-linecap="round" stroke-linejoin="round"/>
<path d="M45.7366 88.9922C45.7366 88.9922 45.7285 89.0326 45.7285 89.0488C45.7285 90.8609 47.2009 92.3252 49.0049 92.3252H54.2551C56.0673 92.3252 57.5315 90.8609 57.5315 89.0488C57.5315 89.0326 57.5315 89.0165 57.5315 88.9922H45.7447H45.7366Z" stroke="black" stroke-width="1.61796" stroke-linecap="round" stroke-linejoin="round"/>
<path d="M51.6338 73.1797V88.9952" stroke="black" stroke-width="1.61796" stroke-linecap="round" stroke-linejoin="round"/>
<path d="M45.7285 81.0938H57.5396" stroke="black" stroke-width="1.61796" stroke-linecap="round" stroke-linejoin="round"/>
<path d="M47.4756 71.125H55.7919" stroke="black" stroke-width="1.61796" stroke-linecap="round" stroke-linejoin="round"/>
<path d="M22.7532 100.008H10.9502V115.823H22.7532V100.008Z" stroke="black" stroke-width="1.61796" stroke-linecap="round" stroke-linejoin="round"/>
<path d="M10.9583 115.82C10.9583 115.82 10.9502 115.861 10.9502 115.877C10.9502 117.689 12.4225 119.153 14.2266 119.153H19.4768C21.2889 119.153 22.7532 117.689 22.7532 115.877C22.7532 115.861 22.7532 115.845 22.7532 115.82H10.9664H10.9583Z" stroke="black" stroke-width="1.61796" stroke-linecap="round" stroke-linejoin="round"/>
<path d="M16.8555 100.008V115.823" stroke="black" stroke-width="1.61796" stroke-linecap="round" stroke-linejoin="round"/>
<path d="M10.9502 107.914H22.7613" stroke="black" stroke-width="1.61796" stroke-linecap="round" stroke-linejoin="round"/>
<path d="M12.6973 97.9531H21.0136" stroke="black" stroke-width="1.61796" stroke-linecap="round" stroke-linejoin="round"/>
<path d="M57.5315 100.008H45.7285V115.823H57.5315V100.008Z" stroke="black" stroke-width="1.61796" stroke-linecap="round" stroke-linejoin="round"/>
<path d="M45.7366 115.82C45.7366 115.82 45.7285 115.861 45.7285 115.877C45.7285 117.689 47.2009 119.153 49.0049 119.153H54.2551C56.0673 119.153 57.5315 117.689 57.5315 115.877C57.5315 115.861 57.5315 115.845 57.5315 115.82H45.7447H45.7366Z" stroke="black" stroke-width="1.61796" stroke-linecap="round" stroke-linejoin="round"/>
<path d="M51.6338 100.008V115.823" stroke="black" stroke-width="1.61796" stroke-linecap="round" stroke-linejoin="round"/>
<path d="M45.7285 107.914H57.5396" stroke="black" stroke-width="1.61796" stroke-linecap="round" stroke-linejoin="round"/>
<path d="M47.4756 97.9531H55.7919" stroke="black" stroke-width="1.61796" stroke-linecap="round" stroke-linejoin="round"/>
<path d="M22.7532 126.844H10.9502V142.659H22.7532V126.844Z" stroke="black" stroke-width="1.61796" stroke-linecap="round" stroke-linejoin="round"/>
<path d="M10.9583 142.656C10.9583 142.656 10.9502 142.697 10.9502 142.713C10.9502 144.525 12.4225 145.989 14.2266 145.989H19.4768C21.2889 145.989 22.7532 144.525 22.7532 142.713C22.7532 142.697 22.7532 142.672 22.7532 142.656H10.9664H10.9583Z" stroke="black" stroke-width="1.61796" stroke-linecap="round" stroke-linejoin="round"/>
<path d="M16.8555 126.844V142.659" stroke="black" stroke-width="1.61796" stroke-linecap="round" stroke-linejoin="round"/>
<path d="M10.9502 134.75H22.7613" stroke="black" stroke-width="1.61796" stroke-linecap="round" stroke-linejoin="round"/>
<path d="M12.6973 124.781H21.0136" stroke="black" stroke-width="1.61796" stroke-linecap="round" stroke-linejoin="round"/>
<path d="M57.5315 126.844H45.7285V142.659H57.5315V126.844Z" stroke="black" stroke-width="1.61796" stroke-linecap="round" stroke-linejoin="round"/>
<path d="M45.7366 142.656C45.7366 142.656 45.7285 142.697 45.7285 142.713C45.7285 144.525 47.2009 145.989 49.0049 145.989H54.2551C56.0673 145.989 57.5315 144.525 57.5315 142.713C57.5315 142.697 57.5315 142.672 57.5315 142.656H45.7447H45.7366Z" stroke="black" stroke-width="1.61796" stroke-linecap="round" stroke-linejoin="round"/>
<path d="M51.6338 126.844V142.659" stroke="black" stroke-width="1.61796" stroke-linecap="round" stroke-linejoin="round"/>
<path d="M45.7285 134.75H57.5396" stroke="black" stroke-width="1.61796" stroke-linecap="round" stroke-linejoin="round"/>
<path d="M47.4756 124.781H55.7919" stroke="black" stroke-width="1.61796" stroke-linecap="round" stroke-linejoin="round"/>
<path d="M22.7532 153.672H10.9502V169.487H22.7532V153.672Z" stroke="black" stroke-width="1.61796" stroke-linecap="round" stroke-linejoin="round"/>
<path d="M10.9583 169.484C10.9583 169.484 10.9502 169.525 10.9502 169.541C10.9502 171.353 12.4225 172.817 14.2266 172.817H19.4768C21.2889 172.817 22.7532 171.353 22.7532 169.541C22.7532 169.525 22.7532 169.509 22.7532 169.484H10.9664H10.9583Z" stroke="black" stroke-width="1.61796" stroke-linecap="round" stroke-linejoin="round"/>
<path d="M16.8555 153.672V169.487" stroke="black" stroke-width="1.61796" stroke-linecap="round" stroke-linejoin="round"/>
<path d="M10.9502 161.586H22.7613" stroke="black" stroke-width="1.61796" stroke-linecap="round" stroke-linejoin="round"/>
<path d="M12.6973 151.617H21.0136" stroke="black" stroke-width="1.61796" stroke-linecap="round" stroke-linejoin="round"/>
<path d="M57.5315 153.672H45.7285V169.487H57.5315V153.672Z" stroke="black" stroke-width="1.61796" stroke-linecap="round" stroke-linejoin="round"/>
<path d="M45.7366 169.484C45.7366 169.484 45.7285 169.525 45.7285 169.541C45.7285 171.353 47.2009 172.817 49.0049 172.817H54.2551C56.0673 172.817 57.5315 171.353 57.5315 169.541C57.5315 169.525 57.5315 169.509 57.5315 169.484H45.7447H45.7366Z" stroke="black" stroke-width="1.61796" stroke-linecap="round" stroke-linejoin="round"/>
<path d="M51.6338 153.672V169.487" stroke="black" stroke-width="1.61796" stroke-linecap="round" stroke-linejoin="round"/>
<path d="M45.7285 161.586H57.5396" stroke="black" stroke-width="1.61796" stroke-linecap="round" stroke-linejoin="round"/>
<path d="M47.4756 151.617H55.7919" stroke="black" stroke-width="1.61796" stroke-linecap="round" stroke-linejoin="round"/>
<path d="M22.7532 180.508H10.9502V196.323H22.7532V180.508Z" stroke="black" stroke-width="1.61796" stroke-linecap="round" stroke-linejoin="round"/>
<path d="M10.9583 196.32C10.9583 196.32 10.9502 196.361 10.9502 196.377C10.9502 198.189 12.4225 199.653 14.2266 199.653H19.4768C21.2889 199.653 22.7532 198.189 22.7532 196.377C22.7532 196.361 22.7532 196.345 22.7532 196.32H10.9664H10.9583Z" stroke="black" stroke-width="1.61796" stroke-linecap="round" stroke-linejoin="round"/>
<path d="M16.8555 180.508V196.323" stroke="black" stroke-width="1.61796" stroke-linecap="round" stroke-linejoin="round"/>
<path d="M10.9502 188.414H22.7613" stroke="black" stroke-width="1.61796" stroke-linecap="round" stroke-linejoin="round"/>
<path d="M12.6973 178.453H21.0136" stroke="black" stroke-width="1.61796" stroke-linecap="round" stroke-linejoin="round"/>
<path d="M57.5315 180.508H45.7285V196.323H57.5315V180.508Z" stroke="black" stroke-width="1.61796" stroke-linecap="round" stroke-linejoin="round"/>
<path d="M45.7366 196.32C45.7366 196.32 45.7285 196.361 45.7285 196.377C45.7285 198.189 47.2009 199.653 49.0049 199.653H54.2551C56.0673 199.653 57.5315 198.189 57.5315 196.377C57.5315 196.361 57.5315 196.345 57.5315 196.32H45.7447H45.7366Z" stroke="black" stroke-width="1.61796" stroke-linecap="round" stroke-linejoin="round"/>
<path d="M51.6338 180.508V196.323" stroke="black" stroke-width="1.61796" stroke-linecap="round" stroke-linejoin="round"/>
<path d="M45.7285 188.414H57.5396" stroke="black" stroke-width="1.61796" stroke-linecap="round" stroke-linejoin="round"/>
<path d="M47.4756 178.453H55.7919" stroke="black" stroke-width="1.61796" stroke-linecap="round" stroke-linejoin="round"/>
<path d="M77.44 19.5156H65.6289V35.3311H77.44V19.5156Z" stroke="black" stroke-width="1.61796" stroke-linecap="round" stroke-linejoin="round"/>
<path d="M65.637 35.3281C65.637 35.3281 65.6289 35.3686 65.6289 35.3848C65.6289 37.1969 67.1012 38.6611 68.9053 38.6611H74.1555C75.9676 38.6611 77.4319 37.1969 77.4319 35.3848C77.4319 35.3686 77.4319 35.3524 77.4319 35.3281H65.6451H65.637Z" stroke="black" stroke-width="1.61796" stroke-linecap="round" stroke-linejoin="round"/>
<path d="M71.5342 19.5156V35.3311" stroke="black" stroke-width="1.61796" stroke-linecap="round" stroke-linejoin="round"/>
<path d="M65.6289 27.4297H77.4319" stroke="black" stroke-width="1.61796" stroke-linecap="round" stroke-linejoin="round"/>
<path d="M67.376 17.4609H75.6842" stroke="black" stroke-width="1.61796" stroke-linecap="round" stroke-linejoin="round"/>
<path d="M77.44 46.3516H65.6289V62.1671H77.44V46.3516Z" stroke="black" stroke-width="1.61796" stroke-linecap="round" stroke-linejoin="round"/>
<path d="M65.637 62.1641C65.637 62.1641 65.6289 62.2045 65.6289 62.2207C65.6289 64.0328 67.1012 65.497 68.9053 65.497H74.1555C75.9676 65.497 77.4319 64.0328 77.4319 62.2207C77.4319 62.2045 77.4319 62.1883 77.4319 62.1641H65.6451H65.637Z" stroke="black" stroke-width="1.61796" stroke-linecap="round" stroke-linejoin="round"/>
<path d="M71.5342 46.3516V62.1671" stroke="black" stroke-width="1.61796" stroke-linecap="round" stroke-linejoin="round"/>
<path d="M65.6289 54.2578H77.4319" stroke="black" stroke-width="1.61796" stroke-linecap="round" stroke-linejoin="round"/>
<path d="M67.376 44.2969H75.6842" stroke="black" stroke-width="1.61796" stroke-linecap="round" stroke-linejoin="round"/>
<path d="M77.44 73.1797H65.6289V88.9952H77.44V73.1797Z" stroke="black" stroke-width="1.61796" stroke-linecap="round" stroke-linejoin="round"/>
<path d="M65.637 88.9922C65.637 88.9922 65.6289 89.0326 65.6289 89.0488C65.6289 90.8609 67.1012 92.3252 68.9053 92.3252H74.1555C75.9676 92.3252 77.4319 90.8609 77.4319 89.0488C77.4319 89.0326 77.4319 89.0165 77.4319 88.9922H65.6451H65.637Z" stroke="black" stroke-width="1.61796" stroke-linecap="round" stroke-linejoin="round"/>
<path d="M71.5342 73.1797V88.9952" stroke="black" stroke-width="1.61796" stroke-linecap="round" stroke-linejoin="round"/>
<path d="M65.6289 81.0938H77.4319" stroke="black" stroke-width="1.61796" stroke-linecap="round" stroke-linejoin="round"/>
<path d="M67.376 71.125H75.6842" stroke="black" stroke-width="1.61796" stroke-linecap="round" stroke-linejoin="round"/>
<path d="M77.44 100.008H65.6289V115.823H77.44V100.008Z" stroke="black" stroke-width="1.61796" stroke-linecap="round" stroke-linejoin="round"/>
<path d="M65.637 115.82C65.637 115.82 65.6289 115.861 65.6289 115.877C65.6289 117.689 67.1012 119.153 68.9053 119.153H74.1555C75.9676 119.153 77.4319 117.689 77.4319 115.877C77.4319 115.861 77.4319 115.845 77.4319 115.82H65.6451H65.637Z" stroke="black" stroke-width="1.61796" stroke-linecap="round" stroke-linejoin="round"/>
<path d="M71.5342 100.008V115.823" stroke="black" stroke-width="1.61796" stroke-linecap="round" stroke-linejoin="round"/>
<path d="M65.6289 107.914H77.4319" stroke="black" stroke-width="1.61796" stroke-linecap="round" stroke-linejoin="round"/>
<path d="M67.376 97.9531H75.6842" stroke="black" stroke-width="1.61796" stroke-linecap="round" stroke-linejoin="round"/>
<path d="M77.44 126.844H65.6289V142.659H77.44V126.844Z" stroke="black" stroke-width="1.61796" stroke-linecap="round" stroke-linejoin="round"/>
<path d="M65.637 142.656C65.637 142.656 65.6289 142.697 65.6289 142.713C65.6289 144.525 67.1012 145.989 68.9053 145.989H74.1555C75.9676 145.989 77.4319 144.525 77.4319 142.713C77.4319 142.697 77.4319 142.672 77.4319 142.656H65.6451H65.637Z" stroke="black" stroke-width="1.61796" stroke-linecap="round" stroke-linejoin="round"/>
<path d="M71.5342 126.844V142.659" stroke="black" stroke-width="1.61796" stroke-linecap="round" stroke-linejoin="round"/>
<path d="M65.6289 134.75H77.4319" stroke="black" stroke-width="1.61796" stroke-linecap="round" stroke-linejoin="round"/>
<path d="M67.376 124.781H75.6842" stroke="black" stroke-width="1.61796" stroke-linecap="round" stroke-linejoin="round"/>
<path d="M77.44 153.672H65.6289V169.487H77.44V153.672Z" stroke="black" stroke-width="1.61796" stroke-linecap="round" stroke-linejoin="round"/>
<path d="M65.637 169.484C65.637 169.484 65.6289 169.525 65.6289 169.541C65.6289 171.353 67.1012 172.817 68.9053 172.817H74.1555C75.9676 172.817 77.4319 171.353 77.4319 169.541C77.4319 169.525 77.4319 169.509 77.4319 169.484H65.6451H65.637Z" stroke="black" stroke-width="1.61796" stroke-linecap="round" stroke-linejoin="round"/>
<path d="M71.5342 153.672V169.487" stroke="black" stroke-width="1.61796" stroke-linecap="round" stroke-linejoin="round"/>
<path d="M65.6289 161.586H77.4319" stroke="black" stroke-width="1.61796" stroke-linecap="round" stroke-linejoin="round"/>
<path d="M67.376 151.617H75.6842" stroke="black" stroke-width="1.61796" stroke-linecap="round" stroke-linejoin="round"/>
<path d="M77.44 180.508H65.6289V196.323H77.44V180.508Z" stroke="black" stroke-width="1.61796" stroke-linecap="round" stroke-linejoin="round"/>
<path d="M65.637 196.32C65.637 196.32 65.6289 196.361 65.6289 196.377C65.6289 198.189 67.1012 199.653 68.9053 199.653H74.1555C75.9676 199.653 77.4319 198.189 77.4319 196.377C77.4319 196.361 77.4319 196.345 77.4319 196.32H65.6451H65.637Z" stroke="black" stroke-width="1.61796" stroke-linecap="round" stroke-linejoin="round"/>
<path d="M71.5342 180.508V196.323" stroke="black" stroke-width="1.61796" stroke-linecap="round" stroke-linejoin="round"/>
<path d="M65.6289 188.414H77.4319" stroke="black" stroke-width="1.61796" stroke-linecap="round" stroke-linejoin="round"/>
<path d="M67.376 178.453H75.6842" stroke="black" stroke-width="1.61796" stroke-linecap="round" stroke-linejoin="round"/>
<path d="M65.9771 210.766C65.9771 211.462 65.4108 212.028 64.7151 212.028H3.94462C3.2489 212.028 2.68262 211.462 2.68262 210.766V208.234H65.969V210.766H65.9771Z" stroke="black" stroke-width="1.61796" stroke-linecap="round" stroke-linejoin="round"/>
</svg>
