<svg width="163" height="164" viewBox="0 0 163 164" fill="none" xmlns="http://www.w3.org/2000/svg">
<path d="M160.818 32.6915C162.11 30.1941 162.853 27.3864 162.853 24.3766C162.853 15.744 156.754 8.4828 148.641 6.7289L146.938 3.09101C146.036 1.18559 143.762 0.355392 141.856 1.24324L135.223 4.31091C134.278 4.73677 133.578 5.50908 133.231 6.45469C133.044 6.93829 132.971 7.47241 132.993 7.97044L119.323 14.3077C118.211 13.2756 116.551 12.958 115.093 13.622L108.46 16.7113C107.536 17.1155 106.836 17.9095 106.468 18.8551C106.114 19.8151 106.172 20.8472 106.612 21.7567L107.074 22.8105L42.2135 57.9402C41.7516 57.9619 41.2896 58.0485 40.8638 58.2578L34.1584 61.3615C33.3067 61.7657 32.6427 62.4875 32.3106 63.397C31.9209 64.4508 31.9786 65.6851 32.5128 66.7749L33.4006 68.6587L11.9128 78.6193C10.5054 76.3312 7.5316 75.3641 5.04136 76.5478L3.33794 77.3273C2.04594 77.9336 1.02823 79.0307 0.530256 80.3732C0.0466575 81.7229 0.104401 83.2025 0.717915 84.5091L5.79928 95.3359C6.72316 97.2919 8.6648 98.4396 10.7147 98.4396C11.4943 98.4396 12.2665 98.2736 12.9884 97.9416L14.6702 97.162H14.6918C15.9838 96.5557 17.0015 95.4586 17.4995 94.1161C17.9037 92.9541 17.9037 91.7342 17.5212 90.5649L39.0089 80.6043L39.8967 82.5098C40.6329 84.0977 42.1487 85.0576 43.6498 85.0576C44.1334 85.0576 44.6459 84.9494 45.0934 84.7256L51.7988 81.6219C52.2246 81.4198 52.6144 81.1383 52.9464 80.7919L77.9283 71.0188V98.1071C74.9689 99.825 72.8829 102.914 72.5727 106.494L51.0425 152.646H43.6298C42.1718 152.646 40.7859 153.216 39.826 154.22C38.6783 155.346 38.1081 156.919 38.238 158.543C38.4618 161.329 40.9158 163.494 43.8174 163.494H51.5261C53.1356 163.494 54.7381 163.09 56.1671 162.347C58.1448 161.329 59.7328 159.669 60.6422 157.67L77.9362 120.605V158.06C77.9362 161.033 80.3758 163.473 83.3496 163.473C86.3234 163.473 88.7631 161.033 88.7631 158.06V120.916L105.855 157.539C106.815 159.624 108.497 161.342 110.547 162.396C111.997 163.103 113.585 163.493 115.195 163.493H123.12C124.578 163.493 125.964 162.923 126.924 161.92C127.812 161.054 128.367 159.884 128.497 158.65C128.663 157.17 128.165 155.749 127.169 154.601C126.043 153.359 124.455 152.645 122.774 152.645H115.549L94.1698 106.863C93.9461 103.131 91.8385 99.9119 88.7925 98.1218V66.804L121.699 53.9635L122.183 55.0173C122.833 56.3815 124.218 57.1971 125.655 57.1971C126.189 57.1971 126.745 57.0888 127.264 56.8434L133.897 53.7757C134.821 53.3499 135.521 52.5559 135.89 51.6103C136.077 51.1267 136.149 50.6143 136.113 50.1163L149.827 43.7573C150.549 44.4069 151.451 44.8111 152.433 44.8111C152.967 44.8111 153.523 44.6812 154.043 44.443L160.676 41.3754C161.6 40.9495 162.3 40.1772 162.653 39.2316C163.021 38.2716 162.971 37.2179 162.523 36.3156L160.818 32.6915ZM14.1436 92.8734C13.9776 93.3137 13.66 93.689 13.1981 93.8911L11.5163 94.6851C10.6141 95.0893 9.52424 94.7067 9.11274 93.8189L4.03138 82.9921C3.82929 82.5662 3.80763 82.0682 3.97364 81.6424C4.13965 81.2021 4.45723 80.8267 4.91918 80.6246L6.60094 79.8307C6.83914 79.7224 7.09897 79.6647 7.35882 79.6647C8.04451 79.6647 8.68691 80.0544 9.00448 80.6968L9.50251 81.7867L11.538 86.1319L14.0859 91.5309C14.288 91.9495 14.3096 92.4259 14.1436 92.8734ZM16.0781 87.294L13.5446 81.895L34.9824 71.9561L37.4943 77.3335L37.5159 77.3551L16.0781 87.294ZM50.284 78.3656L43.6725 81.4333C43.6147 81.4333 43.3549 81.3034 43.2105 80.9713L35.8411 65.2437C35.675 64.9117 35.7472 64.6518 35.7328 64.6374L42.3877 61.5481C42.4455 61.5481 42.7053 61.678 42.8497 62.0101L50.2191 77.7377C50.3418 78.0553 50.2984 78.2934 50.284 78.3656ZM57.4008 156.16C56.809 157.438 55.7768 158.506 54.5353 159.156C53.6114 159.618 52.5937 159.878 51.5615 159.878H43.8528C42.8207 159.878 41.9328 159.141 41.8391 158.232C41.803 157.698 41.9835 157.178 42.3949 156.788C42.7269 156.435 43.1528 156.269 43.6364 156.269H52.1895C52.8896 156.269 53.5176 155.864 53.8352 155.215L73.7708 112.493C74.3987 113.712 75.2648 114.766 76.2826 115.654L57.4008 156.16ZM85.1894 158.08C85.1894 159.076 84.3738 159.892 83.3777 159.892C82.3817 159.892 81.5661 159.076 81.5661 158.08V118.165C82.1579 118.259 82.7642 118.331 83.3777 118.331C83.984 118.331 84.5976 118.259 85.1894 118.165V158.08ZM92.8909 112.644L112.754 155.215C113.072 155.842 113.7 156.268 114.4 156.268H122.787C123.437 156.268 124.065 156.564 124.491 157.005C124.729 157.279 124.989 157.69 124.931 158.26C124.873 158.665 124.693 159.04 124.375 159.35C124.043 159.704 123.617 159.87 123.134 159.87H115.194C114.162 159.87 113.144 159.61 112.22 159.17C110.892 158.506 109.802 157.38 109.174 156.03L90.3789 115.747C91.3966 114.895 92.2629 113.842 92.8909 112.644ZM90.6028 107.49C90.6028 111.482 87.3692 114.715 83.3777 114.715C79.3861 114.715 76.1525 111.482 76.1525 107.49C76.1525 103.499 79.3861 100.265 83.3777 100.265C87.3692 100.265 90.6028 103.499 90.6028 107.49ZM83.3777 56.8927C81.3856 56.8927 79.7544 55.2687 79.7544 53.2694C79.7544 51.2773 81.3784 49.6461 83.3777 49.6461C85.3698 49.6461 87.001 51.2701 87.001 53.2694C86.9793 55.2687 85.3553 56.8927 83.3777 56.8927ZM85.1894 60.2562V96.8069C84.5975 96.7131 83.9912 96.6409 83.3777 96.6409C82.7714 96.6409 82.1579 96.7131 81.566 96.8069V60.2562C82.1362 60.4005 82.7497 60.516 83.3777 60.516C84.0056 60.516 84.5975 60.4078 85.1894 60.2562ZM88.791 62.8979V58.0043C89.9026 56.7267 90.6027 55.1028 90.6027 53.2766C90.6027 49.2851 87.3691 46.0515 83.3776 46.0515C79.386 46.0515 76.1524 49.2851 76.1524 53.2766C76.1524 55.1027 76.8526 56.734 77.9641 58.0043V67.1493L53.6253 76.6479C53.5676 76.5036 53.5315 76.352 53.4593 76.2221L46.0898 60.4944C46.0321 60.3501 45.9455 60.2346 45.8661 60.0902L108.633 26.1079L120.16 50.6629L88.791 62.8979ZM132.38 50.4831L125.747 53.5508C125.639 53.6086 125.509 53.5725 125.451 53.457L109.889 20.2544L109.983 19.9946L116.616 16.9269C116.652 16.9053 116.688 16.9053 116.71 16.9053C116.804 16.9053 116.876 16.9414 116.912 17.0135L132.488 50.3676C132.474 50.4254 132.438 50.4615 132.38 50.4831ZM134.82 46.6937L121.127 17.4824L134.3 11.3688L137.923 19.0775L148.028 40.6225L134.82 46.6937ZM159.114 38.0684L152.481 41.1576C152.373 41.1937 152.243 41.1576 152.207 41.0494L136.645 7.8542L136.753 7.57992L143.386 4.51225C143.408 4.4906 143.444 4.4906 143.48 4.4906C143.552 4.4906 143.646 4.52669 143.682 4.62052L159.244 37.9524C159.208 38.0102 159.172 38.0467 159.114 38.0684ZM158.731 28.2016L150.77 11.2181C155.779 13.4917 159.273 18.5153 159.273 24.3762C159.244 25.7043 159.042 26.9963 158.731 28.2016Z" fill="black"/>
</svg>
