<svg width="383" height="198" viewBox="0 0 383 198" fill="none" xmlns="http://www.w3.org/2000/svg">
<path d="M169.424 51.3934L144.031 8.15552L362.444 104.983L362.986 112.046L169.424 112.476V51.3934Z" stroke="black" stroke-width="1.43877" stroke-linejoin="round"/>
<path d="M105.726 190.188H26.0704L22.9873 97.0975L133.679 45.3391L168.546 82.4855L169.181 190.188H105.726Z" stroke="black" stroke-width="1.43877" stroke-miterlimit="10"/>
<path d="M1.21912 107.281L133.679 45.3391L167.201 81.8129H161.483L134.296 53.1122L4.28351 113.204L1.21912 107.281Z" stroke="black" stroke-width="1.43877" stroke-miterlimit="10"/>
<path d="M357.903 103.115H116.433H105.801V113.335V196.336H116.433V113.335H362.986V105.413L357.903 103.115Z" stroke="black" stroke-width="1.43877" stroke-miterlimit="10"/>
<path d="M285.292 113.634H116.433V196.317H285.292V113.634Z" stroke="black" stroke-width="1.43877" stroke-miterlimit="10"/>
<path d="M170.041 81.8318H136.033L118.656 60.979V94.706H169.424" stroke="black" stroke-width="1.43877" stroke-linejoin="round"/>
<path d="M98.8499 131.721H46.9233V180.789H98.8499V131.721Z" stroke="black" stroke-width="1.43877" stroke-miterlimit="10"/>
<path d="M60.4141 131.721V180.378" stroke="black" stroke-width="1.43877" stroke-miterlimit="10"/>
<path d="M72.8958 131.721V180.378" stroke="black" stroke-width="1.43877" stroke-miterlimit="10"/>
<path d="M85.3591 131.721V180.378" stroke="black" stroke-width="1.43877" stroke-miterlimit="10"/>
<path d="M276.099 131.721H224.173V180.789H276.099V131.721Z" stroke="black" stroke-width="1.43877" stroke-miterlimit="10"/>
<path d="M237.663 131.721V180.378" stroke="black" stroke-width="1.43877" stroke-miterlimit="10"/>
<path d="M250.126 131.721V180.378" stroke="black" stroke-width="1.43877" stroke-miterlimit="10"/>
<path d="M262.608 131.721V180.378" stroke="black" stroke-width="1.43877" stroke-miterlimit="10"/>
<path d="M214.867 196.018H169.181V28.074L214.867 51.2251V196.018Z" stroke="black" stroke-width="1.43877" stroke-miterlimit="10"/>
<path d="M26.0707 134.188H46.9235" stroke="black" stroke-width="1.4014" stroke-miterlimit="10"/>
<path d="M26.0707 136.841H46.9235" stroke="black" stroke-width="1.4014" stroke-miterlimit="10"/>
<path d="M26.0707 139.495H46.9235" stroke="black" stroke-width="1.4014" stroke-miterlimit="10"/>
<path d="M26.0707 142.148H46.9235" stroke="black" stroke-width="1.4014" stroke-miterlimit="10"/>
<path d="M26.0707 144.82H46.9235" stroke="black" stroke-width="1.4014" stroke-miterlimit="10"/>
<path d="M26.0707 147.473H46.9235" stroke="black" stroke-width="1.4014" stroke-miterlimit="10"/>
<path d="M26.0707 150.126H46.9235" stroke="black" stroke-width="1.4014" stroke-miterlimit="10"/>
<path d="M26.0707 152.78H46.9235" stroke="black" stroke-width="1.4014" stroke-miterlimit="10"/>
<path d="M26.0707 155.452H46.9235" stroke="black" stroke-width="1.4014" stroke-miterlimit="10"/>
<path d="M26.0707 158.105H46.9235" stroke="black" stroke-width="1.4014" stroke-miterlimit="10"/>
<path d="M26.0707 160.758H46.9235" stroke="black" stroke-width="1.4014" stroke-miterlimit="10"/>
<path d="M26.0707 163.412H46.9235" stroke="black" stroke-width="1.4014" stroke-miterlimit="10"/>
<path d="M26.0707 166.065H46.9235" stroke="black" stroke-width="1.4014" stroke-miterlimit="10"/>
<path d="M26.0707 168.737H46.9235" stroke="black" stroke-width="1.4014" stroke-miterlimit="10"/>
<path d="M26.0707 171.39H46.9235" stroke="black" stroke-width="1.4014" stroke-miterlimit="10"/>
<path d="M26.0707 174.044H46.9235" stroke="black" stroke-width="1.4014" stroke-miterlimit="10"/>
<path d="M26.0707 176.697H46.9235" stroke="black" stroke-width="1.4014" stroke-miterlimit="10"/>
<path d="M169.555 53.168H214.998" stroke="black" stroke-width="1.4014" stroke-miterlimit="10"/>
<path d="M169.555 50.1226H211.205" stroke="black" stroke-width="1.4014" stroke-miterlimit="10"/>
<path d="M169.611 47.5065L205.954 47.4504" stroke="black" stroke-width="1.4014" stroke-miterlimit="10"/>
<path d="M169.611 44.8906H201.021" stroke="black" stroke-width="1.4014" stroke-miterlimit="10"/>
<path d="M169.611 42.5176H196.35" stroke="black" stroke-width="1.4014" stroke-miterlimit="10"/>
<path d="M169.611 40.1445H191.567" stroke="black" stroke-width="1.4014" stroke-miterlimit="10"/>
<path d="M169.611 38.0142H187.362" stroke="black" stroke-width="1.4014" stroke-miterlimit="10"/>
<path d="M169.051 35.6973H182.953" stroke="black" stroke-width="1.4014" stroke-miterlimit="10"/>
<path d="M169.462 33.2498H178.244" stroke="black" stroke-width="1.4014" stroke-miterlimit="10"/>
<path d="M169.462 30.8579H173.423" stroke="black" stroke-width="1.4014" stroke-miterlimit="10"/>
<path d="M169.555 56.1018H214.998" stroke="black" stroke-width="1.4014" stroke-miterlimit="10"/>
<path d="M169.555 59.0352H214.998" stroke="black" stroke-width="1.4014" stroke-miterlimit="10"/>
<path d="M169.555 61.969H214.998" stroke="black" stroke-width="1.4014" stroke-miterlimit="10"/>
<path d="M169.555 64.9026H214.998" stroke="black" stroke-width="1.4014" stroke-miterlimit="10"/>
<path d="M169.555 67.8362H214.998" stroke="black" stroke-width="1.4014" stroke-miterlimit="10"/>
<path d="M169.555 70.751H214.998" stroke="black" stroke-width="1.4014" stroke-miterlimit="10"/>
<path d="M169.555 73.6848H214.998" stroke="black" stroke-width="1.4014" stroke-miterlimit="10"/>
<path d="M169.555 76.6182H214.998" stroke="black" stroke-width="1.4014" stroke-miterlimit="10"/>
<path d="M169.555 79.552H214.998" stroke="black" stroke-width="1.4014" stroke-miterlimit="10"/>
<path d="M169.555 82.4854H214.998" stroke="black" stroke-width="1.4014" stroke-miterlimit="10"/>
<path d="M169.555 85.4189H214.998" stroke="black" stroke-width="1.4014" stroke-miterlimit="10"/>
<path d="M169.555 88.3528H214.998" stroke="black" stroke-width="1.4014" stroke-miterlimit="10"/>
<path d="M169.555 91.2861H214.998" stroke="black" stroke-width="1.4014" stroke-miterlimit="10"/>
<path d="M169.555 94.2012H214.998" stroke="black" stroke-width="1.4014" stroke-miterlimit="10"/>
<path d="M169.555 97.2468H214.998" stroke="black" stroke-width="1.4014" stroke-miterlimit="10"/>
<path d="M169.555 100.18H214.998" stroke="black" stroke-width="1.4014" stroke-miterlimit="10"/>
<path d="M169.555 103.114H214.998" stroke="black" stroke-width="1.4014" stroke-miterlimit="10"/>
<path d="M169.555 106.048H214.998" stroke="black" stroke-width="1.4014" stroke-miterlimit="10"/>
<path d="M169.555 108.981H214.998" stroke="black" stroke-width="1.4014" stroke-miterlimit="10"/>
<path d="M169.555 111.915H214.998" stroke="black" stroke-width="1.4014" stroke-miterlimit="10"/>
<path d="M169.555 114.848H214.998" stroke="black" stroke-width="1.4014" stroke-miterlimit="10"/>
<path d="M169.555 117.782H214.998" stroke="black" stroke-width="1.4014" stroke-miterlimit="10"/>
<path d="M169.611 120.697H214.998" stroke="black" stroke-width="1.4014" stroke-miterlimit="10"/>
<path d="M169.611 123.631H214.68" stroke="black" stroke-width="1.4014" stroke-miterlimit="10"/>
<path d="M169.611 126.564H214.68" stroke="black" stroke-width="1.4014" stroke-miterlimit="10"/>
<path d="M169.611 129.498H214.68" stroke="black" stroke-width="1.4014" stroke-miterlimit="10"/>
<path d="M169.611 132.431H214.68" stroke="black" stroke-width="1.4014" stroke-miterlimit="10"/>
<path d="M169.611 135.365H214.68" stroke="black" stroke-width="1.4014" stroke-miterlimit="10"/>
<path d="M169.611 138.299H214.68" stroke="black" stroke-width="1.4014" stroke-miterlimit="10"/>
<path d="M169.611 141.232H214.68" stroke="black" stroke-width="1.4014" stroke-miterlimit="10"/>
<path d="M169.611 144.166H214.68" stroke="black" stroke-width="1.4014" stroke-miterlimit="10"/>
<path d="M169.611 147.081H214.68" stroke="black" stroke-width="1.4014" stroke-miterlimit="10"/>
<path d="M169.611 150.014H214.68" stroke="black" stroke-width="1.4014" stroke-miterlimit="10"/>
<path d="M169.611 152.948H214.68" stroke="black" stroke-width="1.4014" stroke-miterlimit="10"/>
<path d="M169.611 155.881H214.68" stroke="black" stroke-width="1.4014" stroke-miterlimit="10"/>
<path d="M169.611 158.815H214.68" stroke="black" stroke-width="1.4014" stroke-miterlimit="10"/>
<path d="M169.611 161.749H214.68" stroke="black" stroke-width="1.4014" stroke-miterlimit="10"/>
<path d="M169.611 164.682H214.68" stroke="black" stroke-width="1.4014" stroke-miterlimit="10"/>
<path d="M169.611 167.616H214.68" stroke="black" stroke-width="1.4014" stroke-miterlimit="10"/>
<path d="M169.611 170.531H214.68" stroke="black" stroke-width="1.4014" stroke-miterlimit="10"/>
<path d="M169.611 173.464H214.68" stroke="black" stroke-width="1.4014" stroke-miterlimit="10"/>
<path d="M169.611 176.398H214.68" stroke="black" stroke-width="1.4014" stroke-miterlimit="10"/>
<path d="M169.611 179.331H214.68" stroke="black" stroke-width="1.4014" stroke-miterlimit="10"/>
<path d="M169.611 182.265H214.68" stroke="black" stroke-width="1.4014" stroke-miterlimit="10"/>
<path d="M169.611 185.311H214.68" stroke="black" stroke-width="1.4014" stroke-miterlimit="10"/>
<path d="M169.611 188.244H214.68" stroke="black" stroke-width="1.4014" stroke-miterlimit="10"/>
<path d="M169.611 191.178H214.68" stroke="black" stroke-width="1.4014" stroke-miterlimit="10"/>
<path d="M169.611 194.112H214.68" stroke="black" stroke-width="1.4014" stroke-miterlimit="10"/>
<path d="M224.06 64.8843V97.6957H275.277V88.8015L224.06 64.8843Z" stroke="black" stroke-width="1.43877" stroke-miterlimit="10"/>
<path d="M144.031 8.15531L381.988 113.634V107.206L144.031 1.40991V8.15531Z" stroke="black" stroke-width="1.43877" stroke-linejoin="round"/>
<path d="M166.435 135.403H132.39V162.085H166.435V135.403Z" stroke="black" stroke-width="1.43877" stroke-miterlimit="10"/>
<path d="M362.967 113.279H355.923V188.45H362.967V113.279Z" stroke="black" stroke-width="1.43877" stroke-miterlimit="10"/>
<path d="M364.518 188.488H354.091V191.87H364.518V188.488Z" stroke="black" stroke-width="1.43877" stroke-miterlimit="10"/>
<path d="M335.574 113.335H328.53V175.894H335.574V113.335Z" stroke="black" stroke-width="1.43877" stroke-miterlimit="10"/>
<path d="M337.125 175.912H326.699V179.294H337.125V175.912Z" stroke="black" stroke-width="1.43877" stroke-miterlimit="10"/>
<path d="M318.403 113.279H311.358V169.13H318.403V113.279Z" stroke="black" stroke-width="1.43877" stroke-miterlimit="10"/>
<path d="M319.953 169.129H309.527V172.511H319.953V169.129Z" stroke="black" stroke-width="1.43877" stroke-miterlimit="10"/>
<path d="M187.269 37.2673V196.018H198.013L198.032 42.7048L187.269 37.2673Z" stroke="black" stroke-width="1.43877" stroke-miterlimit="10"/>
</svg>
