<svg width="315" height="264" viewBox="0 0 315 264" fill="none" xmlns="http://www.w3.org/2000/svg">
<path d="M261.654 154.052H88.119V17.3306L261.654 61.7736V154.052Z" stroke="black" stroke-width="2.10193"/>
<path d="M300.438 62.7558L70.098 1.94043L66.4547 15.7397L296.794 76.555L300.438 62.7558Z" stroke="black" stroke-width="1.61849" stroke-miterlimit="10"/>
<path d="M90.0949 262.533H83.9993V20.3281L90.0949 21.9466V262.533Z" stroke="black" stroke-width="1.61849" stroke-miterlimit="10"/>
<path d="M265.711 161.283H259.678V66.7595L265.711 68.336V161.283Z" stroke="black" stroke-width="1.61849" stroke-miterlimit="10"/>
<path d="M265.711 161.283H90.0946V172.801H265.711V161.283Z" stroke="black" stroke-width="1.61849" stroke-miterlimit="10"/>
<path d="M83.9991 72.7922H22.4546V168.703H83.9991V72.7922Z" stroke="black" stroke-width="1.61849" stroke-miterlimit="10"/>
<path d="M12.1549 91.3103V98.3097H74.309V148.945H12.1549V155.104H80.909V91.3103H12.1549Z" stroke="black" stroke-width="1.61849" stroke-miterlimit="10"/>
<path d="M62.3699 98.3091H59.9106V148.945H62.3699V98.3091Z" stroke="black" stroke-width="1.61849" stroke-miterlimit="10"/>
<path d="M59.8896 118.488V116.911H29.7059V118.488H59.8896Z" stroke="black" stroke-width="1.61849" stroke-miterlimit="10"/>
<path d="M59.8896 134.525V132.949H29.7059V134.525H59.8896Z" stroke="black" stroke-width="1.61849" stroke-miterlimit="10"/>
<path d="M90.3676 123.406H259.405" stroke="black" stroke-width="1.61849" stroke-miterlimit="10"/>
<path d="M93.9413 123.385V161.199" stroke="black" stroke-width="1.61849" stroke-miterlimit="10"/>
<path d="M99.1541 123.385V161.199" stroke="black" stroke-width="1.61849" stroke-miterlimit="10"/>
<path d="M104.367 123.385V161.199" stroke="black" stroke-width="1.61849" stroke-miterlimit="10"/>
<path d="M109.579 123.385V161.199" stroke="black" stroke-width="1.61849" stroke-miterlimit="10"/>
<path d="M114.792 123.385V161.199" stroke="black" stroke-width="1.61849" stroke-miterlimit="10"/>
<path d="M120.005 123.385V161.199" stroke="black" stroke-width="1.61849" stroke-miterlimit="10"/>
<path d="M125.218 123.385V161.199" stroke="black" stroke-width="1.61849" stroke-miterlimit="10"/>
<path d="M130.431 123.385V161.199" stroke="black" stroke-width="1.61849" stroke-miterlimit="10"/>
<path d="M135.644 123.385V161.199" stroke="black" stroke-width="1.61849" stroke-miterlimit="10"/>
<path d="M140.856 123.385V161.199" stroke="black" stroke-width="1.61849" stroke-miterlimit="10"/>
<path d="M146.069 123.385V161.199" stroke="black" stroke-width="1.61849" stroke-miterlimit="10"/>
<path d="M151.282 123.385V161.199" stroke="black" stroke-width="1.61849" stroke-miterlimit="10"/>
<path d="M156.495 123.385V161.199" stroke="black" stroke-width="1.61849" stroke-miterlimit="10"/>
<path d="M161.708 123.385V161.199" stroke="black" stroke-width="1.61849" stroke-miterlimit="10"/>
<path d="M166.92 123.385V161.199" stroke="black" stroke-width="1.61849" stroke-miterlimit="10"/>
<path d="M172.154 123.385V161.199" stroke="black" stroke-width="1.61849" stroke-miterlimit="10"/>
<path d="M177.367 123.385V161.199" stroke="black" stroke-width="1.61849" stroke-miterlimit="10"/>
<path d="M182.58 123.385V161.199" stroke="black" stroke-width="1.61849" stroke-miterlimit="10"/>
<path d="M187.792 123.385V161.199" stroke="black" stroke-width="1.61849" stroke-miterlimit="10"/>
<path d="M193.005 123.385V161.199" stroke="black" stroke-width="1.61849" stroke-miterlimit="10"/>
<path d="M198.218 123.385V161.199" stroke="black" stroke-width="1.61849" stroke-miterlimit="10"/>
<path d="M203.431 123.385V161.199" stroke="black" stroke-width="1.61849" stroke-miterlimit="10"/>
<path d="M208.643 123.385V161.199" stroke="black" stroke-width="1.61849" stroke-miterlimit="10"/>
<path d="M213.856 123.385V161.199" stroke="black" stroke-width="1.61849" stroke-miterlimit="10"/>
<path d="M219.069 123.385V161.199" stroke="black" stroke-width="1.61849" stroke-miterlimit="10"/>
<path d="M224.282 123.385V161.199" stroke="black" stroke-width="1.61849" stroke-miterlimit="10"/>
<path d="M229.495 123.385V161.199" stroke="black" stroke-width="1.61849" stroke-miterlimit="10"/>
<path d="M234.707 123.385V161.199" stroke="black" stroke-width="1.61849" stroke-miterlimit="10"/>
<path d="M239.92 123.385V161.199" stroke="black" stroke-width="1.61849" stroke-miterlimit="10"/>
<path d="M245.133 123.385V161.199" stroke="black" stroke-width="1.61849" stroke-miterlimit="10"/>
<path d="M250.346 123.385V161.199" stroke="black" stroke-width="1.61849" stroke-miterlimit="10"/>
<path d="M255.559 123.385V161.199" stroke="black" stroke-width="1.61849" stroke-miterlimit="10"/>
<path d="M90.0946 262.533L90.1366 262.953H109.727V189.68H277.65V152.644H265.711L90.0946 152.518V262.533Z" stroke="black" stroke-width="1.61849" stroke-miterlimit="10"/>
<path d="M277.671 189.68H109.727V261.713H277.671V189.68Z" stroke="black" stroke-width="1.61849" stroke-miterlimit="10"/>
<path d="M313.467 142.345H277.608V262.533H313.467V142.345Z" stroke="black" stroke-width="1.61849" stroke-miterlimit="10"/>
<path d="M297.954 202.985C296.063 202.985 294.528 201.451 294.528 199.559V194.073C294.528 192.181 296.063 190.647 297.954 190.647C299.846 190.647 301.381 192.181 301.381 194.073V199.559C301.381 201.451 299.846 202.985 297.954 202.985Z" stroke="black" stroke-width="1.61849" stroke-miterlimit="10"/>
<path d="M83.9988 168.682H1.05664V186.779H83.9988V168.682Z" stroke="black" stroke-width="1.61849" stroke-miterlimit="10"/>
<path d="M16.6952 186.8H9.6958V263.163H16.6952V186.8Z" stroke="black" stroke-width="1.61849" stroke-miterlimit="10"/>
<path d="M83.9992 186.8H20.3948V258.434H83.9992V186.8Z" stroke="black" stroke-width="1.61849" stroke-miterlimit="10"/>
<path d="M20.6678 191.719H83.999" stroke="black" stroke-width="1.61849" stroke-miterlimit="10"/>
<path d="M74.1829 191.719H32.2074V258.371H74.1829V191.719Z" stroke="black" stroke-width="1.61849" stroke-miterlimit="10"/>
<path d="M68.4028 202.713H37.1261V207.379H68.4028V202.713Z" stroke="black" stroke-width="1.61849" stroke-miterlimit="10"/>
<path d="M68.4028 217.531H37.1261V222.197H68.4028V217.531Z" stroke="black" stroke-width="1.61849" stroke-miterlimit="10"/>
<path d="M68.4028 232.349H37.1261V237.015H68.4028V232.349Z" stroke="black" stroke-width="1.61849" stroke-miterlimit="10"/>
<path d="M68.4028 247.168H37.1261V251.834H68.4028V247.168Z" stroke="black" stroke-width="1.61849" stroke-miterlimit="10"/>
<path d="M218.522 83.6169H123.578V117.92H218.522V83.6169Z" stroke="black" stroke-width="1.61849" stroke-miterlimit="10"/>
<path d="M155.675 83.344V117.921" stroke="black" stroke-width="1.61849" stroke-miterlimit="10"/>
<path d="M186.952 83.344V117.921" stroke="black" stroke-width="1.61849" stroke-miterlimit="10"/>
<path d="M109.453 197.1H276.956" stroke="black" stroke-width="1.61849" stroke-miterlimit="10"/>
<path d="M109.453 206.875H276.956" stroke="black" stroke-width="1.61849" stroke-miterlimit="10"/>
<path d="M109.453 216.627H276.956" stroke="black" stroke-width="1.61849" stroke-miterlimit="10"/>
<path d="M109.453 226.38H276.956" stroke="black" stroke-width="1.61849" stroke-miterlimit="10"/>
<path d="M109.453 236.133H276.956" stroke="black" stroke-width="1.61849" stroke-miterlimit="10"/>
<path d="M109.453 245.907H276.956" stroke="black" stroke-width="1.61849" stroke-miterlimit="10"/>
<path d="M109.453 255.66H276.956" stroke="black" stroke-width="1.61849" stroke-miterlimit="10"/>
<path d="M29.7062 98.3091H19.1124V148.945H29.7062V98.3091Z" stroke="black" stroke-width="1.61849" stroke-miterlimit="10"/>
</svg>
