<svg width="352" height="136" viewBox="0 0 352 136" fill="none" xmlns="http://www.w3.org/2000/svg">
<path d="M102.629 57.3438H4.12305V60.166H102.629V57.3438Z" stroke="white" stroke-width="1.95993" stroke-miterlimit="10"/>
<path d="M102.629 60.1641H6.2002V64.0317H102.629V60.1641Z" stroke="white" stroke-width="1.95993" stroke-miterlimit="10"/>
<path d="M267.629 24.4922H86.7275V28.3598H267.629V24.4922Z" stroke="white" stroke-width="1.95993" stroke-miterlimit="10"/>
<path d="M102.629 64.0312H29.7588V133.374H102.629V64.0312Z" stroke="white" stroke-width="1.95993" stroke-miterlimit="10"/>
<path d="M245.783 28.3438H102.852V134.036H245.783V28.3438Z" stroke="white" stroke-width="1.95993" stroke-miterlimit="10"/>
<path d="M42.5773 64.0312H37.377V124.24H42.5773V64.0312Z" stroke="white" stroke-width="1.95993" stroke-miterlimit="10"/>
<path d="M102.342 129.142H37.6772C34.9725 129.142 32.7773 126.947 32.7773 124.242H102.342V129.142Z" stroke="white" stroke-width="1.95993" stroke-miterlimit="10"/>
<path d="M102.707 37.2727H92.372L1 57.3424H102.629C102.629 57.3424 102.707 36.8285 102.707 37.2727Z" stroke="white" stroke-width="1.95993" stroke-linejoin="round"/>
<path d="M245.965 61.3281L346.418 61.3281V58.0224L245.965 58.0224V61.3281Z" stroke="white" stroke-width="1.95993" stroke-miterlimit="10"/>
<path d="M245.965 65.8438L343.543 65.8438V61.3228L245.965 61.3228V65.8438Z" stroke="white" stroke-width="1.95993" stroke-miterlimit="10"/>
<path d="M245.86 34.5709H260.142L350.743 58.0378H245.978C245.978 58.0378 245.873 34.0483 245.873 34.5709H245.86Z" stroke="white" stroke-width="1.95993" stroke-linejoin="round"/>
<path d="M276.252 24.493H77.6592L167.738 1L276.252 24.493Z" stroke="white" stroke-width="1.95993" stroke-linejoin="round"/>
<path d="M175.46 67.2969H161.492V124.083H175.46V67.2969Z" stroke="white" stroke-width="1.95993" stroke-miterlimit="10"/>
<path d="M225.412 69.0781H189.141V127.641H225.412V69.0781Z" stroke="white" stroke-width="1.95993" stroke-miterlimit="10"/>
<path d="M189.323 127.284L182.045 133.974V62.0703" stroke="white" stroke-width="1.95993" stroke-linejoin="round"/>
<path d="M225.412 127.648L236.714 134.038" stroke="white" stroke-width="1.95993" stroke-miterlimit="10"/>
<path d="M205.865 72.7188H192.485V78.9644H205.865V72.7188Z" stroke="white" stroke-width="1.95993" stroke-miterlimit="10"/>
<path d="M222.145 72.7188H208.766V78.9644H222.145V72.7188Z" stroke="white" stroke-width="1.95993" stroke-miterlimit="10"/>
<path d="M205.865 81.7891H192.485V88.0347H205.865V81.7891Z" stroke="white" stroke-width="1.95993" stroke-miterlimit="10"/>
<path d="M222.145 81.7891H208.766V88.0347H222.145V81.7891Z" stroke="white" stroke-width="1.95993" stroke-miterlimit="10"/>
<path d="M205.865 90.8594H192.485V97.105H205.865V90.8594Z" stroke="white" stroke-width="1.95993" stroke-miterlimit="10"/>
<path d="M222.145 90.8594H208.766V97.105H222.145V90.8594Z" stroke="white" stroke-width="1.95993" stroke-miterlimit="10"/>
<path d="M205.865 99.9219H192.485V106.168H205.865V99.9219Z" stroke="white" stroke-width="1.95993" stroke-miterlimit="10"/>
<path d="M222.145 99.9219H208.766V106.168H222.145V99.9219Z" stroke="white" stroke-width="1.95993" stroke-miterlimit="10"/>
<path d="M205.865 108.992H192.485V115.238H205.865V108.992Z" stroke="white" stroke-width="1.95993" stroke-miterlimit="10"/>
<path d="M222.145 108.992H208.766V115.238H222.145V108.992Z" stroke="white" stroke-width="1.95993" stroke-miterlimit="10"/>
<path d="M205.865 118.062H192.485V124.308H205.865V118.062Z" stroke="white" stroke-width="1.95993" stroke-miterlimit="10"/>
<path d="M222.145 118.062H208.766V124.308H222.145V118.062Z" stroke="white" stroke-width="1.95993" stroke-miterlimit="10"/>
<path d="M161.492 28.2969V134.042" stroke="white" stroke-width="1.95993" stroke-miterlimit="10"/>
<path d="M341.414 65.8047H246.227V128.836H341.414V65.8047Z" stroke="white" stroke-width="1.95993" stroke-miterlimit="10"/>
<path d="M335.272 74.7344H250.094V128.541H335.272V74.7344Z" stroke="white" stroke-width="1.95993" stroke-miterlimit="10"/>
<path d="M24.4155 54.3639C24.2151 54.1583 24.0424 53.9363 23.9016 53.7029C24.8865 54.4664 26.0003 54.8795 27.1494 54.9047C28.2808 54.9295 29.3943 54.5769 30.3991 53.8773C30.2538 54.0896 30.0813 54.2904 29.8852 54.4757C29.1421 55.1776 28.1233 55.592 27.156 55.5379L27.1324 55.5366L27.1087 55.537C26.1353 55.5532 25.1299 55.0966 24.4155 54.3639Z" fill="black" stroke="white" stroke-width="1.30662"/>
<path d="M33.1958 54.3639C32.9954 54.1583 32.8227 53.9363 32.6819 53.7029C33.6668 54.4664 34.7806 54.8795 35.9296 54.9047C37.0652 54.9295 38.1827 54.5743 39.1904 53.8696C39.0441 54.0845 38.8697 54.2877 38.6708 54.4752C37.9262 55.1774 36.9039 55.592 35.9363 55.5379L35.9126 55.5366L35.8889 55.537C34.9156 55.5532 33.9101 55.0966 33.1958 54.3639Z" fill="black" stroke="white" stroke-width="1.30662"/>
<path d="M41.8062 54.3639C41.6057 54.1583 41.433 53.9363 41.2922 53.7029C42.2772 54.4664 43.3909 54.8795 44.54 54.9047C45.6756 54.9295 46.7931 54.5743 47.8008 53.8696C47.6545 54.0845 47.48 54.2877 47.2812 54.4752C46.5365 55.1774 45.5142 55.592 44.5466 55.5379L44.523 55.5366L44.4993 55.537C43.5259 55.5532 42.5205 55.0966 41.8062 54.3639Z" fill="black" stroke="white" stroke-width="1.30662"/>
<path d="M50.4819 54.3639C50.2815 54.1583 50.1088 53.9363 49.968 53.7029C50.9529 54.4664 52.0667 54.8795 53.2158 54.9047C54.3561 54.9296 55.4783 54.5713 56.4892 53.8607C56.3415 54.079 56.165 54.2853 55.9635 54.4752C55.2193 55.1769 54.197 55.5921 53.2222 55.5379L53.1987 55.5366L53.1751 55.537C52.2017 55.5532 51.1963 55.0966 50.4819 54.3639Z" fill="black" stroke="white" stroke-width="1.30662"/>
<path d="M59.2759 54.3639C59.0755 54.1583 58.9028 53.9363 58.7619 53.7029C59.7469 54.4664 60.8607 54.8795 62.0097 54.9047C63.1453 54.9295 64.2628 54.5743 65.2705 53.8696C65.1242 54.0845 64.9498 54.2877 64.7509 54.4752C64.0062 55.1774 62.984 55.592 62.0164 55.5379L61.9927 55.5366L61.969 55.537C60.9956 55.5532 59.9902 55.0966 59.2759 54.3639Z" fill="black" stroke="white" stroke-width="1.30662"/>
<path d="M67.8778 54.3634C67.6783 54.1592 67.5062 53.939 67.3654 53.7077C68.3489 54.4681 69.4605 54.8796 70.6071 54.9047C71.7427 54.9295 72.8602 54.5743 73.8679 53.8696C73.7216 54.0845 73.5472 54.2877 73.3483 54.4752C72.6036 55.1774 71.5814 55.592 70.6138 55.5379L70.5901 55.5366L70.5664 55.537C69.6002 55.5532 68.5944 55.0971 67.8778 54.3634Z" fill="black" stroke="white" stroke-width="1.30662"/>
<path d="M76.314 54.3639C76.1131 54.1578 75.9401 53.9353 75.7991 53.7014C76.7858 54.466 77.9021 54.8795 79.0527 54.9047C80.1855 54.9295 81.3001 54.5767 82.3041 53.8761C82.1588 54.0886 81.9858 54.2896 81.789 54.4752C81.0443 55.1774 80.022 55.592 79.0544 55.5379L79.0308 55.5366L79.0071 55.537C78.0337 55.5532 77.0283 55.0966 76.314 54.3639Z" fill="black" stroke="white" stroke-width="1.30662"/>
<path d="M85.0816 54.3639C84.8807 54.1578 84.7077 53.9353 84.5667 53.7014C85.5534 54.466 86.6697 54.8795 87.8203 54.9047C88.9621 54.9297 90.0853 54.5711 91.0955 53.8594C90.9477 54.0779 90.7707 54.2845 90.5685 54.4748C89.8226 55.1767 88.797 55.5921 87.8218 55.5379L87.7983 55.5366L87.7747 55.537C86.8013 55.5532 85.7959 55.0966 85.0816 54.3639Z" fill="black" stroke="white" stroke-width="1.30662"/>
<path d="M93.7046 54.3639C93.5037 54.1578 93.3307 53.9353 93.1897 53.7014C94.1764 54.466 95.2927 54.8795 96.4433 54.9047C97.5762 54.9295 98.6908 54.5766 99.6948 53.8761C99.5494 54.0886 99.3765 54.2896 99.1796 54.4752C98.435 55.1774 97.4127 55.592 96.4451 55.5379L96.4214 55.5366L96.3977 55.537C95.4243 55.5532 94.4189 55.0966 93.7046 54.3639Z" fill="black" stroke="white" stroke-width="1.30662"/>
<path d="M79.5152 48.6686C79.3169 48.4651 79.1457 48.2457 79.0057 48.0151C79.9912 48.7786 81.1057 49.1903 82.2546 49.2143C83.3916 49.238 84.51 48.8807 85.5166 48.174C85.37 48.3891 85.1955 48.5925 84.9967 48.7799C84.2525 49.4816 83.2302 49.8968 82.2554 49.8426L82.2319 49.8413L82.2083 49.8417C81.2349 49.8579 80.2295 49.4013 79.5152 48.6686Z" fill="black" stroke="white" stroke-width="1.30662"/>
<path d="M88.1392 48.6686C87.9413 48.4656 87.7705 48.2467 87.6307 48.0167C88.6144 48.779 89.7264 49.1904 90.8737 49.2143C92.0087 49.2379 93.1254 48.8813 94.1323 48.1764C93.9863 48.3905 93.8124 48.5931 93.6142 48.7799C92.8695 49.482 91.8472 49.8967 90.8796 49.8426L90.856 49.8413L90.8323 49.8417C89.8589 49.8579 88.8535 49.4013 88.1392 48.6686Z" fill="black" stroke="white" stroke-width="1.30662"/>
<path d="M98.6257 49.3828C99.3299 49.4706 100.036 49.3841 100.665 49.154L100.862 49.6351C100.097 49.7535 99.3259 49.6519 98.6257 49.3828Z" fill="black" stroke="white" stroke-width="1.30662"/>
<path d="M79.9476 43.2272C80.9421 43.0739 81.8693 42.6445 82.7366 41.9687C82.6121 42.2296 82.4497 42.4631 82.2592 42.6698C81.7103 43.2652 80.902 43.6625 80.0274 43.7978C79.1528 43.9332 78.2637 43.7987 77.5632 43.3971C77.3156 43.2552 77.0875 43.0779 76.8884 42.8615C77.9267 43.2488 78.9472 43.3814 79.9476 43.2272Z" fill="black" stroke="white" stroke-width="1.30662"/>
<path d="M85.0952 42.7232C84.8974 42.5203 84.7266 42.3014 84.5867 42.0714C85.5704 42.8337 86.6824 43.245 87.8297 43.269C88.9737 43.2928 90.099 42.9304 91.1121 42.2144C90.9637 42.4345 90.7857 42.6426 90.5821 42.8342C89.8363 43.536 88.8106 43.9515 87.8355 43.8973L87.8119 43.896L87.7884 43.8964C86.815 43.9126 85.8095 43.456 85.0952 42.7232Z" fill="black" stroke="white" stroke-width="1.30662"/>
<path d="M93.7046 42.7232C93.5068 42.5203 93.3359 42.3014 93.1961 42.0714C94.1798 42.8337 95.2918 43.245 96.4391 43.269C97.5741 43.2926 98.6908 42.936 99.6978 42.2311C99.5518 42.4452 99.3778 42.6477 99.1796 42.8346C98.435 43.5367 97.4127 43.9514 96.4451 43.8973L96.4214 43.896L96.3977 43.8964C95.4243 43.9126 94.4189 43.456 93.7046 42.7232Z" fill="black" stroke="white" stroke-width="1.30662"/>
<path d="M62.438 48.6686C62.2402 48.4656 62.0693 48.2467 61.9295 48.0167C62.9132 48.779 64.0252 49.1904 65.1725 49.2143C66.3123 49.238 67.4336 48.8783 68.4438 48.1675C68.2964 48.385 68.1204 48.5906 67.9196 48.7799C67.1753 49.4816 66.1531 49.8968 65.1783 49.8426L65.1547 49.8413L65.1311 49.8417C64.1577 49.8579 63.1523 49.4013 62.438 48.6686Z" fill="black" stroke="white" stroke-width="1.30662"/>
<path d="M53.9712 48.6686C53.7734 48.4656 53.6026 48.2467 53.4627 48.0167C54.4464 48.779 55.5584 49.1904 56.7057 49.2143C57.8407 49.2379 58.9574 48.8813 59.9643 48.1764C59.8184 48.3905 59.6444 48.5931 59.4462 48.7799C58.7015 49.482 57.6793 49.8967 56.7117 49.8426L56.688 49.8413L56.6643 49.8417C55.6909 49.8579 54.6855 49.4013 53.9712 48.6686Z" fill="black" stroke="white" stroke-width="1.30662"/>
<path d="M48.9061 49.1651C49.8935 49.0044 50.813 48.5728 51.6758 47.899C51.5537 48.1589 51.3938 48.3922 51.2056 48.5992C50.6647 49.194 49.8658 49.5951 48.999 49.7376C48.1321 49.88 47.2483 49.7554 46.5477 49.3644C46.3005 49.2265 46.0722 49.0535 45.8719 48.8418C46.9056 49.2077 47.9165 49.3262 48.9061 49.1651Z" fill="black" stroke="white" stroke-width="1.30662"/>
<path d="M71.0357 48.6686C70.8378 48.4656 70.667 48.2467 70.5272 48.0167C71.5109 48.779 72.6229 49.1904 73.7702 49.2143C74.9099 49.238 76.0313 48.8783 77.0415 48.1675C76.8941 48.385 76.718 48.5906 76.5172 48.7799C75.773 49.4816 74.7507 49.8968 73.7759 49.8426L73.7524 49.8413L73.7288 49.8417C72.7554 49.8579 71.75 49.4013 71.0357 48.6686Z" fill="black" stroke="white" stroke-width="1.30662"/>
<path d="M331.132 55.0408C331.516 55.0254 331.82 54.8552 332.053 54.6579C331.95 54.907 331.771 55.1164 331.52 55.2866C330.907 55.7022 329.894 55.855 328.857 55.643L328.857 55.6429L328.846 55.6408C328.026 55.4878 327.24 55.0085 326.69 54.3478C326.623 54.268 326.561 54.1861 326.503 54.1026C326.899 54.3638 327.315 54.5668 327.746 54.7188C328.839 55.104 329.995 55.1478 331.132 55.0408Z" fill="black" stroke="white" stroke-width="1.30662"/>
<path d="M317.687 54.0613C318.692 54.765 319.808 55.1207 320.943 55.0971C322.085 55.0733 323.193 54.6661 324.174 53.9111C324.035 54.1369 323.867 54.3519 323.672 54.5514C322.957 55.2849 321.955 55.7407 320.989 55.7245L320.965 55.7241L320.942 55.7254C319.974 55.7795 318.952 55.3649 318.205 54.6623C318.007 54.4762 317.833 54.2745 317.687 54.0613Z" fill="black" stroke="white" stroke-width="1.30662"/>
<path d="M309.597 54.6627C309.4 54.4778 309.228 54.2774 309.083 54.0658C310.086 54.7665 311.2 55.1207 312.332 55.0971C313.474 55.0733 314.583 54.6661 315.564 53.9111C315.425 54.1369 315.256 54.3519 315.062 54.5514C314.347 55.2849 313.344 55.7407 312.379 55.7245L312.355 55.7241L312.331 55.7254C311.364 55.7795 310.341 55.3649 309.597 54.6627Z" fill="black" stroke="white" stroke-width="1.30662"/>
<path d="M300.649 54.0613C301.654 54.765 302.77 55.1207 303.905 55.0971C305.047 55.0733 306.155 54.6661 307.136 53.9111C306.997 54.1369 306.829 54.3519 306.634 54.5514C305.919 55.2849 304.917 55.7407 303.951 55.7245L303.927 55.7241L303.904 55.7254C302.936 55.7795 301.913 55.3649 301.167 54.6623C300.969 54.4762 300.795 54.2745 300.649 54.0613Z" fill="black" stroke="white" stroke-width="1.30662"/>
<path d="M291.855 54.0613C292.86 54.765 293.976 55.1207 295.111 55.0971C296.253 55.0733 297.361 54.6661 298.342 53.9111C298.203 54.1369 298.035 54.3519 297.84 54.5514C297.125 55.2849 296.123 55.7407 295.157 55.7245L295.133 55.7241L295.11 55.7254C294.142 55.7795 293.12 55.3649 292.373 54.6623C292.175 54.4762 292.001 54.2745 291.855 54.0613Z" fill="black" stroke="white" stroke-width="1.30662"/>
<path d="M283.778 54.6627C283.582 54.4778 283.41 54.2774 283.265 54.0657C284.268 54.7665 285.382 55.1207 286.514 55.0971C287.66 55.0732 288.773 54.6631 289.757 53.9027C289.617 54.1313 289.446 54.3489 289.249 54.5509C288.532 55.2846 287.526 55.7407 286.56 55.7245L286.537 55.7241L286.513 55.7254C285.545 55.7795 284.523 55.3649 283.778 54.6627Z" fill="black" stroke="white" stroke-width="1.30662"/>
<path d="M274.329 54.0548C275.338 54.7626 276.457 55.1208 277.594 55.0971C278.735 55.0733 279.84 54.6666 280.82 53.9128C280.681 54.138 280.513 54.3523 280.319 54.5514C279.604 55.2849 278.601 55.7407 277.635 55.7245L277.612 55.7241L277.588 55.7254C276.621 55.7795 275.598 55.3649 274.851 54.6623C274.652 54.4743 274.476 54.2704 274.329 54.0548Z" fill="black" stroke="white" stroke-width="1.30662"/>
<path d="M265.906 54.0613C266.911 54.765 268.027 55.1207 269.161 55.0971C270.304 55.0733 271.412 54.6661 272.393 53.9111C272.254 54.1369 272.085 54.3519 271.891 54.5514C271.176 55.2849 270.174 55.7407 269.208 55.7245L269.184 55.7241L269.16 55.7254C268.193 55.7795 267.17 55.3649 266.424 54.6623C266.226 54.4762 266.052 54.2745 265.906 54.0613Z" fill="black" stroke="white" stroke-width="1.30662"/>
<path d="M258.31 55.2828C258.06 55.1364 257.861 54.9634 257.718 54.7684C258.237 55.0433 258.795 55.1086 259.292 55.1132C259.584 55.1159 259.875 55.0974 260.14 55.0792C260.165 55.0775 260.189 55.0758 260.213 55.0742C260.457 55.0574 260.674 55.0424 260.882 55.0397L260.924 55.0391L260.965 55.0333C261.882 54.9036 262.769 54.5566 263.578 53.951C263.502 54.0735 263.416 54.1928 263.323 54.3082C262.758 55.0053 261.935 55.508 261.081 55.6495L261.067 55.6518L261.053 55.6547C260.126 55.8494 259.045 55.7133 258.31 55.2828Z" fill="black" stroke="white" stroke-width="1.30662"/>
<path d="M297.575 49.4752C297.379 49.2903 297.207 49.09 297.061 48.8783C298.065 49.579 299.179 49.9332 300.311 49.9096C301.457 49.8857 302.569 49.4756 303.553 48.7152C303.414 48.9438 303.243 49.1614 303.046 49.3634C302.329 50.0971 301.323 50.5532 300.357 50.537L300.333 50.5366L300.31 50.5379C299.342 50.592 298.32 50.1774 297.575 49.4752Z" fill="black" stroke="white" stroke-width="1.30662"/>
<path d="M288.445 48.8738C289.45 49.5775 290.566 49.9332 291.7 49.9096C292.843 49.8858 293.951 49.4786 294.932 48.7237C294.793 48.9494 294.625 49.1644 294.43 49.3639C293.715 50.0974 292.713 50.5532 291.747 50.537L291.723 50.5366L291.699 50.5379C290.732 50.592 289.709 50.1774 288.963 49.4748C288.765 49.2887 288.591 49.087 288.445 48.8738Z" fill="black" stroke="white" stroke-width="1.30662"/>
<path d="M286.431 44.4528C285.296 44.2226 284.33 43.567 283.9 42.6038C284.728 43.2562 285.6 43.6899 286.543 43.8812C287.488 44.0728 288.462 44.0124 289.481 43.7319C288.711 44.455 287.566 44.6832 286.431 44.4528Z" fill="black" stroke="white" stroke-width="1.30662"/>
<path d="M275.536 42.9285C276.541 43.6322 277.657 43.9879 278.791 43.9643C279.938 43.9404 281.05 43.5303 282.034 42.7699C281.894 42.9985 281.723 43.2161 281.526 43.4181C280.81 44.1518 279.804 44.6079 278.838 44.5917L278.814 44.5913L278.79 44.5926C277.823 44.6467 276.8 44.2321 276.054 43.5295C275.856 43.3434 275.682 43.1417 275.536 42.9285Z" fill="black" stroke="white" stroke-width="1.30662"/>
<path d="M266.86 42.9285C267.865 43.6322 268.981 43.9879 270.115 43.9643C271.258 43.9405 272.366 43.5333 273.347 42.7783C273.208 43.0041 273.04 43.2191 272.845 43.4186C272.13 44.1521 271.128 44.6079 270.162 44.5917L270.138 44.5913L270.114 44.5926C269.147 44.6467 268.124 44.2321 267.378 43.5295C267.18 43.3434 267.006 43.1417 266.86 42.9285Z" fill="black" stroke="white" stroke-width="1.30662"/>
<path d="M258.651 43.5299C258.455 43.3449 258.283 43.1446 258.138 42.9329C259.141 43.6337 260.255 43.9879 261.387 43.9643C262.529 43.9405 263.637 43.5333 264.619 42.7783C264.48 43.0041 264.311 43.2191 264.117 43.4186C263.401 44.1521 262.399 44.6079 261.433 44.5917L261.41 44.5913L261.386 44.5926C260.418 44.6467 259.396 44.232 258.651 43.5299Z" fill="black" stroke="white" stroke-width="1.30662"/>
<path d="M249.976 43.5299C249.779 43.3449 249.607 43.1446 249.462 42.9329C250.465 43.6337 251.579 43.9879 252.711 43.9643C253.853 43.9405 254.962 43.5333 255.943 42.7783C255.804 43.0041 255.635 43.2191 255.441 43.4186C254.726 44.1521 253.723 44.6079 252.757 44.5917L252.734 44.5913L252.71 44.5926C251.742 44.6467 250.72 44.232 249.976 43.5299Z" fill="black" stroke="white" stroke-width="1.30662"/>
<path d="M262.469 38.6004C263.474 39.3041 264.59 39.6598 265.725 39.6362C266.871 39.6123 267.984 39.2021 268.968 38.4417C268.828 38.6703 268.657 38.888 268.46 39.09C267.743 39.8236 266.737 40.2798 265.771 40.2636L265.747 40.2632L265.724 40.2645C264.756 40.3185 263.734 39.904 262.987 39.2014C262.789 39.0152 262.616 38.8136 262.469 38.6004Z" fill="black" stroke="white" stroke-width="1.30662"/>
<path d="M273.102 40.8886C271.98 40.6439 271.032 39.9847 270.612 39.0346C271.431 39.6828 272.288 40.1172 273.217 40.3182C274.153 40.5207 275.12 40.477 276.141 40.2229C275.371 40.9252 274.232 41.1349 273.102 40.8886Z" fill="black" stroke="white" stroke-width="1.30662"/>
<path d="M254.326 39.2018C254.13 39.0168 253.958 38.8165 253.812 38.6048C254.816 39.3055 255.929 39.6597 257.062 39.6362C258.208 39.6123 259.32 39.2021 260.304 38.4417C260.165 38.6703 259.994 38.888 259.797 39.09C259.08 39.8236 258.074 40.2798 257.108 40.2636L257.084 40.2632L257.061 40.2645C256.093 40.3185 255.071 39.9039 254.326 39.2018Z" fill="black" stroke="white" stroke-width="1.30662"/>
<path d="M250.369 39.458C249.363 39.7917 248.311 39.7281 247.518 39.221C248.498 39.2758 249.404 39.157 250.253 38.8566C251.079 38.5647 251.827 38.1101 252.522 37.5128C252.203 38.4265 251.386 39.1206 250.369 39.458Z" fill="black" stroke="white" stroke-width="1.30662"/>
<path d="M305.549 48.9004C305.973 49.1882 306.417 49.409 306.882 49.5689C308.007 49.9555 309.199 49.9676 310.412 49.7817C310.764 49.73 311.051 49.5786 311.288 49.3968C311.166 49.6281 310.983 49.8312 310.746 50.0026C310.1 50.4701 309.082 50.6689 308.085 50.4798L308.068 50.4765L308.051 50.4742C307.203 50.3601 306.377 49.889 305.795 49.2175C305.706 49.1151 305.624 49.0092 305.549 48.9004Z" fill="black" stroke="white" stroke-width="1.30662"/>
<path d="M263.394 49.4752C263.198 49.2903 263.026 49.09 262.881 48.8783C263.884 49.579 264.998 49.9332 266.13 49.9096C267.272 49.8858 268.381 49.4786 269.362 48.7236C269.223 48.9494 269.054 49.1644 268.86 49.3639C268.145 50.0974 267.142 50.5532 266.176 50.537L266.153 50.5366L266.129 50.5379C265.161 50.592 264.139 50.1774 263.394 49.4752Z" fill="black" stroke="white" stroke-width="1.30662"/>
<path d="M259.953 49.0372C260.413 48.6917 260.839 48.3574 261.363 47.9163C261.285 48.5254 260.912 49.1109 260.339 49.5457C259.765 49.9811 259.098 50.1837 258.488 50.0979C259.027 49.725 259.604 49.312 259.953 49.0372Z" fill="black" stroke="white" stroke-width="1.30662"/>
<path d="M280.485 49.4752C280.289 49.2903 280.117 49.09 279.972 48.8783C280.975 49.579 282.089 49.9332 283.221 49.9096C284.363 49.8858 285.471 49.4786 286.453 48.7236C286.314 48.9494 286.145 49.1644 285.951 49.3639C285.235 50.0974 284.233 50.5532 283.267 50.537L283.244 50.5366L283.22 50.5379C282.252 50.592 281.23 50.1774 280.485 49.4752Z" fill="black" stroke="white" stroke-width="1.30662"/>
<path d="M271.355 48.8738C272.36 49.5775 273.476 49.9332 274.611 49.9096C275.757 49.8857 276.869 49.4756 277.853 48.7152C277.713 48.9438 277.543 49.1614 277.346 49.3634C276.629 50.0971 275.623 50.5532 274.657 50.537L274.633 50.5366L274.61 50.5379C273.642 50.592 272.62 50.1774 271.873 49.4748C271.675 49.2887 271.501 49.087 271.355 48.8738Z" fill="black" stroke="white" stroke-width="1.30662"/>
<path d="M135.255 21.1549C135.059 20.9699 134.886 20.7696 134.741 20.5579C135.744 21.2587 136.858 21.6129 137.99 21.5893C139.133 21.5655 140.241 21.1583 141.222 20.4033C141.083 20.6291 140.915 20.8441 140.72 21.0435C140.005 21.7771 139.003 22.2329 138.037 22.2167L138.013 22.2163L137.989 22.2176C137.022 22.2717 136 21.857 135.255 21.1549Z" fill="black" stroke="white" stroke-width="1.30662"/>
<path d="M126.644 21.1549C126.447 20.9699 126.275 20.7696 126.13 20.5579C127.133 21.2587 128.247 21.6129 129.379 21.5893C130.521 21.5655 131.63 21.1583 132.611 20.4033C132.472 20.6291 132.303 20.8441 132.109 21.0435C131.394 21.7771 130.391 22.2329 129.425 22.2167L129.402 22.2163L129.378 22.2176C128.41 22.2717 127.388 21.857 126.644 21.1549Z" fill="black" stroke="white" stroke-width="1.30662"/>
<path d="M152.332 21.1549C152.136 20.9699 151.963 20.7696 151.818 20.5579C152.822 21.2587 153.935 21.6129 155.068 21.5893C156.21 21.5655 157.318 21.1583 158.299 20.4033C158.16 20.6291 157.992 20.8441 157.797 21.0435C157.082 21.7771 156.08 22.2329 155.114 22.2167L155.09 22.2163L155.067 22.2176C154.099 22.2717 153.077 21.857 152.332 21.1549Z" fill="black" stroke="white" stroke-width="1.30662"/>
<path d="M160.291 20.5535C161.296 21.2572 162.412 21.6129 163.547 21.5893C164.689 21.5655 165.798 21.1583 166.779 20.4033C166.64 20.6291 166.471 20.8441 166.277 21.0436C165.562 21.7771 164.559 22.2329 163.593 22.2167L163.57 22.2163L163.546 22.2176C162.579 22.2717 161.556 21.8571 160.809 21.1545C160.612 20.9684 160.438 20.7667 160.291 20.5535Z" fill="black" stroke="white" stroke-width="1.30662"/>
<path d="M143.214 20.5535C144.219 21.2572 145.335 21.6129 146.47 21.5893C147.612 21.5655 148.72 21.1583 149.702 20.4033C149.563 20.6291 149.394 20.8441 149.2 21.0435C148.484 21.7771 147.482 22.2329 146.516 22.2167L146.493 22.2163L146.469 22.2176C145.501 22.2717 144.479 21.8571 143.732 21.1545C143.535 20.9684 143.361 20.7667 143.214 20.5535Z" fill="black" stroke="white" stroke-width="1.30662"/>
<path d="M101.073 21.1549C100.877 20.9699 100.705 20.7696 100.56 20.5579C101.563 21.2587 102.677 21.6129 103.809 21.5893C104.951 21.5655 106.059 21.1583 107.04 20.4033C106.902 20.6291 106.733 20.8441 106.538 21.0435C105.823 21.7771 104.821 22.2329 103.855 22.2167L103.831 22.2163L103.808 22.2176C102.84 22.2717 101.818 21.857 101.073 21.1549Z" fill="black" stroke="white" stroke-width="1.30662"/>
<path d="M96.9883 21.8885C96.007 22.2454 94.9749 22.2161 94.1865 21.7473C95.1476 21.7607 96.0273 21.6171 96.8502 21.3053C97.6498 21.0023 98.372 20.5495 99.0484 19.9621C98.7508 20.8379 97.9752 21.5295 96.9883 21.8885Z" fill="black" stroke="white" stroke-width="1.30662"/>
<path d="M118.163 21.1549C117.967 20.9699 117.794 20.7696 117.649 20.5579C118.653 21.2587 119.766 21.6129 120.899 21.5893C122.041 21.5655 123.149 21.1583 124.13 20.4033C123.991 20.6291 123.823 20.8441 123.628 21.0435C122.913 21.7771 121.911 22.2329 120.945 22.2167L120.921 22.2163L120.898 22.2176C119.93 22.2717 118.908 21.857 118.163 21.1549Z" fill="black" stroke="white" stroke-width="1.30662"/>
<path d="M109.033 20.5535C110.038 21.2572 111.154 21.6129 112.288 21.5893C113.431 21.5655 114.539 21.1583 115.52 20.4033C115.381 20.6291 115.212 20.8441 115.018 21.0435C114.303 21.7771 113.3 22.2329 112.335 22.2167L112.311 22.2163L112.287 22.2176C111.32 22.2717 110.297 21.8571 109.551 21.1545C109.353 20.9684 109.179 20.7667 109.033 20.5535Z" fill="black" stroke="white" stroke-width="1.30662"/>
<path d="M203.982 21.1549C203.786 20.9699 203.614 20.7696 203.469 20.5579C204.472 21.2587 205.586 21.6129 206.718 21.5893C207.86 21.5655 208.968 21.1583 209.95 20.4033C209.811 20.6291 209.642 20.8441 209.448 21.0435C208.732 21.7771 207.73 22.2329 206.764 22.2167L206.741 22.2163L206.717 22.2176C205.749 22.2717 204.727 21.857 203.982 21.1549Z" fill="black" stroke="white" stroke-width="1.30662"/>
<path d="M195.372 21.1549C195.176 20.97 195.003 20.7696 194.858 20.5579C195.862 21.2587 196.975 21.6129 198.108 21.5893C199.254 21.5654 200.366 21.1553 201.35 20.3949C201.21 20.6235 201.04 20.8411 200.843 21.0431C200.126 21.7768 199.12 22.2329 198.154 22.2167L198.13 22.2163L198.107 22.2176C197.139 22.2717 196.117 21.857 195.372 21.1549Z" fill="black" stroke="white" stroke-width="1.30662"/>
<path d="M221.06 21.1549C220.863 20.9699 220.691 20.7696 220.546 20.5579C221.549 21.2587 222.663 21.6129 223.795 21.5893C224.937 21.5655 226.046 21.1583 227.027 20.4033C226.888 20.6291 226.719 20.8441 226.525 21.0435C225.81 21.7771 224.807 22.2329 223.841 22.2167L223.818 22.2163L223.794 22.2176C222.826 22.2717 221.804 21.857 221.06 21.1549Z" fill="black" stroke="white" stroke-width="1.30662"/>
<path d="M229.54 21.1549C229.344 20.9699 229.171 20.7696 229.026 20.5579C230.03 21.2587 231.143 21.6129 232.276 21.5893C233.422 21.5654 234.534 21.1553 235.518 20.3949C235.378 20.6235 235.208 20.8411 235.011 21.0431C234.294 21.7768 233.288 22.2329 232.322 22.2167L232.298 22.2163L232.275 22.2176C231.307 22.2717 230.285 21.857 229.54 21.1549Z" fill="black" stroke="white" stroke-width="1.30662"/>
<path d="M237.382 20.5535C238.387 21.2572 239.503 21.6129 240.638 21.5893C241.784 21.5654 242.897 21.1553 243.881 20.3949C243.741 20.6235 243.57 20.8411 243.373 21.0431C242.656 21.7768 241.65 22.2329 240.684 22.2167L240.661 22.2163L240.637 22.2176C239.669 22.2717 238.647 21.8571 237.9 21.1545C237.702 20.9684 237.529 20.7667 237.382 20.5535Z" fill="black" stroke="white" stroke-width="1.30662"/>
<path d="M246.334 21.0022C246.14 20.7922 245.975 20.5542 245.849 20.2878C246.724 20.9688 247.659 21.4008 248.661 21.5523C249.662 21.7039 250.682 21.568 251.718 21.1757C251.518 21.3944 251.29 21.5737 251.041 21.7173C250.34 22.1229 249.449 22.2606 248.572 22.1273C247.696 21.9941 246.885 21.5978 246.334 21.0022Z" fill="black" stroke="white" stroke-width="1.30662"/>
<path d="M212.463 21.1549C212.267 20.97 212.094 20.7696 211.949 20.5579C212.952 21.2587 214.066 21.6129 215.198 21.5893C216.341 21.5655 217.449 21.1583 218.43 20.4033C218.291 20.6291 218.123 20.8441 217.928 21.0435C217.213 21.7771 216.211 22.2329 215.245 22.2167L215.221 22.2163L215.197 22.2176C214.23 22.2717 213.208 21.857 212.463 21.1549Z" fill="black" stroke="white" stroke-width="1.30662"/>
<path d="M169.553 21.4205C169.357 21.2356 169.184 21.0352 169.039 20.8235C170.042 21.5243 171.156 21.8785 172.288 21.8549C173.431 21.8311 174.539 21.4239 175.52 20.669C175.381 20.8947 175.212 21.1097 175.018 21.3092C174.303 22.0427 173.3 22.4985 172.335 22.4823L172.311 22.4819L172.287 22.4832C171.32 22.5373 170.297 22.1227 169.553 21.4205Z" fill="black" stroke="white" stroke-width="1.30662"/>
<path d="M186.372 20.5535C187.377 21.2572 188.493 21.6129 189.627 21.5893C190.769 21.5655 191.878 21.1583 192.859 20.4033C192.72 20.6291 192.551 20.8441 192.357 21.0435C191.642 21.7771 190.639 22.2329 189.674 22.2167L189.65 22.2163L189.626 22.2176C188.659 22.2717 187.636 21.8571 186.889 21.1545C186.692 20.9684 186.518 20.7667 186.372 20.5535Z" fill="black" stroke="white" stroke-width="1.30662"/>
<path d="M178.281 21.1549C178.085 20.97 177.913 20.7696 177.768 20.5579C178.771 21.2587 179.885 21.6129 181.017 21.5893C182.159 21.5655 183.267 21.1583 184.249 20.4033C184.11 20.6291 183.941 20.8441 183.746 21.0435C183.031 21.7771 182.029 22.2329 181.063 22.2167L181.039 22.2163L181.016 22.2176C180.048 22.2717 179.026 21.857 178.281 21.1549Z" fill="black" stroke="white" stroke-width="1.30662"/>
<path d="M137.841 16.3502C137.645 16.1653 137.472 15.9649 137.327 15.7532C138.33 16.454 139.444 16.8082 140.576 16.7846C141.723 16.7607 142.835 16.3506 143.819 15.5902C143.679 15.8188 143.509 16.0364 143.311 16.2384C142.595 16.9721 141.589 17.4282 140.623 17.412L140.599 17.4116L140.575 17.4129C139.608 17.467 138.585 17.0524 137.841 16.3502Z" fill="black" stroke="white" stroke-width="1.30662"/>
<path d="M128.71 15.7488C129.715 16.4525 130.831 16.8082 131.966 16.7846C133.108 16.7608 134.217 16.3536 135.198 15.5986C135.059 15.8244 134.89 16.0394 134.696 16.2389C133.981 16.9724 132.978 17.4282 132.012 17.412L131.989 17.4116L131.965 17.4129C130.997 17.467 129.975 17.0524 129.228 16.3498C129.031 16.1637 128.857 15.962 128.71 15.7488Z" fill="black" stroke="white" stroke-width="1.30662"/>
<path d="M154.933 16.3502C154.736 16.1653 154.564 15.9649 154.419 15.7532C155.422 16.454 156.536 16.8082 157.668 16.7846C158.81 16.7608 159.919 16.3536 160.9 15.5986C160.761 15.8244 160.592 16.0394 160.398 16.2389C159.683 16.9724 158.68 17.4282 157.715 17.412L157.691 17.4116L157.667 17.4129C156.7 17.467 155.677 17.0524 154.933 16.3502Z" fill="black" stroke="white" stroke-width="1.30662"/>
<path d="M162.892 15.7488C163.897 16.4525 165.013 16.8082 166.148 16.7846C167.29 16.7608 168.398 16.3536 169.379 15.5986C169.24 15.8244 169.072 16.0394 168.877 16.2389C168.162 16.9724 167.16 17.4282 166.194 17.412L166.17 17.4116L166.147 17.4129C165.179 17.467 164.157 17.0524 163.41 16.3498C163.212 16.1637 163.038 15.962 162.892 15.7488Z" fill="black" stroke="white" stroke-width="1.30662"/>
<path d="M145.801 15.7488C146.806 16.4525 147.922 16.8082 149.057 16.7846C150.203 16.7607 151.316 16.3506 152.3 15.5902C152.16 15.8188 151.989 16.0364 151.792 16.2384C151.075 16.9721 150.069 17.4282 149.103 17.412L149.08 17.4116L149.056 17.4129C148.088 17.467 147.066 17.0524 146.319 16.3498C146.121 16.1637 145.948 15.962 145.801 15.7488Z" fill="black" stroke="white" stroke-width="1.30662"/>
<path d="M120.231 15.7488C121.236 16.4525 122.352 16.8082 123.487 16.7846C124.633 16.7607 125.745 16.3506 126.729 15.5902C126.589 15.8188 126.419 16.0364 126.222 16.2384C125.505 16.9721 124.499 17.4282 123.533 17.412L123.509 17.4116L123.486 17.4129C122.518 17.467 121.495 17.0524 120.749 16.3498C120.551 16.1637 120.377 15.962 120.231 15.7488Z" fill="black" stroke="white" stroke-width="1.30662"/>
<path d="M116.963 17.1245C115.966 17.4611 114.92 17.4043 114.13 16.9067C115.103 16.9535 116.002 16.8288 116.845 16.5257C117.665 16.2308 118.407 15.7758 119.097 15.1807C118.783 16.0895 117.974 16.7835 116.963 17.1245Z" fill="black" stroke="white" stroke-width="1.30662"/>
<path d="M206.569 16.3502C206.373 16.1653 206.201 15.9649 206.056 15.7532C207.059 16.454 208.173 16.8082 209.305 16.7846C210.447 16.7608 211.555 16.3536 212.537 15.5986C212.398 15.8244 212.229 16.0394 212.035 16.2389C211.319 16.9724 210.317 17.4282 209.351 17.412L209.328 17.4116L209.304 17.4129C208.336 17.467 207.314 17.0524 206.569 16.3502Z" fill="black" stroke="white" stroke-width="1.30662"/>
<path d="M197.437 15.7466C198.443 16.4502 199.56 16.8045 200.695 16.7797C201.839 16.7547 202.949 16.3457 203.932 15.5895C203.792 15.8186 203.621 16.0367 203.424 16.2389C202.709 16.9724 201.707 17.4282 200.741 17.412L200.717 17.4116L200.694 17.4129C199.726 17.467 198.703 17.0524 197.957 16.3498C197.758 16.1631 197.584 15.9606 197.437 15.7466Z" fill="black" stroke="white" stroke-width="1.30662"/>
<path d="M225.25 17.2539C224.149 17 223.222 16.3378 222.811 15.399C223.626 16.0438 224.475 16.4799 225.397 16.6858C226.316 16.8909 227.266 16.8581 228.272 16.6196C227.487 17.3166 226.356 17.5087 225.25 17.2539Z" fill="black" stroke="white" stroke-width="1.30662"/>
<path d="M214.53 15.7488C215.535 16.4525 216.651 16.8082 217.785 16.7846C218.928 16.7608 220.036 16.3536 221.017 15.5986C220.878 15.8244 220.709 16.0394 220.515 16.2389C219.8 16.9724 218.798 17.4282 217.832 17.412L217.808 17.4116L217.784 17.4129C216.817 17.467 215.794 17.0524 215.048 16.3498C214.85 16.1637 214.676 15.962 214.53 15.7488Z" fill="black" stroke="white" stroke-width="1.30662"/>
<path d="M172.389 16.3502C172.192 16.1653 172.02 15.9649 171.875 15.7532C172.878 16.454 173.992 16.8082 175.124 16.7846C176.266 16.7608 177.375 16.3536 178.356 15.5986C178.217 15.8244 178.048 16.0394 177.854 16.2389C177.139 16.9724 176.136 17.4282 175.171 17.412L175.147 17.4116L175.123 17.4129C174.156 17.467 173.133 17.0524 172.389 16.3502Z" fill="black" stroke="white" stroke-width="1.30662"/>
<path d="M189.479 16.3502C189.283 16.1653 189.111 15.9649 188.966 15.7532C189.969 16.454 191.083 16.8082 192.215 16.7846C193.357 16.7608 194.466 16.3536 195.447 15.5986C195.308 15.8244 195.139 16.0394 194.945 16.2389C194.23 16.9724 193.227 17.4282 192.261 17.412L192.238 17.4116L192.214 17.4129C191.246 17.467 190.224 17.0524 189.479 16.3502Z" fill="black" stroke="white" stroke-width="1.30662"/>
<path d="M180.868 16.3502C180.672 16.1653 180.5 15.9649 180.354 15.7532C181.358 16.454 182.471 16.8082 183.604 16.7846C184.75 16.7607 185.862 16.3506 186.846 15.5902C186.707 15.8188 186.536 16.0364 186.339 16.2384C185.622 16.9721 184.616 17.4282 183.65 17.412L183.626 17.4116L183.603 17.4129C182.635 17.467 181.613 17.0524 180.868 16.3502Z" fill="black" stroke="white" stroke-width="1.30662"/>
<path d="M137.026 11.9929C135.997 12.3251 134.921 12.2483 134.12 11.7053C135.111 11.7886 136.034 11.6878 136.901 11.3965C137.745 11.1128 138.511 10.6569 139.218 10.0508C138.89 10.9634 138.06 11.6592 137.026 11.9929Z" fill="black" stroke="white" stroke-width="1.30662"/>
<path d="M150.006 11.2018C149.81 11.0168 149.637 10.8165 149.492 10.6048C150.495 11.3055 151.609 11.6597 152.741 11.6362C153.888 11.6123 155 11.2021 155.984 10.4417C155.844 10.6703 155.674 10.888 155.476 11.09C154.76 11.8236 153.754 12.2798 152.788 12.2636L152.764 12.2632L152.74 12.2645C151.773 12.3185 150.75 11.9039 150.006 11.2018Z" fill="black" stroke="white" stroke-width="1.30662"/>
<path d="M157.966 10.6004C158.971 11.3041 160.087 11.6598 161.222 11.6362C162.364 11.6124 163.472 11.2052 164.454 10.4502C164.315 10.676 164.146 10.8909 163.952 11.0904C163.236 11.824 162.234 12.2798 161.268 12.2636L161.245 12.2632L161.221 12.2645C160.253 12.3185 159.231 11.904 158.484 11.2014C158.286 11.0153 158.113 10.8136 157.966 10.6004Z" fill="black" stroke="white" stroke-width="1.30662"/>
<path d="M140.875 10.6004C141.88 11.3041 142.996 11.6598 144.131 11.6362C145.273 11.6124 146.382 11.2052 147.363 10.4502C147.224 10.676 147.055 10.8909 146.861 11.0904C146.146 11.824 145.143 12.2798 144.177 12.2636L144.154 12.2632L144.13 12.2645C143.163 12.3185 142.14 11.904 141.393 11.2014C141.196 11.0153 141.022 10.8136 140.875 10.6004Z" fill="black" stroke="white" stroke-width="1.30662"/>
<path d="M193.033 11.2018C192.837 11.0168 192.665 10.8165 192.519 10.6048C193.523 11.3055 194.637 11.6597 195.769 11.6362C196.911 11.6124 198.019 11.2052 199 10.4502C198.861 10.676 198.693 10.8909 198.498 11.0904C197.783 11.824 196.781 12.2798 195.815 12.2636L195.791 12.2632L195.768 12.2645C194.8 12.3185 193.778 11.9039 193.033 11.2018Z" fill="black" stroke="white" stroke-width="1.30662"/>
<path d="M166.943 10.6004C167.948 11.3041 169.064 11.6598 170.198 11.6362C171.341 11.6124 172.449 11.2052 173.43 10.4502C173.291 10.676 173.123 10.8909 172.928 11.0904C172.213 11.824 171.211 12.2798 170.245 12.2636L170.221 12.2632L170.197 12.2645C169.23 12.3185 168.207 11.904 167.461 11.2014C167.263 11.0153 167.089 10.8136 166.943 10.6004Z" fill="black" stroke="white" stroke-width="1.30662"/>
<path d="M184.033 10.6004C185.038 11.3041 186.154 11.6598 187.288 11.6362C188.431 11.6124 189.539 11.2052 190.52 10.4502C190.381 10.676 190.212 10.8909 190.018 11.0904C189.303 11.824 188.3 12.2798 187.335 12.2636L187.311 12.2632L187.287 12.2645C186.32 12.3185 185.297 11.904 184.551 11.2014C184.353 11.0153 184.179 10.8136 184.033 10.6004Z" fill="black" stroke="white" stroke-width="1.30662"/>
<path d="M175.422 10.6004C176.427 11.3041 177.543 11.6598 178.678 11.6362C179.82 11.6124 180.928 11.2052 181.91 10.4502C181.771 10.676 181.602 10.8909 181.408 11.0904C180.692 11.824 179.69 12.2798 178.724 12.2636L178.701 12.2632L178.677 12.2645C177.709 12.3185 176.687 11.904 175.94 11.2014C175.743 11.0153 175.569 10.8136 175.422 10.6004Z" fill="black" stroke="white" stroke-width="1.30662"/>
<path d="M160.41 6.96424C159.314 7.2527 158.191 7.10607 157.393 6.47841C158.417 6.67004 159.395 6.6368 160.321 6.37796C161.226 6.12484 162.053 5.6641 162.805 5.02791C162.427 5.98232 161.515 6.67308 160.41 6.96424Z" fill="black" stroke="white" stroke-width="1.30662"/>
<path d="M165.311 5.34252C166.201 6.0751 167.218 6.48099 168.287 6.50683C169.411 6.53401 170.516 6.13914 171.509 5.36347C171.375 5.58301 171.213 5.79239 171.025 5.98734C170.324 6.71702 169.336 7.17553 168.382 7.17014L168.354 7.16999L168.327 7.17214C167.327 7.25069 166.404 6.78262 165.759 6.01377C165.585 5.80575 165.434 5.57982 165.311 5.34252Z" fill="black" stroke="white" stroke-width="1.30662"/>
<path d="M173.712 5.96318C173.518 5.75309 173.353 5.51513 173.227 5.24876C174.102 5.92978 175.037 6.3617 176.039 6.51328C177.04 6.66483 178.06 6.52889 179.096 6.13668C178.896 6.35533 178.668 6.53462 178.419 6.67823C177.718 7.08382 176.827 7.2215 175.95 7.08826C175.074 6.95503 174.263 6.55876 173.712 5.96318Z" fill="black" stroke="white" stroke-width="1.30662"/>
<path d="M201.478 11.4476C201.283 11.2375 201.118 10.9995 200.993 10.7331C201.868 11.4142 202.803 11.8461 203.804 11.9977C204.806 12.1492 205.826 12.0133 206.861 11.6211C206.662 11.8397 206.433 12.019 206.185 12.1626C205.484 12.5682 204.593 12.7059 203.716 12.5726C202.839 12.4394 202.028 12.0431 201.478 11.4476Z" fill="black" stroke="white" stroke-width="1.30662"/>
<path d="M114.546 28.3594H102.852V30.8289H114.546V28.3594Z" stroke="white" stroke-width="0.65331" stroke-miterlimit="10"/>
<path d="M126.279 28.3594H114.546V30.8289H126.279V28.3594Z" stroke="white" stroke-width="0.65331" stroke-miterlimit="10"/>
<path d="M138.013 28.3594H126.279V30.8289H138.013V28.3594Z" stroke="white" stroke-width="0.65331" stroke-miterlimit="10"/>
<path d="M149.732 28.3594H137.999V30.8289H149.732V28.3594Z" stroke="white" stroke-width="0.65331" stroke-miterlimit="10"/>
<path d="M161.493 28.3594H149.733V30.8289H161.493V28.3594Z" stroke="white" stroke-width="0.65331" stroke-miterlimit="10"/>
<path d="M120.373 30.8281H108.64V33.2976H120.373V30.8281Z" stroke="white" stroke-width="0.65331" stroke-miterlimit="10"/>
<path d="M132.106 30.8281H120.373V33.2976H132.106V30.8281Z" stroke="white" stroke-width="0.65331" stroke-miterlimit="10"/>
<path d="M143.827 30.8281H132.094V33.2976H143.827V30.8281Z" stroke="white" stroke-width="0.65331" stroke-miterlimit="10"/>
<path d="M155.561 30.8281H143.827V33.2976H155.561V30.8281Z" stroke="white" stroke-width="0.65331" stroke-miterlimit="10"/>
<path d="M161.506 30.8281H155.561V33.2976H161.506V30.8281Z" stroke="white" stroke-width="0.65331" stroke-miterlimit="10"/>
<path d="M108.627 30.8281H102.852V33.2976H108.627V30.8281Z" stroke="white" stroke-width="0.65331" stroke-miterlimit="10"/>
<path d="M114.546 33.2891H102.852V35.7586H114.546V33.2891Z" stroke="white" stroke-width="0.65331" stroke-miterlimit="10"/>
<path d="M126.279 33.2891H114.546V35.7586H126.279V33.2891Z" stroke="white" stroke-width="0.65331" stroke-miterlimit="10"/>
<path d="M138.013 33.2891H126.279V35.7586H138.013V33.2891Z" stroke="white" stroke-width="0.65331" stroke-miterlimit="10"/>
<path d="M149.732 33.2891H137.999V35.7586H149.732V33.2891Z" stroke="white" stroke-width="0.65331" stroke-miterlimit="10"/>
<path d="M161.493 33.2891H149.733V35.7586H161.493V33.2891Z" stroke="white" stroke-width="0.65331" stroke-miterlimit="10"/>
<path d="M120.373 35.7578H108.64V38.2273H120.373V35.7578Z" stroke="white" stroke-width="0.65331" stroke-miterlimit="10"/>
<path d="M132.106 35.7578H120.373V38.2273H132.106V35.7578Z" stroke="white" stroke-width="0.65331" stroke-miterlimit="10"/>
<path d="M143.827 35.7578H132.094V38.2273H143.827V35.7578Z" stroke="white" stroke-width="0.65331" stroke-miterlimit="10"/>
<path d="M155.561 35.7578H143.827V38.2273H155.561V35.7578Z" stroke="white" stroke-width="0.65331" stroke-miterlimit="10"/>
<path d="M161.506 35.7578H155.561V38.2273H161.506V35.7578Z" stroke="white" stroke-width="0.65331" stroke-miterlimit="10"/>
<path d="M108.627 35.7578H102.852V38.2273H108.627V35.7578Z" stroke="white" stroke-width="0.65331" stroke-miterlimit="10"/>
<path d="M114.546 38.2266H102.852V40.6961H114.546V38.2266Z" stroke="white" stroke-width="0.65331" stroke-miterlimit="10"/>
<path d="M126.279 38.2266H114.546V40.6961H126.279V38.2266Z" stroke="white" stroke-width="0.65331" stroke-miterlimit="10"/>
<path d="M138.013 38.2266H126.279V40.6961H138.013V38.2266Z" stroke="white" stroke-width="0.65331" stroke-miterlimit="10"/>
<path d="M149.732 38.2266H137.999V40.6961H149.732V38.2266Z" stroke="white" stroke-width="0.65331" stroke-miterlimit="10"/>
<path d="M161.493 38.2266H149.733V40.6961H161.493V38.2266Z" stroke="white" stroke-width="0.65331" stroke-miterlimit="10"/>
<path d="M120.373 40.6953H108.64V43.1648H120.373V40.6953Z" stroke="white" stroke-width="0.65331" stroke-miterlimit="10"/>
<path d="M132.106 40.6953H120.373V43.1648H132.106V40.6953Z" stroke="white" stroke-width="0.65331" stroke-miterlimit="10"/>
<path d="M143.827 40.6953H132.094V43.1648H143.827V40.6953Z" stroke="white" stroke-width="0.65331" stroke-miterlimit="10"/>
<path d="M155.561 40.6953H143.827V43.1648H155.561V40.6953Z" stroke="white" stroke-width="0.65331" stroke-miterlimit="10"/>
<path d="M161.506 40.6953H155.561V43.1648H161.506V40.6953Z" stroke="white" stroke-width="0.65331" stroke-miterlimit="10"/>
<path d="M108.627 40.6953H102.852V43.1648H108.627V40.6953Z" stroke="white" stroke-width="0.65331" stroke-miterlimit="10"/>
<path d="M114.546 43.1641H102.852V45.6336H114.546V43.1641Z" stroke="white" stroke-width="0.65331" stroke-miterlimit="10"/>
<path d="M126.279 43.1641H114.546V45.6336H126.279V43.1641Z" stroke="white" stroke-width="0.65331" stroke-miterlimit="10"/>
<path d="M138.013 43.1641H126.279V45.6336H138.013V43.1641Z" stroke="white" stroke-width="0.65331" stroke-miterlimit="10"/>
<path d="M149.732 43.1641H137.999V45.6336H149.732V43.1641Z" stroke="white" stroke-width="0.65331" stroke-miterlimit="10"/>
<path d="M161.493 43.1641H149.733V45.6336H161.493V43.1641Z" stroke="white" stroke-width="0.65331" stroke-miterlimit="10"/>
<path d="M120.373 45.6328H108.64V48.1023H120.373V45.6328Z" stroke="white" stroke-width="0.65331" stroke-miterlimit="10"/>
<path d="M132.106 45.6328H120.373V48.1023H132.106V45.6328Z" stroke="white" stroke-width="0.65331" stroke-miterlimit="10"/>
<path d="M143.827 45.6328H132.094V48.1023H143.827V45.6328Z" stroke="white" stroke-width="0.65331" stroke-miterlimit="10"/>
<path d="M155.561 45.6328H143.827V48.1023H155.561V45.6328Z" stroke="white" stroke-width="0.65331" stroke-miterlimit="10"/>
<path d="M161.506 45.6328H155.561V48.1023H161.506V45.6328Z" stroke="white" stroke-width="0.65331" stroke-miterlimit="10"/>
<path d="M108.627 45.6328H102.852V48.1023H108.627V45.6328Z" stroke="white" stroke-width="0.65331" stroke-miterlimit="10"/>
<path d="M114.546 48.1016H102.852V50.5711H114.546V48.1016Z" stroke="white" stroke-width="0.65331" stroke-miterlimit="10"/>
<path d="M126.279 48.1016H114.546V50.5711H126.279V48.1016Z" stroke="white" stroke-width="0.65331" stroke-miterlimit="10"/>
<path d="M138.013 48.1016H126.279V50.5711H138.013V48.1016Z" stroke="white" stroke-width="0.65331" stroke-miterlimit="10"/>
<path d="M149.732 48.1016H137.999V50.5711H149.732V48.1016Z" stroke="white" stroke-width="0.65331" stroke-miterlimit="10"/>
<path d="M161.493 48.1016H149.733V50.5711H161.493V48.1016Z" stroke="white" stroke-width="0.65331" stroke-miterlimit="10"/>
<path d="M120.373 50.5703H108.64V53.0398H120.373V50.5703Z" stroke="white" stroke-width="0.65331" stroke-miterlimit="10"/>
<path d="M132.106 50.5703H120.373V53.0398H132.106V50.5703Z" stroke="white" stroke-width="0.65331" stroke-miterlimit="10"/>
<path d="M143.827 50.5703H132.094V53.0398H143.827V50.5703Z" stroke="white" stroke-width="0.65331" stroke-miterlimit="10"/>
<path d="M155.561 50.5703H143.827V53.0398H155.561V50.5703Z" stroke="white" stroke-width="0.65331" stroke-miterlimit="10"/>
<path d="M161.506 50.5703H155.561V53.0398H161.506V50.5703Z" stroke="white" stroke-width="0.65331" stroke-miterlimit="10"/>
<path d="M108.627 50.5703H102.852V53.0398H108.627V50.5703Z" stroke="white" stroke-width="0.65331" stroke-miterlimit="10"/>
<path d="M114.546 53.0391H102.852V55.5086H114.546V53.0391Z" stroke="white" stroke-width="0.65331" stroke-miterlimit="10"/>
<path d="M126.279 53.0391H114.546V55.5086H126.279V53.0391Z" stroke="white" stroke-width="0.65331" stroke-miterlimit="10"/>
<path d="M138.013 53.0391H126.279V55.5086H138.013V53.0391Z" stroke="white" stroke-width="0.65331" stroke-miterlimit="10"/>
<path d="M149.732 53.0391H137.999V55.5086H149.732V53.0391Z" stroke="white" stroke-width="0.65331" stroke-miterlimit="10"/>
<path d="M161.493 53.0391H149.733V55.5086H161.493V53.0391Z" stroke="white" stroke-width="0.65331" stroke-miterlimit="10"/>
<path d="M120.373 55.5H108.64V57.9695H120.373V55.5Z" stroke="white" stroke-width="0.65331" stroke-miterlimit="10"/>
<path d="M132.106 55.5H120.373V57.9695H132.106V55.5Z" stroke="white" stroke-width="0.65331" stroke-miterlimit="10"/>
<path d="M143.827 55.5H132.094V57.9695H143.827V55.5Z" stroke="white" stroke-width="0.65331" stroke-miterlimit="10"/>
<path d="M155.561 55.5H143.827V57.9695H155.561V55.5Z" stroke="white" stroke-width="0.65331" stroke-miterlimit="10"/>
<path d="M161.506 55.5H155.561V57.9695H161.506V55.5Z" stroke="white" stroke-width="0.65331" stroke-miterlimit="10"/>
<path d="M108.627 55.5H102.852V57.9695H108.627V55.5Z" stroke="white" stroke-width="0.65331" stroke-miterlimit="10"/>
<path d="M114.546 57.9688H102.852V60.4383H114.546V57.9688Z" stroke="white" stroke-width="0.65331" stroke-miterlimit="10"/>
<path d="M126.279 57.9688H114.546V60.4383H126.279V57.9688Z" stroke="white" stroke-width="0.65331" stroke-miterlimit="10"/>
<path d="M138.013 57.9688H126.279V60.4383H138.013V57.9688Z" stroke="white" stroke-width="0.65331" stroke-miterlimit="10"/>
<path d="M149.732 57.9688H137.999V60.4383H149.732V57.9688Z" stroke="white" stroke-width="0.65331" stroke-miterlimit="10"/>
<path d="M161.493 57.9688H149.733V60.4383H161.493V57.9688Z" stroke="white" stroke-width="0.65331" stroke-miterlimit="10"/>
<path d="M120.373 60.4375H108.64V62.907H120.373V60.4375Z" stroke="white" stroke-width="0.65331" stroke-miterlimit="10"/>
<path d="M132.106 60.4375H120.373V62.907H132.106V60.4375Z" stroke="white" stroke-width="0.65331" stroke-miterlimit="10"/>
<path d="M143.827 60.4375H132.094V62.907H143.827V60.4375Z" stroke="white" stroke-width="0.65331" stroke-miterlimit="10"/>
<path d="M155.561 60.4375H143.827V62.907H155.561V60.4375Z" stroke="white" stroke-width="0.65331" stroke-miterlimit="10"/>
<path d="M161.506 60.4375H155.561V62.907H161.506V60.4375Z" stroke="white" stroke-width="0.65331" stroke-miterlimit="10"/>
<path d="M108.627 60.4375H102.852V62.907H108.627V60.4375Z" stroke="white" stroke-width="0.65331" stroke-miterlimit="10"/>
<path d="M114.546 62.9062H102.852V65.3758H114.546V62.9062Z" stroke="white" stroke-width="0.65331" stroke-miterlimit="10"/>
<path d="M126.279 62.9062H114.546V65.3758H126.279V62.9062Z" stroke="white" stroke-width="0.65331" stroke-miterlimit="10"/>
<path d="M138.013 62.9062H126.279V65.3758H138.013V62.9062Z" stroke="white" stroke-width="0.65331" stroke-miterlimit="10"/>
<path d="M149.732 62.9062H137.999V65.3758H149.732V62.9062Z" stroke="white" stroke-width="0.65331" stroke-miterlimit="10"/>
<path d="M161.493 62.9062H149.733V65.3758H161.493V62.9062Z" stroke="white" stroke-width="0.65331" stroke-miterlimit="10"/>
<path d="M120.373 65.375H108.64V67.8445H120.373V65.375Z" stroke="white" stroke-width="0.65331" stroke-miterlimit="10"/>
<path d="M132.106 65.375H120.373V67.8445H132.106V65.375Z" stroke="white" stroke-width="0.65331" stroke-miterlimit="10"/>
<path d="M143.827 65.375H132.094V67.8445H143.827V65.375Z" stroke="white" stroke-width="0.65331" stroke-miterlimit="10"/>
<path d="M155.561 65.375H143.827V67.8445H155.561V65.375Z" stroke="white" stroke-width="0.65331" stroke-miterlimit="10"/>
<path d="M161.506 65.375H155.561V67.8445H161.506V65.375Z" stroke="white" stroke-width="0.65331" stroke-miterlimit="10"/>
<path d="M108.627 65.375H102.852V67.8445H108.627V65.375Z" stroke="white" stroke-width="0.65331" stroke-miterlimit="10"/>
<path d="M114.546 67.8438H102.852V70.3133H114.546V67.8438Z" stroke="white" stroke-width="0.65331" stroke-miterlimit="10"/>
<path d="M126.279 67.8438H114.546V70.3133H126.279V67.8438Z" stroke="white" stroke-width="0.65331" stroke-miterlimit="10"/>
<path d="M138.013 67.8438H126.279V70.3133H138.013V67.8438Z" stroke="white" stroke-width="0.65331" stroke-miterlimit="10"/>
<path d="M149.732 67.8438H137.999V70.3133H149.732V67.8438Z" stroke="white" stroke-width="0.65331" stroke-miterlimit="10"/>
<path d="M161.493 67.8438H149.733V70.3133H161.493V67.8438Z" stroke="white" stroke-width="0.65331" stroke-miterlimit="10"/>
<path d="M120.373 70.3125H108.64V72.782H120.373V70.3125Z" stroke="white" stroke-width="0.65331" stroke-miterlimit="10"/>
<path d="M132.106 70.3125H120.373V72.782H132.106V70.3125Z" stroke="white" stroke-width="0.65331" stroke-miterlimit="10"/>
<path d="M143.827 70.3125H132.094V72.782H143.827V70.3125Z" stroke="white" stroke-width="0.65331" stroke-miterlimit="10"/>
<path d="M155.561 70.3125H143.827V72.782H155.561V70.3125Z" stroke="white" stroke-width="0.65331" stroke-miterlimit="10"/>
<path d="M161.506 70.3125H155.561V72.782H161.506V70.3125Z" stroke="white" stroke-width="0.65331" stroke-miterlimit="10"/>
<path d="M108.627 70.3125H102.852V72.782H108.627V70.3125Z" stroke="white" stroke-width="0.65331" stroke-miterlimit="10"/>
<path d="M114.546 72.7812H102.852V75.2508H114.546V72.7812Z" stroke="white" stroke-width="0.65331" stroke-miterlimit="10"/>
<path d="M126.279 72.7812H114.546V75.2508H126.279V72.7812Z" stroke="white" stroke-width="0.65331" stroke-miterlimit="10"/>
<path d="M138.013 72.7812H126.279V75.2508H138.013V72.7812Z" stroke="white" stroke-width="0.65331" stroke-miterlimit="10"/>
<path d="M149.732 72.7812H137.999V75.2508H149.732V72.7812Z" stroke="white" stroke-width="0.65331" stroke-miterlimit="10"/>
<path d="M161.493 72.7812H149.733V75.2508H161.493V72.7812Z" stroke="white" stroke-width="0.65331" stroke-miterlimit="10"/>
<path d="M120.373 75.2578H108.64V77.7273H120.373V75.2578Z" stroke="white" stroke-width="0.65331" stroke-miterlimit="10"/>
<path d="M132.106 75.2578H120.373V77.7273H132.106V75.2578Z" stroke="white" stroke-width="0.65331" stroke-miterlimit="10"/>
<path d="M143.827 75.2578H132.094V77.7273H143.827V75.2578Z" stroke="white" stroke-width="0.65331" stroke-miterlimit="10"/>
<path d="M155.561 75.2578H143.827V77.7273H155.561V75.2578Z" stroke="white" stroke-width="0.65331" stroke-miterlimit="10"/>
<path d="M161.506 75.2578H155.561V77.7273H161.506V75.2578Z" stroke="white" stroke-width="0.65331" stroke-miterlimit="10"/>
<path d="M108.627 75.2578H102.852V77.7273H108.627V75.2578Z" stroke="white" stroke-width="0.65331" stroke-miterlimit="10"/>
<path d="M114.546 77.7266H102.852V80.1961H114.546V77.7266Z" stroke="white" stroke-width="0.65331" stroke-miterlimit="10"/>
<path d="M126.279 77.7266H114.546V80.1961H126.279V77.7266Z" stroke="white" stroke-width="0.65331" stroke-miterlimit="10"/>
<path d="M138.013 77.7266H126.279V80.1961H138.013V77.7266Z" stroke="white" stroke-width="0.65331" stroke-miterlimit="10"/>
<path d="M149.732 77.7266H137.999V80.1961H149.732V77.7266Z" stroke="white" stroke-width="0.65331" stroke-miterlimit="10"/>
<path d="M161.493 77.7266H149.733V80.1961H161.493V77.7266Z" stroke="white" stroke-width="0.65331" stroke-miterlimit="10"/>
<path d="M120.373 80.1797H108.64V82.6492H120.373V80.1797Z" stroke="white" stroke-width="0.65331" stroke-miterlimit="10"/>
<path d="M132.106 80.1797H120.373V82.6492H132.106V80.1797Z" stroke="white" stroke-width="0.65331" stroke-miterlimit="10"/>
<path d="M143.827 80.1797H132.094V82.6492H143.827V80.1797Z" stroke="white" stroke-width="0.65331" stroke-miterlimit="10"/>
<path d="M155.561 80.1797H143.827V82.6492H155.561V80.1797Z" stroke="white" stroke-width="0.65331" stroke-miterlimit="10"/>
<path d="M161.506 80.1797H155.561V82.6492H161.506V80.1797Z" stroke="white" stroke-width="0.65331" stroke-miterlimit="10"/>
<path d="M108.627 80.1797H102.852V82.6492H108.627V80.1797Z" stroke="white" stroke-width="0.65331" stroke-miterlimit="10"/>
<path d="M114.546 82.6484H102.852V85.1179H114.546V82.6484Z" stroke="white" stroke-width="0.65331" stroke-miterlimit="10"/>
<path d="M126.279 82.6484H114.546V85.1179H126.279V82.6484Z" stroke="white" stroke-width="0.65331" stroke-miterlimit="10"/>
<path d="M138.013 82.6484H126.279V85.1179H138.013V82.6484Z" stroke="white" stroke-width="0.65331" stroke-miterlimit="10"/>
<path d="M149.732 82.6484H137.999V85.1179H149.732V82.6484Z" stroke="white" stroke-width="0.65331" stroke-miterlimit="10"/>
<path d="M161.493 82.6484H149.733V85.1179H161.493V82.6484Z" stroke="white" stroke-width="0.65331" stroke-miterlimit="10"/>
<path d="M120.373 85.1172H108.64V87.5867H120.373V85.1172Z" stroke="white" stroke-width="0.65331" stroke-miterlimit="10"/>
<path d="M132.106 85.1172H120.373V87.5867H132.106V85.1172Z" stroke="white" stroke-width="0.65331" stroke-miterlimit="10"/>
<path d="M143.827 85.1172H132.094V87.5867H143.827V85.1172Z" stroke="white" stroke-width="0.65331" stroke-miterlimit="10"/>
<path d="M155.561 85.1172H143.827V87.5867H155.561V85.1172Z" stroke="white" stroke-width="0.65331" stroke-miterlimit="10"/>
<path d="M161.506 85.1172H155.561V87.5867H161.506V85.1172Z" stroke="white" stroke-width="0.65331" stroke-miterlimit="10"/>
<path d="M108.627 85.1172H102.852V87.5867H108.627V85.1172Z" stroke="white" stroke-width="0.65331" stroke-miterlimit="10"/>
<path d="M114.546 87.5859H102.852V90.0555H114.546V87.5859Z" stroke="white" stroke-width="0.65331" stroke-miterlimit="10"/>
<path d="M126.279 87.5859H114.546V90.0555H126.279V87.5859Z" stroke="white" stroke-width="0.65331" stroke-miterlimit="10"/>
<path d="M138.013 87.5859H126.279V90.0555H138.013V87.5859Z" stroke="white" stroke-width="0.65331" stroke-miterlimit="10"/>
<path d="M149.732 87.5859H137.999V90.0555H149.732V87.5859Z" stroke="white" stroke-width="0.65331" stroke-miterlimit="10"/>
<path d="M161.493 87.5859H149.733V90.0555H161.493V87.5859Z" stroke="white" stroke-width="0.65331" stroke-miterlimit="10"/>
<path d="M120.373 90.0547H108.64V92.5242H120.373V90.0547Z" stroke="white" stroke-width="0.65331" stroke-miterlimit="10"/>
<path d="M132.106 90.0547H120.373V92.5242H132.106V90.0547Z" stroke="white" stroke-width="0.65331" stroke-miterlimit="10"/>
<path d="M143.827 90.0547H132.094V92.5242H143.827V90.0547Z" stroke="white" stroke-width="0.65331" stroke-miterlimit="10"/>
<path d="M155.561 90.0547H143.827V92.5242H155.561V90.0547Z" stroke="white" stroke-width="0.65331" stroke-miterlimit="10"/>
<path d="M161.506 90.0547H155.561V92.5242H161.506V90.0547Z" stroke="white" stroke-width="0.65331" stroke-miterlimit="10"/>
<path d="M108.627 90.0547H102.852V92.5242H108.627V90.0547Z" stroke="white" stroke-width="0.65331" stroke-miterlimit="10"/>
<path d="M114.546 92.5312H102.852V95.0008H114.546V92.5312Z" stroke="white" stroke-width="0.65331" stroke-miterlimit="10"/>
<path d="M126.279 92.5312H114.546V95.0008H126.279V92.5312Z" stroke="white" stroke-width="0.65331" stroke-miterlimit="10"/>
<path d="M138.013 92.5312H126.279V95.0008H138.013V92.5312Z" stroke="white" stroke-width="0.65331" stroke-miterlimit="10"/>
<path d="M149.732 92.5312H137.999V95.0008H149.732V92.5312Z" stroke="white" stroke-width="0.65331" stroke-miterlimit="10"/>
<path d="M161.493 92.5312H149.733V95.0008H161.493V92.5312Z" stroke="white" stroke-width="0.65331" stroke-miterlimit="10"/>
<path d="M120.373 95H108.64V97.4695H120.373V95Z" stroke="white" stroke-width="0.65331" stroke-miterlimit="10"/>
<path d="M132.106 95H120.373V97.4695H132.106V95Z" stroke="white" stroke-width="0.65331" stroke-miterlimit="10"/>
<path d="M143.827 95H132.094V97.4695H143.827V95Z" stroke="white" stroke-width="0.65331" stroke-miterlimit="10"/>
<path d="M155.561 95H143.827V97.4695H155.561V95Z" stroke="white" stroke-width="0.65331" stroke-miterlimit="10"/>
<path d="M161.506 95H155.561V97.4695H161.506V95Z" stroke="white" stroke-width="0.65331" stroke-miterlimit="10"/>
<path d="M108.627 95H102.852V97.4695H108.627V95Z" stroke="white" stroke-width="0.65331" stroke-miterlimit="10"/>
<path d="M114.546 97.4688H102.852V99.9383H114.546V97.4688Z" stroke="white" stroke-width="0.65331" stroke-miterlimit="10"/>
<path d="M126.279 97.4688H114.546V99.9383H126.279V97.4688Z" stroke="white" stroke-width="0.65331" stroke-miterlimit="10"/>
<path d="M138.013 97.4688H126.279V99.9383H138.013V97.4688Z" stroke="white" stroke-width="0.65331" stroke-miterlimit="10"/>
<path d="M149.732 97.4688H137.999V99.9383H149.732V97.4688Z" stroke="white" stroke-width="0.65331" stroke-miterlimit="10"/>
<path d="M161.493 97.4688H149.733V99.9383H161.493V97.4688Z" stroke="white" stroke-width="0.65331" stroke-miterlimit="10"/>
<path d="M120.373 99.9375H108.64V102.407H120.373V99.9375Z" stroke="white" stroke-width="0.65331" stroke-miterlimit="10"/>
<path d="M132.106 99.9375H120.373V102.407H132.106V99.9375Z" stroke="white" stroke-width="0.65331" stroke-miterlimit="10"/>
<path d="M143.827 99.9375H132.094V102.407H143.827V99.9375Z" stroke="white" stroke-width="0.65331" stroke-miterlimit="10"/>
<path d="M155.561 99.9375H143.827V102.407H155.561V99.9375Z" stroke="white" stroke-width="0.65331" stroke-miterlimit="10"/>
<path d="M161.506 99.9375H155.561V102.407H161.506V99.9375Z" stroke="white" stroke-width="0.65331" stroke-miterlimit="10"/>
<path d="M108.627 99.9375H102.852V102.407H108.627V99.9375Z" stroke="white" stroke-width="0.65331" stroke-miterlimit="10"/>
<path d="M114.546 102.391H102.852V104.86H114.546V102.391Z" stroke="white" stroke-width="0.65331" stroke-miterlimit="10"/>
<path d="M126.279 102.391H114.546V104.86H126.279V102.391Z" stroke="white" stroke-width="0.65331" stroke-miterlimit="10"/>
<path d="M138.013 102.391H126.279V104.86H138.013V102.391Z" stroke="white" stroke-width="0.65331" stroke-miterlimit="10"/>
<path d="M149.732 102.391H137.999V104.86H149.732V102.391Z" stroke="white" stroke-width="0.65331" stroke-miterlimit="10"/>
<path d="M161.493 102.391H149.733V104.86H161.493V102.391Z" stroke="white" stroke-width="0.65331" stroke-miterlimit="10"/>
<path d="M120.373 104.859H108.64V107.329H120.373V104.859Z" stroke="white" stroke-width="0.65331" stroke-miterlimit="10"/>
<path d="M132.106 104.859H120.373V107.329H132.106V104.859Z" stroke="white" stroke-width="0.65331" stroke-miterlimit="10"/>
<path d="M143.827 104.859H132.094V107.329H143.827V104.859Z" stroke="white" stroke-width="0.65331" stroke-miterlimit="10"/>
<path d="M155.561 104.859H143.827V107.329H155.561V104.859Z" stroke="white" stroke-width="0.65331" stroke-miterlimit="10"/>
<path d="M161.506 104.859H155.561V107.329H161.506V104.859Z" stroke="white" stroke-width="0.65331" stroke-miterlimit="10"/>
<path d="M108.627 104.859H102.852V107.329H108.627V104.859Z" stroke="white" stroke-width="0.65331" stroke-miterlimit="10"/>
<path d="M114.546 107.328H102.852V109.798H114.546V107.328Z" stroke="white" stroke-width="0.65331" stroke-miterlimit="10"/>
<path d="M126.279 107.328H114.546V109.798H126.279V107.328Z" stroke="white" stroke-width="0.65331" stroke-miterlimit="10"/>
<path d="M138.013 107.328H126.279V109.798H138.013V107.328Z" stroke="white" stroke-width="0.65331" stroke-miterlimit="10"/>
<path d="M149.732 107.328H137.999V109.798H149.732V107.328Z" stroke="white" stroke-width="0.65331" stroke-miterlimit="10"/>
<path d="M161.493 107.328H149.733V109.798H161.493V107.328Z" stroke="white" stroke-width="0.65331" stroke-miterlimit="10"/>
<path d="M120.373 109.805H108.64V112.274H120.373V109.805Z" stroke="white" stroke-width="0.65331" stroke-miterlimit="10"/>
<path d="M132.106 109.805H120.373V112.274H132.106V109.805Z" stroke="white" stroke-width="0.65331" stroke-miterlimit="10"/>
<path d="M143.827 109.805H132.094V112.274H143.827V109.805Z" stroke="white" stroke-width="0.65331" stroke-miterlimit="10"/>
<path d="M155.561 109.805H143.827V112.274H155.561V109.805Z" stroke="white" stroke-width="0.65331" stroke-miterlimit="10"/>
<path d="M161.506 109.805H155.561V112.274H161.506V109.805Z" stroke="white" stroke-width="0.65331" stroke-miterlimit="10"/>
<path d="M108.627 109.805H102.852V112.274H108.627V109.805Z" stroke="white" stroke-width="0.65331" stroke-miterlimit="10"/>
<path d="M114.546 112.273H102.852V114.743H114.546V112.273Z" stroke="white" stroke-width="0.65331" stroke-miterlimit="10"/>
<path d="M126.279 112.273H114.546V114.743H126.279V112.273Z" stroke="white" stroke-width="0.65331" stroke-miterlimit="10"/>
<path d="M138.013 112.273H126.279V114.743H138.013V112.273Z" stroke="white" stroke-width="0.65331" stroke-miterlimit="10"/>
<path d="M149.732 112.273H137.999V114.743H149.732V112.273Z" stroke="white" stroke-width="0.65331" stroke-miterlimit="10"/>
<path d="M161.493 112.273H149.733V114.743H161.493V112.273Z" stroke="white" stroke-width="0.65331" stroke-miterlimit="10"/>
<path d="M120.373 114.742H108.64V117.212H120.373V114.742Z" stroke="white" stroke-width="0.65331" stroke-miterlimit="10"/>
<path d="M132.106 114.742H120.373V117.212H132.106V114.742Z" stroke="white" stroke-width="0.65331" stroke-miterlimit="10"/>
<path d="M143.827 114.742H132.094V117.212H143.827V114.742Z" stroke="white" stroke-width="0.65331" stroke-miterlimit="10"/>
<path d="M155.561 114.742H143.827V117.212H155.561V114.742Z" stroke="white" stroke-width="0.65331" stroke-miterlimit="10"/>
<path d="M161.506 114.742H155.561V117.212H161.506V114.742Z" stroke="white" stroke-width="0.65331" stroke-miterlimit="10"/>
<path d="M108.627 114.742H102.852V117.212H108.627V114.742Z" stroke="white" stroke-width="0.65331" stroke-miterlimit="10"/>
<path d="M114.546 117.211H102.852V119.68H114.546V117.211Z" stroke="white" stroke-width="0.65331" stroke-miterlimit="10"/>
<path d="M126.279 117.211H114.546V119.68H126.279V117.211Z" stroke="white" stroke-width="0.65331" stroke-miterlimit="10"/>
<path d="M138.013 117.211H126.279V119.68H138.013V117.211Z" stroke="white" stroke-width="0.65331" stroke-miterlimit="10"/>
<path d="M149.732 117.211H137.999V119.68H149.732V117.211Z" stroke="white" stroke-width="0.65331" stroke-miterlimit="10"/>
<path d="M161.493 117.211H149.733V119.68H161.493V117.211Z" stroke="white" stroke-width="0.65331" stroke-miterlimit="10"/>
<path d="M120.373 119.68H108.64V122.149H120.373V119.68Z" stroke="white" stroke-width="0.65331" stroke-miterlimit="10"/>
<path d="M132.106 119.68H120.373V122.149H132.106V119.68Z" stroke="white" stroke-width="0.65331" stroke-miterlimit="10"/>
<path d="M143.827 119.68H132.094V122.149H143.827V119.68Z" stroke="white" stroke-width="0.65331" stroke-miterlimit="10"/>
<path d="M155.561 119.68H143.827V122.149H155.561V119.68Z" stroke="white" stroke-width="0.65331" stroke-miterlimit="10"/>
<path d="M161.506 119.68H155.561V122.149H161.506V119.68Z" stroke="white" stroke-width="0.65331" stroke-miterlimit="10"/>
<path d="M108.627 119.68H102.852V122.149H108.627V119.68Z" stroke="white" stroke-width="0.65331" stroke-miterlimit="10"/>
<path d="M114.546 122.148H102.852V124.618H114.546V122.148Z" stroke="white" stroke-width="0.65331" stroke-miterlimit="10"/>
<path d="M126.279 122.148H114.546V124.618H126.279V122.148Z" stroke="white" stroke-width="0.65331" stroke-miterlimit="10"/>
<path d="M138.013 122.148H126.279V124.618H138.013V122.148Z" stroke="white" stroke-width="0.65331" stroke-miterlimit="10"/>
<path d="M149.732 122.148H137.999V124.618H149.732V122.148Z" stroke="white" stroke-width="0.65331" stroke-miterlimit="10"/>
<path d="M161.493 122.148H149.733V124.618H161.493V122.148Z" stroke="white" stroke-width="0.65331" stroke-miterlimit="10"/>
<path d="M120.373 124.602H108.64V127.071H120.373V124.602Z" stroke="white" stroke-width="0.65331" stroke-miterlimit="10"/>
<path d="M132.106 124.602H120.373V127.071H132.106V124.602Z" stroke="white" stroke-width="0.65331" stroke-miterlimit="10"/>
<path d="M143.827 124.602H132.094V127.071H143.827V124.602Z" stroke="white" stroke-width="0.65331" stroke-miterlimit="10"/>
<path d="M155.561 124.602H143.827V127.071H155.561V124.602Z" stroke="white" stroke-width="0.65331" stroke-miterlimit="10"/>
<path d="M161.506 124.602H155.561V127.071H161.506V124.602Z" stroke="white" stroke-width="0.65331" stroke-miterlimit="10"/>
<path d="M108.627 124.602H102.852V127.071H108.627V124.602Z" stroke="white" stroke-width="0.65331" stroke-miterlimit="10"/>
<path d="M114.546 127.078H102.852V129.548H114.546V127.078Z" stroke="white" stroke-width="0.65331" stroke-miterlimit="10"/>
<path d="M126.279 127.078H114.546V129.548H126.279V127.078Z" stroke="white" stroke-width="0.65331" stroke-miterlimit="10"/>
<path d="M138.013 127.078H126.279V129.548H138.013V127.078Z" stroke="white" stroke-width="0.65331" stroke-miterlimit="10"/>
<path d="M149.732 127.078H137.999V129.548H149.732V127.078Z" stroke="white" stroke-width="0.65331" stroke-miterlimit="10"/>
<path d="M161.493 127.078H149.733V129.548H161.493V127.078Z" stroke="white" stroke-width="0.65331" stroke-miterlimit="10"/>
<path d="M120.373 129.547H108.64V132.016H120.373V129.547Z" stroke="white" stroke-width="0.65331" stroke-miterlimit="10"/>
<path d="M132.106 129.547H120.373V132.016H132.106V129.547Z" stroke="white" stroke-width="0.65331" stroke-miterlimit="10"/>
<path d="M143.827 129.547H132.094V132.016H143.827V129.547Z" stroke="white" stroke-width="0.65331" stroke-miterlimit="10"/>
<path d="M155.561 129.547H143.827V132.016H155.561V129.547Z" stroke="white" stroke-width="0.65331" stroke-miterlimit="10"/>
<path d="M161.506 129.547H155.561V132.016H161.506V129.547Z" stroke="white" stroke-width="0.65331" stroke-miterlimit="10"/>
<path d="M108.627 129.547H102.852V132.016H108.627V129.547Z" stroke="white" stroke-width="0.65331" stroke-miterlimit="10"/>
<path d="M42.5508 84.2422H102.355" stroke="white" stroke-width="1.95993" stroke-miterlimit="10"/>
<path d="M42.5508 107.398H102.355" stroke="white" stroke-width="1.95993" stroke-miterlimit="10"/>
<path d="M81.0957 64.125V123.929" stroke="white" stroke-width="1.95993" stroke-miterlimit="10"/>
<path d="M256.641 82.2188H335.025" stroke="white" stroke-width="1.95993" stroke-miterlimit="10"/>
<path d="M256.641 92.8438H335.025" stroke="white" stroke-width="1.95993" stroke-miterlimit="10"/>
<path d="M256.641 103.477H335.025" stroke="white" stroke-width="1.95993" stroke-miterlimit="10"/>
<path d="M256.641 114.117H335.025" stroke="white" stroke-width="1.95993" stroke-miterlimit="10"/>
<path d="M256.641 124.75H335.025" stroke="white" stroke-width="1.95993" stroke-miterlimit="10"/>
<path d="M245.782 43.5209V134.044H236.714V62.2447H161.492V43.5078H245.769L245.782 43.5209Z" stroke="white" stroke-width="1.95993" stroke-miterlimit="10"/>
</svg>
