<svg width="148" height="155" viewBox="0 0 148 155" fill="none" xmlns="http://www.w3.org/2000/svg">
<path d="M26.4609 22.207V2H130.234V143.691H26.4609V80.0753" stroke="white" stroke-width="2.57125" stroke-miterlimit="10"/>
<path d="M26.4609 22.207V2H130.234V143.691H26.4609V80.0753" stroke="white" stroke-width="2.57125" stroke-miterlimit="10"/>
<path d="M84.3447 22.2031H8.00879V79.4513H84.3447V22.2031Z" stroke="white" stroke-width="2.57125" stroke-miterlimit="10"/>
<path d="M7.63086 73.0859H83.9668" stroke="white" stroke-width="2.57125" stroke-miterlimit="10"/>
<path d="M7.63086 27.1953H83.9668" stroke="white" stroke-width="1.5125" stroke-miterlimit="10"/>
<path d="M7.63086 61.8672H83.9668" stroke="white" stroke-width="2.57125" stroke-miterlimit="10"/>
<path d="M73.4851 30.4375H39.0605V73.09H73.4851V30.4375Z" stroke="white" stroke-width="1.5125" stroke-miterlimit="10"/>
<path d="M56.2725 30.8125V72.3458" stroke="white" stroke-width="1.5125" stroke-miterlimit="10"/>
<path d="M73.4851 100.523H39.0605V143.176H73.4851V100.523Z" stroke="white" stroke-width="2.57125" stroke-miterlimit="10"/>
<path d="M56.2725 100.906V142.44" stroke="white" stroke-width="2.57125" stroke-miterlimit="10"/>
<path d="M16.2363 62.125V72.8486" stroke="white" stroke-width="2.57125" stroke-miterlimit="10"/>
<path d="M30.9531 62.125V72.8486" stroke="white" stroke-width="2.57125" stroke-miterlimit="10"/>
<path d="M45.6699 62.125V72.8486" stroke="white" stroke-width="2.57125" stroke-miterlimit="10"/>
<path d="M64.1377 62.125V72.8486" stroke="white" stroke-width="2.57125" stroke-miterlimit="10"/>
<path d="M78.8545 62.125V72.8486" stroke="white" stroke-width="2.57125" stroke-miterlimit="10"/>
<path d="M91.0752 2.24219V143.192" stroke="white" stroke-width="2.57125" stroke-miterlimit="10"/>
<path d="M120.509 21.7109H99.5605V130.218H120.509V21.7109Z" stroke="white" stroke-width="1.5125" stroke-miterlimit="10"/>
<path d="M99.3027 78.0781H120.009" stroke="white" stroke-width="1.5125" stroke-miterlimit="10"/>
<path d="M110.284 21.9531V129.719" stroke="white" stroke-width="1.5125" stroke-miterlimit="10"/>
<path d="M146.448 144.555H2.01953V153.161H146.448V144.555Z" stroke="white" stroke-width="2.57125" stroke-miterlimit="10"/>
<path d="M129.235 137.445H104.037" stroke="white" stroke-width="1.5125" stroke-miterlimit="10"/>
<path d="M117.256 14.4766H92.0732" stroke="white" stroke-width="1.5125" stroke-miterlimit="10"/>
<path d="M130.233 8.49219H105.035" stroke="white" stroke-width="1.5125" stroke-miterlimit="10"/>
<path d="M116.757 132.711H91.5742" stroke="white" stroke-width="1.5125" stroke-miterlimit="10"/>
<path d="M13 32.1875H26.4613" stroke="white" stroke-width="1.5125" stroke-miterlimit="10"/>
<path d="M16.9775 36.1641H30.4539" stroke="white" stroke-width="1.5125" stroke-miterlimit="10"/>
<path d="M130.703 16.7891H140.429V144.429" stroke="white" stroke-width="2.57125" stroke-miterlimit="10"/>
<path d="M4.28809 144.435V139.414C4.28809 137.311 5.98209 135.617 8.08446 135.617H16.5998C18.7022 135.617 20.3962 137.311 20.3962 139.414V144.435" stroke="white" stroke-width="2.57125" stroke-miterlimit="10"/>
</svg>
