<svg width="177" height="158" viewBox="0 0 177 158" fill="none" xmlns="http://www.w3.org/2000/svg">
<path d="M98.0504 81.2781C98.6132 80.5578 98.8643 79.6639 98.7517 78.7527C98.6392 77.8415 98.1889 77.0257 97.4703 76.4617L91.7034 71.9228C90.9847 71.3587 90.0929 71.107 89.1837 71.2198C88.2745 71.3326 87.4606 71.7839 86.8979 72.5042L77.9881 83.8731C77.4252 84.5934 77.1741 85.4873 77.2867 86.3985C77.3993 87.3097 77.8495 88.1255 78.5682 88.6895L84.335 93.2284C84.9412 93.7057 85.6772 93.9574 86.4391 93.9574C86.5777 93.9574 86.7162 93.9487 86.8548 93.9314C87.7639 93.8185 88.5779 93.3672 89.1406 92.6469L98.0504 81.2781ZM86.9152 90.8938C86.7853 91.0587 86.6035 91.1108 86.5083 91.1195C86.413 91.1281 86.2312 91.1281 86.0667 90.998L80.2998 86.459C80.04 86.2594 79.9968 85.8689 80.1959 85.6086L89.1058 74.2397C89.2356 74.0748 89.4175 74.0227 89.5127 74.0141C89.53 74.0141 89.556 74.0054 89.5906 74.0054C89.6945 74.0054 89.8331 74.0314 89.963 74.1356L95.7298 78.6745C95.9896 78.8741 96.0329 79.2646 95.8337 79.525L86.9239 90.8938H86.9152ZM41.4827 36.6623L32.5121 48.1091C32.235 48.4649 31.8194 48.6472 31.4038 48.6472C31.1007 48.6472 30.789 48.5517 30.5379 48.3434C29.9231 47.8574 29.8192 46.9722 30.3041 46.356L39.2747 34.9092C39.7596 34.293 40.6428 34.1889 41.2575 34.6749C41.8723 35.1609 41.9762 36.0461 41.4913 36.6623H41.4827ZM51.2497 44.36L42.2791 55.8068C42.002 56.1627 41.5864 56.3449 41.1708 56.3449C40.8677 56.3449 40.556 56.2494 40.3049 56.0411C39.6902 55.5552 39.5862 54.6699 40.0711 54.0538L49.0417 42.6069C49.5266 41.9908 50.4098 41.8866 51.0246 42.3726C51.6393 42.8586 51.7433 43.7438 51.2584 44.36H51.2497ZM31.7068 28.973L22.7362 40.4198C22.4591 40.7756 22.0435 40.9579 21.6279 40.9579C21.3248 40.9579 21.0131 40.8624 20.762 40.6541C20.1472 40.1681 20.0433 39.2829 20.5282 38.6668L29.4988 27.2199C29.9837 26.6038 30.8669 26.4996 31.4817 26.9856C32.0964 27.4716 32.2003 28.3568 31.7154 28.973H31.7068ZM61.0176 52.0497L52.047 63.4966C51.7699 63.8524 51.3543 64.0346 50.9387 64.0346C50.6356 64.0346 50.3239 63.9392 50.0728 63.7309C49.4581 63.2449 49.3541 62.3597 49.839 61.7435L58.8096 50.2967C59.2945 49.6805 60.1777 49.5763 60.7925 50.0623C61.4072 50.5483 61.5112 51.4336 61.0263 52.0497H61.0176ZM176.197 128.447C176.067 127.354 175.522 126.382 174.665 125.705L121.888 84.1434C120.113 82.7462 117.524 83.0499 116.13 84.8377L110.303 92.2666L104.042 87.3371L114.433 74.0852C115.489 72.74 115.957 71.0563 115.749 69.3467C115.541 67.6371 114.693 66.1097 113.351 65.0508L112.84 64.6516L117.507 58.6895C118.148 57.865 118.433 56.841 118.312 55.7995C118.191 54.7581 117.672 53.8295 116.849 53.1786L114.372 51.2259L119.637 44.5088C126.858 49.9156 134.781 53.8991 142.176 55.7562C145.38 56.5633 148.41 56.9625 151.242 56.9625C156.454 56.9625 160.974 55.6 164.55 52.901C164.897 52.6406 165.104 52.2241 165.113 51.7902C165.122 51.3476 164.923 50.931 164.576 50.662L134.071 26.641L138.833 20.566C139.829 21.0693 140.911 21.3297 141.993 21.3297C144.089 21.3297 146.167 20.4011 147.561 18.6219C149.968 15.5497 149.44 11.0804 146.366 8.6676C143.301 6.25506 138.842 6.78436 136.434 9.86523C135.265 11.3579 134.746 13.2064 134.971 15.0898C135.135 16.4957 135.707 17.78 136.599 18.8389L131.845 24.9052L101.34 0.884252C101.002 0.615227 100.552 0.51976 100.127 0.623891C99.7031 0.728032 99.3567 1.02311 99.1749 1.42232C92.724 15.9153 104.872 32.6905 117.376 42.8014L112.128 49.4925L109.652 47.5398C108.829 46.8976 107.808 46.6112 106.768 46.7327C105.729 46.8542 104.803 47.3749 104.153 48.1994L99.4863 54.1615L98.9754 53.7623C97.6333 52.7035 95.9535 52.2349 94.2478 52.4432C92.542 52.6514 91.0181 53.5019 89.9616 54.847L79.5711 68.099L74.2112 63.8727L80.0386 56.4438C80.714 55.5846 81.017 54.5085 80.8785 53.4149C80.7486 52.3214 80.2031 51.3494 79.3459 50.6725L26.5695 9.11123C25.7123 8.4343 24.6386 8.13055 23.5476 8.26074C22.4565 8.39092 21.4868 8.93767 20.8113 9.79684L1.53685 34.3821C0.861453 35.2413 0.558392 36.3174 0.696933 37.4109C0.826815 38.5044 1.37233 39.4764 2.22955 40.1534L55.0059 81.7147C55.7332 82.2874 56.6164 82.5912 57.5256 82.5912C57.6901 82.5912 57.8546 82.5825 58.0278 82.5651C59.1188 82.435 60.0886 81.8882 60.764 81.029L66.5914 73.6001L71.9512 77.8265L61.5607 91.0784C60.5043 92.4236 60.0367 94.1073 60.2445 95.8169C60.4523 97.5265 61.3009 99.0539 62.6429 100.113L63.1538 100.512L58.4866 106.474C57.1532 108.175 57.4476 110.648 59.1447 111.985L66.3143 117.635C67.033 118.199 67.8815 118.468 68.73 118.468C69.8903 118.468 71.042 117.956 71.8125 116.967L76.4796 111.004L76.9905 111.404C78.1248 112.297 79.5102 112.775 80.9388 112.775C81.1986 112.775 81.4584 112.757 81.7181 112.731C83.4239 112.523 84.9478 111.673 86.0042 110.328L96.3948 97.0756L102.655 102.005L96.8277 109.434C96.1523 110.293 95.8493 111.369 95.9878 112.463C96.1177 113.556 96.6632 114.528 97.5204 115.205L150.297 156.767C151.024 157.339 151.907 157.643 152.816 157.643C152.981 157.643 153.145 157.634 153.319 157.617C154.41 157.487 155.379 156.94 156.055 156.081L175.329 131.496C176.005 130.636 176.308 129.56 176.169 128.467L176.197 128.447ZM138.678 11.5993C139.518 10.5319 140.765 9.96776 142.029 9.96776C142.947 9.96776 143.873 10.2628 144.653 10.879C146.497 12.3283 146.817 15.0187 145.371 16.8671C144.67 17.761 143.657 18.3338 142.531 18.464C141.406 18.6028 140.289 18.2904 139.397 17.5788C138.505 16.8758 137.933 15.8691 137.804 14.7323C137.665 13.6041 137.977 12.4847 138.687 11.5906L138.678 11.5993ZM103.444 21.918C100.258 15.5133 99.4699 9.46428 101.132 4.28329L131.239 27.9932L161.319 51.6854C158.366 53.4124 154.938 54.1761 151.249 54.1761C140.979 54.1761 128.754 48.2486 119.497 40.8546C112.397 35.1875 106.7 28.4618 103.444 21.9269L103.444 21.918ZM106.414 49.9313C106.596 49.7057 106.856 49.5582 107.142 49.5235C107.436 49.4887 107.722 49.5668 107.947 49.7491L115.116 55.3989C115.342 55.5811 115.489 55.8415 115.523 56.1278C115.558 56.4229 115.48 56.7093 115.298 56.9349L110.631 62.8971L101.739 55.8936L106.406 49.9315L106.414 49.9313ZM58.5833 79.2732C58.3755 79.5423 58.0724 79.7072 57.7261 79.7506C57.3884 79.7939 57.0507 79.6985 56.7822 79.4902L4.00591 37.929C3.7375 37.7207 3.57298 37.4169 3.52969 37.0698C3.48639 36.7313 3.58164 36.3929 3.78945 36.1238L23.0639 11.5386C23.2717 11.2695 23.5748 11.1046 23.9212 11.0613C23.9731 11.0526 24.0251 11.0526 24.077 11.0526C24.3628 11.0526 24.6399 11.148 24.865 11.3216L77.6413 52.8828C77.9097 53.0911 78.0742 53.3949 78.1175 53.742C78.1608 54.0805 78.0656 54.4189 77.8578 54.688L71.1646 63.2277L65.2853 70.7346L58.5922 79.2743L58.5833 79.2732ZM68.3678 71.3671L72.5068 66.0819L77.8666 70.3083L73.7277 75.5935L68.3678 71.3671ZM69.6234 115.201C69.251 115.678 68.5583 115.757 68.0821 115.383L60.9125 109.734C60.4363 109.36 60.3584 108.666 60.7307 108.189L65.3979 102.227L74.2904 109.23L69.6233 115.192L69.6234 115.201ZM83.815 108.562C83.2262 109.317 82.369 109.794 81.4166 109.907C80.4555 110.02 79.5203 109.76 78.7671 109.17L66.0386 99.146L64.4194 97.8702C63.6661 97.2801 63.1898 96.4209 63.0773 95.4663C62.9647 94.503 63.2245 93.5658 63.8133 92.8107L75.0783 78.4479L80.9575 70.9411L92.2226 56.5782C92.8114 55.8232 93.6686 55.3459 94.621 55.2331C94.7682 55.2157 94.9154 55.207 95.0626 55.207C95.8679 55.207 96.6385 55.4761 97.2706 55.9707L98.8898 57.2465L111.618 67.2701C112.372 67.8602 112.848 68.7194 112.96 69.674C113.073 70.6373 112.813 71.5746 112.224 72.3296L100.959 86.6924L95.0801 94.1993L83.815 108.562ZM98.1628 94.8327L102.302 89.5475L108.562 94.477L104.423 99.7622L98.1628 94.8327ZM173.139 129.72L153.864 154.305C153.657 154.574 153.354 154.739 153.007 154.783C152.67 154.826 152.332 154.73 152.063 154.522L99.2871 112.961C99.0186 112.753 98.8541 112.449 98.8108 112.102C98.7675 111.763 98.8628 111.425 99.0706 111.156L105.764 102.616L111.643 95.1092L118.345 86.5694C118.778 86.014 119.592 85.9185 120.146 86.3524L172.922 127.914C173.191 128.122 173.355 128.426 173.398 128.773C173.442 129.111 173.347 129.451 173.139 129.72ZM146.643 119.488L137.673 130.935C137.396 131.291 136.98 131.473 136.564 131.473C136.261 131.473 135.95 131.377 135.698 131.169C135.084 130.683 134.98 129.798 135.465 129.182L144.435 117.735C144.92 117.119 145.803 117.015 146.418 117.501C147.033 117.987 147.137 118.872 146.652 119.488H146.643ZM136.876 111.79L127.906 123.237C127.629 123.593 127.213 123.775 126.797 123.775C126.494 123.775 126.183 123.68 125.931 123.471C125.317 122.985 125.213 122.1 125.698 121.484L134.668 110.037C135.153 109.421 136.036 109.317 136.651 109.803C137.266 110.289 137.37 111.174 136.885 111.79H136.876ZM156.168 125.19C156.783 125.676 156.887 126.561 156.402 127.177L147.431 138.624C147.154 138.98 146.738 139.162 146.323 139.162C146.02 139.162 145.708 139.066 145.457 138.858C144.842 138.372 144.738 137.487 145.223 136.871L154.194 125.424C154.679 124.808 155.562 124.704 156.177 125.19H156.168ZM127.101 104.101L118.13 115.548C117.853 115.904 117.438 116.086 117.022 116.086C116.719 116.086 116.407 115.99 116.156 115.782C115.541 115.296 115.438 114.411 115.922 113.795L124.893 102.348C125.378 101.732 126.261 101.628 126.876 102.114C127.491 102.6 127.595 103.485 127.11 104.101H127.101Z" fill="white"/>
</svg>
