<svg width="214" height="159" viewBox="0 0 214 159" fill="none" xmlns="http://www.w3.org/2000/svg">
<path d="M108.81 19.8355C106.62 22.1355 104.45 24.4655 102.29 26.7955C102.31 26.5355 102.17 26.2655 101.87 26.2655C89.62 26.2655 77.37 26.2655 65.12 26.2655C59.06 26.2655 53 26.2555 46.94 26.2655C40.8 26.2855 34.5 25.8655 28.37 26.3955C27.96 26.4355 27.96 27.0555 28.37 27.0855C34.5 27.6155 40.79 27.2055 46.94 27.2155C53 27.2255 59.06 27.2155 65.12 27.2155C77.37 27.2155 89.62 27.2155 101.87 27.2155C101.87 27.2155 101.88 27.2155 101.89 27.2155C95.38 34.2455 88.97 41.3755 82.51 48.4555C78.14 53.2455 73.78 58.0455 69.42 62.8355C65.07 67.6255 60.52 72.2755 56.45 77.3555C56.22 77.6355 56.57 78.0155 56.82 77.7655C61.46 73.3155 65.71 68.3255 70.08 63.5655C74.46 58.7855 78.84 54.0055 83.21 49.2255C91.96 39.6555 100.78 30.1755 109.35 20.4155C109.69 20.0355 109.17 19.4655 108.82 19.8255L108.81 19.8355Z" fill="black" stroke="white"/>
<path d="M56.6296 77.4347C51.9396 76.7847 46.9296 77.2847 42.1996 77.2747C37.7296 77.2747 33.0096 76.8147 28.5396 77.2947C28.8496 73.3547 28.6596 69.3447 28.6596 65.4047C28.6596 60.9947 28.6596 56.5747 28.6496 52.1647C28.6496 47.8947 28.6296 43.6247 28.6096 39.3547C28.6096 37.2147 28.5996 35.0847 28.5896 32.9447C28.5896 30.9947 28.8396 28.7947 28.2596 26.9347C28.2296 26.8447 28.1096 26.8447 28.0796 26.9347C27.4996 28.7947 27.7596 30.9947 27.7496 32.9447C27.7496 34.9347 27.7396 36.9347 27.7296 38.9247C27.7096 43.3347 27.6996 47.7547 27.6896 52.1647C27.6896 56.4347 27.6796 60.7047 27.6796 64.9747C27.6796 69.0847 27.4696 73.2647 27.7996 77.3647H27.7796C27.2896 77.4247 27.2896 78.1447 27.7796 78.2047C27.8096 78.2047 27.8396 78.2047 27.8696 78.2047C27.9096 78.5947 28.3496 78.6047 28.4396 78.2647C32.9396 78.7547 37.6996 78.2947 42.2096 78.2947C46.9396 78.2947 51.9496 78.7847 56.6396 78.1347C57.0496 78.0747 57.0596 77.4847 56.6396 77.4247L56.6296 77.4347Z" fill="black" stroke="white"/>
<path d="M87.9695 141.191C87.9595 141.101 87.9495 141.011 87.9395 140.921C87.8895 140.591 87.3795 140.591 87.3295 140.921C87.3095 141.081 87.2895 141.241 87.2795 141.401C87.2495 141.411 87.2195 141.421 87.1895 141.431C86.9895 141.521 86.9895 141.781 87.1895 141.871C87.1995 141.871 87.2095 141.871 87.2195 141.881C87.1495 142.831 87.1695 143.791 87.1695 144.751C87.1695 145.901 87.0295 147.141 87.3495 148.251C86.4195 148.261 85.4895 148.341 84.6295 148.591C84.5495 148.271 84.0595 148.271 83.9995 148.611C83.7495 149.971 83.8595 151.391 83.8695 152.761C83.8695 153.861 83.8695 154.921 83.9995 155.991C79.9095 155.991 75.8295 155.991 71.7395 155.991C58.4395 155.991 45.0795 155.631 31.7895 156.081C31.7995 134.131 31.9295 112.161 31.8295 90.2111C31.8695 87.3811 31.8895 84.5511 31.7795 81.7511C31.7795 81.1911 31.7795 80.6311 31.7795 80.0711C33.4995 80.6211 35.4795 80.4011 37.2595 80.4111C39.5695 80.4311 41.8695 80.4111 44.1795 80.4111C48.6495 80.4111 53.1695 80.6211 57.6295 80.3711C58.0395 80.3511 58.1295 79.8511 57.9195 79.6011C60.1795 78.0111 62.0595 75.5211 63.9495 73.4611C66.1395 71.0711 68.3195 68.6811 70.5095 66.2811C74.9795 61.4011 79.4395 56.5111 83.8995 51.6211C92.7295 41.9411 101.56 32.2711 110.26 22.4511C110.5 22.1811 110.13 21.7911 109.89 22.0411C100.93 31.5711 92.0995 41.2411 83.2595 50.9211C78.8895 55.7111 74.5195 60.4911 70.1495 65.2911C67.9695 67.6911 65.7795 70.0811 63.5995 72.4811C61.6095 74.6611 59.1795 76.8511 57.6695 79.4711C57.6595 79.4711 57.6495 79.4711 57.6295 79.4611C53.1695 79.2111 48.6495 79.4211 44.1795 79.4211C41.9995 79.4211 39.8295 79.4211 37.6495 79.4211C35.7495 79.4311 33.6295 79.1711 31.7895 79.7711C31.7895 79.1811 31.7895 78.5811 31.7795 77.9911C31.7795 77.7711 31.6695 77.6211 31.5295 77.5511C31.4895 77.2611 31.1395 77.2611 31.0995 77.5511C30.9595 77.6211 30.8495 77.7611 30.8395 77.9911C30.8295 79.2511 30.8295 80.5011 30.8195 81.7611C30.7195 84.4311 30.7295 87.1211 30.7695 89.8111C30.6595 112.011 30.7895 134.221 30.7995 156.421C30.7995 156.611 30.8695 156.741 30.9795 156.831C30.9795 156.961 30.9595 157.091 30.9495 157.221C30.9095 157.731 31.6995 157.731 31.6695 157.221C31.6695 157.171 31.6695 157.131 31.6595 157.081C31.6695 157.081 31.6895 157.081 31.6995 157.091C45.0295 157.551 58.4295 157.171 71.7695 157.181C78.3795 157.181 84.9995 157.181 91.6095 157.191C98.3295 157.191 105.14 157.531 111.84 156.951C112.28 156.911 112.28 156.241 111.84 156.201C105.14 155.611 98.3395 155.951 91.6095 155.961C89.2995 155.961 86.9795 155.961 84.6695 155.961C84.7995 154.891 84.7995 153.821 84.7995 152.731C84.7995 151.571 84.8695 150.391 84.7495 149.241C86.5595 149.731 88.6195 149.481 90.4495 149.481C92.7395 149.481 95.0295 149.481 97.3195 149.481C101.88 149.481 106.52 149.751 111.06 149.241C111.48 149.191 111.48 148.571 111.06 148.531C106.52 148.021 101.88 148.291 97.3195 148.291C95.1595 148.291 92.9995 148.291 90.8295 148.291C89.9095 148.291 88.9295 148.231 87.9395 148.221C88.2595 147.121 88.1195 145.871 88.1195 144.731C88.1195 143.861 88.1195 142.981 88.0795 142.111" fill="black"/>
<path d="M87.9695 141.191C87.9595 141.101 87.9495 141.011 87.9395 140.921C87.8895 140.591 87.3795 140.591 87.3295 140.921C87.3095 141.081 87.2895 141.241 87.2795 141.401C87.2495 141.411 87.2195 141.421 87.1895 141.431C86.9895 141.521 86.9895 141.781 87.1895 141.871C87.1995 141.871 87.2095 141.871 87.2195 141.881C87.1495 142.831 87.1695 143.791 87.1695 144.751C87.1695 145.901 87.0295 147.141 87.3495 148.251C86.4195 148.261 85.4895 148.341 84.6295 148.591C84.5495 148.271 84.0595 148.271 83.9995 148.611C83.7495 149.971 83.8595 151.391 83.8695 152.761C83.8695 153.861 83.8695 154.921 83.9995 155.991C79.9095 155.991 75.8295 155.991 71.7395 155.991C58.4395 155.991 45.0795 155.631 31.7895 156.081C31.7995 134.131 31.9295 112.161 31.8295 90.2111C31.8695 87.3811 31.8895 84.5511 31.7795 81.7511C31.7795 81.1911 31.7795 80.6311 31.7795 80.0711C33.4995 80.6211 35.4795 80.4011 37.2595 80.4111C39.5695 80.4311 41.8695 80.4111 44.1795 80.4111C48.6495 80.4111 53.1695 80.6211 57.6295 80.3711C58.0395 80.3511 58.1295 79.8511 57.9195 79.6011C60.1795 78.0111 62.0595 75.5211 63.9495 73.4611C66.1395 71.0711 68.3195 68.6811 70.5095 66.2811C74.9795 61.4011 79.4395 56.5111 83.8995 51.6211C92.7295 41.9411 101.56 32.2711 110.26 22.4511C110.5 22.1811 110.13 21.7911 109.89 22.0411C100.93 31.5711 92.0995 41.2411 83.2595 50.9211C78.8895 55.7111 74.5195 60.4911 70.1495 65.2911C67.9695 67.6911 65.7795 70.0811 63.5995 72.4811C61.6095 74.6611 59.1795 76.8511 57.6695 79.4711C57.6595 79.4711 57.6495 79.4711 57.6295 79.4611C53.1695 79.2111 48.6495 79.4211 44.1795 79.4211C41.9995 79.4211 39.8295 79.4211 37.6495 79.4211C35.7495 79.4311 33.6295 79.1711 31.7895 79.7711C31.7895 79.1811 31.7895 78.5811 31.7795 77.9911C31.7795 77.7711 31.6695 77.6211 31.5295 77.5511C31.4895 77.2611 31.1395 77.2611 31.0995 77.5511C30.9595 77.6211 30.8495 77.7611 30.8395 77.9911C30.8295 79.2511 30.8295 80.5011 30.8195 81.7611C30.7195 84.4311 30.7295 87.1211 30.7695 89.8111C30.6595 112.011 30.7895 134.221 30.7995 156.421C30.7995 156.611 30.8695 156.741 30.9795 156.831C30.9795 156.961 30.9595 157.091 30.9495 157.221C30.9095 157.731 31.6995 157.731 31.6695 157.221C31.6695 157.171 31.6695 157.131 31.6595 157.081C31.6695 157.081 31.6895 157.081 31.6995 157.091C45.0295 157.551 58.4295 157.171 71.7695 157.181C78.3795 157.181 84.9995 157.181 91.6095 157.191C98.3295 157.191 105.14 157.531 111.84 156.951C112.28 156.911 112.28 156.241 111.84 156.201C105.14 155.611 98.3395 155.951 91.6095 155.961C89.2995 155.961 86.9795 155.961 84.6695 155.961C84.7995 154.891 84.7995 153.821 84.7995 152.731C84.7995 151.571 84.8695 150.391 84.7495 149.241C86.5595 149.731 88.6195 149.481 90.4495 149.481C92.7395 149.481 95.0295 149.481 97.3195 149.481C101.88 149.481 106.52 149.751 111.06 149.241C111.48 149.191 111.48 148.571 111.06 148.531C106.52 148.021 101.88 148.291 97.3195 148.291C95.1595 148.291 92.9995 148.291 90.8295 148.291C89.9095 148.291 88.9295 148.231 87.9395 148.221C88.2595 147.121 88.1195 145.871 88.1195 144.731C88.1195 143.861 88.1195 142.981 88.0795 142.111" stroke="white"/>
<path d="M101.28 28.4345C95.1296 28.1445 88.9196 28.4345 82.7596 28.4445C76.7196 28.4445 70.6696 28.4445 64.6296 28.4445C58.5896 28.4445 52.5396 28.4445 46.4996 28.4445C40.3996 28.4445 34.0496 27.9145 27.9796 28.6045C27.6696 28.6445 27.6696 29.1045 27.9796 29.1345C34.0496 29.8245 40.3996 29.2945 46.4996 29.2945C52.5396 29.2945 58.5896 29.2945 64.6296 29.2945C70.6696 29.2945 76.7196 29.2945 82.7596 29.2945C88.9196 29.2945 95.1296 29.5945 101.28 29.3045C101.81 29.2745 101.81 28.4245 101.28 28.3945V28.4345Z" fill="black" stroke="white"/>
<path d="M86.9296 125.631C86.9296 125.631 86.9096 125.591 86.8996 125.561C87.0196 125.251 86.8896 124.821 86.4896 124.821C85.7396 124.821 84.9896 124.821 84.2396 124.801C84.6896 122.461 84.3396 119.761 84.3296 117.431C84.3096 114.471 84.2996 111.501 84.2996 108.541C84.2996 105.721 84.2996 102.891 84.2696 100.071C84.2396 97.3709 84.5996 94.1909 83.9196 91.5809C83.8996 91.5209 83.8296 91.5209 83.8096 91.5809C83.7596 91.5309 83.6896 91.5009 83.6096 91.4909C80.4596 91.1209 77.1896 91.3909 74.0196 91.3909C70.8196 91.3909 67.6296 91.3909 64.4296 91.4009C58.1996 91.4009 51.8796 91.1009 45.6496 91.4509C45.5396 91.2109 45.1796 91.2309 45.1096 91.5109C44.8396 91.6409 44.8296 92.0709 45.0796 92.2309C45.0796 92.4709 45.0696 92.7109 45.0596 92.9609C44.7296 96.3609 44.8196 99.8809 44.9096 103.351C44.8896 110.451 44.9796 117.571 44.9796 124.661C43.8996 124.711 42.8296 124.811 41.7996 125.031C41.5896 125.071 41.5396 125.351 41.6396 125.531C41.6296 125.591 41.6096 125.641 41.5996 125.701C41.5796 125.861 41.5796 126.031 41.5796 126.191C41.5696 126.571 41.5696 126.961 41.5596 127.341C41.5596 127.461 41.6096 127.551 41.6796 127.611C41.7096 127.681 41.7496 127.731 41.8196 127.741C45.3696 128.301 49.1896 127.921 52.7696 127.931C56.3996 127.931 60.0296 127.941 63.6596 127.931C71.1496 127.931 78.7396 128.321 86.2096 127.851C86.2596 127.851 86.2996 127.831 86.3396 127.811C86.4096 128.311 87.0996 128.301 87.1296 127.761C87.1596 127.021 87.0096 126.351 86.9396 125.621L86.9296 125.631ZM64.4296 92.3709C67.4996 92.3709 70.5596 92.3709 73.6296 92.3809C76.9196 92.3809 80.3296 92.6709 83.5996 92.2809C83.6196 92.2809 83.6396 92.2709 83.6596 92.2609C83.2096 94.6109 83.4796 97.3009 83.4496 99.6509C83.4196 102.611 83.4196 105.581 83.4196 108.541C83.4196 111.361 83.4096 114.191 83.3896 117.011C83.3696 119.461 82.9996 122.351 83.4796 124.801C76.9196 124.741 70.3596 124.721 63.7996 124.731H62.7696C58.8496 124.701 54.9296 124.691 51.0196 124.731C49.2996 124.681 47.5296 124.591 45.7896 124.631C45.7896 117.551 45.8796 110.451 45.8596 103.361C45.9496 99.8809 46.0396 96.3609 45.7096 92.9609C45.7096 92.7509 45.6996 92.5309 45.6896 92.3209C51.8996 92.6709 58.1996 92.3609 64.4196 92.3709H64.4296ZM63.6496 127.031C60.0196 127.031 56.3896 127.031 52.7596 127.031C49.2996 127.031 45.6296 126.691 42.1896 127.171C42.1896 126.841 42.1896 126.511 42.1796 126.181C42.1796 126.031 42.1796 125.871 42.1596 125.711C45.0096 126.231 48.0796 126.021 51.0196 125.941C54.9396 125.971 58.8496 125.961 62.7696 125.941H63.7996C71.3596 125.951 78.9196 125.941 86.4796 125.851C86.4296 126.281 86.3596 126.701 86.3296 127.131C86.2896 127.111 86.2496 127.101 86.1896 127.091C78.7196 126.621 71.1296 127.011 63.6396 127.011L63.6496 127.031Z" fill="black" stroke="white"/>
<path d="M47.8399 108.254C47.8399 103.544 48.0499 98.7141 47.6799 94.0141C47.6599 93.7141 47.2699 93.7141 47.2499 94.0141C46.8799 98.7141 47.0999 103.534 47.0899 108.254C47.0899 112.954 46.7499 117.814 47.1499 122.494C47.1899 122.944 47.7499 122.944 47.7799 122.494C48.1799 117.814 47.8399 112.954 47.8399 108.254Z" fill="black" stroke="white"/>
<path d="M82.1693 108.41C82.1693 103.89 82.6093 99.01 81.9893 94.54C81.9593 94.32 81.6192 94.32 81.5792 94.54C80.9592 99.02 81.4092 103.88 81.3992 108.41C81.3992 112.97 80.9792 117.78 81.5392 122.29C81.5692 122.55 81.9893 122.55 82.0193 122.29C82.5793 117.77 82.1692 112.96 82.1592 108.41H82.1693Z" fill="black" stroke="white"/>
<path d="M63.6097 108.481C63.6097 103.811 63.9597 98.9312 63.4897 94.2812C63.6897 94.1212 63.6397 93.7312 63.3197 93.7012C60.7397 93.4112 58.0497 93.6412 55.4597 93.6412C52.8597 93.6412 50.1797 93.4512 47.5997 93.7612C47.2897 93.8012 47.2897 94.2412 47.5997 94.2812C50.1797 94.5912 52.8697 94.4012 55.4597 94.4012C57.9097 94.4012 60.4397 94.5912 62.8897 94.3712C62.4297 98.9812 62.7797 103.831 62.7797 108.461C62.7797 113.161 62.3597 118.101 62.8797 122.771C62.9297 123.211 63.4597 123.211 63.5097 122.771C64.0297 118.101 63.6097 113.161 63.6097 108.461V108.481Z" fill="black" stroke="white"/>
<path d="M82.1699 93.5569C82.1399 93.4169 81.9399 93.4169 81.9199 93.5569C81.9199 93.5569 81.9199 93.5669 81.9199 93.5769C81.8799 93.5569 81.8399 93.5369 81.7899 93.5369C78.9099 93.1769 75.9198 93.3869 73.0298 93.3869C70.5798 93.3869 67.4499 92.7969 65.1099 93.6469C64.9699 93.5969 64.7899 93.6669 64.7699 93.8869C64.3999 98.8169 64.6499 103.877 64.6299 108.827C64.6199 111.177 64.6099 113.527 64.5999 115.877C64.5999 118.217 64.3599 120.707 64.7199 123.017C64.7699 123.337 65.2698 123.347 65.3198 123.017C65.6698 120.837 65.4599 118.497 65.4499 116.287C65.4399 113.797 65.4299 111.307 65.4199 108.817C65.3999 103.977 65.6399 99.0069 65.2999 94.1769C67.6099 94.9169 70.6598 94.3769 73.0298 94.3769C75.9298 94.3769 78.9199 94.5869 81.7899 94.2269C81.8099 94.2269 81.8199 94.2169 81.8399 94.2069C81.8299 94.4569 81.8399 94.6969 81.8699 94.9269C81.8999 95.1169 82.1899 95.1169 82.2199 94.9269C82.2999 94.4869 82.2599 93.9869 82.1699 93.5569Z" fill="black" stroke="white"/>
<path d="M62.6296 122.321C60.2196 121.921 57.6996 122.131 55.2696 122.121C52.8796 122.121 50.2496 121.751 47.9196 122.351C47.6596 122.421 47.6596 122.861 47.9196 122.931C50.2496 123.531 52.8896 123.171 55.2696 123.161C57.6996 123.161 60.2196 123.361 62.6296 122.961C62.9196 122.911 62.9196 122.361 62.6296 122.321Z" fill="black" stroke="white"/>
<path d="M81.9099 122.294C79.0299 121.894 75.9799 122.194 73.0799 122.194C70.4199 122.194 67.5899 121.934 64.9599 122.414C64.7699 122.454 64.7699 122.814 64.9599 122.844C67.5899 123.324 70.4199 123.064 73.0799 123.064C75.9899 123.064 79.0299 123.364 81.9099 122.964C82.3099 122.914 82.3099 122.334 81.9099 122.284V122.294Z" fill="black" stroke="white"/>
<path d="M30.1997 78.0803C29.8497 77.9103 29.5197 77.9703 29.1397 77.9703C28.8097 77.9703 28.4797 77.9503 28.1497 77.9103C28.1797 77.6603 28.2097 77.4503 28.1297 77.2103C28.1297 77.1903 28.1097 77.1803 28.0997 77.1703C28.0697 76.8703 27.6497 76.7603 27.5897 77.1003C27.5297 77.4403 27.4597 77.7903 27.3997 78.1303C27.3697 78.3103 27.4497 78.5103 27.6197 78.5503C28.0697 78.6703 28.4997 78.7703 28.9697 78.8003C29.3897 78.8303 29.8497 78.9003 30.2097 78.6503C30.3797 78.5303 30.4197 78.2003 30.2097 78.0903L30.1997 78.0803Z" fill="black" stroke="white"/>
<path d="M40.1895 82.5753C38.6595 82.4253 37.1095 82.4253 35.5695 82.3853C34.2395 82.3553 32.8595 82.2253 31.5595 82.5653C31.3695 82.6153 31.3695 82.9353 31.5595 82.9853C32.8595 83.3253 34.2495 83.1953 35.5695 83.1653C37.1095 83.1353 38.6595 83.1353 40.1895 82.9753C40.4295 82.9553 40.4295 82.5953 40.1895 82.5653V82.5753Z" fill="black" stroke="white"/>
<path d="M40.0394 82.8869C40.0194 82.7669 39.8394 82.7669 39.8194 82.8869C39.6194 84.1269 39.3994 85.5969 39.6494 86.8869C39.6194 86.8169 39.5694 86.7669 39.4894 86.7569C38.1994 86.5269 36.8794 86.6269 35.5794 86.6269C34.3094 86.6269 32.9094 86.4269 31.6994 86.8969C31.5494 86.9569 31.5494 87.1669 31.6994 87.2269C32.9094 87.6969 34.3094 87.4869 35.5794 87.4969C36.8794 87.4969 38.1994 87.5969 39.4894 87.3669C39.6194 87.3469 39.6794 87.2269 39.6894 87.0969C39.6894 87.1069 39.6894 87.1269 39.6894 87.1369C39.7494 87.3969 40.1094 87.3969 40.1694 87.1369C40.4894 85.8069 40.2494 84.2269 40.0394 82.8969V82.8869Z" fill="black" stroke="white"/>
<path d="M40.0394 93.1369C40.0194 93.0169 39.8394 93.0169 39.8194 93.1369C39.6194 94.3769 39.3994 95.8469 39.6494 97.1369C39.6194 97.0669 39.5694 97.0169 39.4894 97.0069C38.1994 96.7769 36.8794 96.8769 35.5794 96.8769C34.3094 96.8769 32.9094 96.6769 31.6994 97.1469C31.5494 97.2069 31.5494 97.4169 31.6994 97.4769C32.9094 97.9469 34.3094 97.7369 35.5794 97.7469C36.8794 97.7469 38.1994 97.8469 39.4894 97.6169C39.6194 97.5969 39.6794 97.4769 39.6894 97.3469C39.6894 97.3569 39.6894 97.3769 39.6894 97.3869C39.7494 97.6469 40.1094 97.6469 40.1694 97.3869C40.4894 96.0569 40.2494 94.4769 40.0394 93.1469V93.1369Z" fill="black" stroke="white"/>
<path d="M40.0394 108.52C40.0194 108.4 39.8394 108.4 39.8194 108.52C39.6194 109.76 39.3994 111.23 39.6494 112.52C39.6194 112.45 39.5694 112.4 39.4894 112.39C38.1994 112.16 36.8794 112.26 35.5794 112.26C34.3094 112.26 32.9094 112.06 31.6994 112.53C31.5494 112.59 31.5494 112.8 31.6994 112.86C32.9094 113.33 34.3094 113.12 35.5794 113.13C36.8794 113.13 38.1994 113.23 39.4894 113C39.6194 112.98 39.6794 112.86 39.6894 112.73C39.6894 112.74 39.6894 112.76 39.6894 112.77C39.7494 113.03 40.1094 113.03 40.1694 112.77C40.4894 111.44 40.2494 109.86 40.0394 108.53V108.52Z" fill="black" stroke="white"/>
<path d="M40.0394 122.176C40.0194 122.056 39.8394 122.056 39.8194 122.176C39.6194 123.416 39.3994 124.886 39.6494 126.176C39.6194 126.106 39.5694 126.056 39.4894 126.046C38.1994 125.816 36.8794 125.916 35.5794 125.916C34.3094 125.916 32.9094 125.716 31.6994 126.186C31.5494 126.246 31.5494 126.456 31.6994 126.516C32.9094 126.986 34.3094 126.776 35.5794 126.786C36.8794 126.786 38.1994 126.886 39.4894 126.656C39.6194 126.636 39.6794 126.516 39.6894 126.386C39.6894 126.396 39.6894 126.416 39.6894 126.426C39.7494 126.686 40.1094 126.686 40.1694 126.426C40.4894 125.096 40.2494 123.516 40.0394 122.186V122.176Z" fill="black" stroke="white"/>
<path d="M40.0394 135.848C40.0194 135.728 39.8394 135.728 39.8194 135.848C39.6194 137.088 39.3994 138.558 39.6494 139.848C39.6194 139.778 39.5694 139.728 39.4894 139.718C38.1994 139.488 36.8794 139.588 35.5794 139.588C34.3094 139.588 32.9094 139.388 31.6994 139.858C31.5494 139.918 31.5494 140.128 31.6994 140.188C32.9094 140.658 34.3094 140.448 35.5794 140.458C36.8794 140.458 38.1994 140.558 39.4894 140.328C39.6194 140.308 39.6794 140.188 39.6894 140.058C39.6894 140.068 39.6894 140.088 39.6894 140.098C39.7494 140.358 40.1094 140.358 40.1694 140.098C40.4894 138.768 40.2494 137.188 40.0394 135.858V135.848Z" fill="black" stroke="white"/>
<path d="M34.8599 100.824C34.8599 100.704 34.7599 100.704 34.7499 100.824C34.6599 102.064 34.5499 103.534 34.6699 104.824C34.6499 104.754 34.6299 104.704 34.5899 104.694C33.9699 104.464 33.3399 104.564 32.7199 104.564C32.1099 104.564 31.4399 104.364 30.8699 104.834C30.7999 104.894 30.7999 105.104 30.8699 105.164C31.4499 105.634 32.1199 105.424 32.7199 105.434C33.3399 105.434 33.9799 105.534 34.5899 105.304C34.6499 105.284 34.6799 105.164 34.6799 105.034C34.6799 105.044 34.6799 105.064 34.6799 105.074C34.7099 105.334 34.8799 105.334 34.9099 105.074C35.0599 103.744 34.9499 102.164 34.8499 100.834L34.8599 100.824Z" fill="black" stroke="white"/>
<path d="M34.8599 88.8712C34.8599 88.7512 34.7599 88.7512 34.7499 88.8712C34.6599 90.1113 34.5499 91.5813 34.6699 92.8713C34.6499 92.8013 34.6299 92.7512 34.5899 92.7412C33.9699 92.5112 33.3399 92.6112 32.7199 92.6112C32.1099 92.6112 31.4399 92.4112 30.8699 92.8812C30.7999 92.9412 30.7999 93.1512 30.8699 93.2112C31.4499 93.6812 32.1199 93.4713 32.7199 93.4813C33.3399 93.4813 33.9799 93.5812 34.5899 93.3512C34.6499 93.3312 34.6799 93.2112 34.6799 93.0812C34.6799 93.0912 34.6799 93.1113 34.6799 93.1213C34.7099 93.3813 34.8799 93.3813 34.9099 93.1213C35.0599 91.7913 34.9499 90.2112 34.8499 88.8812L34.8599 88.8712Z" fill="black" stroke="white"/>
<path d="M34.8599 116.199C34.8599 116.079 34.7599 116.079 34.7499 116.199C34.6599 117.439 34.5499 118.909 34.6699 120.199C34.6499 120.129 34.6299 120.079 34.5899 120.069C33.9699 119.839 33.3399 119.939 32.7199 119.939C32.1099 119.939 31.4399 119.739 30.8699 120.209C30.7999 120.269 30.7999 120.479 30.8699 120.539C31.4499 121.009 32.1199 120.799 32.7199 120.809C33.3399 120.809 33.9799 120.909 34.5899 120.679C34.6499 120.659 34.6799 120.539 34.6799 120.409C34.6799 120.419 34.6799 120.439 34.6799 120.449C34.7099 120.709 34.8799 120.709 34.9099 120.449C35.0599 119.119 34.9499 117.539 34.8499 116.209L34.8599 116.199Z" fill="black" stroke="white"/>
<path d="M34.8599 129.871C34.8599 129.751 34.7599 129.751 34.7499 129.871C34.6599 131.111 34.5499 132.581 34.6699 133.871C34.6499 133.801 34.6299 133.751 34.5899 133.741C33.9699 133.511 33.3399 133.611 32.7199 133.611C32.1099 133.611 31.4399 133.411 30.8699 133.881C30.7999 133.941 30.7999 134.151 30.8699 134.211C31.4499 134.681 32.1199 134.471 32.7199 134.481C33.3399 134.481 33.9799 134.581 34.5899 134.351C34.6499 134.331 34.6799 134.211 34.6799 134.081C34.6799 134.091 34.6799 134.111 34.6799 134.121C34.7099 134.381 34.8799 134.381 34.9099 134.121C35.0599 132.791 34.9499 131.211 34.8499 129.881L34.8599 129.871Z" fill="black" stroke="white"/>
<path d="M110.26 19.8355C112.45 22.1355 114.62 24.4655 116.78 26.7955C116.76 26.5355 116.9 26.2655 117.2 26.2655C129.45 26.2655 141.7 26.2655 153.95 26.2655C160.01 26.2655 166.07 26.2555 172.13 26.2655C178.27 26.2855 184.57 25.8655 190.7 26.3955C191.11 26.4355 191.11 27.0555 190.7 27.0855C184.57 27.6155 178.28 27.2055 172.13 27.2155C166.07 27.2255 160.01 27.2155 153.95 27.2155C141.7 27.2155 129.45 27.2155 117.2 27.2155C117.2 27.2155 117.19 27.2155 117.18 27.2155C123.69 34.2455 130.1 41.3755 136.56 48.4555C140.93 53.2455 145.29 58.0455 149.65 62.8355C154 67.6255 158.55 72.2755 162.62 77.3555C162.85 77.6355 162.5 78.0155 162.25 77.7655C157.61 73.3155 153.36 68.3255 148.99 63.5655C144.61 58.7855 140.23 54.0055 135.86 49.2255C127.11 39.6555 118.29 30.1755 109.72 20.4155C109.38 20.0355 109.9 19.4655 110.25 19.8255L110.26 19.8355Z" fill="black" stroke="white"/>
<path d="M162.44 77.4347C167.13 76.7847 172.14 77.2847 176.87 77.2747C181.34 77.2747 186.06 76.8147 190.53 77.2947C190.22 73.3547 190.41 69.3447 190.41 65.4047C190.41 60.9947 190.41 56.5747 190.42 52.1647C190.42 47.8947 190.44 43.6247 190.46 39.3547C190.46 37.2147 190.47 35.0847 190.48 32.9447C190.48 30.9947 190.23 28.7947 190.81 26.9347C190.84 26.8447 190.96 26.8447 190.99 26.9347C191.57 28.7947 191.31 30.9947 191.32 32.9447C191.32 34.9347 191.33 36.9347 191.34 38.9247C191.35 43.3347 191.37 47.7547 191.38 52.1647C191.38 56.4347 191.39 60.7047 191.39 64.9747C191.39 69.0847 191.6 73.2647 191.27 77.3647H191.29C191.78 77.4247 191.78 78.1447 191.29 78.2047C191.26 78.2047 191.23 78.2047 191.2 78.2047C191.16 78.5947 190.72 78.6047 190.63 78.2647C186.13 78.7547 181.37 78.2947 176.86 78.2947C172.13 78.2947 167.12 78.7847 162.43 78.1347C162.02 78.0747 162.02 77.4847 162.43 77.4247L162.44 77.4347Z" fill="black" stroke="white"/>
<path d="M131.1 141.191C131.11 141.101 131.12 141.011 131.13 140.921C131.18 140.591 131.69 140.591 131.74 140.921C131.76 141.081 131.78 141.241 131.79 141.401C131.82 141.411 131.85 141.421 131.88 141.431C132.08 141.521 132.08 141.781 131.88 141.871C131.87 141.871 131.86 141.871 131.85 141.881C131.92 142.831 131.9 143.791 131.9 144.751C131.9 145.901 132.04 147.141 131.72 148.251C132.65 148.261 133.58 148.341 134.44 148.591C134.52 148.271 135.01 148.271 135.07 148.611C135.32 149.971 135.21 151.391 135.2 152.761C135.2 153.861 135.2 154.921 135.07 155.991C139.16 155.991 143.24 155.991 147.33 155.991C160.63 155.991 173.99 155.631 187.28 156.081C187.27 134.131 187.14 112.161 187.24 90.2111C187.2 87.3811 187.18 84.5511 187.29 81.7511C187.29 81.1911 187.29 80.6311 187.29 80.0711C185.57 80.6211 183.59 80.4011 181.81 80.4111C179.5 80.4311 177.2 80.4111 174.89 80.4111C170.42 80.4111 165.9 80.6211 161.44 80.3711C161.03 80.3511 160.94 79.8511 161.15 79.6011C158.89 78.0111 157.01 75.5211 155.12 73.4611C152.93 71.0711 150.75 68.6811 148.56 66.2811C144.09 61.4011 139.63 56.5111 135.17 51.6211C126.34 41.9411 117.51 32.2711 108.81 22.4511C108.57 22.1811 108.94 21.7911 109.18 22.0411C118.14 31.5711 126.97 41.2411 135.81 50.9211C140.18 55.7111 144.55 60.4911 148.92 65.2911C151.1 67.6911 153.29 70.0811 155.47 72.4811C157.46 74.6611 159.89 76.8511 161.4 79.4711C161.41 79.4711 161.42 79.4711 161.44 79.4611C165.9 79.2111 170.42 79.4211 174.89 79.4211C177.07 79.4211 179.24 79.4211 181.42 79.4211C183.32 79.4311 185.44 79.1711 187.28 79.7711C187.28 79.1811 187.28 78.5811 187.29 77.9911C187.29 77.7711 187.4 77.6211 187.54 77.5511C187.58 77.2611 187.93 77.2611 187.97 77.5511C188.11 77.6211 188.22 77.7611 188.22 77.9911C188.23 79.2511 188.23 80.5011 188.24 81.7611C188.34 84.4311 188.33 87.1211 188.29 89.8111C188.4 112.011 188.27 134.221 188.26 156.421C188.26 156.611 188.19 156.741 188.08 156.831C188.08 156.961 188.1 157.091 188.11 157.221C188.15 157.731 187.36 157.731 187.39 157.221C187.39 157.171 187.39 157.131 187.4 157.081C187.39 157.081 187.37 157.081 187.36 157.091C174.03 157.551 160.63 157.171 147.29 157.181C140.68 157.181 134.06 157.181 127.45 157.191C120.73 157.191 113.92 157.531 107.22 156.951C106.78 156.911 106.78 156.241 107.22 156.201C113.92 155.611 120.72 155.951 127.45 155.961C129.76 155.961 132.08 155.961 134.39 155.961C134.26 154.891 134.26 153.821 134.26 152.731C134.26 151.571 134.19 150.391 134.31 149.241C132.5 149.731 130.44 149.481 128.61 149.481C126.32 149.481 124.03 149.481 121.74 149.481C117.18 149.481 112.54 149.751 108 149.241C107.58 149.191 107.58 148.571 108 148.531C112.54 148.021 117.18 148.291 121.74 148.291C123.9 148.291 126.06 148.291 128.23 148.291C129.15 148.291 130.13 148.231 131.12 148.221C130.8 147.121 130.94 145.871 130.94 144.731C130.94 143.861 130.94 142.981 130.98 142.111" fill="black"/>
<path d="M131.1 141.191C131.11 141.101 131.12 141.011 131.13 140.921C131.18 140.591 131.69 140.591 131.74 140.921C131.76 141.081 131.78 141.241 131.79 141.401C131.82 141.411 131.85 141.421 131.88 141.431C132.08 141.521 132.08 141.781 131.88 141.871C131.87 141.871 131.86 141.871 131.85 141.881C131.92 142.831 131.9 143.791 131.9 144.751C131.9 145.901 132.04 147.141 131.72 148.251C132.65 148.261 133.58 148.341 134.44 148.591C134.52 148.271 135.01 148.271 135.07 148.611C135.32 149.971 135.21 151.391 135.2 152.761C135.2 153.861 135.2 154.921 135.07 155.991C139.16 155.991 143.24 155.991 147.33 155.991C160.63 155.991 173.99 155.631 187.28 156.081C187.27 134.131 187.14 112.161 187.24 90.2111C187.2 87.3811 187.18 84.5511 187.29 81.7511C187.29 81.1911 187.29 80.6311 187.29 80.0711C185.57 80.6211 183.59 80.4011 181.81 80.4111C179.5 80.4311 177.2 80.4111 174.89 80.4111C170.42 80.4111 165.9 80.6211 161.44 80.3711C161.03 80.3511 160.94 79.8511 161.15 79.6011C158.89 78.0111 157.01 75.5211 155.12 73.4611C152.93 71.0711 150.75 68.6811 148.56 66.2811C144.09 61.4011 139.63 56.5111 135.17 51.6211C126.34 41.9411 117.51 32.2711 108.81 22.4511C108.57 22.1811 108.94 21.7911 109.18 22.0411C118.14 31.5711 126.97 41.2411 135.81 50.9211C140.18 55.7111 144.55 60.4911 148.92 65.2911C151.1 67.6911 153.29 70.0811 155.47 72.4811C157.46 74.6611 159.89 76.8511 161.4 79.4711C161.41 79.4711 161.42 79.4711 161.44 79.4611C165.9 79.2111 170.42 79.4211 174.89 79.4211C177.07 79.4211 179.24 79.4211 181.42 79.4211C183.32 79.4311 185.44 79.1711 187.28 79.7711C187.28 79.1811 187.28 78.5811 187.29 77.9911C187.29 77.7711 187.4 77.6211 187.54 77.5511C187.58 77.2611 187.93 77.2611 187.97 77.5511C188.11 77.6211 188.22 77.7611 188.22 77.9911C188.23 79.2511 188.23 80.5011 188.24 81.7611C188.34 84.4311 188.33 87.1211 188.29 89.8111C188.4 112.011 188.27 134.221 188.26 156.421C188.26 156.611 188.19 156.741 188.08 156.831C188.08 156.961 188.1 157.091 188.11 157.221C188.15 157.731 187.36 157.731 187.39 157.221C187.39 157.171 187.39 157.131 187.4 157.081C187.39 157.081 187.37 157.081 187.36 157.091C174.03 157.551 160.63 157.171 147.29 157.181C140.68 157.181 134.06 157.181 127.45 157.191C120.73 157.191 113.92 157.531 107.22 156.951C106.78 156.911 106.78 156.241 107.22 156.201C113.92 155.611 120.72 155.951 127.45 155.961C129.76 155.961 132.08 155.961 134.39 155.961C134.26 154.891 134.26 153.821 134.26 152.731C134.26 151.571 134.19 150.391 134.31 149.241C132.5 149.731 130.44 149.481 128.61 149.481C126.32 149.481 124.03 149.481 121.74 149.481C117.18 149.481 112.54 149.751 108 149.241C107.58 149.191 107.58 148.571 108 148.531C112.54 148.021 117.18 148.291 121.74 148.291C123.9 148.291 126.06 148.291 128.23 148.291C129.15 148.291 130.13 148.231 131.12 148.221C130.8 147.121 130.94 145.871 130.94 144.731C130.94 143.861 130.94 142.981 130.98 142.111" stroke="white"/>
<path d="M117.79 28.4345C123.94 28.1445 130.15 28.4345 136.31 28.4445C142.35 28.4445 148.4 28.4445 154.44 28.4445C160.48 28.4445 166.53 28.4445 172.57 28.4445C178.67 28.4445 185.02 27.9145 191.09 28.6045C191.4 28.6445 191.4 29.1045 191.09 29.1345C185.02 29.8245 178.67 29.2945 172.57 29.2945C166.53 29.2945 160.48 29.2945 154.44 29.2945C148.4 29.2945 142.35 29.2945 136.31 29.2945C130.15 29.2945 123.94 29.5945 117.79 29.3045C117.26 29.2745 117.26 28.4245 117.79 28.3945V28.4345Z" fill="black" stroke="white"/>
<path d="M131.949 127.77C131.969 128.31 132.669 128.33 132.739 127.82C132.779 127.84 132.819 127.85 132.869 127.86C140.339 128.33 147.929 127.94 155.419 127.94C159.049 127.94 162.679 127.94 166.309 127.94C169.889 127.94 173.709 128.32 177.259 127.75C177.329 127.74 177.369 127.68 177.399 127.62C177.469 127.56 177.519 127.48 177.519 127.35C177.519 126.97 177.519 126.58 177.499 126.2C177.499 126.04 177.499 125.87 177.479 125.71C177.479 125.65 177.459 125.6 177.439 125.54C177.539 125.37 177.479 125.08 177.279 125.04C176.239 124.83 175.179 124.72 174.099 124.67C174.099 117.58 174.189 110.47 174.169 103.36C174.259 99.8798 174.239 91.6498 173.969 91.5198C173.899 91.2398 160.879 91.4198 154.649 91.4098C151.449 91.4098 148.259 91.4098 145.059 91.3998C141.899 91.3998 138.619 91.1298 135.469 91.4998C135.379 91.5098 135.319 91.5498 135.269 91.5898C135.249 91.5298 135.169 91.5298 135.159 91.5898C134.469 94.1998 134.829 97.3798 134.809 100.08C134.779 102.9 134.789 105.73 134.779 108.55C134.779 111.52 134.769 114.48 134.749 117.44C134.739 119.77 134.389 122.48 134.839 124.81C134.089 124.81 133.339 124.81 132.589 124.83C132.189 124.83 132.059 125.26 132.179 125.57C132.179 125.59 132.149 125.61 132.149 125.64C132.079 126.36 131.929 127.04 131.959 127.78L131.949 127.77ZM173.369 92.3298C173.369 92.5398 173.359 92.7598 173.349 92.9698C173.019 96.3698 173.109 99.8898 173.199 103.37C173.179 110.46 173.269 117.56 173.269 124.64C171.529 124.61 169.759 124.7 168.039 124.74C164.119 124.71 160.209 124.72 156.289 124.74H155.259C148.699 124.73 142.139 124.74 135.579 124.8C136.059 122.35 135.679 119.46 135.669 117.01C135.649 114.19 135.649 111.36 135.639 108.54C135.639 105.58 135.639 102.61 135.609 99.6498C135.589 97.2998 135.849 94.6098 135.399 92.2598C135.419 92.2598 135.439 92.2798 135.459 92.2798C138.729 92.6598 142.139 92.3798 145.429 92.3798C148.499 92.3798 151.559 92.3798 154.629 92.3698C160.849 92.3698 167.149 92.6698 173.359 92.3198L173.369 92.3298ZM132.869 127.11C132.819 127.11 132.769 127.13 132.729 127.15C132.699 126.72 132.639 126.3 132.579 125.87C140.139 125.96 147.699 125.97 155.259 125.96H156.289C160.209 125.99 164.119 126 168.039 125.96C170.979 126.04 174.049 126.25 176.899 125.73C176.879 125.88 176.879 126.04 176.879 126.2C176.869 126.53 176.869 126.86 176.869 127.19C173.429 126.71 169.759 127.06 166.299 127.05C162.669 127.05 159.039 127.04 155.409 127.05C147.919 127.05 140.329 126.65 132.859 127.13L132.869 127.11Z" fill="black" stroke="white"/>
<path d="M171.23 108.254C171.23 103.544 171.02 98.7141 171.39 94.0141C171.41 93.7141 171.8 93.7141 171.82 94.0141C172.19 98.7141 171.97 103.534 171.98 108.254C171.98 112.954 172.32 117.814 171.92 122.494C171.88 122.944 171.32 122.944 171.29 122.494C170.89 117.814 171.23 112.954 171.23 108.254Z" fill="black" stroke="white"/>
<path d="M136.909 108.41C136.909 103.89 136.469 99.01 137.089 94.54C137.119 94.32 137.459 94.32 137.499 94.54C138.119 99.02 137.669 103.88 137.679 108.41C137.679 112.97 138.099 117.78 137.539 122.29C137.509 122.55 137.089 122.55 137.059 122.29C136.499 117.77 136.909 112.96 136.919 108.41H136.909Z" fill="black" stroke="white"/>
<path d="M155.459 108.481C155.459 103.811 155.109 98.9312 155.579 94.2812C155.379 94.1212 155.429 93.7312 155.749 93.7012C158.329 93.4112 161.019 93.6412 163.609 93.6412C166.209 93.6412 168.889 93.4512 171.469 93.7612C171.769 93.8012 171.779 94.2412 171.469 94.2812C168.889 94.5912 166.199 94.4012 163.609 94.4012C161.159 94.4012 158.629 94.5912 156.179 94.3712C156.639 98.9812 156.289 103.831 156.289 108.461C156.289 113.161 156.709 118.101 156.189 122.771C156.139 123.211 155.609 123.211 155.559 122.771C155.039 118.101 155.459 113.161 155.459 108.461V108.481Z" fill="black" stroke="white"/>
<path d="M136.9 93.5569C136.93 93.4169 137.13 93.4169 137.15 93.5569C137.15 93.5569 137.15 93.5669 137.15 93.5769C137.19 93.5569 137.23 93.5369 137.28 93.5369C140.16 93.1769 143.15 93.3869 146.04 93.3869C148.49 93.3869 151.62 92.7969 153.96 93.6469C154.1 93.5969 154.28 93.6669 154.3 93.8869C154.67 98.8169 154.42 103.877 154.44 108.827C154.45 111.177 154.46 113.527 154.47 115.877C154.47 118.217 154.71 120.707 154.35 123.017C154.3 123.337 153.8 123.347 153.75 123.017C153.4 120.837 153.61 118.497 153.62 116.287C153.63 113.797 153.64 111.307 153.65 108.817C153.67 103.977 153.43 99.0069 153.77 94.1769C151.46 94.9169 148.41 94.3769 146.04 94.3769C143.14 94.3769 140.15 94.5869 137.28 94.2269C137.26 94.2269 137.25 94.2169 137.23 94.2069C137.24 94.4569 137.23 94.6969 137.2 94.9269C137.17 95.1169 136.88 95.1169 136.85 94.9269C136.77 94.4869 136.81 93.9869 136.9 93.5569Z" fill="black" stroke="white"/>
<path d="M156.439 122.321C158.849 121.921 161.369 122.131 163.799 122.121C166.189 122.121 168.819 121.751 171.149 122.351C171.409 122.421 171.409 122.861 171.149 122.931C168.819 123.531 166.179 123.171 163.799 123.161C161.369 123.161 158.849 123.361 156.439 122.961C156.149 122.911 156.149 122.361 156.439 122.321Z" fill="black" stroke="white"/>
<path d="M137.159 122.294C140.039 121.894 143.089 122.194 145.989 122.194C148.649 122.194 151.479 121.934 154.109 122.414C154.299 122.454 154.299 122.814 154.109 122.844C151.479 123.324 148.649 123.064 145.989 123.064C143.079 123.064 140.039 123.364 137.159 122.964C136.759 122.914 136.759 122.334 137.159 122.284V122.294Z" fill="black" stroke="white"/>
<path d="M188.87 78.0803C189.22 77.9103 189.55 77.9703 189.93 77.9703C190.26 77.9703 190.59 77.9503 190.92 77.9103C190.89 77.6603 190.86 77.4503 190.94 77.2103C190.94 77.1903 190.96 77.1803 190.97 77.1703C191 76.8703 191.42 76.7603 191.48 77.1003C191.54 77.4403 191.61 77.7903 191.67 78.1303C191.7 78.3103 191.62 78.5103 191.45 78.5503C191 78.6703 190.57 78.7703 190.1 78.8003C189.68 78.8303 189.22 78.9003 188.86 78.6503C188.69 78.5303 188.65 78.2003 188.86 78.0903L188.87 78.0803Z" fill="black" stroke="white"/>
<path d="M178.879 82.5753C180.409 82.4253 181.959 82.4253 183.499 82.3853C184.829 82.3553 186.209 82.2253 187.509 82.5653C187.699 82.6153 187.699 82.9353 187.509 82.9853C186.209 83.3253 184.819 83.1953 183.499 83.1653C181.959 83.1353 180.409 83.1353 178.879 82.9753C178.639 82.9553 178.639 82.5953 178.879 82.5653V82.5753Z" fill="black" stroke="white"/>
<path d="M179.03 82.8869C179.05 82.7669 179.23 82.7669 179.25 82.8869C179.45 84.1269 179.67 85.5969 179.42 86.8869C179.45 86.8169 179.5 86.7669 179.58 86.7569C180.87 86.5269 182.19 86.6269 183.49 86.6269C184.76 86.6269 186.16 86.4269 187.37 86.8969C187.52 86.9569 187.52 87.1669 187.37 87.2269C186.16 87.6969 184.76 87.4869 183.49 87.4969C182.19 87.4969 180.87 87.5969 179.58 87.3669C179.45 87.3469 179.39 87.2269 179.38 87.0969C179.38 87.1069 179.38 87.1269 179.38 87.1369C179.32 87.3969 178.96 87.3969 178.9 87.1369C178.58 85.8069 178.82 84.2269 179.03 82.8969V82.8869Z" fill="black" stroke="white"/>
<path d="M179.03 93.1369C179.05 93.0169 179.23 93.0169 179.25 93.1369C179.45 94.3769 179.67 95.8469 179.42 97.1369C179.45 97.0669 179.5 97.0169 179.58 97.0069C180.87 96.7769 182.19 96.8769 183.49 96.8769C184.76 96.8769 186.16 96.6769 187.37 97.1469C187.52 97.2069 187.52 97.4169 187.37 97.4769C186.16 97.9469 184.76 97.7369 183.49 97.7469C182.19 97.7469 180.87 97.8469 179.58 97.6169C179.45 97.5969 179.39 97.4769 179.38 97.3469C179.38 97.3569 179.38 97.3769 179.38 97.3869C179.32 97.6469 178.96 97.6469 178.9 97.3869C178.58 96.0569 178.82 94.4769 179.03 93.1469V93.1369Z" fill="black" stroke="white"/>
<path d="M179.03 108.52C179.05 108.4 179.23 108.4 179.25 108.52C179.45 109.76 179.67 111.23 179.42 112.52C179.45 112.45 179.5 112.4 179.58 112.39C180.87 112.16 182.19 112.26 183.49 112.26C184.76 112.26 186.16 112.06 187.37 112.53C187.52 112.59 187.52 112.8 187.37 112.86C186.16 113.33 184.76 113.12 183.49 113.13C182.19 113.13 180.87 113.23 179.58 113C179.45 112.98 179.39 112.86 179.38 112.73C179.38 112.74 179.38 112.76 179.38 112.77C179.32 113.03 178.96 113.03 178.9 112.77C178.58 111.44 178.82 109.86 179.03 108.53V108.52Z" fill="black" stroke="white"/>
<path d="M179.03 122.176C179.05 122.056 179.23 122.056 179.25 122.176C179.45 123.416 179.67 124.886 179.42 126.176C179.45 126.106 179.5 126.056 179.58 126.046C180.87 125.816 182.19 125.916 183.49 125.916C184.76 125.916 186.16 125.716 187.37 126.186C187.52 126.246 187.52 126.456 187.37 126.516C186.16 126.986 184.76 126.776 183.49 126.786C182.19 126.786 180.87 126.886 179.58 126.656C179.45 126.636 179.39 126.516 179.38 126.386C179.38 126.396 179.38 126.416 179.38 126.426C179.32 126.686 178.96 126.686 178.9 126.426C178.58 125.096 178.82 123.516 179.03 122.186V122.176Z" fill="black" stroke="white"/>
<path d="M179.03 135.848C179.05 135.728 179.23 135.728 179.25 135.848C179.45 137.088 179.67 138.558 179.42 139.848C179.45 139.778 179.5 139.728 179.58 139.718C180.87 139.488 182.19 139.588 183.49 139.588C184.76 139.588 186.16 139.388 187.37 139.858C187.52 139.918 187.52 140.128 187.37 140.188C186.16 140.658 184.76 140.448 183.49 140.458C182.19 140.458 180.87 140.558 179.58 140.328C179.45 140.308 179.39 140.188 179.38 140.058C179.38 140.068 179.38 140.088 179.38 140.098C179.32 140.358 178.96 140.358 178.9 140.098C178.58 138.768 178.82 137.188 179.03 135.858V135.848Z" fill="black" stroke="white"/>
<path d="M184.219 100.824C184.219 100.704 184.319 100.704 184.329 100.824C184.419 102.064 184.529 103.534 184.409 104.824C184.429 104.754 184.449 104.704 184.489 104.694C185.109 104.464 185.739 104.564 186.359 104.564C186.969 104.564 187.639 104.364 188.209 104.834C188.279 104.894 188.279 105.104 188.209 105.164C187.629 105.634 186.959 105.424 186.359 105.434C185.739 105.434 185.099 105.534 184.489 105.304C184.429 105.284 184.399 105.164 184.399 105.034C184.399 105.044 184.399 105.064 184.399 105.074C184.369 105.334 184.199 105.334 184.169 105.074C184.019 103.744 184.129 102.164 184.229 100.834L184.219 100.824Z" fill="black" stroke="white"/>
<path d="M184.219 88.8712C184.219 88.7512 184.319 88.7512 184.329 88.8712C184.419 90.1113 184.529 91.5813 184.409 92.8713C184.429 92.8013 184.449 92.7512 184.489 92.7412C185.109 92.5112 185.739 92.6112 186.359 92.6112C186.969 92.6112 187.639 92.4112 188.209 92.8812C188.279 92.9412 188.279 93.1512 188.209 93.2112C187.629 93.6812 186.959 93.4713 186.359 93.4813C185.739 93.4813 185.099 93.5812 184.489 93.3512C184.429 93.3312 184.399 93.2112 184.399 93.0812C184.399 93.0912 184.399 93.1113 184.399 93.1213C184.369 93.3813 184.199 93.3813 184.169 93.1213C184.019 91.7913 184.129 90.2112 184.229 88.8812L184.219 88.8712Z" fill="black" stroke="white"/>
<path d="M184.219 116.199C184.219 116.079 184.319 116.079 184.329 116.199C184.419 117.439 184.529 118.909 184.409 120.199C184.429 120.129 184.449 120.079 184.489 120.069C185.109 119.839 185.739 119.939 186.359 119.939C186.969 119.939 187.639 119.739 188.209 120.209C188.279 120.269 188.279 120.479 188.209 120.539C187.629 121.009 186.959 120.799 186.359 120.809C185.739 120.809 185.099 120.909 184.489 120.679C184.429 120.659 184.399 120.539 184.399 120.409C184.399 120.419 184.399 120.439 184.399 120.449C184.369 120.709 184.199 120.709 184.169 120.449C184.019 119.119 184.129 117.539 184.229 116.209L184.219 116.199Z" fill="black" stroke="white"/>
<path d="M184.219 129.871C184.219 129.751 184.319 129.751 184.329 129.871C184.419 131.111 184.529 132.581 184.409 133.871C184.429 133.801 184.449 133.751 184.489 133.741C185.109 133.511 185.739 133.611 186.359 133.611C186.969 133.611 187.639 133.411 188.209 133.881C188.279 133.941 188.279 134.151 188.209 134.211C187.629 134.681 186.959 134.471 186.359 134.481C185.739 134.481 185.099 134.581 184.489 134.351C184.429 134.331 184.399 134.211 184.399 134.081C184.399 134.091 184.399 134.111 184.399 134.121C184.369 134.381 184.199 134.381 184.169 134.121C184.019 132.791 184.129 131.211 184.229 129.881L184.219 129.871Z" fill="black" stroke="white"/>
<path d="M78.5297 107.219C78.4797 107.219 78.4797 107.309 78.5297 107.309C78.5797 107.309 78.5797 107.219 78.5297 107.219Z" fill="black" stroke="white"/>
<path d="M87.3696 143.22C78.1496 142.54 68.7296 143.04 59.4896 143.11C50.2096 143.18 40.8896 142.97 31.6096 143.25C31.3996 143.25 31.3996 143.6 31.6096 143.6C40.8896 143.88 50.2096 143.68 59.4896 143.74C68.7296 143.81 78.1496 144.3 87.3696 143.63C87.6096 143.61 87.6096 143.23 87.3696 143.22Z" fill="black" stroke="white"/>
<path d="M187.58 143.069C183.36 142.789 178.91 142.929 174.65 142.929C169.9 142.929 165.15 142.929 160.39 142.929C150.94 142.929 141.3 142.729 131.88 143.049C131.35 143.069 131.35 143.359 131.88 143.379C141.3 143.699 150.94 143.499 160.39 143.499C164.9 143.499 169.42 143.499 173.93 143.499C178.42 143.499 183.13 143.659 187.57 143.359C187.92 143.339 187.92 143.099 187.57 143.069H187.58Z" fill="black" stroke="white"/>
<path d="M131.05 141.164C127.49 140.694 123.85 140.894 120.26 140.894C116.66 140.894 113.07 140.894 109.47 140.884C102.28 140.884 95.0799 140.764 87.8899 141.074C87.4599 141.094 87.4599 141.784 87.8899 141.804C95.0799 142.124 102.28 142.004 109.47 141.994C113.07 141.994 116.66 141.994 120.26 141.984C123.84 141.984 127.49 142.184 131.05 141.714C131.37 141.674 131.37 141.214 131.05 141.174V141.164Z" fill="black" stroke="white"/>
<path d="M122.58 128.504C122.58 124.004 122.59 119.514 122.59 115.014C122.59 106.144 122.84 97.1939 122.43 88.3439C122.69 88.2539 122.69 87.8039 122.41 87.7239C120.45 87.2039 118.25 87.4839 116.24 87.4839C113.83 87.4839 111.42 87.4839 109.01 87.4839C106.73 87.4839 104.44 87.4839 102.16 87.4839C100.2 87.4839 98.02 87.2139 96.07 87.6339C95.79 87.4539 95.35 87.5839 95.35 88.0439C95.35 89.7039 95.35 91.3639 95.36 93.0139C95.13 100.114 95.36 107.294 95.36 114.354C95.36 114.954 95.36 115.554 95.36 116.154C95.34 124.324 95.32 132.494 95.34 140.664C95.34 141.334 96.29 141.334 96.29 140.664C96.31 132.494 96.29 124.324 96.27 116.154C96.27 115.554 96.27 114.944 96.27 114.344C96.27 107.274 96.5 100.094 96.27 93.0039C96.27 91.5039 96.27 89.9939 96.28 88.4939C98.06 88.8239 100 88.5939 101.78 88.5939C104.19 88.5939 106.6 88.5939 109.01 88.5939C111.29 88.5939 113.58 88.5939 115.86 88.5939C117.75 88.5939 119.82 88.8339 121.71 88.5039C121.3 97.3039 121.56 106.204 121.55 115.014C121.55 119.514 121.55 124.004 121.56 128.504C121.56 132.664 121.15 137.134 121.71 141.254C121.76 141.644 122.37 141.644 122.43 141.254C122.99 137.134 122.57 132.664 122.58 128.504Z" fill="black" stroke="white"/>
<path d="M85.6093 148.136C84.7793 147.986 84.0093 148.216 83.3293 147.496C82.6093 146.726 82.6293 145.426 83.2493 144.606C83.2893 144.546 83.3193 144.486 83.3293 144.426C83.5093 144.216 83.6793 143.986 83.8293 143.706C83.9893 143.386 83.5893 143.016 83.3593 143.306C82.1093 144.896 80.0993 145.116 78.8493 143.356C78.7993 143.286 78.7293 143.256 78.6593 143.256C78.4693 143.166 78.1993 143.256 78.2093 143.556C78.2293 144.306 78.1693 145.126 77.9393 145.816C77.6693 146.146 77.4393 146.526 77.2693 146.926C77.1593 147.026 77.0393 147.106 76.9093 147.176C76.7793 147.116 76.6193 147.156 76.5393 147.326C76.3293 147.386 76.0993 147.406 75.8393 147.396C74.9193 147.346 73.4193 146.786 72.9693 145.786C72.9893 145.426 72.9693 145.066 72.9093 144.706C72.9393 144.596 72.9893 144.496 73.0393 144.376C73.1993 144.056 72.8993 143.786 72.6593 143.856C72.5493 143.576 72.4193 143.296 72.2393 143.026C71.9893 142.646 71.3993 143.006 71.6593 143.396C71.9293 143.816 72.0993 144.266 72.1893 144.726C72.0893 145.136 72.1093 145.526 72.2193 145.886C72.1893 146.086 72.1593 146.276 72.0993 146.466C72.0793 146.486 72.0793 146.516 72.0793 146.536C71.8793 147.146 71.5293 147.686 71.0393 148.056C71.0393 148.056 71.0193 148.056 71.0093 148.056C70.9593 148.086 70.9193 148.126 70.8693 148.156C70.3293 148.506 69.6493 148.666 68.8693 148.526C66.5793 148.096 65.6393 145.716 65.8693 143.426C65.8693 143.376 65.8293 143.346 65.7893 143.336C65.6993 143.336 65.6193 143.316 65.5293 143.316C65.4293 143.316 65.2993 143.386 65.2593 143.486C64.9993 144.086 64.9393 144.706 65.0093 145.306C64.2593 144.736 63.3893 144.406 62.6493 144.496C62.7193 144.176 62.7693 143.856 62.7993 143.526C62.8393 143.076 62.2193 143.096 62.1693 143.526C62.1193 143.956 62.0093 144.386 61.8493 144.806C61.5793 145.006 61.3593 145.316 61.1993 145.726C60.9993 145.936 60.8393 146.176 60.7193 146.446C60.6593 146.506 60.5893 146.556 60.5293 146.606C60.0593 146.946 59.5593 147.076 59.0493 147.076C58.4493 146.776 57.7893 146.596 57.1493 146.576C57.0893 146.546 57.0193 146.516 56.9593 146.486C56.9693 146.446 56.9893 146.406 56.9893 146.356C57.3093 144.126 55.5093 143.286 53.8093 143.006C52.6393 142.816 50.8093 142.536 49.5793 143.196C49.4593 143.156 49.3193 143.196 49.2393 143.346C49.2193 143.386 49.1893 143.426 49.1693 143.466C48.9193 143.676 48.7093 143.946 48.5593 144.286C46.9593 145.936 44.4693 145.456 43.1793 143.306C43.0193 143.036 42.6793 143.266 42.7993 143.556C43.3293 144.846 44.2693 145.596 45.3193 145.866C44.9893 146.076 44.6893 146.356 44.4293 146.666C44.1993 145.406 43.4193 144.326 42.2093 143.856C41.4093 143.546 39.2393 143.226 38.0793 143.856C37.7993 143.436 37.3393 143.246 36.8793 143.666C36.7493 143.786 36.8593 144.036 37.0193 144.026C37.3093 144.026 37.5093 144.096 37.6393 144.206C37.4693 144.406 37.3493 144.656 37.3293 144.976C37.3293 145.146 37.5293 145.226 37.6293 145.116C37.6493 145.096 37.6793 145.076 37.6993 145.056C37.6293 145.276 37.5893 145.506 37.5693 145.726C37.3693 146.156 37.1293 146.546 36.9793 146.756C36.8593 146.706 36.7393 146.656 36.6193 146.616C36.3293 146.516 36.1093 147.036 36.4093 147.166C36.4693 147.196 36.5193 147.216 36.5793 147.246C36.5693 147.256 36.5593 147.266 36.5493 147.276C35.9793 147.536 35.4093 147.876 34.9293 148.306C33.6893 148.656 32.4393 148.106 31.6593 146.916C31.6093 146.836 31.4693 146.886 31.5093 146.986C31.5993 147.256 31.7293 147.486 31.8593 147.696C31.7893 147.626 31.7193 147.546 31.6493 147.476C31.3393 147.156 30.8893 147.656 31.1793 147.986C32.0093 148.916 32.9493 149.836 33.3193 151.116C33.7493 152.616 33.3993 155.396 31.6493 155.696C31.5193 155.716 31.5093 155.926 31.6193 155.986C32.0593 156.246 32.4293 156.236 32.7593 156.076C32.8593 156.206 33.0593 156.236 33.1493 156.066C33.7993 154.826 35.6193 154.676 36.7793 154.616C38.1393 154.536 39.3493 154.806 40.2693 155.956C40.4993 156.236 40.8293 155.976 40.8293 155.676C42.1893 156.446 43.7693 156.946 45.1193 155.886C45.1593 155.856 45.1893 155.816 45.2293 155.776C45.3293 155.916 45.4493 156.056 45.6193 156.176C45.7693 156.276 45.9993 156.106 45.9293 155.916C45.8393 155.646 45.7793 155.386 45.7493 155.136C45.9893 154.706 46.0793 154.236 46.0593 153.746C46.0893 153.696 46.1093 153.656 46.1393 153.606C46.7393 152.716 47.5993 152.256 48.5993 152.586C48.9093 152.686 49.1693 152.846 49.4093 153.046C49.6493 153.526 49.9693 153.926 50.3593 154.256C50.6893 154.896 50.9093 155.616 51.0693 156.306C51.1693 156.756 51.8193 156.566 51.7093 156.116C51.6093 155.716 51.4893 155.286 51.3293 154.876C52.0993 155.226 52.9693 155.356 53.7893 155.246C54.1193 155.196 54.4493 155.106 54.7493 154.966C54.3893 155.336 54.0893 155.766 53.8793 156.246C53.7893 156.456 54.0393 156.616 54.1593 156.426C54.8893 155.336 56.0693 154.376 57.3593 154.396C58.6393 154.416 59.1293 155.316 59.7493 156.346C59.8493 156.516 60.0393 156.506 60.1393 156.376C60.3493 156.466 60.6293 156.336 60.6193 156.046C60.5593 154.706 60.8093 153.376 61.3293 152.166C61.3293 152.146 61.3293 152.126 61.3293 152.106C61.9693 151.536 62.8393 151.316 63.7993 151.666C65.5993 152.326 65.7293 154.366 65.6693 156.106C65.6593 156.456 66.1293 156.516 66.2193 156.186C66.3893 155.526 66.4093 154.836 66.3093 154.166C67.2893 155.086 68.6893 155.536 69.7793 155.096C69.6893 155.286 69.6093 155.496 69.5393 155.716C69.4193 156.146 70.0293 156.326 70.1493 155.896C70.9593 153.176 75.3393 152.946 75.8193 156.026C75.8793 156.386 76.3493 156.266 76.3693 155.946C76.3693 155.856 76.3693 155.776 76.3693 155.686C77.6393 157.056 80.2893 157.256 81.0393 155.426C81.2693 155.846 81.5593 156.246 81.9193 156.606C82.2093 156.896 82.5993 156.456 82.3493 156.136C80.4293 153.726 80.9393 150.116 83.7993 148.926C83.8493 148.906 83.8793 148.876 83.9193 148.846C84.5493 149.076 85.2293 149.076 85.6793 148.546C85.7893 148.416 85.7593 148.156 85.5793 148.126L85.6093 148.136ZM78.8693 144.336C79.0293 144.506 79.2093 144.666 79.3893 144.796C79.1893 144.856 78.9993 144.936 78.8193 145.056C78.8493 144.826 78.8693 144.586 78.8793 144.336H78.8693ZM77.5993 147.666C77.5993 147.666 77.6093 147.666 77.6193 147.646C77.9493 147.356 78.2193 146.986 78.4193 146.546C78.7593 146.066 79.1293 145.626 79.7293 145.456C81.1093 145.056 82.1893 146.506 81.9793 147.916C81.5193 151.046 76.6993 151.066 76.9893 148.046C77.2093 147.956 77.4193 147.826 77.5993 147.676V147.666ZM81.0293 150.616C80.7693 151.146 80.5993 151.726 80.5193 152.316C80.1493 151.846 79.6793 151.456 79.1693 151.166C79.8293 151.166 80.4793 150.976 81.0393 150.616H81.0293ZM77.6293 150.716C77.4093 150.726 77.1993 150.766 76.9993 150.846C76.9893 150.526 76.9193 150.216 76.8193 149.916C77.0293 150.236 77.2993 150.506 77.6293 150.716ZM76.3793 148.206C76.3593 148.556 76.3793 148.896 76.4793 149.206C76.2493 148.836 75.9593 148.496 75.6193 148.226C75.8893 148.256 76.1493 148.246 76.3793 148.206ZM72.7893 146.836C73.0093 147.076 73.2693 147.286 73.5493 147.476C73.2093 147.456 72.8593 147.476 72.5193 147.526C72.6293 147.306 72.7193 147.076 72.7893 146.836ZM66.8593 148.436C67.1893 148.696 67.5393 148.916 67.8993 149.086C67.4793 149.156 67.0593 149.286 66.6993 149.506C66.8293 149.156 66.8693 148.796 66.8493 148.436H66.8593ZM48.4593 145.266C48.5693 145.586 48.6993 145.886 48.8593 146.176C48.5793 145.926 48.2593 145.726 47.9093 145.596C48.0993 145.506 48.2793 145.396 48.4593 145.276V145.266ZM38.6493 144.586C38.6893 144.526 38.6993 144.476 38.6993 144.416C40.7893 143.566 44.0893 144.606 43.9693 147.286C43.9693 147.316 43.9693 147.336 43.9693 147.356C43.7093 147.826 43.5093 148.356 43.4193 148.896C43.4193 148.936 43.4193 148.976 43.4193 149.016C42.5693 149.956 40.9393 149.266 39.8293 148.456C38.6593 147.596 37.6493 146.066 38.6493 144.576V144.586ZM42.0193 150.146C41.7593 150.256 41.4993 150.386 41.2293 150.606C41.1193 150.696 41.0093 150.796 40.8893 150.906C40.8893 150.896 40.8893 150.876 40.8893 150.866C40.8193 150.456 40.6893 150.086 40.5293 149.746C41.0293 149.976 41.5393 150.116 42.0193 150.156V150.146ZM32.4193 148.296C32.9893 148.746 33.7193 148.916 34.4593 148.856C34.0993 149.346 33.8793 149.936 33.8893 150.636C33.5593 149.776 33.0293 149.006 32.4193 148.296ZM36.1693 153.996C35.4493 154.106 34.5793 154.206 33.8693 154.566C34.0293 154.136 34.1393 153.686 34.1893 153.316C34.2593 152.876 34.2493 152.456 34.2093 152.046C34.6793 153.006 35.5893 153.626 36.5793 153.946C36.4393 153.956 36.2993 153.976 36.1593 153.996H36.1693ZM34.5093 150.766C34.4193 149.886 34.7593 149.226 35.2793 148.686C35.8293 148.506 36.3493 148.206 36.7693 147.796C36.8693 147.696 36.9693 147.576 37.0693 147.466C37.7193 147.776 38.3493 148.116 38.9093 148.586C38.9893 148.666 39.0793 148.736 39.1593 148.816C39.2093 148.866 39.2693 148.906 39.3193 148.956C39.9693 149.666 40.3193 150.656 40.2893 151.526C39.8693 152.026 39.5093 152.606 39.4293 153.166C39.1093 153.366 38.7093 153.476 38.1993 153.476C36.6493 153.476 34.6993 152.696 34.5093 150.756V150.766ZM45.0093 155.086C44.6793 155.476 44.1893 155.746 43.5993 155.816C42.4593 155.936 41.4193 155.306 40.4693 154.686C40.3193 154.586 40.1793 154.656 40.0993 154.766C39.7293 154.476 39.3293 154.266 38.9093 154.136C39.1393 154.086 39.3393 154.006 39.5393 153.916C39.6293 154.106 39.7593 154.286 39.9493 154.456C40.1293 154.606 40.3893 154.316 40.2593 154.116C40.1493 153.936 40.0993 153.746 40.0993 153.546C40.5493 153.146 40.8393 152.576 40.9193 151.866C41.2693 151.466 41.6493 151.136 41.9293 150.956C43.3493 150.016 44.7293 151.446 45.2793 152.836C45.3793 153.086 45.4293 153.326 45.4493 153.566C45.1493 154.066 44.9693 154.606 45.0093 155.106V155.086ZM45.9393 152.886C45.8093 152.476 45.6293 152.066 45.3893 151.696C45.7993 151.956 46.2493 152.126 46.7293 152.176C46.4593 152.356 46.1893 152.606 45.9393 152.886ZM48.4593 151.816C48.6693 151.696 48.8593 151.546 49.0393 151.386C49.0393 151.596 49.0693 151.806 49.1093 152.006C48.9093 151.916 48.6893 151.856 48.4593 151.816ZM46.8793 151.406C45.6893 151.326 44.6993 150.396 43.9693 149.426C44.1593 149.186 44.3093 148.896 44.4093 148.516C44.4393 148.396 44.4493 148.286 44.4693 148.166C44.8093 147.526 45.1493 146.896 45.7593 146.516C47.2893 145.556 49.3193 146.586 49.4593 148.566C49.5693 150.126 48.2993 151.506 46.8893 151.416L46.8793 151.406ZM48.8593 144.926C49.0493 144.756 49.2293 144.566 49.3893 144.356C50.2693 143.596 51.3193 143.616 52.4593 143.696C53.8593 143.796 56.7593 143.956 56.2693 146.376C56.2493 146.496 56.2093 146.606 56.1793 146.716C55.7693 146.856 55.4093 147.096 55.1293 147.486C55.0093 147.656 54.8993 147.856 54.8093 148.056C53.9593 148.356 52.9193 148.266 52.1493 147.976C50.7593 147.456 49.4393 146.426 48.8593 144.916V144.926ZM54.5293 148.976C54.4693 149.306 54.4493 149.646 54.4693 149.976C54.1493 149.656 53.8093 149.346 53.4393 149.086C53.8093 149.096 54.1793 149.056 54.5293 148.976ZM50.4993 147.986C50.3093 148.036 50.2293 148.226 50.2593 148.416C50.1993 148.466 50.1293 148.506 50.0693 148.556C50.0293 148.116 49.8993 147.706 49.7193 147.326C49.9593 147.576 50.2193 147.786 50.4993 147.986ZM55.2193 153.796C54.8593 154.386 53.6793 154.506 53.0993 154.496C51.9993 154.476 51.0993 153.976 50.4893 153.226C50.4593 153.186 50.4393 153.156 50.4093 153.116C49.8393 152.356 49.5793 151.376 49.7393 150.396C49.8693 150.116 49.9593 149.816 50.0193 149.516C50.1393 149.246 50.2993 148.996 50.4993 148.746C50.5293 148.756 50.5593 148.766 50.5993 148.776C52.1393 148.826 53.2893 149.886 54.3193 151.026C54.5093 151.236 54.7093 151.456 54.8893 151.676C54.9693 151.826 55.0593 151.956 55.1593 152.086C55.4193 152.606 55.5193 153.326 55.2193 153.816V153.796ZM59.8293 153.696C59.6893 154.006 59.6293 154.356 59.6293 154.716C59.1293 154.176 58.3993 153.826 57.7693 153.756C57.0793 153.676 56.3993 153.846 55.7793 154.176C56.0893 153.786 56.2693 153.306 56.2093 152.766C56.2893 152.786 56.3693 152.806 56.4593 152.816C57.3793 153.466 58.4393 153.776 59.6193 153.356C59.7393 153.316 59.8393 153.256 59.9393 153.206C59.8893 153.366 59.8493 153.526 59.8193 153.696H59.8293ZM57.9593 152.896C57.4793 152.816 57.0493 152.626 56.6493 152.376C56.1993 151.906 55.7093 151.496 55.4493 150.856C55.1493 150.136 55.1793 149.276 55.4993 148.596C55.9393 148.346 56.3193 148.006 56.5893 147.556C56.6393 147.536 56.6893 147.506 56.7393 147.486C57.0393 147.406 57.3793 147.416 57.7293 147.486C57.9893 147.596 58.2493 147.666 58.5093 147.726C59.4793 148.156 60.3793 149.006 60.6293 149.896C61.1793 151.856 59.6293 153.156 57.9593 152.886V152.896ZM61.3093 151.336C61.3993 150.926 61.4193 150.486 61.3493 150.056C61.6693 150.376 62.0893 150.646 62.5493 150.836C62.0993 150.906 61.6793 151.076 61.2993 151.336H61.3093ZM65.1193 151.656C64.9293 151.476 64.7193 151.306 64.4893 151.176C64.7193 151.156 64.9393 151.106 65.1493 151.036C65.1193 151.246 65.1093 151.446 65.1093 151.646L65.1193 151.656ZM64.9693 150.196C63.8693 150.516 62.1893 150.046 61.5593 148.996C61.1393 148.306 61.1393 147.656 61.3193 147.026C61.8293 146.576 62.1893 145.996 62.4293 145.346C63.4493 144.766 64.5793 145.416 65.3293 146.406C65.4793 146.766 65.6693 147.096 65.8993 147.416C66.3693 148.586 66.2493 149.836 64.9793 150.206L64.9693 150.196ZM65.7493 151.196C65.8093 151.266 65.9093 151.296 65.9993 151.226C66.7693 150.676 67.2893 149.906 68.2993 149.836C69.6293 149.746 70.7493 151.066 70.6493 152.506C70.3993 156.126 65.5093 153.976 65.7493 151.186V151.196ZM71.1593 153.636C71.1993 153.526 71.2493 153.416 71.2793 153.296C71.3793 152.956 71.4093 152.616 71.3993 152.276C71.7393 152.616 72.1193 152.916 72.5293 153.156C72.0393 153.236 71.5693 153.396 71.1493 153.646L71.1593 153.636ZM75.7293 154.066C75.5493 153.876 75.3593 153.716 75.1393 153.586C75.3793 153.506 75.6093 153.386 75.8293 153.226C75.7393 153.526 75.7193 153.806 75.7293 154.076V154.066ZM75.7993 152.296C75.0393 153.046 73.6193 153.006 72.6993 152.426C71.8193 151.866 70.6493 150.576 70.8393 149.406C71.6293 148.786 72.2793 148.206 73.3193 148.166C74.6693 148.116 76.2493 149.096 76.3293 150.736C76.3393 150.956 76.3293 151.156 76.2893 151.346C76.0493 151.616 75.8693 151.956 75.7993 152.306V152.296ZM76.2693 153.356C76.3293 153.336 76.3893 153.306 76.4293 153.236C76.8993 152.266 77.1793 151.246 78.4493 151.726C79.4193 152.096 80.4793 153.076 80.5493 154.266C80.6993 157.106 75.8793 156.266 76.2793 153.356H76.2693ZM82.4593 148.806C82.4893 148.716 82.5293 148.636 82.5593 148.546C82.6193 148.346 82.6493 148.136 82.6593 147.936C82.7793 148.086 82.9393 148.226 83.1093 148.366C82.8793 148.496 82.6593 148.646 82.4593 148.806Z" fill="black" stroke="white"/>
<path d="M67.3992 6.1775C67.3992 4.5375 67.5192 2.8575 67.2692 1.2475C67.2192 0.9175 66.7092 0.9175 66.6592 1.2475C66.6292 1.4375 46.8492 1.3475 45.4892 2.1375C45.4492 2.1575 45.4492 2.2375 45.4892 2.2575C46.8592 3.0475 48.5492 2.7275 50.0592 2.7275H55.7292C59.2092 2.7275 63.0892 3.2475 66.5292 2.5775C66.4692 3.7775 66.5292 4.9875 66.5292 6.1875C66.5292 7.6275 66.4592 9.0975 66.6492 10.5175C61.2292 10.5075 55.6792 10.1775 50.2292 10.4375C48.7992 10.4475 47.3792 10.5175 45.9692 10.6975C46.3992 9.6975 46.1992 8.4375 46.1892 7.3375C46.1892 5.8775 46.2492 4.4075 46.0592 2.9575C46.0192 2.6475 45.5292 2.6475 45.4892 2.9575C45.2992 4.4075 45.3592 5.8775 45.3592 7.3375C45.3592 8.4975 45.1292 9.8475 45.6792 10.8775C45.5992 11.0575 45.6592 11.2975 45.9092 11.3275C47.2292 11.5075 48.5692 11.5775 49.9092 11.5975C49.7292 13.2675 49.7492 14.9975 49.7792 16.7075C49.7792 17.8775 49.7892 19.0475 49.8092 20.2175C49.8092 22.4075 49.7892 24.5975 49.8592 26.7875C49.8792 27.2575 50.5292 27.2575 50.5192 26.7875C50.5892 24.5975 50.5792 22.4075 50.5692 20.2175C50.5892 19.0475 50.6092 17.8775 50.5992 16.7075C50.6292 14.9975 50.6592 13.2775 50.4692 11.6075C54.8092 11.7975 59.2192 11.6275 63.5692 11.5475C63.5492 12.0575 63.5492 12.5675 63.5392 13.0775C63.4092 14.7375 63.4892 16.4275 63.4992 18.0775C63.4992 18.6675 63.4992 19.2575 63.4992 19.8475C63.4992 22.0075 63.4992 24.1575 63.4992 26.3175C63.4992 26.9375 64.3792 26.9375 64.3792 26.3175C64.3992 24.1575 64.3892 22.0075 64.3792 19.8475C64.3792 19.2575 64.3792 18.6675 64.3792 18.0775C64.3892 16.4275 64.4692 14.7275 64.3392 13.0775C64.3292 12.5675 64.3192 12.0475 64.3092 11.5375C65.2292 11.5275 66.1492 11.5175 67.0692 11.5175C67.5992 11.5175 67.3492 7.6175 67.3492 6.1775H67.3992Z" fill="black" stroke="white"/>
<path d="M187.54 146.815C187.59 146.735 187.58 146.625 187.54 146.545C187.41 146.305 187.27 146.275 187.02 146.215C186.67 146.125 186.38 145.975 186.13 145.695C185.61 145.095 185.74 144.385 185.71 143.655C185.71 143.505 185.58 143.445 185.47 143.485C185.3 143.265 184.89 143.335 184.88 143.705C184.87 144.585 184.72 145.475 184.37 146.135C183.98 146.245 183.64 146.525 183.44 147.025C183.03 147.185 182.53 147.185 181.9 146.925C181.22 146.655 180.54 146.265 180.33 145.445C180.16 144.765 180.27 144.015 180.31 143.335C180.33 142.955 179.81 142.895 179.71 143.245V143.265C179.56 143.255 179.4 143.355 179.42 143.575C179.51 144.905 179.03 146.235 178.01 146.935C177.61 147.025 177.24 147.185 176.91 147.395C175.81 147.615 174.7 147.205 174.05 146.175C174.42 145.245 174.46 144.135 174.46 143.155C174.46 142.745 173.91 142.755 173.89 143.155C173.78 145.105 173.3 147.445 171.06 147.395C169.1 147.355 168.36 145.075 168.92 143.305C169.02 142.975 168.58 142.795 168.42 143.075C168.13 143.575 167.98 144.125 167.96 144.665C167.91 144.595 167.87 144.535 167.82 144.475C166.58 143.135 163.49 143.075 161.99 143.705C161.78 143.795 161.73 144.005 161.79 144.165C161.74 144.235 161.69 144.315 161.64 144.385C161.59 144.295 161.55 144.205 161.49 144.125C160.32 142.445 157.68 142.365 156.14 143.425C156.07 143.475 156.05 143.545 156.05 143.615C155.61 143.945 155.31 144.415 155.15 144.965C155.07 144.815 154.98 144.665 154.88 144.515C153.7 142.875 150.82 142.535 149.05 143.305C148.96 143.175 148.81 143.105 148.66 143.235C147.81 143.945 147.48 145.435 147.54 146.845C146.92 146.165 146.13 145.835 145.28 145.725C145.95 145.225 146.44 144.485 146.59 143.475C146.64 143.155 146.3 143.005 146.13 143.265C145.44 144.245 144.99 145.145 143.88 145.635C142.65 146.175 141.37 145.915 140.28 145.145C140.25 145.125 140.22 145.115 140.2 145.105C140.02 144.935 139.83 144.795 139.62 144.675C139.02 144.355 137.65 144.085 136.84 144.455C136.84 144.135 136.8 143.815 136.73 143.485C136.65 143.135 136.14 143.205 136.15 143.575C136.17 144.885 136.01 146.105 135.15 147.105C134.21 148.195 132.81 148.595 131.48 148.365C131.2 148.315 131.08 148.745 131.36 148.835C132.45 149.185 133.6 148.995 134.56 148.445C134.37 149.735 134.63 151.095 135.51 151.895C135.42 151.915 135.34 151.955 135.26 152.015C135.18 152.075 135.16 152.165 135.2 152.265C135.34 152.625 135.64 152.635 135.94 152.825C136.36 153.085 136.73 153.465 137.01 153.905C137.26 154.315 137.45 154.775 137.52 155.265C137.59 155.705 137.52 156.145 137.66 156.565C137.71 156.725 137.91 156.825 138.03 156.675C138.12 156.555 138.19 156.425 138.24 156.275C138.3 156.265 138.35 156.225 138.37 156.145C138.82 154.215 139.72 151.775 141.76 151.305C141.88 151.275 142 151.265 142.12 151.255C142.79 151.855 143.64 152.155 144.51 152.185C145.45 153.185 145.94 154.805 145.9 156.225C145.9 156.475 146.22 156.565 146.33 156.355C146.47 156.085 146.55 155.805 146.59 155.525C146.91 156.015 147.3 156.425 147.69 156.685C149.28 157.755 151.63 157.475 152.79 155.785C153.2 155.195 153.38 154.605 153.39 154.055C153.68 154.635 154.06 155.155 154.53 155.575C155.97 156.835 158.27 156.925 159.02 154.775C159.23 154.175 159.33 153.525 159.31 152.875C159.83 153.365 160.5 153.765 161.2 154.005C160.19 154.135 159.25 154.555 158.66 155.595C158.49 155.895 158.89 156.245 159.11 155.975C160.04 154.845 161.23 154.685 162.54 154.785C163.93 154.885 164.78 155.195 165.79 156.295C165.94 156.455 166.28 156.355 166.25 156.085C166.11 154.795 164.95 154.315 163.86 154.115C164.27 153.965 164.63 153.725 164.9 153.365C165 153.235 165.06 153.105 165.13 152.975C165.5 153.985 166.23 154.805 167.28 155.115C167.63 155.215 167.98 155.245 168.31 155.215C167.99 155.635 168.54 156.235 168.86 155.815C169.75 154.645 171.25 153.625 172.59 153.615C173.09 153.965 173.64 154.205 174.18 154.235C174.49 154.535 174.77 154.935 174.98 155.485C175.09 155.775 175.42 155.735 175.59 155.545C175.67 155.835 175.78 156.105 175.9 156.355C176.02 156.595 176.42 156.495 176.39 156.215C176.32 155.505 176.08 154.815 176.1 154.085C176.14 152.615 177.2 152.135 178.4 152.165C179.27 152.185 180.3 152.225 180.84 153.075C181.43 153.995 181.21 155.195 181.13 156.235C181.1 156.615 181.64 156.705 181.75 156.365C181.76 156.475 181.77 156.585 181.79 156.705C181.82 156.895 182.12 156.905 182.14 156.705C182.5 153.885 184.05 151.865 186.8 151.975C187.24 151.995 187.22 151.295 186.8 151.245C186.68 151.235 186.56 151.225 186.44 151.225C187.53 150.235 187.77 148.415 186.88 147.175C186.86 147.145 186.83 147.125 186.82 147.105C187.11 147.155 187.37 147.105 187.53 146.805L187.54 146.815ZM161.89 147.705C162.1 148.015 162.35 148.305 162.64 148.555C162.29 148.445 161.93 148.365 161.58 148.355C161.71 148.155 161.81 147.935 161.9 147.705H161.89ZM156.48 143.865C157.67 143.805 158.83 143.235 160.01 143.815C160.6 144.105 161.04 144.725 161.27 145.435C161.21 145.895 161.27 146.365 161.43 146.815C161.36 147.505 161.05 148.145 160.44 148.505C159.14 149.255 157.51 149.295 156.46 148.065C155.29 146.695 155.89 145.275 156.48 143.875V143.865ZM155.43 147.975C155.49 148.095 155.54 148.215 155.61 148.315C155.75 148.525 155.9 148.705 156.05 148.865C155.71 148.855 155.38 148.875 155.05 148.965C155.21 148.645 155.34 148.315 155.43 147.965V147.975ZM148.34 149.575C148.57 149.885 148.86 150.165 149.19 150.385C148.79 150.355 148.39 150.365 148.01 150.445C148.17 150.175 148.28 149.875 148.34 149.575ZM138.04 154.285C137.92 153.985 137.79 153.715 137.65 153.495C137.51 153.265 137.22 152.895 136.89 152.575C137.53 152.725 138.21 152.755 138.85 152.635C138.48 153.145 138.2 153.705 138.04 154.285ZM139.94 151.395C139.07 152.125 137.09 152.045 136.18 151.415C135.1 150.665 135.09 149.405 135.06 148.125C135.06 148.125 135.06 148.125 135.06 148.115C135.82 147.535 136.41 146.705 136.68 145.735C136.68 145.735 136.7 145.725 136.71 145.715C137.13 144.975 138.18 144.995 138.84 145.175C139.73 145.415 140.2 146.075 140.56 146.965C141.11 148.325 141.11 150.435 139.95 151.395H139.94ZM141.01 146.275C141.24 146.355 141.49 146.415 141.74 146.465C141.72 146.485 141.69 146.495 141.67 146.525C141.53 146.705 141.41 146.905 141.31 147.105C141.23 146.815 141.13 146.545 141.01 146.285V146.275ZM145.83 152.685C145.69 152.485 145.55 152.295 145.39 152.115C145.59 152.085 145.78 152.015 145.97 151.955C145.99 151.985 146 152.015 146.03 152.035C145.93 152.235 145.86 152.455 145.83 152.685ZM144.67 151.425C144.01 150.885 143.27 150.525 142.59 150.455C142.51 150.455 142.43 150.455 142.35 150.455C141.53 149.535 141.32 148.055 142.09 146.985C142.1 146.965 142.11 146.945 142.12 146.925C142.18 146.945 142.24 146.945 142.31 146.925C143.67 146.555 145.25 146.055 146.55 146.925C147.98 147.875 148.2 149.905 146.67 150.885C146.09 151.255 145.38 151.445 144.68 151.445L144.67 151.425ZM151.92 155.615C150.69 156.905 148.54 156.785 147.4 155.435C146.51 154.385 146.66 153.245 146.49 151.995C147.68 151.465 148.74 150.895 150.09 151.295C151.77 151.785 153.61 153.865 151.93 155.625L151.92 155.615ZM151.5 151.135C151.97 151.155 152.43 151.105 152.85 150.975C152.79 151.445 152.8 151.925 152.87 152.385C152.53 151.895 152.06 151.465 151.51 151.135H151.5ZM148.86 148.795C148.19 147.615 148.17 145.145 148.97 143.945C150.3 143.715 151.96 143.445 153.26 143.945C155.65 144.885 155.35 147.885 153.74 149.455C152.43 150.735 149.83 150.485 148.87 148.795H148.86ZM158.56 154.295C157.91 156.435 155.62 155.725 154.56 154.455C153.81 153.545 153.51 152.415 153.56 151.245C154.52 150.135 155.49 149.145 157.01 149.815C157.59 150.075 158.02 150.525 158.31 151.065C158.36 151.395 158.47 151.705 158.64 151.995C158.81 152.745 158.79 153.555 158.57 154.285L158.56 154.295ZM164.48 152.655C163.83 153.845 162.21 153.455 161.24 153.105C159.88 152.605 158.66 151.565 158.99 149.835C159.22 149.805 159.45 149.755 159.67 149.685C159.69 149.685 159.7 149.685 159.72 149.685C160.75 149.315 161.6 148.885 162.71 149.265C163.88 149.655 165.27 151.225 164.49 152.665L164.48 152.655ZM165.01 150.355C164.81 150.035 164.55 149.745 164.26 149.485C164.54 149.565 164.83 149.615 165.11 149.625C165.03 149.865 164.99 150.105 165.01 150.355ZM163 147.905C162.56 147.495 162.28 147.005 162.14 146.475C162.15 146.125 162.12 145.775 162.05 145.435C162.07 145.075 162.15 144.725 162.29 144.375C163.35 144.205 164.47 144.115 165.54 144.235C166.49 144.345 167.49 144.665 167.68 145.885C167.76 146.415 167.43 147.195 167.11 147.685C166.59 147.865 166.07 148.225 165.67 148.695C164.75 148.885 163.71 148.565 163 147.915V147.905ZM167.27 154.215C166.19 153.695 165.66 152.555 165.7 151.355C165.76 151.325 165.8 151.275 165.82 151.185C165.92 150.585 166.02 149.955 166.26 149.445C166.54 149.335 166.82 149.185 167.08 148.965C167.25 148.825 167.4 148.635 167.55 148.435C167.62 148.425 167.68 148.405 167.75 148.395C169.36 148.295 170.6 149.965 170.53 151.655C170.44 153.505 168.97 155.025 167.28 154.215H167.27ZM168.02 147.575C168.18 147.205 168.28 146.795 168.33 146.395C168.79 147.375 169.65 148.125 170.73 148.245C170.83 148.255 170.93 148.255 171.03 148.255C170.82 148.595 170.69 148.985 170.64 149.405C170.08 148.395 169.14 147.655 168.01 147.565L168.02 147.575ZM170.96 153.055C171.07 152.755 171.15 152.445 171.19 152.115C171.33 152.355 171.51 152.595 171.71 152.825C171.45 152.875 171.2 152.955 170.96 153.055ZM175.11 153.285C174.91 153.395 174.69 153.425 174.46 153.415C174.02 153.085 173.5 152.875 172.95 152.795C172.62 152.545 172.33 152.265 172.13 152.005C171.42 151.065 170.9 149.075 171.91 148.165C171.94 148.165 171.96 148.145 171.99 148.135C172.08 148.265 172.24 148.345 172.36 148.245C173.47 147.335 174.78 147.675 175.59 148.895C176.37 150.075 176.56 152.515 175.1 153.285H175.11ZM179.66 146.035C179.7 146.155 179.75 146.265 179.81 146.375C179.94 146.625 180.13 146.845 180.34 147.045C179.97 146.925 179.58 146.855 179.18 146.845C179.37 146.595 179.53 146.325 179.66 146.035ZM176.63 151.815C176.71 151.405 176.74 150.965 176.71 150.545C176.96 150.925 177.3 151.225 177.69 151.465C177.31 151.515 176.95 151.625 176.63 151.815ZM176.91 148.525C176.91 148.465 176.91 148.415 176.91 148.375C177.21 148.225 177.52 148.075 177.82 147.935C177.85 147.925 177.89 147.915 177.92 147.895C178.22 147.765 178.53 147.655 178.87 147.625C179.91 147.505 181.17 147.925 181.47 149.165C182.17 152.125 176.5 151.735 176.92 148.535L176.91 148.525ZM181.99 154.545C181.97 153.845 181.83 153.165 181.44 152.575C181.24 152.275 180.98 152.055 180.69 151.885C181.37 151.685 181.95 151.235 182.18 150.405C182.21 150.305 182.22 150.215 182.24 150.125C182.26 150.175 182.27 150.235 182.29 150.275C182.68 151.115 183.42 151.645 184.24 151.825C183.22 152.405 182.38 153.375 181.99 154.535V154.545ZM185.9 150.685C185.2 151.145 184.31 151.065 183.64 150.575C183.24 150.275 182.97 149.825 182.89 149.295C182.87 149.175 182.91 148.125 183.15 148.165C183.24 148.185 183.34 148.145 183.41 148.085C184.08 147.955 184.56 147.495 184.89 146.885C185.57 146.785 186.36 147.335 186.67 148.005C187.11 148.955 186.71 150.145 185.89 150.685H185.9Z" fill="black" stroke="white"/>
<path d="M120.719 103.499C120.719 99.2994 121.029 94.9194 120.589 90.7494C120.549 90.3594 120.159 90.2994 119.999 90.5594C119.939 90.5094 119.869 90.4694 119.769 90.4694C113.499 90.4394 107.079 90.0394 100.779 90.3994C99.9693 90.3994 99.1693 90.4294 98.3893 90.5794C98.2193 90.5894 98.0593 90.6094 97.8893 90.6194C97.6893 90.4094 97.2893 90.4994 97.2693 90.8894C97.2593 91.2594 97.2493 91.6394 97.2393 92.0194C97.1093 94.0194 97.0993 96.0494 97.1293 98.0894C97.0993 102.969 97.1693 107.859 97.1993 112.739C97.1993 113.819 97.1993 114.899 97.1993 115.979C97.1993 124.239 97.1993 132.509 97.1993 140.769C97.1993 141.379 98.0693 141.379 98.0693 140.769C98.0693 132.509 98.0793 124.239 98.0693 115.979C98.0693 114.899 98.0693 113.809 98.0693 112.729C98.0993 107.859 98.1693 102.969 98.1393 98.0994C98.1693 96.0694 98.1593 94.0294 98.0293 92.0294C98.0293 91.7494 98.0193 91.4694 98.0093 91.1894C98.1393 91.1894 98.2593 91.2094 98.3893 91.2194C99.1693 91.3694 99.9693 91.4094 100.779 91.3994C107.069 91.7494 113.499 91.3494 119.769 91.3294C119.809 91.3294 119.849 91.3194 119.889 91.2994C119.529 95.2994 119.799 99.4994 119.809 103.509C119.809 107.619 119.809 111.729 119.809 115.829C119.809 124.189 119.789 132.549 119.779 140.899C119.779 141.579 120.739 141.579 120.739 140.899C120.739 132.539 120.709 124.179 120.709 115.829C120.709 111.719 120.709 107.609 120.709 103.509L120.719 103.499Z" fill="black" stroke="white"/>
<path d="M118.439 120.984C118.819 116.444 118.519 111.744 118.519 107.194C118.519 102.604 118.789 97.8839 118.389 93.3139C118.389 93.2639 118.359 93.2339 118.339 93.1939C118.459 93.0539 118.409 92.8039 118.179 92.7739C114.969 92.3339 111.549 92.6739 108.309 92.6639C105.399 92.6639 102.009 92.1439 99.1594 92.8739C99.0794 92.8939 99.0594 92.9739 99.0694 93.0439C99.0494 93.0639 99.0294 93.0839 99.0294 93.1139C98.4294 97.5439 98.8694 102.354 98.8694 106.834C98.8694 111.664 98.6594 116.534 98.8294 121.354C98.8494 121.824 99.4194 121.874 99.5494 121.494C102.409 121.914 105.439 121.624 108.309 121.624C111.609 121.624 115.029 121.884 118.309 121.504C118.609 121.474 118.639 121.114 118.439 120.964V120.984ZM108.299 120.794C105.449 120.794 102.419 120.514 99.5794 120.924C99.7194 116.244 99.5394 111.514 99.5294 106.834C99.5294 102.384 99.9594 97.6239 99.3794 93.2139C102.179 93.8739 105.459 93.3839 108.309 93.3839C111.479 93.3839 114.819 93.6939 117.969 93.2939C117.569 97.8639 117.839 102.584 117.839 107.174C117.839 111.694 117.549 116.354 117.909 120.854C114.749 120.534 111.479 120.774 108.309 120.774L108.299 120.794Z" fill="black" stroke="white"/>
<path d="M63.719 15.0055C61.589 14.7155 59.369 14.8855 57.219 14.8855C55.069 14.8855 52.859 14.7355 50.719 15.0255C50.419 15.0655 50.409 15.5055 50.719 15.5455C52.859 15.8355 55.069 15.6955 57.219 15.6855C59.369 15.6855 61.589 15.8555 63.719 15.5655C64.049 15.5155 64.049 15.0455 63.719 14.9955V15.0055Z" fill="black" stroke="white"/>
<path d="M63.849 19.9645C61.449 19.6845 58.989 19.8445 56.579 19.8445C54.529 19.8445 51.999 19.4045 50.059 20.2245C50.009 20.2445 50.009 20.3045 50.059 20.3245C51.999 21.1545 54.519 20.7045 56.579 20.7045C58.989 20.7045 61.459 20.8645 63.849 20.5845C64.209 20.5445 64.209 20.0145 63.849 19.9745V19.9645Z" fill="black" stroke="white"/>
<path d="M64.6301 24.7344C62.0701 24.5344 59.4701 24.5944 56.9001 24.5844C54.7201 24.5844 51.9901 24.0944 49.9301 24.9044C49.8801 24.9244 49.8801 25.0044 49.9301 25.0244C52.0001 25.8444 54.7201 25.3544 56.9001 25.3444C59.4701 25.3444 62.0701 25.3944 64.6301 25.1944C64.9001 25.1744 64.9001 24.7444 64.6301 24.7244V24.7344Z" fill="black" stroke="white"/>
<path d="M60.3797 11.4475C60.3797 11.0175 59.7797 11.0175 59.7697 11.4475C59.7597 12.7175 59.6797 14.0275 59.7997 15.2875C59.8397 15.6675 60.2997 15.6675 60.3397 15.2875C60.4697 14.0275 60.3897 12.7075 60.3697 11.4475H60.3797Z" fill="black" stroke="white"/>
<path d="M51.6295 11.5083C51.3095 12.5883 51.3695 13.8883 51.4295 15.0083C51.4595 15.4683 52.1095 15.4783 52.0895 15.0083C52.0595 13.8683 52.2395 12.7283 52.1895 11.5983C52.1795 11.2383 51.7195 11.1683 51.6195 11.5183L51.6295 11.5083Z" fill="black" stroke="white"/>
<path d="M55.539 15.1488C55.539 14.7788 55.039 14.7888 55.019 15.1488C54.939 16.8588 54.939 18.5688 55.019 20.2788C55.039 20.6888 55.619 20.6888 55.599 20.2788C55.539 18.5688 55.519 16.8588 55.529 15.1488H55.539Z" fill="black" stroke="white"/>
<path d="M60.2493 20.5562C60.2393 20.1062 59.6093 20.1062 59.6193 20.5562C59.6493 22.0962 59.7093 23.6763 59.9393 25.1963C59.9993 25.5763 60.5793 25.4863 60.5493 25.1063C60.4393 23.5863 60.2893 22.0762 60.2493 20.5562Z" fill="black" stroke="white"/>
<path d="M94.6491 34.6882C89.2391 34.3282 83.7491 34.6182 78.3391 34.6182C72.9291 34.6182 67.2091 34.6182 61.6391 34.6182C50.6391 34.6282 39.6291 34.5582 28.6291 34.7782C28.4491 34.7782 28.4491 35.0882 28.6291 35.0882C39.6291 35.3082 50.6391 35.2382 61.6391 35.2482C67.0791 35.2482 72.5191 35.2482 77.9491 35.2482C83.3791 35.2482 89.1191 35.5382 94.6491 35.1782C94.9491 35.1582 94.9491 34.6882 94.6491 34.6682V34.6882Z" fill="black" stroke="white"/>
<path d="M87.6296 42.63C82.7396 42.25 77.7496 42.55 72.8496 42.55C67.9196 42.55 62.9896 42.55 58.0596 42.57C48.2096 42.61 38.3396 42.48 28.4896 42.69C28.2196 42.69 28.2196 43.14 28.4896 43.15C38.3396 43.35 48.2096 43.23 58.0596 43.27C62.8596 43.29 67.6596 43.29 72.4596 43.29C77.4896 43.29 82.6196 43.6 87.6296 43.21C87.9696 43.18 87.9696 42.66 87.6296 42.64V42.63Z" fill="black" stroke="white"/>
<path d="M80.0894 51.0792C75.8494 50.6692 71.5094 50.9192 67.2494 50.9192C62.8394 50.9192 58.4294 50.9392 54.0294 50.9592C45.3694 50.9892 36.6194 50.6292 27.9694 51.0892C27.7094 51.0992 27.7094 51.5192 27.9694 51.5292C36.6194 51.9992 45.3694 51.6292 54.0294 51.6592C58.3094 51.6792 62.5894 51.6992 66.8694 51.6992C71.2594 51.6992 75.7194 51.9592 80.0894 51.5392C80.3694 51.5092 80.3694 51.0892 80.0894 51.0692V51.0792Z" fill="black" stroke="white"/>
<path d="M72.6893 59.1691C68.8893 58.7191 64.9193 59.0191 61.0893 59.0291C57.4793 59.0291 53.8693 59.0291 50.2693 59.0391C46.6593 59.0391 43.0493 59.0391 39.4493 59.0591C35.6193 59.0591 31.6693 58.7991 27.8493 59.2091C27.5893 59.2391 27.5893 59.6291 27.8493 59.6591C31.6693 60.0591 35.6093 59.7991 39.4493 59.8091C43.0593 59.8091 46.6693 59.8191 50.2693 59.8291C53.8793 59.8291 57.4893 59.8291 61.0893 59.8391C64.9093 59.8391 68.8793 60.1391 72.6893 59.6991C72.9993 59.6591 72.9993 59.2191 72.6893 59.1791V59.1691Z" fill="black" stroke="white"/>
<path d="M64.6298 67.955C58.5298 67.325 52.1798 67.835 46.0498 67.845C42.9498 67.845 39.8598 67.855 36.7598 67.865C33.9298 67.865 30.9998 67.645 28.1998 68.075C28.0298 68.105 28.0298 68.425 28.1998 68.445C31.0098 68.865 33.9298 68.645 36.7598 68.655C39.8598 68.655 42.9498 68.665 46.0498 68.675C52.1798 68.685 58.5298 69.185 64.6298 68.565C64.9798 68.525 64.9798 68.005 64.6298 67.975V67.955Z" fill="black" stroke="white"/>
<path d="M190.58 34.5845C179.54 33.8845 168.36 34.4045 157.31 34.4045C146.23 34.4045 135.11 34.1645 124.04 34.4945C123.69 34.5045 123.69 35.0745 124.04 35.0845C135.12 35.4245 146.23 35.1745 157.31 35.1745C168.37 35.1745 179.55 35.6945 190.58 34.9945C190.82 34.9745 190.82 34.5945 190.58 34.5845Z" fill="black" stroke="white"/>
<path d="M190.67 42.3198C180.73 42.2298 170.8 42.1998 160.86 42.2098C150.93 42.2098 140.98 42.0098 131.05 42.2898C130.97 42.2898 130.92 42.3198 130.87 42.3598C130.8 42.3598 130.73 42.3598 130.66 42.3598C130.34 42.3598 130.34 42.8998 130.66 42.9098C130.73 42.9098 130.8 42.9098 130.87 42.9098C130.92 42.9498 130.97 42.9798 131.05 42.9798C140.98 43.2598 150.93 43.0498 160.86 43.0598C170.8 43.0598 180.73 43.0398 190.67 42.9498C190.86 42.9498 190.95 42.7898 190.95 42.6398C190.95 42.4798 190.86 42.3198 190.67 42.3298V42.3198Z" fill="black" stroke="white"/>
<path d="M190.83 50.6483C186.47 50.2983 182.04 50.4883 177.67 50.4883C173.28 50.4883 168.9 50.4983 164.51 50.5083C155.76 50.5183 146.93 50.1383 138.19 50.6183C137.88 50.6383 137.88 51.1383 138.19 51.1483C146.93 51.6283 155.76 51.2483 164.51 51.2583C168.77 51.2583 173.03 51.2683 177.28 51.2783C181.77 51.2783 186.34 51.4783 190.83 51.1183C191.1 51.0983 191.1 50.6783 190.83 50.6483Z" fill="black" stroke="white"/>
<path d="M190.83 58.3277C183.18 57.7577 175.36 58.2077 167.69 58.2077C159.98 58.2077 152.26 58.0977 144.55 58.3277C144.26 58.3277 144.26 58.8177 144.55 58.8277C152.25 59.0577 159.98 58.9477 167.69 58.9477C175.36 58.9477 183.18 59.3977 190.83 58.8277C191.12 58.8077 191.12 58.3577 190.83 58.3377V58.3277Z" fill="black" stroke="white"/>
<path d="M190.709 66.7491C187.539 66.4191 184.279 66.6391 181.089 66.6391C177.879 66.6391 174.679 66.6391 171.469 66.6391C168.389 66.6391 165.309 66.6391 162.239 66.6291C158.929 66.6291 155.539 66.3891 152.239 66.7291C151.949 66.7591 151.949 67.1891 152.239 67.2191C155.419 67.5491 158.669 67.3291 161.859 67.3191C165.069 67.3191 168.269 67.2991 171.479 67.3091C174.559 67.3091 177.639 67.3091 180.709 67.3091C184.019 67.3091 187.419 67.5391 190.709 67.1991C190.979 67.1691 190.979 66.7691 190.709 66.7391V66.7491Z" fill="black" stroke="white"/>
<path d="M136.13 85.3199C117.7 85.3199 99.2596 85.0499 80.8296 85.3099C85.6896 81.4099 90.1595 77.0199 94.7795 72.8999C99.6195 68.5899 104.52 64.3199 109.17 59.8499C109.41 59.6199 109.04 59.2899 108.79 59.5099C103.8 63.6799 99.0396 68.0699 94.2296 72.3999C89.4396 76.7099 84.3196 80.8799 79.8296 85.4399C79.6796 85.5999 79.7696 85.7899 79.9296 85.8499C79.9796 85.9899 80.1095 86.0999 80.3195 86.0999C98.9096 86.3699 117.53 86.0999 136.13 86.0999C136.4 86.0999 136.54 85.9099 136.54 85.7199C136.54 85.5299 136.4 85.3399 136.13 85.3399V85.3199Z" fill="black" stroke="white"/>
<path d="M137.129 84.695C135.099 82.445 132.519 80.495 130.239 78.455C127.869 76.335 125.489 74.215 123.119 72.105C120.749 69.985 118.369 67.865 115.989 65.755C113.819 63.835 111.729 61.615 109.209 60.055C109.159 60.025 109.099 60.085 109.129 60.125C110.869 62.385 113.339 64.255 115.489 66.205C117.849 68.335 120.209 70.465 122.579 72.595C124.939 74.725 127.309 76.855 129.669 78.975C131.829 80.915 133.909 83.105 136.259 84.885C136.259 84.905 136.249 84.925 136.259 84.935C136.259 84.995 136.279 85.035 136.309 85.095C136.359 85.185 136.499 85.255 136.609 85.245C136.679 85.245 136.729 85.255 136.789 85.265C136.809 85.275 136.819 85.285 136.839 85.295C136.909 85.345 136.969 85.355 137.039 85.365C137.089 85.415 137.129 85.475 137.139 85.545C136.959 85.545 136.779 85.555 136.599 85.565C136.169 85.585 136.159 86.165 136.599 86.175C136.879 86.175 137.169 86.175 137.449 86.175C137.619 86.175 137.739 86.075 137.789 85.945C138.029 85.385 137.689 84.875 137.149 84.695H137.129Z" fill="black" stroke="white"/>
<path d="M136.28 85.2266C136.23 85.2266 136.23 85.2966 136.28 85.2966C136.33 85.2966 136.33 85.2266 136.28 85.2266Z" fill="black" stroke="white"/>
<path d="M131.08 83.0114C116.06 83.0114 101.019 82.7914 85.9995 83.0014C89.9595 79.8214 93.6095 76.2414 97.3695 72.8814C101.31 69.3614 105.309 65.8914 109.099 62.2414C109.289 62.0514 108.999 61.7914 108.789 61.9614C104.719 65.3614 100.84 68.9414 96.9195 72.4714C93.0095 75.9914 88.8395 79.3814 85.1795 83.1014C85.0495 83.2314 85.1295 83.3814 85.2595 83.4314C85.2995 83.5414 85.4095 83.6314 85.5795 83.6314C100.74 83.8514 115.92 83.6314 131.069 83.6314C131.289 83.6314 131.409 83.4714 131.409 83.3214C131.409 83.1614 131.299 83.0114 131.069 83.0114H131.08Z" fill="black" stroke="white"/>
<path d="M131.9 82.5072C130.25 80.6772 128.14 79.0772 126.28 77.4272C124.34 75.6972 122.41 73.9772 120.47 72.2472C118.53 70.5172 116.6 68.7872 114.66 67.0672C112.89 65.4972 111.19 63.6872 109.13 62.4272C109.09 62.4072 109.04 62.4472 109.07 62.4872C110.49 64.3272 112.5 65.8572 114.25 67.4472C116.17 69.1872 118.1 70.9172 120.03 72.6572C121.96 74.3872 123.88 76.1272 125.81 77.8572C127.57 79.4372 129.27 81.2272 131.19 82.6672C131.19 82.6772 131.19 82.6972 131.19 82.7072C131.19 82.7572 131.21 82.7872 131.23 82.8372C131.27 82.9172 131.38 82.9672 131.47 82.9572C131.52 82.9572 131.57 82.9572 131.62 82.9772C131.63 82.9772 131.65 82.9972 131.66 83.0072C131.71 83.0472 131.77 83.0572 131.82 83.0672C131.86 83.1072 131.89 83.1572 131.9 83.2172C131.75 83.2172 131.61 83.2172 131.46 83.2372C131.11 83.2472 131.1 83.7272 131.46 83.7272C131.69 83.7272 131.92 83.7272 132.16 83.7272C132.3 83.7272 132.39 83.6472 132.44 83.5372C132.63 83.0772 132.35 82.6672 131.92 82.5172L131.9 82.5072Z" fill="black" stroke="white"/>
<path d="M131.199 82.9375C131.199 82.9375 131.159 82.9975 131.199 82.9975C131.239 82.9975 131.239 82.9375 131.199 82.9375Z" fill="black" stroke="white"/>
<path d="M109.079 55.5853C104.139 55.5853 100.109 51.1753 100.109 45.7653C100.109 40.3553 104.129 35.9453 109.079 35.9453C114.029 35.9453 118.049 40.3553 118.049 45.7653C118.049 51.1753 114.029 55.5853 109.079 55.5853ZM109.079 36.7953C104.559 36.7953 100.889 40.8153 100.889 45.7653C100.889 50.7153 104.559 54.7353 109.079 54.7353C113.599 54.7353 117.269 50.7153 117.269 45.7653C117.269 40.8153 113.599 36.7953 109.079 36.7953Z" fill="black" stroke="white"/>
<path d="M109.08 53.4503C105.21 53.4503 102.06 50.0003 102.06 45.7603C102.06 41.5203 105.21 38.0703 109.08 38.0703C112.95 38.0703 116.1 41.5203 116.1 45.7603C116.1 50.0003 112.95 53.4503 109.08 53.4503ZM109.08 38.7403C105.55 38.7403 102.67 41.8903 102.67 45.7603C102.67 49.6303 105.54 52.7803 109.08 52.7803C112.62 52.7803 115.49 49.6303 115.49 45.7603C115.49 41.8903 112.62 38.7403 109.08 38.7403Z" fill="black" stroke="white"/>
<path d="M115.35 45.4975C113.51 45.4975 111.65 45.4375 109.78 45.3975C109.8 44.2275 109.8 43.0675 109.76 41.9175C109.76 41.1975 109.73 40.4875 109.63 39.7975C109.6 39.4575 109.58 39.1175 109.54 38.7775C109.5 38.4075 109.05 38.4075 109.01 38.7775C108.97 39.1175 108.95 39.4675 108.92 39.8075C108.82 40.4775 108.79 41.1875 108.79 41.8975C108.75 43.0475 108.75 44.2175 108.77 45.3775C106.68 45.3475 104.59 45.3575 102.52 45.5375C102.02 45.5775 102.02 46.3475 102.52 46.3875C104.59 46.5675 106.69 46.5875 108.79 46.5475C108.84 48.5975 108.91 50.6375 108.91 52.6275C108.91 53.1475 109.65 53.1475 109.65 52.6275C109.65 50.6275 109.72 48.5775 109.77 46.5275C111.64 46.4875 113.51 46.4275 115.36 46.4275C115.64 46.4275 115.78 46.1875 115.78 45.9575C115.78 45.7175 115.64 45.4875 115.36 45.4875L115.35 45.4975Z" fill="black" stroke="white"/>
<path d="M90.1699 81.2103C90.1699 80.6403 90.1999 80.0303 90.0199 79.4903C89.9999 79.4303 89.9299 79.4303 89.9099 79.4903C89.7299 80.0403 89.7599 80.6403 89.7599 81.2103C89.7599 81.7903 89.6999 82.3903 89.8499 82.9503C89.8799 83.0703 90.0299 83.0703 90.0699 82.9503C90.2299 82.3903 90.1699 81.7903 90.1599 81.2103H90.1699Z" fill="black" stroke="white"/>
<path d="M93.7792 79.7575C93.7792 78.5575 93.8192 77.3475 93.6992 76.1575C93.6792 75.9475 93.4192 75.9475 93.3992 76.1575C93.2792 77.3475 93.3292 78.5675 93.3192 79.7575C93.3192 80.7975 93.1792 81.8775 93.3892 82.8975C93.4292 83.0775 93.6792 83.0775 93.7192 82.8975C93.9292 81.8875 93.7992 80.7975 93.7892 79.7575H93.7792Z" fill="black" stroke="white"/>
<path d="M96.6897 77.9972C96.6897 76.5572 96.8297 75.0372 96.4497 73.6472C96.4397 73.6072 96.3797 73.6072 96.3697 73.6472C95.9897 75.0272 96.1297 76.5572 96.1297 77.9972C96.1297 79.6772 96.0397 81.3872 96.2197 83.0572C96.2497 83.3372 96.5897 83.3372 96.6197 83.0572C96.7997 81.3972 96.7097 79.6672 96.7097 77.9972H96.6897Z" fill="black" stroke="white"/>
<path d="M100.499 70.0859C100.499 70.0859 100.479 70.1159 100.499 70.1159C100.519 70.1159 100.519 70.0859 100.499 70.0859Z" fill="black" stroke="white"/>
<path d="M100.79 70.6047C100.79 70.2047 100.21 70.2047 100.22 70.6047C100.25 74.6747 99.8501 79.0247 100.32 83.0647C100.35 83.3247 100.66 83.3247 100.69 83.0647C101.16 79.0247 100.76 74.6847 100.79 70.6047Z" fill="black" stroke="white"/>
<path d="M104.279 74.7309C104.259 72.1109 104.509 69.3209 104.109 66.7309C104.089 66.6209 103.919 66.6209 103.899 66.7309C103.509 69.3209 103.749 72.1109 103.729 74.7309C103.709 77.3709 103.459 80.1509 103.809 82.7609C103.839 82.9709 104.169 82.9709 104.199 82.7609C104.539 80.1509 104.289 77.3709 104.279 74.7309Z" fill="black" stroke="white"/>
<path d="M107.73 73.2362C107.7 70.0662 107.83 66.8563 107.61 63.6962C107.59 63.4762 107.31 63.4762 107.29 63.6962C107.07 66.8563 107.2 70.0662 107.17 73.2362C107.14 76.3562 106.82 79.6862 107.19 82.7762C107.23 83.1362 107.66 83.1362 107.71 82.7762C108.08 79.6862 107.76 76.3562 107.73 73.2362Z" fill="black" stroke="white"/>
<path d="M111.92 73.3591C111.91 70.4991 112.22 67.3991 111.74 64.5891C111.72 64.4391 111.49 64.4391 111.47 64.5891C111 67.3991 111.31 70.5091 111.29 73.3591C111.27 76.5091 110.99 79.7991 111.31 82.9191C111.35 83.3191 111.84 83.3191 111.88 82.9191C112.2 79.7991 111.92 76.4991 111.9 73.3591H111.92Z" fill="black" stroke="white"/>
<path d="M115.03 75.0853C115.03 72.7253 115.26 70.1853 114.85 67.8553C114.83 67.7253 114.64 67.7253 114.62 67.8553C114.2 70.1853 114.44 72.7153 114.44 75.0853C114.44 77.7453 114.25 80.4853 114.49 83.1253C114.52 83.4753 114.95 83.4753 114.98 83.1253C115.22 80.4853 115.04 77.7453 115.03 75.0853Z" fill="black" stroke="white"/>
<path d="M118.359 77.1575C118.349 74.8975 118.459 72.5775 118.239 70.3275C118.209 70.0575 117.879 70.0575 117.849 70.3275C117.619 72.5775 117.739 74.8975 117.729 77.1575C117.719 79.1575 117.589 81.2175 117.839 83.1975C117.869 83.4175 118.219 83.4175 118.249 83.1975C118.509 81.2075 118.369 79.1575 118.359 77.1575Z" fill="black" stroke="white"/>
<path d="M121.489 73.5581C121.469 73.4181 121.249 73.4181 121.229 73.5581C120.819 76.6381 120.849 80.3381 121.149 83.4181C121.179 83.7181 121.549 83.7181 121.579 83.4181C121.869 80.3281 121.909 76.6281 121.499 73.5581H121.489Z" fill="black" stroke="white"/>
<path d="M124.709 79.9009C124.709 78.7209 124.799 77.4909 124.559 76.3309C124.529 76.1709 124.299 76.1709 124.269 76.3309C124.029 77.4909 124.119 78.7109 124.119 79.9009C124.119 81.0909 124.019 82.3009 124.249 83.4809C124.289 83.6609 124.559 83.6609 124.589 83.4809C124.809 82.3109 124.729 81.1009 124.719 79.9009H124.709Z" fill="black" stroke="white"/>
<path d="M127.689 79.7844C127.689 79.3844 127.129 79.3844 127.119 79.7844C127.099 81.0344 126.909 82.3344 127.229 83.5344C127.279 83.7144 127.519 83.7144 127.569 83.5344C127.889 82.3244 127.699 81.0344 127.679 79.7844H127.689Z" fill="black" stroke="white"/>
<path d="M63.6496 11.3502C59.2296 11.4302 54.8096 11.3001 50.3896 11.3601C49.9396 11.3601 49.9596 12.0601 50.3896 12.1101C54.7796 12.5501 59.2396 12.5302 63.6496 12.4502C64.2996 12.4402 64.2996 11.3402 63.6496 11.3502Z" fill="black" stroke="white"/>
<path d="M101.88 125.265C101.65 124.695 101.99 123.965 101.33 123.625C101 123.465 100.57 123.525 100.22 123.535C99.7996 123.555 99.3596 123.555 98.9796 123.735C98.8596 123.795 98.8596 124.015 98.9796 124.075C99.5596 124.365 100.2 124.155 100.8 124.305C101.15 124.395 101.03 124.665 101.03 124.975C101.03 125.235 101.07 125.475 101.21 125.685C101.5 126.125 102.07 125.755 101.87 125.265H101.88Z" fill="black" stroke="white"/>
<path d="M7.73953 156.327C5.65953 156.327 3.57953 156.327 1.49953 156.327C1.17953 156.327 1.01953 156.588 1.01953 156.848C1.01953 157.108 1.17953 157.367 1.49953 157.367C28.9195 157.387 56.3395 157.398 83.7595 157.408C111.31 157.418 138.86 157.407 166.41 157.447C181.87 157.467 197.34 157.458 212.8 157.458C213.56 157.458 213.56 156.227 212.8 156.227C211.73 156.227 210.67 156.227 209.6 156.227C209.6 156.217 209.58 156.197 209.57 156.188" fill="black"/>
<path d="M7.73953 156.327C5.65953 156.327 3.57953 156.327 1.49953 156.327C1.17953 156.327 1.01953 156.588 1.01953 156.848C1.01953 157.108 1.17953 157.367 1.49953 157.367C28.9195 157.387 56.3395 157.398 83.7595 157.408C111.31 157.418 138.86 157.407 166.41 157.447C181.87 157.467 197.34 157.458 212.8 157.458C213.56 157.458 213.56 156.227 212.8 156.227C211.73 156.227 210.67 156.227 209.6 156.227C209.6 156.217 209.58 156.197 209.57 156.188" stroke="white"/>
<path d="M189.469 147.875C189.419 147.875 189.419 147.955 189.469 147.955C189.519 147.955 189.519 147.875 189.469 147.875Z" fill="black" stroke="white"/>
</svg>
