<svg width="88" height="239" viewBox="0 0 88 239" fill="none" xmlns="http://www.w3.org/2000/svg">
<path d="M85.0479 230.57H22.708V238.15H85.0479V230.57Z" stroke="white" stroke-width="1.61796" stroke-linecap="round" stroke-linejoin="round"/>
<path d="M80.7203 10.6953H52.9238V230.576H80.7203V10.6953Z" stroke="white" stroke-width="1.61796" stroke-linecap="round" stroke-linejoin="round"/>
<path d="M61.6767 10.6953H6.91699V230.576H61.6767V10.6953Z" stroke="white" stroke-width="1.61796" stroke-linecap="round" stroke-linejoin="round"/>
<path d="M65.4629 230.57H3.12305V238.15H65.4629V230.57Z" stroke="white" stroke-width="1.61796" stroke-linecap="round" stroke-linejoin="round"/>
<path d="M65.4629 230.57H3.12305V238.15H65.4629V230.57Z" stroke="white" stroke-width="1.61796" stroke-linecap="round" stroke-linejoin="round"/>
<path d="M63.6264 8.90562C63.6264 10.0705 62.6799 11.009 61.5231 11.009H6.73908C5.57416 11.009 4.63574 10.0705 4.63574 8.90562V5.96094H63.6264V8.90562Z" stroke="white" stroke-width="1.61796" stroke-linecap="round" stroke-linejoin="round"/>
<path d="M83.2033 8.90562C83.2033 10.0705 82.2568 11.009 81.0999 11.009H26.324C25.1591 11.009 24.2207 10.0705 24.2207 8.90562V5.96094H83.2114V8.90562H83.2033Z" stroke="white" stroke-width="1.61796" stroke-linecap="round" stroke-linejoin="round"/>
<path d="M22.7078 1H85.0477C86.2126 1 87.151 1.9465 87.151 3.10334V3.94468C87.151 5.10961 86.2045 6.04802 85.0477 6.04802H22.7078C21.5429 6.04802 20.6045 5.10152 20.6045 3.94468V3.10334C20.6045 1.93841 21.551 1 22.7078 1Z" stroke="white" stroke-width="1.61796" stroke-linecap="round" stroke-linejoin="round"/>
<path d="M53.1178 211.055H15.0635V230.567H53.1178V211.055Z" stroke="white" stroke-width="1.61796" stroke-linecap="round" stroke-linejoin="round"/>
<path d="M46.5079 218.565C46.5079 216.009 44.4369 213.93 41.8724 213.93H25.4421C22.8857 213.93 20.8066 216.001 20.8066 218.565V230.465H46.4998V218.565H46.5079Z" stroke="white" stroke-width="1.61796" stroke-linecap="round" stroke-linejoin="round"/>
<path d="M34.0827 213.93H25.4509C22.8945 213.93 20.8154 216.001 20.8154 218.565V230.465H34.0827V213.93Z" stroke="white" stroke-width="1.61796" stroke-linecap="round" stroke-linejoin="round"/>
<path d="M55.1485 233.095H13.2354V231.38C13.2354 230.911 13.6156 230.539 14.0767 230.539H54.3072C54.7764 230.539 55.1485 230.919 55.1485 231.38V233.095Z" stroke="white" stroke-width="1.61796" stroke-linecap="round" stroke-linejoin="round"/>
<path d="M56.9364 235.61L11.5527 235.626V233.943C11.5527 233.482 11.9249 233.102 12.3941 233.102L56.0951 233.086C56.5643 233.086 56.9364 233.466 56.9364 233.927V235.61Z" stroke="white" stroke-width="1.61796" stroke-linecap="round" stroke-linejoin="round"/>
<path d="M59.25 238.133L9.02051 238.158V236.475C9.02051 236.006 9.39264 235.634 9.86184 235.634L58.4086 235.609C58.8697 235.609 59.25 235.982 59.25 236.451V238.133Z" stroke="white" stroke-width="1.61796" stroke-linecap="round" stroke-linejoin="round"/>
<path d="M65.4628 226.991C65.4628 226.756 65.2767 226.57 65.0421 226.57H63.4646C63.23 226.57 63.0439 226.756 63.0439 226.991V230.575H65.4628V226.991Z" stroke="white" stroke-width="1.61796" stroke-linecap="round" stroke-linejoin="round"/>
<path d="M5.5497 226.991C5.5497 226.756 5.36364 226.57 5.12904 226.57H3.55153C3.31692 226.57 3.13086 226.756 3.13086 226.991V230.575H5.5497V226.991Z" stroke="white" stroke-width="1.61796" stroke-linecap="round" stroke-linejoin="round"/>
<path d="M85.0478 226.991C85.0478 226.756 84.8617 226.57 84.6271 226.57H83.0496C82.815 226.57 82.6289 226.756 82.6289 226.991V230.575H85.0478V226.991Z" stroke="white" stroke-width="1.61796" stroke-linecap="round" stroke-linejoin="round"/>
<path d="M85.0403 210.766C85.0403 211.462 84.474 212.028 83.7783 212.028H23.0159C22.3202 212.028 21.7539 211.462 21.7539 210.766V208.234H85.0403V210.766Z" stroke="white" stroke-width="1.61796" stroke-linecap="round" stroke-linejoin="round"/>
<path d="M63.6264 8.90562C63.6264 10.0705 62.6799 11.009 61.5231 11.009H6.73908C5.57416 11.009 4.63574 10.0705 4.63574 8.90562V5.96094H63.6264V8.90562Z" stroke="white" stroke-width="1.61796" stroke-linecap="round" stroke-linejoin="round"/>
<path d="M3.12287 1H65.4627C66.6277 1 67.5661 1.9465 67.5661 3.10334V3.94468C67.5661 5.10961 66.6196 6.04802 65.4627 6.04802H3.12287C1.95795 6.04802 1.01953 5.10152 1.01953 3.94468V3.10334C1.01953 1.93841 1.96604 1 3.12287 1Z" stroke="white" stroke-width="1.61796" stroke-linecap="round" stroke-linejoin="round"/>
<path d="M4.33594 226.569V212.031" stroke="white" stroke-width="1.61796" stroke-linecap="round" stroke-linejoin="round"/>
<path d="M64.2568 226.569V212.031" stroke="white" stroke-width="1.61796" stroke-linecap="round" stroke-linejoin="round"/>
<path d="M83.8428 226.569V212.031" stroke="white" stroke-width="1.61796" stroke-linecap="round" stroke-linejoin="round"/>
<path d="M41.6383 209.083H26.8906V21.6432C26.8906 17.5741 30.1913 14.2734 34.2604 14.2734C38.3296 14.2734 41.6302 17.5741 41.6302 21.6432V209.083H41.6383Z" stroke="white" stroke-width="1.61796" stroke-linecap="round" stroke-linejoin="round"/>
<path d="M34.8919 14.2734H33.6299V89.0392H34.8919V14.2734Z" stroke="white" stroke-width="1.61796" stroke-linecap="round" stroke-linejoin="round"/>
<path d="M32.5049 83.6094H36.0158C36.4041 83.6094 36.7196 83.9249 36.7196 84.3132V85.6237C36.7196 86.012 36.4041 86.3356 36.0077 86.3356H32.4968C32.1085 86.3356 31.793 86.0201 31.793 85.6318V84.3213C31.793 83.933 32.1085 83.6175 32.4968 83.6175L32.5049 83.6094Z" stroke="white" stroke-width="1.61796" stroke-linecap="round" stroke-linejoin="round"/>
<path d="M30.5147 86.3281H38.022C38.7096 86.3281 39.2678 86.8863 39.2678 87.5739V103.624C39.2678 104.312 38.7096 104.878 38.0139 104.878H30.5066C29.8189 104.878 29.2607 104.32 29.2607 103.632V87.582C29.2607 86.8944 29.8189 86.3281 30.5147 86.3281Z" stroke="white" stroke-width="1.61796" stroke-linecap="round" stroke-linejoin="round"/>
<path d="M38.0142 86.3281H30.5068C29.8111 86.3281 29.2529 86.8863 29.2529 87.5739V89.0301H39.26V87.5739C39.26 86.8863 38.7018 86.3281 38.0061 86.3281H38.0142Z" stroke="white" stroke-width="1.61796" stroke-linecap="round" stroke-linejoin="round"/>
<path d="M32.0273 92V100.688" stroke="white" stroke-width="1.61796" stroke-linecap="round" stroke-linejoin="round"/>
<path d="M34.2607 90.8672V99.5556" stroke="white" stroke-width="1.61796" stroke-linecap="round" stroke-linejoin="round"/>
<path d="M36.0322 222.195H40.2066" stroke="white" stroke-width="1.61796" stroke-linecap="round" stroke-linejoin="round"/>
<path d="M28.2412 222.195H32.4155" stroke="white" stroke-width="1.61796" stroke-linecap="round" stroke-linejoin="round"/>
<path d="M22.7727 19.5156H10.9697V35.3311H22.7727V19.5156Z" stroke="white" stroke-width="1.61796" stroke-linecap="round" stroke-linejoin="round"/>
<path d="M10.9778 35.3281C10.9778 35.3281 10.9697 35.3686 10.9697 35.3848C10.9697 37.1969 12.4421 38.6611 14.2461 38.6611H19.4964C21.3085 38.6611 22.7727 37.1969 22.7727 35.3848C22.7727 35.3686 22.7727 35.3524 22.7727 35.3281H10.9859H10.9778Z" stroke="white" stroke-width="1.61796" stroke-linecap="round" stroke-linejoin="round"/>
<path d="M16.875 19.5156V35.3311" stroke="white" stroke-width="1.61796" stroke-linecap="round" stroke-linejoin="round"/>
<path d="M10.9697 27.4297H22.7808" stroke="white" stroke-width="1.61796" stroke-linecap="round" stroke-linejoin="round"/>
<path d="M12.7168 17.4609H21.0331" stroke="white" stroke-width="1.61796" stroke-linecap="round" stroke-linejoin="round"/>
<path d="M57.551 19.5156H45.748V35.3311H57.551V19.5156Z" stroke="white" stroke-width="1.61796" stroke-linecap="round" stroke-linejoin="round"/>
<path d="M45.7561 35.3281C45.7561 35.3281 45.748 35.3686 45.748 35.3848C45.748 37.1969 47.2204 38.6611 49.0244 38.6611H54.2747C56.0868 38.6611 57.551 37.1969 57.551 35.3848C57.551 35.3686 57.551 35.3524 57.551 35.3281H45.7642H45.7561Z" stroke="white" stroke-width="1.61796" stroke-linecap="round" stroke-linejoin="round"/>
<path d="M51.6533 19.5156V35.3311" stroke="white" stroke-width="1.61796" stroke-linecap="round" stroke-linejoin="round"/>
<path d="M45.748 27.4297H57.5591" stroke="white" stroke-width="1.61796" stroke-linecap="round" stroke-linejoin="round"/>
<path d="M47.4951 17.4609H55.8114" stroke="white" stroke-width="1.61796" stroke-linecap="round" stroke-linejoin="round"/>
<path d="M22.7727 46.3516H10.9697V62.1671H22.7727V46.3516Z" stroke="white" stroke-width="1.61796" stroke-linecap="round" stroke-linejoin="round"/>
<path d="M10.9778 62.1641C10.9778 62.1641 10.9697 62.2045 10.9697 62.2207C10.9697 64.0328 12.4421 65.497 14.2461 65.497H19.4964C21.3085 65.497 22.7727 64.0328 22.7727 62.2207C22.7727 62.2045 22.7727 62.1883 22.7727 62.1641H10.9859H10.9778Z" stroke="white" stroke-width="1.61796" stroke-linecap="round" stroke-linejoin="round"/>
<path d="M16.875 46.3516V62.1671" stroke="white" stroke-width="1.61796" stroke-linecap="round" stroke-linejoin="round"/>
<path d="M10.9697 54.2578H22.7808" stroke="white" stroke-width="1.61796" stroke-linecap="round" stroke-linejoin="round"/>
<path d="M12.7168 44.2969H21.0331" stroke="white" stroke-width="1.61796" stroke-linecap="round" stroke-linejoin="round"/>
<path d="M57.551 46.3516H45.748V62.1671H57.551V46.3516Z" stroke="white" stroke-width="1.61796" stroke-linecap="round" stroke-linejoin="round"/>
<path d="M45.7561 62.1641C45.7561 62.1641 45.748 62.2045 45.748 62.2207C45.748 64.0328 47.2204 65.497 49.0244 65.497H54.2747C56.0868 65.497 57.551 64.0328 57.551 62.2207C57.551 62.2045 57.551 62.1883 57.551 62.1641H45.7642H45.7561Z" stroke="white" stroke-width="1.61796" stroke-linecap="round" stroke-linejoin="round"/>
<path d="M51.6533 46.3516V62.1671" stroke="white" stroke-width="1.61796" stroke-linecap="round" stroke-linejoin="round"/>
<path d="M45.748 54.2578H57.5591" stroke="white" stroke-width="1.61796" stroke-linecap="round" stroke-linejoin="round"/>
<path d="M47.4951 44.2969H55.8114" stroke="white" stroke-width="1.61796" stroke-linecap="round" stroke-linejoin="round"/>
<path d="M22.7727 73.1797H10.9697V88.9952H22.7727V73.1797Z" stroke="white" stroke-width="1.61796" stroke-linecap="round" stroke-linejoin="round"/>
<path d="M10.9778 88.9922C10.9778 88.9922 10.9697 89.0326 10.9697 89.0488C10.9697 90.8609 12.4421 92.3252 14.2461 92.3252H19.4964C21.3085 92.3252 22.7727 90.8609 22.7727 89.0488C22.7727 89.0326 22.7727 89.0165 22.7727 88.9922H10.9859H10.9778Z" stroke="white" stroke-width="1.61796" stroke-linecap="round" stroke-linejoin="round"/>
<path d="M16.875 73.1797V88.9952" stroke="white" stroke-width="1.61796" stroke-linecap="round" stroke-linejoin="round"/>
<path d="M10.9697 81.0938H22.7808" stroke="white" stroke-width="1.61796" stroke-linecap="round" stroke-linejoin="round"/>
<path d="M12.7168 71.125H21.0331" stroke="white" stroke-width="1.61796" stroke-linecap="round" stroke-linejoin="round"/>
<path d="M57.551 73.1797H45.748V88.9952H57.551V73.1797Z" stroke="white" stroke-width="1.61796" stroke-linecap="round" stroke-linejoin="round"/>
<path d="M45.7561 88.9922C45.7561 88.9922 45.748 89.0326 45.748 89.0488C45.748 90.8609 47.2204 92.3252 49.0244 92.3252H54.2747C56.0868 92.3252 57.551 90.8609 57.551 89.0488C57.551 89.0326 57.551 89.0165 57.551 88.9922H45.7642H45.7561Z" stroke="white" stroke-width="1.61796" stroke-linecap="round" stroke-linejoin="round"/>
<path d="M51.6533 73.1797V88.9952" stroke="white" stroke-width="1.61796" stroke-linecap="round" stroke-linejoin="round"/>
<path d="M45.748 81.0938H57.5591" stroke="white" stroke-width="1.61796" stroke-linecap="round" stroke-linejoin="round"/>
<path d="M47.4951 71.125H55.8114" stroke="white" stroke-width="1.61796" stroke-linecap="round" stroke-linejoin="round"/>
<path d="M22.7727 100.008H10.9697V115.823H22.7727V100.008Z" stroke="white" stroke-width="1.61796" stroke-linecap="round" stroke-linejoin="round"/>
<path d="M10.9778 115.82C10.9778 115.82 10.9697 115.861 10.9697 115.877C10.9697 117.689 12.4421 119.153 14.2461 119.153H19.4964C21.3085 119.153 22.7727 117.689 22.7727 115.877C22.7727 115.861 22.7727 115.845 22.7727 115.82H10.9859H10.9778Z" stroke="white" stroke-width="1.61796" stroke-linecap="round" stroke-linejoin="round"/>
<path d="M16.875 100.008V115.823" stroke="white" stroke-width="1.61796" stroke-linecap="round" stroke-linejoin="round"/>
<path d="M10.9697 107.914H22.7808" stroke="white" stroke-width="1.61796" stroke-linecap="round" stroke-linejoin="round"/>
<path d="M12.7168 97.9531H21.0331" stroke="white" stroke-width="1.61796" stroke-linecap="round" stroke-linejoin="round"/>
<path d="M57.551 100.008H45.748V115.823H57.551V100.008Z" stroke="white" stroke-width="1.61796" stroke-linecap="round" stroke-linejoin="round"/>
<path d="M45.7561 115.82C45.7561 115.82 45.748 115.861 45.748 115.877C45.748 117.689 47.2204 119.153 49.0244 119.153H54.2747C56.0868 119.153 57.551 117.689 57.551 115.877C57.551 115.861 57.551 115.845 57.551 115.82H45.7642H45.7561Z" stroke="white" stroke-width="1.61796" stroke-linecap="round" stroke-linejoin="round"/>
<path d="M51.6533 100.008V115.823" stroke="white" stroke-width="1.61796" stroke-linecap="round" stroke-linejoin="round"/>
<path d="M45.748 107.914H57.5591" stroke="white" stroke-width="1.61796" stroke-linecap="round" stroke-linejoin="round"/>
<path d="M47.4951 97.9531H55.8114" stroke="white" stroke-width="1.61796" stroke-linecap="round" stroke-linejoin="round"/>
<path d="M22.7727 126.844H10.9697V142.659H22.7727V126.844Z" stroke="white" stroke-width="1.61796" stroke-linecap="round" stroke-linejoin="round"/>
<path d="M10.9778 142.656C10.9778 142.656 10.9697 142.697 10.9697 142.713C10.9697 144.525 12.4421 145.989 14.2461 145.989H19.4964C21.3085 145.989 22.7727 144.525 22.7727 142.713C22.7727 142.697 22.7727 142.672 22.7727 142.656H10.9859H10.9778Z" stroke="white" stroke-width="1.61796" stroke-linecap="round" stroke-linejoin="round"/>
<path d="M16.875 126.844V142.659" stroke="white" stroke-width="1.61796" stroke-linecap="round" stroke-linejoin="round"/>
<path d="M10.9697 134.75H22.7808" stroke="white" stroke-width="1.61796" stroke-linecap="round" stroke-linejoin="round"/>
<path d="M12.7168 124.781H21.0331" stroke="white" stroke-width="1.61796" stroke-linecap="round" stroke-linejoin="round"/>
<path d="M57.551 126.844H45.748V142.659H57.551V126.844Z" stroke="white" stroke-width="1.61796" stroke-linecap="round" stroke-linejoin="round"/>
<path d="M45.7561 142.656C45.7561 142.656 45.748 142.697 45.748 142.713C45.748 144.525 47.2204 145.989 49.0244 145.989H54.2747C56.0868 145.989 57.551 144.525 57.551 142.713C57.551 142.697 57.551 142.672 57.551 142.656H45.7642H45.7561Z" stroke="white" stroke-width="1.61796" stroke-linecap="round" stroke-linejoin="round"/>
<path d="M51.6533 126.844V142.659" stroke="white" stroke-width="1.61796" stroke-linecap="round" stroke-linejoin="round"/>
<path d="M45.748 134.75H57.5591" stroke="white" stroke-width="1.61796" stroke-linecap="round" stroke-linejoin="round"/>
<path d="M47.4951 124.781H55.8114" stroke="white" stroke-width="1.61796" stroke-linecap="round" stroke-linejoin="round"/>
<path d="M22.7727 153.672H10.9697V169.487H22.7727V153.672Z" stroke="white" stroke-width="1.61796" stroke-linecap="round" stroke-linejoin="round"/>
<path d="M10.9778 169.484C10.9778 169.484 10.9697 169.525 10.9697 169.541C10.9697 171.353 12.4421 172.817 14.2461 172.817H19.4964C21.3085 172.817 22.7727 171.353 22.7727 169.541C22.7727 169.525 22.7727 169.509 22.7727 169.484H10.9859H10.9778Z" stroke="white" stroke-width="1.61796" stroke-linecap="round" stroke-linejoin="round"/>
<path d="M16.875 153.672V169.487" stroke="white" stroke-width="1.61796" stroke-linecap="round" stroke-linejoin="round"/>
<path d="M10.9697 161.586H22.7808" stroke="white" stroke-width="1.61796" stroke-linecap="round" stroke-linejoin="round"/>
<path d="M12.7168 151.617H21.0331" stroke="white" stroke-width="1.61796" stroke-linecap="round" stroke-linejoin="round"/>
<path d="M57.551 153.672H45.748V169.487H57.551V153.672Z" stroke="white" stroke-width="1.61796" stroke-linecap="round" stroke-linejoin="round"/>
<path d="M45.7561 169.484C45.7561 169.484 45.748 169.525 45.748 169.541C45.748 171.353 47.2204 172.817 49.0244 172.817H54.2747C56.0868 172.817 57.551 171.353 57.551 169.541C57.551 169.525 57.551 169.509 57.551 169.484H45.7642H45.7561Z" stroke="white" stroke-width="1.61796" stroke-linecap="round" stroke-linejoin="round"/>
<path d="M51.6533 153.672V169.487" stroke="white" stroke-width="1.61796" stroke-linecap="round" stroke-linejoin="round"/>
<path d="M45.748 161.586H57.5591" stroke="white" stroke-width="1.61796" stroke-linecap="round" stroke-linejoin="round"/>
<path d="M47.4951 151.617H55.8114" stroke="white" stroke-width="1.61796" stroke-linecap="round" stroke-linejoin="round"/>
<path d="M22.7727 180.508H10.9697V196.323H22.7727V180.508Z" stroke="white" stroke-width="1.61796" stroke-linecap="round" stroke-linejoin="round"/>
<path d="M10.9778 196.32C10.9778 196.32 10.9697 196.361 10.9697 196.377C10.9697 198.189 12.4421 199.653 14.2461 199.653H19.4964C21.3085 199.653 22.7727 198.189 22.7727 196.377C22.7727 196.361 22.7727 196.345 22.7727 196.32H10.9859H10.9778Z" stroke="white" stroke-width="1.61796" stroke-linecap="round" stroke-linejoin="round"/>
<path d="M16.875 180.508V196.323" stroke="white" stroke-width="1.61796" stroke-linecap="round" stroke-linejoin="round"/>
<path d="M10.9697 188.414H22.7808" stroke="white" stroke-width="1.61796" stroke-linecap="round" stroke-linejoin="round"/>
<path d="M12.7168 178.453H21.0331" stroke="white" stroke-width="1.61796" stroke-linecap="round" stroke-linejoin="round"/>
<path d="M57.551 180.508H45.748V196.323H57.551V180.508Z" stroke="white" stroke-width="1.61796" stroke-linecap="round" stroke-linejoin="round"/>
<path d="M45.7561 196.32C45.7561 196.32 45.748 196.361 45.748 196.377C45.748 198.189 47.2204 199.653 49.0244 199.653H54.2747C56.0868 199.653 57.551 198.189 57.551 196.377C57.551 196.361 57.551 196.345 57.551 196.32H45.7642H45.7561Z" stroke="white" stroke-width="1.61796" stroke-linecap="round" stroke-linejoin="round"/>
<path d="M51.6533 180.508V196.323" stroke="white" stroke-width="1.61796" stroke-linecap="round" stroke-linejoin="round"/>
<path d="M45.748 188.414H57.5591" stroke="white" stroke-width="1.61796" stroke-linecap="round" stroke-linejoin="round"/>
<path d="M47.4951 178.453H55.8114" stroke="white" stroke-width="1.61796" stroke-linecap="round" stroke-linejoin="round"/>
<path d="M77.4595 19.5156H65.6484V35.3311H77.4595V19.5156Z" stroke="white" stroke-width="1.61796" stroke-linecap="round" stroke-linejoin="round"/>
<path d="M65.6565 35.3281C65.6565 35.3281 65.6484 35.3686 65.6484 35.3848C65.6484 37.1969 67.1208 38.6611 68.9248 38.6611H74.1751C75.9872 38.6611 77.4514 37.1969 77.4514 35.3848C77.4514 35.3686 77.4514 35.3524 77.4514 35.3281H65.6646H65.6565Z" stroke="white" stroke-width="1.61796" stroke-linecap="round" stroke-linejoin="round"/>
<path d="M71.5537 19.5156V35.3311" stroke="white" stroke-width="1.61796" stroke-linecap="round" stroke-linejoin="round"/>
<path d="M65.6484 27.4297H77.4514" stroke="white" stroke-width="1.61796" stroke-linecap="round" stroke-linejoin="round"/>
<path d="M67.3955 17.4609H75.7037" stroke="white" stroke-width="1.61796" stroke-linecap="round" stroke-linejoin="round"/>
<path d="M77.4595 46.3516H65.6484V62.1671H77.4595V46.3516Z" stroke="white" stroke-width="1.61796" stroke-linecap="round" stroke-linejoin="round"/>
<path d="M65.6565 62.1641C65.6565 62.1641 65.6484 62.2045 65.6484 62.2207C65.6484 64.0328 67.1208 65.497 68.9248 65.497H74.1751C75.9872 65.497 77.4514 64.0328 77.4514 62.2207C77.4514 62.2045 77.4514 62.1883 77.4514 62.1641H65.6646H65.6565Z" stroke="white" stroke-width="1.61796" stroke-linecap="round" stroke-linejoin="round"/>
<path d="M71.5537 46.3516V62.1671" stroke="white" stroke-width="1.61796" stroke-linecap="round" stroke-linejoin="round"/>
<path d="M65.6484 54.2578H77.4514" stroke="white" stroke-width="1.61796" stroke-linecap="round" stroke-linejoin="round"/>
<path d="M67.3955 44.2969H75.7037" stroke="white" stroke-width="1.61796" stroke-linecap="round" stroke-linejoin="round"/>
<path d="M77.4595 73.1797H65.6484V88.9952H77.4595V73.1797Z" stroke="white" stroke-width="1.61796" stroke-linecap="round" stroke-linejoin="round"/>
<path d="M65.6565 88.9922C65.6565 88.9922 65.6484 89.0326 65.6484 89.0488C65.6484 90.8609 67.1208 92.3252 68.9248 92.3252H74.1751C75.9872 92.3252 77.4514 90.8609 77.4514 89.0488C77.4514 89.0326 77.4514 89.0165 77.4514 88.9922H65.6646H65.6565Z" stroke="white" stroke-width="1.61796" stroke-linecap="round" stroke-linejoin="round"/>
<path d="M71.5537 73.1797V88.9952" stroke="white" stroke-width="1.61796" stroke-linecap="round" stroke-linejoin="round"/>
<path d="M65.6484 81.0938H77.4514" stroke="white" stroke-width="1.61796" stroke-linecap="round" stroke-linejoin="round"/>
<path d="M67.3955 71.125H75.7037" stroke="white" stroke-width="1.61796" stroke-linecap="round" stroke-linejoin="round"/>
<path d="M77.4595 100.008H65.6484V115.823H77.4595V100.008Z" stroke="white" stroke-width="1.61796" stroke-linecap="round" stroke-linejoin="round"/>
<path d="M65.6565 115.82C65.6565 115.82 65.6484 115.861 65.6484 115.877C65.6484 117.689 67.1208 119.153 68.9248 119.153H74.1751C75.9872 119.153 77.4514 117.689 77.4514 115.877C77.4514 115.861 77.4514 115.845 77.4514 115.82H65.6646H65.6565Z" stroke="white" stroke-width="1.61796" stroke-linecap="round" stroke-linejoin="round"/>
<path d="M71.5537 100.008V115.823" stroke="white" stroke-width="1.61796" stroke-linecap="round" stroke-linejoin="round"/>
<path d="M65.6484 107.914H77.4514" stroke="white" stroke-width="1.61796" stroke-linecap="round" stroke-linejoin="round"/>
<path d="M67.3955 97.9531H75.7037" stroke="white" stroke-width="1.61796" stroke-linecap="round" stroke-linejoin="round"/>
<path d="M77.4595 126.844H65.6484V142.659H77.4595V126.844Z" stroke="white" stroke-width="1.61796" stroke-linecap="round" stroke-linejoin="round"/>
<path d="M65.6565 142.656C65.6565 142.656 65.6484 142.697 65.6484 142.713C65.6484 144.525 67.1208 145.989 68.9248 145.989H74.1751C75.9872 145.989 77.4514 144.525 77.4514 142.713C77.4514 142.697 77.4514 142.672 77.4514 142.656H65.6646H65.6565Z" stroke="white" stroke-width="1.61796" stroke-linecap="round" stroke-linejoin="round"/>
<path d="M71.5537 126.844V142.659" stroke="white" stroke-width="1.61796" stroke-linecap="round" stroke-linejoin="round"/>
<path d="M65.6484 134.75H77.4514" stroke="white" stroke-width="1.61796" stroke-linecap="round" stroke-linejoin="round"/>
<path d="M67.3955 124.781H75.7037" stroke="white" stroke-width="1.61796" stroke-linecap="round" stroke-linejoin="round"/>
<path d="M77.4595 153.672H65.6484V169.487H77.4595V153.672Z" stroke="white" stroke-width="1.61796" stroke-linecap="round" stroke-linejoin="round"/>
<path d="M65.6565 169.484C65.6565 169.484 65.6484 169.525 65.6484 169.541C65.6484 171.353 67.1208 172.817 68.9248 172.817H74.1751C75.9872 172.817 77.4514 171.353 77.4514 169.541C77.4514 169.525 77.4514 169.509 77.4514 169.484H65.6646H65.6565Z" stroke="white" stroke-width="1.61796" stroke-linecap="round" stroke-linejoin="round"/>
<path d="M71.5537 153.672V169.487" stroke="white" stroke-width="1.61796" stroke-linecap="round" stroke-linejoin="round"/>
<path d="M65.6484 161.586H77.4514" stroke="white" stroke-width="1.61796" stroke-linecap="round" stroke-linejoin="round"/>
<path d="M67.3955 151.617H75.7037" stroke="white" stroke-width="1.61796" stroke-linecap="round" stroke-linejoin="round"/>
<path d="M77.4595 180.508H65.6484V196.323H77.4595V180.508Z" stroke="white" stroke-width="1.61796" stroke-linecap="round" stroke-linejoin="round"/>
<path d="M65.6565 196.32C65.6565 196.32 65.6484 196.361 65.6484 196.377C65.6484 198.189 67.1208 199.653 68.9248 199.653H74.1751C75.9872 199.653 77.4514 198.189 77.4514 196.377C77.4514 196.361 77.4514 196.345 77.4514 196.32H65.6646H65.6565Z" stroke="white" stroke-width="1.61796" stroke-linecap="round" stroke-linejoin="round"/>
<path d="M71.5537 180.508V196.323" stroke="white" stroke-width="1.61796" stroke-linecap="round" stroke-linejoin="round"/>
<path d="M65.6484 188.414H77.4514" stroke="white" stroke-width="1.61796" stroke-linecap="round" stroke-linejoin="round"/>
<path d="M67.3955 178.453H75.7037" stroke="white" stroke-width="1.61796" stroke-linecap="round" stroke-linejoin="round"/>
<path d="M65.9966 210.766C65.9966 211.462 65.4303 212.028 64.7346 212.028H3.96415C3.26843 212.028 2.70215 211.462 2.70215 210.766V208.234H65.9885V210.766H65.9966Z" stroke="white" stroke-width="1.61796" stroke-linecap="round" stroke-linejoin="round"/>
</svg>
