<svg width="384" height="198" viewBox="0 0 384 198" fill="none" xmlns="http://www.w3.org/2000/svg">
<path d="M169.835 51.4928L144.442 8.255L362.855 105.082L363.397 112.145L169.835 112.575V51.4928Z" stroke="white" stroke-width="1.43877" stroke-linejoin="round"/>
<path d="M106.137 190.287H26.4814L23.3983 97.1969L134.09 45.4386L168.957 82.585L169.592 190.287H106.137Z" stroke="white" stroke-width="1.43877" stroke-miterlimit="10"/>
<path d="M1.63013 107.38L134.09 45.4386L167.612 81.9124H161.894L134.707 53.2117L4.69452 113.304L1.63013 107.38Z" stroke="white" stroke-width="1.43877" stroke-miterlimit="10"/>
<path d="M358.314 103.214H116.844H106.212V113.435V196.435H116.844V113.435H363.397V105.512L358.314 103.214Z" stroke="white" stroke-width="1.43877" stroke-miterlimit="10"/>
<path d="M285.703 113.734H116.844V196.416H285.703V113.734Z" stroke="white" stroke-width="1.43877" stroke-miterlimit="10"/>
<path d="M170.452 81.9313H136.444L119.067 61.0785V94.8055H169.835" stroke="white" stroke-width="1.43877" stroke-linejoin="round"/>
<path d="M99.2609 131.821H47.3344V180.888H99.2609V131.821Z" stroke="white" stroke-width="1.43877" stroke-miterlimit="10"/>
<path d="M60.8251 131.821V180.477" stroke="white" stroke-width="1.43877" stroke-miterlimit="10"/>
<path d="M73.3068 131.821V180.477" stroke="white" stroke-width="1.43877" stroke-miterlimit="10"/>
<path d="M85.7703 131.821V180.477" stroke="white" stroke-width="1.43877" stroke-miterlimit="10"/>
<path d="M276.51 131.821H224.583V180.888H276.51V131.821Z" stroke="white" stroke-width="1.43877" stroke-miterlimit="10"/>
<path d="M238.074 131.821V180.477" stroke="white" stroke-width="1.43877" stroke-miterlimit="10"/>
<path d="M250.537 131.821V180.477" stroke="white" stroke-width="1.43877" stroke-miterlimit="10"/>
<path d="M263.019 131.821V180.477" stroke="white" stroke-width="1.43877" stroke-miterlimit="10"/>
<path d="M215.278 196.117H169.592V28.1733L215.278 51.3245V196.117Z" stroke="white" stroke-width="1.43877" stroke-miterlimit="10"/>
<path d="M26.4817 134.287H47.3345" stroke="white" stroke-width="1.4014" stroke-miterlimit="10"/>
<path d="M26.4817 136.941H47.3345" stroke="white" stroke-width="1.4014" stroke-miterlimit="10"/>
<path d="M26.4817 139.594H47.3345" stroke="white" stroke-width="1.4014" stroke-miterlimit="10"/>
<path d="M26.4817 142.247H47.3345" stroke="white" stroke-width="1.4014" stroke-miterlimit="10"/>
<path d="M26.4817 144.919H47.3345" stroke="white" stroke-width="1.4014" stroke-miterlimit="10"/>
<path d="M26.4817 147.573H47.3345" stroke="white" stroke-width="1.4014" stroke-miterlimit="10"/>
<path d="M26.4817 150.226H47.3345" stroke="white" stroke-width="1.4014" stroke-miterlimit="10"/>
<path d="M26.4817 152.879H47.3345" stroke="white" stroke-width="1.4014" stroke-miterlimit="10"/>
<path d="M26.4817 155.551H47.3345" stroke="white" stroke-width="1.4014" stroke-miterlimit="10"/>
<path d="M26.4817 158.205H47.3345" stroke="white" stroke-width="1.4014" stroke-miterlimit="10"/>
<path d="M26.4817 160.858H47.3345" stroke="white" stroke-width="1.4014" stroke-miterlimit="10"/>
<path d="M26.4817 163.511H47.3345" stroke="white" stroke-width="1.4014" stroke-miterlimit="10"/>
<path d="M26.4817 166.165H47.3345" stroke="white" stroke-width="1.4014" stroke-miterlimit="10"/>
<path d="M26.4817 168.836H47.3345" stroke="white" stroke-width="1.4014" stroke-miterlimit="10"/>
<path d="M26.4817 171.49H47.3345" stroke="white" stroke-width="1.4014" stroke-miterlimit="10"/>
<path d="M26.4817 174.143H47.3345" stroke="white" stroke-width="1.4014" stroke-miterlimit="10"/>
<path d="M26.4817 176.796H47.3345" stroke="white" stroke-width="1.4014" stroke-miterlimit="10"/>
<path d="M169.966 53.2677H215.409" stroke="white" stroke-width="1.4014" stroke-miterlimit="10"/>
<path d="M169.966 50.2222H211.616" stroke="white" stroke-width="1.4014" stroke-miterlimit="10"/>
<path d="M170.022 47.6061L206.365 47.55" stroke="white" stroke-width="1.4014" stroke-miterlimit="10"/>
<path d="M170.022 44.9902H201.432" stroke="white" stroke-width="1.4014" stroke-miterlimit="10"/>
<path d="M170.022 42.6171H196.761" stroke="white" stroke-width="1.4014" stroke-miterlimit="10"/>
<path d="M170.022 40.244H191.978" stroke="white" stroke-width="1.4014" stroke-miterlimit="10"/>
<path d="M170.022 38.1139H187.774" stroke="white" stroke-width="1.4014" stroke-miterlimit="10"/>
<path d="M169.462 35.7969H183.364" stroke="white" stroke-width="1.4014" stroke-miterlimit="10"/>
<path d="M169.873 33.3492H178.655" stroke="white" stroke-width="1.4014" stroke-miterlimit="10"/>
<path d="M169.873 30.9575H173.834" stroke="white" stroke-width="1.4014" stroke-miterlimit="10"/>
<path d="M169.966 56.2014H215.409" stroke="white" stroke-width="1.4014" stroke-miterlimit="10"/>
<path d="M169.966 59.1349H215.409" stroke="white" stroke-width="1.4014" stroke-miterlimit="10"/>
<path d="M169.966 62.0686H215.409" stroke="white" stroke-width="1.4014" stroke-miterlimit="10"/>
<path d="M169.966 65.0021H215.409" stroke="white" stroke-width="1.4014" stroke-miterlimit="10"/>
<path d="M169.966 67.9358H215.409" stroke="white" stroke-width="1.4014" stroke-miterlimit="10"/>
<path d="M169.966 70.8506H215.409" stroke="white" stroke-width="1.4014" stroke-miterlimit="10"/>
<path d="M169.966 73.7843H215.409" stroke="white" stroke-width="1.4014" stroke-miterlimit="10"/>
<path d="M169.966 76.7178H215.409" stroke="white" stroke-width="1.4014" stroke-miterlimit="10"/>
<path d="M169.966 79.6516H215.409" stroke="white" stroke-width="1.4014" stroke-miterlimit="10"/>
<path d="M169.966 82.5851H215.409" stroke="white" stroke-width="1.4014" stroke-miterlimit="10"/>
<path d="M169.966 85.5186H215.409" stroke="white" stroke-width="1.4014" stroke-miterlimit="10"/>
<path d="M169.966 88.4523H215.409" stroke="white" stroke-width="1.4014" stroke-miterlimit="10"/>
<path d="M169.966 91.3857H215.409" stroke="white" stroke-width="1.4014" stroke-miterlimit="10"/>
<path d="M169.966 94.3008H215.409" stroke="white" stroke-width="1.4014" stroke-miterlimit="10"/>
<path d="M169.966 97.3464H215.409" stroke="white" stroke-width="1.4014" stroke-miterlimit="10"/>
<path d="M169.966 100.28H215.409" stroke="white" stroke-width="1.4014" stroke-miterlimit="10"/>
<path d="M169.966 103.214H215.409" stroke="white" stroke-width="1.4014" stroke-miterlimit="10"/>
<path d="M169.966 106.147H215.409" stroke="white" stroke-width="1.4014" stroke-miterlimit="10"/>
<path d="M169.966 109.081H215.409" stroke="white" stroke-width="1.4014" stroke-miterlimit="10"/>
<path d="M169.966 112.014H215.409" stroke="white" stroke-width="1.4014" stroke-miterlimit="10"/>
<path d="M169.966 114.948H215.409" stroke="white" stroke-width="1.4014" stroke-miterlimit="10"/>
<path d="M169.966 117.882H215.409" stroke="white" stroke-width="1.4014" stroke-miterlimit="10"/>
<path d="M170.022 120.796H215.409" stroke="white" stroke-width="1.4014" stroke-miterlimit="10"/>
<path d="M170.022 123.73H215.091" stroke="white" stroke-width="1.4014" stroke-miterlimit="10"/>
<path d="M170.022 126.664H215.091" stroke="white" stroke-width="1.4014" stroke-miterlimit="10"/>
<path d="M170.022 129.597H215.091" stroke="white" stroke-width="1.4014" stroke-miterlimit="10"/>
<path d="M170.022 132.531H215.091" stroke="white" stroke-width="1.4014" stroke-miterlimit="10"/>
<path d="M170.022 135.465H215.091" stroke="white" stroke-width="1.4014" stroke-miterlimit="10"/>
<path d="M170.022 138.398H215.091" stroke="white" stroke-width="1.4014" stroke-miterlimit="10"/>
<path d="M170.022 141.332H215.091" stroke="white" stroke-width="1.4014" stroke-miterlimit="10"/>
<path d="M170.022 144.265H215.091" stroke="white" stroke-width="1.4014" stroke-miterlimit="10"/>
<path d="M170.022 147.18H215.091" stroke="white" stroke-width="1.4014" stroke-miterlimit="10"/>
<path d="M170.022 150.114H215.091" stroke="white" stroke-width="1.4014" stroke-miterlimit="10"/>
<path d="M170.022 153.047H215.091" stroke="white" stroke-width="1.4014" stroke-miterlimit="10"/>
<path d="M170.022 155.981H215.091" stroke="white" stroke-width="1.4014" stroke-miterlimit="10"/>
<path d="M170.022 158.915H215.091" stroke="white" stroke-width="1.4014" stroke-miterlimit="10"/>
<path d="M170.022 161.848H215.091" stroke="white" stroke-width="1.4014" stroke-miterlimit="10"/>
<path d="M170.022 164.782H215.091" stroke="white" stroke-width="1.4014" stroke-miterlimit="10"/>
<path d="M170.022 167.715H215.091" stroke="white" stroke-width="1.4014" stroke-miterlimit="10"/>
<path d="M170.022 170.63H215.091" stroke="white" stroke-width="1.4014" stroke-miterlimit="10"/>
<path d="M170.022 173.564H215.091" stroke="white" stroke-width="1.4014" stroke-miterlimit="10"/>
<path d="M170.022 176.498H215.091" stroke="white" stroke-width="1.4014" stroke-miterlimit="10"/>
<path d="M170.022 179.431H215.091" stroke="white" stroke-width="1.4014" stroke-miterlimit="10"/>
<path d="M170.022 182.365H215.091" stroke="white" stroke-width="1.4014" stroke-miterlimit="10"/>
<path d="M170.022 185.41H215.091" stroke="white" stroke-width="1.4014" stroke-miterlimit="10"/>
<path d="M170.022 188.344H215.091" stroke="white" stroke-width="1.4014" stroke-miterlimit="10"/>
<path d="M170.022 191.278H215.091" stroke="white" stroke-width="1.4014" stroke-miterlimit="10"/>
<path d="M170.022 194.211H215.091" stroke="white" stroke-width="1.4014" stroke-miterlimit="10"/>
<path d="M224.471 64.9839V97.7953H275.688V88.9011L224.471 64.9839Z" stroke="white" stroke-width="1.43877" stroke-miterlimit="10"/>
<path d="M144.442 8.2548L382.4 113.733V107.306L144.442 1.5094V8.2548Z" stroke="white" stroke-width="1.43877" stroke-linejoin="round"/>
<path d="M166.846 135.502H132.801V162.185H166.846V135.502Z" stroke="white" stroke-width="1.43877" stroke-miterlimit="10"/>
<path d="M363.378 113.379H356.334V188.55H363.378V113.379Z" stroke="white" stroke-width="1.43877" stroke-miterlimit="10"/>
<path d="M364.929 188.587H354.502V191.969H364.929V188.587Z" stroke="white" stroke-width="1.43877" stroke-miterlimit="10"/>
<path d="M335.985 113.435H328.941V175.993H335.985V113.435Z" stroke="white" stroke-width="1.43877" stroke-miterlimit="10"/>
<path d="M337.536 176.012H327.11V179.394H337.536V176.012Z" stroke="white" stroke-width="1.43877" stroke-miterlimit="10"/>
<path d="M318.814 113.379H311.769V169.229H318.814V113.379Z" stroke="white" stroke-width="1.43877" stroke-miterlimit="10"/>
<path d="M320.364 169.229H309.938V172.611H320.364V169.229Z" stroke="white" stroke-width="1.43877" stroke-miterlimit="10"/>
<path d="M187.68 37.3669V196.117H198.424L198.443 42.8044L187.68 37.3669Z" stroke="white" stroke-width="1.43877" stroke-miterlimit="10"/>
</svg>
