<svg width="315" height="264" viewBox="0 0 315 264" fill="none" xmlns="http://www.w3.org/2000/svg">
<path d="M261.568 153.205H88.0329V16.4833L261.568 60.9263V153.205Z" stroke="white" stroke-width="2.10193"/>
<path d="M300.352 61.9085L70.012 1.09314L66.3686 14.8924L296.708 75.7077L300.352 61.9085Z" stroke="white" stroke-width="1.61849" stroke-miterlimit="10"/>
<path d="M90.0087 261.686H83.9131V19.481L90.0087 21.0994V261.686Z" stroke="white" stroke-width="1.61849" stroke-miterlimit="10"/>
<path d="M265.625 160.436H259.592V65.9122L265.625 67.4887V160.436Z" stroke="white" stroke-width="1.61849" stroke-miterlimit="10"/>
<path d="M265.625 160.435H90.0085V171.954H265.625V160.435Z" stroke="white" stroke-width="1.61849" stroke-miterlimit="10"/>
<path d="M83.9131 71.9449H22.3687V167.856H83.9131V71.9449Z" stroke="white" stroke-width="1.61849" stroke-miterlimit="10"/>
<path d="M12.0688 90.4631V97.4626H74.2229V148.098H12.0688V154.257H80.823V90.4631H12.0688Z" stroke="white" stroke-width="1.61849" stroke-miterlimit="10"/>
<path d="M62.2838 97.4617H59.8246V148.097H62.2838V97.4617Z" stroke="white" stroke-width="1.61849" stroke-miterlimit="10"/>
<path d="M59.8036 117.64V116.064H29.6199V117.64H59.8036Z" stroke="white" stroke-width="1.61849" stroke-miterlimit="10"/>
<path d="M59.8036 133.678V132.101H29.6199V133.678H59.8036Z" stroke="white" stroke-width="1.61849" stroke-miterlimit="10"/>
<path d="M90.2815 122.559H259.319" stroke="white" stroke-width="1.61849" stroke-miterlimit="10"/>
<path d="M93.8552 122.538V160.352" stroke="white" stroke-width="1.61849" stroke-miterlimit="10"/>
<path d="M99.068 122.538V160.352" stroke="white" stroke-width="1.61849" stroke-miterlimit="10"/>
<path d="M104.281 122.538V160.352" stroke="white" stroke-width="1.61849" stroke-miterlimit="10"/>
<path d="M109.493 122.538V160.352" stroke="white" stroke-width="1.61849" stroke-miterlimit="10"/>
<path d="M114.706 122.538V160.352" stroke="white" stroke-width="1.61849" stroke-miterlimit="10"/>
<path d="M119.919 122.538V160.352" stroke="white" stroke-width="1.61849" stroke-miterlimit="10"/>
<path d="M125.132 122.538V160.352" stroke="white" stroke-width="1.61849" stroke-miterlimit="10"/>
<path d="M130.345 122.538V160.352" stroke="white" stroke-width="1.61849" stroke-miterlimit="10"/>
<path d="M135.557 122.538V160.352" stroke="white" stroke-width="1.61849" stroke-miterlimit="10"/>
<path d="M140.77 122.538V160.352" stroke="white" stroke-width="1.61849" stroke-miterlimit="10"/>
<path d="M145.983 122.538V160.352" stroke="white" stroke-width="1.61849" stroke-miterlimit="10"/>
<path d="M151.196 122.538V160.352" stroke="white" stroke-width="1.61849" stroke-miterlimit="10"/>
<path d="M156.409 122.538V160.352" stroke="white" stroke-width="1.61849" stroke-miterlimit="10"/>
<path d="M161.621 122.538V160.352" stroke="white" stroke-width="1.61849" stroke-miterlimit="10"/>
<path d="M166.834 122.538V160.352" stroke="white" stroke-width="1.61849" stroke-miterlimit="10"/>
<path d="M172.068 122.538V160.352" stroke="white" stroke-width="1.61849" stroke-miterlimit="10"/>
<path d="M177.281 122.538V160.352" stroke="white" stroke-width="1.61849" stroke-miterlimit="10"/>
<path d="M182.494 122.538V160.352" stroke="white" stroke-width="1.61849" stroke-miterlimit="10"/>
<path d="M187.706 122.538V160.352" stroke="white" stroke-width="1.61849" stroke-miterlimit="10"/>
<path d="M192.919 122.538V160.352" stroke="white" stroke-width="1.61849" stroke-miterlimit="10"/>
<path d="M198.132 122.538V160.352" stroke="white" stroke-width="1.61849" stroke-miterlimit="10"/>
<path d="M203.345 122.538V160.352" stroke="white" stroke-width="1.61849" stroke-miterlimit="10"/>
<path d="M208.557 122.538V160.352" stroke="white" stroke-width="1.61849" stroke-miterlimit="10"/>
<path d="M213.77 122.538V160.352" stroke="white" stroke-width="1.61849" stroke-miterlimit="10"/>
<path d="M218.983 122.538V160.352" stroke="white" stroke-width="1.61849" stroke-miterlimit="10"/>
<path d="M224.196 122.538V160.352" stroke="white" stroke-width="1.61849" stroke-miterlimit="10"/>
<path d="M229.409 122.538V160.352" stroke="white" stroke-width="1.61849" stroke-miterlimit="10"/>
<path d="M234.621 122.538V160.352" stroke="white" stroke-width="1.61849" stroke-miterlimit="10"/>
<path d="M239.834 122.538V160.352" stroke="white" stroke-width="1.61849" stroke-miterlimit="10"/>
<path d="M245.047 122.538V160.352" stroke="white" stroke-width="1.61849" stroke-miterlimit="10"/>
<path d="M250.26 122.538V160.352" stroke="white" stroke-width="1.61849" stroke-miterlimit="10"/>
<path d="M255.473 122.538V160.352" stroke="white" stroke-width="1.61849" stroke-miterlimit="10"/>
<path d="M90.0085 261.685L90.0506 262.106H109.641V188.833H277.564V151.797H265.625L90.0085 151.67V261.685Z" stroke="white" stroke-width="1.61849" stroke-miterlimit="10"/>
<path d="M277.585 188.833H109.641V260.866H277.585V188.833Z" stroke="white" stroke-width="1.61849" stroke-miterlimit="10"/>
<path d="M313.381 141.498H277.522V261.686H313.381V141.498Z" stroke="white" stroke-width="1.61849" stroke-miterlimit="10"/>
<path d="M297.868 202.138C295.977 202.138 294.442 200.604 294.442 198.712V193.226C294.442 191.334 295.977 189.8 297.868 189.8C299.76 189.8 301.294 191.334 301.294 193.226V198.712C301.294 200.604 299.76 202.138 297.868 202.138Z" stroke="white" stroke-width="1.61849" stroke-miterlimit="10"/>
<path d="M83.9127 167.834H0.970581V185.932H83.9127V167.834Z" stroke="white" stroke-width="1.61849" stroke-miterlimit="10"/>
<path d="M16.6092 185.953H9.60974V262.316H16.6092V185.953Z" stroke="white" stroke-width="1.61849" stroke-miterlimit="10"/>
<path d="M83.9131 185.953H20.3087V257.587H83.9131V185.953Z" stroke="white" stroke-width="1.61849" stroke-miterlimit="10"/>
<path d="M20.5818 190.871H83.9129" stroke="white" stroke-width="1.61849" stroke-miterlimit="10"/>
<path d="M74.0969 190.871H32.1213V257.524H74.0969V190.871Z" stroke="white" stroke-width="1.61849" stroke-miterlimit="10"/>
<path d="M68.3168 201.865H37.04V206.532H68.3168V201.865Z" stroke="white" stroke-width="1.61849" stroke-miterlimit="10"/>
<path d="M68.3168 216.684H37.04V221.35H68.3168V216.684Z" stroke="white" stroke-width="1.61849" stroke-miterlimit="10"/>
<path d="M68.3168 231.502H37.04V236.168H68.3168V231.502Z" stroke="white" stroke-width="1.61849" stroke-miterlimit="10"/>
<path d="M68.3168 246.321H37.04V250.987H68.3168V246.321Z" stroke="white" stroke-width="1.61849" stroke-miterlimit="10"/>
<path d="M218.436 82.7698H123.492V117.073H218.436V82.7698Z" stroke="white" stroke-width="1.61849" stroke-miterlimit="10"/>
<path d="M155.589 82.4967V117.073" stroke="white" stroke-width="1.61849" stroke-miterlimit="10"/>
<path d="M186.866 82.4967V117.073" stroke="white" stroke-width="1.61849" stroke-miterlimit="10"/>
<path d="M109.367 196.252H276.87" stroke="white" stroke-width="1.61849" stroke-miterlimit="10"/>
<path d="M109.367 206.027H276.87" stroke="white" stroke-width="1.61849" stroke-miterlimit="10"/>
<path d="M109.367 215.779H276.87" stroke="white" stroke-width="1.61849" stroke-miterlimit="10"/>
<path d="M109.367 225.533H276.87" stroke="white" stroke-width="1.61849" stroke-miterlimit="10"/>
<path d="M109.367 235.286H276.87" stroke="white" stroke-width="1.61849" stroke-miterlimit="10"/>
<path d="M109.367 245.06H276.87" stroke="white" stroke-width="1.61849" stroke-miterlimit="10"/>
<path d="M109.367 254.813H276.87" stroke="white" stroke-width="1.61849" stroke-miterlimit="10"/>
<path d="M29.6201 97.4617H19.0264V148.097H29.6201V97.4617Z" stroke="white" stroke-width="1.61849" stroke-miterlimit="10"/>
</svg>
