<svg width="328" height="141" viewBox="0 0 328 141" fill="none" xmlns="http://www.w3.org/2000/svg">
<path d="M9.58777 1.43782C10.5905 1.30866 11.3687 0.934657 11.3259 0.602472C11.2831 0.270287 10.4356 0.105708 9.43282 0.234874C8.43007 0.36404 7.65188 0.738039 7.69466 1.07022C7.73745 1.40241 8.58503 1.56699 9.58777 1.43782Z" fill="white"/>
<path d="M28.0719 3.67762C29.014 4.04473 29.8762 4.08934 29.9978 3.77727C30.1194 3.4652 29.4544 2.91462 28.5123 2.54752C27.5703 2.18041 26.7081 2.1358 26.5864 2.44787C26.4648 2.75994 27.1299 3.31052 28.0719 3.67762Z" fill="white"/>
<path d="M5.27344 5.73017L5.54088 1.76757C5.54088 1.76757 6.7952 0.709123 9.22474 0.34375L9.10044 0.694056C9.10044 0.694056 7.06263 1.12723 5.82338 2.01994L5.69908 5.78667L5.2772 5.73017H5.27344Z" fill="white"/>
<path d="M242.54 65.7018C242.864 65.7319 243.343 65.7959 243.821 65.811C257.487 66.2705 271.156 66.7338 284.826 67.1482C285.458 67.167 286.148 66.8092 286.735 66.4852M235.218 41.4214L233.685 48.4087V66.4287C233.444 66.4287 233.203 66.4287 232.962 66.4287C232.962 62.3833 232.962 48.6686 232.962 44.6231C232.962 43.6815 232.969 42.7398 232.962 41.7981C232.939 39.9901 231.813 38.9542 229.922 38.9881C228.686 39.0107 225.27 36.2798 225.221 35.0971C225.202 34.6225 225.519 33.9558 225.903 33.6959C226.272 33.4473 227.097 33.387 227.417 33.6356C228.95 34.8221 230.83 35.7261 231.176 38.0012C231.267 38.6001 231.692 37.9673 232.216 38.5399C232.577 38.8676 232.69 39.0145 232.935 39.2631C234.314 40.6718 233.689 48.4087 233.689 48.4087L235.218 41.4214ZM287.089 66.9184C300.548 68.1878 313.811 69.4421 327.073 70.6927C327.047 71.0279 327.021 71.3632 326.994 71.6984C298.868 68.5494 270.678 66.6585 242.156 66.8016C241.738 72.625 241.335 78.2337 240.913 84.0947C255.155 83.2284 269.164 82.701 283.183 83.8536C297.132 85.0025 311.193 84.9083 325.024 87.3341C325.002 87.5488 324.975 87.7635 324.953 87.9782C322.858 87.6091 320.775 87.078 318.666 86.9009C312.04 86.3359 305.407 85.8349 298.77 85.4394C288.498 84.8255 278.226 84.0231 267.943 83.8499C259.299 83.7067 250.635 84.3358 241.987 84.6786C241.546 84.6974 241.128 85.2059 240.823 85.673C269.461 84.4525 297.866 85.1343 326.12 89.3983C326.169 89.4058 326.188 89.613 326.297 89.9896C319.909 89.3116 313.622 88.6449 307.147 87.9556V93.1801C305.147 93.3044 302.812 93.4475 300.473 93.5906C300.458 93.5078 300.439 93.4249 300.424 93.342C301.373 93.1273 302.322 92.9164 303.479 92.6565C303.569 91.1197 303.663 89.5226 303.772 87.6693C298.925 87.4019 294.254 87.1458 289.331 86.8783V94.4231C290.197 94.3364 291.109 94.246 292.02 94.1556L292.088 94.5361C290.242 94.8751 288.397 95.2103 286.555 95.5493C286.524 95.4514 286.494 95.3535 286.46 95.2555C287.059 95.022 287.662 94.7922 288.419 94.4984V86.9763C287.666 86.9348 286.943 86.8972 285.854 86.8369C285.854 89.0254 285.907 91.082 285.824 93.1311C285.798 93.8091 285.417 94.4758 285.195 95.1463L285.266 95.2141V86.7201C278.965 86.4979 272.727 86.2794 266.346 86.0572V95.1689C266.218 95.1727 266.09 95.1764 265.962 95.184C265.819 92.2195 265.676 89.2551 265.529 86.2003H262.598C262.485 87.6543 262.376 89.0442 262.27 90.4341C262.146 90.4266 262.022 90.4153 261.901 90.4077V86.4376H246.725C246.374 88.7102 247.137 90.08 249.015 90.5471C251.833 91.2515 254.654 91.9559 257.385 93.0332C251.886 91.8579 246.386 90.6865 240.382 89.402C240.382 91.5792 240.412 93.2403 240.374 94.9015C240.318 97.4741 240.303 100.051 240.103 102.612C240.005 103.889 240.408 104.476 241.553 105.034C254.635 111.419 267.86 117.423 281.744 121.901C289.967 124.557 298.107 127.457 306.285 130.252C306.959 130.482 307.618 130.749 308.213 131.405C307.972 131.431 307.701 131.537 307.49 131.465C299.885 128.938 292.265 126.444 284.69 123.834C278.528 121.713 272.294 119.736 266.301 117.197C243.942 107.72 222.294 96.7434 201.103 84.9196C194.183 81.0587 187.678 76.3239 181.421 71.431C175.756 67.0013 174.536 57.1136 182.258 52.3223C182.924 51.908 183.58 51.4748 184.427 51.1961C180.065 53.9232 176.83 57.3698 177.651 62.8692C178.163 66.3044 179.527 69.4836 182.774 71.4046C188.397 75.3672 193.731 79.8458 199.705 83.1794C212.29 90.2043 225.21 96.6304 237.994 103.294C238.352 103.482 238.766 103.561 239.448 103.791V89.5263H233.986C233.986 89.3832 233.986 89.2438 233.99 89.1007H239.764C239.802 88.4001 239.828 87.8765 239.874 87.0667C231.304 88.0083 222.935 88.9274 214.561 89.8465C214.975 89.3832 215.461 89.1873 215.966 89.1082C218.633 88.7052 221.296 88.2758 223.974 87.9669C228.773 87.4094 233.579 86.9461 238.382 86.4112C239.199 86.3208 240.457 86.4866 239.674 84.4563C230.773 85.7897 221.827 87.1269 212.651 88.498C221.699 85.8161 230.833 85.0176 240.103 84.0909C240.51 78.4069 240.913 72.7531 241.331 66.9034C221.575 67.1369 202.044 67.7659 182.74 71.4498C183.346 71.0505 183.911 70.4139 184.57 70.2896C195.81 68.1464 207.171 67.0578 218.591 66.5719C225.424 66.2818 232.265 66.1651 239.101 65.9654C239.843 65.9428 240.585 65.8901 241.294 65.8562M306.296 88.0272C305.701 87.9933 305.125 87.9631 304.42 87.9217C304.288 89.5828 304.168 91.0933 304.032 92.7808C304.932 92.7205 305.565 92.6791 306.292 92.6301V88.0272H306.296ZM231.003 37.8769C229.523 36.5058 228.472 35.4738 227.345 34.5321C227.101 34.3287 226.6 34.4341 226.215 34.3965C226.242 34.8259 226.102 35.4286 226.328 35.6508C227.21 36.5096 228.174 37.2969 229.187 37.9899C229.462 38.1783 230.02 37.956 230.995 37.8769H231.003ZM245.829 86.6937C244.944 86.7502 244.224 86.7955 243.426 86.8482V89.4623C244.258 89.6167 244.974 89.7486 245.829 89.9068V86.6937ZM242.616 87.0365C240.676 86.6787 240.518 87.6467 240.804 89.0932C241.403 89.161 241.968 89.2212 242.616 89.2966V87.0365Z" fill="white"/>
<path d="M78.3847 71.5237C77.0739 71.1433 76.426 70.356 76.5691 68.9134C76.7123 67.4782 76.5126 65.9866 76.8253 64.6005C77.6426 60.958 76.0305 57.5303 75.9928 53.9594C75.9853 53.2513 74.4108 52.2719 73.4013 51.997C72.9493 51.8727 71.8193 53.0554 71.4916 53.8502C70.4971 56.2722 70.1092 59.0031 68.8134 61.2255C67.1259 64.1145 64.896 66.7136 62.6962 69.2637C61.7357 70.3786 61.069 71.3655 61.167 72.876C61.2649 74.3601 61.1896 75.8554 60.8016 77.3508V71.2826C57.5773 73.1434 59.6188 76.2095 58.3909 78.7483V73.0756C57.5735 73.5954 57.0349 73.9645 56.4698 74.296C52.0929 76.8612 47.7574 79.5016 43.3051 81.9349C41.7834 82.7674 40.7626 83.5735 40.966 85.438C41.0225 85.9503 40.7927 86.4927 40.4386 86.9937V83.8786C39.065 84.1498 38.0455 85.6176 37.3801 88.2819C37.2897 87.0464 37.2332 86.2253 37.154 85.1367C36.0391 85.6075 35.0974 86.0746 34.1105 86.4136C26.9989 88.8544 19.8874 91.2953 12.7607 93.6834C10.7869 94.3463 10.7568 94.2597 10.2671 96.4331C10.0223 95.6835 9.86786 95.2164 9.67199 94.6213C8.90734 94.8096 8.14269 94.998 7.31401 95.2014C7.23491 95.7777 7.16334 96.3125 7.03528 97.2768C6.6586 96.4444 6.4552 95.9886 6.22543 95.4839C4.21399 95.8568 2.22139 96.2297 0.228794 96.5988C0.179827 96.3502 0.127092 96.1016 0.078125 95.853C0.801337 95.6082 1.50948 95.2993 2.25153 95.1298C13.7137 92.5496 24.9649 89.265 35.7566 84.5943C43.4746 81.2532 50.929 77.3433 57.7242 72.326C63.4797 68.0771 68.2672 63.0297 70.2975 55.9068C70.5198 55.1234 70.6478 54.3135 70.8211 53.5187C71.3409 51.157 73.1866 50.3358 75.1641 51.722C77.5259 53.3794 79.801 55.1573 82.0798 56.9239C100.578 71.2864 118.135 86.7677 135.937 101.97C147.278 111.658 159.467 120.352 171.272 129.497C172.176 130.198 173.05 130.94 173.939 131.663C173.743 131.908 173.547 132.157 173.355 132.402C171.604 131.087 169.943 129.622 168.074 128.495C166.368 127.471 165.223 124.876 162.488 126.126C162.364 127.961 162.243 129.727 162.123 131.49C161.991 131.483 161.859 131.479 161.727 131.471V125.855C160.153 126.529 158.307 126.744 157.761 127.701C157.121 128.823 157.61 130.594 157.61 132.085C157.414 132.085 157.219 132.085 157.019 132.089C157.019 131.272 156.861 130.42 157.045 129.648C157.769 126.646 156.013 125.2 153.407 123.885V132.639C153.177 132.643 152.947 132.646 152.717 132.65C152.717 131.343 152.691 130.036 152.725 128.729C152.763 127.222 153.358 125.505 152.819 124.262C151.806 121.919 152.45 119.738 152.555 117.478C152.57 117.124 152.28 116.638 151.979 116.401C145.553 111.206 139.104 106.038 132.475 100.716C132.241 105.112 132.019 109.327 131.778 113.813C135.006 112.766 138.05 111.775 141.093 110.788C141.153 110.935 141.21 111.082 141.27 111.229C138.102 112.615 134.513 113.086 131.511 114.837C131.609 115.109 131.707 115.376 131.804 115.647C135.421 114.645 139.04 113.64 142.656 112.638C142.709 112.758 142.758 112.879 142.811 112.999C142.498 113.191 142.208 113.459 141.869 113.564C139.116 114.427 136.377 115.346 133.586 116.062C132.076 116.449 131.398 117.079 131.465 118.721C131.529 120.288 131.243 121.87 131.111 123.444C130.949 123.441 130.791 123.437 130.629 123.429C130.607 122.992 130.539 122.552 130.565 122.115C130.961 115.222 131.315 108.328 131.808 101.443C131.978 99.0736 129.929 98.614 128.561 96.8587C128.422 99.4239 128.32 101.511 128.196 103.597C127.823 109.986 127.461 116.374 127.047 122.763C127.006 123.392 126.644 124.002 126.429 124.623C125.861 124.341 125.213 124.149 124.738 123.753C123.653 122.845 122.651 121.832 121.299 120.567C113.491 124.518 105.354 128.639 97.2183 132.759C97.094 132.522 96.9697 132.285 96.8417 132.048C97.3389 131.742 97.8135 131.392 98.3333 131.132C105.957 127.32 113.592 123.527 121.209 119.704C121.597 119.508 122.116 119.079 122.143 118.725C122.568 113.172 122.922 107.617 123.314 101.771C119.57 103.112 116.067 104.366 112.564 105.62C112.496 105.477 112.425 105.334 112.357 105.191C112.722 104.995 113.072 104.754 113.46 104.607C116.455 103.484 119.468 102.418 122.437 101.236C122.93 101.04 123.423 100.403 123.578 99.8759C123.83 98.9945 123.804 98.034 123.913 96.9454C121.216 97.4049 120.154 95.1938 118.843 93.7135C118.259 93.0543 118.659 91.4346 118.779 90.2707C118.918 88.9486 118.463 88.0898 117.438 87.2347C113.532 83.9803 109.716 80.6241 105.863 77.3094C105.498 76.9968 105.117 76.6992 104.522 76.2133C104.194 80.884 103.882 85.3024 103.569 89.7245C103.4 89.717 103.226 89.7095 103.057 89.6982C103.174 87.5624 103.283 85.4305 103.407 83.2947C103.486 81.9161 103.418 80.5036 103.716 79.1702C104.42 76.0023 103.038 74.0436 100.198 72.6763C99.904 79.0195 99.6102 85.3476 99.3164 91.6719C97.2598 90.007 94.9056 88.8582 95.3048 85.6602C95.7229 82.3079 95.689 78.899 95.8359 75.5127C95.8661 74.8347 95.8397 74.1566 95.8397 73.505C92.702 72.9136 90.6868 71.0566 90.7961 68.0244C90.9053 65.0223 89.0822 63.7115 87.1386 62.2462C86.3927 61.685 85.6733 61.0899 84.468 60.1369C84.468 62.4911 84.4717 64.3933 84.468 66.2955C84.468 67.1731 84.4303 68.0508 84.419 68.9322C84.3851 72.3147 83.3153 73.4108 79.9818 73.1057C79.3866 73.0492 78.8781 72.0322 78.3282 71.4559C78.6597 71.6631 78.9874 71.8702 79.6277 72.2695C79.6277 69.9492 79.5938 67.9528 79.639 65.9602C79.6842 63.9827 79.8123 62.0052 79.8989 60.103C79.0853 59.779 78.4186 59.5116 77.1982 59.0257C77.1982 62.1483 77.3187 65.0148 77.1492 67.8587C77.0626 69.3428 77.2886 70.5293 78.3922 71.5199L78.3847 71.5237ZM126.313 124.092C126.866 114.634 127.394 105.662 127.936 96.4745C126.599 96.6026 125.638 96.6968 124.587 96.7985C124.508 97.5556 124.433 98.1658 124.388 98.7798C123.906 105.27 123.608 111.779 122.874 118.242C122.546 121.113 124.056 122.375 126.316 124.092H126.313ZM80.3584 72.5483C81.0365 72.4202 81.8877 72.4051 82.5996 72.0774C83.0818 71.8552 83.6581 71.2148 83.6882 70.7289C83.8954 67.4142 84.0423 64.0919 84.0197 60.7697C84.0159 60.1783 83.0969 59.0973 82.6298 59.1123C81.7258 59.1387 80.3547 59.1274 80.3584 60.7245C80.366 64.6005 80.3584 68.4764 80.3584 72.552V72.5483ZM96.514 73.3656C96.3558 77.5618 96.2917 81.6713 96.0167 85.7657C95.8811 87.811 96.5026 89.2537 98.5781 90.3423C98.9209 84.6018 99.2561 78.9894 99.5914 73.3656H96.514ZM157.554 126.009C158.522 121.572 157.682 119.99 153.233 117.745C153.079 118.939 152.883 120.088 152.8 121.241C152.77 121.681 152.842 122.322 153.128 122.563C154.533 123.749 156.025 124.834 157.554 126.009ZM94.4159 68.0282V72.4353H99.4934C99.5386 72.3072 99.5838 72.1791 99.629 72.051C97.9415 70.7478 96.2503 69.4482 94.4121 68.0319L94.4159 68.0282ZM121.728 95.4085C122.418 91.4196 122.241 90.9337 119.525 89.3215C118.952 91.7849 118.598 94.1768 121.728 95.4085ZM158.608 121.482V126.104C160.217 125.776 161.701 125.475 163.581 125.094C161.818 123.813 160.383 122.77 158.608 121.482ZM122.568 96.403C124.09 96.1958 125.45 96.0112 127.164 95.7777C125.499 94.32 124.169 93.156 122.568 91.7548V96.403ZM91.282 65.8548C91.0371 68.3145 91.0183 70.567 93.7831 71.8326C93.4591 69.5989 94.4912 67.0036 91.282 65.8548ZM76.6897 54.2156C76.4071 57.8128 76.4599 57.9183 78.7915 58.8035C79.3904 55.6959 79.3264 55.5452 76.6897 54.2156ZM79.5976 59.3233C80.5166 59.0182 81.3114 58.7545 82.3736 58.4004C81.3227 57.5642 80.5468 56.9502 79.5976 56.1969V59.3233Z" fill="white"/>
<path d="M32.5747 69.6357C33.3845 69.3494 34.8234 68.2269 35.0306 68.8183C36.1003 68.2872 37.1475 67.7636 38.1946 67.2438L38.1381 67.2852C41.5998 65.4169 45.0991 63.6127 48.4891 61.6201C49.1295 61.2434 49.9054 59.8309 50.0259 60.1661C56.5687 55.4389 57.7779 45.5663 52.1843 40.2778C49.5928 37.8294 46.666 36.0214 43.517 34.4055C30.1677 27.5613 16.2497 22.3067 1.59333 19.0636C1.26185 18.9882 0.949216 18.8074 0.629044 18.6756L0.730746 18.2236C2.0604 18.4722 3.39006 18.717 4.84401 18.9882V14.9126C3.50683 14.777 2.17717 14.6414 0.851281 14.5058C0.851281 14.3928 0.855048 14.2836 0.858814 14.1706H4.82518C5.01728 10.8446 5.20185 7.65791 5.38642 4.47126C5.52579 4.48256 5.66516 4.49386 5.80453 4.50516C5.64633 7.64284 5.49189 10.7768 5.33369 13.9295C13.9294 14.7996 22.3254 15.6509 30.6386 16.4909C30.6386 12.9765 30.7666 9.24747 30.5519 5.53347C30.4954 4.55412 29.3767 3.63504 28.7138 2.64062C30.5557 3.52581 31.3053 5.03627 31.3204 6.96106C31.3467 10.2193 31.3279 13.4775 31.3279 16.7998C34.3262 17.5041 37.2454 18.1897 40.3567 18.9204C40.4622 17.1689 40.4095 15.4889 40.6995 13.873C40.967 12.3663 41.4755 10.8672 42.097 9.46594C42.8277 7.82365 43.7807 6.28305 44.6734 4.71609C44.9183 4.28669 45.2196 3.81961 45.6189 3.56347C45.7093 3.50321 45.8072 3.45047 45.9014 3.39774C46.6283 3.0173 47.4683 3.78194 47.1406 4.53152C47.0954 4.63699 47.0389 4.73493 46.9711 4.82156C45.5511 6.59192 43.856 8.14758 42.4849 9.95185C40.5451 12.5095 41.1779 15.5982 41.1515 18.5136C41.1515 18.8074 41.7429 19.2557 42.1422 19.38C61.7593 25.5386 81.384 31.667 101.009 37.7955C101.118 37.8294 101.246 37.788 100.994 37.5055C103.122 34.4507 105.291 31.4184 107.359 28.3222C107.917 27.486 108.067 26.3823 108.606 25.5273C109.224 24.5517 110 23.6477 110.847 22.8604C111.081 22.642 111.996 22.77 112.241 23.0525C112.508 23.3614 112.588 24.1976 112.354 24.5103C111.804 25.2523 111.062 25.87 110.328 26.4501C106.455 29.5087 103.954 33.4977 102.052 38.1684C104.644 39.1214 107.073 39.935 109.442 40.8993C116.29 43.6829 123.116 46.5343 129.952 49.3405C130.574 49.5967 131.24 49.7474 131.888 49.947L131.817 49.8867C138.793 53.5555 145.855 57.1038 153.701 58.4297C156.636 58.9269 159.427 57.7479 161.201 55.0697C164.764 49.6871 170.128 47.2877 176.177 45.83C176.177 46.2104 176.177 46.4929 176.17 46.7679C175.684 46.7151 175.157 46.523 174.731 46.6511C169.725 48.1842 165.171 50.4329 162.222 55.0245C160.7 57.39 158.602 58.8214 155.815 59.1152C154.568 59.247 153.291 59.1378 151.652 59.1378C153.374 59.9778 154.767 60.6633 156.161 61.3413C158.391 62.4262 159.547 62.1211 160.998 59.9514C161.525 59.1642 161.954 58.3167 162.308 57.4428C163.412 54.7345 165.19 52.5385 167.653 51.077C170.38 49.4573 173.303 48.1691 176.144 46.7377C181.654 44.6058 187.455 43.9843 193.278 43.6189C198.789 43.2761 204.311 43.1405 209.829 42.9258C210.308 42.907 210.786 42.9672 211.268 42.9936C211.283 43.148 211.302 43.2987 211.317 43.4531C210.718 43.5021 210.12 43.5586 209.521 43.5963C201.693 44.0747 193.859 44.4099 186.046 45.0728C180.415 45.5512 175.187 47.4986 170.335 50.4442C166.979 52.482 164.244 55.017 162.745 58.7649C162.308 59.8573 161.563 60.8931 160.741 61.7482C159.536 63.0025 157.641 63.3 156.074 62.5467C139.004 54.3315 121.91 46.1614 104.014 39.8371C103.438 39.6337 102.851 39.4604 101.958 39.1704C101.709 48.7868 101.468 58.2263 101.223 67.6657C101.061 67.6619 100.899 67.6582 100.737 67.6506C100.737 64.5619 100.677 61.4694 100.749 58.3807C100.896 52.3577 101.095 46.3385 101.325 40.3192C101.363 39.3173 101.208 38.6995 100.131 38.3605C81.0525 32.3752 61.9815 26.356 42.9068 20.3593C42.3832 20.1936 41.822 20.1484 41.1101 20.0166V31.5088L40.643 31.5352C40.5865 30.2847 40.4886 29.0341 40.481 27.7835C40.466 25.6516 40.4509 23.5158 40.5413 21.3839C40.594 20.171 40.1872 19.6738 38.9593 19.3536C30.4276 17.1237 21.7453 15.9447 12.9689 15.3383C10.5318 15.1688 8.09847 15.0068 5.36006 14.8222C5.36006 16.1481 5.22445 17.3346 5.42786 18.4609C5.50696 18.8978 6.29421 19.3536 6.84791 19.5419C14.9728 22.303 23.1993 24.7815 31.2111 27.825C36.5862 29.8666 41.7768 32.4807 46.8242 35.2492C50.7303 37.3925 54.3614 40.1761 55.8342 44.6924C57.8796 50.9678 55.7137 56.1282 51.156 60.5089C47.6529 63.8764 43.4078 66.1967 38.9781 67.8616C28.7213 71.7187 18.3176 75.1878 7.93273 78.6984C5.87233 79.3953 3.64243 79.5987 1.48409 79.9942C1.03962 80.0771 0.568776 80.0055 0.109235 80.0055C0.0715679 79.8473 0.0339006 79.6891 0 79.5271C0.58761 79.3275 1.16015 79.0676 1.76283 78.9395C4.70088 78.2992 7.654 77.7229 10.5883 77.0524C11.0667 76.9431 11.4622 76.4911 11.8991 76.1973L32.5671 69.6357H32.5747ZM108.994 25.7796C110.636 25.2749 111.375 24.8681 111.54 24.1939C111.661 23.6929 111.009 23.3802 110.678 23.772C110.083 24.4839 109.536 25.1318 108.994 25.7796Z" fill="white"/>
<path d="M314.92 141.003C312.269 140.22 309.564 139.568 306.973 138.622C295.428 134.415 283.886 130.208 272.398 125.842C256.898 119.955 241.94 112.903 227.668 104.436C213.81 96.2128 199.948 87.9938 186.136 79.6995C182.222 77.349 178.429 74.8931 175.932 70.7497C171.8 63.8943 173.758 54.9219 180.911 51.3172C184.554 49.4828 188.614 48.2059 192.633 47.4525C197.854 46.4732 203.218 46.2547 208.522 45.7386C209.441 45.6482 210.375 45.7273 211.301 45.7273C211.32 45.927 211.339 46.1266 211.358 46.3263C210.774 46.4091 210.19 46.5259 209.603 46.5636C202.468 47.0005 195.3 47.2755 188.381 49.2869C185.872 50.0177 183.367 50.9706 181.081 52.2287C174.76 55.6979 172.783 63.7926 176.421 70.0002C178.064 72.7988 180.29 74.8366 183.043 76.494C203.29 88.6907 223.208 101.445 244.245 112.278C259.61 120.188 275.795 126.139 292 132.019C299.304 134.671 306.649 137.199 313.975 139.79C314.363 139.926 314.725 140.129 315.097 140.302C315.033 140.536 314.973 140.769 314.909 140.999L314.92 141.003Z" fill="white"/>
<path d="M10.7773 131.494C43.5554 113.327 77.5841 98.0982 113.831 88.0938C78.0436 99.1981 44.0526 114.51 11.1427 132.364L10.7811 131.498L10.7773 131.494Z" fill="white"/>
<path d="M184.125 132.388C183.523 131.993 182.916 131.605 182.317 131.205C161.329 117.159 141.527 101.542 121.846 85.7446C112.757 78.4485 103.148 71.7926 93.7915 64.8317C90.5107 62.3909 87.2713 59.8935 84.209 57.125C84.3634 57.1702 84.548 57.1777 84.6723 57.2681C92.364 62.7939 100.172 68.1691 107.713 73.8982C117.654 81.4505 127.455 89.1949 137.184 97.0184C151.916 108.865 167.239 119.894 182.826 130.569C183.41 130.968 183.956 131.428 184.517 131.857C184.385 132.034 184.257 132.211 184.125 132.388Z" fill="white"/>
<path d="M116.301 89.3672C82.5286 100.72 49.4529 113.587 18.5996 131.924C23.357 124.865 103.539 89.9096 116.301 89.3672Z" fill="white"/>
<path d="M326.101 73.3366C298.743 69.7997 271.197 69.4004 243.711 67.9766C271.246 68.583 298.781 69.1706 326.101 73.3366Z" fill="white"/>
<path d="M279.149 87.8747C280.056 91.374 281.932 94.233 284.52 96.6738C287.688 99.6684 291.112 102.29 295.097 104.079C304.973 108.52 314.88 112.901 324.771 117.308C325.148 117.477 325.521 117.654 325.822 118.137C325.464 118.08 325.069 118.095 324.749 117.952C313.776 113.048 302.774 108.219 291.869 103.168C287.774 101.273 284.543 98.0826 281.838 94.5192C280.418 92.6472 279.57 90.3419 278.467 88.2326C278.693 88.112 278.923 87.9877 279.149 87.8672V87.8747Z" fill="white"/>
<path d="M150.236 57.2846C150.236 56.3166 150.213 55.7101 150.236 55.1037C150.564 47.7171 150.729 40.3193 151.279 32.9478C151.716 27.1169 148.774 23.1731 144.725 19.7341C143.603 18.7811 142.036 18.3668 140.864 17.4552C140.356 17.0597 140.341 16.0352 140.1 15.2969C140.849 15.4777 141.855 15.4136 142.307 15.8845C144.797 18.4835 147.256 21.1315 149.516 23.9265C151.072 25.8513 151.946 28.1979 151.844 30.7329C151.505 39.37 151.106 48.0072 150.718 56.6443C150.714 56.7309 150.59 56.8138 150.228 57.2808L150.236 57.2846Z" fill="white"/>
<path d="M285.193 95.1473C288.037 98.4319 291.616 100.692 295.563 102.357C305.361 106.489 315.192 110.553 325.004 114.648C325.392 114.81 325.765 115.006 326.021 115.555C325.486 115.405 324.925 115.307 324.416 115.096C314.261 110.847 304.038 106.745 293.985 102.263C288.542 99.8369 283.988 96.0702 280.873 90.8231C280.557 90.292 280.346 89.6931 280.12 89.1093C280.067 88.9774 280.15 88.7929 280.112 89.0867C281.717 90.9964 283.487 93.102 285.258 95.2114L285.186 95.1436L285.193 95.1473Z" fill="white"/>
<path d="M64.817 63.5078C60.3722 71.7193 26.3775 89.8335 14.8438 89.9917C33.2706 84.545 50.6202 77.0831 64.817 63.5078Z" fill="white"/>
<path d="M0.757812 81.3939C18.6083 76.9868 36.0332 72.2483 51.2546 61.6562C46.7044 67.8638 10.3441 82.1058 0.757812 81.3939Z" fill="white"/>
<path d="M312.823 131.814C299.975 127.26 289.515 119.73 279.684 111.172C284.957 114.844 290.095 118.735 295.538 122.133C300.977 125.527 306.725 128.427 312.82 131.814H312.823Z" fill="white"/>
<path d="M218.049 127.303C212.094 123.551 206.135 119.8 200.18 116.048C200.327 115.815 200.47 115.577 200.617 115.344C206.613 119.039 212.61 122.734 218.603 126.425C218.418 126.716 218.234 127.009 218.049 127.299V127.303Z" fill="white"/>
<path d="M94.043 131.162C102.752 125.606 111.788 121.24 121.194 117.594C112.217 122.08 103.238 126.566 94.043 131.162Z" fill="white"/>
<path d="M185.853 107.16L171.242 97.6378C171.397 97.4005 171.551 97.167 171.705 96.9297C176.602 100.064 181.503 103.201 186.4 106.335C186.219 106.61 186.034 106.885 185.853 107.156V107.16Z" fill="white"/>
<path d="M296.592 126.674C290.076 122.945 283.789 118.873 278.674 113.227C284.648 117.709 290.622 122.191 296.592 126.674Z" fill="white"/>
<path d="M146.518 80.4766C151.241 83.456 155.965 86.4318 160.684 89.4112C160.53 89.6599 160.372 89.9047 160.217 90.1533C155.509 87.1625 150.804 84.1717 146.096 81.1809C146.235 80.9474 146.374 80.7101 146.518 80.4766Z" fill="white"/>
<path d="M101.189 109.976C96.0509 112.352 90.9093 114.729 85.7715 117.106C90.4686 113.803 95.6968 111.599 100.936 109.422L101.189 109.979V109.976Z" fill="white"/>
<path d="M75.0634 122.862C70.2759 125.581 65.4884 128.301 60.7047 131.02C60.5954 130.828 60.4862 130.64 60.377 130.448C65.1494 127.694 69.9219 124.941 74.6943 122.188C74.8186 122.414 74.9429 122.636 75.0672 122.862H75.0634Z" fill="white"/>
<path d="M124.622 66.3125C128.54 68.7609 132.461 71.213 136.378 73.6614C136.239 73.8874 136.096 74.1134 135.956 74.3394C132.031 71.8722 128.106 69.405 124.178 66.9378C124.325 66.7306 124.472 66.5234 124.622 66.3125Z" fill="white"/>
<path d="M103.627 53.75C107.408 55.9611 111.187 58.1721 114.968 60.387C114.844 60.6017 114.72 60.8126 114.595 61.0273C110.832 58.8162 107.066 56.6052 103.303 54.3941C103.412 54.1794 103.521 53.9685 103.627 53.7538V53.75Z" fill="white"/>
<path d="M272.349 74.7266C276.519 74.9111 280.685 75.0957 284.855 75.2803C284.847 75.3631 284.84 75.446 284.832 75.5289H272.338C272.342 75.2614 272.345 74.994 272.349 74.7266Z" fill="white"/>
<path d="M247.279 74.5156H259.468C259.468 74.655 259.464 74.7944 259.46 74.9337H247.26C247.264 74.7944 247.271 74.655 247.275 74.5156H247.279Z" fill="white"/>
<path d="M315.071 124.087L303.605 118.554C303.692 118.369 303.783 118.185 303.869 118C307.696 119.831 311.527 121.665 315.354 123.496C315.26 123.695 315.166 123.891 315.071 124.091V124.087Z" fill="white"/>
<path d="M11.6053 84.0928C15.1084 83.0644 18.6077 82.0361 22.1107 81.0078C22.171 81.215 22.235 81.4222 22.2953 81.6293C18.7847 82.6953 15.2779 83.7613 11.7673 84.831C11.7108 84.5862 11.6581 84.3414 11.6016 84.0965L11.6053 84.0928Z" fill="white"/>
<path d="M0.138672 93.1396C4.33481 92.2507 8.53095 91.3655 12.7309 90.4766C12.7723 90.6724 12.8137 90.8645 12.8552 91.0604C8.64018 91.9531 4.42521 92.8458 0.21024 93.7423C0.187639 93.5427 0.165039 93.3393 0.142439 93.1396H0.138672Z" fill="white"/>
<path d="M95.0905 49.6876C92.0734 48.0943 89.0562 46.501 86.0391 44.9076C86.1408 44.708 86.2425 44.5121 86.3442 44.3125C89.3764 45.8757 92.4086 47.4427 95.4408 49.0058C95.3241 49.2318 95.2073 49.4579 95.0905 49.6839V49.6876Z" fill="white"/>
<path d="M268.346 89.6908C268.293 88.9601 268.24 88.2256 268.188 87.4948C268.263 87.4835 268.334 87.4722 268.41 87.4609C269.446 91.6006 270.481 95.744 271.555 100.034C269.657 96.7572 269.012 93.1826 268.312 89.6306L268.346 89.6908Z" fill="white"/>
<path d="M268.313 89.6329C267.868 93.9459 269.669 97.7239 271.164 101.577C268.403 97.3359 267.529 92.6237 267.763 87.6328C267.955 88.3184 268.151 89.0001 268.343 89.6894C268.343 89.6932 268.309 89.6329 268.309 89.6329H268.313Z" fill="white"/>
<path d="M41.1398 73.727C37.8552 75.2412 34.5743 76.7592 31.2898 78.2734C31.1918 78.0625 31.0901 77.8553 30.9922 77.6444C34.2655 76.1678 37.5425 74.6875 40.8158 73.2109C40.9213 73.3842 41.0305 73.5575 41.136 73.727H41.1398Z" fill="white"/>
<path d="M306.243 77.4528C302.559 77.2193 298.879 76.9858 295.195 76.7485C295.207 76.5601 295.218 76.368 295.229 76.1797C298.898 76.3831 302.567 76.5903 306.239 76.7937C306.239 77.0121 306.239 77.2306 306.243 77.4528Z" fill="white"/>
<path d="M48.3163 69.2058L55.8535 63.6875C55.974 63.8532 56.0983 64.0227 56.2189 64.1885C53.7027 66.0455 51.1865 67.9062 48.6703 69.7632C48.5498 69.5749 48.433 69.3903 48.3125 69.202L48.3163 69.2058Z" fill="white"/>
<path d="M70.0052 36.5625C72.8264 37.8319 75.6477 39.0975 78.4652 40.3669C78.3748 40.5665 78.2844 40.7699 78.1978 40.9696C75.3916 39.6738 72.5816 38.3781 69.7754 37.0823C69.8507 36.909 69.9298 36.7358 70.0052 36.5625Z" fill="white"/>
<path d="M323.528 79.3534C320.526 79.052 317.527 78.7545 314.525 78.4531C314.544 78.2422 314.567 78.0312 314.586 77.8203C317.584 78.1292 320.586 78.4343 323.584 78.7432C323.566 78.9466 323.547 79.15 323.528 79.3534Z" fill="white"/>
<path d="M63.1682 51.1953C63.5487 54.2765 62.4187 56.804 60.6332 59.0828C60.4788 59.015 60.3244 58.951 60.1699 58.8832C60.8253 57.6666 61.6088 56.4951 62.106 55.2182C62.607 53.9337 62.8255 52.5438 63.1682 51.1953Z" fill="white"/>
<path d="M296.359 114.402C294.385 113.246 292.415 112.089 290.441 110.933L290.754 110.391L296.702 113.807C296.589 114.007 296.472 114.203 296.359 114.402Z" fill="white"/>
<path d="M49.3296 28.713C46.8813 27.809 44.4329 26.905 41.9883 26.001C42.0485 25.8352 42.1088 25.6657 42.1653 25.5L49.5293 28.1518C49.4615 28.3401 49.3974 28.5247 49.3296 28.713Z" fill="white"/>
<path d="M70.7012 51.9813C69.8197 54.5728 68.9346 57.1681 68.0532 59.7596C67.9175 59.7144 67.7782 59.6692 67.6426 59.624C68.5127 57.0476 69.379 54.4749 70.2492 51.8984C70.3998 51.9248 70.5505 51.9549 70.7012 51.9813Z" fill="white"/>
<path d="M61.9852 33.4555C59.8118 32.623 57.6422 31.7906 55.4688 30.9581C55.5328 30.7924 55.5931 30.6267 55.6571 30.4609C57.838 31.267 60.019 32.0731 62.1999 32.8829L61.9814 33.4555H61.9852Z" fill="white"/>
<path d="M50.846 31.9844C52.4355 33.1897 54.0251 34.3988 55.6147 35.6042L55.287 36.0449C53.6861 34.8396 52.0852 33.6342 50.4844 32.4326C50.6049 32.2819 50.7292 32.135 50.8497 31.9844H50.846Z" fill="white"/>
<path d="M59.525 40.0781C60.5119 41.7355 61.4987 43.3891 62.4856 45.0464C62.3123 45.1481 62.1428 45.2536 61.9696 45.3553L59.0918 40.338C59.2349 40.2514 59.3781 40.1648 59.525 40.0781Z" fill="white"/>
<path d="M167.951 66.6767V60.5897C168.087 60.5897 168.222 60.5897 168.358 60.5859V66.6014C168.222 66.6278 168.087 66.6541 167.951 66.6805V66.6767Z" fill="white"/>
<path d="M52.8359 59.9553C54.1807 58.0757 55.5216 56.1999 56.8663 54.3203L57.2129 54.5576C55.8795 56.4598 54.546 58.362 53.2126 60.2642C53.0883 60.1587 52.9602 60.057 52.8359 59.9516V59.9553Z" fill="white"/>
<path d="M169.303 56.8849C170.361 55.4611 171.419 54.041 172.478 52.6172C172.644 52.7377 172.813 52.8583 172.979 52.9788L169.743 57.2616C169.596 57.1373 169.449 57.013 169.299 56.8849H169.303Z" fill="white"/>
<path d="M186.178 72.6003C203.934 69.2781 221.871 68.0727 239.918 68.2611C230.945 68.7018 221.954 68.9165 213.001 69.6397C204.04 70.3629 195.116 71.5908 186.178 72.6003Z" fill="white"/>
<path d="M214.142 78.1391C209.004 78.9113 203.863 79.6834 198.725 80.4556C198.691 80.2409 198.661 80.0262 198.627 79.8115C203.761 78.9941 208.895 78.1768 214.029 77.3594C214.067 77.6193 214.104 77.8792 214.142 78.1391Z" fill="white"/>
<path d="M225.25 76.2613L237.654 75.1953C237.673 75.4401 237.688 75.685 237.707 75.9298L225.325 76.9883C225.299 76.7472 225.276 76.5061 225.25 76.2651V76.2613Z" fill="white"/>
</svg>
