<svg width="215" height="132" viewBox="0 0 215 132" fill="none" xmlns="http://www.w3.org/2000/svg">
<path d="M201.757 131.88L152.067 131.804C151.8 131.804 151.534 131.804 151.267 131.804C150.48 131.816 149.668 131.829 148.881 131.715C147.7 131.524 146.52 131.131 145.39 130.737C145.073 130.636 144.756 130.522 144.451 130.42C142.255 129.684 140.06 128.986 137.864 128.3C126.263 124.607 114.51 120.761 102.935 116.839L35.5258 94.8436L18.9877 89.4747C18.1373 89.1955 17.2869 88.9289 16.4239 88.6624C14.2408 87.977 11.9815 87.2662 9.79846 86.4793L9.5827 86.4032L9.49385 86.1874C8.88462 84.5882 8.16116 82.9889 7.46308 81.4532C7.03154 80.5012 6.61269 79.562 6.20654 78.6101C4.30269 78.2166 2.34808 77.7978 1.05346 75.8685C0.685385 75.3101 0.279231 74.447 0.139615 73.6347H0.0888462L0 73.1905V40.5458C0.114231 39.9747 0.203077 39.5051 0.291923 39.0354C0.444231 38.2104 0.596539 37.3728 0.837693 36.5478C2.11962 32.1943 4.95 28.3612 8.5927 26.0512C10.2046 25.0358 11.9815 24.2616 13.7458 23.8427C15.5862 23.3985 17.49 23.0558 19.3431 22.7258C20.2569 22.5608 21.1708 22.3958 22.0719 22.2181L39.7523 18.8293L118.8 3.81428L130.045 1.64389C132.546 1.1362 135.135 0.615814 137.737 0.323891C143.677 -0.323417 149.173 -0.00610966 155.049 1.32658C155.912 1.51697 156.763 1.73274 157.613 1.97389C158.464 2.21505 159.301 2.48158 160.139 2.76081C160.977 3.05274 161.802 3.35735 162.614 3.70005C163.426 4.03005 164.239 4.39812 165.025 4.77889C171.549 7.95197 180.434 14.7551 184.762 21.6216C185.346 22.5481 185.854 23.5254 186.349 24.4901L201.706 53.9743C204.829 59.9016 207.951 65.9812 210.984 72.0355C211.289 72.6574 211.632 73.2793 211.974 73.9139C212.875 75.5639 213.802 77.2647 214.284 79.0416C214.525 79.9428 214.678 80.9328 214.729 82.0497C214.855 84.8293 214.817 87.6724 214.779 90.4266C214.754 91.8355 214.741 93.2443 214.741 94.6532V100.657C214.741 100.999 214.754 101.355 214.767 101.697C214.792 103.068 214.817 104.49 214.513 105.822C214.475 105.962 214.449 106.089 214.411 106.216C214.373 106.343 214.335 106.47 214.297 106.597C214.246 106.724 214.208 106.85 214.157 106.977C214.107 107.092 214.056 107.219 214.005 107.345C213.954 107.472 213.891 107.587 213.827 107.714C213.764 107.828 213.7 107.942 213.637 108.069C213.574 108.183 213.497 108.297 213.434 108.412C213.358 108.526 213.282 108.64 213.205 108.742C213.129 108.843 213.053 108.957 212.964 109.059C212.875 109.16 212.787 109.275 212.698 109.376C212.609 109.478 212.52 109.579 212.431 109.668C212.342 109.757 212.241 109.859 212.139 109.947C212.038 110.036 211.936 110.125 211.835 110.214C211.733 110.303 211.632 110.379 211.517 110.468C211.403 110.557 211.302 110.633 211.187 110.709C211.086 110.785 210.972 110.861 210.857 110.925C210.616 111.077 210.362 111.204 210.109 111.331C209.855 111.458 209.588 111.559 209.334 111.661C209.068 111.762 208.801 111.839 208.522 111.915C208.255 111.991 207.976 112.042 207.697 112.092C206.339 112.334 204.892 112.295 203.496 112.27C203.052 112.27 202.62 112.257 202.189 112.257H201.605C199.066 112.257 196.452 112.257 193.875 112.308C193.456 113.514 192.987 114.707 192.479 115.875C193.926 116.776 195.424 117.639 196.883 118.464C197.518 118.819 198.14 119.175 198.762 119.543L207.139 124.417C207.481 124.62 207.938 124.861 208.446 125.14C210.692 126.384 213.777 128.085 214.843 129.151L214.97 129.278V129.455C215.033 129.938 215.033 130.509 214.602 131.055C214.145 131.639 213.535 131.702 213.129 131.74C212.203 131.842 211.238 131.829 210.299 131.816C209.944 131.816 209.575 131.816 209.233 131.816L201.757 131.854V131.88ZM152.003 130.788H152.067L157.689 130.814L201.744 130.864L209.207 130.826C209.563 130.826 209.931 130.826 210.299 130.826C211.2 130.826 212.139 130.839 213.015 130.75C213.447 130.699 213.637 130.649 213.789 130.445C213.942 130.255 213.992 130.065 213.98 129.747C212.875 128.757 209.918 127.12 207.938 126.029C207.418 125.749 206.961 125.495 206.618 125.292L198.229 120.419C197.607 120.063 196.985 119.708 196.35 119.352C194.751 118.451 193.114 117.512 191.527 116.497L191.159 116.255L191.337 115.849C191.959 114.479 192.517 113.07 192.999 111.648L193.114 111.318H193.469C196.172 111.242 198.927 111.242 201.579 111.242H202.163C202.595 111.242 203.039 111.242 203.483 111.255C204.829 111.28 206.225 111.305 207.494 111.09C207.748 111.052 207.989 111.001 208.23 110.937C208.471 110.874 208.712 110.798 208.941 110.709C209.169 110.62 209.41 110.519 209.626 110.417C209.855 110.303 210.07 110.189 210.286 110.062C210.388 109.998 210.489 109.935 210.578 109.871C210.68 109.808 210.781 109.732 210.87 109.655C210.959 109.592 211.048 109.516 211.137 109.44C211.225 109.364 211.314 109.287 211.403 109.211C211.492 109.135 211.568 109.046 211.657 108.97C211.746 108.881 211.822 108.792 211.898 108.716C211.987 108.627 212.05 108.539 212.127 108.437C212.203 108.348 212.266 108.259 212.342 108.158C212.419 108.056 212.482 107.967 212.545 107.866C212.609 107.764 212.672 107.675 212.723 107.574C212.787 107.472 212.837 107.371 212.888 107.257C212.952 107.142 212.99 107.041 213.04 106.939C213.091 106.838 213.129 106.724 213.18 106.622C213.231 106.508 213.269 106.394 213.307 106.292C213.345 106.19 213.383 106.076 213.409 105.962C213.447 105.848 213.472 105.734 213.497 105.619C213.777 104.414 213.751 103.055 213.726 101.748C213.726 101.393 213.713 101.037 213.713 100.682V94.6785C213.713 93.2697 213.713 91.8609 213.739 90.4393C213.777 87.6978 213.815 84.8674 213.688 82.1258C213.637 81.0724 213.51 80.1712 213.282 79.3335C212.825 77.6708 211.924 76.0208 211.06 74.4216C210.705 73.7743 210.362 73.1397 210.045 72.5178C207.012 66.4762 203.889 60.3966 200.767 54.4693L185.397 24.9851C184.914 24.0458 184.419 23.0812 183.861 22.1927C179.634 15.4912 170.94 8.82774 164.543 5.71812C163.769 5.35005 162.982 4.99466 162.182 4.66466C161.383 4.33466 160.583 4.03005 159.771 3.75082C158.959 3.47158 158.134 3.20505 157.309 2.97658C156.484 2.74812 155.646 2.53235 154.808 2.34197C149.046 1.03466 143.639 0.717352 137.826 1.36466C135.262 1.64389 132.698 2.16428 130.223 2.67197L128.649 2.98928L118.965 4.85505L39.9173 19.7939L22.2496 23.1827C21.3485 23.3604 20.4219 23.5254 19.5081 23.6904C17.6804 24.0204 15.7892 24.3631 13.9742 24.7947C12.3115 25.1881 10.6488 25.9116 9.12577 26.8762C5.68616 29.0593 3.02077 32.6766 1.80231 36.8016C1.57385 37.5631 1.42154 38.3881 1.28192 39.1878C1.19308 39.6701 1.10423 40.1524 1.00269 40.622V72.8478L1.10423 73.1397C1.155 73.7743 1.485 74.6501 1.90385 75.2847C2.98269 76.8966 4.60731 77.2266 6.49846 77.6201L6.93 77.7089L7.03154 77.9501C7.46308 78.9782 7.92 79.9935 8.38962 81.0216C9.06231 82.5066 9.7477 84.0424 10.3569 85.5909C12.4639 86.3397 14.6215 87.0251 16.7285 87.6851C17.5915 87.9516 18.4419 88.2309 19.2923 88.4974L35.8304 93.8662L103.252 115.862C114.827 119.771 126.58 123.63 138.169 127.31C140.377 127.996 142.585 128.707 144.781 129.443C145.099 129.544 145.416 129.659 145.733 129.76C146.825 130.128 147.954 130.522 149.046 130.699C149.744 130.814 150.505 130.801 151.254 130.775C151.508 130.775 151.762 130.775 152.016 130.775L152.003 130.788Z" fill="white"/>
<path d="M129.664 111.71L128.826 111.57L128.496 110.961L128.674 110.707C128.915 110.352 129.169 109.971 129.372 109.577C129.486 109.349 129.626 108.993 129.778 108.6C130.222 107.458 130.565 106.633 130.996 106.29L131.212 106.125L131.606 106.239C131.898 106.328 132.291 106.43 132.558 106.823L132.634 106.937V107.077C132.786 108.6 130.895 110.859 130.87 110.885C130.59 111.215 130.273 111.456 129.803 111.659L129.664 111.722V111.71ZM131.479 107.255C131.238 107.635 130.92 108.448 130.717 108.968C130.578 109.336 130.438 109.679 130.324 109.92C130.908 109.158 131.568 108.016 131.631 107.318C131.593 107.293 131.542 107.28 131.479 107.255Z" fill="white"/>
<path d="M124.588 107.672C124.347 107.672 124.106 107.608 123.827 107.443C123.053 106.974 122.773 106.047 122.685 105.54C122.596 105.095 122.545 104.512 122.837 104.017L122.976 103.788L123.497 103.75L123.586 103.775C124.36 104.029 125.134 104.296 125.908 104.562L126.289 104.702L126.238 105.108C126.15 105.908 126.035 106.58 125.502 107.367L125.401 107.52L125.223 107.57C125.007 107.634 124.804 107.672 124.588 107.672ZM123.636 104.867C123.636 105.019 123.662 105.197 123.687 105.349C123.738 105.628 123.903 106.301 124.36 106.58C124.5 106.669 124.576 106.682 124.766 106.631C125.007 106.225 125.109 105.844 125.185 105.387C124.665 105.21 124.157 105.032 123.636 104.867Z" fill="white"/>
<path d="M155.887 114.438L155.252 114.285C153.983 113.993 152.675 113.676 151.406 113.27L151.025 113.143L151.063 112.546C151.089 112.077 151.114 111.43 151.546 111.036C151.673 110.922 151.787 110.82 152.028 110.82H152.079H152.18L153.348 111.023C154.389 111.201 155.43 111.379 156.47 111.506L157.13 111.582L156.762 112.47C156.547 113.003 156.318 113.549 156.064 114.07L155.887 114.425V114.438ZM152.092 112.42C153.158 112.737 154.262 113.003 155.328 113.257C155.455 112.978 155.569 112.699 155.683 112.42C154.846 112.305 154.008 112.153 153.17 112.013L152.206 111.848C152.13 112.001 152.104 112.216 152.092 112.407V112.42Z" fill="white"/>
<path d="M141.063 112.195C140.923 112.195 140.771 112.17 140.606 112.106C140.06 111.891 139.616 111.358 139.349 110.583C139.159 110.063 138.892 108.883 139.172 108.184C139.235 108.032 139.273 107.969 139.362 107.867L139.514 107.702L140.2 107.664L140.606 107.728C141.38 107.842 142.357 107.994 142.89 108.679C143.22 109.098 143.322 109.568 143.208 110.076C143.043 110.786 142.357 111.599 141.926 111.941L141.786 112.018C141.558 112.094 141.329 112.183 141.075 112.183L141.063 112.195ZM140.085 108.679C140.022 109.073 140.136 109.771 140.301 110.241C140.403 110.52 140.619 111.015 140.974 111.154C141.063 111.193 141.114 111.18 141.367 111.091C141.634 110.863 142.116 110.241 142.205 109.847C142.256 109.631 142.205 109.479 142.078 109.301C141.786 108.933 141.037 108.819 140.441 108.73L140.085 108.679Z" fill="white"/>
<path d="M143.271 117.766L144.591 116.433C146.051 114.961 146.825 113.679 147.257 112.016C147.282 111.915 147.308 111.762 147.333 111.61C147.46 110.886 147.6 110.074 148.145 109.795L148.285 109.719L149.199 109.871C149.554 109.947 149.922 110.023 150.278 110.112L150.811 110.239L150.646 110.76C149.897 113.082 148.881 115.659 146.432 116.915L143.284 117.766H143.271ZM148.564 110.772C148.475 110.988 148.374 111.534 148.336 111.775C148.298 111.965 148.272 112.143 148.234 112.257C147.917 113.488 147.422 114.542 146.648 115.595C148.095 114.555 148.869 112.778 149.478 110.963C149.313 110.925 149.135 110.886 148.958 110.848L148.551 110.76L148.564 110.772Z" fill="white"/>
<path d="M124.524 112.04C123.927 112.04 123.331 111.888 122.772 111.584C121.249 110.759 120.081 108.88 119.295 105.999C119.066 105.161 118.8 104.184 119.079 103.397L119.168 103.13L119.447 103.067C119.726 103.004 119.929 103.004 120.221 103.042L121.998 103.41V103.829C121.947 105.491 122.112 106.811 123.115 107.852C123.42 108.169 123.915 108.537 124.587 108.55C125.184 108.55 125.615 108.22 125.856 107.941C126.491 107.243 126.732 106.227 126.885 105.225L126.961 104.717L127.76 104.857C128.319 104.933 129.068 105.047 129.461 105.605C129.677 105.91 129.728 106.278 129.613 106.722C129.512 107.116 129.347 107.497 129.195 107.865L129.08 108.144C128.166 109.807 127.126 111.368 125.488 111.863C125.171 111.964 124.841 112.015 124.511 112.015L124.524 112.04ZM119.98 104.044C119.955 104.514 120.12 105.136 120.246 105.618C120.97 108.296 121.998 110.01 123.255 110.695C123.889 111.038 124.587 111.114 125.209 110.924C126.504 110.53 127.392 109.159 128.179 107.738L128.281 107.497C128.42 107.167 128.56 106.837 128.649 106.494C128.661 106.418 128.7 106.278 128.649 106.215C128.535 106.05 128.141 105.974 127.811 105.91C127.621 106.9 127.316 107.877 126.618 108.652C126.072 109.248 125.361 109.591 124.613 109.591C123.826 109.591 123.039 109.248 122.391 108.575C121.186 107.319 120.97 105.77 120.97 104.247L120.056 104.057C120.056 104.057 120.005 104.057 119.98 104.057V104.044Z" fill="white"/>
<path d="M141.723 116.71C141.254 116.71 140.771 116.621 140.302 116.43C138.791 115.834 137.56 114.463 136.811 112.597C136.646 112.191 136.494 111.772 136.38 111.341C136.253 110.909 136.151 110.478 136.062 110.046C135.974 109.615 135.923 109.17 135.885 108.726C135.847 108.282 135.834 107.838 135.834 107.393V107.254L136.139 106.771L136.481 106.695L136.71 106.721L138.525 107.355V107.711C138.537 109.399 138.652 111.011 139.883 112.204C140.149 112.47 140.721 112.902 141.419 112.876C141.99 112.864 142.421 112.521 142.662 112.242C143.297 111.531 143.64 110.554 143.716 109.17L143.754 108.586L145.011 108.84C145.569 108.955 146.127 109.056 146.673 109.196L147.13 109.31L147.029 109.945C146.914 110.668 146.8 111.417 146.622 112.153C145.848 114.311 144.719 115.72 143.259 116.38C142.764 116.608 142.244 116.722 141.723 116.722V116.71ZM136.837 107.85C136.837 108.117 136.862 108.383 136.875 108.65C136.913 109.056 136.964 109.462 137.04 109.868C137.116 110.275 137.217 110.668 137.332 111.061C137.446 111.455 137.586 111.848 137.738 112.229C138.195 113.371 139.058 114.856 140.657 115.491C141.381 115.783 142.129 115.77 142.815 115.453C144.021 114.907 144.972 113.689 145.632 111.848C145.759 111.29 145.861 110.693 145.962 110.071C145.569 109.983 145.176 109.906 144.795 109.83L144.668 109.805C144.516 111.138 144.097 112.153 143.399 112.927C142.853 113.536 142.155 113.879 141.431 113.905C140.632 113.943 139.832 113.587 139.159 112.94C137.751 111.582 137.535 109.818 137.497 108.091L136.837 107.863V107.85Z" fill="white"/>
<path d="M166.854 116.051C166.232 116.051 165.623 116.051 165.014 116.025C164.392 116.025 163.77 116 163.161 116C162.691 116 162.222 116 161.739 116C160.343 116 158.896 116.025 157.5 115.936L157.081 115.911L157.03 115.505C156.891 114.49 157.563 113.246 158.122 112.256C158.236 112.053 158.338 111.862 158.427 111.684L158.566 111.405H158.871C163.021 111.354 167.222 111.354 171.347 111.405H172.134L171.792 112.129C171.119 113.55 170.446 114.756 169.786 115.721L169.647 115.924L169.405 115.949C168.568 116.025 167.705 116.038 166.854 116.038V116.051ZM163.161 114.997H163.453C163.973 114.997 164.506 114.997 165.027 115.023C166.359 115.048 167.743 115.073 169.075 114.972C169.545 114.248 170.027 113.398 170.522 112.433C166.765 112.383 162.958 112.383 159.175 112.433C159.125 112.535 159.061 112.649 158.998 112.751C158.63 113.423 158.147 114.299 158.046 114.972C159.264 115.035 160.521 115.023 161.727 115.01C162.209 115.01 162.678 115.01 163.148 115.01L163.161 114.997Z" fill="white"/>
<path d="M179.507 116.075L179.431 116.05C179.051 115.948 178.771 115.872 178.492 115.479C178.048 114.869 178.048 113.778 178.048 112.826C178.048 112.458 178.048 112.115 178.022 111.861L177.959 111.29H178.53C179.546 111.29 180.561 111.29 181.589 111.29C184.331 111.278 187.161 111.265 189.941 111.354L192.047 111.417L191.794 112.09C191.4 113.131 190.969 114.159 190.524 115.187L190.144 116.088H179.507V116.075ZM179.051 112.318C179.051 112.483 179.051 112.661 179.051 112.839C179.051 113.562 179.051 114.565 179.304 114.908C179.347 114.975 179.44 115.026 179.584 115.06H179.634H189.458L189.572 114.781C189.915 113.981 190.245 113.194 190.562 112.382L189.877 112.356C187.11 112.268 184.292 112.28 181.564 112.293C180.726 112.293 179.876 112.293 179.038 112.293L179.051 112.318Z" fill="white"/>
<path d="M117.57 106.052L117.24 105.975C110.551 104.427 103.811 102.587 97.2874 100.797L76.2817 95.0855C70.1767 93.3339 63.9701 91.6332 57.8397 90.0339C56.3928 89.6532 54.9332 89.2724 53.4863 88.8789C50.4528 88.0666 47.3051 87.2162 44.1955 86.4928C43.802 86.4039 43.4213 86.2897 43.0405 86.1882C42.5963 86.0612 42.152 85.9343 41.6951 85.8455L40.8066 85.6678L41.6189 84.8047H41.9363C44.8174 85.2743 47.7113 85.9978 50.5036 86.6958C51.6586 86.9878 52.8136 87.2797 53.9686 87.5462L75.7232 92.6612C85.4201 94.8697 95.2059 97.2812 104.801 99.8197L113.673 102.142C114.117 102.257 114.562 102.358 115.006 102.472C115.844 102.663 116.694 102.866 117.519 103.158L117.824 103.259L117.9 103.869C118.001 104.503 118.128 105.29 117.76 105.785L117.557 106.052H117.57ZM72.2328 92.8897C73.6797 93.2958 75.114 93.702 76.5482 94.1082L97.554 99.8197C103.913 101.559 110.487 103.348 116.999 104.871C116.999 104.592 116.935 104.199 116.91 104.021C116.224 103.805 115.488 103.627 114.79 103.462C114.333 103.361 113.876 103.247 113.419 103.132L104.547 100.81C94.9647 98.2712 85.1917 95.8724 75.4947 93.6639L72.2455 92.9024L72.2328 92.8897Z" fill="white"/>
<path d="M31.9076 81.3285L31.2857 81.1889C30.0546 80.9224 28.8234 80.6177 27.6176 80.275L27.4526 80.2243C27.2242 80.1481 26.9069 80.0466 26.7419 79.5643C26.6403 79.2597 26.5896 77.7873 26.653 70.2354C26.653 69.3216 26.653 68.6362 26.653 68.357C26.5896 62.417 26.5515 56.4008 26.5642 50.4608C26.5642 49.5596 26.5515 48.6458 26.5388 47.732C26.5134 45.4093 26.4753 43.0104 26.5896 40.6623C26.615 40.0023 26.7038 39.1773 27.1226 38.5935C27.5542 37.9843 28.4046 37.8827 29.0265 37.8193L31.9076 37.4766V38.0477C31.8315 52.1996 31.8188 66.542 31.9076 80.6939V81.3285ZM30.8923 38.6189L29.1407 38.8346C28.76 38.8727 28.1253 38.9489 27.9476 39.19C27.6811 39.5581 27.6303 40.2054 27.605 40.7131C27.4907 43.0358 27.5288 45.4219 27.5542 47.7193C27.5542 48.6331 27.5796 49.547 27.5796 50.4481C27.5796 56.3881 27.605 62.4043 27.6684 68.3443C27.6684 68.6235 27.6684 69.3216 27.6684 70.2354C27.6557 72.7739 27.605 78.7139 27.7192 79.2597L27.935 79.3231C28.8869 79.5897 29.8896 79.8435 30.8796 80.072C30.8034 66.3135 30.8034 52.3773 30.8796 38.6316L30.8923 38.6189Z" fill="white"/>
<path d="M29.1029 60.2962C28.9252 60.2962 28.7475 60.2962 28.5825 60.2708L28.2145 60.22C27.8718 60.055 27.5672 59.9154 27.2879 59.5473L27.1991 59.3823C27.0087 58.735 26.9072 42.6412 27.2879 41.8162C27.5925 41.1689 28.3414 40.9912 28.5825 40.9404C28.976 40.8516 29.3441 40.8516 29.7249 40.8516L29.8645 40.8769L29.7122 41.3593L29.9406 40.9023C30.2325 40.9912 30.5625 41.0927 30.8545 41.4354L30.9433 41.5877C31.2733 42.4381 31.1464 57.91 30.9433 59.2681L30.8545 59.4839C30.5372 59.9408 30.1945 60.1693 29.6741 60.2581C29.4837 60.2962 29.2933 60.3089 29.1029 60.3089V60.2962ZM28.5572 59.2554H28.646C28.9379 59.2808 29.2425 59.2935 29.4964 59.2554C29.7122 59.2173 29.8264 59.1539 29.9533 58.9889C30.1564 57.0216 30.1945 43.5677 30.0041 42.0066C29.9279 41.9431 29.8264 41.9177 29.6487 41.8543C29.3441 41.8543 29.0775 41.8543 28.811 41.9177C28.3922 42.0066 28.2525 42.1462 28.2145 42.235C28.0241 43.1235 27.9733 57.4531 28.1637 59.0143C28.2652 59.1158 28.3795 59.1793 28.5572 59.2554Z" fill="white"/>
<path d="M37.8744 82.7724L37.2525 82.6328C36.2117 82.3916 35.1709 82.1632 34.1301 81.9474L32.5817 81.5666V42.7789C32.5817 42.2966 32.5817 41.8016 32.5817 41.3066C32.569 40.1643 32.5436 38.9839 32.6325 37.8289L32.6578 37.4228L33.229 37.3339C34.4348 37.1435 35.6786 36.9405 36.9351 37.0293H37.1509L37.2905 37.2197C37.6586 37.6766 37.8871 38.0701 37.9378 38.7428C38.0394 39.9739 38.0013 41.2305 37.9632 42.4616C37.9505 42.9439 37.9378 43.4262 37.9251 43.8959L37.8998 51.9174V82.7724H37.8744ZM33.5971 80.767L34.3459 80.9447C35.1709 81.1097 36.0086 81.3001 36.8463 81.4778L36.8971 43.8832C36.8971 43.4009 36.9225 42.9186 36.9351 42.4236C36.9732 41.2305 37.0113 39.9866 36.9098 38.8189C36.8844 38.4762 36.8082 38.2732 36.6178 38.0193C35.6278 37.9812 34.6125 38.1209 33.6098 38.2859C33.559 39.2759 33.5717 40.2912 33.5844 41.2812C33.5844 41.7762 33.5971 42.2712 33.5971 42.7662V51.9555V80.7543V80.767Z" fill="white"/>
<path d="M35.64 60.7881C35.3861 60.7881 35.1323 60.7627 34.8911 60.7373L34.5738 60.6865C34.2819 60.6104 33.9392 60.5342 33.6473 60.1661L33.5711 60.0392C33.4315 59.6965 33.3934 59.4173 33.3807 59.1254C33.2792 56.8661 33.2919 54.5688 33.3046 52.3477C33.3046 51.2688 33.3173 50.2027 33.3046 49.1365C33.3046 48.8319 33.2919 48.3623 33.2792 47.8038C33.2157 45.1004 33.165 42.6127 33.4061 41.7623C33.533 41.2927 33.9646 40.9754 34.2819 40.8484C34.7515 40.6581 35.2846 40.6961 35.7034 40.7342L36.1223 40.8104C36.5157 40.9373 36.998 41.1023 37.2646 41.6481C37.6327 42.3969 37.3788 59.0492 37.1884 59.8869L37.1123 60.0646C36.8965 60.3819 36.6173 60.6738 36.0334 60.7754C35.8938 60.8008 35.7542 60.8008 35.6019 60.8008L35.64 60.7881ZM34.4977 59.5823C34.4977 59.5823 34.6246 59.6585 34.815 59.6965L35.018 59.7219C35.3227 59.76 35.6527 59.7981 35.9065 59.7473C36.0588 59.7219 36.135 59.6965 36.2492 59.5442C36.4523 57.9577 36.5538 42.9935 36.3507 41.9781C36.3 41.9146 36.173 41.8511 35.8303 41.7496L35.64 41.7242C35.2846 41.6988 34.9292 41.6734 34.6753 41.775C34.5484 41.8258 34.4215 41.9527 34.3961 42.0288C34.1803 42.8031 34.2565 46.0396 34.3073 47.7785C34.32 48.3496 34.3327 48.8192 34.3327 49.1238C34.3327 50.2027 34.3327 51.2688 34.3327 52.3477C34.32 54.5561 34.3073 56.8535 34.4088 59.0746C34.4088 59.2904 34.4469 59.43 34.4977 59.5823Z" fill="white"/>
<path d="M25.3476 80.728L25.1699 80.6899C20.2453 79.5096 15.1938 78.253 10.1549 76.9584L9.30455 76.7426C8.45416 76.5269 7.60378 76.2984 6.75339 76.108C6.53762 76.0572 6.32185 76.0192 6.10608 75.9811C5.66185 75.8922 5.19224 75.8161 4.73531 75.6638C4.18954 75.4734 3.4407 75.1053 2.98377 74.4199C2.65377 73.9249 2.603 73.303 2.56493 72.7953C2.51416 72.0592 2.438 59.113 2.64108 58.4403L2.72993 58.123L3.16147 57.9453H3.33916C6.10608 58.2119 8.92378 58.4022 11.6399 58.5926C12.7188 58.6688 13.7849 58.7322 14.8638 58.8211C16.298 58.9226 17.7195 59.0369 19.1538 59.1511C21.2861 59.3288 23.4184 59.4938 25.5634 59.6334L26.0457 59.6588L26.0076 74.3692C26.0076 74.7119 26.0076 75.2069 26.033 75.7653C26.0711 77.3646 26.1219 79.3572 25.9569 80.2076L25.9061 80.4615L25.3349 80.728H25.3476ZM3.63108 58.9734C3.51685 61.1311 3.50416 71.3738 3.59301 72.7192C3.61839 73.1126 3.65647 73.5696 3.83416 73.8361C4.07531 74.1915 4.50685 74.4961 5.07801 74.6865C5.45878 74.8134 5.86493 74.8896 6.30916 74.9657C6.53762 75.0038 6.76608 75.0546 6.99454 75.1053C7.85762 75.2957 8.7207 75.5242 9.58378 75.7399L10.4342 75.9557C15.3334 77.2122 20.2453 78.4434 25.043 79.5857C25.1192 78.6719 25.0811 77.0219 25.043 75.7653C25.0303 75.1942 25.0176 74.6992 25.0176 74.3438L25.0557 60.5853C23.0757 60.4584 21.0957 60.2934 19.1157 60.1411C17.6942 60.0269 16.2599 59.9126 14.8384 59.8111C13.7595 59.7349 12.6934 59.6588 11.6145 59.5826C8.99993 59.4049 6.30916 59.2272 3.65647 58.9607L3.63108 58.9734Z" fill="white"/>
<path d="M163.211 96.1867C162.551 96.1867 161.879 96.1613 161.244 96.0725C159.886 95.8821 158.655 95.2855 157.754 94.3844C157.208 93.8386 156.776 93.1532 156.459 92.3282C156.434 92.2775 154.555 85.6901 154.619 85.119L154.67 84.9032L154.784 84.5732L155.393 84.4844L155.469 84.5098C157.233 84.9921 159.137 85.4617 161.143 85.6901C163.11 85.9059 165.179 85.8932 167.171 85.8678C167.755 85.8678 168.339 85.8678 168.91 85.8551L187.72 85.8298C195.577 85.8044 203.7 85.7917 211.671 85.9313H212.153V86.4263C212.153 86.5151 212.305 95.2221 211.937 95.8694L211.823 96.0725L211.341 96.1613L174.279 96.0978C171.588 96.0725 168.91 96.0725 166.232 96.0978C165.788 96.0978 165.331 96.1105 164.861 96.1359C164.316 96.1613 163.757 96.174 163.199 96.174L163.211 96.1867ZM169.545 95.0825C171.131 95.0825 172.705 95.0825 174.292 95.0951L211.087 95.1713C211.201 93.9782 211.188 88.914 211.15 86.9467C203.345 86.8071 195.399 86.8325 187.708 86.8451L168.898 86.8705C168.326 86.8705 167.743 86.8705 167.171 86.8705C165.153 86.8959 163.059 86.9213 161.016 86.6928C159.15 86.4771 157.373 86.0709 155.723 85.6267C156.04 87.1498 157.208 91.5032 157.386 91.9475C157.652 92.6455 158.008 93.204 158.452 93.6482C159.188 94.3844 160.216 94.8794 161.358 95.0444C162.463 95.1967 163.656 95.1586 164.823 95.1078C165.293 95.0952 165.763 95.0698 166.22 95.0698C167.324 95.0698 168.428 95.0698 169.532 95.0698L169.545 95.0825Z" fill="white"/>
<path d="M89.5706 94.8539L88.936 94.6889C87.0575 94.1812 85.1283 93.7497 83.2498 93.3182C82.4122 93.1278 81.5745 92.9374 80.7368 92.747L80.2925 92.6455C79.8102 92.5312 79.3406 92.4297 78.8456 92.3409L78.4268 92.2647V40.2516C78.4141 39.6043 78.3887 38.9443 78.376 38.297C78.3379 37.0532 78.2998 35.7712 78.376 34.5274C78.4014 34.0578 78.541 32.9155 79.1502 32.2428C79.5183 31.8366 80.1275 31.7097 80.521 31.6208C81.2825 31.4558 82.0949 31.3797 82.8691 31.3162C83.3006 31.2781 83.7322 31.2401 84.151 31.1893C84.6714 31.1258 85.2045 31.037 85.7375 30.9481C86.8418 30.7705 87.9968 30.5801 89.1137 30.5547H89.6087L89.6341 31.037C89.7483 33.6516 89.7229 36.3297 89.6975 38.9189C89.6975 40.0485 89.6722 41.1782 89.6722 42.3078C89.6975 48.9966 89.6722 55.7997 89.6341 62.5266C89.596 67.007 89.6214 71.4747 89.6341 75.9551C89.6595 81.9459 89.6722 88.1397 89.5706 94.232V94.8793V94.8539ZM79.4548 91.427C79.8102 91.5032 80.1656 91.5793 80.5337 91.6555L80.9779 91.757C81.8156 91.9601 82.6533 92.1378 83.491 92.3282C85.1664 92.7089 86.8799 93.1024 88.5806 93.5339C88.6695 87.6574 88.6441 81.692 88.6314 75.917C88.6187 71.4366 88.606 66.9562 88.6314 62.4759C88.6822 55.7489 88.6949 48.9585 88.6695 42.2697C88.6695 41.1401 88.6695 40.0105 88.6949 38.8808C88.7202 36.4693 88.7456 33.9943 88.6568 31.5574C87.7556 31.6208 86.8291 31.7731 85.9279 31.9255C85.3822 32.0143 84.8364 32.1032 84.3033 32.1793C83.8718 32.2301 83.4275 32.2808 82.9706 32.3189C82.2345 32.3824 81.4602 32.4458 80.7622 32.6108C80.5083 32.6616 80.0768 32.7632 79.9245 32.9282C79.6579 33.2201 79.4548 33.8674 79.4168 34.5908C79.3406 35.7839 79.3787 37.0405 79.4168 38.2716C79.4422 38.9443 79.4548 39.6043 79.4548 40.2643V91.4397V91.427Z" fill="white"/>
<path d="M83.5406 63.6438C83.1091 63.6438 82.6902 63.593 82.2841 63.5422L82.1445 63.5041C81.1545 63.0472 80.5833 62.4507 80.2406 61.4988C80.0502 60.9657 80.0248 60.4326 79.9995 59.9122C79.8725 57.2849 79.8979 54.5941 79.936 52.0049C79.9487 50.7991 79.9614 49.5934 79.9614 48.3876C79.9614 47.3849 79.936 46.3568 79.9233 45.3034C79.8852 43.0695 79.8471 40.7595 79.9741 38.6399C79.9995 38.2211 80.0629 37.7261 80.3168 37.2564C80.596 36.7361 81.0402 36.3934 81.4845 36.0887L81.5987 36.0126H81.7383C82.6522 35.9618 83.566 35.9111 84.4798 35.9364H84.5433C85.1652 36.0253 85.8252 36.203 86.3075 36.9011C86.6122 37.3326 86.8025 37.8657 86.8533 38.4495C86.9168 39.1222 86.8914 39.8203 86.8787 40.4803V41.2038C86.8406 42.8538 86.8279 44.5037 86.8279 46.1538L86.8533 54.9368C86.8533 55.4064 86.866 55.8888 86.8787 56.3711C86.9168 58.0591 86.9548 59.8107 86.6122 61.4607C86.4472 62.2222 86.0664 62.7807 85.4318 63.1741C84.8479 63.5422 84.1879 63.6565 83.5279 63.6565L83.5406 63.6438ZM82.4998 62.5522C83.3502 62.6665 84.2387 62.7299 84.9114 62.3111C85.3048 62.0699 85.5333 61.7399 85.6348 61.2449C85.9648 59.7091 85.9141 58.0211 85.876 56.3964C85.876 55.9014 85.8506 55.4191 85.8506 54.9368L85.8252 46.1411C85.8252 44.4911 85.8379 42.8284 85.8633 41.1784V40.4422C85.9014 39.8076 85.9141 39.1476 85.8633 38.5384C85.8252 38.1322 85.6983 37.7641 85.4952 37.4722C85.2668 37.1549 85.0129 37.028 84.4545 36.9391C83.6168 36.9391 82.7791 36.9645 81.9414 37.0026C81.6114 37.2311 81.3702 37.4468 81.2179 37.7261C81.0783 37.9799 81.0148 38.2591 80.9895 38.7034C80.8625 40.7849 80.9006 43.0695 80.9387 45.278C80.9641 46.3314 80.9768 47.3722 80.9768 48.3749C80.9768 49.5807 80.9641 50.7864 80.9514 52.0049C80.9133 54.5814 80.8879 57.2468 81.0148 59.8234C81.0402 60.3057 81.0656 60.7499 81.2052 61.1307C81.4464 61.8034 81.8145 62.1968 82.5125 62.5268L82.4998 62.5522Z" fill="white"/>
<path d="M102.681 97.6391L102.084 97.5249C99.7361 97.0806 97.3626 96.4841 95.078 95.9002L92.9457 95.3672C92.2095 95.1895 91.4734 95.0118 90.7626 94.8087L90.3945 94.7072L90.4199 30.4333L90.8641 30.3825C91.7653 30.2683 92.6665 30.1541 93.5549 30.0271C95.8776 29.7225 98.2765 29.4052 100.65 29.1894L100.904 29.1641L101.069 29.3418C101.945 30.2937 102.503 31.5375 102.655 32.9464C102.846 34.6091 102.795 36.3733 102.744 38.0741C102.731 38.7721 102.706 39.4575 102.706 40.1302L102.681 53.7364V97.6264V97.6391ZM91.3972 93.9329C91.9811 94.0852 92.5776 94.2376 93.1741 94.3772L95.3191 94.9102C97.4007 95.4306 99.533 95.9764 101.665 96.4079V53.7491L101.678 40.1429C101.678 39.4575 101.703 38.7595 101.716 38.0614C101.767 36.3987 101.805 34.6725 101.627 33.0733C101.5 31.9691 101.107 30.9918 100.46 30.2302C98.2003 30.4333 95.8903 30.7379 93.6691 31.0425C92.9203 31.1441 92.1588 31.2456 91.4099 31.3344L91.3845 93.9456L91.3972 93.9329Z" fill="white"/>
<path d="M96.8044 64.6892C96.1444 64.6892 95.4844 64.5877 94.926 64.3846L94.8117 64.3211C94.101 63.8388 93.4283 63.2423 93.2125 62.1634C92.9459 60.8181 92.9713 59.3458 92.9967 57.9369C92.9967 57.5181 93.0094 57.0992 93.0094 56.6931V41.5004C92.9967 41.1704 92.984 40.8277 92.984 40.4977C92.9713 39.6473 92.9459 38.7588 93.0348 37.9084C93.0983 37.3119 93.276 36.8423 93.5933 36.4234C93.809 36.1315 94.0756 35.9031 94.304 35.7254L94.5198 35.6238C95.7383 35.3573 96.9694 35.37 98.1498 35.3954H98.6321L98.759 35.4842C99.4825 35.9665 100.003 36.4742 100.219 37.4134C100.434 38.3654 100.396 39.5331 100.358 40.5484C100.346 40.9292 100.333 41.2973 100.333 41.64V50.1311V57.7592C100.333 58.14 100.333 58.5208 100.346 58.9015C100.371 59.8408 100.384 60.8054 100.295 61.7319C100.231 62.3919 100.016 63.0138 99.6348 63.5723C99.2667 64.1181 98.6829 64.4608 97.8579 64.6131C97.5279 64.6765 97.1852 64.7019 96.8425 64.7019L96.8044 64.6892ZM95.3194 63.4581C96.0048 63.6865 96.8933 63.75 97.6421 63.6104C98.2006 63.5088 98.5433 63.3185 98.759 63.0138C99.0383 62.5823 99.2033 62.1381 99.254 61.6431C99.3302 60.7673 99.3175 59.8281 99.2921 58.9269C99.2921 58.5334 99.2794 58.14 99.2794 57.7592V50.1311V41.64C99.2794 41.2846 99.2921 40.9038 99.3048 40.5231C99.3429 39.5204 99.381 38.4796 99.1906 37.6546C99.0637 37.0834 98.7717 36.7661 98.2767 36.4234H98.0863C96.944 36.3981 95.8779 36.3854 94.8117 36.6011C94.634 36.7534 94.4817 36.8931 94.3675 37.0454C94.1644 37.3246 94.0502 37.6292 94.0121 38.0354C93.9233 38.8223 93.9486 39.6727 93.9613 40.4977C93.9613 40.8404 93.974 41.1831 93.974 41.5257V56.7058C93.9867 57.1119 93.974 57.5434 93.974 57.975C93.9486 59.3331 93.9233 60.7419 94.1771 61.9858C94.304 62.6458 94.7102 63.0519 95.3067 63.4708L95.3194 63.4581Z" fill="white"/>
<path d="M77.0304 91.9023C77.0304 91.9023 76.9035 91.9023 76.8273 91.8769L76.7004 91.8515C75.1139 91.4581 73.5146 91.1027 71.9154 90.7346C70.9889 90.5315 70.0623 90.3158 69.1358 90.1127L49.78 85.6577C48.3712 85.3404 46.9496 85.0358 45.5281 84.7312C43.3196 84.2615 41.1112 83.7919 38.9154 83.2715L38.5219 83.1827V80.8473C38.4077 62.9511 38.5219 61.1996 38.6362 60.9204L38.7377 60.6919L38.9788 60.6285C39.1185 60.5904 39.2581 60.5523 39.4231 60.565L67.5112 62.6719C68.7042 62.7481 69.91 62.8496 71.1158 62.9511C73.1466 63.1161 75.2408 63.2938 77.2969 63.37H77.7919V84.7946C77.7919 85.0485 77.7919 85.5054 77.8046 86.0638C77.8554 89.1988 77.8681 90.9885 77.7158 91.4708L77.665 91.6612L77.4873 91.7627C77.3096 91.8642 77.1827 91.915 77.0304 91.915V91.9023ZM39.5373 82.3831C41.5935 82.8654 43.6623 83.3096 45.7438 83.7538C47.1654 84.0585 48.5869 84.3631 50.0085 84.6804L69.3642 89.1354C70.2908 89.3512 71.2173 89.5542 72.1312 89.7573C73.6796 90.1 75.2281 90.4427 76.7766 90.8362C76.84 89.8588 76.8019 87.2696 76.7766 86.0765C76.7766 85.5054 76.7639 85.0485 76.7639 84.7946V64.3727C74.8473 64.2965 72.9054 64.1315 71.0269 63.9665C69.8339 63.865 68.6281 63.7635 67.435 63.6873L39.55 61.6058C39.4358 63.7635 39.5119 76.5065 39.5373 80.86V82.3958V82.3831Z" fill="white"/>
<path d="M151.927 129.446C151.115 129.446 150.315 129.408 149.541 129.294C148.323 129.116 147.079 128.672 145.873 128.253C145.442 128.101 145.023 127.948 144.604 127.822L135.757 124.966L101.133 113.492L11.6519 84.4012L11.3472 83.7919C10.0907 81.3042 9.70994 80.2888 9.84956 79.7685L9.95109 79.375L10.7253 79.4004C16.2465 81.0123 21.9453 82.4338 27.4538 83.8173C30.7411 84.6423 34.0284 85.4546 37.2903 86.3177L96.0811 102.043C98.6196 102.729 101.171 103.402 103.722 104.062C107.238 104.975 110.868 105.927 114.422 106.917C114.993 107.07 115.564 107.222 116.148 107.362C116.973 107.565 117.798 107.78 118.61 108.022L118.838 108.098L118.927 108.326C119.867 110.712 121.136 112.21 122.798 112.921C124.093 113.467 125.185 113.263 126.644 112.73L126.771 112.68L126.898 112.705C128.878 113.022 130.236 112.997 131.696 111.931C131.835 111.829 131.975 111.715 132.115 111.601L132.229 111.499L132.94 111.41C133.727 111.322 134.526 111.22 135.3 111.068L135.757 110.979L135.884 111.423C136.43 113.289 137.395 115.903 139.451 117.02C141.215 117.985 146.546 118.556 148.5 117.998C149.478 117.718 150.455 116.97 151.204 115.942L151.407 115.675L151.737 115.751C151.991 115.815 152.308 115.878 152.676 115.942C153.844 116.17 155.303 116.462 155.989 116.855C156.09 116.919 156.205 116.982 156.306 117.058C156.484 117.185 156.712 117.325 156.839 117.35C157.943 117.503 159.39 117.452 160.774 117.401C161.383 117.376 161.98 117.363 162.513 117.35C163.236 117.35 163.972 117.363 164.708 117.388C166.232 117.427 167.805 117.465 169.265 117.312C169.671 117.274 169.925 117.211 170.268 116.995C171.08 116.487 171.473 115.7 171.892 114.723L172.108 114.228L172.59 114.482C172.933 114.66 173.403 114.926 173.923 115.218C175.294 115.98 177.172 117.02 177.972 117.249C179.076 117.553 183.036 117.465 185.397 117.401C186.006 117.388 186.527 117.376 186.907 117.376H187.466C188.278 117.338 189.103 117.325 189.903 117.528C190.943 117.795 192.162 118.569 193.241 119.242C193.622 119.483 193.977 119.711 194.307 119.902C195.386 120.523 196.465 121.158 197.543 121.78C199.727 123.062 201.998 124.382 204.245 125.613L204.981 126.045C206.25 126.781 207.57 127.542 208.789 128.405L210.045 129.307L208.497 129.332C195.893 129.484 183.062 129.433 170.661 129.383H166.117H155.164C154.669 129.383 154.161 129.395 153.641 129.408C153.07 129.421 152.498 129.446 151.927 129.446ZM12.3626 83.5762L101.463 112.527L136.087 124.001L144.934 126.857C145.353 126.997 145.784 127.149 146.228 127.301C147.383 127.707 148.577 128.126 149.706 128.291C150.937 128.469 152.295 128.431 153.615 128.393C154.148 128.38 154.669 128.367 155.177 128.355H166.13H170.674C182.541 128.405 194.789 128.456 206.847 128.317C206.06 127.822 205.26 127.365 204.473 126.908L203.75 126.489C201.503 125.245 199.232 123.925 197.036 122.643C195.957 122.008 194.891 121.387 193.812 120.765C193.469 120.574 193.101 120.333 192.708 120.092C191.692 119.457 190.55 118.734 189.662 118.505C189.014 118.34 188.253 118.353 187.517 118.378H186.933C186.565 118.391 186.044 118.404 185.448 118.417C182.173 118.493 178.873 118.543 177.731 118.226C176.817 117.972 174.951 116.932 173.466 116.107C173.162 115.942 172.882 115.777 172.628 115.637C172.21 116.538 171.727 117.312 170.826 117.871C170.331 118.175 169.925 118.277 169.392 118.328C167.869 118.493 166.257 118.455 164.708 118.417C163.972 118.391 163.262 118.366 162.538 118.378C162.018 118.378 161.434 118.404 160.837 118.429C159.403 118.48 157.918 118.531 156.712 118.366C156.344 118.315 156.027 118.099 155.748 117.909C155.659 117.845 155.57 117.795 155.494 117.744C154.935 117.427 153.527 117.147 152.486 116.944C152.257 116.893 152.042 116.855 151.838 116.817C150.988 117.883 149.897 118.67 148.792 118.988C146.571 119.622 140.974 119.013 138.981 117.934C136.773 116.728 135.681 114.165 135.059 112.172C134.399 112.286 133.727 112.362 133.067 112.438L132.66 112.489C132.546 112.591 132.432 112.68 132.305 112.768C130.427 114.139 128.662 114.038 126.873 113.746C125.603 114.203 124.118 114.596 122.405 113.873C120.527 113.086 119.105 111.474 118.077 108.948C117.353 108.732 116.63 108.555 115.894 108.364C115.31 108.212 114.726 108.072 114.142 107.907C110.588 106.917 106.958 105.965 103.455 105.052C100.904 104.379 98.3531 103.719 95.8019 103.033L37.0111 87.3204C33.7492 86.4573 30.4746 85.6323 27.1873 84.82C21.8438 83.4873 16.3226 82.1038 10.9411 80.5427C11.1442 81.1012 11.5757 82.0404 12.2357 83.3477L12.3499 83.5888L12.3626 83.5762Z" fill="white"/>
<path d="M3.2998 36.6749L3.56633 35.9515C5.00057 32.0803 7.90711 28.8311 11.3213 27.2572C13.5552 26.2291 16.0556 25.7849 18.4798 25.3661C19.0763 25.2645 19.6729 25.163 20.244 25.0488L63.0933 16.9384L118.051 6.67029C121.529 6.03568 125.044 5.36298 128.484 4.6776L130.147 4.33491C132.216 3.91606 134.348 3.47183 136.468 3.16721C138.168 2.92606 139.894 2.76106 141.608 2.6849C143.321 2.60875 145.06 2.63414 146.774 2.73567C159.796 3.6876 171.486 9.76721 180.573 20.3145C180.979 20.7841 181.373 21.2791 181.728 21.7995C182.084 22.3199 182.414 22.8657 182.706 23.4115L183.074 24.1095L182.274 24.1476C180.281 24.2491 178.251 24.2111 176.283 24.1857C175.471 24.173 174.671 24.1603 173.872 24.1603H160.215L143.639 24.1984C142.915 24.1984 142.166 24.1984 141.43 24.2111C139.882 24.2238 138.283 24.2491 136.709 24.173H136.493L136.353 23.9953C134.411 21.698 131.759 20.3526 128.649 20.0861C126.656 19.9211 124.105 20.3653 121.833 20.7588C121.084 20.8857 120.348 21.0126 119.676 21.1141L106.894 22.9291L62.4206 28.9326C54.7671 30.0115 46.974 31.0395 39.2698 31.9534L18.5433 34.6949C17.4136 34.8472 16.284 35.0122 15.1544 35.1772C12.984 35.4945 10.801 35.8118 8.61788 36.0911L7.57711 36.2307C6.4221 36.383 5.22903 36.548 4.03595 36.6115L3.26172 36.6495L3.2998 36.6749ZM143.689 3.66221C143.004 3.66221 142.331 3.6749 141.646 3.70029C139.958 3.77644 138.27 3.92875 136.607 4.1699C134.513 4.47452 132.393 4.90606 130.35 5.32491L128.687 5.6676C125.248 6.35298 121.732 7.02568 118.241 7.67298L63.2837 17.9411L20.4471 26.0515C19.8633 26.1657 19.2667 26.2672 18.6575 26.3688C16.2967 26.7749 13.8725 27.2065 11.7529 28.1838C8.79557 29.5545 6.24441 32.2707 4.82287 35.5707C5.71134 35.4945 6.5998 35.3676 7.47557 35.2534L8.52903 35.1138C10.7121 34.8345 12.8825 34.5172 15.0529 34.1999C16.1825 34.0349 17.3121 33.8699 18.4417 33.7049L39.181 30.9634C46.8852 30.0368 54.6656 29.0215 62.3191 27.9426L106.793 21.9391L119.561 20.1241C120.221 20.0226 120.945 19.8957 121.681 19.7688C124.004 19.3626 126.631 18.9057 128.751 19.0834C132.051 19.3626 134.894 20.7715 137.001 23.1703C138.473 23.2338 139.983 23.2211 141.443 23.1957C142.179 23.1957 142.928 23.183 143.664 23.183L160.24 23.1322H173.897C174.709 23.1449 175.509 23.1576 176.321 23.1703C177.997 23.1957 179.723 23.2338 181.411 23.1703C181.246 22.9038 181.081 22.6372 180.891 22.3707C180.561 21.8884 180.193 21.4188 179.812 20.9745C170.902 10.6303 159.466 4.6776 146.71 3.73837C145.708 3.6749 144.705 3.64952 143.689 3.64952V3.66221Z" fill="white"/>
<path d="M161.649 23.0021C160.228 23.0021 158.794 22.9768 157.398 22.9387C156.293 22.9133 155.202 22.8879 154.11 22.8752C153.222 22.8752 152.308 22.8752 151.394 22.8752C149.554 22.9006 147.65 22.9133 145.809 22.7864H145.606L145.289 22.4437C145.099 22.2533 144.908 22.0502 144.756 21.8471C143.614 20.4764 142.484 19.0675 141.342 17.646C140.288 16.326 139.222 15.006 138.156 13.7114C137.889 13.3814 137.521 12.9879 137.115 12.5437C135.846 11.1602 134.412 9.58637 134.183 8.49483C134.133 8.26637 134.183 8.02522 134.323 7.82214C134.475 7.61906 134.704 7.47945 134.958 7.44137C135.859 7.32714 137.369 7.35252 138.486 7.36522C138.841 7.36522 139.146 7.36522 139.349 7.36522L149.617 7.33983H151.318C152.943 7.35252 154.618 7.36522 156.268 7.28906H156.547L156.712 7.50483C158.007 9.39599 159.339 11.2744 160.672 13.0894C160.951 13.4575 161.358 13.9906 161.827 14.5871C163.528 16.7829 165.876 19.791 166.384 21.1491L166.434 21.2887L166.409 21.4283C166.346 21.7202 166.231 22.3168 165.736 22.6468C165.343 22.9006 164.797 22.9133 164.353 22.926H164.201C163.363 22.9641 162.513 22.9641 161.662 22.9641L161.649 23.0021ZM153.387 21.8598C153.628 21.8598 153.869 21.8598 154.11 21.8598C155.214 21.8598 156.306 21.8979 157.41 21.9233C159.619 21.9741 161.903 22.0248 164.137 21.9487H164.302C164.543 21.9487 165 21.936 165.153 21.8345C165.254 21.771 165.318 21.5679 165.356 21.4156C164.784 20.121 162.525 17.2018 161.002 15.2471C160.52 14.6379 160.114 14.1048 159.834 13.7241C158.553 11.9725 157.271 10.1702 156.027 8.34252C154.44 8.40599 152.854 8.39329 151.305 8.39329H149.617L139.349 8.41868C139.146 8.41868 138.829 8.41868 138.461 8.41868C137.496 8.40599 136.062 8.3806 135.211 8.46945C135.503 9.31983 136.849 10.8048 137.851 11.8964C138.258 12.3406 138.638 12.7594 138.918 13.0894C139.996 14.3968 141.063 15.7168 142.116 17.0368C143.246 18.4456 144.375 19.8545 145.543 21.2506C145.683 21.441 145.848 21.606 146 21.7583L146.051 21.8091C147.802 21.9106 149.604 21.8979 151.369 21.8852C152.041 21.8852 152.714 21.8725 153.374 21.8725L153.387 21.8598Z" fill="white"/>
<path d="M163.287 21.4145C160.685 21.4145 158.07 21.3637 155.468 21.3256C154.034 21.3002 152.612 21.2748 151.178 21.2621C150.924 21.2621 150.544 21.2621 150.112 21.2621C148.462 21.2875 147.053 21.3002 146.482 21.1479C146.317 21.1098 146.05 20.8814 146.025 20.856L145.911 20.691C144.426 18.711 142.839 16.7056 141.24 14.7764C140.77 14.2179 140.275 13.6595 139.793 13.1137C138.854 12.0475 137.889 10.9433 137.014 9.80099L136.379 8.98868H137.407C138.879 8.98868 140.352 8.97599 141.837 8.9633C146.292 8.93791 150.886 8.89983 155.405 9.02676H155.659L155.811 9.24253C157.55 11.7302 159.403 14.2052 161.192 16.5914C162.195 17.9241 163.198 19.2695 164.188 20.6148L164.784 21.4271H163.782C163.617 21.4271 163.464 21.4271 163.299 21.4271L163.287 21.4145ZM151.039 20.2341C151.039 20.2341 151.14 20.2341 151.191 20.2341C152.625 20.2468 154.047 20.2721 155.481 20.2975C157.905 20.3356 160.329 20.3864 162.766 20.3864C161.979 19.3075 161.167 18.2414 160.367 17.1752C158.616 14.8525 156.814 12.441 155.113 10.0168C150.696 9.90253 146.19 9.92791 141.837 9.9533C140.707 9.9533 139.577 9.96599 138.46 9.97868C139.146 10.8164 139.857 11.6287 140.555 12.4283C141.05 12.9868 141.532 13.5452 142.014 14.1164C143.639 16.0583 145.225 18.0764 146.749 20.1071C146.749 20.1198 146.774 20.1452 146.812 20.1706C147.396 20.2848 149.071 20.2468 150.099 20.2341C150.467 20.2341 150.81 20.2341 151.051 20.2341H151.039Z" fill="white"/>
<path d="M158.323 109.578C155.823 109.578 153.284 109.477 150.771 109.02C139.513 107.002 128.268 104.133 117.403 101.354L116.274 101.062C114.382 100.58 112.478 100.135 110.575 99.691C108.29 99.158 105.942 98.6122 103.632 98.003L103.251 97.9014V68.2141C103.251 67.9856 103.251 67.7572 103.226 67.516C103.2 66.9068 103.175 66.2595 103.302 65.6756L103.34 65.5106L103.797 65.1172L104.267 65.1553L113.837 65.866C114.243 65.8914 114.649 65.9168 115.055 65.9422C116.388 66.0183 117.771 66.1072 119.066 66.4245C120.919 66.8814 123.381 68.1633 125.349 69.1914C125.894 69.4706 126.415 69.7499 126.872 69.9783C131.542 72.3137 136.251 74.7633 140.795 77.1241C142.521 78.0253 144.247 78.9264 145.974 79.8149C146.76 80.221 147.636 80.716 148.525 81.2237C150.175 82.1503 151.888 83.1149 153.322 83.6987L153.551 83.7876L153.627 84.016C154.033 85.3107 154.35 86.656 154.655 87.9507C154.769 88.4457 154.884 88.9407 155.01 89.423C155.67 92.1391 156.305 94.7157 158.983 96.0991C159.174 96.2007 159.364 96.2895 159.567 96.3657C159.77 96.4418 159.973 96.518 160.176 96.5814C160.379 96.6449 160.595 96.6957 160.798 96.7337C161.014 96.7718 161.217 96.8099 161.433 96.8226C162.588 96.9241 163.819 96.8987 164.999 96.8734C165.469 96.8734 165.939 96.848 166.395 96.848L175.534 96.8099L198.52 96.848C199.725 96.848 200.944 96.848 202.15 96.848C205.259 96.848 208.483 96.848 211.656 96.9241H212.139V97.4318C212.139 97.9141 212.164 98.498 212.189 99.1199C212.265 101.113 212.354 103.6 211.986 105.098C211.961 105.225 211.923 105.352 211.872 105.479C211.834 105.606 211.783 105.72 211.745 105.847C211.694 105.961 211.644 106.088 211.593 106.215C211.542 106.329 211.479 106.456 211.415 106.57C211.352 106.685 211.288 106.799 211.212 106.9C211.136 107.015 211.06 107.116 210.984 107.218C210.895 107.332 210.819 107.433 210.73 107.535C210.654 107.636 210.565 107.725 210.463 107.827C210.311 107.979 210.146 108.131 209.981 108.271C208.965 108.982 208.039 109.337 206.935 109.439C205.196 109.604 203.076 109.553 201.007 109.502C200.17 109.477 199.345 109.464 198.609 109.464H182.883H164.784C163.755 109.464 162.727 109.49 161.699 109.502C160.582 109.528 159.453 109.54 158.323 109.54V109.578ZM104.279 97.1145C106.45 97.6857 108.671 98.206 110.816 98.701C112.72 99.1453 114.636 99.5895 116.527 100.072L117.657 100.364C128.509 103.131 139.729 105.986 150.962 108.005C154.515 108.639 158.171 108.563 161.687 108.5C162.715 108.474 163.755 108.461 164.796 108.449H182.895H198.634C199.383 108.449 200.208 108.474 201.058 108.487C203.089 108.538 205.183 108.588 206.859 108.423C207.785 108.335 208.547 108.043 209.384 107.459C209.486 107.37 209.625 107.243 209.765 107.103C209.841 107.027 209.917 106.938 209.994 106.862C210.07 106.773 210.133 106.697 210.209 106.608C210.273 106.52 210.336 106.431 210.4 106.342C210.45 106.253 210.514 106.164 210.565 106.063C210.615 105.961 210.666 105.86 210.717 105.771C210.768 105.682 210.806 105.568 210.844 105.479C210.882 105.377 210.92 105.276 210.958 105.174C210.996 105.073 211.022 104.958 211.047 104.857C211.377 103.499 211.288 101.087 211.212 99.158C211.199 98.7264 211.187 98.3076 211.174 97.9268C208.179 97.8507 205.132 97.8507 202.188 97.8634C200.969 97.8634 199.764 97.8634 198.558 97.8634L175.572 97.8253L166.434 97.8634C165.977 97.8634 165.52 97.8633 165.05 97.8887C163.844 97.9141 162.588 97.9395 161.369 97.838C161.115 97.8126 160.874 97.7872 160.633 97.7364C160.392 97.6857 160.151 97.6349 159.922 97.5587C159.681 97.4826 159.453 97.4064 159.224 97.3176C158.996 97.2287 158.767 97.1145 158.552 97.0003C155.467 95.401 154.744 92.4818 154.059 89.6641C153.944 89.1691 153.817 88.6741 153.703 88.1791C153.424 86.9734 153.132 85.7295 152.764 84.5364C151.317 83.9272 149.667 83.0007 148.08 82.0995C147.205 81.6045 146.342 81.1222 145.555 80.716C143.829 79.8149 142.09 78.9264 140.364 78.0253C135.82 75.6645 131.111 73.2149 126.453 70.8795C125.983 70.651 125.463 70.3718 124.904 70.0799C122.975 69.0772 120.589 67.8206 118.85 67.4018C117.644 67.1099 116.312 67.021 115.017 66.9449C114.598 66.9195 114.192 66.8941 113.786 66.8687L104.279 66.1706C104.241 66.5641 104.254 67.021 104.279 67.4653C104.279 67.7191 104.305 67.973 104.305 68.2141V97.1145H104.279Z" fill="white"/>
<path d="M166.028 85.2064C163.261 85.2064 160.456 85.0922 157.702 84.356C154.25 83.4295 150.848 81.551 147.561 79.7233C146.571 79.1776 145.606 78.6445 144.654 78.1368C138.803 75.0399 132.825 71.9683 126.86 68.9729C126.327 68.7064 125.768 68.4272 125.184 68.1225C123.306 67.1452 121.173 66.041 119.384 65.5714C117.873 65.1779 116.198 65.0891 114.573 65.0002C114.028 64.9749 113.482 64.9368 112.949 64.8987C111.946 64.8225 110.943 64.7464 109.928 64.6702C107.885 64.5052 105.841 64.3402 103.785 64.226L103.315 64.2006V63.731C103.176 58.8952 103.214 53.9833 103.252 49.2237C103.277 46.3552 103.29 43.4995 103.277 40.631C103.277 39.9964 103.29 39.2221 103.315 38.3971C103.353 36.3918 103.417 33.9041 103.188 32.4698C102.96 31.0356 102.351 29.7283 101.551 28.9541C101.373 28.7891 101.183 28.6621 100.929 28.5225C99.6727 28.4718 98.3527 28.6621 97.0708 28.8525C96.69 28.9033 96.3092 28.9668 95.9284 29.0048C93.2504 29.3729 90.5342 29.7029 87.8688 30.0075C87.4754 30.0583 86.8788 30.1218 86.1681 30.1852C83.9596 30.4137 80.2661 30.7945 79.3523 31.1625C79.2127 31.2133 78.9715 31.3783 78.6669 31.7845C78.2354 32.3556 77.9815 33.1171 77.8546 34.1706C77.6388 36.0618 77.6896 38.4098 77.7404 40.6818C77.7657 41.6083 77.7784 42.5095 77.7911 43.3471V62.6014L38.5338 59.6695L38.4957 45.416C38.4957 44.7306 38.5211 44.0198 38.5338 43.2964C38.5846 41.4687 38.6353 39.5648 38.3942 37.9148C38.2927 37.2802 38.1277 36.8741 37.8484 36.5821C37.6327 36.3664 37.2646 36.2648 36.668 36.2902C35.9573 36.3156 35.2211 36.4298 34.5103 36.5314C34.0788 36.5948 33.6346 36.671 33.203 36.7091C32.6446 36.7725 32.048 36.8106 31.4515 36.8614C30.2203 36.9502 28.9384 37.0391 27.8469 37.331C27.4153 37.4452 27.1234 37.6102 26.8823 37.8641C26.5269 38.2321 26.2857 38.7779 26.1588 39.5014C25.8923 41.0118 25.943 42.7252 25.9938 44.3752C26.0065 44.9718 26.0319 45.5683 26.0319 46.1395L26.0826 58.8064L2.58918 57.1818L2.61456 46.4187C2.61456 45.8348 2.61456 45.2383 2.60187 44.6545C2.57649 43.2075 2.56379 41.7225 2.66533 40.2629V40.0598C2.74149 39.0952 2.83033 38.1052 3.24918 37.5721L3.35072 37.4452L3.50302 37.3945C4.70879 37.0518 6.06687 36.9248 7.38687 36.7979C7.95803 36.7471 8.52918 36.6964 9.06226 36.6202C11.5373 36.3029 14.025 36.011 16.5 35.7318C19.305 35.4145 22.1988 35.0845 25.0292 34.7037L100.866 24.5118L119.625 21.8718C120.412 21.7575 121.237 21.6052 122.087 21.4529C124.283 21.0468 126.568 20.6152 128.624 20.831C131.81 21.1991 133.726 22.8491 135.935 24.7656L136.023 24.8418C146.38 24.7529 156.915 24.7275 167.335 24.7783L176.715 24.8037C178.822 24.8037 180.992 24.8291 183.099 24.5752L183.455 24.5371L183.62 24.8545L203.331 62.7283L208.56 73.0345C208.827 73.5422 209.144 74.1133 209.461 74.7099C210.324 76.2837 211.302 78.0606 211.797 79.5202C212.203 80.7387 212.139 82.2491 212.088 83.5818C212.076 83.9626 212.05 84.3433 212.05 84.6987V85.2064L169.747 85.181C169.125 85.181 168.516 85.181 167.894 85.181C167.272 85.181 166.637 85.181 166.003 85.181L166.028 85.2064ZM104.318 63.236C106.222 63.3502 108.113 63.5025 110.017 63.6549C111.02 63.731 112.022 63.8199 113.025 63.8833C113.558 63.9214 114.091 63.9468 114.637 63.9849C116.312 64.0737 118.038 64.1625 119.65 64.5814C121.542 65.0764 123.725 66.206 125.654 67.2087C126.225 67.5006 126.783 67.7925 127.304 68.0591C133.269 71.0545 139.26 74.1387 145.111 77.2229C146.076 77.7306 147.053 78.2637 148.043 78.8222C151.28 80.6118 154.618 82.4649 157.956 83.3533C161.205 84.2291 164.454 84.191 167.894 84.1656C168.516 84.1656 169.138 84.1656 169.747 84.1656H180.459L211.048 84.191C211.048 83.9752 211.06 83.7722 211.073 83.5437C211.124 82.2999 211.187 80.891 210.832 79.8502C210.375 78.4795 209.41 76.7406 208.573 75.2049C208.243 74.6083 207.925 74.0372 207.659 73.5041L202.43 63.1979L182.883 25.6287C180.827 25.8445 178.746 25.8318 176.715 25.8191L167.335 25.7937C156.864 25.7429 146.266 25.7683 135.846 25.8571H135.655L135.287 25.5398C133.117 23.6614 131.391 22.1764 128.522 21.8464C126.606 21.656 124.397 22.0621 122.278 22.4556C121.415 22.6206 120.564 22.7729 119.765 22.8871L101.005 25.5271L25.1688 35.7191C22.3257 36.0998 19.4192 36.4298 16.6142 36.7471C14.1392 37.0264 11.6642 37.3183 9.18918 37.6356C8.64341 37.7118 8.05956 37.7625 7.47572 37.8133C6.26995 37.9275 5.03879 38.0418 3.95995 38.321C3.76956 38.7398 3.7061 39.6537 3.68072 40.1106V40.3137C3.56649 41.7352 3.59187 43.2075 3.61725 44.6291C3.61725 45.2256 3.62995 45.8222 3.62995 46.406L3.60456 56.2298L25.0673 57.7148L25.0292 46.1395C25.0292 45.581 25.0165 44.9972 24.9911 44.4006C24.9403 42.6998 24.8896 40.9356 25.1815 39.3237C25.3465 38.3971 25.6638 37.6864 26.1715 37.166C26.5396 36.7852 26.9965 36.5187 27.6057 36.3537C28.7988 36.0364 30.1188 35.9348 31.4007 35.846C31.9846 35.8079 32.5557 35.7698 33.1142 35.7064C33.533 35.6556 33.9519 35.5921 34.3707 35.5287C35.1196 35.4145 35.8811 35.2875 36.6553 35.2748C37.2646 35.2495 38.0515 35.3129 38.5973 35.8841C39.1557 36.4679 39.3334 37.2421 39.4096 37.7625C39.6761 39.5014 39.6127 41.4433 39.5619 43.3218C39.5365 44.0452 39.5238 44.7433 39.5238 45.416L39.5619 58.7175L76.7631 61.4972V43.3345C76.7757 42.5095 76.7631 41.621 76.7377 40.6945C76.6869 38.3971 76.6234 36.011 76.8519 34.0437C76.9915 32.7998 77.3215 31.886 77.8673 31.1625C78.2354 30.6802 78.6034 30.3629 78.9969 30.2106C79.9615 29.8298 82.8934 29.4998 86.0792 29.1698C86.7773 29.0937 87.3738 29.0302 87.7673 28.9921C90.4327 28.6875 93.1361 28.3575 95.8142 27.9895C96.195 27.9387 96.5631 27.8879 96.9438 27.8371C98.3146 27.6341 99.7235 27.431 101.12 27.5071L101.335 27.5706C101.653 27.7356 101.983 27.926 102.275 28.2179C103.227 29.1318 103.95 30.6548 104.204 32.3048C104.445 33.8406 104.394 36.2648 104.343 38.4225C104.331 39.2475 104.305 40.0091 104.305 40.631C104.305 43.4995 104.305 46.3679 104.28 49.2364C104.242 53.831 104.217 58.5779 104.318 63.2487V63.236Z" fill="white"/>
<path d="M21.7159 55.131C20.2563 55.131 18.784 55.0548 17.3497 54.9787C16.7151 54.9406 16.0678 54.9152 15.4332 54.8771C13.8213 54.801 12.1967 54.7629 10.5847 54.7121C9.5059 54.6867 8.41436 54.6486 7.33551 54.6106L7.1832 54.5852C6.67551 54.4075 6.04089 54.1917 5.67282 53.4175C5.08897 52.1863 5.21589 43.3652 5.31743 41.9817C5.3682 41.3852 5.46974 40.8648 5.64743 40.4206C5.8632 39.8875 6.1932 39.659 6.62474 39.4686C8.0082 38.8721 20.5609 37.5394 22.4647 37.6917H22.6424L22.7694 37.8186C23.6197 38.5802 24.0259 39.3925 24.1021 40.4586C24.2163 42.0452 24.1782 43.6952 24.1528 45.2944C24.1401 46.0306 24.1274 46.7667 24.1147 47.4902C24.1147 47.9598 24.1274 48.4802 24.1528 49.0133C24.2036 50.3713 24.2544 51.8944 24.0132 53.1129C23.9371 53.5317 23.7086 53.9633 23.404 54.3186C23.0994 54.6613 22.7694 54.8898 22.5155 55.0548L22.3886 55.131H22.249C22.0713 55.131 21.8936 55.131 21.7159 55.131ZM7.44974 53.6079C8.5032 53.646 9.56936 53.6713 10.6228 53.7094C12.2474 53.7602 13.8594 53.7983 15.484 53.8744C16.1186 53.8998 16.7659 53.9379 17.4132 53.976C18.949 54.0648 20.5482 54.141 22.0967 54.1283C22.3378 53.9633 22.5028 53.8236 22.6551 53.6586C22.8455 53.4302 22.9851 53.1637 23.0359 52.9225C23.2517 51.8183 23.2009 50.4094 23.1628 49.0513C23.1501 48.5056 23.1247 47.9852 23.1247 47.5029C23.1247 46.7794 23.1374 46.0306 23.1628 45.2944C23.2009 43.7206 23.2263 42.096 23.1121 40.5475C23.0613 39.7986 22.7947 39.2656 22.2363 38.7198C20.0913 38.7198 8.23666 39.9129 7.04359 40.4333C6.76436 40.5475 6.6882 40.6236 6.59936 40.8267C6.45974 41.1821 6.37089 41.5883 6.33282 42.096C6.18051 43.949 6.18051 52.161 6.58666 53.0113C6.75166 53.354 6.96743 53.4683 7.43705 53.6333L7.44974 53.6079Z" fill="white"/>
<path d="M65.8356 57.0208C62.6371 57.0208 56.9509 56.7796 50.5413 56.4877C47.8886 56.3608 45.7309 56.2719 44.7917 56.2465C43.8398 56.1831 43.1417 56.0815 42.4436 55.2565C41.9867 54.7108 41.6821 53.9746 41.5679 53.0608C41.4029 51.7915 41.4663 50.4335 41.5298 49.1135C41.5552 48.4788 41.5932 47.8442 41.5932 47.2223L41.5679 40.9015C41.5679 40.1273 41.5425 39.3277 41.644 38.5662C41.7709 37.6269 42.0248 36.2942 42.9513 35.6342C43.3829 35.3296 43.8906 35.1011 44.4363 34.9869C46.8352 34.4792 49.6909 34.2 52.4452 33.9208C53.6509 33.8065 54.8313 33.6796 55.9229 33.5527C56.9256 33.4258 57.9283 33.2988 58.9309 33.1719C60.6444 32.9435 62.3706 32.7277 64.084 32.55L64.7567 32.4738C65.7467 32.3596 66.7621 32.2454 67.7394 32.3215L67.879 32.3596C68.6533 32.6515 69.4402 33.0831 69.8971 34.1238C70.1129 34.6188 70.1636 35.0758 70.189 35.5073C70.316 37.7412 70.2779 40.0385 70.2398 42.2723C70.2271 43.3131 70.2017 44.3412 70.2017 45.3692C70.2017 46.3592 70.2271 47.3619 70.2398 48.3646C70.2779 50.1288 70.316 51.9692 70.2398 53.7335C70.2144 54.3554 70.1002 54.8758 69.9098 55.3454C69.5925 56.1069 69.0848 56.6273 68.4248 56.8558C68.1202 56.9573 67.2063 57.0081 65.8229 57.0081L65.8356 57.0208ZM67.054 33.3242C66.3433 33.3242 65.6071 33.4131 64.8709 33.4892L64.1856 33.5654C62.4721 33.7431 60.7586 33.9588 59.0579 34.1873C58.0552 34.3142 57.0398 34.4538 56.0371 34.5681C54.9456 34.695 53.7525 34.8219 52.5467 34.9362C49.8179 35.2027 46.9875 35.4819 44.6394 35.9769C44.2332 36.0658 43.8525 36.2308 43.5352 36.4465C42.8752 36.9288 42.6975 38.2488 42.6467 38.6804C42.5579 39.3785 42.5706 40.14 42.5833 40.8762L42.6086 47.2096C42.6086 47.8442 42.5832 48.4915 42.5452 49.1388C42.4817 50.4081 42.4309 51.7281 42.5833 52.9085C42.6721 53.6192 42.8879 54.1777 43.2306 54.5712C43.6621 55.0788 44.0175 55.155 44.8552 55.2058C45.769 55.2185 47.9394 55.32 50.6048 55.4469C56.3925 55.7135 67.1683 56.1958 68.1202 55.8912C68.5898 55.7262 68.8563 55.2946 68.996 54.9519C69.1356 54.5965 69.2244 54.1904 69.2498 53.6827C69.3386 51.9438 69.3006 50.1288 69.2498 48.3773C69.2244 47.3619 69.2117 46.3592 69.2117 45.3565C69.2117 44.3285 69.2244 43.2877 69.2498 42.2469C69.2879 40.0385 69.326 37.7538 69.199 35.5581C69.1736 35.2281 69.1356 34.8727 68.9833 34.5173C68.7294 33.9462 68.3486 33.6161 67.5998 33.3115C67.4221 33.3115 67.2571 33.2988 67.0667 33.2988L67.054 33.3242Z" fill="white"/>
<path d="M53.4474 54.0134L53.4093 53.5565C53.3331 52.7696 53.3458 51.9699 53.3712 51.1957V50.4088L53.4601 39.5949V38.7826C53.4601 38.0084 53.4347 37.2088 53.5235 36.4345L53.5489 36.2315L53.7139 36.1045C54.1328 35.7619 54.6531 35.7999 55.0339 35.8126L55.6685 35.838V36.3203C55.7954 41.448 55.7828 46.6772 55.7574 51.7415V54.0388H53.4601L53.4474 54.0134ZM54.5008 36.8153C54.4501 37.4499 54.4628 38.1226 54.4628 38.7699V39.5949L54.3866 51.2084C54.3866 51.8049 54.3612 52.4015 54.3866 52.998H54.7293V51.7034C54.7547 46.8169 54.7674 41.7653 54.6658 36.7899C54.6024 36.7899 54.5516 36.7899 54.5008 36.8026V36.8153Z" fill="white"/>
<path d="M144.782 71.8219C144.566 71.8219 144.338 71.7965 144.122 71.7457C143.792 71.6696 143.475 71.53 143.196 71.4158L143.069 71.3523C138.639 68.9534 134.032 66.6688 129.577 64.4604C128.066 63.7115 126.569 62.9754 125.071 62.2265C124.563 61.9727 123.903 61.6681 123.205 61.3254C121.162 60.3607 118.611 59.155 117.392 58.2411C116.301 57.4161 115.59 56.3881 115.209 55.0807C114.714 53.3927 114.803 47.77 114.866 44.0384C114.879 43.0231 114.892 42.16 114.892 41.5761V34.6588C114.892 34.3034 114.879 33.9354 114.866 33.58C114.866 32.6534 114.841 31.6888 114.904 30.7496C114.955 29.988 115.082 29.0234 115.526 28.2365C116.11 27.2338 117.049 26.5484 118.192 26.2946C118.839 26.155 119.461 26.2184 120.058 26.2819H120.184C120.654 26.3454 121.251 26.3834 121.898 26.4342C123.7 26.5484 125.731 26.6754 126.797 27.2338C127.267 27.475 127.762 27.9192 128.27 28.5538C129.044 29.5057 130.211 32.0823 131.062 33.9607C131.316 34.5319 131.544 35.0396 131.722 35.4077C132.204 36.4104 132.712 37.3877 133.232 38.365C133.638 39.1392 134.045 39.9134 134.425 40.6877C134.87 41.5761 135.288 42.4646 135.707 43.3531C136.19 44.3557 136.659 45.3584 137.154 46.3611L144.846 61.2746C145.201 61.96 145.582 62.6454 145.963 63.3181C146.546 64.3715 147.156 65.4504 147.676 66.5673C148.095 67.4431 148.235 68.2046 148.146 68.9281C148.044 69.7911 147.587 70.5527 146.876 71.0857C146.229 71.5554 145.493 71.8092 144.77 71.8092L144.782 71.8219ZM119.042 27.2338C118.826 27.2338 118.623 27.2465 118.408 27.2973C117.545 27.4877 116.846 27.9954 116.415 28.7569C116.06 29.3661 115.971 30.1784 115.92 30.8257C115.856 31.7269 115.869 32.6661 115.882 33.58C115.882 33.948 115.882 34.3161 115.882 34.6715V41.5888C115.882 42.1727 115.882 43.0484 115.856 44.0638C115.806 47.5034 115.704 53.2657 116.161 54.8015C116.478 55.8931 117.075 56.7561 117.976 57.4288C119.106 58.2792 121.606 59.4596 123.611 60.4115C124.322 60.7542 124.982 61.0588 125.503 61.3254C127 62.0742 128.498 62.8231 130.008 63.5592C134.476 65.7677 139.083 68.0523 143.526 70.4638C143.83 70.6034 144.084 70.705 144.313 70.7558C144.947 70.8954 145.658 70.7177 146.267 70.2734C146.762 69.9181 147.054 69.4104 147.13 68.8138C147.194 68.2808 147.08 67.7096 146.75 66.9988C146.242 65.92 145.645 64.8538 145.074 63.8131C144.693 63.1277 144.3 62.4296 143.945 61.7442L136.253 46.8181C135.745 45.8154 135.263 44.8 134.781 43.7846C134.362 42.8961 133.943 42.0077 133.511 41.1319C133.131 40.3577 132.724 39.5834 132.331 38.8219C131.811 37.8319 131.29 36.8419 130.808 35.8265C130.63 35.4584 130.402 34.938 130.135 34.3669C129.348 32.6407 128.168 30.0261 127.483 29.1884C127.064 28.668 126.658 28.3127 126.315 28.135C125.439 27.678 123.434 27.5511 121.822 27.4496C121.149 27.4115 120.54 27.3607 120.058 27.31H119.943C119.626 27.2592 119.321 27.2338 119.029 27.2338H119.042Z" fill="white"/>
<path d="M162.74 72.9075C161.687 72.9075 160.722 72.8694 160.049 72.7425C159.681 72.679 159.288 72.5648 158.932 72.1967C157.955 71.2321 155.734 66.5106 153.538 61.7636C153.145 60.9132 152.827 60.2279 152.637 59.8217C149.743 53.9198 146.849 47.9163 144.019 41.9636C143.549 40.9863 143.054 40.009 142.559 39.0317C141.811 37.5467 141.024 36.0236 140.338 34.4752C140.11 33.9675 139.843 33.3582 139.856 32.7617C139.856 32.0763 140.249 31.5559 140.605 31.1498L140.757 31.0355C141.316 30.7563 141.963 30.7055 142.521 30.6802C145.593 30.5278 148.829 30.5913 151.952 30.6548C153.31 30.6802 154.668 30.7055 155.988 30.7182H176.816C177.044 30.7055 177.387 30.7055 177.781 30.6928C181.385 30.6167 183.606 30.7055 184.317 31.4417C185.142 32.3048 187.122 36.2394 189.077 40.1867C189.483 41.0117 189.826 41.6971 190.029 42.1032L198.761 59.0348C199.218 59.9232 199.687 60.8117 200.144 61.7002C201.363 64.0229 202.619 66.4344 203.787 68.8459L203.851 68.9856C204.104 69.5059 204.422 70.1532 204.409 70.7625C204.409 71.3082 204.168 71.8032 203.711 72.2348C203.521 72.4125 203.305 72.5648 203.089 72.7044L202.822 72.8186C201.782 72.9456 200.728 72.9202 199.7 72.9075C199.357 72.9075 199.027 72.8948 198.697 72.8948L167.398 72.8567C166.84 72.8567 166.116 72.8694 165.329 72.8948C164.492 72.9202 163.603 72.9456 162.778 72.9456L162.74 72.9075ZM141.29 31.8986C141.036 32.2032 140.871 32.4698 140.859 32.7871C140.859 33.1552 141.074 33.6502 141.252 34.0563C141.937 35.5921 142.699 37.1025 143.448 38.5748C143.943 39.5521 144.451 40.5421 144.92 41.5321C147.751 47.4848 150.644 53.4882 153.538 59.3902C153.741 59.809 154.059 60.5071 154.452 61.3575C155.836 64.3529 158.704 70.5848 159.631 71.4986C159.77 71.6383 159.922 71.7017 160.214 71.7652C161.306 71.9683 163.502 71.9048 165.253 71.8667C166.053 71.8413 166.789 71.8286 167.347 71.8286L198.647 71.8667C198.989 71.8667 199.332 71.8667 199.675 71.8794C200.627 71.9048 201.604 71.9175 202.531 71.8159C202.708 71.7017 202.848 71.6002 202.975 71.4859C203.229 71.2448 203.343 71.0036 203.356 70.7371C203.356 70.369 203.102 69.8232 202.899 69.4171L202.835 69.2775C201.68 66.8786 200.424 64.4798 199.218 62.1571C198.748 61.2686 198.291 60.3802 197.834 59.4917L189.102 42.5602C188.886 42.154 188.556 41.4686 188.137 40.6309C186.817 37.9529 184.342 32.9775 183.556 32.1398C183.022 31.5813 179.075 31.6702 177.781 31.6955C177.374 31.6955 177.044 31.7082 176.791 31.7082H155.962C154.63 31.7082 153.272 31.6828 151.901 31.6575C148.791 31.594 145.58 31.5305 142.547 31.6828C142.128 31.7082 141.646 31.7336 141.277 31.8986H141.29Z" fill="white"/>
<path d="M199.561 68.914H198.787C189.687 68.7617 180.421 68.7998 171.46 68.8251C168.82 68.8251 166.18 68.8505 163.54 68.8505H160.951L150.442 46.8674C149.757 45.4459 149.058 44.0371 148.348 42.6155C147.155 40.2167 145.911 37.729 144.794 35.2413L144.477 34.5305H167.665C168.96 34.5432 170.255 34.5305 171.562 34.5305C174.507 34.5051 177.54 34.4797 180.523 34.5813H180.688C181.056 34.6067 181.551 34.6194 181.906 34.9874C182.465 35.5713 183.48 37.564 184.648 39.9374C184.902 40.4578 185.13 40.9021 185.27 41.194L192.53 55.1175C194.091 58.0875 195.639 61.0575 197.162 64.0528C197.378 64.4844 197.607 64.9159 197.848 65.3348C198.343 66.2613 198.863 67.2132 199.269 68.2032L199.574 68.914H199.561ZM183.417 67.7844C188.278 67.7844 193.164 67.8098 198.013 67.8732C197.683 67.1751 197.315 66.4898 196.947 65.8171C196.718 65.3855 196.477 64.9413 196.261 64.5098C194.738 61.5271 193.19 58.5571 191.629 55.5871L184.369 41.6509C184.216 41.359 183.988 40.9021 183.734 40.369C182.96 38.8078 181.678 36.1932 181.183 35.6855C181.107 35.6094 180.84 35.5967 180.662 35.5967H180.497C177.54 35.4824 174.507 35.5078 171.575 35.5332C170.267 35.5332 168.973 35.5586 167.665 35.5586H146.063C147.091 37.7798 148.195 40.0009 149.274 42.1713C149.985 43.5928 150.683 45.0017 151.368 46.4359L161.611 67.8478H163.566C166.206 67.8351 168.846 67.8225 171.486 67.8098C175.42 67.7971 179.418 67.7844 183.442 67.7844H183.417Z" fill="white"/>
</svg>
