<svg width="169" height="104" viewBox="0 0 169 104" fill="none" xmlns="http://www.w3.org/2000/svg">
<mask id="path-1-inside-1_151_105" fill="white">
<path d="M152.06 87.6972C154.336 87.6356 156.62 87.6428 158.897 87.6442C160.293 87.645 161.795 87.7595 163.173 87.5217C163.38 87.4879 163.585 87.4442 163.788 87.3905C163.992 87.3369 164.191 87.2737 164.388 87.2007C164.585 87.1277 164.778 87.0453 164.967 86.9538C165.156 86.8622 165.341 86.7617 165.52 86.6523C165.604 86.6004 165.688 86.5464 165.77 86.4904C165.852 86.4343 165.932 86.3762 166.011 86.3161C166.09 86.2561 166.168 86.1942 166.244 86.1303C166.32 86.0663 166.394 86.0006 166.467 85.933C166.54 85.8655 166.611 85.7962 166.68 85.7251C166.749 85.654 166.817 85.5812 166.882 85.5067C166.948 85.4324 167.012 85.3563 167.074 85.2787C167.136 85.2011 167.196 85.122 167.254 85.0415C167.312 84.961 167.368 84.879 167.422 84.7956C167.476 84.7123 167.528 84.6277 167.577 84.5418C167.627 84.4558 167.675 84.3687 167.72 84.2805C167.766 84.1923 167.809 84.1029 167.85 84.0125C167.891 83.922 167.93 83.8307 167.966 83.7384C168.003 83.646 168.037 83.5529 168.069 83.4588C168.101 83.3648 168.13 83.2701 168.157 83.1746C168.185 83.0791 168.209 82.983 168.232 82.8863C168.525 81.6143 168.415 80.2027 168.413 78.9037L168.405 74.1702C168.402 70.883 168.552 67.5411 168.401 64.2601C168.366 63.493 168.269 62.7163 168.065 61.9747C167.548 60.0902 166.362 58.2768 165.487 56.5251C163.098 51.7575 160.661 47.0148 158.176 42.2969L149.415 25.465L146.478 19.8547C145.948 18.8499 145.45 17.8023 144.844 16.8424C141.607 11.7122 134.893 6.36012 129.461 3.72081C128.842 3.4233 128.215 3.14383 127.579 2.88241C126.944 2.6211 126.302 2.37816 125.653 2.1536C125.004 1.92915 124.349 1.72351 123.688 1.53668C123.027 1.34975 122.361 1.18201 121.69 1.03348C117.155 0.00396502 112.805 -0.25597 108.179 0.251855C105.724 0.521364 103.335 1.05263 100.915 1.53355L93.2832 2.99811L30.9839 14.8035L17.0586 17.471C14.889 17.893 12.6666 18.2292 10.5206 18.746C9.14564 19.0772 7.77483 19.6781 6.58308 20.4365C3.71338 22.2626 1.60418 25.2348 0.643656 28.4843C0.351537 29.472 0.222803 30.5177 0 31.5241V57.2481L0.0709656 57.262C0.118827 57.8759 0.429097 58.6361 0.769078 59.1416C1.73786 60.5878 3.20671 60.8511 4.78019 61.1762C5.65259 63.2408 6.65157 65.2645 7.4568 67.3551C9.83732 68.2105 12.2731 68.9405 14.6811 69.7166L27.715 73.9474L80.8302 91.2785C89.9754 94.3671 99.1473 97.3746 108.346 100.301C110.085 100.842 111.818 101.401 113.545 101.978C114.661 102.343 115.815 102.799 116.973 102.983C117.763 103.108 118.624 103.042 119.424 103.045L123.856 103.063L158.57 103.105L164.454 103.072C165.455 103.063 166.498 103.115 167.49 103.013C167.848 102.976 168.143 102.924 168.376 102.621C168.608 102.319 168.635 102.009 168.598 101.643C167.594 100.644 164.018 98.7742 162.604 97.967L156.001 94.1289C154.239 93.1099 152.454 92.1448 150.738 91.0479C151.235 89.9532 151.676 88.8363 152.06 87.6972Z"/>
<path d="M138.37 87.7338C137.89 87.7094 137.178 87.6156 136.758 87.877L136.802 88.0122C136.995 88.1888 137.257 88.2627 137.497 88.3568C137.732 88.4436 137.948 88.5808 138.189 88.6555C138.368 88.7112 138.383 88.6925 138.545 88.613C138.581 88.523 138.601 88.4923 138.605 88.3824C138.613 88.1301 138.555 87.8934 138.37 87.7338Z"/>
<path d="M103.062 83.6525C102.645 83.9884 102.179 85.5422 101.889 86.1106C101.724 86.4351 101.519 86.7442 101.313 87.0444L101.365 87.141L101.713 87.1979C101.985 87.074 102.214 86.9257 102.408 86.6957C102.904 86.1045 103.784 84.7769 103.714 83.9851C103.562 83.7657 103.305 83.7276 103.062 83.6525Z"/>
<path d="M96.8597 81.7529L96.7346 81.7615C96.5759 82.0327 96.6107 82.3773 96.6673 82.6816C96.7529 83.1414 96.9655 83.6638 97.3836 83.9182C97.6661 84.0902 97.8673 84.0521 98.1677 83.9691C98.5263 83.4378 98.6072 82.9894 98.679 82.3695C98.0747 82.1578 97.4683 81.9523 96.8597 81.7529Z"/>
<path d="M119.444 87.314C119.35 87.3191 119.369 87.3035 119.291 87.3766C119.028 87.6233 119.05 88.1297 119.024 88.4678C120.071 88.804 121.143 89.0499 122.213 89.3021C122.446 88.8306 122.64 88.3409 122.84 87.8545C121.705 87.7179 120.573 87.5005 119.444 87.314Z"/>
<path d="M110.024 84.8284L109.721 84.8326C109.669 84.8915 109.658 84.8954 109.624 84.9806C109.462 85.3859 109.635 86.1925 109.775 86.5899C109.908 86.9687 110.143 87.3925 110.536 87.5494C110.777 87.6455 110.949 87.5694 111.175 87.4884C111.504 87.2261 111.946 86.6628 112.042 86.242C112.107 85.9553 112.051 85.7069 111.869 85.4759C111.478 84.9784 110.595 84.9299 110.024 84.8284Z"/>
<path d="M116.716 86.4766L116.513 86.456C116.184 86.6276 116.11 87.5816 116.015 87.9503C115.628 89.4572 114.898 90.5222 113.815 91.6153L114.788 91.3544C116.574 90.4405 117.319 88.5449 117.905 86.7407C117.511 86.6433 117.112 86.5638 116.716 86.4766Z"/>
<path d="M94.2677 81.1956C94.0923 81.1675 93.9792 81.1688 93.8058 81.2081C93.6203 81.7343 93.8439 82.4868 93.9868 83.0165C94.3808 84.4756 95.1228 86.4102 96.5288 87.1697C97.0937 87.475 97.758 87.5724 98.3775 87.3832C99.5991 87.0104 100.374 85.7337 100.952 84.6801C101.095 84.3341 101.264 83.9757 101.358 83.6134C101.406 83.4261 101.415 83.2239 101.299 83.0594C101.046 82.6993 100.392 82.6748 99.9876 82.5997C99.8553 83.4233 99.6529 84.3057 99.0761 84.9421C98.7395 85.3138 98.2899 85.5465 97.7831 85.5525C97.2117 85.5592 96.7126 85.2811 96.3258 84.8761C95.3913 83.8983 95.2882 82.6897 95.3218 81.4167L94.2677 81.1956Z"/>
<path d="M107.185 84.0653L107.112 84.0812L107.022 84.2231C107.018 84.5603 107.031 84.8969 107.06 85.233C107.09 85.5689 107.136 85.9025 107.198 86.2339C107.261 86.5654 107.34 86.8929 107.435 87.2164C107.53 87.54 107.641 87.8581 107.768 88.1707C108.242 89.3657 109.063 90.4738 110.293 90.9648C110.957 91.23 111.657 91.2252 112.311 90.927C113.557 90.3579 114.294 89.0954 114.737 87.8627C114.884 87.252 114.977 86.6348 115.074 86.0149C114.466 85.8712 113.849 85.7566 113.237 85.6304C113.179 86.5858 112.964 87.5653 112.302 88.2989C111.973 88.665 111.533 88.9198 111.032 88.9356C110.462 88.9536 109.936 88.6768 109.535 88.2896C108.453 87.2471 108.355 85.8725 108.345 84.4683L107.185 84.0653Z"/>
<path d="M134.595 87.7902C131.323 87.7441 128.052 87.7418 124.78 87.7833C124.405 88.5221 123.611 89.7352 123.726 90.5589C125.263 90.6589 126.843 90.5995 128.386 90.6059C129.926 90.6125 131.513 90.697 133.046 90.5688C133.625 89.7165 134.153 88.721 134.595 87.7902Z"/>
<path d="M149.238 87.7364C146.253 87.6385 143.249 87.6953 140.261 87.6951C140.342 88.3809 140.168 89.8195 140.561 90.3628C140.721 90.5841 140.848 90.5896 141.092 90.661L149.153 90.6559C149.558 89.697 149.971 88.741 150.339 87.7674L149.238 87.7364Z"/>
<path d="M32.59 66.8033L32.5513 66.8449C33.223 66.9838 33.8585 67.208 34.5217 67.3616C38.133 68.1982 41.6926 69.2167 45.2797 70.1513C50.1406 71.4218 54.9859 72.7492 59.8157 74.1332L75.0114 78.2626C80.672 79.8069 86.3588 81.3799 92.0746 82.7053C92.307 82.3914 92.1198 81.6246 92.0756 81.246C91.1004 80.9088 90.0639 80.7286 89.0656 80.4641L82.0762 78.6316C74.4754 76.623 66.8424 74.7447 59.1773 72.9967L42.0405 68.9655C38.9097 68.2269 35.7638 67.3238 32.59 66.8033Z"/>
<path d="M24.3489 29.5793L22.6719 29.7813C22.2448 29.8346 21.5706 29.8666 21.3037 30.2437C21.0344 30.6246 20.9779 31.2081 20.9567 31.6601C20.8367 34.2149 20.9309 36.7984 20.9416 39.356C20.9408 44.057 20.9656 48.7578 21.0162 53.4585C21.0204 54.4225 20.9293 61.789 21.0588 62.1557C21.1443 62.3978 21.2546 62.3881 21.4795 62.4716C22.4278 62.7383 23.3833 62.9758 24.3461 63.184C24.2857 51.9824 24.2866 40.7808 24.3489 29.5793Z"/>
<path d="M23.0227 32.1787C22.7512 32.1744 22.4893 32.1754 22.2229 32.2363C21.9394 32.301 21.6091 32.4213 21.4779 32.7062C21.2871 33.1202 21.2335 45.5858 21.4274 46.2694C21.5962 46.4909 21.7679 46.5675 22.012 46.6813C22.3091 46.6959 22.6314 46.7284 22.9248 46.6737C23.2435 46.6145 23.4132 46.4874 23.5964 46.2252C23.7797 45.013 23.8264 33.0397 23.6175 32.4942C23.4455 32.2959 23.2633 32.2538 23.0227 32.1787Z"/>
<path d="M28.6634 29.1844C27.6804 29.1071 26.6763 29.2816 25.7095 29.4387C25.6235 30.7136 25.6864 32.029 25.6851 33.308L25.678 40.5483L25.6818 63.5541L26.579 63.7723C27.4043 63.9413 28.2273 64.1207 29.0481 64.3106L29.0606 40.5059L29.0836 34.1865C29.0989 32.8634 29.198 31.4834 29.0887 30.1668C29.0534 29.7433 28.9291 29.5103 28.6634 29.1844Z"/>
<path d="M27.87 32.0922C27.5249 32.069 27.1187 32.0127 26.788 32.1449C26.5961 32.2216 26.3926 32.3975 26.3343 32.6029C26.0914 33.4604 26.2629 37.215 26.269 38.3026C26.2833 40.9136 26.2038 43.5573 26.3204 46.1641C26.3305 46.3866 26.3592 46.551 26.4413 46.7563C26.6041 46.9611 26.7784 46.9842 27.0192 47.0434C27.327 47.0773 27.6596 47.1304 27.9675 47.0811C28.2512 47.0355 28.3927 46.919 28.5523 46.6899C28.7612 45.7632 28.8013 32.9098 28.6396 32.5821C28.4826 32.2637 28.1803 32.1972 27.87 32.0922Z"/>
<path d="M2.21493 45.6441L2.11756 45.6568C2.10601 45.6915 2.0928 45.7258 2.0829 45.761C1.97397 46.1316 1.97397 55.934 2.04164 56.9273C2.06639 57.2843 2.0961 57.7047 2.30075 58.0088C2.57142 58.4109 3.02857 58.6767 3.47748 58.8306C3.9754 59.0012 4.50997 59.0595 5.02242 59.1734C5.92452 59.3735 6.81952 59.6185 7.71486 59.8472C11.6478 60.8598 15.5893 61.8385 19.5392 62.7833L19.6769 62.7169C19.8484 61.858 19.7104 59.2007 19.7115 58.191L19.7426 46.9809C16.9298 46.803 14.1241 46.5442 11.3135 46.3396C8.27995 46.1186 5.24125 45.9524 2.21493 45.6441Z"/>
<path d="M121.998 66.5782L121.865 66.5862C121.852 66.6325 121.832 66.6773 121.826 66.7251C121.795 66.9755 123.088 71.7857 123.252 72.2052C123.467 72.756 123.766 73.2638 124.184 73.6855C124.854 74.3612 125.764 74.7683 126.7 74.8969C127.947 75.068 129.32 74.9365 130.583 74.9261C132.699 74.9145 134.815 74.9167 136.931 74.9325L166.05 74.9883L166.25 74.95C166.439 74.6115 166.39 68.5419 166.37 67.7155C158.287 67.5655 150.177 67.6361 142.092 67.6423L132.69 67.6482C130.649 67.65 128.555 67.7452 126.524 67.517C124.976 67.343 123.497 66.9852 121.998 66.5782Z"/>
<path d="M69.839 24.0608C68.569 24.0941 67.2357 24.3996 65.9713 24.5648C65.0431 24.6861 64.0587 24.7018 63.1482 24.9038C62.8638 24.9669 62.4801 25.0527 62.2758 25.2768C61.9341 25.6518 61.8013 26.3461 61.7704 26.8326C61.6772 28.3026 61.7962 29.8441 61.8019 31.3218L61.8137 71.9716C62.3195 72.0581 62.8209 72.1807 63.322 72.2921C65.481 72.798 67.6485 73.2502 69.7915 73.8234C69.927 65.5 69.7778 57.1703 69.8377 48.8457C69.8774 43.5371 69.8875 38.2285 69.8681 32.9201C69.8682 29.976 69.9618 27.0015 69.839 24.0608Z"/>
<path d="M66.185 28.3135C65.4689 28.3092 64.7574 28.3386 64.0423 28.3727C63.7312 28.5835 63.4366 28.8114 63.2544 29.1491C63.0971 29.4408 63.0482 29.7523 63.0275 30.0795C62.8731 32.5089 63.0159 35.269 63.0164 37.7314C63.0171 40.7249 62.8896 43.7842 63.0388 46.7701C63.0582 47.1576 63.0761 47.5503 63.2083 47.9183C63.4526 48.5984 63.8555 48.9777 64.5011 49.2747C65.2387 49.3736 66.0612 49.4466 66.7237 49.0349C67.145 48.773 67.3726 48.4154 67.4729 47.9393C67.8156 46.3148 67.6626 44.5393 67.6565 42.8836L67.6385 35.9589C67.6408 34.6582 67.6511 33.3576 67.6693 32.057C67.6771 31.3584 67.7296 30.6225 67.6639 29.928C67.6297 29.5668 67.5144 29.1989 67.3033 28.8995C67.0166 28.493 66.6578 28.3785 66.185 28.3135Z"/>
<path d="M78.9374 22.9992C76.3683 23.225 73.7991 23.609 71.2395 23.9313L71.22 73.9133C72.0404 74.1466 72.8823 74.3333 73.7103 74.5402C75.8286 75.072 77.9645 75.6343 80.1097 76.0439L80.1043 41.9442L80.1239 31.2221C80.1302 29.3908 80.2876 27.427 80.0835 25.6105C79.9742 24.638 79.6058 23.7208 78.9374 22.9992Z"/>
<path d="M77.1844 27.8858C76.1613 27.8713 75.1523 27.8314 74.1465 28.0545C73.9663 28.2007 73.7968 28.3476 73.6577 28.5351C73.4382 28.8314 73.337 29.1476 73.2984 29.5118C73.2027 30.4151 73.2675 31.3913 73.2664 32.3013L73.2669 37.687L73.2778 44.2656C73.2814 45.6302 73.1647 47.1646 73.4311 48.5015C73.5667 49.182 73.979 49.5745 74.5288 49.9531C75.1615 50.1767 75.9511 50.2262 76.6139 50.107C77.0629 50.0262 77.4917 49.853 77.7535 49.4612C78.0112 49.0754 78.1629 48.6557 78.2055 48.1947C78.2984 47.1872 78.2296 46.1139 78.2288 45.0993L78.2248 39.0854L78.2374 32.396C78.239 31.4004 78.3859 30.1259 78.1644 29.1601C78.0241 28.5485 77.6914 28.2215 77.1844 27.8858Z"/>
<path d="M30.6385 47.7104C30.5614 47.7038 30.4949 47.7305 30.4209 47.7503C30.2458 48.1687 30.3607 63.1136 30.365 64.8236C33.202 65.497 36.0773 66.0687 38.9242 66.7054L54.1725 70.2131C56.1614 70.6752 58.1556 71.0855 60.1367 71.5841C60.3074 71.6107 60.2914 71.6366 60.4516 71.5428C60.6084 71.0228 60.4881 67.2418 60.4886 66.3997L60.4894 49.9198C57.9127 49.8303 55.3404 49.5403 52.7677 49.3674L30.6385 47.7104Z"/>
<path d="M7.93949 62.5412L7.74887 62.5379C7.62905 63.0226 8.79208 65.1998 9.07066 65.771L79.4285 88.6309L106.704 97.6734L113.674 99.9239C114.892 100.318 116.232 100.889 117.495 101.074C118.888 101.279 120.447 101.139 121.861 101.135L130.489 101.125C141.608 101.17 152.746 101.24 163.864 101.1C162.743 100.296 161.519 99.6181 160.328 98.9251C157.696 97.4725 155.104 95.9187 152.498 94.4182C151.531 93.8612 150.172 92.8627 149.131 92.5922C148.418 92.407 147.609 92.48 146.877 92.4872C145.392 92.5019 140.885 92.6975 139.731 92.3725C138.81 92.1134 136.415 90.6886 135.411 90.1628C135.071 90.9459 134.724 91.6688 133.97 92.1337C133.646 92.3332 133.388 92.3966 133.009 92.4369C131.273 92.6222 129.399 92.4651 127.648 92.4717C126.291 92.4767 124.428 92.6463 123.121 92.4621C122.84 92.4223 122.548 92.1588 122.303 92.0185C121.649 91.643 119.88 91.3729 119.062 91.1842C118.495 91.9673 117.658 92.6859 116.719 92.9544C115.09 93.4202 110.805 92.9785 109.286 92.1528C107.611 91.2428 106.796 89.2381 106.287 87.5025C105.518 87.6552 104.733 87.7341 103.955 87.8298C103.841 87.9281 103.724 88.0218 103.604 88.111C102.285 89.075 101.058 89.0405 99.5243 88.7907C98.382 89.2128 97.3806 89.4337 96.2039 88.9366C94.5477 88.2368 93.57 86.7089 92.9379 85.1001C91.8594 84.7665 90.7384 84.5302 89.6493 84.2259C84.848 82.8841 80.0112 81.6828 75.1993 80.3808L28.8796 67.9948C21.9135 66.1547 14.8533 64.56 7.93949 62.5412Z"/>
<path d="M115.231 2.15657C113.888 2.07438 112.545 2.06106 111.201 2.11663C109.857 2.1723 108.519 2.29657 107.188 2.48945C105.087 2.79857 103.003 3.25705 100.921 3.67426C98.1851 4.22131 95.4448 4.74619 92.7003 5.2489L49.3966 13.3378L22.9713 18.3352L15.6421 19.7289C13.339 20.1689 10.8436 20.4502 8.70089 21.4386C5.98187 22.6927 3.83223 25.2896 2.79909 28.0629C3.99216 27.9987 5.19447 27.8076 6.37896 27.6568C8.98988 27.3239 11.5881 26.92 14.1939 26.5528L30.527 24.3898C36.6127 23.6613 42.6901 22.8676 48.759 22.0088L83.7991 17.2776L93.867 15.8472C96.0163 15.529 98.8789 14.8474 101.02 15.0276C103.538 15.2397 105.73 16.3169 107.359 18.2452C109.158 18.3296 110.994 18.2622 112.797 18.2664L125.86 18.2244L136.618 18.2319C138.807 18.2439 141.032 18.3429 143.216 18.23C142.991 17.8069 142.741 17.398 142.469 17.0035C142.196 16.6089 141.902 16.2313 141.586 15.8707C134.749 7.9293 125.737 2.92367 115.231 2.15657Z"/>
<path d="M122.748 5.76648C120.995 5.84966 119.249 5.80609 117.495 5.80543L109.404 5.82672C108.641 5.82969 106.593 5.67835 105.973 5.866C105.749 5.93383 105.688 6.00397 105.57 6.19938L105.715 6.33586L105.612 6.29312C106.315 7.4951 107.83 9.03112 108.765 10.1583C110.527 12.2839 112.217 14.4687 113.983 16.5886C114.133 16.7939 114.338 16.9819 114.514 17.1679C116.659 17.3111 118.879 17.2081 121.031 17.2268C123.666 17.2497 126.321 17.3824 128.953 17.2907C129.242 17.2806 129.712 17.2946 129.956 17.1357C130.188 16.9843 130.267 16.6866 130.317 16.4356C129.824 15.1249 126.853 11.4966 125.87 10.1747C124.807 8.72046 123.767 7.25106 122.748 5.76648Z"/>
<path d="M122.031 7.1066C117.319 6.97424 112.58 7.05973 107.865 7.07393C108.911 8.42626 110.083 9.68418 111.188 10.9891C112.467 12.5258 113.705 14.0941 114.904 15.6942C114.92 15.72 114.932 15.7492 114.953 15.7712C114.957 15.7756 115.102 15.8806 115.115 15.8839C115.708 16.0407 117.983 15.9416 118.723 15.9507C122.026 15.9908 125.334 16.0814 128.637 16.074C126.44 13.0812 124.153 10.1539 122.031 7.1066Z"/>
<path d="M81.7294 51.3425L81.5256 51.3239L81.397 51.4349C81.2692 52.0215 81.3674 52.7412 81.3661 53.3466L81.367 76.4291C84.6669 77.3025 88.0119 77.9999 91.3196 78.843C100.33 81.1398 109.314 83.4545 118.474 85.0994C122.121 85.7541 125.768 85.4762 129.446 85.4638L143.702 85.4713L156.098 85.4587C158.077 85.4637 160.703 85.6206 162.618 85.4379C163.453 85.3584 164.114 85.0871 164.798 84.6106C164.92 84.5058 165.041 84.399 165.153 84.2835C165.22 84.2157 165.284 84.1458 165.346 84.0737C165.408 84.0016 165.468 83.9276 165.525 83.8516C165.582 83.7755 165.636 83.6977 165.688 83.618C165.74 83.5383 165.789 83.4569 165.835 83.3739C165.882 83.291 165.925 83.2065 165.966 83.1206C166.007 83.0348 166.045 82.9477 166.079 82.8592C166.114 82.7707 166.146 82.6812 166.175 82.5907C166.204 82.5001 166.23 82.4087 166.253 82.3164C166.612 80.8371 166.377 77.9861 166.359 76.3732C162.916 76.2712 159.468 76.3207 156.025 76.3118L137.916 76.2852L130.716 76.3127C129.414 76.3197 128.065 76.402 126.769 76.2887C126.588 76.272 126.407 76.2466 126.228 76.2122C126.049 76.178 125.872 76.1351 125.698 76.0835C125.523 76.0319 125.351 75.9718 125.182 75.9033C125.013 75.8349 124.848 75.7583 124.686 75.6737C122.444 74.5161 121.905 72.4262 121.35 70.1548C121.004 68.7403 120.712 67.3044 120.275 65.915C118.502 65.2005 116.231 63.7693 114.451 62.8487C109.44 60.2569 104.445 57.6189 99.3978 55.0983C97.6934 54.247 95.1314 52.7721 93.3275 52.3294C92.0298 52.0109 90.6004 52.0028 89.2725 51.9008L81.7294 51.3425Z"/>
<path d="M100.918 16.4286C98.722 16.2134 96.1157 16.9445 93.9184 17.2526L79.1334 19.3285L19.3854 27.3575C15.2002 27.9198 10.9879 28.3274 6.7979 28.8699C5.42082 29.0483 3.796 29.0802 2.47239 29.4599C2.16376 29.8535 2.13406 30.8581 2.10105 31.3547C1.99047 32.9497 2.06969 34.5831 2.07134 36.1826L2.05154 44.2935L19.7621 45.5177L19.7264 35.9706C19.7226 34.2768 19.5493 32.3404 19.8391 30.6695C19.9339 30.1224 20.1205 29.5824 20.512 29.1744C20.7762 28.8991 21.0944 28.7463 21.4593 28.6481C22.7872 28.2906 24.3665 28.3012 25.7419 28.1454C26.6546 28.0419 27.5833 27.8323 28.5005 27.8039C28.9311 27.7907 29.4148 27.828 29.7309 28.1573C30.0618 28.5017 30.1945 28.9627 30.264 29.4233C30.5441 31.2798 30.35 33.4961 30.3468 35.3939L30.3774 46.2497L60.4896 48.5021L60.5039 33.7595C60.5016 31.5266 60.309 28.6342 60.5577 26.4896C60.6426 25.7586 60.8248 25.0141 61.2753 24.4168C61.4574 24.1754 61.7029 23.9088 61.9899 23.795C62.9843 23.4002 67.4252 23.0267 68.8018 22.8592C70.9194 22.6194 73.0342 22.3565 75.146 22.0705C76.4896 21.8973 77.8941 21.6227 79.2484 21.6863C79.4841 21.8109 79.709 21.9439 79.9028 22.1297C80.678 22.8737 81.1432 24.0731 81.3079 25.1217C81.5644 26.7553 81.3807 29.8669 81.3881 31.6196C81.4144 37.6795 81.2543 43.7515 81.4089 49.8092C83.8187 49.9538 86.222 50.1672 88.6291 50.3466C90.3174 50.4725 92.1319 50.4547 93.7709 50.885C95.6548 51.3798 97.9351 52.7039 99.734 53.5921C104.435 55.9473 109.109 58.3538 113.758 60.8114C116.981 62.5037 120.468 64.7382 123.957 65.6746C127.047 66.5041 130.192 66.3178 133.358 66.3155L141.797 66.3133L166.292 66.3338C166.304 65.1077 166.498 63.5504 166.11 62.3908C165.598 60.8604 164.358 58.8336 163.584 57.3408L159.463 49.228L143.931 19.3854C142.01 19.6153 140.067 19.5681 138.136 19.5594L131.459 19.5394C123.188 19.4998 114.917 19.5168 106.645 19.5904C104.842 18.0364 103.386 16.7163 100.918 16.4286Z"/>
<path d="M17.296 29.6912C15.8795 29.5916 6.04301 30.6154 5.00376 31.0638C4.72401 31.1844 4.55914 31.3056 4.44328 31.5978C4.30316 31.9515 4.23632 32.3333 4.20645 32.7114C4.10512 33.9982 4.05561 40.7149 4.44395 41.5208C4.65239 41.9531 4.96909 42.0851 5.40315 42.234C7.53281 42.3089 9.661 42.3496 11.7908 42.4421C13.569 42.5191 15.3623 42.664 17.1419 42.6388C17.3733 42.4909 17.5774 42.3363 17.7588 42.128C17.9443 41.9148 18.0971 41.6406 18.1518 41.3612C18.4006 40.0853 18.2278 38.338 18.2297 37.0087C18.232 35.1978 18.3521 33.3034 18.2188 31.5006C18.162 30.734 17.8616 30.2005 17.296 29.6912Z"/>
<path d="M52.9449 25.4764C52.0378 25.4012 51.045 25.5588 50.1396 25.6517C47.9926 25.872 45.8535 26.1844 43.7105 26.4429C40.9162 26.7799 37.4005 26.9939 34.697 27.5637C34.3387 27.6391 33.9774 27.7896 33.6794 28.0038C33.0927 28.4258 32.9025 29.3629 32.8161 30.0401C32.7187 30.8011 32.7633 31.6142 32.7631 32.3806L32.7743 36.8144C32.7692 38.2829 32.5682 39.9112 32.7545 41.3565C32.8246 41.9003 32.992 42.4492 33.3518 42.8738C33.8079 43.4125 34.2468 43.4729 34.9079 43.517C37.5015 43.5677 52.2719 44.4128 53.3941 44.0293C53.8465 43.8746 54.15 43.4942 54.3276 43.0651C54.4755 42.7076 54.5372 42.3181 54.5557 41.9334C54.6601 39.7686 54.5269 37.5297 54.5284 35.3575C54.5302 32.7984 54.6641 30.1634 54.5146 27.6123C54.4949 27.2762 54.4528 26.9689 54.315 26.6584C54.0323 26.0217 53.5765 25.72 52.9449 25.4764Z"/>
<path d="M43.0711 28.2082C42.7714 28.198 42.4114 28.145 42.1703 28.3414C42.0832 29.1476 42.1261 29.9827 42.1221 30.794L42.0643 39.3128C42.0592 40.1202 42.0095 40.9545 42.0865 41.7584L43.1262 41.7524C43.1439 37.2428 43.1788 32.7162 43.0711 28.2082Z"/>
<path d="M94.2644 20.7214C93.7801 20.6714 93.302 20.6105 92.8199 20.7158C92.034 20.8875 91.3886 21.359 90.9862 22.0554C90.6817 22.5827 90.5891 23.2571 90.547 23.8587C90.4766 24.8669 90.5231 25.9027 90.5241 26.9137L90.5327 32.3598C90.5358 34.488 90.2861 41.2609 90.7619 42.8844C91.0388 43.8295 91.5515 44.5714 92.34 45.1645C93.5915 46.1059 96.7718 47.4856 98.3357 48.2679C103.072 50.6374 107.871 52.941 112.526 55.4636C112.757 55.5651 113.005 55.683 113.252 55.7368C113.905 55.8795 114.58 55.6808 115.11 55.2918C115.581 54.9457 115.878 54.45 115.951 53.8684C116.024 53.2899 115.859 52.7421 115.616 52.2231C114.954 50.8089 114.117 49.456 113.396 48.0691L107.339 36.3142C106.595 34.8357 105.918 33.325 105.182 31.8427C104.488 30.4442 103.726 29.0778 103.052 27.6702C102.46 26.4357 101.135 23.2804 100.379 22.354C100.102 22.0143 99.7272 21.6217 99.339 21.4182C98.2783 20.8625 95.5928 20.8809 94.2644 20.7214Z"/>
<path d="M138.908 24.1952L122.501 24.2023C119.029 24.1767 115.365 24.0009 111.914 24.1678C111.505 24.1877 111.056 24.2239 110.685 24.4058C110.425 24.6997 110.199 25.0156 110.191 25.425C110.183 25.8101 110.383 26.2563 110.538 26.6061C111.421 28.5971 112.49 30.5289 113.435 32.4933C115.67 37.1973 117.934 41.8875 120.226 46.5641C121.006 48.1828 124.132 55.2456 125.106 56.2108C125.304 56.4062 125.509 56.4775 125.78 56.5272C127.076 56.7653 130.024 56.5712 131.474 56.5851L150.788 56.5991L156.137 56.614C157.196 56.6199 158.289 56.6955 159.341 56.5648C159.506 56.4537 159.679 56.3425 159.824 56.2052C160.074 55.9678 160.241 55.6797 160.246 55.3301C160.253 54.9035 159.979 54.3859 159.795 54.0052C158.537 51.4007 157.169 48.8545 155.842 46.2858L148.963 32.9495C148.218 31.5127 145.378 25.547 144.523 24.6513C143.871 23.9677 140.013 24.1988 138.908 24.1952Z"/>
<path d="M141.819 27.2473C138.459 27.1278 135.067 27.2212 131.703 27.2217L114.057 27.2105C115.452 30.3019 117.031 33.3072 118.503 36.3608L126.677 53.4603L128.467 53.4511C137.719 53.4314 146.988 53.345 156.238 53.49C155.771 52.377 155.142 51.3219 154.592 50.2472C153.391 47.8942 152.174 45.5495 150.94 43.2134L145.218 32.2389C144.711 31.2644 143.204 28.0313 142.635 27.4449C142.437 27.2409 142.087 27.2638 141.819 27.2473Z"/>
</mask>
<path d="M152.06 87.6972C154.336 87.6356 156.62 87.6428 158.897 87.6442C160.293 87.645 161.795 87.7595 163.173 87.5217C163.38 87.4879 163.585 87.4442 163.788 87.3905C163.992 87.3369 164.191 87.2737 164.388 87.2007C164.585 87.1277 164.778 87.0453 164.967 86.9538C165.156 86.8622 165.341 86.7617 165.52 86.6523C165.604 86.6004 165.688 86.5464 165.77 86.4904C165.852 86.4343 165.932 86.3762 166.011 86.3161C166.09 86.2561 166.168 86.1942 166.244 86.1303C166.32 86.0663 166.394 86.0006 166.467 85.933C166.54 85.8655 166.611 85.7962 166.68 85.7251C166.749 85.654 166.817 85.5812 166.882 85.5067C166.948 85.4324 167.012 85.3563 167.074 85.2787C167.136 85.2011 167.196 85.122 167.254 85.0415C167.312 84.961 167.368 84.879 167.422 84.7956C167.476 84.7123 167.528 84.6277 167.577 84.5418C167.627 84.4558 167.675 84.3687 167.72 84.2805C167.766 84.1923 167.809 84.1029 167.85 84.0125C167.891 83.922 167.93 83.8307 167.966 83.7384C168.003 83.646 168.037 83.5529 168.069 83.4588C168.101 83.3648 168.13 83.2701 168.157 83.1746C168.185 83.0791 168.209 82.983 168.232 82.8863C168.525 81.6143 168.415 80.2027 168.413 78.9037L168.405 74.1702C168.402 70.883 168.552 67.5411 168.401 64.2601C168.366 63.493 168.269 62.7163 168.065 61.9747C167.548 60.0902 166.362 58.2768 165.487 56.5251C163.098 51.7575 160.661 47.0148 158.176 42.2969L149.415 25.465L146.478 19.8547C145.948 18.8499 145.45 17.8023 144.844 16.8424C141.607 11.7122 134.893 6.36012 129.461 3.72081C128.842 3.4233 128.215 3.14383 127.579 2.88241C126.944 2.6211 126.302 2.37816 125.653 2.1536C125.004 1.92915 124.349 1.72351 123.688 1.53668C123.027 1.34975 122.361 1.18201 121.69 1.03348C117.155 0.00396502 112.805 -0.25597 108.179 0.251855C105.724 0.521364 103.335 1.05263 100.915 1.53355L93.2832 2.99811L30.9839 14.8035L17.0586 17.471C14.889 17.893 12.6666 18.2292 10.5206 18.746C9.14564 19.0772 7.77483 19.6781 6.58308 20.4365C3.71338 22.2626 1.60418 25.2348 0.643656 28.4843C0.351537 29.472 0.222803 30.5177 0 31.5241V57.2481L0.0709656 57.262C0.118827 57.8759 0.429097 58.6361 0.769078 59.1416C1.73786 60.5878 3.20671 60.8511 4.78019 61.1762C5.65259 63.2408 6.65157 65.2645 7.4568 67.3551C9.83732 68.2105 12.2731 68.9405 14.6811 69.7166L27.715 73.9474L80.8302 91.2785C89.9754 94.3671 99.1473 97.3746 108.346 100.301C110.085 100.842 111.818 101.401 113.545 101.978C114.661 102.343 115.815 102.799 116.973 102.983C117.763 103.108 118.624 103.042 119.424 103.045L123.856 103.063L158.57 103.105L164.454 103.072C165.455 103.063 166.498 103.115 167.49 103.013C167.848 102.976 168.143 102.924 168.376 102.621C168.608 102.319 168.635 102.009 168.598 101.643C167.594 100.644 164.018 98.7742 162.604 97.967L156.001 94.1289C154.239 93.1099 152.454 92.1448 150.738 91.0479C151.235 89.9532 151.676 88.8363 152.06 87.6972Z" fill="black"/>
<path d="M138.37 87.7338C137.89 87.7094 137.178 87.6156 136.758 87.877L136.802 88.0122C136.995 88.1888 137.257 88.2627 137.497 88.3568C137.732 88.4436 137.948 88.5808 138.189 88.6555C138.368 88.7112 138.383 88.6925 138.545 88.613C138.581 88.523 138.601 88.4923 138.605 88.3824C138.613 88.1301 138.555 87.8934 138.37 87.7338Z" fill="white"/>
<path d="M103.062 83.6525C102.645 83.9884 102.179 85.5422 101.889 86.1106C101.724 86.4351 101.519 86.7442 101.313 87.0444L101.365 87.141L101.713 87.1979C101.985 87.074 102.214 86.9257 102.408 86.6957C102.904 86.1045 103.784 84.7769 103.714 83.9851C103.562 83.7657 103.305 83.7276 103.062 83.6525Z" fill="white"/>
<path d="M96.8597 81.7529L96.7346 81.7615C96.5759 82.0327 96.6107 82.3773 96.6673 82.6816C96.7529 83.1414 96.9655 83.6638 97.3836 83.9182C97.6661 84.0902 97.8673 84.0521 98.1677 83.9691C98.5263 83.4378 98.6072 82.9894 98.679 82.3695C98.0747 82.1578 97.4683 81.9523 96.8597 81.7529Z" fill="white"/>
<path d="M119.444 87.314C119.35 87.3191 119.369 87.3035 119.291 87.3766C119.028 87.6233 119.05 88.1297 119.024 88.4678C120.071 88.804 121.143 89.0499 122.213 89.3021C122.446 88.8306 122.64 88.3409 122.84 87.8545C121.705 87.7179 120.573 87.5005 119.444 87.314Z" fill="white"/>
<path d="M110.024 84.8284L109.721 84.8326C109.669 84.8915 109.658 84.8954 109.624 84.9806C109.462 85.3859 109.635 86.1925 109.775 86.5899C109.908 86.9687 110.143 87.3925 110.536 87.5494C110.777 87.6455 110.949 87.5694 111.175 87.4884C111.504 87.2261 111.946 86.6628 112.042 86.242C112.107 85.9553 112.051 85.7069 111.869 85.4759C111.478 84.9784 110.595 84.9299 110.024 84.8284Z" fill="white"/>
<path d="M116.716 86.4766L116.513 86.456C116.184 86.6276 116.11 87.5816 116.015 87.9503C115.628 89.4572 114.898 90.5222 113.815 91.6153L114.788 91.3544C116.574 90.4405 117.319 88.5449 117.905 86.7407C117.511 86.6433 117.112 86.5638 116.716 86.4766Z" fill="white"/>
<path d="M94.2677 81.1956C94.0923 81.1675 93.9792 81.1688 93.8058 81.2081C93.6203 81.7343 93.8439 82.4868 93.9868 83.0165C94.3808 84.4756 95.1228 86.4102 96.5288 87.1697C97.0937 87.475 97.758 87.5724 98.3775 87.3832C99.5991 87.0104 100.374 85.7337 100.952 84.6801C101.095 84.3341 101.264 83.9757 101.358 83.6134C101.406 83.4261 101.415 83.2239 101.299 83.0594C101.046 82.6993 100.392 82.6748 99.9876 82.5997C99.8553 83.4233 99.6529 84.3057 99.0761 84.9421C98.7395 85.3138 98.2899 85.5465 97.7831 85.5525C97.2117 85.5592 96.7126 85.2811 96.3258 84.8761C95.3913 83.8983 95.2882 82.6897 95.3218 81.4167L94.2677 81.1956Z" fill="white"/>
<path d="M107.185 84.0653L107.112 84.0812L107.022 84.2231C107.018 84.5603 107.031 84.8969 107.06 85.233C107.09 85.5689 107.136 85.9025 107.198 86.2339C107.261 86.5654 107.34 86.8929 107.435 87.2164C107.53 87.54 107.641 87.8581 107.768 88.1707C108.242 89.3657 109.063 90.4738 110.293 90.9648C110.957 91.23 111.657 91.2252 112.311 90.927C113.557 90.3579 114.294 89.0954 114.737 87.8627C114.884 87.252 114.977 86.6348 115.074 86.0149C114.466 85.8712 113.849 85.7566 113.237 85.6304C113.179 86.5858 112.964 87.5653 112.302 88.2989C111.973 88.665 111.533 88.9198 111.032 88.9356C110.462 88.9536 109.936 88.6768 109.535 88.2896C108.453 87.2471 108.355 85.8725 108.345 84.4683L107.185 84.0653Z" fill="white"/>
<path d="M134.595 87.7902C131.323 87.7441 128.052 87.7418 124.78 87.7833C124.405 88.5221 123.611 89.7352 123.726 90.5589C125.263 90.6589 126.843 90.5995 128.386 90.6059C129.926 90.6125 131.513 90.697 133.046 90.5688C133.625 89.7165 134.153 88.721 134.595 87.7902Z" fill="white"/>
<path d="M149.238 87.7364C146.253 87.6385 143.249 87.6953 140.261 87.6951C140.342 88.3809 140.168 89.8195 140.561 90.3628C140.721 90.5841 140.848 90.5896 141.092 90.661L149.153 90.6559C149.558 89.697 149.971 88.741 150.339 87.7674L149.238 87.7364Z" fill="white"/>
<path d="M32.59 66.8033L32.5513 66.8449C33.223 66.9838 33.8585 67.208 34.5217 67.3616C38.133 68.1982 41.6926 69.2167 45.2797 70.1513C50.1406 71.4218 54.9859 72.7492 59.8157 74.1332L75.0114 78.2626C80.672 79.8069 86.3588 81.3799 92.0746 82.7053C92.307 82.3914 92.1198 81.6246 92.0756 81.246C91.1004 80.9088 90.0639 80.7286 89.0656 80.4641L82.0762 78.6316C74.4754 76.623 66.8424 74.7447 59.1773 72.9967L42.0405 68.9655C38.9097 68.2269 35.7638 67.3238 32.59 66.8033Z" fill="white"/>
<path d="M24.3489 29.5793L22.6719 29.7813C22.2448 29.8346 21.5706 29.8666 21.3037 30.2437C21.0344 30.6246 20.9779 31.2081 20.9567 31.6601C20.8367 34.2149 20.9309 36.7984 20.9416 39.356C20.9408 44.057 20.9656 48.7578 21.0162 53.4585C21.0204 54.4225 20.9293 61.789 21.0588 62.1557C21.1443 62.3978 21.2546 62.3881 21.4795 62.4716C22.4278 62.7383 23.3833 62.9758 24.3461 63.184C24.2857 51.9824 24.2866 40.7808 24.3489 29.5793Z" fill="white"/>
<path d="M28.6634 29.1844C27.6804 29.1071 26.6763 29.2816 25.7095 29.4387C25.6235 30.7136 25.6864 32.029 25.6851 33.308L25.678 40.5483L25.6818 63.5541L26.579 63.7723C27.4043 63.9413 28.2273 64.1207 29.0481 64.3106L29.0606 40.5059L29.0836 34.1865C29.0989 32.8634 29.198 31.4834 29.0887 30.1668C29.0534 29.7433 28.9291 29.5103 28.6634 29.1844Z" fill="white"/>
<path d="M2.21493 45.6441L2.11756 45.6568C2.10601 45.6915 2.0928 45.7258 2.0829 45.761C1.97397 46.1316 1.97397 55.934 2.04164 56.9273C2.06639 57.2843 2.0961 57.7047 2.30075 58.0088C2.57142 58.4109 3.02857 58.6767 3.47748 58.8306C3.9754 59.0012 4.50997 59.0595 5.02242 59.1734C5.92452 59.3735 6.81952 59.6185 7.71486 59.8472C11.6478 60.8598 15.5893 61.8385 19.5392 62.7833L19.6769 62.7169C19.8484 61.858 19.7104 59.2007 19.7115 58.191L19.7426 46.9809C16.9298 46.803 14.1241 46.5442 11.3135 46.3396C8.27995 46.1186 5.24125 45.9524 2.21493 45.6441Z" fill="white"/>
<path d="M121.998 66.5782L121.865 66.5862C121.852 66.6325 121.832 66.6773 121.826 66.7251C121.795 66.9755 123.088 71.7857 123.252 72.2052C123.467 72.756 123.766 73.2638 124.184 73.6855C124.854 74.3612 125.764 74.7683 126.7 74.8969C127.947 75.068 129.32 74.9365 130.583 74.9261C132.699 74.9145 134.815 74.9167 136.931 74.9325L166.05 74.9883L166.25 74.95C166.439 74.6115 166.39 68.5419 166.37 67.7155C158.287 67.5655 150.177 67.6361 142.092 67.6423L132.69 67.6482C130.649 67.65 128.555 67.7452 126.524 67.517C124.976 67.343 123.497 66.9852 121.998 66.5782Z" fill="white"/>
<path d="M69.839 24.0608C68.569 24.0941 67.2357 24.3996 65.9713 24.5648C65.0431 24.6861 64.0587 24.7018 63.1482 24.9038C62.8638 24.9669 62.4801 25.0527 62.2758 25.2768C61.9341 25.6518 61.8013 26.3461 61.7704 26.8326C61.6772 28.3026 61.7962 29.8441 61.8019 31.3218L61.8137 71.9716C62.3195 72.0581 62.8209 72.1807 63.322 72.2921C65.481 72.798 67.6485 73.2502 69.7915 73.8234C69.927 65.5 69.7778 57.1703 69.8377 48.8457C69.8774 43.5371 69.8875 38.2285 69.8681 32.9201C69.8682 29.976 69.9618 27.0015 69.839 24.0608Z" fill="white"/>
<path d="M78.9374 22.9992C76.3683 23.225 73.7991 23.609 71.2395 23.9313L71.22 73.9133C72.0404 74.1466 72.8823 74.3333 73.7103 74.5402C75.8286 75.072 77.9645 75.6343 80.1097 76.0439L80.1043 41.9442L80.1239 31.2221C80.1302 29.3908 80.2876 27.427 80.0835 25.6105C79.9742 24.638 79.6058 23.7208 78.9374 22.9992Z" fill="white"/>
<path d="M30.6385 47.7104C30.5614 47.7038 30.4949 47.7305 30.4209 47.7503C30.2458 48.1687 30.3607 63.1136 30.365 64.8236C33.202 65.497 36.0773 66.0687 38.9242 66.7054L54.1725 70.2131C56.1614 70.6752 58.1556 71.0855 60.1367 71.5841C60.3074 71.6107 60.2914 71.6366 60.4516 71.5428C60.6084 71.0228 60.4881 67.2418 60.4886 66.3997L60.4894 49.9198C57.9127 49.8303 55.3404 49.5403 52.7677 49.3674L30.6385 47.7104Z" fill="white"/>
<path d="M7.93949 62.5412L7.74887 62.5379C7.62905 63.0226 8.79208 65.1998 9.07066 65.771L79.4285 88.6309L106.704 97.6734L113.674 99.9239C114.892 100.318 116.232 100.889 117.495 101.074C118.888 101.279 120.447 101.139 121.861 101.135L130.489 101.125C141.608 101.17 152.746 101.24 163.864 101.1C162.743 100.296 161.519 99.6181 160.328 98.9251C157.696 97.4725 155.104 95.9187 152.498 94.4182C151.531 93.8612 150.172 92.8627 149.131 92.5922C148.418 92.407 147.609 92.48 146.877 92.4872C145.392 92.5019 140.885 92.6975 139.731 92.3725C138.81 92.1134 136.415 90.6886 135.411 90.1628C135.071 90.9459 134.724 91.6688 133.97 92.1337C133.646 92.3332 133.388 92.3966 133.009 92.4369C131.273 92.6222 129.399 92.4651 127.648 92.4717C126.291 92.4767 124.428 92.6463 123.121 92.4621C122.84 92.4223 122.548 92.1588 122.303 92.0185C121.649 91.643 119.88 91.3729 119.062 91.1842C118.495 91.9673 117.658 92.6859 116.719 92.9544C115.09 93.4202 110.805 92.9785 109.286 92.1528C107.611 91.2428 106.796 89.2381 106.287 87.5025C105.518 87.6552 104.733 87.7341 103.955 87.8298C103.841 87.9281 103.724 88.0218 103.604 88.111C102.285 89.075 101.058 89.0405 99.5243 88.7907C98.382 89.2128 97.3806 89.4337 96.2039 88.9366C94.5477 88.2368 93.57 86.7089 92.9379 85.1001C91.8594 84.7665 90.7384 84.5302 89.6493 84.2259C84.848 82.8841 80.0112 81.6828 75.1993 80.3808L28.8796 67.9948C21.9135 66.1547 14.8533 64.56 7.93949 62.5412Z" fill="white"/>
<path d="M115.231 2.15657C113.888 2.07438 112.545 2.06106 111.201 2.11663C109.857 2.1723 108.519 2.29657 107.188 2.48945C105.087 2.79857 103.003 3.25705 100.921 3.67426C98.1851 4.22131 95.4448 4.74619 92.7003 5.2489L49.3966 13.3378L22.9713 18.3352L15.6421 19.7289C13.339 20.1689 10.8436 20.4502 8.70089 21.4386C5.98187 22.6927 3.83223 25.2896 2.79909 28.0629C3.99216 27.9987 5.19447 27.8076 6.37896 27.6568C8.98988 27.3239 11.5881 26.92 14.1939 26.5528L30.527 24.3898C36.6127 23.6613 42.6901 22.8676 48.759 22.0088L83.7991 17.2776L93.867 15.8472C96.0163 15.529 98.8789 14.8474 101.02 15.0276C103.538 15.2397 105.73 16.3169 107.359 18.2452C109.158 18.3296 110.994 18.2622 112.797 18.2664L125.86 18.2244L136.618 18.2319C138.807 18.2439 141.032 18.3429 143.216 18.23C142.991 17.8069 142.741 17.398 142.469 17.0035C142.196 16.6089 141.902 16.2313 141.586 15.8707C134.749 7.9293 125.737 2.92367 115.231 2.15657Z" fill="white"/>
<path d="M122.748 5.76648C120.995 5.84966 119.249 5.80609 117.495 5.80543L109.404 5.82672C108.641 5.82969 106.593 5.67835 105.973 5.866C105.749 5.93383 105.688 6.00397 105.57 6.19938L105.715 6.33586L105.612 6.29312C106.315 7.4951 107.83 9.03112 108.765 10.1583C110.527 12.2839 112.217 14.4687 113.983 16.5886C114.133 16.7939 114.338 16.9819 114.514 17.1679C116.659 17.3111 118.879 17.2081 121.031 17.2268C123.666 17.2497 126.321 17.3824 128.953 17.2907C129.242 17.2806 129.712 17.2946 129.956 17.1357C130.188 16.9843 130.267 16.6866 130.317 16.4356C129.824 15.1249 126.853 11.4966 125.87 10.1747C124.807 8.72046 123.767 7.25106 122.748 5.76648Z" fill="black"/>
<path d="M122.031 7.1066C117.319 6.97424 112.58 7.05973 107.865 7.07393C108.911 8.42626 110.083 9.68418 111.188 10.9891C112.467 12.5258 113.705 14.0941 114.904 15.6942C114.92 15.72 114.932 15.7492 114.953 15.7712C114.957 15.7756 115.102 15.8806 115.115 15.8839C115.708 16.0407 117.983 15.9416 118.723 15.9507C122.026 15.9908 125.334 16.0814 128.637 16.074C126.44 13.0812 124.153 10.1539 122.031 7.1066Z" fill="white"/>
<path d="M81.7294 51.3425L81.5256 51.3239L81.397 51.4349C81.2692 52.0215 81.3674 52.7412 81.3661 53.3466L81.367 76.4291C84.6669 77.3025 88.0119 77.9999 91.3196 78.843C100.33 81.1398 109.314 83.4545 118.474 85.0994C122.121 85.7541 125.768 85.4762 129.446 85.4638L143.702 85.4713L156.098 85.4587C158.077 85.4637 160.703 85.6206 162.618 85.4379C163.453 85.3584 164.114 85.0871 164.798 84.6106C164.92 84.5058 165.041 84.399 165.153 84.2835C165.22 84.2157 165.284 84.1458 165.346 84.0737C165.408 84.0016 165.468 83.9276 165.525 83.8516C165.582 83.7755 165.636 83.6977 165.688 83.618C165.74 83.5383 165.789 83.4569 165.835 83.3739C165.882 83.291 165.925 83.2065 165.966 83.1206C166.007 83.0348 166.045 82.9477 166.079 82.8592C166.114 82.7707 166.146 82.6812 166.175 82.5907C166.204 82.5001 166.23 82.4087 166.253 82.3164C166.612 80.8371 166.377 77.9861 166.359 76.3732C162.916 76.2712 159.468 76.3207 156.025 76.3118L137.916 76.2852L130.716 76.3127C129.414 76.3197 128.065 76.402 126.769 76.2887C126.588 76.272 126.407 76.2466 126.228 76.2122C126.049 76.178 125.872 76.1351 125.698 76.0835C125.523 76.0319 125.351 75.9718 125.182 75.9033C125.013 75.8349 124.848 75.7583 124.686 75.6737C122.444 74.5161 121.905 72.4262 121.35 70.1548C121.004 68.7403 120.712 67.3044 120.275 65.915C118.502 65.2005 116.231 63.7693 114.451 62.8487C109.44 60.2569 104.445 57.6189 99.3978 55.0983C97.6934 54.247 95.1314 52.7721 93.3275 52.3294C92.0298 52.0109 90.6004 52.0028 89.2725 51.9008L81.7294 51.3425Z" fill="white"/>
<path d="M100.918 16.4286C98.722 16.2134 96.1157 16.9445 93.9184 17.2526L79.1334 19.3285L19.3854 27.3575C15.2002 27.9198 10.9879 28.3274 6.7979 28.8699C5.42082 29.0483 3.796 29.0802 2.47239 29.4599C2.16376 29.8535 2.13406 30.8581 2.10105 31.3547C1.99047 32.9497 2.06969 34.5831 2.07134 36.1826L2.05154 44.2935L19.7621 45.5177L19.7264 35.9706C19.7226 34.2768 19.5493 32.3404 19.8391 30.6695C19.9339 30.1224 20.1205 29.5824 20.512 29.1744C20.7762 28.8991 21.0944 28.7463 21.4593 28.6481C22.7872 28.2906 24.3665 28.3012 25.7419 28.1454C26.6546 28.0419 27.5833 27.8323 28.5005 27.8039C28.9311 27.7907 29.4148 27.828 29.7309 28.1573C30.0618 28.5017 30.1945 28.9627 30.264 29.4233C30.5441 31.2798 30.35 33.4961 30.3468 35.3939L30.3774 46.2497L60.4896 48.5021L60.5039 33.7595C60.5016 31.5266 60.309 28.6342 60.5577 26.4896C60.6426 25.7586 60.8248 25.0141 61.2753 24.4168C61.4574 24.1754 61.7029 23.9088 61.9899 23.795C62.9843 23.4002 67.4252 23.0267 68.8018 22.8592C70.9194 22.6194 73.0342 22.3565 75.146 22.0705C76.4896 21.8973 77.8941 21.6227 79.2484 21.6863C79.4841 21.8109 79.709 21.9439 79.9028 22.1297C80.678 22.8737 81.1432 24.0731 81.3079 25.1217C81.5644 26.7553 81.3807 29.8669 81.3881 31.6196C81.4144 37.6795 81.2543 43.7515 81.4089 49.8092C83.8187 49.9538 86.222 50.1672 88.6291 50.3466C90.3174 50.4725 92.1319 50.4547 93.7709 50.885C95.6548 51.3798 97.9351 52.7039 99.734 53.5921C104.435 55.9473 109.109 58.3538 113.758 60.8114C116.981 62.5037 120.468 64.7382 123.957 65.6746C127.047 66.5041 130.192 66.3178 133.358 66.3155L141.797 66.3133L166.292 66.3338C166.304 65.1077 166.498 63.5504 166.11 62.3908C165.598 60.8604 164.358 58.8336 163.584 57.3408L159.463 49.228L143.931 19.3854C142.01 19.6153 140.067 19.5681 138.136 19.5594L131.459 19.5394C123.188 19.4998 114.917 19.5168 106.645 19.5904C104.842 18.0364 103.386 16.7163 100.918 16.4286Z" fill="white"/>
<path d="M43.0711 28.2082C42.7714 28.198 42.4114 28.145 42.1703 28.3414C42.0832 29.1476 42.1261 29.9827 42.1221 30.794L42.0643 39.3128C42.0592 40.1202 42.0095 40.9545 42.0865 41.7584L43.1262 41.7524C43.1439 37.2428 43.1788 32.7162 43.0711 28.2082Z" fill="white"/>
<path d="M138.908 24.1952L122.501 24.2023C119.029 24.1767 115.365 24.0009 111.914 24.1678C111.505 24.1877 111.056 24.2239 110.685 24.4058C110.425 24.6997 110.199 25.0156 110.191 25.425C110.183 25.8101 110.383 26.2563 110.538 26.6061C111.421 28.5971 112.49 30.5289 113.435 32.4933C115.67 37.1973 117.934 41.8875 120.226 46.5641C121.006 48.1828 124.132 55.2456 125.106 56.2108C125.304 56.4062 125.509 56.4775 125.78 56.5272C127.076 56.7653 130.024 56.5712 131.474 56.5851L150.788 56.5991L156.137 56.614C157.196 56.6199 158.289 56.6955 159.341 56.5648C159.506 56.4537 159.679 56.3425 159.824 56.2052C160.074 55.9678 160.241 55.6797 160.246 55.3301C160.253 54.9035 159.979 54.3859 159.795 54.0052C158.537 51.4007 157.169 48.8545 155.842 46.2858L148.963 32.9495C148.218 31.5127 145.378 25.547 144.523 24.6513C143.871 23.9677 140.013 24.1988 138.908 24.1952Z" fill="black"/>
<path d="M141.819 27.2473C138.459 27.1278 135.067 27.2212 131.703 27.2217L114.057 27.2105C115.452 30.3019 117.031 33.3072 118.503 36.3608L126.677 53.4603L128.467 53.4511C137.719 53.4314 146.988 53.345 156.238 53.49C155.771 52.377 155.142 51.3219 154.592 50.2472C153.391 47.8942 152.174 45.5495 150.94 43.2134L145.218 32.2389C144.711 31.2644 143.204 28.0313 142.635 27.4449C142.437 27.2409 142.087 27.2638 141.819 27.2473Z" fill="white"/>
<path d="M152.06 87.6972C154.336 87.6356 156.62 87.6428 158.897 87.6442C160.293 87.645 161.795 87.7595 163.173 87.5217C163.38 87.4879 163.585 87.4442 163.788 87.3905C163.992 87.3369 164.191 87.2737 164.388 87.2007C164.585 87.1277 164.778 87.0453 164.967 86.9538C165.156 86.8622 165.341 86.7617 165.52 86.6523C165.604 86.6004 165.688 86.5464 165.77 86.4904C165.852 86.4343 165.932 86.3762 166.011 86.3161C166.09 86.2561 166.168 86.1942 166.244 86.1303C166.32 86.0663 166.394 86.0006 166.467 85.933C166.54 85.8655 166.611 85.7962 166.68 85.7251C166.749 85.654 166.817 85.5812 166.882 85.5067C166.948 85.4324 167.012 85.3563 167.074 85.2787C167.136 85.2011 167.196 85.122 167.254 85.0415C167.312 84.961 167.368 84.879 167.422 84.7956C167.476 84.7123 167.528 84.6277 167.577 84.5418C167.627 84.4558 167.675 84.3687 167.72 84.2805C167.766 84.1923 167.809 84.1029 167.85 84.0125C167.891 83.922 167.93 83.8307 167.966 83.7384C168.003 83.646 168.037 83.5529 168.069 83.4588C168.101 83.3648 168.13 83.2701 168.157 83.1746C168.185 83.0791 168.209 82.983 168.232 82.8863C168.525 81.6143 168.415 80.2027 168.413 78.9037L168.405 74.1702C168.402 70.883 168.552 67.5411 168.401 64.2601C168.366 63.493 168.269 62.7163 168.065 61.9747C167.548 60.0902 166.362 58.2768 165.487 56.5251C163.098 51.7575 160.661 47.0148 158.176 42.2969L149.415 25.465L146.478 19.8547C145.948 18.8499 145.45 17.8023 144.844 16.8424C141.607 11.7122 134.893 6.36012 129.461 3.72081C128.842 3.4233 128.215 3.14383 127.579 2.88241C126.944 2.6211 126.302 2.37816 125.653 2.1536C125.004 1.92915 124.349 1.72351 123.688 1.53668C123.027 1.34975 122.361 1.18201 121.69 1.03348C117.155 0.00396502 112.805 -0.25597 108.179 0.251855C105.724 0.521364 103.335 1.05263 100.915 1.53355L93.2832 2.99811L30.9839 14.8035L17.0586 17.471C14.889 17.893 12.6666 18.2292 10.5206 18.746C9.14564 19.0772 7.77483 19.6781 6.58308 20.4365C3.71338 22.2626 1.60418 25.2348 0.643656 28.4843C0.351537 29.472 0.222803 30.5177 0 31.5241V57.2481L0.0709656 57.262C0.118827 57.8759 0.429097 58.6361 0.769078 59.1416C1.73786 60.5878 3.20671 60.8511 4.78019 61.1762C5.65259 63.2408 6.65157 65.2645 7.4568 67.3551C9.83732 68.2105 12.2731 68.9405 14.6811 69.7166L27.715 73.9474L80.8302 91.2785C89.9754 94.3671 99.1473 97.3746 108.346 100.301C110.085 100.842 111.818 101.401 113.545 101.978C114.661 102.343 115.815 102.799 116.973 102.983C117.763 103.108 118.624 103.042 119.424 103.045L123.856 103.063L158.57 103.105L164.454 103.072C165.455 103.063 166.498 103.115 167.49 103.013C167.848 102.976 168.143 102.924 168.376 102.621C168.608 102.319 168.635 102.009 168.598 101.643C167.594 100.644 164.018 98.7742 162.604 97.967L156.001 94.1289C154.239 93.1099 152.454 92.1448 150.738 91.0479C151.235 89.9532 151.676 88.8363 152.06 87.6972Z" stroke="black" stroke-width="0.693234" mask="url(#path-1-inside-1_151_105)"/>
<path d="M138.37 87.7338C137.89 87.7094 137.178 87.6156 136.758 87.877L136.802 88.0122C136.995 88.1888 137.257 88.2627 137.497 88.3568C137.732 88.4436 137.948 88.5808 138.189 88.6555C138.368 88.7112 138.383 88.6925 138.545 88.613C138.581 88.523 138.601 88.4923 138.605 88.3824C138.613 88.1301 138.555 87.8934 138.37 87.7338Z" stroke="black" stroke-width="0.693234" mask="url(#path-1-inside-1_151_105)"/>
<path d="M103.062 83.6525C102.645 83.9884 102.179 85.5422 101.889 86.1106C101.724 86.4351 101.519 86.7442 101.313 87.0444L101.365 87.141L101.713 87.1979C101.985 87.074 102.214 86.9257 102.408 86.6957C102.904 86.1045 103.784 84.7769 103.714 83.9851C103.562 83.7657 103.305 83.7276 103.062 83.6525Z" stroke="black" stroke-width="0.693234" mask="url(#path-1-inside-1_151_105)"/>
<path d="M96.8597 81.7529L96.7346 81.7615C96.5759 82.0327 96.6107 82.3773 96.6673 82.6816C96.7529 83.1414 96.9655 83.6638 97.3836 83.9182C97.6661 84.0902 97.8673 84.0521 98.1677 83.9691C98.5263 83.4378 98.6072 82.9894 98.679 82.3695C98.0747 82.1578 97.4683 81.9523 96.8597 81.7529Z" stroke="black" stroke-width="0.693234" mask="url(#path-1-inside-1_151_105)"/>
<path d="M119.444 87.314C119.35 87.3191 119.369 87.3035 119.291 87.3766C119.028 87.6233 119.05 88.1297 119.024 88.4678C120.071 88.804 121.143 89.0499 122.213 89.3021C122.446 88.8306 122.64 88.3409 122.84 87.8545C121.705 87.7179 120.573 87.5005 119.444 87.314Z" stroke="black" stroke-width="0.693234" mask="url(#path-1-inside-1_151_105)"/>
<path d="M110.024 84.8284L109.721 84.8326C109.669 84.8915 109.658 84.8954 109.624 84.9806C109.462 85.3859 109.635 86.1925 109.775 86.5899C109.908 86.9687 110.143 87.3925 110.536 87.5494C110.777 87.6455 110.949 87.5694 111.175 87.4884C111.504 87.2261 111.946 86.6628 112.042 86.242C112.107 85.9553 112.051 85.7069 111.869 85.4759C111.478 84.9784 110.595 84.9299 110.024 84.8284Z" stroke="black" stroke-width="0.693234" mask="url(#path-1-inside-1_151_105)"/>
<path d="M116.716 86.4766L116.513 86.456C116.184 86.6276 116.11 87.5816 116.015 87.9503C115.628 89.4572 114.898 90.5222 113.815 91.6153L114.788 91.3544C116.574 90.4405 117.319 88.5449 117.905 86.7407C117.511 86.6433 117.112 86.5638 116.716 86.4766Z" stroke="black" stroke-width="0.693234" mask="url(#path-1-inside-1_151_105)"/>
<path d="M94.2677 81.1956C94.0923 81.1675 93.9792 81.1688 93.8058 81.2081C93.6203 81.7343 93.8439 82.4868 93.9868 83.0165C94.3808 84.4756 95.1228 86.4102 96.5288 87.1697C97.0937 87.475 97.758 87.5724 98.3775 87.3832C99.5991 87.0104 100.374 85.7337 100.952 84.6801C101.095 84.3341 101.264 83.9757 101.358 83.6134C101.406 83.4261 101.415 83.2239 101.299 83.0594C101.046 82.6993 100.392 82.6748 99.9876 82.5997C99.8553 83.4233 99.6529 84.3057 99.0761 84.9421C98.7395 85.3138 98.2899 85.5465 97.7831 85.5525C97.2117 85.5592 96.7126 85.2811 96.3258 84.8761C95.3913 83.8983 95.2882 82.6897 95.3218 81.4167L94.2677 81.1956Z" stroke="black" stroke-width="0.693234" mask="url(#path-1-inside-1_151_105)"/>
<path d="M107.185 84.0653L107.112 84.0812L107.022 84.2231C107.018 84.5603 107.031 84.8969 107.06 85.233C107.09 85.5689 107.136 85.9025 107.198 86.2339C107.261 86.5654 107.34 86.8929 107.435 87.2164C107.53 87.54 107.641 87.8581 107.768 88.1707C108.242 89.3657 109.063 90.4738 110.293 90.9648C110.957 91.23 111.657 91.2252 112.311 90.927C113.557 90.3579 114.294 89.0954 114.737 87.8627C114.884 87.252 114.977 86.6348 115.074 86.0149C114.466 85.8712 113.849 85.7566 113.237 85.6304C113.179 86.5858 112.964 87.5653 112.302 88.2989C111.973 88.665 111.533 88.9198 111.032 88.9356C110.462 88.9536 109.936 88.6768 109.535 88.2896C108.453 87.2471 108.355 85.8725 108.345 84.4683L107.185 84.0653Z" stroke="black" stroke-width="0.693234" mask="url(#path-1-inside-1_151_105)"/>
<path d="M134.595 87.7902C131.323 87.7441 128.052 87.7418 124.78 87.7833C124.405 88.5221 123.611 89.7352 123.726 90.5589C125.263 90.6589 126.843 90.5995 128.386 90.6059C129.926 90.6125 131.513 90.697 133.046 90.5688C133.625 89.7165 134.153 88.721 134.595 87.7902Z" stroke="black" stroke-width="0.693234" mask="url(#path-1-inside-1_151_105)"/>
<path d="M149.238 87.7364C146.253 87.6385 143.249 87.6953 140.261 87.6951C140.342 88.3809 140.168 89.8195 140.561 90.3628C140.721 90.5841 140.848 90.5896 141.092 90.661L149.153 90.6559C149.558 89.697 149.971 88.741 150.339 87.7674L149.238 87.7364Z" stroke="black" stroke-width="0.693234" mask="url(#path-1-inside-1_151_105)"/>
<path d="M32.59 66.8033L32.5513 66.8449C33.223 66.9838 33.8585 67.208 34.5217 67.3616C38.133 68.1982 41.6926 69.2167 45.2797 70.1513C50.1406 71.4218 54.9859 72.7492 59.8157 74.1332L75.0114 78.2626C80.672 79.8069 86.3588 81.3799 92.0746 82.7053C92.307 82.3914 92.1198 81.6246 92.0756 81.246C91.1004 80.9088 90.0639 80.7286 89.0656 80.4641L82.0762 78.6316C74.4754 76.623 66.8424 74.7447 59.1773 72.9967L42.0405 68.9655C38.9097 68.2269 35.7638 67.3238 32.59 66.8033Z" stroke="black" stroke-width="0.693234" mask="url(#path-1-inside-1_151_105)"/>
<path d="M24.3489 29.5793L22.6719 29.7813C22.2448 29.8346 21.5706 29.8666 21.3037 30.2437C21.0344 30.6246 20.9779 31.2081 20.9567 31.6601C20.8367 34.2149 20.9309 36.7984 20.9416 39.356C20.9408 44.057 20.9656 48.7578 21.0162 53.4585C21.0204 54.4225 20.9293 61.789 21.0588 62.1557C21.1443 62.3978 21.2546 62.3881 21.4795 62.4716C22.4278 62.7383 23.3833 62.9758 24.3461 63.184C24.2857 51.9824 24.2866 40.7808 24.3489 29.5793Z" stroke="black" stroke-width="0.693234" mask="url(#path-1-inside-1_151_105)"/>
<path d="M23.0227 32.1787C22.7512 32.1744 22.4893 32.1754 22.2229 32.2363C21.9394 32.301 21.6091 32.4213 21.4779 32.7062C21.2871 33.1202 21.2335 45.5858 21.4274 46.2694C21.5962 46.4909 21.7679 46.5675 22.012 46.6813C22.3091 46.6959 22.6314 46.7284 22.9248 46.6737C23.2435 46.6145 23.4132 46.4874 23.5964 46.2252C23.7797 45.013 23.8264 33.0397 23.6175 32.4942C23.4455 32.2959 23.2633 32.2538 23.0227 32.1787Z" stroke="black" stroke-width="0.693234" mask="url(#path-1-inside-1_151_105)"/>
<path d="M28.6634 29.1844C27.6804 29.1071 26.6763 29.2816 25.7095 29.4387C25.6235 30.7136 25.6864 32.029 25.6851 33.308L25.678 40.5483L25.6818 63.5541L26.579 63.7723C27.4043 63.9413 28.2273 64.1207 29.0481 64.3106L29.0606 40.5059L29.0836 34.1865C29.0989 32.8634 29.198 31.4834 29.0887 30.1668C29.0534 29.7433 28.9291 29.5103 28.6634 29.1844Z" stroke="black" stroke-width="0.693234" mask="url(#path-1-inside-1_151_105)"/>
<path d="M27.87 32.0922C27.5249 32.069 27.1187 32.0127 26.788 32.1449C26.5961 32.2216 26.3926 32.3975 26.3343 32.6029C26.0914 33.4604 26.2629 37.215 26.269 38.3026C26.2833 40.9136 26.2038 43.5573 26.3204 46.1641C26.3305 46.3866 26.3592 46.551 26.4413 46.7563C26.6041 46.9611 26.7784 46.9842 27.0192 47.0434C27.327 47.0773 27.6596 47.1304 27.9675 47.0811C28.2512 47.0355 28.3927 46.919 28.5523 46.6899C28.7612 45.7632 28.8013 32.9098 28.6396 32.5821C28.4826 32.2637 28.1803 32.1972 27.87 32.0922Z" stroke="black" stroke-width="0.693234" mask="url(#path-1-inside-1_151_105)"/>
<path d="M2.21493 45.6441L2.11756 45.6568C2.10601 45.6915 2.0928 45.7258 2.0829 45.761C1.97397 46.1316 1.97397 55.934 2.04164 56.9273C2.06639 57.2843 2.0961 57.7047 2.30075 58.0088C2.57142 58.4109 3.02857 58.6767 3.47748 58.8306C3.9754 59.0012 4.50997 59.0595 5.02242 59.1734C5.92452 59.3735 6.81952 59.6185 7.71486 59.8472C11.6478 60.8598 15.5893 61.8385 19.5392 62.7833L19.6769 62.7169C19.8484 61.858 19.7104 59.2007 19.7115 58.191L19.7426 46.9809C16.9298 46.803 14.1241 46.5442 11.3135 46.3396C8.27995 46.1186 5.24125 45.9524 2.21493 45.6441Z" stroke="black" stroke-width="0.693234" mask="url(#path-1-inside-1_151_105)"/>
<path d="M121.998 66.5782L121.865 66.5862C121.852 66.6325 121.832 66.6773 121.826 66.7251C121.795 66.9755 123.088 71.7857 123.252 72.2052C123.467 72.756 123.766 73.2638 124.184 73.6855C124.854 74.3612 125.764 74.7683 126.7 74.8969C127.947 75.068 129.32 74.9365 130.583 74.9261C132.699 74.9145 134.815 74.9167 136.931 74.9325L166.05 74.9883L166.25 74.95C166.439 74.6115 166.39 68.5419 166.37 67.7155C158.287 67.5655 150.177 67.6361 142.092 67.6423L132.69 67.6482C130.649 67.65 128.555 67.7452 126.524 67.517C124.976 67.343 123.497 66.9852 121.998 66.5782Z" stroke="black" stroke-width="0.693234" mask="url(#path-1-inside-1_151_105)"/>
<path d="M69.839 24.0608C68.569 24.0941 67.2357 24.3996 65.9713 24.5648C65.0431 24.6861 64.0587 24.7018 63.1482 24.9038C62.8638 24.9669 62.4801 25.0527 62.2758 25.2768C61.9341 25.6518 61.8013 26.3461 61.7704 26.8326C61.6772 28.3026 61.7962 29.8441 61.8019 31.3218L61.8137 71.9716C62.3195 72.0581 62.8209 72.1807 63.322 72.2921C65.481 72.798 67.6485 73.2502 69.7915 73.8234C69.927 65.5 69.7778 57.1703 69.8377 48.8457C69.8774 43.5371 69.8875 38.2285 69.8681 32.9201C69.8682 29.976 69.9618 27.0015 69.839 24.0608Z" stroke="black" stroke-width="0.693234" mask="url(#path-1-inside-1_151_105)"/>
<path d="M66.185 28.3135C65.4689 28.3092 64.7574 28.3386 64.0423 28.3727C63.7312 28.5835 63.4366 28.8114 63.2544 29.1491C63.0971 29.4408 63.0482 29.7523 63.0275 30.0795C62.8731 32.5089 63.0159 35.269 63.0164 37.7314C63.0171 40.7249 62.8896 43.7842 63.0388 46.7701C63.0582 47.1576 63.0761 47.5503 63.2083 47.9183C63.4526 48.5984 63.8555 48.9777 64.5011 49.2747C65.2387 49.3736 66.0612 49.4466 66.7237 49.0349C67.145 48.773 67.3726 48.4154 67.4729 47.9393C67.8156 46.3148 67.6626 44.5393 67.6565 42.8836L67.6385 35.9589C67.6408 34.6582 67.6511 33.3576 67.6693 32.057C67.6771 31.3584 67.7296 30.6225 67.6639 29.928C67.6297 29.5668 67.5144 29.1989 67.3033 28.8995C67.0166 28.493 66.6578 28.3785 66.185 28.3135Z" stroke="black" stroke-width="0.693234" mask="url(#path-1-inside-1_151_105)"/>
<path d="M78.9374 22.9992C76.3683 23.225 73.7991 23.609 71.2395 23.9313L71.22 73.9133C72.0404 74.1466 72.8823 74.3333 73.7103 74.5402C75.8286 75.072 77.9645 75.6343 80.1097 76.0439L80.1043 41.9442L80.1239 31.2221C80.1302 29.3908 80.2876 27.427 80.0835 25.6105C79.9742 24.638 79.6058 23.7208 78.9374 22.9992Z" stroke="black" stroke-width="0.693234" mask="url(#path-1-inside-1_151_105)"/>
<path d="M77.1844 27.8858C76.1613 27.8713 75.1523 27.8314 74.1465 28.0545C73.9663 28.2007 73.7968 28.3476 73.6577 28.5351C73.4382 28.8314 73.337 29.1476 73.2984 29.5118C73.2027 30.4151 73.2675 31.3913 73.2664 32.3013L73.2669 37.687L73.2778 44.2656C73.2814 45.6302 73.1647 47.1646 73.4311 48.5015C73.5667 49.182 73.979 49.5745 74.5288 49.9531C75.1615 50.1767 75.9511 50.2262 76.6139 50.107C77.0629 50.0262 77.4917 49.853 77.7535 49.4612C78.0112 49.0754 78.1629 48.6557 78.2055 48.1947C78.2984 47.1872 78.2296 46.1139 78.2288 45.0993L78.2248 39.0854L78.2374 32.396C78.239 31.4004 78.3859 30.1259 78.1644 29.1601C78.0241 28.5485 77.6914 28.2215 77.1844 27.8858Z" stroke="black" stroke-width="0.693234" mask="url(#path-1-inside-1_151_105)"/>
<path d="M30.6385 47.7104C30.5614 47.7038 30.4949 47.7305 30.4209 47.7503C30.2458 48.1687 30.3607 63.1136 30.365 64.8236C33.202 65.497 36.0773 66.0687 38.9242 66.7054L54.1725 70.2131C56.1614 70.6752 58.1556 71.0855 60.1367 71.5841C60.3074 71.6107 60.2914 71.6366 60.4516 71.5428C60.6084 71.0228 60.4881 67.2418 60.4886 66.3997L60.4894 49.9198C57.9127 49.8303 55.3404 49.5403 52.7677 49.3674L30.6385 47.7104Z" stroke="black" stroke-width="0.693234" mask="url(#path-1-inside-1_151_105)"/>
<path d="M7.93949 62.5412L7.74887 62.5379C7.62905 63.0226 8.79208 65.1998 9.07066 65.771L79.4285 88.6309L106.704 97.6734L113.674 99.9239C114.892 100.318 116.232 100.889 117.495 101.074C118.888 101.279 120.447 101.139 121.861 101.135L130.489 101.125C141.608 101.17 152.746 101.24 163.864 101.1C162.743 100.296 161.519 99.6181 160.328 98.9251C157.696 97.4725 155.104 95.9187 152.498 94.4182C151.531 93.8612 150.172 92.8627 149.131 92.5922C148.418 92.407 147.609 92.48 146.877 92.4872C145.392 92.5019 140.885 92.6975 139.731 92.3725C138.81 92.1134 136.415 90.6886 135.411 90.1628C135.071 90.9459 134.724 91.6688 133.97 92.1337C133.646 92.3332 133.388 92.3966 133.009 92.4369C131.273 92.6222 129.399 92.4651 127.648 92.4717C126.291 92.4767 124.428 92.6463 123.121 92.4621C122.84 92.4223 122.548 92.1588 122.303 92.0185C121.649 91.643 119.88 91.3729 119.062 91.1842C118.495 91.9673 117.658 92.6859 116.719 92.9544C115.09 93.4202 110.805 92.9785 109.286 92.1528C107.611 91.2428 106.796 89.2381 106.287 87.5025C105.518 87.6552 104.733 87.7341 103.955 87.8298C103.841 87.9281 103.724 88.0218 103.604 88.111C102.285 89.075 101.058 89.0405 99.5243 88.7907C98.382 89.2128 97.3806 89.4337 96.2039 88.9366C94.5477 88.2368 93.57 86.7089 92.9379 85.1001C91.8594 84.7665 90.7384 84.5302 89.6493 84.2259C84.848 82.8841 80.0112 81.6828 75.1993 80.3808L28.8796 67.9948C21.9135 66.1547 14.8533 64.56 7.93949 62.5412Z" stroke="black" stroke-width="0.693234" mask="url(#path-1-inside-1_151_105)"/>
<path d="M115.231 2.15657C113.888 2.07438 112.545 2.06106 111.201 2.11663C109.857 2.1723 108.519 2.29657 107.188 2.48945C105.087 2.79857 103.003 3.25705 100.921 3.67426C98.1851 4.22131 95.4448 4.74619 92.7003 5.2489L49.3966 13.3378L22.9713 18.3352L15.6421 19.7289C13.339 20.1689 10.8436 20.4502 8.70089 21.4386C5.98187 22.6927 3.83223 25.2896 2.79909 28.0629C3.99216 27.9987 5.19447 27.8076 6.37896 27.6568C8.98988 27.3239 11.5881 26.92 14.1939 26.5528L30.527 24.3898C36.6127 23.6613 42.6901 22.8676 48.759 22.0088L83.7991 17.2776L93.867 15.8472C96.0163 15.529 98.8789 14.8474 101.02 15.0276C103.538 15.2397 105.73 16.3169 107.359 18.2452C109.158 18.3296 110.994 18.2622 112.797 18.2664L125.86 18.2244L136.618 18.2319C138.807 18.2439 141.032 18.3429 143.216 18.23C142.991 17.8069 142.741 17.398 142.469 17.0035C142.196 16.6089 141.902 16.2313 141.586 15.8707C134.749 7.9293 125.737 2.92367 115.231 2.15657Z" stroke="black" stroke-width="0.693234" mask="url(#path-1-inside-1_151_105)"/>
<path d="M122.748 5.76648C120.995 5.84966 119.249 5.80609 117.495 5.80543L109.404 5.82672C108.641 5.82969 106.593 5.67835 105.973 5.866C105.749 5.93383 105.688 6.00397 105.57 6.19938L105.715 6.33586L105.612 6.29312C106.315 7.4951 107.83 9.03112 108.765 10.1583C110.527 12.2839 112.217 14.4687 113.983 16.5886C114.133 16.7939 114.338 16.9819 114.514 17.1679C116.659 17.3111 118.879 17.2081 121.031 17.2268C123.666 17.2497 126.321 17.3824 128.953 17.2907C129.242 17.2806 129.712 17.2946 129.956 17.1357C130.188 16.9843 130.267 16.6866 130.317 16.4356C129.824 15.1249 126.853 11.4966 125.87 10.1747C124.807 8.72046 123.767 7.25106 122.748 5.76648Z" stroke="black" stroke-width="0.693234" mask="url(#path-1-inside-1_151_105)"/>
<path d="M122.031 7.1066C117.319 6.97424 112.58 7.05973 107.865 7.07393C108.911 8.42626 110.083 9.68418 111.188 10.9891C112.467 12.5258 113.705 14.0941 114.904 15.6942C114.92 15.72 114.932 15.7492 114.953 15.7712C114.957 15.7756 115.102 15.8806 115.115 15.8839C115.708 16.0407 117.983 15.9416 118.723 15.9507C122.026 15.9908 125.334 16.0814 128.637 16.074C126.44 13.0812 124.153 10.1539 122.031 7.1066Z" stroke="black" stroke-width="0.693234" mask="url(#path-1-inside-1_151_105)"/>
<path d="M81.7294 51.3425L81.5256 51.3239L81.397 51.4349C81.2692 52.0215 81.3674 52.7412 81.3661 53.3466L81.367 76.4291C84.6669 77.3025 88.0119 77.9999 91.3196 78.843C100.33 81.1398 109.314 83.4545 118.474 85.0994C122.121 85.7541 125.768 85.4762 129.446 85.4638L143.702 85.4713L156.098 85.4587C158.077 85.4637 160.703 85.6206 162.618 85.4379C163.453 85.3584 164.114 85.0871 164.798 84.6106C164.92 84.5058 165.041 84.399 165.153 84.2835C165.22 84.2157 165.284 84.1458 165.346 84.0737C165.408 84.0016 165.468 83.9276 165.525 83.8516C165.582 83.7755 165.636 83.6977 165.688 83.618C165.74 83.5383 165.789 83.4569 165.835 83.3739C165.882 83.291 165.925 83.2065 165.966 83.1206C166.007 83.0348 166.045 82.9477 166.079 82.8592C166.114 82.7707 166.146 82.6812 166.175 82.5907C166.204 82.5001 166.23 82.4087 166.253 82.3164C166.612 80.8371 166.377 77.9861 166.359 76.3732C162.916 76.2712 159.468 76.3207 156.025 76.3118L137.916 76.2852L130.716 76.3127C129.414 76.3197 128.065 76.402 126.769 76.2887C126.588 76.272 126.407 76.2466 126.228 76.2122C126.049 76.178 125.872 76.1351 125.698 76.0835C125.523 76.0319 125.351 75.9718 125.182 75.9033C125.013 75.8349 124.848 75.7583 124.686 75.6737C122.444 74.5161 121.905 72.4262 121.35 70.1548C121.004 68.7403 120.712 67.3044 120.275 65.915C118.502 65.2005 116.231 63.7693 114.451 62.8487C109.44 60.2569 104.445 57.6189 99.3978 55.0983C97.6934 54.247 95.1314 52.7721 93.3275 52.3294C92.0298 52.0109 90.6004 52.0028 89.2725 51.9008L81.7294 51.3425Z" stroke="black" stroke-width="0.693234" mask="url(#path-1-inside-1_151_105)"/>
<path d="M100.918 16.4286C98.722 16.2134 96.1157 16.9445 93.9184 17.2526L79.1334 19.3285L19.3854 27.3575C15.2002 27.9198 10.9879 28.3274 6.7979 28.8699C5.42082 29.0483 3.796 29.0802 2.47239 29.4599C2.16376 29.8535 2.13406 30.8581 2.10105 31.3547C1.99047 32.9497 2.06969 34.5831 2.07134 36.1826L2.05154 44.2935L19.7621 45.5177L19.7264 35.9706C19.7226 34.2768 19.5493 32.3404 19.8391 30.6695C19.9339 30.1224 20.1205 29.5824 20.512 29.1744C20.7762 28.8991 21.0944 28.7463 21.4593 28.6481C22.7872 28.2906 24.3665 28.3012 25.7419 28.1454C26.6546 28.0419 27.5833 27.8323 28.5005 27.8039C28.9311 27.7907 29.4148 27.828 29.7309 28.1573C30.0618 28.5017 30.1945 28.9627 30.264 29.4233C30.5441 31.2798 30.35 33.4961 30.3468 35.3939L30.3774 46.2497L60.4896 48.5021L60.5039 33.7595C60.5016 31.5266 60.309 28.6342 60.5577 26.4896C60.6426 25.7586 60.8248 25.0141 61.2753 24.4168C61.4574 24.1754 61.7029 23.9088 61.9899 23.795C62.9843 23.4002 67.4252 23.0267 68.8018 22.8592C70.9194 22.6194 73.0342 22.3565 75.146 22.0705C76.4896 21.8973 77.8941 21.6227 79.2484 21.6863C79.4841 21.8109 79.709 21.9439 79.9028 22.1297C80.678 22.8737 81.1432 24.0731 81.3079 25.1217C81.5644 26.7553 81.3807 29.8669 81.3881 31.6196C81.4144 37.6795 81.2543 43.7515 81.4089 49.8092C83.8187 49.9538 86.222 50.1672 88.6291 50.3466C90.3174 50.4725 92.1319 50.4547 93.7709 50.885C95.6548 51.3798 97.9351 52.7039 99.734 53.5921C104.435 55.9473 109.109 58.3538 113.758 60.8114C116.981 62.5037 120.468 64.7382 123.957 65.6746C127.047 66.5041 130.192 66.3178 133.358 66.3155L141.797 66.3133L166.292 66.3338C166.304 65.1077 166.498 63.5504 166.11 62.3908C165.598 60.8604 164.358 58.8336 163.584 57.3408L159.463 49.228L143.931 19.3854C142.01 19.6153 140.067 19.5681 138.136 19.5594L131.459 19.5394C123.188 19.4998 114.917 19.5168 106.645 19.5904C104.842 18.0364 103.386 16.7163 100.918 16.4286Z" stroke="black" stroke-width="0.693234" mask="url(#path-1-inside-1_151_105)"/>
<path d="M17.296 29.6912C15.8795 29.5916 6.04301 30.6154 5.00376 31.0638C4.72401 31.1844 4.55914 31.3056 4.44328 31.5978C4.30316 31.9515 4.23632 32.3333 4.20645 32.7114C4.10512 33.9982 4.05561 40.7149 4.44395 41.5208C4.65239 41.9531 4.96909 42.0851 5.40315 42.234C7.53281 42.3089 9.661 42.3496 11.7908 42.4421C13.569 42.5191 15.3623 42.664 17.1419 42.6388C17.3733 42.4909 17.5774 42.3363 17.7588 42.128C17.9443 41.9148 18.0971 41.6406 18.1518 41.3612C18.4006 40.0853 18.2278 38.338 18.2297 37.0087C18.232 35.1978 18.3521 33.3034 18.2188 31.5006C18.162 30.734 17.8616 30.2005 17.296 29.6912Z" stroke="black" stroke-width="0.693234" mask="url(#path-1-inside-1_151_105)"/>
<path d="M52.9449 25.4764C52.0378 25.4012 51.045 25.5588 50.1396 25.6517C47.9926 25.872 45.8535 26.1844 43.7105 26.4429C40.9162 26.7799 37.4005 26.9939 34.697 27.5637C34.3387 27.6391 33.9774 27.7896 33.6794 28.0038C33.0927 28.4258 32.9025 29.3629 32.8161 30.0401C32.7187 30.8011 32.7633 31.6142 32.7631 32.3806L32.7743 36.8144C32.7692 38.2829 32.5682 39.9112 32.7545 41.3565C32.8246 41.9003 32.992 42.4492 33.3518 42.8738C33.8079 43.4125 34.2468 43.4729 34.9079 43.517C37.5015 43.5677 52.2719 44.4128 53.3941 44.0293C53.8465 43.8746 54.15 43.4942 54.3276 43.0651C54.4755 42.7076 54.5372 42.3181 54.5557 41.9334C54.6601 39.7686 54.5269 37.5297 54.5284 35.3575C54.5302 32.7984 54.6641 30.1634 54.5146 27.6123C54.4949 27.2762 54.4528 26.9689 54.315 26.6584C54.0323 26.0217 53.5765 25.72 52.9449 25.4764Z" stroke="black" stroke-width="0.693234" mask="url(#path-1-inside-1_151_105)"/>
<path d="M43.0711 28.2082C42.7714 28.198 42.4114 28.145 42.1703 28.3414C42.0832 29.1476 42.1261 29.9827 42.1221 30.794L42.0643 39.3128C42.0592 40.1202 42.0095 40.9545 42.0865 41.7584L43.1262 41.7524C43.1439 37.2428 43.1788 32.7162 43.0711 28.2082Z" stroke="black" stroke-width="0.693234" mask="url(#path-1-inside-1_151_105)"/>
<path d="M94.2644 20.7214C93.7801 20.6714 93.302 20.6105 92.8199 20.7158C92.034 20.8875 91.3886 21.359 90.9862 22.0554C90.6817 22.5827 90.5891 23.2571 90.547 23.8587C90.4766 24.8669 90.5231 25.9027 90.5241 26.9137L90.5327 32.3598C90.5358 34.488 90.2861 41.2609 90.7619 42.8844C91.0388 43.8295 91.5515 44.5714 92.34 45.1645C93.5915 46.1059 96.7718 47.4856 98.3357 48.2679C103.072 50.6374 107.871 52.941 112.526 55.4636C112.757 55.5651 113.005 55.683 113.252 55.7368C113.905 55.8795 114.58 55.6808 115.11 55.2918C115.581 54.9457 115.878 54.45 115.951 53.8684C116.024 53.2899 115.859 52.7421 115.616 52.2231C114.954 50.8089 114.117 49.456 113.396 48.0691L107.339 36.3142C106.595 34.8357 105.918 33.325 105.182 31.8427C104.488 30.4442 103.726 29.0778 103.052 27.6702C102.46 26.4357 101.135 23.2804 100.379 22.354C100.102 22.0143 99.7272 21.6217 99.339 21.4182C98.2783 20.8625 95.5928 20.8809 94.2644 20.7214Z" stroke="black" stroke-width="0.693234" mask="url(#path-1-inside-1_151_105)"/>
<path d="M138.908 24.1952L122.501 24.2023C119.029 24.1767 115.365 24.0009 111.914 24.1678C111.505 24.1877 111.056 24.2239 110.685 24.4058C110.425 24.6997 110.199 25.0156 110.191 25.425C110.183 25.8101 110.383 26.2563 110.538 26.6061C111.421 28.5971 112.49 30.5289 113.435 32.4933C115.67 37.1973 117.934 41.8875 120.226 46.5641C121.006 48.1828 124.132 55.2456 125.106 56.2108C125.304 56.4062 125.509 56.4775 125.78 56.5272C127.076 56.7653 130.024 56.5712 131.474 56.5851L150.788 56.5991L156.137 56.614C157.196 56.6199 158.289 56.6955 159.341 56.5648C159.506 56.4537 159.679 56.3425 159.824 56.2052C160.074 55.9678 160.241 55.6797 160.246 55.3301C160.253 54.9035 159.979 54.3859 159.795 54.0052C158.537 51.4007 157.169 48.8545 155.842 46.2858L148.963 32.9495C148.218 31.5127 145.378 25.547 144.523 24.6513C143.871 23.9677 140.013 24.1988 138.908 24.1952Z" stroke="black" stroke-width="0.693234" mask="url(#path-1-inside-1_151_105)"/>
<path d="M141.819 27.2473C138.459 27.1278 135.067 27.2212 131.703 27.2217L114.057 27.2105C115.452 30.3019 117.031 33.3072 118.503 36.3608L126.677 53.4603L128.467 53.4511C137.719 53.4314 146.988 53.345 156.238 53.49C155.771 52.377 155.142 51.3219 154.592 50.2472C153.391 47.8942 152.174 45.5495 150.94 43.2134L145.218 32.2389C144.711 31.2644 143.204 28.0313 142.635 27.4449C142.437 27.2409 142.087 27.2638 141.819 27.2473Z" stroke="black" stroke-width="0.693234" mask="url(#path-1-inside-1_151_105)"/>
</svg>
