<svg width="418" height="179" viewBox="0 0 418 179" fill="none" xmlns="http://www.w3.org/2000/svg">
<path d="M308.704 56.9521H306.126V137.256H308.704V56.9521Z" stroke="black" stroke-miterlimit="10"/>
<path d="M308.704 143.426H306.126V169.284H308.704V143.426Z" stroke="black" stroke-miterlimit="10"/>
<path d="M273.204 56.9521H269.732V140.655H273.204V56.9521Z" stroke="black" stroke-miterlimit="10"/>
<path d="M300.012 56.9521H294.615V137.256H300.012V56.9521Z" stroke="black" stroke-miterlimit="10"/>
<path d="M300.012 143.426H294.615V169.284H300.012V143.426Z" stroke="black" stroke-miterlimit="10"/>
<path d="M405 169H226V178H405V169Z" stroke="black" stroke-miterlimit="10"/>
<path d="M352 169H280V178H352V169Z" fill="black" stroke="black" stroke-miterlimit="10"/>
<path d="M231.147 44.2166H204.903V53.8668H231.147V44.2166Z" stroke="black" stroke-miterlimit="10"/>
<path d="M231.147 44.2166H219.572V53.8668H231.147V44.2166Z" stroke="black" stroke-miterlimit="10"/>
<path d="M270.892 44.2166H244.648V53.8668H270.892V44.2166Z" stroke="black" stroke-miterlimit="10"/>
<path d="M270.892 44.2166H259.317V53.8668H270.892V44.2166Z" stroke="black" stroke-miterlimit="10"/>
<path d="M254.298 140.832V137.256H326.071V143.426H273.438" stroke="black" stroke-miterlimit="10"/>
<path d="M254.298 56.9521H248.893V140.341H254.298V56.9521Z" stroke="black" stroke-miterlimit="10"/>
<path d="M278.609 56.9521H273.204V169.283H278.609V56.9521Z" stroke="black" stroke-miterlimit="10"/>
<path d="M294.615 56.9521H290.571V137.256H294.615V56.9521Z" stroke="black" stroke-miterlimit="10"/>
<path d="M294.615 143.426H290.571V169.284H294.615V143.426Z" stroke="black" stroke-miterlimit="10"/>
<path d="M314.109 56.9521H308.704V137.256H314.109V56.9521Z" stroke="black" stroke-miterlimit="10"/>
<path d="M314.109 143.426H308.704V169.284H314.109V143.426Z" stroke="black" stroke-miterlimit="10"/>
<path d="M331.468 56.9521H326.071V169.283H331.468V56.9521Z" stroke="black" stroke-miterlimit="10"/>
<path d="M281.751 6.22778H278.118V55.6793H281.751V6.22778Z" stroke="black" stroke-miterlimit="10"/>
<path d="M180.592 54.6402L276.619 7.54883L265.487 56.952" stroke="black" stroke-width="2" stroke-miterlimit="10"/>
<path d="M398.238 53.8669H191.016V56.9521H398.238V53.8669Z" stroke="black" stroke-miterlimit="10"/>
<path d="M398.238 53.8669H389.748V56.9521H398.238V53.8669Z" fill="black" stroke="black" stroke-miterlimit="10"/>
<path d="M378.479 54.9867L283.152 7.27515L287.873 56.9522" stroke="black" stroke-width="2" stroke-miterlimit="10"/>
<path d="M383.57 53.8669H176.347V56.9521H383.57V53.8669Z" stroke="black" stroke-miterlimit="10"/>
<path d="M383.57 53.8669H375.079V56.9521H383.57V53.8669Z" fill="black" stroke="black" stroke-miterlimit="10"/>
<path d="M287.671 2.93311H273.011V9.49013H287.671V2.93311Z" stroke="black" stroke-miterlimit="10"/>
<path d="M294.236 1H265.68V2.93327H294.236V1Z" stroke="black" stroke-miterlimit="10"/>
<path d="M210.3 56.9521H187.922V61.1973H210.3V56.9521Z" stroke="black" stroke-miterlimit="10"/>
<path d="M235.771 56.9521H213.393V61.1973H235.771V56.9521Z" stroke="black" stroke-miterlimit="10"/>
<path d="M367.749 56.9521H345.371V61.1973H367.749V56.9521Z" stroke="black" stroke-miterlimit="10"/>
<path d="M393.212 56.9521H370.834V61.1973H393.212V56.9521Z" stroke="black" stroke-miterlimit="10"/>
<path d="M186.746 53.843H178.57V56.9282H186.746V53.843Z" fill="black" stroke="black" stroke-miterlimit="10"/>
<path d="M175.227 88.9075H173.842V105.292H175.227V88.9075Z" stroke="black" stroke-miterlimit="10"/>
<path d="M176.452 100.201H172.601V107.443H176.452V100.201Z" stroke="black" stroke-miterlimit="10"/>
<path d="M148.661 115.329L159.535 116.819V110.915H148.661V115.329Z" stroke="black" stroke-miterlimit="10"/>
<path d="M191.878 106.677H159.793V110.915H191.878V106.677Z" stroke="black" stroke-miterlimit="10"/>
<path d="M191.62 106.677H184.596V110.915H191.62V106.677Z" stroke="black" stroke-miterlimit="10"/>
<path d="M189.388 110.915H156.12V150.12H189.388V110.915Z" stroke="black" stroke-miterlimit="10"/>
<path d="M194.334 110.915H185.973V150.12H194.334V110.915Z" stroke="black" stroke-miterlimit="10"/>
<path d="M200.408 115.329L189.525 116.819V110.915H200.408V115.329Z" stroke="black" stroke-miterlimit="10"/>
<path d="M203.356 110.915H200.658V115.498H203.356V110.915Z" stroke="black" stroke-miterlimit="10"/>
<path d="M203.356 115.498L195.398 116.988H189.775L200.658 115.498H203.356Z" fill="white" stroke="black" stroke-miterlimit="10"/>
<path d="M159.793 114.08H158.11V116.827H159.793V114.08Z" fill="black" stroke="black" stroke-miterlimit="10"/>
<path d="M162.588 114.08H160.905V116.827H162.588V114.08Z" fill="black" stroke="black" stroke-miterlimit="10"/>
<path d="M169.733 114.08H168.05V116.827H169.733V114.08Z" fill="black" stroke="black" stroke-miterlimit="10"/>
<path d="M172.521 114.08H170.837V116.827H172.521V114.08Z" fill="black" stroke="black" stroke-miterlimit="10"/>
<path d="M179.666 114.08H177.982V116.827H179.666V114.08Z" fill="black" stroke="black" stroke-miterlimit="10"/>
<path d="M182.461 114.08H180.777V116.827H182.461V114.08Z" fill="black" stroke="black" stroke-miterlimit="10"/>
<path d="M159.793 122.554H158.11V125.301H159.793V122.554Z" fill="black" stroke="black" stroke-miterlimit="10"/>
<path d="M162.588 122.554H160.905V125.301H162.588V122.554Z" fill="black" stroke="black" stroke-miterlimit="10"/>
<path d="M169.733 122.554H168.05V125.301H169.733V122.554Z" fill="black" stroke="black" stroke-miterlimit="10"/>
<path d="M172.521 122.554H170.837V125.301H172.521V122.554Z" fill="black" stroke="black" stroke-miterlimit="10"/>
<path d="M179.666 122.554H177.982V125.301H179.666V122.554Z" fill="black" stroke="black" stroke-miterlimit="10"/>
<path d="M182.461 122.554H180.777V125.301H182.461V122.554Z" fill="black" stroke="black" stroke-miterlimit="10"/>
<path d="M159.793 131.037H158.11V133.784H159.793V131.037Z" fill="black" stroke="black" stroke-miterlimit="10"/>
<path d="M162.588 131.037H160.905V133.784H162.588V131.037Z" fill="black" stroke="black" stroke-miterlimit="10"/>
<path d="M169.733 131.037H168.05V133.784H169.733V131.037Z" fill="black" stroke="black" stroke-miterlimit="10"/>
<path d="M172.521 131.037H170.837V133.784H172.521V131.037Z" fill="black" stroke="black" stroke-miterlimit="10"/>
<path d="M179.666 131.037H177.982V133.784H179.666V131.037Z" fill="black" stroke="black" stroke-miterlimit="10"/>
<path d="M182.461 131.037H180.777V133.784H182.461V131.037Z" fill="black" stroke="black" stroke-miterlimit="10"/>
<path d="M159.793 139.519H158.11V142.266H159.793V139.519Z" fill="black" stroke="black" stroke-miterlimit="10"/>
<path d="M162.588 139.519H160.905V142.266H162.588V139.519Z" fill="black" stroke="black" stroke-miterlimit="10"/>
<path d="M169.733 139.519H168.05V142.266H169.733V139.519Z" fill="black" stroke="black" stroke-miterlimit="10"/>
<path d="M172.521 139.519H170.837V142.266H172.521V139.519Z" fill="black" stroke="black" stroke-miterlimit="10"/>
<path d="M179.666 139.519H177.982V142.266H179.666V139.519Z" fill="black" stroke="black" stroke-miterlimit="10"/>
<path d="M182.461 139.519H180.777V142.266H182.461V139.519Z" fill="black" stroke="black" stroke-miterlimit="10"/>
<path d="M164.892 108.216H161.348V110.528H164.892V108.216Z" fill="black" stroke="black" stroke-miterlimit="10"/>
<path d="M169.444 108.216H165.899V110.528H169.444V108.216Z" fill="black" stroke="black" stroke-miterlimit="10"/>
<path d="M173.987 108.216H170.442V110.528H173.987V108.216Z" fill="black" stroke="black" stroke-miterlimit="10"/>
<path d="M178.538 108.216H174.994V110.528H178.538V108.216Z" fill="black" stroke="black" stroke-miterlimit="10"/>
<path d="M183.089 108.216H179.545V110.528H183.089V108.216Z" fill="black" stroke="black" stroke-miterlimit="10"/>
<path d="M75.4541 143.796V143.071H27.2833V133.26H75.4541C75.4541 133.26 76.6543 132.527 77.3712 134.686C77.8143 136.007 79.1112 140.083 80.0456 143.031C80.6336 144.892 81.0847 146.31 81.0847 146.31L75.4541 143.796Z" stroke="black" stroke-miterlimit="10"/>
<path d="M217.936 171.208C217.791 171.321 217.655 171.434 217.51 171.555C217.445 171.603 217.373 171.652 217.308 171.708C217.099 171.869 216.889 172.022 216.68 172.175C216.043 172.634 215.407 173.061 214.779 173.448C214.416 173.673 214.054 173.883 213.699 174.084C213.635 174.116 213.579 174.149 213.53 174.181C212.934 174.511 212.346 174.809 211.774 175.075C211.557 175.18 211.339 175.276 211.13 175.373C210.799 175.518 210.469 175.655 210.155 175.784C210.131 175.792 210.107 175.8 210.083 175.808C209.18 176.179 208.343 176.469 207.602 176.694C207.585 176.694 207.569 176.702 207.561 176.71C206.917 176.904 206.337 177.057 205.854 177.169C205.564 177.242 205.306 177.298 205.08 177.339C205 177.355 204.927 177.371 204.855 177.387C204.83 177.387 204.806 177.395 204.782 177.395C204.685 177.419 204.605 177.427 204.524 177.443C204.283 177.484 204.154 177.5 204.154 177.5H27.815C27.815 175.333 29.3939 173.504 31.5285 173.158C32.7449 172.956 34.1465 172.691 35.5481 172.344C36.3778 172.143 36.9739 171.797 37.3847 171.386C37.4411 171.329 37.4975 171.273 37.5458 171.217H37.5539C38.8589 169.71 38.1258 167.511 38.1258 167.511L21.693 143.031H27.2834V143.071H75.4541V143.796L81.0848 146.31C81.0848 146.31 80.6337 144.892 80.0457 143.031H80.964L88.6971 150.12H229.149C227.635 160.672 222.89 167.189 217.936 171.208Z" stroke="black" stroke-miterlimit="10"/>
<path d="M37.5539 171.2C37.127 171.692 36.4987 172.103 35.5482 172.336C34.1465 172.683 32.753 172.948 31.5366 173.15C29.402 173.496 27.8231 175.325 27.8231 177.492H204.162C204.162 177.492 211.251 176.63 217.945 171.2H37.5539Z" stroke="black" stroke-miterlimit="10"/>
<path d="M155.403 122.643H132.083V131.504H155.403V122.643Z" stroke="black" stroke-miterlimit="10"/>
<path d="M155.403 131.657H132.083V140.518H155.403V131.657Z" stroke="black" stroke-miterlimit="10"/>
<path d="M155.403 140.663H132.083V149.524H155.403V140.663Z" stroke="black" stroke-miterlimit="10"/>
<path d="M121.426 131.504H132.083V122.643H121.426V131.504Z" stroke="black" stroke-miterlimit="10"/>
<path d="M121.426 140.51H132.083V131.649H121.426V140.51Z" stroke="black" stroke-miterlimit="10"/>
<path d="M121.426 149.524H132.083V140.663H121.426V149.524Z" stroke="black" stroke-miterlimit="10"/>
<path d="M121.426 122.643H119.42V131.504H121.426V122.643Z" stroke="black" stroke-miterlimit="10"/>
<path d="M121.426 131.657H119.42V140.518H121.426V131.657Z" stroke="black" stroke-miterlimit="10"/>
<path d="M121.426 140.663H119.42V149.524H121.426V140.663Z" stroke="black" stroke-miterlimit="10"/>
<path d="M108.755 131.504H119.412V122.643H108.755V131.504Z" stroke="black" stroke-miterlimit="10"/>
<path d="M108.755 140.51H119.412V131.649H108.755V140.51Z" stroke="black" stroke-miterlimit="10"/>
<path d="M108.755 149.524H119.412V140.663H108.755V149.524Z" stroke="black" stroke-miterlimit="10"/>
<path d="M108.763 122.643H96.0999V131.504H108.763V122.643Z" stroke="black" stroke-miterlimit="10"/>
<path d="M108.763 131.657H96.0999V140.518H108.763V131.657Z" stroke="black" stroke-miterlimit="10"/>
<path d="M108.763 140.663H96.0999V149.524H108.763V140.663Z" stroke="black" stroke-miterlimit="10"/>
<path d="M224.824 122.643H222.818V131.504H224.824V122.643Z" stroke="black" stroke-miterlimit="10"/>
<path d="M224.824 131.657H222.818V140.518H224.824V131.657Z" stroke="black" stroke-miterlimit="10"/>
<path d="M224.824 140.663H222.818V149.524H224.824V140.663Z" stroke="black" stroke-miterlimit="10"/>
<path d="M212.161 131.504H222.818V122.643H212.161V131.504Z" stroke="black" stroke-miterlimit="10"/>
<path d="M212.161 140.51H222.818V131.649H212.161V140.51Z" stroke="black" stroke-miterlimit="10"/>
<path d="M212.161 149.524H222.818V140.663H212.161V149.524Z" stroke="black" stroke-miterlimit="10"/>
<path d="M212.161 122.643H199.498V131.504H212.161V122.643Z" stroke="black" stroke-miterlimit="10"/>
<path d="M212.161 131.657H199.498V140.518H212.161V131.657Z" stroke="black" stroke-miterlimit="10"/>
<path d="M212.161 140.663H199.498V149.524H212.161V140.663Z" stroke="black" stroke-miterlimit="10"/>
<mask id="mask0_2009_4485" style="mask-type:luminance" maskUnits="userSpaceOnUse" x="33" y="109" width="75" height="42">
<path d="M33.4698 133.26H76.5899L77.1619 134.162L80.0457 143.031H81.2137L88.6971 150.12H107.853V109.376H34.9117L33.4698 133.26Z" fill="white"/>
</mask>
<g mask="url(#mask0_2009_4485)">
<path d="M96.0999 122.643H72.7798V131.504H96.0999V122.643Z" stroke="black" stroke-miterlimit="10"/>
<path d="M96.0999 131.657H72.7798V140.518H96.0999V131.657Z" stroke="black" stroke-miterlimit="10"/>
<path d="M96.0999 140.663H72.7798V149.524H96.0999V140.663Z" stroke="black" stroke-miterlimit="10"/>
<path d="M62.1146 131.504H72.7717V122.643H62.1146V131.504Z" stroke="black" stroke-miterlimit="10"/>
<path d="M62.1146 140.51H72.7717V131.649H62.1146V140.51Z" stroke="black" stroke-miterlimit="10"/>
<path d="M62.1146 149.524H72.7717V140.663H62.1146V149.524Z" stroke="black" stroke-miterlimit="10"/>
<path d="M62.1226 122.643H60.1168V131.504H62.1226V122.643Z" stroke="black" stroke-miterlimit="10"/>
<path d="M62.1226 131.657H60.1168V140.518H62.1226V131.657Z" stroke="black" stroke-miterlimit="10"/>
<path d="M62.1226 140.663H60.1168V149.524H62.1226V140.663Z" stroke="black" stroke-miterlimit="10"/>
<path d="M49.4596 131.504H60.1168V122.643H49.4596V131.504Z" stroke="black" stroke-miterlimit="10"/>
<path d="M49.4596 140.51H60.1168V131.649H49.4596V140.51Z" stroke="black" stroke-miterlimit="10"/>
<path d="M49.4596 149.524H60.1168V140.663H49.4596V149.524Z" stroke="black" stroke-miterlimit="10"/>
<path d="M49.4597 122.643H36.7968V131.504H49.4597V122.643Z" stroke="black" stroke-miterlimit="10"/>
<path d="M49.4597 131.657H36.7968V140.518H49.4597V131.657Z" stroke="black" stroke-miterlimit="10"/>
<path d="M49.4597 140.663H36.7968V149.524H49.4597V140.663Z" stroke="black" stroke-miterlimit="10"/>
</g>
<path d="M33.4698 133.26H76.5899L77.1619 134.162L80.0457 143.031H81.2137L88.6971 150.12H107.853V109.376H34.9118L33.4698 133.26Z" stroke="black" stroke-miterlimit="10"/>
<path d="M0 177.5L418 178" stroke="black" stroke-miterlimit="10"/>
<path d="M204.903 61.3826V86.9501" stroke="black" stroke-miterlimit="10"/>
<path d="M206.796 86.4832H203.324V87.7962H206.796V86.4832Z" fill="black" stroke="black" stroke-miterlimit="10"/>
<path d="M207.102 93.2332C206.917 93.2977 206.74 93.3621 206.554 93.4266C207.046 92.8305 207.513 92.2424 207.787 91.5497C207.787 91.6705 207.787 91.8074 207.787 91.9363C207.763 92.5485 207.755 93.1607 207.722 93.7729C207.674 94.6751 207.279 95.3759 206.474 95.819C205.467 96.3667 204.162 96.0365 203.517 95.094C203.211 94.651 203.074 94.1596 203.107 93.6199C203.131 93.2493 203.268 92.9191 203.453 92.6049C203.662 92.2424 203.92 91.9283 204.17 91.598C204.315 91.4047 204.46 91.2033 204.589 90.9939C204.734 90.7683 204.798 90.5266 204.79 90.2528C204.782 89.8983 204.79 89.5439 204.79 89.1895C204.79 89.1411 204.774 89.125 204.734 89.1009C204.396 88.9236 204.234 88.545 204.331 88.1745C204.428 87.812 204.766 87.5703 205.145 87.5865C205.507 87.6026 205.821 87.8764 205.894 88.247C205.958 88.5853 205.789 88.9317 205.475 89.1009C205.427 89.125 205.41 89.1492 205.419 89.1975C205.419 89.5439 205.41 89.8903 205.419 90.2286C205.435 90.6314 205.33 90.9938 205.112 91.3241C204.903 91.6463 204.669 91.9524 204.436 92.2666C204.242 92.5324 204.049 92.7982 203.896 93.0882C203.397 94.0468 204.033 95.239 205.112 95.4162C206.023 95.5693 206.852 94.9812 207.038 94.0629C207.094 93.789 207.078 93.5152 207.094 93.2332H207.102ZM205.104 88.0859C204.943 88.0859 204.806 88.2148 204.806 88.3759C204.806 88.537 204.935 88.6739 205.096 88.6739C205.257 88.6739 205.394 88.545 205.394 88.3839C205.394 88.2228 205.265 88.0939 205.104 88.0859Z" fill="black" stroke="black" stroke-miterlimit="10"/>
</svg>
