<svg width="284" height="199" viewBox="0 0 284 199" fill="none" xmlns="http://www.w3.org/2000/svg">
<path d="M39.3219 197.999C33.7008 197.999 33.8235 197.797 33.8235 197.797C33.5781 197.797 33.3579 197.621 33.3293 197.377C33.2949 197.086 33.5201 196.839 33.8034 196.839C33.8034 196.839 63.7411 197.282 66.107 195.622C68.135 194.199 68.6578 194.216 70.5438 194.515C71.6835 194.696 73.4057 194.969 76.5549 194.969H77.0684C86.4902 194.969 87.392 194.855 88.2711 191.307C88.4115 190.741 88.6754 190.42 89.0561 190.353C89.8344 190.223 90.5177 191.251 91.4691 192.682C91.9675 193.431 92.4836 194.206 92.9366 194.66C93.298 195.022 93.7872 194.776 94.8159 194.048C95.5547 193.525 96.2523 193.03 96.9524 193.235C97.3365 193.347 97.6348 193.654 97.8382 194.149C98.0887 194.758 98.8342 194.684 100.357 194.385C101.941 194.073 104.112 193.648 104.905 195.764C105.458 197.244 109.046 196.711 112.517 196.197C115.379 195.772 118.338 195.334 120.306 195.871C121.268 196.134 121.472 195.987 121.474 195.986C121.692 195.493 119.922 193.048 118.971 191.734C118.354 190.882 117.715 190 117.243 189.244C116.914 188.717 116.743 188.699 116.741 188.699H116.74C116.562 188.699 116.129 189.349 115.897 189.698C115.323 190.56 114.607 191.632 113.452 191.808C112.69 191.927 111.889 191.633 111.008 190.918C110.426 190.446 109.887 189.96 109.391 189.495C106.512 191.253 103.137 191.908 101.733 190.882C101.315 190.576 100.492 189.659 101.855 187.74C102.9 186.269 103.864 185.538 104.886 185.44C106.382 185.304 107.661 186.522 109.281 188.074C109.358 188.147 109.436 188.222 109.515 188.297C110.418 187.67 111.257 186.904 111.936 185.997C112.649 185.043 113.247 184.188 113.776 183.434C115.287 181.279 116.118 180.087 117.147 180.174C117.847 180.231 118.425 180.859 119.143 182.343C120.75 185.667 121.659 186.176 122.057 186.184C122.433 186.178 122.745 185.724 122.954 185.331C123.077 185.101 123.449 184.401 124.126 184.401H124.13C124.965 184.405 125.504 185.441 126.075 186.538C126.251 186.877 126.498 187.35 126.678 187.596C126.71 187.519 126.748 187.411 126.79 187.26C127.693 183.992 128.854 164.245 128.674 155.246C128.642 153.681 128.584 152.261 128.522 150.961C127.741 150.898 126.883 150.639 125.973 150.127C122.452 148.148 120.768 148.68 118.635 149.352C117.481 149.716 116.172 150.128 114.432 150.188C112.918 150.244 111.899 150.074 110.999 149.926C109.688 149.711 108.653 149.54 106.558 150.169C105.775 150.404 104.96 150.625 104.154 150.794C104.189 151.351 104.175 151.972 104.098 152.663C103.906 154.399 103.045 155.832 101.674 156.698C99.9403 157.793 97.5962 157.915 95.0714 157.035C92.8584 156.264 91.3355 156.692 89.9916 157.07C88.6989 157.434 87.4777 157.777 86.0136 157.007C84.8991 156.422 84.2335 155.356 84.1864 154.085C84.1242 152.393 85.1631 150.711 86.9667 149.586C89.5461 147.976 90.1546 146.979 90.2118 146.425C90.2294 146.254 90.2143 145.989 89.8832 145.673C89.4402 145.25 88.9435 145.31 88.0341 145.463C87.0138 145.635 85.7455 145.848 84.2864 144.967C82.7467 144.037 82.1836 142.783 82.0281 141.693C81.0851 141.937 79.9992 142.077 78.762 142.077C78.0695 142.077 77.5963 142.214 77.3542 142.482C76.9558 142.923 77.0508 143.866 77.1517 144.865C77.3223 146.564 77.5357 148.68 75.6287 150.095C73.2914 151.831 70.2623 151.603 67.5274 149.485C66.7609 148.892 66.0179 148.655 65.3169 148.79C64.4403 148.956 63.5788 149.71 62.8241 150.97C61.9508 152.431 60.9986 152.662 60.3539 152.597C59.5706 152.52 58.4746 151.925 57.4678 149.668C56.6735 150.175 55.7288 150.602 54.6227 150.896C52.988 151.331 51.708 151.263 50.6818 151.211C49.5345 151.151 48.7075 151.109 47.8536 151.733C46.7139 152.567 44.8976 153.023 43.631 152.277C43.1503 151.994 42.4031 151.311 42.435 149.807C42.2014 150.076 41.9324 150.407 41.7063 150.686C40.8239 151.774 39.8228 153.008 38.9328 153.498C37.7872 154.13 36.5416 154.063 35.6827 153.325C34.4959 152.304 34.3404 150.281 35.2557 147.774C35.6079 146.81 35.5163 146.318 35.3314 146.189C34.9826 145.946 33.7378 146.206 31.7392 147.922C29.5951 149.761 27.3855 150.71 25.3776 150.705C25.0053 152.912 23.3428 155.44 20.3785 156.276C15.3365 157.699 11.9569 154.592 11.1669 151.931C10.8206 150.765 10.4432 150.51 10.3273 150.51C10.1533 150.511 9.76077 150.918 9.4498 152.007C9.1237 153.152 8.36727 153.434 7.76969 153.314C6.48965 153.061 5.32055 150.993 5.6206 148.319C5.74163 147.243 6.00638 146.407 6.23919 145.671C6.62833 144.443 6.9393 143.463 6.46528 141.813C5.6996 141.937 4.84652 141.869 3.94049 141.541C2.40747 140.987 1.39638 139.66 1.09297 137.806C0.580278 134.672 2.22593 130.889 5.0953 128.605C9.25145 125.298 13.3496 124.804 17.2771 127.139C19.4842 128.452 21.1164 127.355 23.0075 126.085C23.4143 125.811 23.8354 125.528 24.269 125.267C25.7298 124.385 27.0485 123.914 28.2193 123.853C28.3554 122.462 29.1707 121.241 30.4692 120.489L31.1071 120.122C33.3251 118.852 34.2429 118.326 34.2942 116.551C34.3177 115.739 33.9774 115.114 33.3361 114.792C32.1258 114.184 30.2322 114.754 28.2689 116.315C27.2393 117.133 26.5728 116.964 26.1962 116.675C25.3532 116.033 25.4104 114.218 25.8197 113.25C26.4475 111.767 27.7629 111.033 28.8202 110.445C29.6279 109.995 30.3255 109.606 30.4406 109.057C30.6634 107.991 29.8363 107.253 28.468 106.139C27.0645 104.994 25.4734 103.698 25.2667 101.484C25.1053 99.7563 25.6062 98.3719 26.7157 97.48C28.5059 96.0408 31.6761 95.997 35.8852 97.3529C38.8731 98.3154 40.9625 97.9112 41.4828 97.016C41.8694 96.3482 41.4197 95.3258 40.2784 94.279C38.3268 92.4886 35.8609 89.6616 36.9778 85.7928C37.0627 85.4997 37.1333 85.21 37.1913 84.9262C35.8676 84.8925 34.6161 84.3839 33.6487 83.3943C32.7965 82.5227 32.5485 81.1113 33.0722 80.1125C33.5227 79.2535 34.4379 78.8762 35.586 79.0733C36.4761 79.2283 37.1955 79.7074 37.6653 80.4612C38.189 81.3008 38.4033 82.5017 38.3007 83.8676C39.2673 83.6739 40.2439 83.1922 41.1197 82.4284C44.6135 79.3798 47.9603 79.1937 50.8238 81.8768C52.2652 80.4157 54.2076 79.4834 56.3079 79.2948C58.8007 79.0716 60.0077 77.9667 60.0984 76.9705C60.1884 75.986 59.2437 75.0706 57.6938 74.6394C55.3178 73.9783 53.4654 75.1119 52.3585 75.7889L52.1383 75.9228C50.865 76.69 49.5841 76.7456 48.7949 76.0677C47.9292 75.3241 47.8443 73.8891 48.5621 72.1315C48.9353 71.2178 49.3622 70.4935 49.7749 69.7946C50.5834 68.4244 51.281 67.242 51.281 65.0331C51.281 61.9946 52.0375 59.8076 53.4108 58.8737C54.3336 58.2454 55.4716 58.1949 56.7929 58.7229C58.3494 59.3444 59.3555 60.4754 60.3287 61.5694C61.4079 62.7829 62.34 63.8314 63.8528 64.0141C65.1589 64.1707 66.2684 63.7488 66.9828 62.8242C67.2038 62.5378 67.3744 62.2187 67.4929 61.8776C66.6256 61.4447 65.933 60.7323 65.6237 59.8758C65.1472 58.5553 65.6069 57.5953 66.3087 57.3308C66.9306 57.0959 67.7778 57.4117 68.2628 58.6505C68.6074 59.5305 68.7209 60.4333 68.6108 61.278C68.8763 61.3428 69.1529 61.3748 69.4336 61.3731C70.7909 61.3588 71.8567 60.499 72.3584 59.0143C72.9602 57.2315 72.6534 55.4251 71.5373 54.1821C70.4951 53.0216 68.9343 52.5719 67.2526 52.9509C65.5102 53.3425 64.4134 54.0372 63.4469 54.6495C62.3249 55.3602 61.265 56.0314 59.5546 56.0331H59.5496C57.8787 56.0331 56.6105 55.3569 55.9768 54.1299C55.1867 52.6014 55.5405 50.4581 56.8996 48.5355C57.2778 47.9999 57.3223 47.7279 57.2896 47.6513C57.1845 47.4087 56.1835 47.2723 55.4531 47.1729C53.8882 46.9599 51.745 46.6676 50.475 45.1105C49.1067 43.4313 48.8042 41.2981 49.6665 39.4016C50.3036 38.0003 51.4718 37.0285 52.7132 36.8348C53.0334 35.7097 54.3042 32.2594 57.9535 31.7188C60.3497 31.3642 62.0214 32.2173 62.9998 32.9963C63.1737 33.1352 63.3401 33.2826 63.4973 33.4384C63.6343 33.2026 63.7915 32.9752 63.9688 32.7613C64.9202 31.6169 66.302 31.0425 67.9678 31.1133C69.5807 31.1815 70.427 30.0572 71.4894 28.6374C72.4089 27.4078 73.451 26.0158 75.2295 25.1029C78.0753 23.6418 79.747 24.5058 80.4909 25.15C82.0861 26.5328 82.4643 29.3439 81.4524 32.3116C81.1573 33.179 81.254 33.4283 81.2901 33.4839C81.3977 33.6473 81.9289 33.6894 82.4416 33.729C83.4577 33.8081 84.8496 33.9159 86.1641 34.9526C86.9146 35.5446 87.2121 36.1787 87.4996 36.791C87.9114 37.6668 88.2997 38.4938 90.2118 39.2753C91.96 39.9886 93.3173 41.5331 93.8418 43.4069C93.9216 43.6923 93.9813 43.9778 94.02 44.2616C95.0344 44.1757 96.0875 44.3307 97.0423 44.8141C98.3089 45.4558 99.4982 45.5745 100.305 45.1408C100.91 44.8158 101.282 44.1968 101.383 43.3496C101.63 41.2535 100.084 39.3974 97.7853 39.0336L97.6701 39.0159C95.3378 38.6471 93.3232 38.3287 92.5365 35.5606C92.4684 35.3214 92.4172 35.084 92.3802 34.8482C91.7196 34.8237 90.9732 34.6629 90.1403 34.2999C87.3289 33.0738 85.7741 31.0425 85.9808 28.8656C86.1641 26.9329 87.7391 25.3564 89.9933 24.8494C92.7735 24.2245 93.7544 22.5158 94.794 20.7061C94.9025 20.5166 95.0117 20.3271 95.1227 20.1376C96.0337 18.5897 97.4373 17.6364 98.7661 17.6651C99.5864 17.6794 100.757 18.0525 101.677 19.7468C101.767 19.9144 101.949 20.1974 102.143 20.2126C102.61 20.2622 103.428 19.2011 103.917 18.5737C104.177 18.2403 104.422 17.9261 104.646 17.6962C105.655 16.6638 106.788 16.22 107.839 16.4482C108.999 16.6991 109.965 17.7392 110.56 19.3746C111.182 21.0884 112.202 22.2253 113.507 22.6615C114.37 22.9512 115.355 22.9318 116.429 22.6169C115.661 21.9659 114.994 21.1937 114.497 20.3102C113.234 18.0626 113.079 16.0852 114.06 14.7403C115.093 13.3272 117.286 12.811 119.926 13.3651C120.326 13.4485 120.629 13.4156 120.85 13.2649C121.393 12.8926 121.582 11.7726 121.781 10.5869C122.071 8.86299 122.399 6.90838 123.979 6.02834C126.379 4.6927 129.345 6.30961 131.118 7.27555L131.296 7.3724C133.503 8.56993 134.991 7.03386 135.85 5.534C137.177 3.22063 139.063 2.7044 141.455 4.0013C142.164 4.38616 143.153 3.68213 144.839 2.40544L145.372 2.00374C146.616 1.07064 147.996 0.775893 149.258 1.17086C150.807 1.65593 152.055 3.11284 152.774 5.27209C153.777 8.28612 155.27 9.39775 156.851 10.5751C158.283 11.6412 159.764 12.7444 160.737 15.2717C161.169 16.3943 160.852 17.7729 159.89 18.9578C158.752 20.3591 156.548 21.6711 153.445 21.7899C153.464 21.8488 153.483 21.9078 153.502 21.9667C153.862 23.0826 154.201 24.1353 155.159 24.9505C155.459 25.2056 155.766 25.4776 156.075 25.7631C156.804 24.5513 158.224 23.8001 160.321 23.5222C161.945 23.3066 162.903 22.4695 163.917 21.5827C164.949 20.6808 166.017 19.7485 167.792 19.4454C170.625 18.9586 172.691 20.3161 173.93 23.47C174.588 25.1467 176.003 25.9155 178.135 25.7715C180.682 25.588 182.497 27.0819 183.52 30.1962C183.996 31.648 184.8 32.3142 185.652 33.0199C186.175 33.4536 186.708 33.8957 187.128 34.5155C189.1 33.9555 190.974 34.6326 192.991 36.5771C193.317 36.892 193.51 36.8643 193.573 36.8558C194.173 36.7733 194.91 35.516 195.622 34.3008C196.222 33.2792 196.841 32.2224 197.593 31.3971C198.717 30.165 200.221 29.6715 201.168 30.2273C201.649 30.5086 202.355 31.2851 201.688 33.3197C201.564 33.6986 201.455 34.2014 201.643 34.4481C201.957 34.8608 203.187 34.7976 204.27 34.7437C205.255 34.6932 206.275 34.6418 207.157 34.8381C208.264 35.0848 208.98 35.5598 209.346 36.2891C209.954 37.4992 209.467 39.1086 208.484 41.3133C208.082 42.2144 208.639 43.2317 209.283 44.409C209.61 45.0061 209.968 45.6604 210.23 46.3704C211.252 46.7274 212.289 47.3523 213.262 48.2197C214.968 49.7398 217.433 49.1461 220.044 48.517L220.479 48.4126C222.008 48.0462 223.441 48.2778 224.511 49.0602C225.547 49.8181 226.154 51.0409 226.27 52.5972C226.379 54.0633 225.819 55.5809 224.815 56.7043C225.868 57.9507 226.626 59.7318 226.697 62.1302C226.766 64.4133 225.684 66.6567 223.802 68.1313C222.017 69.531 219.821 70.0043 217.779 69.4308C217.125 69.2472 216.533 69.0737 215.993 68.9154C215.861 68.8766 215.732 68.8396 215.605 68.8025C215.338 69.9453 214.615 70.9087 213.516 71.5437C211.491 72.7151 210.076 71.921 209.479 70.8851C208.876 69.8384 208.945 68.2922 210.107 67.6202C211.448 66.8462 212.702 67.0003 214.76 67.5654C214.671 65.93 213.57 64.3518 212.095 63.7379C210.483 63.0658 208.724 63.1265 207.273 63.9038C206.194 64.4806 204.8 65.711 204.286 68.2956C203.809 70.6948 204.395 71.8848 204.962 73.0351C205.461 74.0491 205.977 75.0967 205.51 76.7439C205.022 78.4627 205.415 79.5474 205.831 80.1546C206.284 80.8165 206.986 81.2376 207.76 81.3092C209.239 81.4465 210.684 79.4859 212.077 77.5894L212.194 77.4303C213.607 75.5085 214.975 75.1607 215.866 75.2045C217.15 75.2685 218.376 76.1797 219.319 77.7697C219.562 78.1806 219.736 78.296 219.799 78.2985H219.805C220.051 78.2985 220.595 77.5566 220.993 77.0134C222.072 75.5414 223.55 73.5261 226.208 73.4629C228.103 73.4301 230.539 74.295 231.4 78.723C231.702 80.2725 232.533 81.0481 233.417 81.6957C234.82 80.4889 236.978 80.2843 238.41 80.7155C240.933 81.4734 242.557 83.8306 242.865 87.1806C242.983 88.4573 243.434 89.4165 243.871 90.3437C244.313 91.2844 244.731 92.1728 244.766 93.2836C244.822 95.0993 244.071 96.9133 242.701 98.2885C243.972 99.5643 244.788 101.037 244.773 102.15C244.764 102.796 245.26 103.304 245.887 103.949C246.663 104.744 247.628 105.736 247.891 107.374C248.144 108.953 249.124 109.492 250.163 110.061C250.84 110.432 251.532 110.812 251.942 111.478C252.391 110.918 253.121 110.23 254.176 109.878C255.472 109.445 256.921 109.626 258.486 110.415C259.147 110.216 261.258 109.71 263.17 110.671C264.501 111.338 265.441 112.564 265.965 114.312C266.652 116.609 266.015 119.102 264.299 120.817C263.2 121.916 261.835 122.549 260.42 122.658C260.817 123.786 260.931 125.149 260.752 126.696C260.662 127.467 260.53 128.601 260.605 128.948C260.81 128.918 261.267 128.734 261.676 128.568C262.078 128.405 262.579 128.202 263.175 127.993C265.225 127.275 270.45 126.22 274.676 131.951C277.637 135.967 278.815 136.53 279.955 137.076L280.001 137.098C281.852 137.985 282.999 139.335 282.997 140.621C282.996 141.438 282.533 142.108 281.694 142.507C279.344 143.624 277.658 143.866 274.866 144.268C273.286 144.495 271.32 144.777 268.659 145.304C268.389 145.358 268.121 145.399 267.856 145.427C268.267 145.73 268.666 146.104 269.042 146.564C271.143 149.137 271.373 152.312 269.659 155.057C267.937 157.813 264.692 159.249 261.767 158.551C259.798 158.082 258.517 157.233 257.486 156.55C256.01 155.573 255.119 154.982 253.175 155.879C249.413 157.616 245.322 156.684 243.229 153.611C242.257 152.185 242.033 150.066 242.63 147.943C242.781 147.404 242.98 146.888 243.22 146.398C241.531 144.707 241.095 141.961 240.77 139.911C240.714 139.553 240.659 139.21 240.601 138.89C240.109 136.159 238.815 134.618 236.955 134.549C235.104 134.489 233.082 135.975 232.628 137.746C232.13 139.689 233.4 140.678 234.87 141.823C235.847 142.584 236.856 143.37 237.417 144.502C238.296 146.272 238.354 148.099 237.58 149.645C236.86 151.083 235.465 152.117 233.849 152.412C232.92 152.581 232.597 153.176 232.149 154C231.389 155.399 230.442 157.142 226.259 157.358C224.006 157.476 222.496 156.268 221.164 155.205C219.658 154 218.468 153.049 216.512 153.974C213.101 155.589 210.933 155.579 208.513 153.938C206.301 152.44 205.033 151.75 202.599 153.721C200.703 155.256 198.674 155.91 197.034 155.514C195.756 155.206 194.737 154.267 194.087 152.801C193.791 152.134 193.625 151.48 193.558 150.855C193.061 150.593 192.59 150.243 192.178 149.813C190.637 148.204 190.337 145.964 191.355 143.668C192.292 141.557 192.504 140.081 192.006 139.156C191.55 138.312 190.454 137.791 188.451 137.466C187.022 137.233 186.059 136.486 185.208 135.827C184.062 134.939 183.073 134.173 181.082 134.523C179.29 134.837 177.853 135.942 177.33 137.407C176.934 138.519 177.14 139.662 177.898 140.544C178.705 141.485 179.968 141.509 181.429 141.537C183.23 141.571 185.27 141.61 186.543 143.636C187.662 145.418 187.655 147.674 186.525 149.673C186.5 149.716 186.475 149.76 186.449 149.804C188.01 150.398 188.915 151.331 188.935 152.37C188.963 153.846 187.254 155.307 183.854 156.716C179.66 158.452 174.301 157.53 172.17 152.404C172.032 152.072 171.898 151.743 171.767 151.418C170.402 148.039 169.426 145.989 166.676 146.371C165.099 146.591 164.089 147.365 163.112 148.112C162 148.963 160.85 149.84 159.068 149.541C156.915 149.176 155.094 147.65 154.197 145.458C154.049 145.096 153.931 144.727 153.842 144.355C153.325 144.269 152.814 144.138 152.334 143.966C152.061 146.917 151.514 150.184 150.888 151.713C150.277 153.206 149.591 154.79 148.895 156.216C147.255 170.798 147.866 183.494 148.088 185.5C148.342 187.807 148.214 188.629 147.578 188.757C147.106 188.853 146.321 189.013 143.756 180.524C143.505 182.156 143.443 186.132 144.264 191.343C144.482 192.726 143.992 193.212 143.543 193.377C142.25 193.848 139.946 191.875 138.689 189.802C138.587 189.635 138.502 189.509 138.432 189.417C138.363 190.252 138.579 192.251 139.06 194.248C139.213 194.883 139.376 194.989 139.407 195.004C139.527 195.063 139.881 194.895 140.165 194.76C140.925 194.401 142.074 193.857 143.231 195.025C144.73 196.54 145.991 197.223 146.69 196.909C147.288 196.637 147.611 195.532 147.512 194.093C147.414 192.674 147.863 192.296 148.508 191.916C149.077 191.581 149.855 191.123 150.176 187.964C150.414 185.622 150.736 184.771 151.407 184.712C152.326 184.624 152.833 186.121 154.052 190.402L154.144 190.725C154.343 191.423 154.948 193.547 155.61 193.681C156.299 193.819 157.746 192.018 158.29 191.34C159.118 190.309 159.912 189.909 160.522 190.207C161.181 190.529 161.327 191.488 160.957 193.055C160.81 193.676 160.923 193.932 161.052 194.101C161.633 194.859 163.935 195.26 168.518 195.399C171.273 195.483 173.989 195.811 176.384 196.1C179.897 196.524 182.932 196.892 183.95 196.186C184.224 195.996 184.489 195.807 184.738 195.628C186.074 194.674 186.628 194.279 187.085 194.654C187.492 194.988 187.226 195.589 187.097 195.878C187.085 195.906 187.082 195.923 187.082 195.927C187.318 196.527 190.693 196.834 197.112 196.834H193.11C193.374 196.834 193.588 197.048 193.588 197.312C193.588 197.575 193.374 197.79 193.11 197.79H197.112C189.573 197.79 186.942 197.464 186.284 196.449C186.159 196.257 186.109 196.039 186.133 195.818C185.87 195.994 185.565 196.213 185.293 196.407C185.04 196.588 184.771 196.78 184.494 196.972C183.177 197.885 180.279 197.533 176.27 197.05C173.894 196.763 171.201 196.438 168.488 196.355C163.328 196.198 161.107 195.745 160.293 194.682C159.811 194.053 159.911 193.325 160.027 192.833C160.369 191.38 160.099 191.064 160.096 191.061C160.041 191.063 159.657 191.164 159.034 191.94C157.579 193.751 156.468 194.83 155.419 194.619C154.395 194.411 153.82 193.075 153.225 190.987L153.133 190.664C152.66 189.001 151.971 186.582 151.514 185.836C151.412 186.118 151.261 186.734 151.127 188.06C150.786 191.423 149.922 192.193 148.992 192.741C148.574 192.987 148.401 193.089 148.465 194.026C148.598 195.953 148.094 197.321 147.083 197.779C145.953 198.294 144.427 197.592 142.551 195.697C141.903 195.041 141.376 195.243 140.572 195.623C140.056 195.868 139.522 196.119 138.994 195.866C138.587 195.671 138.312 195.228 138.13 194.47C137.901 193.521 136.822 188.763 138.032 188.263C138.704 187.984 139.244 188.875 139.504 189.303C140.723 191.315 142.652 192.688 143.213 192.476C143.332 192.432 143.416 192.105 143.319 191.49C142.521 186.428 142.17 179.243 143.586 178.92C144.226 178.771 144.479 179.612 144.562 179.887C145.979 184.621 146.824 186.554 147.25 187.333C147.253 186.98 147.228 186.436 147.136 185.603C146.925 183.689 146.361 172.134 147.696 158.469C146.763 160.052 145.882 161.083 145.213 160.938C144.428 160.77 144.359 159.609 144.395 158.496C144.424 157.612 144.469 156.628 144.515 155.599C144.706 151.369 144.992 144.975 144.004 144.037C143.952 143.988 143.928 143.992 143.907 143.993C142.716 144.111 141.546 149.424 140.432 159.784C139.07 172.432 138.625 172.402 138.01 172.37C137.39 172.333 136.942 172.305 137.119 159.127C137.287 146.542 136.158 137.74 135.181 132.575C135.031 131.781 134.883 131.334 134.776 131.089C134.58 131.694 134.368 133.192 134.498 135.833C134.538 136.651 134.153 137.197 133.442 137.334C131.655 137.672 127.491 135.068 124.545 132.014C123.625 133.225 122.389 134.038 121.044 134.186C118.67 134.444 116.691 132.582 115.752 129.201C114.891 126.099 113.366 121.66 112.526 119.866C112.105 122.62 109.843 126.452 106.219 127.226C103.975 127.705 103.081 126.51 102.132 125.247C101.303 124.142 100.363 122.889 98.2694 122.167C91.4868 119.829 84.1789 118.15 77.7711 117.01C76.0632 117.894 72.6803 117.901 67.3795 117.056C59.3756 115.781 59.2218 115.297 59.11 114.944C59.0478 114.747 59.1025 114.533 59.2529 114.386C59.9766 113.678 67.9098 114.266 77.5895 116C77.8081 115.848 77.9383 115.689 78.0148 115.541C78.7528 114.112 75.9691 111.252 74.7798 110.03C73.9268 109.155 73.6696 108.89 73.9763 108.499C74.3041 108.083 74.6672 108.297 76.1977 109.204C83.5611 113.567 86.7154 114.735 93.0618 116.24C94.0964 116.486 95.2294 116.787 96.3254 117.078C99.826 118.008 104.62 119.283 105.467 118.219C105.72 117.9 105.589 117.211 105.099 116.279C103.209 112.688 97.365 105.805 92.513 100.988C90.5101 101.586 88.451 101.977 85.4564 101.131C82.6013 100.324 81.8852 98.9024 81.7121 98.1259C81.4977 97.1659 81.8541 96.1713 82.6643 95.4673C83.6737 94.5906 85.1446 94.3649 86.5036 94.8803C87.8307 95.3831 90.1656 97.3327 92.7836 99.9012C92.94 99.8523 93.0963 99.8027 93.2551 99.7521C95.1454 99.1508 97.2869 98.467 100.354 98.6557C107.14 99.0683 116.717 104.877 121.069 109.832C122.067 110.967 123.248 112.506 124.5 114.136C126.615 116.891 130.563 122.014 131.564 121.604C131.623 121.58 132.13 121.285 131.779 118.416C131.456 115.765 131.224 113.637 131.085 111.938C126.798 106.323 119.834 99.0456 115.152 94.1527C114.366 93.3316 113.653 92.5863 113.031 91.9303C112.04 92.1349 111.047 92.2208 110.095 92.1669C107.806 92.0415 105.893 91.1656 104.56 89.6355C102.858 87.6792 103.539 86.7023 103.911 86.3738C105.261 85.1797 109.19 86.2753 111.851 89.2573C112.23 89.6826 112.737 90.2283 113.351 90.8776C115.335 90.3799 117.277 89.3685 118.76 88.0009C121.372 85.5906 124.818 84.6803 125.95 85.1342C126.388 85.3102 126.456 85.6471 126.465 85.7835C126.495 86.2576 126.087 86.7056 125.14 87.2354C123.643 88.0733 122.757 90.0675 122.984 92.0844C123.261 94.5317 125.03 96.4055 127.839 97.2274C130.739 98.0763 133.065 97.779 134.751 96.3448C134.905 96.2143 135.19 95.9701 135.511 96.2C135.834 96.4324 135.712 96.7431 135.555 97.1356L135.445 97.416C135.263 97.8851 135.326 98.5546 135.612 99.2064C136.083 100.276 137.071 101.167 138.322 101.651C139.421 102.076 139.653 103.34 139.857 104.454C140.098 105.769 140.251 106.078 140.647 106.024C141.147 105.955 141.567 105.59 141.93 104.908C142.82 103.231 143.062 100.184 143.035 97.5205C142.465 95.9591 142.181 94.2218 142.309 92.6849C142.338 92.3455 142.39 91.7147 142.917 91.7147C142.92 91.7147 142.921 91.7147 142.924 91.7147C143.295 91.7181 143.679 91.7223 143.914 95.4698C143.942 95.9288 143.974 96.5747 143.986 97.3284C144.422 98.4788 145.022 99.5113 145.722 100.226C146.439 100.959 147.194 101.305 147.96 101.258C150.889 101.074 151.141 98.5066 151.149 95.8918C151.152 94.8214 151.154 94.1746 151.678 93.9826C152.189 93.794 152.643 94.3296 152.887 94.6167C154.561 96.5882 155.189 101.485 153.345 107.073C154.58 105.864 156.545 103.828 158.348 101.959C166.395 93.6196 166.487 93.7055 167.008 94.1662C167.516 94.6193 167.772 94.8466 155.155 110.349C153.939 111.843 152.389 113.508 150.749 115.27C147.53 118.728 144.2 122.304 143.229 124.787C143.105 125.103 143.056 125.301 143.037 125.417C143.606 125.276 145.075 124.351 146.28 123.592C148.174 122.4 150.532 120.915 152.867 119.96C154.936 119.114 155.36 118.048 155.809 116.918C156.405 115.421 157.02 113.874 160.912 113.016C161.924 112.793 162.7 112.473 163.296 112.112C162.916 110.265 163.138 108.445 163.921 107.559C164.312 107.116 164.816 106.969 165.27 107.166C165.923 107.451 166.306 108.388 166.203 109.447C166.151 109.987 165.867 111.374 164.382 112.527C164.432 112.701 164.487 112.874 164.55 113.046C164.934 114.104 165.868 115.921 167.814 116.213C170.724 116.652 176.433 111.508 179.496 108.745C180.376 107.951 181.07 107.324 181.48 107.027C183.401 105.627 183.775 105.375 184.15 105.774C184.506 106.154 184.264 106.449 183.246 107.688C181.769 109.488 178.757 113.157 179.32 115.142C181.163 114.301 182.988 114.217 184.939 114.829C185.799 115.098 186.77 115.505 186.653 116.276C186.487 117.365 183.971 117.61 183.102 117.61C181.085 117.61 179.723 117.218 178.972 116.417C177.564 117.237 175.974 118.622 174.152 120.853C169.84 126.131 165.052 128.609 159.084 128.648C158.699 128.649 158.219 128.635 157.677 128.617C153.967 128.498 147.063 128.279 146.069 133.311C145.196 137.731 147.288 139.237 149.132 140.565C149.539 140.858 149.931 141.14 150.276 141.442C150.992 138.172 151.344 138.066 151.607 137.989C151.815 137.927 152.037 137.991 152.187 138.158C152.551 138.561 152.588 140.571 152.414 142.969C152.804 143.127 153.229 143.257 153.672 143.351C153.503 141.641 153.944 139.93 154.963 138.516C156.555 136.305 157.815 136.519 158.424 136.843C159.725 137.537 160.17 139.906 159.396 142.018C158.942 143.256 157.909 144.063 156.409 144.351C155.919 144.446 155.395 144.477 154.858 144.455C154.921 144.667 154.995 144.878 155.08 145.087C155.851 146.971 157.402 148.28 159.227 148.59C160.598 148.825 161.452 148.169 162.531 147.343C163.556 146.559 164.717 145.67 166.543 145.415C170.174 144.905 171.376 147.892 172.652 151.05C172.782 151.372 172.914 151.699 173.051 152.026C175.029 156.785 179.847 157.33 183.488 155.822C187.567 154.132 187.987 152.851 187.978 152.379C187.966 151.75 187.247 151.111 186.054 150.67C185.995 150.648 185.937 150.627 185.878 150.607C185.095 151.56 184.136 152.138 183.301 152.124C182.671 152.11 182.152 151.763 181.839 151.147C181.499 150.477 181.752 150.036 181.933 149.832C182.523 149.167 184.067 149.148 185.505 149.503C185.569 149.403 185.632 149.299 185.693 149.192C186.647 147.506 186.662 145.616 185.733 144.138C184.735 142.55 183.12 142.519 181.41 142.486C179.861 142.456 178.258 142.426 177.172 141.16C176.185 140.01 175.914 138.521 176.43 137.076C177.068 135.289 178.787 133.946 180.917 133.571C183.325 133.151 184.579 134.121 185.792 135.062C186.626 135.707 187.413 136.318 188.604 136.513C190.168 136.768 192.064 137.245 192.845 138.693C193.504 139.913 193.308 141.615 192.229 144.05C191.375 145.971 191.609 147.828 192.868 149.143C193.076 149.36 193.303 149.552 193.543 149.719C193.641 148.471 194.111 147.409 194.657 146.702C195.391 145.753 196.342 145.273 197.201 145.417C198.165 145.579 198.869 146.456 198.995 147.65C199.131 148.937 198.535 150.526 196.898 151.176C196.2 151.453 195.389 151.467 194.588 151.253C194.665 151.629 194.786 152.015 194.96 152.405C195.493 153.606 196.266 154.336 197.258 154.576C198.607 154.903 200.335 154.316 201.998 152.969C204.88 150.634 206.661 151.52 209.047 153.137C211.166 154.572 213.013 154.563 216.104 153.1C218.598 151.919 220.205 153.205 221.76 154.448C223.017 155.452 224.315 156.502 226.21 156.393C229.858 156.204 230.596 154.846 231.31 153.533C231.795 152.638 232.299 151.712 233.677 151.461C234.999 151.221 236.139 150.378 236.725 149.207C237.36 147.936 237.302 146.414 236.561 144.92C236.096 143.982 235.174 143.265 234.282 142.57C232.765 141.389 231.047 140.05 231.701 137.499C232.268 135.292 234.68 133.492 236.989 133.584C238.087 133.625 240.73 134.205 241.541 138.711C241.6 139.038 241.655 139.388 241.713 139.752C242.031 141.751 242.397 144.062 243.708 145.521C244.596 144.133 245.854 143.027 247.358 142.35C249.244 141.501 250.26 142.104 250.697 142.538C251.416 143.254 251.563 144.495 251.064 145.628C250.389 147.16 248.848 148.017 246.93 147.923C245.71 147.862 244.746 147.529 243.98 147.017C243.808 147.393 243.664 147.786 243.549 148.194C243.035 150.02 243.214 151.886 244.017 153.063C245.842 155.742 249.444 156.539 252.774 155.001C255.2 153.881 256.503 154.744 258.012 155.743C259.03 156.417 260.183 157.181 261.987 157.611C264.52 158.215 267.341 156.951 268.848 154.539C270.335 152.159 270.13 149.401 268.301 147.161C267.438 146.105 266.432 145.58 265.435 145.319C265.293 145.291 265.152 145.258 265.013 145.223C264.191 145.064 263.389 145.059 262.696 145.054C261.652 145.048 260.897 145.043 260.541 144.486C260.238 144.012 260.454 143.405 260.642 142.989C260.737 142.779 260.822 142.577 260.899 142.381C260.288 141.526 259.827 140.512 259.555 139.365C259.173 137.757 259.798 137.185 260.086 137.014C260.529 136.75 261.086 136.838 261.54 137.244C262.328 137.951 262.837 139.635 261.98 142.203C263.502 144.023 265.867 144.874 268.475 144.356C271.162 143.825 273.141 143.54 274.732 143.312C277.436 142.924 279.068 142.689 281.286 141.634C281.788 141.394 282.042 141.051 282.043 140.611C282.044 139.874 281.286 138.765 279.59 137.953L279.544 137.931C278.358 137.362 277.012 136.718 273.909 132.511C270.061 127.294 265.342 128.24 263.492 128.889C262.917 129.09 262.429 129.289 262.036 129.447C261.027 129.855 260.471 130.08 260.016 129.732C259.504 129.342 259.577 128.532 259.804 126.577C259.987 125.013 259.844 123.677 259.392 122.637C259.025 122.599 258.659 122.526 258.296 122.416C257.144 122.067 254.188 120.919 254.338 119.815C254.368 119.591 254.529 119.215 255.272 119.197C256.919 119.171 258.365 119.743 259.365 120.842C259.603 121.104 259.813 121.394 259.993 121.708C261.31 121.703 262.601 121.155 263.627 120.13C265.114 118.642 265.647 116.567 265.052 114.578C264.608 113.096 263.834 112.068 262.751 111.521C260.871 110.574 258.632 111.365 258.61 111.372C258.483 111.417 258.342 111.408 258.223 111.345C256.832 110.607 255.577 110.415 254.49 110.773C252.962 111.277 252.253 112.728 252.246 112.742C252.154 112.933 251.946 113.041 251.738 113.008C251.529 112.974 251.367 112.807 251.341 112.596C251.236 111.767 250.68 111.424 249.707 110.89C248.624 110.297 247.277 109.558 246.95 107.516C246.736 106.177 245.957 105.378 245.206 104.607C244.487 103.869 243.807 103.17 243.821 102.126C243.832 101.3 243.118 100.038 241.985 98.9125C240.581 100.003 238.855 100.541 237.142 100.406C235.426 100.271 234.827 99.4178 234.623 98.9218C234.316 98.1756 234.491 97.2855 235.081 96.5991C235.837 95.7183 237.054 95.3806 238.336 95.6972C239.671 96.0256 240.942 96.7465 241.998 97.6308C243.202 96.4383 243.863 94.8669 243.813 93.3022C243.785 92.3893 243.425 91.6254 243.009 90.7404C242.559 89.7845 242.05 88.7015 241.916 87.2564C241.646 84.3148 240.268 82.2608 238.138 81.6199C237.047 81.2924 235.367 81.4204 234.23 82.2583C234.942 82.7703 235.62 83.3472 235.947 84.2845C236.463 85.7616 235.985 86.5667 235.655 86.9145C235.2 87.3937 234.502 87.5688 233.829 87.3709C233.009 87.1301 232.409 86.4067 232.224 85.4365C231.963 84.0655 232.297 83.0794 232.771 82.3964C231.793 81.6713 230.822 80.7382 230.463 78.8939C229.865 75.8226 228.48 74.3649 226.231 74.4078C224.042 74.4592 222.778 76.1831 221.763 77.5676C221.062 78.5242 220.516 79.2779 219.752 79.2417C219.138 79.2114 218.741 78.659 218.496 78.2455C217.723 76.9402 216.771 76.1949 215.818 76.1469C214.875 76.0997 213.882 76.7347 212.963 77.9844L212.846 78.1436C211.295 80.254 209.689 82.4326 207.671 82.249C206.615 82.1505 205.657 81.5804 205.042 80.6826C204.511 79.9062 204.002 78.5444 204.591 76.4686C204.957 75.1767 204.582 74.4129 204.105 73.4453C203.528 72.273 202.808 70.8127 203.35 68.0951C203.808 65.7919 205.042 63.9981 206.824 63.0456C208.53 62.1336 210.585 62.0595 212.463 62.8402C214.277 63.5956 215.583 65.4483 215.712 67.4509C215.721 67.5772 215.724 67.7027 215.722 67.8256C215.897 67.877 216.076 67.9292 216.262 67.984C216.8 68.1414 217.388 68.3132 218.038 68.496C219.784 68.9861 221.671 68.5735 223.213 67.3641C224.857 66.0765 225.802 64.1253 225.742 62.1462C225.684 60.184 225.114 58.5309 224.133 57.3367C223.99 57.4504 223.84 57.5582 223.687 57.6568C222.402 58.4821 220.983 58.5772 219.795 57.917C218.093 56.9721 218.265 55.991 218.418 55.6129C218.792 54.6882 220.209 54.204 221.514 54.5602C222.407 54.8019 223.329 55.2727 224.143 56.0003C224.946 55.0705 225.405 53.8242 225.317 52.6544C225.223 51.387 224.749 50.4068 223.947 49.8189C223.119 49.2134 221.935 49.0341 220.7 49.3297L220.268 49.4332C217.533 50.0935 214.706 50.7748 212.627 48.9212C211.957 48.3233 211.248 47.8525 210.542 47.5241C210.672 48.3351 210.621 49.2084 210.238 50.1465C209.279 52.5028 207.397 53.0982 206.053 52.6553C204.908 52.2772 203.898 50.9971 204.387 49.0804C204.757 47.6243 205.684 46.6003 206.996 46.1977C207.643 45.9998 208.347 45.9594 209.076 46.068C208.884 45.6571 208.664 45.2545 208.445 44.8553C207.71 43.513 207.016 42.2439 207.611 40.9082C208.341 39.2694 208.954 37.6255 208.492 36.7051C208.262 36.2486 207.758 35.9387 206.949 35.7585C206.193 35.5901 205.239 35.6381 204.318 35.6853C202.871 35.7594 201.502 35.8284 200.882 35.0149C200.524 34.5441 200.49 33.8873 200.779 33.0056C201.108 32.0017 201.073 31.2665 200.685 31.0391C200.217 30.7655 199.146 31.0973 198.298 32.0287C197.613 32.7799 197.019 33.7921 196.444 34.7715C195.541 36.3126 194.76 37.6441 193.702 37.7898C193.227 37.8538 192.765 37.6744 192.327 37.2525C190.632 35.6187 189.152 35.0056 187.578 35.3737C187.632 35.5151 187.681 35.6642 187.723 35.8234C188.193 37.5733 187.785 39.5532 186.73 40.6387C186.067 41.32 185.221 41.5811 184.351 41.3697C183.569 41.1811 183.033 40.5958 182.879 39.7654C182.655 38.5502 183.309 36.7135 184.992 35.5539C185.4 35.2726 185.802 35.0385 186.199 34.8524C185.876 34.4364 185.475 34.1037 185.042 33.7441C184.166 33.0182 183.173 32.1963 182.611 30.4816C181.73 27.8003 180.289 26.5606 178.201 26.7131C175.678 26.884 173.845 25.8574 173.04 23.8077C171.96 21.0581 170.343 19.9675 167.951 20.3759C166.441 20.6336 165.52 21.4387 164.544 22.291C163.468 23.2316 162.355 24.2043 160.445 24.4578C158.25 24.7492 157.226 25.5206 156.775 26.4259C158.877 28.5321 160.837 31.2707 160.858 34.1744C160.874 36.3446 159.969 38.3388 158.375 39.6467C157.015 40.7625 155.3 41.24 153.787 40.9234C152.32 40.6168 151.308 39.7427 151.078 38.5839C150.83 37.3325 151.54 36.0339 153.025 35.0208C155.777 33.1428 155.638 30.7385 155.517 28.618L155.506 28.4167C155.47 27.7817 155.525 27.2057 155.67 26.6895C155.269 26.3046 154.883 25.961 154.538 25.668C153.373 24.6768 152.957 23.3866 152.591 22.2489C152.539 22.0872 152.488 21.9288 152.435 21.7739C151.915 21.7512 151.373 21.6956 150.808 21.6029C148.279 21.1869 147.651 20.2471 147.502 19.7233C147.37 19.2618 147.515 18.7893 147.89 18.4609C148.536 17.895 149.694 17.8529 150.841 18.3531C152.114 18.9089 152.705 19.8294 153.107 20.8282C156.053 20.7978 158.113 19.6138 159.145 18.3413C159.889 17.4251 160.148 16.4019 159.842 15.6027C158.969 13.3339 157.661 12.3604 156.278 11.3305C154.648 10.1161 152.962 8.86131 151.864 5.56179C151.245 3.7015 150.217 2.46186 148.97 2.07111C147.994 1.76541 146.947 2.0029 145.942 2.75661L145.412 3.15579C143.595 4.53101 142.282 5.52474 140.998 4.83081C139.072 3.78655 137.738 4.14699 136.677 5.99802C135.184 8.60193 133.055 9.40533 130.838 8.20107L130.659 8.10422C128.955 7.17534 126.382 5.77233 124.442 6.8528C123.263 7.50883 122.988 9.14848 122.72 10.7334C122.486 12.1263 122.265 13.4417 121.386 14.043C120.945 14.3453 120.387 14.4279 119.728 14.2898C117.466 13.8173 115.634 14.1921 114.829 15.2936C114.082 16.3168 114.259 17.927 115.327 19.8277C115.85 20.7591 116.607 21.5625 117.478 22.2126C117.997 21.9802 118.532 21.6846 119.08 21.3276C121.534 19.7266 123.853 19.2988 125.286 20.1822C126.092 20.6799 126.49 21.544 126.377 22.552C126.242 23.774 125.349 24.6422 123.926 24.9328C122.051 25.3151 119.468 24.7138 117.35 23.3007C115.837 23.8784 114.43 23.9694 113.201 23.5584C111.61 23.0262 110.385 21.688 109.659 19.6904C109.18 18.375 108.461 17.5514 107.634 17.372C106.905 17.2162 106.108 17.5539 105.326 18.3539C105.139 18.5451 104.91 18.839 104.668 19.1506C103.907 20.1275 103.048 21.2391 102.062 21.1549C101.572 21.1145 101.159 20.7903 100.835 20.1915C100.281 19.1708 99.5587 18.6243 98.7468 18.61C98.7359 18.61 98.7249 18.61 98.714 18.61C97.7307 18.61 96.6717 19.3738 95.943 20.6117C95.8337 20.7978 95.7261 20.9848 95.6194 21.1718C94.5234 23.0801 93.3896 25.054 90.2 25.7715C88.3569 26.1859 87.0726 27.4314 86.9289 28.9439C86.7633 30.6871 88.1055 32.3563 90.5185 33.4089C91.1842 33.6995 91.7793 33.8351 92.3062 33.8654C92.3289 31.8341 93.4199 30.1347 94.7285 29.6589C95.9346 29.2218 96.4876 29.7684 96.67 30.0244C97.197 30.7655 96.9423 32.0893 96.0665 33.1723C95.7379 33.5782 94.831 34.5189 93.335 34.7741C93.3652 34.9425 93.4039 35.1126 93.4526 35.2852C94.0712 37.4655 95.5614 37.7005 97.8155 38.0567L97.9307 38.0744C100.747 38.5207 102.637 40.8316 102.328 43.449C102.191 44.6035 101.632 45.4987 100.753 45.9712C99.6511 46.5632 98.1795 46.4512 96.6078 45.6554C95.8051 45.2486 94.921 45.1156 94.0712 45.188C94.0469 46.2626 93.7208 47.2731 93.1106 48.0993C91.9062 49.7314 90.6841 49.7524 90.0025 49.2749C89.3276 48.8016 89.0217 47.6757 89.784 46.5194C90.4404 45.524 91.6717 44.7366 93.0727 44.4014C93.04 44.153 92.9887 43.902 92.9181 43.6502C92.4727 42.0594 91.3254 40.7499 89.8479 40.1469C87.5903 39.2256 87.081 38.1409 86.6314 37.1843C86.3683 36.6259 86.1422 36.1434 85.569 35.6903C84.4823 34.833 83.3073 34.7421 82.3634 34.6688C81.5524 34.6056 80.8523 34.5517 80.4875 33.9959C80.2009 33.5605 80.2185 32.9415 80.5438 31.9882C81.4145 29.4323 81.1405 26.9691 79.8613 25.86C78.8914 25.0187 77.3996 25.0481 75.6607 25.94C74.0789 26.7518 73.1493 27.9956 72.2492 29.1965C71.117 30.7099 70.0513 32.1339 67.9249 32.0548C66.5508 32.0017 65.4632 32.4388 64.6984 33.3593C64.4832 33.6178 64.305 33.9008 64.1604 34.1963C64.7597 35.0149 65.1413 35.9488 65.2144 36.8424C65.3598 38.6142 65.0707 39.5684 64.3554 39.6779C63.6915 39.7798 63.1115 39.037 62.8081 37.6896C62.6047 36.7851 62.6426 35.5311 63.0611 34.358C62.8594 34.1315 62.6383 33.9201 62.4005 33.7306C61.5693 33.0704 60.148 32.3436 58.088 32.651C54.4017 33.1967 53.5654 37.314 53.5579 37.3552C53.515 37.575 53.3267 37.7359 53.104 37.7426C52.0912 37.7746 51.081 38.5755 50.5322 39.784C49.8245 41.3402 50.0783 43.0995 51.2113 44.4899C52.2425 45.7556 54.0924 46.0074 55.5784 46.2095C56.8441 46.3821 57.8434 46.5177 58.1628 47.2555C58.4351 47.8845 58.0157 48.5953 57.6762 49.0753C56.5247 50.704 56.1978 52.4666 56.8223 53.6751C57.2904 54.5821 58.2334 55.0613 59.5471 55.0613H59.5513C60.986 55.0604 61.8458 54.5156 62.9342 53.8259C63.9671 53.1715 65.1379 52.4304 67.0416 52.0018C69.0688 51.5462 70.9666 52.102 72.2458 53.5269C73.5956 55.0301 73.9755 57.1911 73.2611 59.3057C72.6307 61.1719 71.2028 62.2978 69.4411 62.3155C69.0839 62.313 68.7293 62.2759 68.388 62.1917C68.2359 62.6237 68.0182 63.0288 67.7367 63.3943C66.8214 64.5792 65.3632 65.1434 63.736 64.9497C61.8643 64.7232 60.7195 63.4364 59.6118 62.1917C58.7125 61.1803 57.7829 60.1343 56.4365 59.5971C55.4288 59.1945 54.59 59.213 53.9445 59.651C52.8569 60.3895 52.2333 62.3458 52.2341 65.0179C52.2341 67.4888 51.4382 68.8379 50.5952 70.267C50.2002 70.9374 49.7909 71.6304 49.4437 72.4802C48.9 73.8116 48.889 74.8752 49.4143 75.3266C49.8732 75.7216 50.7482 75.6281 51.6433 75.0883L51.8576 74.9577C53.0158 74.2487 55.1699 72.9307 57.9468 73.7021C59.964 74.2638 61.181 75.5742 61.0473 77.0429C60.9297 78.3331 59.6395 79.9432 56.3903 80.2346C54.5211 80.4022 52.7922 81.2292 51.5096 82.5261C53.6394 84.41 56.3323 84.4731 59.6807 83.9704C62.6224 83.5316 65.2942 84.5607 66.8315 86.7267C68.2981 88.795 68.4158 91.4781 67.145 93.9034C66.0086 96.072 63.9117 97.2476 61.3835 97.1651C60.0152 97.1129 58.7032 96.6943 57.5997 96.0063C57.2391 96.4526 56.7525 96.7878 56.1549 96.9798C54.0294 97.6645 50.9995 96.301 49.3202 92.3758C47.9586 89.1942 48.0435 86.0395 49.5589 83.4962C49.7497 83.1762 49.9606 82.8705 50.1892 82.58C47.6687 80.1976 44.9035 80.3812 41.7459 83.1366C40.644 84.0984 39.3992 84.6719 38.1722 84.8521C38.1032 85.2428 38.0099 85.642 37.894 86.0454C37.1459 88.6358 38.0797 90.9534 40.9213 93.5599C43.078 95.5372 42.6082 96.9621 42.3064 97.4834C41.4366 98.9849 38.8008 99.2856 35.5902 98.2514C31.7568 97.016 28.8168 97.0034 27.3116 98.2135C26.4526 98.9049 26.0845 99.9702 26.2164 101.382C26.3862 103.196 27.7503 104.307 29.069 105.383C30.3751 106.448 31.7266 107.55 31.3736 109.241C31.1693 110.217 30.2524 110.729 29.2825 111.269C28.2571 111.84 27.1964 112.431 26.698 113.611C26.3778 114.368 26.419 115.631 26.7728 115.901C26.9182 116.011 27.2628 115.878 27.673 115.552C29.9338 113.754 32.2107 113.145 33.7613 113.924C34.7397 114.415 35.2818 115.378 35.2473 116.566C35.1809 118.878 33.9017 119.611 31.5795 120.94L30.9449 121.305C29.933 121.892 29.2934 122.827 29.1724 123.887C30.502 124.096 31.6089 124.918 32.4838 126.352C33.1201 127.395 32.9167 128.151 32.5149 128.51C32.098 128.88 31.292 128.996 30.2776 128.201C29.1043 127.283 28.3857 126.074 28.2285 124.796C27.2292 124.851 26.0803 125.278 24.7599 126.075C24.3464 126.324 23.9354 126.601 23.5378 126.868C21.5585 128.198 19.512 129.572 16.7871 127.95C13.1849 125.809 9.55486 126.264 5.68784 129.343C2.64112 131.767 1.65861 135.343 2.03346 137.638C2.27804 139.135 3.06976 140.197 4.26155 140.628C4.96923 140.884 5.6206 140.951 6.20221 140.877C5.70213 138.756 5.98705 136.8 6.96368 135.965C7.4999 135.505 8.17648 135.442 8.86819 135.789C10.0171 136.364 10.3869 137.777 9.76834 139.223C9.33634 140.234 8.49334 141.103 7.38475 141.546C7.93358 143.47 7.55117 144.675 7.14858 145.948C6.91745 146.677 6.67876 147.43 6.56865 148.413C6.30391 150.774 7.32928 152.239 7.95376 152.362C8.26641 152.428 8.43871 152.053 8.53032 151.732C8.93207 150.322 9.56831 149.544 10.3214 149.54H10.3273C10.8441 149.54 11.567 149.907 12.083 151.645C12.7613 153.931 15.7021 156.588 20.1196 155.34C22.6444 154.628 24.0749 152.498 24.4212 150.614C23.8253 150.517 23.2521 150.329 22.71 150.047C21.2089 149.268 20.6542 148.156 20.6348 147.375C20.6205 146.802 20.8718 146.322 21.3232 146.058C21.6896 145.845 22.5015 145.606 23.8253 146.403C24.8834 147.041 25.4692 148.255 25.4608 149.732C27.2191 149.711 29.1824 148.841 31.1164 147.182C33.2033 145.391 34.9372 144.738 35.8743 145.389C36.334 145.709 36.7551 146.436 36.1517 148.089C35.3927 150.17 35.449 151.85 36.3038 152.585C36.8518 153.056 37.6822 153.079 38.4714 152.645C39.1984 152.245 40.1775 151.038 40.9642 150.068C42.0198 148.766 42.5023 148.17 43.0545 148.406C43.5176 148.603 43.4453 149.196 43.4184 149.418C43.3352 150.104 43.3881 151.011 44.1135 151.438C44.9035 151.904 46.2693 151.691 47.2896 150.947C48.4175 150.122 49.4891 150.177 50.7305 150.242C51.7416 150.295 52.8872 150.354 54.3773 149.958C55.4548 149.672 56.3592 149.249 57.1038 148.753C57.0904 148.717 57.0769 148.68 57.0643 148.643C55.9692 145.579 56.6315 142.61 57.9367 141.761C58.578 141.343 59.3311 141.446 59.9505 142.038C60.8028 142.852 61.0894 144.108 60.7372 145.482C60.4506 146.602 59.6572 147.961 58.262 149.086C58.926 150.643 59.7051 151.558 60.4472 151.632C61.1524 151.701 61.7256 150.931 62.0038 150.465C62.9157 148.942 63.9697 148.057 65.1388 147.836C66.1188 147.652 67.1189 147.946 68.1107 148.714C69.0007 149.403 72.134 151.485 75.058 149.313C76.5289 148.222 76.3616 146.558 76.1994 144.949C76.0767 143.732 75.9615 142.583 76.644 141.827C77.0802 141.343 77.7728 141.108 78.7603 141.108C80.0051 141.108 81.075 140.958 81.9835 140.704C82.097 138.387 83.6779 136.15 85.1109 135.383C85.6581 135.091 86.1935 135.118 86.5801 135.457C87.1222 135.934 87.2205 136.911 86.8314 137.946C86.3422 139.248 85.1 140.606 82.956 141.393C83.0526 142.288 83.4829 143.351 84.779 144.134C85.9354 144.832 86.9213 144.667 87.8753 144.505C88.7889 144.351 89.7327 144.193 90.5421 144.966C91.006 145.409 91.2203 145.942 91.1624 146.51C91.0455 147.656 89.8722 148.888 87.4718 150.385C85.9632 151.327 85.0916 152.692 85.1412 154.036C85.1757 154.955 85.6547 155.723 86.4574 156.145C87.5853 156.739 88.5334 156.472 89.7335 156.134C91.1397 155.739 92.8895 155.247 95.3857 156.117C97.6298 156.898 99.6814 156.812 101.165 155.874C102.3 155.157 102.986 154.005 103.148 152.544C103.214 151.954 103.23 151.426 103.207 150.952C100.711 151.331 98.4694 151.016 97.7702 148.732C97.4836 147.796 97.7071 146.942 98.3837 146.387C99.2326 145.693 100.576 145.648 101.729 146.275C102.376 146.628 103.632 147.586 104.04 149.823C104.718 149.679 105.466 149.484 106.284 149.239C108.59 148.548 109.779 148.744 111.154 148.969C112.009 149.109 112.979 149.268 114.399 149.22C116.01 149.163 117.199 148.788 118.348 148.426C120.608 147.713 122.56 147.099 126.44 149.28C127.185 149.699 127.866 149.918 128.474 149.987C128.463 149.744 128.45 149.506 128.438 149.272C128.218 144.967 128.117 143.002 129.103 142.461C129.698 142.136 130.36 142.522 130.807 142.842C133.267 144.603 133.426 147.395 132.329 149.127C131.74 150.057 130.745 150.764 129.478 150.929C129.539 152.229 129.597 153.648 129.628 155.215C129.815 164.489 128.65 184.103 127.711 187.503C127.57 188.015 127.339 188.61 126.801 188.667C126.147 188.735 125.762 187.995 125.228 186.969C124.98 186.493 124.4 185.378 124.124 185.347C124.128 185.347 124.001 185.387 123.797 185.769C123.316 186.672 122.735 187.13 122.067 187.13H122.038C120.894 187.107 119.736 185.756 118.282 182.75C117.644 181.43 117.27 181.133 117.069 181.117C116.582 181.084 115.645 182.419 114.557 183.972C114.024 184.732 113.421 185.593 112.699 186.559C112.025 187.461 111.161 188.264 110.209 188.942C110.645 189.346 111.112 189.761 111.607 190.163C112.258 190.691 112.831 190.92 113.305 190.85C114.044 190.737 114.605 189.897 115.099 189.155C115.591 188.416 116.042 187.72 116.753 187.73C117.366 187.739 117.787 188.302 118.051 188.724C118.505 189.452 119.133 190.32 119.742 191.16C121.714 193.884 122.889 195.599 122.251 196.524C121.804 197.171 120.782 196.982 120.052 196.781C118.279 196.296 115.419 196.721 112.655 197.131C108.632 197.726 104.833 198.29 104.008 196.087C103.534 194.822 102.381 194.95 100.539 195.311C99.1267 195.587 97.5281 195.901 96.9524 194.5C96.8692 194.297 96.7708 194.166 96.6843 194.141C96.4229 194.064 95.8135 194.5 95.3656 194.817C94.4721 195.449 93.2484 196.315 92.26 195.324C91.7398 194.803 91.1977 193.987 90.6732 193.199C90.2353 192.541 89.5957 191.579 89.257 191.335C89.2393 191.378 89.2183 191.44 89.1973 191.525C88.1089 195.913 86.4238 195.902 76.96 195.912H76.5541C73.33 195.912 71.5633 195.632 70.3942 195.447C68.741 195.185 68.4443 195.137 66.655 196.392C64.8513 197.657 55.2329 197.985 39.3219 197.985V197.999ZM105.113 186.389C105.067 186.389 105.022 186.391 104.976 186.396C104.259 186.464 103.493 187.086 102.633 188.298C102.194 188.916 101.778 189.733 102.295 190.111C103.201 190.773 106.069 190.351 108.684 188.828C108.663 188.808 108.642 188.788 108.621 188.767C107.239 187.444 106.135 186.388 105.113 186.388V186.389ZM134.773 129.902C135.386 129.902 135.793 130.662 136.123 132.405C137.108 137.614 138.247 146.483 138.077 159.149C137.996 165.193 138.063 168.322 138.161 169.936C138.443 168.387 138.87 165.406 139.485 159.691C140.771 147.745 141.945 143.235 143.817 143.049C144.132 143.018 144.425 143.122 144.666 143.352C145.878 144.502 145.765 149.175 145.475 155.651C145.428 156.675 145.385 157.655 145.356 158.535C145.328 159.418 145.407 159.803 145.46 159.959C145.915 159.665 146.835 158.225 147.972 155.915C148.212 153.8 148.499 151.647 148.842 149.482C149.326 146.43 149.722 144.199 150.05 142.564C150.048 142.561 150.044 142.557 150.042 142.555C149.674 142.143 149.142 141.761 148.58 141.357C146.708 140.008 144.144 138.163 145.137 133.139C146.288 127.31 153.721 127.547 157.712 127.674C158.24 127.691 158.705 127.705 159.083 127.704C164.744 127.667 169.3 125.302 173.417 120.26C175.193 118.086 176.844 116.549 178.466 115.603C177.688 113.469 179.953 110.28 181.713 108.078C181.326 108.4 180.784 108.889 180.139 109.47C176.735 112.541 171.041 117.684 167.676 117.175C165.898 116.907 164.432 115.528 163.657 113.388C163.62 113.288 163.586 113.188 163.553 113.087C162.91 113.44 162.112 113.747 161.121 113.965C157.725 114.714 157.251 115.906 156.701 117.286C156.221 118.492 155.677 119.86 153.232 120.86C150.974 121.784 148.656 123.244 146.792 124.418C144.118 126.102 143.007 126.765 142.36 126.226C141.887 125.833 142.087 125.108 142.344 124.451C143.383 121.798 146.774 118.155 150.054 114.631C151.684 112.88 153.223 111.227 154.419 109.758C159.897 103.026 162.938 99.1584 164.56 96.9924C162.96 98.574 160.807 100.806 159.039 102.638C152.582 109.332 152.541 109.305 152.054 108.986C151.89 108.879 151.747 108.638 151.881 108.307C154.185 102.641 153.833 97.2198 152.161 95.2517C152.146 95.2332 152.131 95.2163 152.118 95.2003C152.109 95.4176 152.108 95.6778 152.108 95.9094C152.102 98.0283 152.091 101.974 148.023 102.228C146.98 102.298 145.949 101.838 145.042 100.911C144.65 100.51 144.288 100.028 143.963 99.4911C143.823 102.794 143.147 106.663 140.778 106.987C139.385 107.179 139.127 105.771 138.919 104.642C138.752 103.732 138.579 102.791 137.979 102.559C136.493 101.984 135.312 100.908 134.74 99.6081C134.465 98.9841 134.35 98.3466 134.4 97.7765C132.582 98.8266 130.291 98.9571 127.573 98.1613C124.377 97.2265 122.359 95.0563 122.037 92.2065C121.767 89.8174 122.852 87.4349 124.676 86.4134C124.998 86.2332 125.2 86.09 125.326 85.9865C124.383 85.9334 121.72 86.5877 119.411 88.7184C117.944 90.0725 116.058 91.1016 114.1 91.6768C114.628 92.231 115.213 92.8424 115.845 93.5026C120.234 98.0889 126.612 104.754 130.973 110.257C130.818 107.214 131.103 106.035 131.83 105.76C132.501 105.506 133.248 106.07 134.326 107.646C136.556 110.907 137.719 118.006 136.921 119.406C136.703 119.789 136.376 119.809 136.248 119.8C135.789 119.769 135.326 119.357 134.559 117.449C134.117 116.351 133.283 114.977 132.18 113.429C132.364 115.326 132.59 117.174 132.729 118.313C133.039 120.855 132.793 122.147 131.927 122.503C130.355 123.144 127.787 119.997 123.743 114.732C122.502 113.115 121.329 111.588 120.353 110.477C116.125 105.663 106.848 100.022 100.297 99.6241C97.413 99.4481 95.4488 100.072 93.551 100.676C98.4896 105.64 104.159 112.452 105.945 115.845C106.652 117.19 106.741 118.166 106.215 118.828C104.98 120.381 100.657 119.233 96.0808 118.016C94.9916 117.726 93.8653 117.426 92.8425 117.184C86.6448 115.714 83.4426 114.562 76.5843 110.554C78.072 112.193 79.6958 114.384 78.8645 115.994C78.8242 116.072 78.7788 116.148 78.7284 116.22C85.2026 117.423 92.3424 119.122 98.5829 121.275C100.953 122.092 102.031 123.529 102.898 124.684C103.82 125.911 104.375 126.653 106.022 126.302C109.491 125.561 111.546 121.605 111.641 119.154C111.649 118.94 111.673 118.288 112.215 118.225C112.631 118.175 113.021 118.131 114.592 122.482C115.443 124.838 116.268 127.49 116.675 128.956C117.489 131.89 119.048 133.449 120.942 133.246C121.985 133.131 123.077 132.444 123.895 131.32C122.805 130.084 121.951 128.807 121.558 127.647C120.847 125.553 121.419 124.077 122.19 123.393C122.832 122.823 123.695 122.693 124.438 123.053C125.01 123.33 126.324 124.321 126.153 127.518C126.081 128.865 125.696 130.132 125.093 131.195C127.881 134.11 131.907 136.661 133.265 136.404C133.394 136.379 133.569 136.346 133.547 135.892C133.44 133.721 133.444 130.057 134.68 129.91C134.712 129.907 134.743 129.904 134.773 129.904V129.902ZM150.886 143.265C150.587 144.798 150.223 146.86 149.785 149.631C149.602 150.781 149.436 151.927 149.284 153.067C149.521 152.522 149.762 151.952 150.006 151.355C150.676 149.716 151.165 146.398 151.405 143.568C151.223 143.473 151.049 143.372 150.886 143.265ZM183.723 150.242C183.178 150.242 182.78 150.333 182.65 150.481C182.608 150.528 182.65 150.64 182.693 150.725C182.896 151.125 183.151 151.176 183.325 151.179C183.716 151.173 184.291 150.907 184.842 150.35C184.434 150.275 184.052 150.242 183.723 150.242ZM194.481 150.223C195.203 150.494 195.948 150.537 196.549 150.298C197.8 149.801 198.138 148.622 198.047 147.763C197.987 147.189 197.687 146.482 197.044 146.374C196.544 146.291 195.922 146.646 195.415 147.301C194.904 147.961 194.475 149.002 194.48 150.223H194.481ZM100.045 146.807C99.6377 146.807 99.2628 146.919 98.9888 147.144C98.6182 147.448 98.5123 147.905 98.6846 148.467C99.1242 149.901 100.519 150.408 103.101 150.011C102.765 148.173 101.784 147.411 101.273 147.132C100.877 146.916 100.445 146.808 100.046 146.808L100.045 146.807ZM129.591 143.31C129.577 143.31 129.567 143.312 129.562 143.315C129.103 143.567 129.25 146.449 129.393 149.236C129.406 149.482 129.418 149.731 129.431 149.985C130.4 149.834 131.111 149.275 131.522 148.627C132.406 147.231 132.253 145.069 130.25 143.635C129.868 143.361 129.664 143.31 129.59 143.31H129.591ZM22.1443 146.823C21.9989 146.823 21.8846 146.852 21.8039 146.9C21.6207 147.006 21.5862 147.212 21.5896 147.365C21.6014 147.849 22.0166 148.623 23.1487 149.211C23.5773 149.434 24.0312 149.586 24.5052 149.67C24.4934 148.569 24.0766 147.686 23.3327 147.238C22.8276 146.934 22.4267 146.824 22.1435 146.824L22.1443 146.823ZM58.7596 142.477C58.6352 142.477 58.5352 142.527 58.457 142.578C57.6115 143.128 57.0131 145.497 57.9023 148.158C58.9697 147.226 59.5824 146.153 59.811 145.258C60.0749 144.229 59.885 143.313 59.2899 142.744C59.0781 142.542 58.9024 142.477 58.7587 142.477L58.7596 142.477ZM244.435 146.176C245.09 146.634 245.92 146.926 246.979 146.979C248.482 147.056 249.682 146.409 250.191 145.254C250.526 144.494 250.457 143.661 250.024 143.23C249.57 142.778 248.762 142.781 247.749 143.236C246.372 143.856 245.226 144.884 244.434 146.176H244.435ZM261.589 143.228C261.564 143.284 261.539 143.341 261.513 143.397C261.306 143.853 261.35 143.987 261.35 143.988C261.462 144.094 262.093 144.105 262.6 144.109C262.238 143.849 261.9 143.555 261.588 143.229L261.589 143.228ZM154.653 143.502C155.184 143.541 155.72 143.521 156.232 143.422C157.036 143.268 158.083 142.844 158.502 141.699C159.144 139.947 158.748 138.111 157.978 137.701C157.41 137.397 156.593 137.903 155.74 139.088C154.815 140.373 154.442 141.944 154.653 143.502ZM151.092 142.233C151.211 142.328 151.342 142.422 151.484 142.511C151.544 141.603 151.574 140.786 151.572 140.14C151.443 140.633 151.284 141.308 151.092 142.233ZM260.635 137.835C260.612 137.835 260.592 137.84 260.575 137.85C260.477 137.908 260.271 138.256 260.484 139.156C260.662 139.906 260.932 140.59 261.279 141.202C261.726 139.367 261.288 138.315 260.903 137.969C260.806 137.883 260.707 137.835 260.635 137.835ZM8.00671 136.54C7.81172 136.54 7.67892 136.627 7.58479 136.707C6.98721 137.219 6.69557 138.775 7.12589 140.64C7.95964 140.279 8.57066 139.605 8.89004 138.86C9.23632 138.049 9.23212 137.056 8.44123 136.659C8.26893 136.573 8.12605 136.54 8.00671 136.54ZM85.8354 136.153C85.7413 136.153 85.6312 136.203 85.5598 136.241C84.4344 136.843 83.2089 138.585 82.9719 140.375C84.6041 139.692 85.5547 138.636 85.9354 137.622C86.2162 136.875 86.1119 136.335 85.9481 136.191C85.9178 136.164 85.8775 136.154 85.8346 136.154L85.8354 136.153ZM123.563 123.804C123.304 123.804 123.047 123.906 122.822 124.106C122.281 124.585 121.902 125.685 122.462 127.335C122.796 128.32 123.508 129.397 124.421 130.454C124.849 129.611 125.136 128.603 125.197 127.464C125.342 124.766 124.333 124.063 124.021 123.912C123.871 123.839 123.717 123.804 123.563 123.804ZM29.2077 124.884C29.3816 125.841 29.959 126.75 30.8668 127.46C31.4257 127.899 31.7972 127.882 31.8804 127.809C31.9577 127.74 32.0073 127.419 31.6694 126.866C30.9962 125.763 30.186 125.103 29.2077 124.885V124.884ZM255.645 120.172C256.177 120.551 257.224 121.105 258.572 121.512C258.616 121.526 258.66 121.538 258.703 121.55C258.688 121.532 258.673 121.516 258.658 121.5C257.711 120.459 256.471 120.208 255.644 120.172H255.645ZM132.018 111.604C133.63 113.736 134.859 115.635 135.443 117.087C135.781 117.928 136.027 118.375 136.183 118.61C136.419 117.07 135.626 111.241 133.535 108.183C132.655 106.896 132.257 106.695 132.159 106.664C131.782 107.048 131.829 109.185 132.017 111.604L132.018 111.604ZM61.7743 115.061C62.8939 115.317 64.6807 115.665 67.5299 116.119C71.4785 116.748 73.9646 116.819 75.5245 116.635C69.4504 115.638 64.4134 115.152 61.7743 115.061ZM179.889 115.963C180.506 116.428 181.582 116.663 183.103 116.663C184.171 116.663 185.263 116.39 185.626 116.168C185.501 116.08 185.228 115.933 184.656 115.754C183.317 115.335 181.776 115.14 179.889 115.963ZM164.862 108.05C164.78 108.05 164.672 108.165 164.637 108.204C164.172 108.732 163.948 110.021 164.156 111.471C165.034 110.628 165.217 109.74 165.253 109.364C165.328 108.594 165.049 108.125 164.891 108.056C164.882 108.052 164.873 108.05 164.863 108.05H164.862ZM85.0429 95.5726C84.3024 95.5726 83.6855 95.8555 83.2896 96.2C82.7492 96.6699 82.5072 97.315 82.6433 97.9264C82.8618 98.9066 83.9528 99.7201 85.7144 100.218C88.2207 100.926 89.984 100.704 91.7255 100.226C89.3377 97.9154 87.2726 96.2059 86.1641 95.7865C85.769 95.6366 85.3917 95.5734 85.042 95.5734L85.0429 95.5726ZM237.408 96.5537C236.76 96.5537 236.187 96.792 235.804 97.2383C235.451 97.6501 235.336 98.1613 235.505 98.5723C235.714 99.0784 236.321 99.3959 237.216 99.4666C238.635 99.5786 240.067 99.15 241.259 98.2759C240.352 97.5381 239.265 96.9267 238.107 96.6412C237.868 96.5831 237.634 96.5537 237.409 96.5537H237.408ZM58.0821 95.1784C59.0579 95.7949 60.2237 96.1755 61.4205 96.221C63.5595 96.301 65.3422 95.2997 66.3003 93.4714C67.4005 91.372 67.308 89.0628 66.054 87.2951C64.7294 85.4281 62.4005 84.5439 59.8236 84.9313C56.6811 85.4029 53.4385 85.5115 50.8826 83.2604C50.7019 83.4962 50.5338 83.743 50.38 84.0007C49.0252 86.2745 48.9605 89.1201 50.1985 92.012C51.6374 95.3747 54.1916 96.6177 55.8641 96.0812C56.2541 95.9558 56.5752 95.7427 56.8189 95.4572C56.0205 94.7995 55.3825 93.9835 54.9842 93.0579C54.2706 91.4031 54.1949 90.001 54.7816 89.307C55.0665 88.971 55.4775 88.8396 55.912 88.9474C56.8988 89.1933 57.7552 90.5635 58.2032 92.6133C58.4133 93.5742 58.3612 94.4534 58.0821 95.1784ZM55.6204 89.8687C55.5708 89.8687 55.5414 89.8906 55.5111 89.9268C55.3195 90.1534 55.1464 91.0191 55.8616 92.6781C56.1692 93.3923 56.6601 94.0374 57.2744 94.5755C57.4106 94.0727 57.414 93.4756 57.2702 92.8179C56.8382 90.8431 56.0835 89.9774 55.6817 89.8763C55.6582 89.8704 55.638 89.8679 55.6212 89.8679L55.6204 89.8687ZM105.468 86.8539C105.05 86.8539 104.728 86.9389 104.544 87.1015C104.221 87.3878 104.503 88.1213 105.281 89.0156C106.44 90.3471 108.122 91.1092 110.148 91.2204C110.83 91.2557 111.537 91.2187 112.248 91.1101C111.809 90.6427 111.436 90.2384 111.139 89.9049C109.233 87.7684 106.836 86.8539 105.467 86.8539H105.468ZM233.551 82.9648C233.121 83.5897 232.99 84.3628 233.163 85.2723C233.279 85.882 233.629 86.3292 234.098 86.4682C234.424 86.5642 234.755 86.4884 234.962 86.2711C235.268 85.9477 235.299 85.3447 235.045 84.6163C234.793 83.8937 234.226 83.4432 233.55 82.9657L233.551 82.9648ZM35.0036 79.9786C34.5875 79.9786 34.1547 80.1066 33.9177 80.5572C33.5891 81.1829 33.7748 82.1555 34.3303 82.7248C35.1414 83.5543 36.2046 83.9645 37.3334 83.9645H37.3359C37.4569 82.7358 37.2947 81.6755 36.8535 80.9681C36.5223 80.4376 36.0542 80.1268 35.4213 80.0165C35.2893 79.9938 35.1473 79.9778 35.0019 79.9778L35.0036 79.9786ZM212.105 68.0539C211.545 68.0539 211.065 68.1751 210.587 68.4514C209.966 68.8101 209.942 69.771 210.31 70.4085C210.82 71.2944 211.841 71.4098 213.041 70.7159C214.098 70.1053 214.529 69.2674 214.687 68.5398C213.606 68.2374 212.795 68.0547 212.105 68.0547V68.0539ZM66.7079 58.2151C66.6861 58.2151 66.6651 58.2185 66.6457 58.226C66.4617 58.2959 66.2364 58.7549 66.523 59.5499C66.7222 60.1023 67.1458 60.5739 67.6871 60.8999C67.7257 60.2859 67.6232 59.6375 67.3736 59C67.166 58.4703 66.892 58.2151 66.7079 58.2151ZM220.631 55.4133C219.953 55.4133 219.418 55.7047 219.304 55.9868C219.187 56.2773 219.552 56.7018 220.259 57.0934C221.452 57.7561 222.596 57.234 223.172 56.8651C223.272 56.8011 223.369 56.7329 223.463 56.6605C222.84 56.1207 222.102 55.7257 221.266 55.4992C221.047 55.4394 220.833 55.4141 220.631 55.4141L220.631 55.4133ZM208.282 46.9834C207.929 46.9834 207.592 47.0306 207.277 47.1266C206.282 47.4323 205.604 48.1936 205.315 49.3297C204.953 50.7495 205.649 51.526 206.354 51.7584C207.291 52.0683 208.628 51.5858 209.357 49.7979C209.745 48.8429 209.715 47.9721 209.485 47.1485C209.072 47.039 208.668 46.9826 208.283 46.9826L208.282 46.9834ZM93.1114 45.3724C92.0314 45.6689 91.0951 46.2861 90.5858 47.0601C90.1571 47.7111 90.2496 48.2896 90.5547 48.5035C90.8976 48.7435 91.6053 48.5465 92.3466 47.5426C92.8013 46.927 93.0601 46.1783 93.1114 45.3724ZM186.676 35.7004C186.306 35.868 185.927 36.087 185.536 36.3564C184.203 37.2744 183.657 38.7153 183.822 39.6046C183.907 40.0669 184.162 40.3516 184.578 40.4526C185.258 40.6152 185.752 40.2884 186.048 39.9844C186.866 39.1431 187.183 37.5034 186.802 36.0861C186.765 35.9497 186.723 35.8217 186.676 35.7004ZM156.478 27.5106C156.447 27.8019 156.448 28.0933 156.464 28.3763L156.475 28.5759C156.597 30.7141 156.766 33.6422 153.567 35.825C152.414 36.6125 151.849 37.5548 152.019 38.4113C152.171 39.1801 152.906 39.7747 153.985 40.0004C155.217 40.2564 156.634 39.8539 157.772 38.9199C159.142 37.7965 159.919 36.0752 159.905 34.1963C159.887 31.7272 158.178 29.3094 156.477 27.5114L156.478 27.5106ZM63.7671 35.3694C63.6015 36.14 63.6116 36.9047 63.7444 37.4933C63.8865 38.1241 64.0714 38.4702 64.1932 38.6344C64.268 38.3978 64.3437 37.8816 64.2663 36.935C64.2243 36.4247 64.0478 35.8848 63.7679 35.3694H63.7671ZM95.5748 30.464C95.3866 30.464 95.1748 30.5297 95.0596 30.5718C94.1914 30.8876 93.303 32.1668 93.2644 33.8165C94.3982 33.5951 95.0773 32.8919 95.3286 32.582C96.0077 31.7423 96.0951 30.8724 95.8959 30.5928C95.8278 30.4968 95.7068 30.464 95.574 30.464H95.5748ZM118.414 22.8392C120.191 23.8691 122.235 24.3163 123.741 24.0073C124.451 23.8624 125.321 23.4759 125.434 22.4594C125.505 21.816 125.282 21.3149 124.79 21.0109C123.933 20.4812 122.123 20.5014 119.606 22.1436C119.204 22.4055 118.806 22.6379 118.414 22.8392ZM149.295 18.9738C148.945 18.9738 148.677 19.0622 148.526 19.1952C148.399 19.3064 148.406 19.4024 148.426 19.474C148.513 19.778 149.146 20.3717 150.968 20.6715C151.339 20.7322 151.701 20.7759 152.051 20.8046C151.727 20.1427 151.272 19.5978 150.465 19.2449C150.022 19.0512 149.623 18.9738 149.295 18.9738Z" fill="white" stroke="white" stroke-width="1.5"/>
</svg>
