<svg width="122" height="104" viewBox="0 0 122 104" fill="none" xmlns="http://www.w3.org/2000/svg">
<path d="M73.9474 54.8984H85.3857C85.5642 54.8984 85.7374 54.971 85.8634 55.0955C85.9894 55.2199 86.0576 55.3859 86.0576 55.5622C86.0523 55.9304 85.7531 56.2208 85.3857 56.226H73.9474C72.7243 56.2571 71.5274 56.6046 70.4828 57.2373L65.3647 60.2504C64.0891 61.0024 62.6298 61.3966 61.1443 61.3914H60.9973L48.8241 61.1943H48.8188C48.4514 61.1943 48.1469 60.8987 48.1469 60.5305C48.1469 60.1623 48.4514 59.8667 48.8188 59.8667L61.0078 60.0638C62.2939 60.0897 63.5589 59.763 64.6666 59.1095L69.7848 56.0964C71.0393 55.3392 72.4775 54.9295 73.9474 54.8984ZM46.1891 48.2601C46.1891 48.4364 46.2573 48.6076 46.3833 48.732C46.5093 48.8565 46.6825 48.9239 46.861 48.9239H52.5565L56.588 52.2689V52.2741C56.7088 52.3675 56.861 52.4245 57.0185 52.4297H82.5782C82.7566 52.4297 82.9299 52.3623 83.0559 52.2378C83.1818 52.1134 83.2501 51.9422 83.2501 51.7659C83.2501 51.5896 83.1818 51.4236 83.0559 51.2991C82.9299 51.1747 82.7566 51.1021 82.5782 51.1021H57.2604L53.2289 47.757C53.1081 47.6533 52.9559 47.6014 52.7984 47.5963H46.8614C46.4887 47.5963 46.1891 47.8971 46.1891 48.2601ZM41.1864 75.2381L30.6247 56.5725H30.4514C25.7007 55.6753 22.0998 51.8169 21.5747 47.0663C21.0497 42.3156 23.7323 37.7882 28.1732 35.9004C32.6194 34.0178 37.79 35.2158 40.9134 38.8617C44.042 42.5076 44.3937 47.7456 41.7796 51.765L49.6011 74.1479C50.147 75.7142 49.6063 77.4464 48.2572 78.4266C44.2257 81.4138 34.6456 88.9286 32.4941 95.6861C35.2657 95.7172 37.523 97.911 37.6017 100.649V102.563C37.6122 102.739 37.544 102.916 37.4128 103.04C37.2868 103.17 37.1083 103.242 36.9298 103.237H24.4732C24.2894 103.242 24.1109 103.17 23.985 103.04C23.8642 102.916 23.796 102.75 23.8012 102.573C23.8012 102.376 24.1477 86.2578 41.1877 75.2369L41.1864 75.2381ZM29.7533 55.0325L26.8767 49.9501C25.8741 48.2179 25.7113 46.1382 26.4305 44.2816C27.1444 42.4199 28.672 40.978 30.5827 40.3506C34.1207 39.1578 37.9685 41.0092 39.1969 44.4892L41.1601 50.1317C41.8268 48.8092 42.1785 47.3518 42.1837 45.8739C42.1837 42.2539 40.1155 38.9451 36.8451 37.3271C33.5748 35.7038 29.6535 36.0461 26.7191 38.2087C23.7847 40.3714 22.3411 43.981 22.9816 47.5438C23.622 51.1067 26.2415 54.0005 29.7533 55.0325ZM42.4672 74.7867L48.2991 74.6933H48.2939C48.3044 74.6674 48.3044 74.6415 48.2939 74.6155L37.9211 44.9305C36.7085 42.2337 33.5117 41.0201 30.7872 42.2232C28.0577 43.4212 26.8293 46.5744 28.047 49.2712L42.4672 74.7867ZM25.1815 101.941H36.2419V100.702C36.1684 98.674 34.4833 97.0662 32.4257 97.0662H31.5123C31.3075 97.061 31.1186 96.9729 30.9873 96.8121C30.8614 96.6565 30.8194 96.4491 30.8666 96.2572C32.5621 88.8773 42.9611 80.6307 47.3702 77.4164C47.8164 77.0897 48.1419 76.6229 48.2836 76.0887L42.2364 76.1925C27.4811 85.4912 25.4489 98.8186 25.1815 101.941ZM104.993 51.7651L112.815 74.1481C113.366 75.7143 112.82 77.4465 111.471 78.4267C107.36 81.4139 97.8429 88.9287 95.6968 95.6862C98.4737 95.7122 100.731 97.9059 100.799 100.649V102.563C100.799 102.739 100.726 102.916 100.6 103.04C100.479 103.17 100.306 103.242 100.127 103.237H87.6863C87.5026 103.237 87.3294 103.17 87.2034 103.04C87.0774 102.916 87.0144 102.75 87.0144 102.573C87.0144 102.402 87.3661 86.2314 104.405 75.2118L93.838 56.5728H93.6647C88.914 55.6756 85.3131 51.8172 84.7881 47.0666C84.2684 42.3161 86.9456 37.7885 91.3866 35.9007C95.8328 34.0181 101.003 35.2161 104.127 38.862C107.255 42.5079 107.607 47.7458 104.993 51.7651ZM111.549 76.0214L105.502 76.1251C90.72 85.4187 88.6626 98.8148 88.3952 101.936H99.4556V100.702C99.3874 98.674 97.6971 97.0662 95.6394 97.0662H94.7785C94.579 97.0611 94.3848 96.9729 94.2588 96.8121C94.1328 96.6565 94.0856 96.4491 94.1381 96.2572C95.8336 88.8773 106.233 80.6307 110.642 77.4164H110.636C111.098 77.0741 111.423 76.5815 111.549 76.0214ZM111.549 74.6263L101.135 44.9306C99.9221 42.2339 96.7306 41.0202 94.0009 42.2234C91.2713 43.4214 90.0481 46.5745 91.2607 49.2714L105.68 74.761L111.512 74.6677C111.507 74.6573 111.507 74.6418 111.496 74.6314L111.549 74.6263ZM104.426 50.1324H104.431C106.237 46.5436 105.581 42.2183 102.783 39.3089C99.9851 36.4046 95.6491 35.5333 91.9273 37.1307C88.2003 38.7281 85.8853 42.4569 86.132 46.4606C86.3788 50.4643 89.1295 53.8872 93.0192 55.0333L90.1426 49.9509C89.14 48.2187 88.9772 46.139 89.6964 44.2824C90.4156 42.4207 91.9431 40.9788 93.8539 40.3514C97.3867 39.1586 101.235 41.01 102.468 44.4899L104.426 50.1324ZM19.2029 95.9099C19.3236 96.0759 19.5179 96.1744 19.7278 96.1744C19.985 96.19 20.2265 96.0448 20.342 95.8166C20.4627 95.5884 20.4312 95.3135 20.2632 95.1165L17.2815 91.2527C17.0453 90.9882 16.6464 90.9467 16.3629 91.1646C16.0847 91.3772 16.0217 91.7713 16.2212 92.0618L19.2029 95.9099ZM14.3367 89.2717C14.489 89.2717 14.636 89.2198 14.7567 89.1264C14.8984 89.0227 14.9929 88.8619 15.0139 88.6856C15.0402 88.5145 14.9877 88.3381 14.8774 88.1981L8.23702 79.6203C8.01655 79.3298 7.59134 79.2676 7.29738 79.4906C6.99816 79.7084 6.94043 80.1233 7.1609 80.4189L13.8013 89.0073C13.943 89.1473 14.1373 89.2199 14.3368 89.2044L14.3367 89.2717ZM7.06634 94.3178L13.544 99.8567C13.67 99.9604 13.8275 100.017 13.9902 100.012C14.1792 100.017 14.3629 99.9345 14.4836 99.7892C14.7251 99.5092 14.6989 99.0891 14.4207 98.8454L7.94298 93.3065V93.3117C7.81699 93.182 7.64901 93.1146 7.47054 93.1146C7.29207 93.1146 7.12409 93.182 7.00334 93.3117C6.76187 93.5918 6.79337 94.0067 7.06634 94.2504V94.3178ZM112.048 91.1957C111.906 91.0868 111.728 91.0401 111.554 91.0609C111.376 91.0816 111.213 91.175 111.108 91.3202L108.111 95.1165C107.948 95.3135 107.917 95.5832 108.027 95.8114C108.142 96.0396 108.379 96.1848 108.636 96.1744C108.846 96.1744 109.045 96.0759 109.171 95.91L112.142 92.0619C112.258 91.927 112.31 91.7507 112.294 91.5744C112.279 91.4032 112.189 91.2425 112.048 91.1335L112.048 91.1957ZM120.111 79.6201L113.486 88.1307C113.376 88.2707 113.323 88.447 113.344 88.6234C113.371 88.7945 113.465 88.9553 113.607 89.059C113.728 89.1523 113.875 89.2042 114.022 89.2042C114.232 89.2094 114.426 89.1108 114.547 88.9397L121.187 80.3514C121.323 80.2165 121.392 80.0298 121.376 79.8379C121.365 79.646 121.266 79.4749 121.113 79.3556C120.961 79.2415 120.762 79.2 120.573 79.2363C120.384 79.2726 120.221 79.3919 120.127 79.5527L120.111 79.6201ZM121.35 93.3733C121.082 93.1192 120.657 93.1192 120.394 93.3733L113.917 98.9122C113.78 99.0263 113.696 99.1922 113.686 99.3686C113.67 99.5449 113.733 99.7212 113.848 99.8561C114.095 100.131 114.52 100.162 114.804 99.9183L121.281 94.3794V94.3846C121.465 94.2757 121.586 94.0838 121.607 93.8712C121.628 93.6637 121.544 93.4511 121.386 93.3111L121.35 93.3733ZM52.8142 40.3706V40.3758C52.8142 38.1769 54.6147 36.3928 56.8457 36.3928H74.6878C76.9135 36.3928 78.7193 38.1769 78.7193 40.3758C78.7193 42.5747 76.9135 44.3588 74.6878 44.3588H56.788C55.7118 44.3484 54.683 43.918 53.9323 43.1608C53.1817 42.3984 52.7669 41.3715 52.7827 40.3084L52.8142 40.3706ZM54.1581 40.3706V40.3758C54.1581 41.0811 54.4415 41.7554 54.9455 42.2533C55.4494 42.7511 56.1318 43.0312 56.8458 43.0312H74.6879C76.1735 43.0312 77.3755 41.8435 77.3755 40.3759C77.3755 38.9082 76.1734 37.7206 74.6879 37.7206H56.788C55.3445 37.7309 54.1634 38.8771 54.1265 40.3084L54.1581 40.3706ZM72.148 19.6884C72.1795 22.1933 70.5155 24.413 68.085 25.1182C65.6493 25.8236 63.0404 24.8434 61.6966 22.717H42.0645C41.6918 22.717 41.3926 22.4214 41.3926 22.0532C41.3926 21.685 41.6918 21.3894 42.0645 21.3894H61.0771C60.8933 20.8604 60.7988 20.3055 60.7936 19.7453C60.7936 16.6493 63.3342 14.1391 66.4682 14.1391C69.5968 14.1391 72.1376 16.6491 72.1376 19.7453L72.148 19.6884ZM70.8041 19.6884C70.8041 17.9614 69.7542 16.4055 68.1427 15.7417C66.5259 15.0778 64.6676 15.4409 63.4288 16.6596C62.1899 17.8732 61.812 19.7091 62.4734 21.3064C63.1348 22.9037 64.7044 23.9566 66.4523 23.9669C67.6072 23.9721 68.7096 23.5261 69.5285 22.7222C70.3474 21.9184 70.8041 20.8294 70.8041 19.6884ZM42.3848 31.4143H108.921C112.364 31.4143 115.152 34.1733 115.152 37.5754V48.0617C115.152 51.2408 113.278 54.1347 110.359 55.4727C110.033 55.5764 109.682 55.426 109.535 55.1201C109.393 54.8141 109.503 54.451 109.792 54.2747C112.243 53.1545 113.818 50.7325 113.823 48.0617V37.5753C113.823 34.9045 111.634 32.7419 108.931 32.7419H15.8291C14.1702 32.7367 12.6217 33.5665 11.7188 34.9407C10.8107 36.3203 10.6742 38.0525 11.3566 39.5513L15.0364 47.595H18.9104C19.2779 47.595 19.5823 47.8958 19.5823 48.2588C19.5823 48.6271 19.2779 48.9227 18.9104 48.9227H15.6558L18.6112 55.3898C19.724 57.7858 22.1282 59.3314 24.7949 59.3728L29.6873 59.4506V59.4558C30.06 59.4558 30.3592 59.7514 30.3592 60.1196C30.3592 60.4826 30.06 60.7834 29.6873 60.7834L24.7949 60.7419C21.5876 60.6849 18.7004 58.8024 17.3881 55.9085L10.1493 40.112C9.53514 38.7429 9.43015 37.2026 9.86585 35.7661C10.6585 33.173 13.0889 31.4044 15.8291 31.4149H19.7714C19.8921 28.9515 21.4721 26.794 23.8029 25.9021L26.3173 24.9323L26.3121 24.9375C26.396 24.9219 26.4748 24.9219 26.5535 24.9375H27.1047C25.6034 23.8484 24.6376 22.1837 24.4433 20.3529C24.2489 18.5222 24.8475 16.6967 26.0916 15.3275C27.3357 13.9584 29.1047 13.1701 30.9682 13.1597C32.8265 13.1493 34.6112 13.9117 35.8658 15.2704H55.85C56.0284 15.2704 56.2017 15.3378 56.3277 15.4623C56.4536 15.5868 56.5219 15.7579 56.5219 15.9342C56.5219 16.1106 56.4536 16.2765 56.3277 16.401C56.2017 16.5255 56.0284 16.5981 55.85 16.5981H36.8898C37.441 17.5523 37.7297 18.631 37.735 19.7305C37.7192 21.7843 36.7219 23.7135 35.0473 24.9375H35.546C35.6247 24.9219 35.7087 24.9219 35.7875 24.9375L38.3019 25.9073V25.9021C40.6327 26.7941 42.2285 28.9464 42.386 31.4149L42.3848 31.4143ZM31.0724 24.8952C33.2088 24.9004 35.1406 23.6298 35.9595 21.6797C36.7784 19.7297 36.3322 17.4789 34.8151 15.9853C33.3033 14.4917 31.0304 14.0457 29.0566 14.8599C27.0827 15.6689 25.7967 17.5775 25.8019 19.6882C25.8072 22.5614 28.1642 24.8848 31.0724 24.8952ZM41.0514 31.4143H41.0567C40.9097 29.5006 39.6655 27.8358 37.8546 27.1356L35.4503 26.2177L26.7049 26.2228L24.3007 27.1408L24.2954 27.1356C22.4791 27.8254 21.2299 29.4953 21.0986 31.4143H41.0514ZM19.3405 1.24592V2.33501L63.1359 2.99884C63.3722 3.00921 63.5874 3.13367 63.7134 3.33075L68.926 12.2146C69.0205 12.365 69.0467 12.5465 68.9995 12.7177C68.9522 12.8888 68.842 13.034 68.6845 13.117C68.5848 13.1793 68.4693 13.2104 68.3485 13.2104C68.1071 13.2104 67.8813 13.0859 67.7553 12.8785L62.7317 4.3265L19.3407 3.66267V8.49614H59.9083C60.1813 8.49614 60.4227 8.66209 60.5277 8.91103L62.1026 12.6295V12.6243C62.2338 12.9666 62.0763 13.3504 61.7351 13.5008C61.6511 13.5164 61.5671 13.5164 61.4832 13.5008C61.2102 13.506 60.9635 13.3504 60.848 13.1067L59.5041 9.78751H19.3155C19.1685 11.4833 17.7302 12.7851 16.0085 12.7851H5.07934C4.71188 12.7851 4.40742 12.4895 4.40742 12.1213V8.40277H1.27885C0.906151 8.40277 0.606934 8.10715 0.606934 7.73894C0.617432 4.31093 3.17916 1.41186 6.61225 0.929522L9.29992 0.545748H18.628C18.8222 0.535377 19.0059 0.602797 19.1424 0.737635C19.2789 0.872472 19.3524 1.05918 19.3419 1.24587L19.3405 1.24592ZM5.07836 7.11668H17.9918L17.997 1.90975H9.43534L6.74768 2.28315C4.22799 2.64099 2.26479 4.62208 1.9498 7.11662L5.07836 7.11668ZM17.9918 8.44434H5.75028V11.499H16.0075C16.5324 11.499 17.0416 11.2916 17.4143 10.9234C17.787 10.5551 17.997 10.0521 17.997 9.53343L17.9918 8.44434ZM87.1991 1.80606L78.9891 10.1194C78.7319 10.3787 78.7319 10.7988 78.9891 11.0581C79.1204 11.1774 79.2884 11.2397 79.4616 11.2448C79.6453 11.2448 79.8185 11.1722 79.9445 11.0478L88.1702 2.80181C88.4275 2.53732 88.4222 2.11725 88.1545 1.85793C87.892 1.6038 87.4616 1.60899 87.2044 1.87349L87.1991 1.80606ZM93.5036 11.2033C93.6138 11.2085 93.7188 11.1878 93.8133 11.1411L108.595 3.57453V3.56934C108.774 3.50192 108.916 3.3619 108.984 3.18557C109.052 3.00924 109.042 2.81217 108.952 2.64621C108.863 2.47506 108.706 2.35059 108.522 2.30911C108.333 2.26243 108.139 2.29873 107.976 2.40246L93.1939 9.95868C93.0364 10.0365 92.9157 10.1765 92.8632 10.3425C92.8107 10.5136 92.8317 10.6951 92.9157 10.8455C93.0154 11.0789 93.2516 11.2241 93.5036 11.2189L93.5036 11.2033ZM90.0075 11.5871L82.7896 15.2796H82.7949C82.5114 15.4196 82.3592 15.7308 82.4327 16.0368C82.5062 16.3376 82.7896 16.5502 83.1046 16.545C83.2096 16.545 83.3198 16.5139 83.4143 16.462L90.6426 12.7747C90.8106 12.6969 90.9419 12.5569 91.0048 12.3806C91.0626 12.2094 91.0468 12.0175 90.9576 11.8516C90.8736 11.6908 90.7214 11.5715 90.5429 11.5249C90.3592 11.4782 90.1702 11.5041 90.0127 11.6027L90.0075 11.5871ZM84.1912 20.4191C84.1912 20.5954 84.2647 20.7666 84.3907 20.891C84.5167 21.0155 84.6847 21.0829 84.8632 21.0829H96.6112C96.7897 21.0829 96.9577 21.0155 97.0836 20.891C97.2096 20.7666 97.2831 20.5954 97.2831 20.4191C97.2726 20.056 96.9787 19.7604 96.6112 19.7553H84.8632C84.4957 19.7604 84.2017 20.056 84.1912 20.4191Z" fill="white"/>
</svg>
