<svg width="148" height="180" viewBox="0 0 148 180" fill="none" xmlns="http://www.w3.org/2000/svg">
<path d="M86.9474 82.8984H98.3857C98.5641 82.8984 98.7374 82.971 98.8634 83.0955C98.9893 83.2199 99.0576 83.3859 99.0576 83.5622C99.0523 83.9304 98.7531 84.2208 98.3857 84.226H86.9474C85.7243 84.2571 84.5274 84.6046 83.4828 85.2373L78.3647 88.2504C77.0891 89.0024 75.6298 89.3966 74.1443 89.3914H73.9973L61.8241 89.1943H61.8188C61.4514 89.1943 61.1469 88.8987 61.1469 88.5305C61.1469 88.1623 61.4514 87.8667 61.8188 87.8667L74.0078 88.0638C75.2939 88.0897 76.5589 87.763 77.6666 87.1095L82.7847 84.0964C84.0393 83.3392 85.4775 82.9295 86.9474 82.8984ZM59.1891 76.2601C59.1891 76.4364 59.2573 76.6076 59.3833 76.732C59.5093 76.8565 59.6825 76.9239 59.861 76.9239H65.5565L69.588 80.2689V80.2741C69.7088 80.3675 69.861 80.4245 70.0185 80.4297H95.5782C95.7566 80.4297 95.9299 80.3623 96.0559 80.2378C96.1818 80.1134 96.2501 79.9422 96.2501 79.7659C96.2501 79.5896 96.1818 79.4236 96.0559 79.2991C95.9299 79.1747 95.7566 79.1021 95.5782 79.1021H70.2604L66.2289 75.757C66.1081 75.6533 65.9559 75.6014 65.7984 75.5963H59.8614C59.4887 75.5963 59.1891 75.8971 59.1891 76.2601ZM54.1864 103.238L43.6247 84.5725H43.4514C38.7007 83.6753 35.0998 79.8169 34.5747 75.0663C34.0497 70.3156 36.7323 65.7882 41.1732 63.9004C45.6194 62.0178 50.7899 63.2158 53.9134 66.8617C57.042 70.5076 57.3937 75.7456 54.7796 79.765L62.6011 102.148C63.147 103.714 62.6063 105.446 61.2572 106.427C57.2257 109.414 47.6456 116.929 45.4941 123.686C48.2657 123.717 50.523 125.911 50.6017 128.649V130.563C50.6122 130.739 50.544 130.916 50.4128 131.04C50.2868 131.17 50.1083 131.242 49.9298 131.237H37.4732C37.2894 131.242 37.1109 131.17 36.985 131.04C36.8642 130.916 36.796 130.75 36.8012 130.573C36.8012 130.376 37.1477 114.258 54.1877 103.237L54.1864 103.238ZM42.7533 83.0325L39.8767 77.9501C38.8741 76.2179 38.7113 74.1382 39.4305 72.2816C40.1444 70.4199 41.672 68.978 43.5827 68.3506C47.1207 67.1578 50.9685 69.0092 52.1969 72.4892L54.1601 78.1317C54.8268 76.8092 55.1785 75.3518 55.1837 73.8739C55.1837 70.2539 53.1154 66.9451 49.8451 65.3271C46.5748 63.7038 42.6535 64.0461 39.7191 66.2087C36.7847 68.3714 35.3411 71.981 35.9816 75.5438C36.622 79.1067 39.2415 82.0005 42.7533 83.0325ZM55.4672 102.787L61.2991 102.693H61.2939C61.3044 102.667 61.3044 102.641 61.2939 102.616L50.9211 72.9305C49.7085 70.2337 46.5117 69.0201 43.7872 70.2232C41.0577 71.4212 39.8293 74.5744 41.047 77.2712L55.4672 102.787ZM38.1815 129.941H49.2419V128.702C49.1684 126.674 47.4833 125.066 45.4257 125.066H44.5123C44.3075 125.061 44.1186 124.973 43.9873 124.812C43.8614 124.656 43.8194 124.449 43.8666 124.257C45.5621 116.877 55.9611 108.631 60.3702 105.416C60.8164 105.09 61.1419 104.623 61.2836 104.089L55.2364 104.192C40.4811 113.491 38.4489 126.819 38.1815 129.941ZM117.993 79.7651L125.814 102.148C126.366 103.714 125.82 105.446 124.471 106.427C120.36 109.414 110.843 116.929 108.697 123.686C111.474 123.712 113.731 125.906 113.799 128.649V130.563C113.799 130.739 113.726 130.916 113.6 131.04C113.479 131.17 113.306 131.242 113.127 131.237H100.686C100.503 131.237 100.329 131.17 100.203 131.04C100.077 130.916 100.014 130.75 100.014 130.573C100.014 130.402 100.366 114.231 117.405 103.212L106.838 84.5728H106.665C101.914 83.6756 98.3131 79.8172 97.7881 75.0666C97.2684 70.3161 99.9456 65.7885 104.387 63.9007C108.833 62.0181 114.003 63.2161 117.127 66.862C120.255 70.5079 120.607 75.7458 117.993 79.7651ZM124.549 104.021L118.502 104.125C103.72 113.419 101.663 126.815 101.395 129.936H112.456V128.702C112.387 126.674 110.697 125.066 108.639 125.066H107.778C107.579 125.061 107.385 124.973 107.259 124.812C107.133 124.657 107.086 124.449 107.138 124.257C108.834 116.877 119.233 108.631 123.642 105.416H123.636C124.098 105.074 124.423 104.582 124.549 104.021ZM124.549 102.626L114.135 72.9306C112.922 70.2339 109.731 69.0202 107.001 70.2234C104.271 71.4214 103.048 74.5745 104.261 77.2714L118.68 102.761L124.512 102.668C124.507 102.657 124.507 102.642 124.496 102.631L124.549 102.626ZM117.426 78.1324H117.431C119.237 74.5436 118.581 70.2183 115.783 67.3089C112.985 64.4047 108.649 63.5333 104.927 65.1307C101.2 66.7281 98.8853 70.4569 99.132 74.4606C99.3788 78.4643 102.129 81.8872 106.019 83.0333L103.143 77.9509C102.14 76.2187 101.977 74.139 102.696 72.2824C103.416 70.4207 104.943 68.9788 106.854 68.3514C110.387 67.1586 114.235 69.01 115.468 72.4899L117.426 78.1324ZM65.8142 68.3706V68.3758C65.8142 66.1769 67.6147 64.3928 69.8457 64.3928H87.6878C89.9134 64.3928 91.7193 66.1769 91.7193 68.3758C91.7193 70.5747 89.9134 72.3588 87.6878 72.3588H69.7879C68.7118 72.3484 67.683 71.918 66.9323 71.1608C66.1817 70.3984 65.7669 69.3715 65.7827 68.3084L65.8142 68.3706ZM67.1581 68.3706V68.3758C67.1581 69.0811 67.4415 69.7554 67.9455 70.2533C68.4494 70.7511 69.1318 71.0312 69.8458 71.0312H87.6878C89.1734 71.0312 90.3755 69.8435 90.3755 68.3759C90.3755 66.9082 89.1734 65.7206 87.6878 65.7206H69.788C68.3445 65.7309 67.1634 66.8771 67.1265 68.3084L67.1581 68.3706ZM85.1479 47.6884C85.1794 50.1933 83.5155 52.413 81.085 53.1182C78.6493 53.8236 76.0404 52.8434 74.6966 50.717H55.0645C54.6918 50.717 54.3926 50.4214 54.3926 50.0532C54.3926 49.685 54.6918 49.3894 55.0645 49.3894H74.0771C73.8933 48.8604 73.7988 48.3055 73.7936 47.7453C73.7936 44.6493 76.3342 42.1391 79.4682 42.1391C82.5968 42.1391 85.1375 44.6491 85.1375 47.7453L85.1479 47.6884ZM83.8041 47.6884C83.8041 45.9614 82.7542 44.4055 81.1427 43.7417C79.5259 43.0778 77.6676 43.4409 76.4288 44.6596C75.1899 45.8732 74.812 47.7091 75.4734 49.3064C76.1348 50.9037 77.7044 51.9566 79.4523 51.9669C80.6072 51.9721 81.7096 51.5261 82.5285 50.7222C83.3474 49.9184 83.8041 48.8294 83.8041 47.6884ZM55.3848 59.4143H121.921C125.364 59.4143 128.152 62.1733 128.152 65.5754V76.0617C128.152 79.2408 126.278 82.1347 123.359 83.4727C123.033 83.5764 122.682 83.426 122.535 83.1201C122.393 82.8141 122.503 82.451 122.792 82.2747C125.243 81.1545 126.818 78.7325 126.823 76.0617V65.5753C126.823 62.9045 124.634 60.7419 121.931 60.7419H28.8291C27.1702 60.7367 25.6217 61.5665 24.7188 62.9407C23.8107 64.3203 23.6742 66.0525 24.3566 67.5513L28.0364 75.595H31.9104C32.2779 75.595 32.5823 75.8958 32.5823 76.2588C32.5823 76.6271 32.2779 76.9227 31.9104 76.9227H28.6558L31.6112 83.3898C32.724 85.7858 35.1282 87.3314 37.7949 87.3728L42.6873 87.4506V87.4558C43.06 87.4558 43.3592 87.7514 43.3592 88.1196C43.3592 88.4826 43.06 88.7834 42.6873 88.7834L37.7949 88.7419C34.5876 88.6849 31.7004 86.8024 30.3881 83.9085L23.1493 68.112C22.5351 66.7429 22.4301 65.2026 22.8658 63.7661C23.6585 61.173 26.0889 59.4044 28.8291 59.4149H32.7714C32.8921 56.9515 34.4721 54.794 36.8029 53.9021L39.3173 52.9323L39.3121 52.9375C39.396 52.9219 39.4748 52.9219 39.5535 52.9375H40.1047C38.6034 51.8484 37.6376 50.1837 37.4433 48.3529C37.2489 46.5222 37.8475 44.6967 39.0916 43.3275C40.3357 41.9584 42.1047 41.1701 43.9682 41.1597C45.8265 41.1493 47.6112 41.9117 48.8658 43.2704H68.85C69.0284 43.2704 69.2017 43.3378 69.3276 43.4623C69.4536 43.5868 69.5219 43.7579 69.5219 43.9342C69.5219 44.1106 69.4536 44.2765 69.3276 44.401C69.2017 44.5255 69.0284 44.5981 68.85 44.5981H49.8898C50.441 45.5523 50.7297 46.631 50.735 47.7305C50.7192 49.7843 49.7218 51.7135 48.0473 52.9375H48.546C48.6247 52.9219 48.7087 52.9219 48.7875 52.9375L51.3019 53.9073V53.9021C53.6327 54.7941 55.2285 56.9464 55.386 59.4149L55.3848 59.4143ZM44.0724 52.8952C46.2088 52.9004 48.1406 51.6298 48.9595 49.6797C49.7784 47.7297 49.3322 45.4789 47.8151 43.9853C46.3033 42.4917 44.0304 42.0457 42.0566 42.8599C40.0827 43.6689 38.7967 45.5775 38.8019 47.6882C38.8072 50.5614 41.1642 52.8848 44.0724 52.8952ZM54.0514 59.4143H54.0567C53.9097 57.5006 52.6655 55.8358 50.8546 55.1356L48.4503 54.2177L39.7049 54.2228L37.3007 55.1408L37.2954 55.1356C35.4791 55.8254 34.2299 57.4953 34.0986 59.4143H54.0514ZM32.3405 29.2459V30.335L76.1359 30.9988C76.3722 31.0092 76.5874 31.1337 76.7134 31.3308L81.926 40.2146C82.0204 40.365 82.0467 40.5465 81.9995 40.7177C81.9522 40.8888 81.842 41.034 81.6845 41.117C81.5847 41.1793 81.4693 41.2104 81.3485 41.2104C81.1071 41.2104 80.8813 41.0859 80.7553 40.8785L75.7317 32.3265L32.3407 31.6627V36.4961H72.9083C73.1813 36.4961 73.4227 36.6621 73.5277 36.911L75.1026 40.6295V40.6243C75.2338 40.9666 75.0763 41.3504 74.7351 41.5008C74.6511 41.5164 74.5671 41.5164 74.4831 41.5008C74.2102 41.506 73.9635 41.3504 73.848 41.1067L72.5041 37.7875H32.3155C32.1685 39.4833 30.7302 40.7851 29.0085 40.7851H18.0793C17.7119 40.7851 17.4074 40.4895 17.4074 40.1213V36.4028H14.2788C13.9062 36.4028 13.6069 36.1072 13.6069 35.7389C13.6174 32.3109 16.1792 29.4119 19.6123 28.9295L22.2999 28.5457H31.628C31.8222 28.5354 32.0059 28.6028 32.1424 28.7376C32.2789 28.8725 32.3524 29.0592 32.3419 29.2459L32.3405 29.2459ZM18.0784 35.1167H30.9918L30.997 29.9097H22.4353L19.7477 30.2832C17.228 30.641 15.2648 32.6221 14.9498 35.1166L18.0784 35.1167ZM30.9918 36.4443H18.7503V39.499H29.0075C29.5324 39.499 30.0416 39.2916 30.4143 38.9234C30.787 38.5551 30.997 38.0521 30.997 37.5334L30.9918 36.4443Z" fill="black"/>
</svg>
