<svg width="117" height="197" viewBox="0 0 117 197" fill="none" xmlns="http://www.w3.org/2000/svg">
<path d="M51.3175 10.2618C56.7998 11.933 61.839 13.4081 66.8402 15.0097C74.2598 17.3964 76.6971 23.2396 72.9367 30.1273C71.0754 33.5332 68.5179 36.553 66.4857 39.8702C64.6752 42.8203 63.0862 45.9097 61.5478 49.0117C61.4149 49.2776 61.4212 49.6131 61.4718 49.9676C61.5795 50.74 62.2948 51.3034 63.0672 51.1958C63.4217 51.1451 63.7446 51.0628 63.9978 50.8792C71.9681 44.9727 78.4886 37.99 80.6411 27.861C80.9196 26.5695 81.2931 25.2971 81.8249 23.2269C87.915 28.1015 93.7962 32.2228 95.5941 39.7309C96.4044 43.1115 94.5495 45.8843 92.3401 48.252C88.0986 52.8038 83.6418 57.1656 79.4889 61.7933C76.9693 64.6041 74.7029 67.6808 72.6265 70.8335C71.9428 71.8717 72.2023 73.5366 72.025 74.9104C73.3165 74.7458 74.7852 74.9167 75.8741 74.3596C87.5098 68.3962 95.841 59.6978 98.5125 46.4351C98.7151 45.4159 99 44.4156 99.2785 43.2635C99.7913 43.3584 100.291 43.3078 100.551 43.5293C106.635 48.7331 111.167 54.9688 112.655 62.9834C113.44 67.1997 111.535 70.7005 108.445 73.3594C103.172 77.8858 97.6389 82.1147 92.3211 86.5905C90.2383 88.344 88.4341 90.4142 86.4969 92.345C86.8008 92.7945 87.111 93.244 87.4149 93.6998C89.3204 92.8768 91.3715 92.2944 93.0998 91.1928C99.0759 87.3944 104.799 83.2985 109.059 77.449C110.009 76.1385 111.813 75.4548 113.225 74.4799C113.966 75.9486 114.96 77.3477 115.396 78.905C119.378 93.1427 113.763 107.045 100.526 115.743C94.3596 119.795 87.5985 122.536 80.2422 123.239C76.7667 123.568 73.1962 122.878 69.4485 122.637C69.5308 122.397 69.2965 122.713 69.3598 122.947C73.3608 137.027 76.9376 151.245 81.5717 165.11C84.6104 174.207 89.9345 182.335 96.1448 189.767C97.1388 190.958 98.0314 192.363 98.4935 193.819C99.1582 195.902 97.6072 197.383 95.7333 196.339C93.6885 195.199 91.6437 193.616 90.3143 191.724C83.2493 181.645 77.9252 170.598 74.2471 158.912C71.0565 148.776 68.7774 138.35 66.0869 128.05C65.9603 127.569 65.7957 127.1 65.1246 126.619C65.074 127.575 64.9854 128.531 64.9727 129.487C64.8777 139.287 58.7687 146.149 48.9245 146.048C35.6175 145.915 23.4373 141.819 13.0867 133.102C8.68685 129.398 6.54709 124.657 6.83197 118.889C7.00923 115.338 7.28145 111.793 7.56 107.425C9.26927 108.526 10.2948 109.134 11.2634 109.824C19.7212 115.876 28.7297 120.111 39.5298 118.212C41.1758 117.921 42.8597 117.541 44.3664 116.851C46.7214 115.775 46.848 114.16 44.5184 113.053C41.8848 111.793 39.0423 110.856 36.1935 110.191C31.2683 109.039 26.2544 108.292 21.3102 107.216C4.91378 103.664 -2.17022 87.0589 0.577285 74.0937C1.23567 70.9727 2.26124 67.9277 3.3058 64.1736C5.1037 65.5727 6.15459 66.3703 7.18649 67.1933C15.6822 73.9165 25.1782 78.5569 35.8833 80.3738C37.8015 80.6966 39.954 79.6774 41.9924 79.2722C40.4414 78.1074 39.055 76.4804 37.3077 75.8663C31.148 73.7139 24.7414 72.2325 18.6766 69.8585C14.72 68.3075 10.9406 65.9778 7.541 63.3949C3.05257 59.9764 2.28656 56.3236 4.21108 51.0375C4.88846 49.1763 5.76209 47.2961 6.93326 45.7071C11.2698 39.8322 13.15 33.1534 14.0869 26.0314C15.2581 17.0989 18.588 8.9703 23.7855 1.58243C24.7857 0.158032 25.6973 -0.405396 27.4129 0.309968C29.2488 1.08231 31.205 1.56977 33.0979 2.20283C41.6632 5.0453 45.0311 11.6039 45.8858 20.0046C46.3226 24.3031 46.8227 28.5953 47.4241 32.8685C47.4368 32.9635 47.4558 33.0521 47.4874 33.1407C47.8799 34.4449 49.5829 34.8627 50.6084 33.9637C50.792 33.8055 50.9503 33.6345 51.0706 33.4383C53.5269 29.5639 53.4319 25.1831 53.0268 20.8719C52.6976 17.3521 51.9126 13.8702 51.3112 10.2554L51.3175 10.2618ZM83.129 25.2527C82.5656 26.5569 82.3757 26.8291 82.3314 27.1329C80.5651 37.8951 73.7217 45.2133 65.5361 51.4996C64.7005 52.139 63.447 52.2277 62.1999 52.329C61.3516 52.3986 60.5919 51.8162 60.4463 50.9805C60.2437 49.8157 60.0411 48.6508 60.4463 47.7709C62.0353 44.3587 64.0991 41.1617 66.1059 37.9584C68.2267 34.5715 70.7463 31.4125 72.6455 27.9116C74.608 24.2905 73.2722 19.169 69.7523 17.7193C64.4852 15.5542 58.9333 14.0855 53.4003 12.2812C53.7928 17.0102 54.5588 21.3087 54.3815 25.5629C54.2486 28.7093 53.1091 31.8873 51.9505 34.869C51.5327 35.9452 49.6399 37.2113 48.608 37.0657C47.6077 36.9201 46.3289 35.1855 46.082 33.9637C45.3413 30.3616 44.7146 26.6771 44.6513 23.0117C44.4677 12.123 39.1816 5.2732 28.9639 1.86098C27.0394 1.21525 25.9505 1.39884 24.792 3.11445C20.1897 9.93889 16.8661 17.3458 15.8215 25.4996C14.7769 33.6535 11.7446 41.0414 7.3131 47.7456C2.57144 54.9245 3.50838 59.8245 11.0419 64.0597C17.3029 67.5795 24.3299 69.7572 31.072 72.3908C34.3956 73.6886 37.9345 74.4673 41.1884 75.9043C42.3469 76.4171 43.784 78.3733 43.5751 79.3419C43.3409 80.4244 41.4733 81.3423 40.1375 81.9311C39.2639 82.3173 38.0358 82.178 37.0292 81.9627C33.4334 81.1841 29.7679 80.5383 26.3051 79.3482C18.1892 76.55 10.7253 72.5047 4.29971 66.1234C1.53954 72.3022 0.697568 78.4049 1.94471 84.6026C4.57193 97.6818 11.9851 104.171 26.2164 106.83C32.1989 107.95 38.1434 109.425 43.9676 111.191C45.5186 111.66 46.5568 113.812 47.8356 115.192C46.4492 116.465 45.0755 117.756 43.6574 118.984C43.3662 119.238 42.8787 119.301 42.4609 119.371C35.2566 120.58 28.0903 120.567 21.3861 117.383C17.1509 115.37 13.2259 112.698 8.45895 109.906C8.45895 112.869 8.58556 115.654 8.43363 118.427C8.12342 124.017 10.2315 128.436 14.4034 132.076C22.475 139.129 32.1483 142.402 42.4609 144.25C46.6898 145.01 50.8427 145.041 54.869 143.224C62.2758 139.888 66.1502 129.538 63.523 119.719C59.3827 123.258 57.0151 128.645 52.1405 130.804C55.4957 126.771 59.0282 122.618 62.4151 118.339C62.9279 117.693 62.719 116.471 62.8393 115.515C61.9213 115.623 60.8451 115.458 60.1044 115.876C55.7869 118.294 51.653 121.067 47.2469 123.308C40.1375 126.936 32.5028 128.215 24.5705 127.6C28.0776 126.974 31.6291 126.651 35.149 126.094C44.0689 124.676 51.2922 119.611 58.6927 114.952C62.5354 112.527 62.8013 109.444 58.8066 107.057C54.8753 104.709 50.5768 102.753 46.2023 101.392C39.4728 99.2961 32.5344 97.8717 25.6847 96.1434C21.5191 95.0925 17.6384 93.5035 14.2072 90.0343C28.2549 96.1624 42.0811 100.455 57.5405 97.6564C55.2678 89.6988 53.0774 81.7981 50.6718 73.9545C50.4249 73.1378 49.0068 72.5554 48.0192 72.1059C42.7584 69.7066 37.3267 67.6491 32.2369 64.9333C29.0146 63.2177 26.2861 60.5651 23.336 58.3304L23.9184 57.4441C31.4076 63.7368 39.7071 68.3392 49.9121 70.7258C47.8736 64.87 45.9048 59.6852 44.2841 54.3991C43.3662 51.3983 41.7645 49.6764 38.7448 48.6002C30.7555 45.7514 26.1151 39.9209 24.6654 31.9696C26.6279 35.1222 28.4322 38.813 30.9771 41.896C33.5727 45.0487 37.2824 46.8403 41.8025 47.4037C36.4658 34.793 31.99 22.0811 31.3253 8.31825C33.1548 25.7339 41.3214 40.8262 48.2408 56.8807C52.6722 49.6258 56.7175 42.9976 60.7565 36.3694C60.5919 37.8191 60.0601 39.1295 59.3701 40.3577C57.0467 44.4916 54.7993 48.6762 52.2797 52.6835C49.6082 56.9313 49.0384 61.0463 51.3048 65.7436C52.8875 69.0355 53.6662 72.7137 54.8373 76.2019C55.2172 77.335 55.711 78.4239 56.3377 80.0129C62.0543 70.8335 67.448 62.1668 72.8417 53.5065C73.0506 53.6457 73.2659 53.7913 73.4748 53.9306C69.1446 61.3755 65.0867 68.9976 60.3766 76.1955C57.4139 80.7156 57.0467 84.7672 59.1105 89.6861C61.3326 94.9722 62.8329 100.562 64.9284 106.855C70.6893 92.1931 79.28 80.9119 91.0487 72.9099C85.9778 78.5885 79.9447 84.2608 75.2917 90.9016C71.4363 96.4093 69.0117 102.974 66.4224 109.261C65.8083 110.755 67.0492 113.015 67.4353 114.92C68.8914 114.585 70.4994 114.534 71.7845 113.869C81.4957 108.811 91.1436 103.626 100.817 98.4984C101.19 98.3022 101.64 98.2515 102.051 98.1312C101.545 98.9922 100.943 99.5999 100.222 99.9924C90.2383 105.443 80.2359 110.856 70.2525 116.313C69.4738 116.737 68.1634 117.566 68.2457 117.94C68.4482 118.832 69.1889 119.991 69.9929 120.282C72.4302 121.168 75.0891 122.511 77.4947 122.219C92.0806 120.478 104.546 114.743 112.161 101.436C116.871 93.2123 116.504 84.6026 112.351 75.5814C111.193 76.4298 110.458 77.5693 109.667 78.6645C105.388 84.6026 99.7027 88.9265 93.448 92.5476C92.0109 93.3832 90.4093 94.0353 88.7949 94.4278C87.915 94.643 86.193 94.3708 86.0158 93.8897C85.6803 92.9781 85.8259 91.4714 86.421 90.7307C87.858 88.9391 89.58 87.3438 91.3399 85.8561C97.1261 80.9562 103.115 76.2968 108.749 71.2386C112.035 68.2885 112.934 64.028 110.838 60.217C107.977 55.0005 104.299 50.2398 100.937 45.3019C100.823 45.1373 100.399 45.188 100.026 45.1183C99.7343 46.2135 99.3798 47.2011 99.2152 48.2267C97.8921 56.4439 93.6949 63.1037 87.3579 68.1683C83.3822 71.3462 78.7735 73.8342 74.1901 76.1196C71.5313 77.4427 69.8283 75.7207 70.5247 72.8023C70.8792 71.2956 71.5059 69.7446 72.4175 68.5038C74.532 65.617 76.7794 62.8188 79.166 60.16C83.5342 55.298 88.0796 50.6007 92.4794 45.7704C95.0117 42.9912 95.3219 39.7056 93.1061 36.7872C90.1497 32.8938 86.7312 29.355 83.129 25.2338V25.2527ZM57.1417 87.0273C56.8505 87.0779 56.5593 87.1286 56.268 87.1792C56.306 87.4704 56.3124 87.768 56.3883 88.0528C61.0224 105.013 66.0616 121.871 70.1828 138.951C74.1965 155.569 79.9574 171.39 88.5544 186.153C89.9788 188.596 91.7893 190.825 93.5936 193.015C94.29 193.863 95.4611 194.319 96.4107 194.959C96.645 194.724 96.8729 194.49 97.1071 194.25C96.2335 192.92 95.4485 191.515 94.4735 190.268C86.307 179.86 80.3688 168.294 76.7351 155.595C73.8356 145.472 71.3667 135.223 68.4672 125.1C64.8208 112.369 60.9274 99.7139 57.1417 87.0209V87.0273ZM58.9649 104.791C59.8132 100.182 56.7872 98.3781 48.4497 100.195C52.1784 101.828 55.5527 103.297 58.9649 104.791Z" fill="white"/>
<path d="M21.0378 49.0958C20.563 48.5134 21.1327 47.6651 21.8544 47.8993C26.8367 49.5136 31.4074 50.938 35.8832 52.5966C38.1179 53.426 40.8591 54.8947 39.4663 57.8511C38.1242 60.6999 35.2944 59.5793 33.0597 58.6614C28.2674 56.6862 24.5386 53.4006 21.0378 49.0958ZM24.564 50.0201L24.0069 50.9317C27.1089 54.0147 30.4578 56.8002 34.8386 57.8764C34.9209 57.8954 35.0095 57.9144 35.0982 57.9207C36.8961 58.1043 38.0419 55.8822 36.8897 54.4895C36.7315 54.2996 36.5605 54.154 36.3643 54.078C32.5216 52.5143 28.5143 51.3368 24.5703 50.0264L24.564 50.0201Z" fill="white"/>
<path d="M36.3642 94.2993C35.0601 94.6158 33.6926 94.5272 32.4392 94.065C30.7489 93.4383 28.932 92.7672 27.305 91.7797C24.4626 90.0514 24.874 86.8354 27.8621 85.2907C31.5149 83.4042 38.1874 85.1768 40.4031 88.6397C41.6819 90.6401 41.2135 92.3557 39.1813 93.394C38.3647 93.8118 37.4531 94.0397 36.3642 94.2993ZM34.503 86.2783C33.1102 85.6769 31.5529 85.5693 30.0842 85.9555C29.1346 86.2024 28.3369 86.4619 27.7482 86.962C27.0771 87.5318 26.7353 89.5323 27.2164 90.2413C29.1156 93.0648 35.2247 94.2929 38.2064 92.7672C40.3462 91.672 40.4475 89.6019 38.4406 88.2851C37.1998 87.4685 35.8197 86.8544 34.503 86.2847V86.2783Z" fill="white"/>
<path d="M60.877 84.6741C60.9213 81.648 62.9598 79.2487 65.53 79.3057C68.2649 79.369 68.7207 81.2809 68.67 83.4713C68.6067 86.5543 66.5619 89.1688 64.2639 89.1752C62.2317 89.1752 60.839 87.3266 60.877 84.6741ZM67.8154 83.1674C67.866 82.6926 67.7078 82.2241 67.3849 81.8696C66.8658 81.2935 66.1504 80.5085 65.4414 80.5085C63.0547 80.5085 61.8962 82.49 62.0292 84.5981C62.0988 85.7313 63.251 87.3203 64.2955 87.7381C65.6946 88.2952 67.4862 86.0858 67.8154 83.1674Z" fill="white"/>
</svg>
