<svg width="135" height="137" viewBox="0 0 135 137" fill="none" xmlns="http://www.w3.org/2000/svg">
<path d="M62.2687 71.1297L63.1611 71.8019H52.4682C51.6231 71.8019 50.9407 72.49 50.9407 73.3421C50.9407 82.6791 58.4788 90.28 67.7386 90.28C76.9984 90.28 84.5365 82.6791 84.5365 73.3421C84.5365 72.4899 83.8541 71.8019 83.009 71.8019H72.3161L73.2085 71.1297C74.5628 70.1028 75.3765 68.4726 75.3765 66.7681V66.7628C75.3765 64.2751 73.744 62.1154 71.4028 61.5015C69.0563 60.8875 66.5839 60.8716 64.2322 61.4644C61.8018 62.0731 60.1063 64.2592 60.1063 66.7682C60.1063 68.4778 60.9147 70.108 62.2743 71.1297L62.2687 71.1297ZM69.2661 79.4981V74.8771H74.8513V79.4981H69.2661ZM66.211 79.4981H61.6283V74.8771H66.211V79.4981ZM58.5784 74.8825V79.5035H55.5234C55.4971 79.5035 55.4761 79.5193 55.4499 79.5193C54.7412 78.0955 54.2635 76.5341 54.0851 74.8826H58.5838L58.5784 74.8825ZM57.5128 82.5787H66.211V87.1042C62.7675 86.7178 59.7124 85.0506 57.5128 82.5787ZM69.2661 87.1042V82.5787H77.9643C75.7649 85.0506 72.7097 86.7179 69.2661 87.1042ZM80.0325 79.5139C80.0062 79.5139 79.9852 79.498 79.959 79.498H77.9118V74.8771H81.4027C81.2189 76.5286 80.7412 78.0847 80.0379 79.5139L80.0325 79.5139ZM64.9668 64.45C65.8749 64.2224 66.8093 64.106 67.7384 64.106C68.7096 64.106 69.6807 64.233 70.6308 64.4818C71.6229 64.7411 72.321 65.678 72.321 66.7631V66.7684C72.321 67.5094 71.9693 68.224 71.3762 68.6686L67.7384 71.4209L64.1007 68.6686C63.5075 68.2239 63.1558 67.5094 63.1558 66.7684C63.1558 65.6727 63.9011 64.72 64.9668 64.45ZM134.929 56.4045C134.929 48.7613 128.767 42.5466 121.186 42.5466C113.606 42.5466 107.443 48.7607 107.443 56.4045C107.443 57.6802 107.626 58.9082 107.947 60.0779L106.723 61.9305C105.973 58.5693 104.734 55.2136 103.07 51.9901C107.401 41.7216 106.87 23.6822 100.571 20.216C95.4792 17.3948 84.4236 22.9683 77.0756 30.0188C76.5139 29.86 75.947 29.7171 75.3696 29.5901V27.15C75.3696 24.604 73.3171 22.529 70.7868 22.529H69.2593V16.2143C72.7396 15.4997 75.3696 12.3874 75.3696 8.67167C75.3696 4.42663 71.9417 0.970215 67.7318 0.970215C63.5218 0.970215 60.094 4.42663 60.094 8.67167C60.094 12.3874 62.7238 15.4998 66.2042 16.2143V22.529H64.6767C62.1518 22.529 60.094 24.5986 60.094 27.15V29.5901C59.5218 29.7171 58.9549 29.8653 58.388 30.0188C51.0388 22.9632 39.9842 17.3948 34.8924 20.2107C28.5932 23.6777 28.0578 41.7218 32.3937 51.9903C30.7296 55.2085 29.4907 58.5643 28.7401 61.9306L27.517 60.0833C27.8372 58.9082 28.0209 57.6803 28.0209 56.41C28.0209 48.7668 21.8582 42.5521 14.2775 42.5521C6.708 42.5468 0.544922 48.7608 0.544922 56.4045C0.544922 63.238 5.47934 68.9174 11.9413 70.0443L32.6497 116.443C32.256 118.597 32.0461 120.805 32.0461 123.007V134.932C32.0461 135.784 32.7285 136.472 33.5736 136.472H101.899C102.745 136.472 103.427 135.784 103.427 134.932V123.007C103.427 120.805 103.217 118.603 102.823 116.449L123.532 70.0443C129.994 68.9168 134.929 63.2374 134.929 56.4045ZM63.1553 8.67087C63.1553 6.1249 65.2077 4.04994 67.738 4.04994C70.263 4.04994 72.3208 6.11948 72.3208 8.67087C72.3208 11.2168 70.2683 13.2918 67.738 13.2918C65.2131 13.2918 63.1553 11.2223 63.1553 8.67087ZM121.187 45.6226C127.082 45.6226 131.875 50.4604 131.875 56.3993C131.875 62.3434 127.077 67.1759 121.187 67.1759C115.292 67.1759 110.5 62.3381 110.5 56.3993C110.5 50.4551 115.298 45.6226 121.187 45.6226ZM107.603 66.154L109.382 63.4651C111.608 67.2337 115.545 69.8485 120.112 70.2085L113.891 84.145C111.141 83.2028 108.574 81.7684 106.274 79.8523C106.07 79.6829 105.886 79.5082 105.692 79.3388C106.91 76.237 107.56 72.8494 107.56 69.2184C107.56 68.2762 107.503 67.3235 107.419 66.3706C107.482 66.3018 107.55 66.2387 107.603 66.154ZM107.125 99.3048C104.29 98.315 101.613 96.9441 99.1668 95.1814C97.844 94.2287 96.6209 93.1383 95.4608 91.9949C99.2718 89.3379 102.28 86.0456 104.348 82.2345C106.857 84.3148 109.645 85.892 112.642 86.9507L107.13 99.3048H107.125ZM99.1092 22.9149C102.847 24.9739 104.196 38.7146 101.088 48.5223C100.159 47.0562 99.1407 45.6323 98.0384 44.2667C99.6447 39.2012 99.5135 30.5308 95.9912 28.5836C92.8941 26.8739 87.3508 30.1133 84.2012 32.8233C82.9729 32.1882 81.7077 31.6165 80.4112 31.119C87.1513 25.1643 95.9968 21.1842 99.1092 22.9149ZM95.6026 41.4721C93.0672 38.7937 90.201 36.4013 87.0618 34.4429C90.2954 31.9128 93.6078 30.7801 94.5264 31.2882C95.7128 31.9446 96.4792 36.9677 95.6026 41.4721ZM63.1557 27.144C63.1557 26.2918 63.8381 25.6037 64.6833 25.6037H70.7935C71.6387 25.6037 72.3211 26.2918 72.3211 27.144V29.0336C70.8197 28.8325 69.2922 28.716 67.7383 28.716C66.1845 28.716 64.6569 28.8324 63.1556 29.0336L63.1557 27.144ZM36.3732 22.9095C39.4913 21.1893 48.3311 25.1644 55.0712 31.1138C53.7747 31.6114 52.5096 32.183 51.276 32.8182C48.1211 30.1081 42.5778 26.8688 39.486 28.5784C35.9689 30.5263 35.8324 39.1963 37.4388 44.2616C36.3417 45.6272 35.3181 47.051 34.389 48.5172C31.2761 38.7091 32.6305 24.9681 36.3681 22.9098L36.3732 22.9095ZM39.8745 41.4721C38.9979 36.9624 39.7695 31.9392 40.9506 31.2882C41.864 30.7907 45.1816 31.9181 48.4152 34.4429C45.2762 36.4066 42.4099 38.7937 39.8745 41.4721ZM57.0138 33.6542V38.2116C57.0138 39.0638 57.6962 39.7519 58.5413 39.7519C59.3864 39.7519 60.0688 39.0638 60.0688 38.2116V32.7385C62.0584 32.2516 64.1108 31.9498 66.2105 31.8493V36.8884C66.2105 37.7406 66.893 38.4286 67.7381 38.4286C68.5832 38.4286 69.2656 37.7405 69.2656 36.8884V31.8493C71.3706 31.9498 73.4231 32.2516 75.4073 32.7385V38.2116C75.4073 39.0638 76.0897 39.7519 76.9349 39.7519C77.78 39.7519 78.4624 39.0638 78.4624 38.2116V33.6542C93.7323 39.0055 104.505 55.0488 104.505 69.2184C104.505 85.7755 90.0744 96.4721 67.7386 96.4721C45.4028 96.4721 30.9727 85.7748 30.9727 69.2184C30.9727 55.0488 41.7433 39.0053 57.0138 33.6542ZM22.8347 86.9557C25.8269 85.8971 28.6195 84.3198 31.1287 82.2395C33.1918 86.0506 36.1995 89.3429 40.0106 92C38.8453 93.1486 37.6223 94.2389 36.3046 95.1917C33.8585 96.9491 31.1813 98.32 28.3466 99.3151L22.8347 86.961V86.9557ZM28.0526 66.4243C27.9686 67.3612 27.9161 68.2928 27.9161 69.2138C27.9161 72.8448 28.567 76.2271 29.7796 79.3342C29.5853 79.5089 29.4016 79.6783 29.1969 79.8477C26.8925 81.7585 24.3307 83.1982 21.5801 84.1404L15.3596 70.2039C19.9265 69.844 23.8635 67.2292 26.0893 63.4605L28.0473 66.4246L28.0526 66.4243ZM3.60153 56.4045C3.60153 50.4604 8.39942 45.6278 14.2892 45.6278C20.1842 45.6278 24.9768 50.4657 24.9768 56.4045C24.9768 62.3486 20.1789 67.1812 14.2892 67.1812C8.39418 67.1812 3.60153 62.3434 3.60153 56.4045ZM61.6282 133.392V127.231H73.8434V133.392H61.6282ZM76.8982 133.392V125.69C76.8982 124.838 76.2158 124.15 75.3706 124.15H60.1007C59.2555 124.15 58.5731 124.838 58.5731 125.69V133.392H49.5548V125.659C49.5548 115.549 57.7123 107.324 67.7382 107.324C77.7641 107.324 85.9216 115.549 85.9216 125.659V133.392H76.8982ZM100.374 133.392H88.972V125.659C88.972 113.85 79.4445 104.243 67.7327 104.243C56.0209 104.243 46.4934 113.849 46.4934 125.659V133.392H35.0918V123.007C35.0918 121.715 35.1916 120.429 35.3385 119.148C35.391 119.132 35.4488 119.138 35.5013 119.111C36.2729 118.762 36.6141 117.851 36.2677 117.073L29.5958 102.12C32.6089 101.041 35.4646 99.5692 38.0735 97.6902C39.7218 96.5046 41.2494 95.139 42.672 93.6728C44.2205 94.5568 45.874 95.3455 47.6273 96.0388L49.3754 98.6854C49.6694 99.13 50.1523 99.3735 50.6457 99.3735C50.9344 99.3735 51.2284 99.2888 51.4909 99.1141C52.0158 98.7594 52.252 98.1349 52.1418 97.5474C56.819 98.8495 62.0473 99.5482 67.7222 99.5482C73.402 99.5482 78.6251 98.8496 83.3026 97.5474C83.1924 98.1349 83.4338 98.7595 83.9535 99.1141C84.216 99.2888 84.5099 99.3735 84.7987 99.3735C85.2921 99.3735 85.775 99.1353 86.069 98.6854L87.8171 96.0388C89.5704 95.3455 91.2239 94.5514 92.7672 93.6728C94.1845 95.1337 95.7121 96.4993 97.3657 97.6902C99.9746 99.5692 102.825 101.041 105.843 102.12L99.1715 117.073C98.825 117.851 99.1662 118.762 99.9379 119.111C99.9904 119.138 100.048 119.127 100.101 119.148C100.248 120.429 100.347 121.715 100.347 123.007V133.392H100.374ZM52.4686 64.0998C57.5237 64.0998 61.6287 59.9553 61.6287 54.8633C61.6287 49.7661 57.5185 45.6269 52.4686 45.6269C47.4135 45.6269 43.3085 49.7714 43.3085 54.8633C43.3085 59.9605 47.4188 64.0998 52.4686 64.0998ZM52.4686 48.7025C55.8387 48.7025 58.5789 51.4656 58.5789 54.8637C58.5789 58.2619 55.8387 61.0249 52.4686 61.0249C49.0986 61.0249 46.3584 58.2619 46.3584 54.8637C46.3584 51.4656 49.0986 48.7025 52.4686 48.7025ZM49.4136 54.8637C49.4136 53.1647 50.7836 51.7832 52.4686 51.7832C54.1537 51.7832 55.5237 53.1647 55.5237 54.8637C55.5237 55.7794 55.0933 56.261 54.7311 56.4993C54.4161 56.711 54.0959 56.7798 53.8072 56.7798C53.3715 56.7798 52.9935 56.6157 52.7626 56.5204C52.6628 56.4781 52.5106 56.4093 52.4476 56.404C52.4319 56.4146 52.2796 56.4781 52.1746 56.5204C51.7914 56.6845 50.9988 57.0286 50.2062 56.4992C49.844 56.2611 49.4136 55.7794 49.4136 54.8637ZM83.0094 64.1002C88.0645 64.1002 92.1695 59.9557 92.1695 54.8637C92.1695 49.7665 88.0592 45.6273 83.0094 45.6273C77.9543 45.6273 73.8493 49.7718 73.8493 54.8637C73.8493 59.9609 77.9595 64.1002 83.0094 64.1002ZM83.0094 48.7029C86.3794 48.7029 89.1196 51.466 89.1196 54.8641C89.1196 58.2623 86.3794 61.0253 83.0094 61.0253C79.6393 61.0253 76.8991 58.2623 76.8991 54.8641C76.8991 51.466 79.6393 48.7029 83.0094 48.7029ZM79.9543 54.8641C79.9543 53.1651 81.3243 51.7836 83.0094 51.7836C84.6944 51.7836 86.0644 53.1651 86.0644 54.8641C86.0644 55.7798 85.634 56.2614 85.2718 56.4997C84.9568 56.7114 84.6366 56.7802 84.3479 56.7802C83.9122 56.7802 83.5343 56.6161 83.3033 56.5208C83.2036 56.4785 83.0513 56.4097 82.9883 56.4044C82.9726 56.415 82.8204 56.4785 82.7154 56.5208C82.3322 56.6849 81.5395 57.029 80.7469 56.4996C80.3847 56.2615 79.9543 55.7798 79.9543 54.8641ZM38.7255 68.722C37.8804 68.722 37.198 68.0339 37.198 67.1818C37.198 66.3296 37.8804 65.6415 38.7255 65.6415H41.7806C42.6258 65.6415 43.3081 66.3296 43.3081 67.1818C43.3081 68.034 42.6257 68.722 41.7806 68.722H38.7255ZM92.1738 67.1818C92.1738 66.3296 92.8562 65.6415 93.7013 65.6415H96.7564C97.6015 65.6415 98.2839 66.3296 98.2839 67.1818C98.2839 68.034 97.6015 68.722 96.7564 68.722H93.7013C92.8562 68.722 92.1738 68.0339 92.1738 67.1818ZM60.1314 119.536C60.1314 120.388 59.449 121.076 58.6039 121.076C57.7588 121.076 57.0711 120.388 57.0711 119.536C57.0711 118.684 57.7483 117.996 58.5882 117.996H58.6039C59.4491 117.996 60.1314 118.684 60.1314 119.536ZM78.4573 119.536C78.4573 120.388 77.7749 121.076 76.9297 121.076C76.0846 121.076 75.397 120.388 75.397 119.536C75.397 118.684 76.0741 117.996 76.914 117.996H76.9298C77.7749 117.996 78.4573 118.684 78.4573 119.536ZM69.2972 113.375C69.2972 114.227 68.6148 114.915 67.7696 114.915C66.9245 114.915 66.2369 114.227 66.2369 113.375C66.2369 112.523 66.914 111.835 67.7539 111.835H67.7697C68.6148 111.835 69.2972 112.523 69.2972 113.375Z" fill="black"/>
</svg>
