<svg width="95" height="194" viewBox="0 0 95 194" fill="none" xmlns="http://www.w3.org/2000/svg">
<path d="M24.3507 60.7581C25.0029 57.5345 25.6262 54.4718 26.1958 51.6444C19.0261 47.4178 11.8111 43.1622 4.58367 38.9025C7.98894 34.0031 21.5481 36.7066 26.0884 36.9213C22.6625 32.059 13.2516 24.4683 19.6122 18.8176C17.0985 15.0161 11.5965 8.84536 12.034 3.94178C12.6077 -2.55506 20.8794 0.734636 24.6892 1.60969C35.4829 -1.52729 48.6375 6.35642 52.0386 16.5764C56.5996 13.0019 60.9955 9.80297 66.5306 7.89189C69.4158 6.89714 76.5524 4.09037 79.3097 6.66186C82.4301 9.57182 80.5975 16.1925 79.0744 19.2964C76.4245 24.7036 75.2935 29.958 73.2462 35.6046C81.6665 36.492 89.0797 39.534 93.166 47.4136C94.4249 49.8407 96.8148 56.16 92.6583 57.0309C90.6895 57.4437 88.217 55.4666 86.4215 54.8722C83.6808 53.9641 80.8823 53.9311 78.059 54.542V61.2452C84.5352 60.4899 93.6655 61.691 88.4482 70.1897C84.1555 77.1819 76.4451 77.6359 69.7089 80.6078C69.7378 80.8224 69.7667 81.0412 69.7956 81.2558C79.9825 83.6292 88.9311 88.5782 91.1641 99.6319C90.9784 99.7681 90.7885 99.9002 90.6028 100.036C85.5919 97.5887 81.3363 96.3009 75.8796 95.302C77.7701 99.0168 83.8872 111.041 78.414 114.359C73.9397 117.071 64.925 107.115 60.3599 106.228C61.4454 112.609 62.143 118.784 62.5392 125.244C67.9423 122.437 73.0068 120.063 79.0785 122.528C84.9934 124.926 88.9352 130.878 93.0174 135.501C87.0778 137.024 80.193 136.388 74.0635 136.541C67.9712 136.689 65.0942 135.059 61.1317 130.564C58.4983 135.063 56.5831 139.711 53.4255 143.933C49.8097 148.771 47.0195 151.97 45.4428 157.98C42.409 169.549 44.32 181.317 44.32 193.068C40.923 194.459 38.9418 178.254 38.7849 176.025C38.2195 167.981 39.8911 160.943 41.6949 153.208C40.6547 152.82 37.4847 154.649 36.0649 154.76C33.3324 154.966 30.7444 154.095 28.2389 153.13C22.8772 151.07 18.3327 151.128 12.682 151.128C12.1207 144.957 21.6884 140.846 26.3444 139.93C33.4975 138.526 39.5733 141.832 43.9898 147.372C46.454 140.198 47.7005 133.54 46.7058 126.139C41.2574 129.767 35.0618 135.265 31.0209 127.468C27.2689 120.224 26.4104 112.663 25.3207 104.75C20.1653 107.099 14.4032 107.986 9.42534 110.743C5.34315 113.005 0.241438 118.239 0.0102927 110.322C-0.303405 99.4874 6.59381 92.8213 15.1751 87.7031C10.3623 80.7481 4.97579 72.5672 5.6651 63.5773C5.92927 60.1349 7.46473 55.7514 11.4437 55.7596C15.4764 55.7679 20.5368 59.5034 24.3631 60.754L24.3507 60.7581ZM83.8005 69.422L83.7634 69.389C81.4849 71.8242 72.0575 74.697 71.9419 78.1271C77.7618 78.3582 87.4493 71.8531 88.7619 66.933C87.8414 65.8351 86.9292 64.7495 85.7281 63.3214C82.8759 63.6392 78.1581 63.2471 75.9581 65.4306C73.8489 67.5233 74.2699 72.2329 73.4031 75.0066C77.0601 74.6393 80.7543 71.3083 83.7964 69.4261L83.8005 69.422ZM18.5308 10.3437C23.7894 15.1111 27.2731 18.4668 34.1373 20.2871C35.1238 12.3002 15.3154 -7.67595e-05 14.4486 4.65173C14.1225 4.32564 13.7965 3.99956 13.4704 3.67348C13.33 3.75604 13.1856 3.84272 13.0452 3.92527C13.6437 7.72678 16.4257 11.421 18.3121 14.7396C20.7638 19.0488 21.5646 18.6113 26.1916 18.1159C23.4798 15.6559 21.0321 13.0225 18.5349 10.3396L18.5308 10.3437ZM24.3425 40.9416C26.4187 41.9611 28.4948 42.9765 30.571 43.996C30.6825 43.802 30.7939 43.608 30.9054 43.414C26.7778 35.877 13.7015 36.2856 6.63096 38.9479C14.04 42.3491 19.5503 48.0369 26.138 50.3318C28.2307 48.2846 29.9189 46.6294 31.5947 44.9907C29.0314 43.0714 26.2907 45.486 23.4344 45.4241C24.586 44.9825 25.7376 44.5408 26.8933 44.0992C26.8892 43.9423 26.8809 43.7855 26.8768 43.6286L14.9852 41.0571C15.0182 40.9209 15.0513 40.7847 15.0843 40.6485C18.3987 41.2305 21.7132 41.8125 25.3661 42.4523C24.8626 41.6598 24.6232 41.28 24.3838 40.9044L24.3466 40.9457L24.3425 40.9416ZM79.3262 91.4757C76.99 90.7162 75.1697 89.2964 72.7096 88.7804C70.3693 88.2892 67.9051 88.4419 65.5318 88.3676C68.5408 90.9845 74.0305 93.6799 77.898 94.3196C82.5581 95.0915 85.6744 96.726 89.963 98.3069C87.9198 92.5861 84.4362 88.0911 79.0414 85.177C76.862 84.0006 73.4567 82.3042 70.8976 82.234C67.4676 82.1391 65.0076 85.016 62.3741 87.0014C64.9663 88.0085 67.0094 86.3699 69.5231 85.9984C68.8215 86.502 68.3592 86.8322 67.8969 87.1624C67.9505 87.3481 68.0083 87.5339 68.062 87.7237C71.0091 87.3977 73.9603 87.0716 76.9074 86.7455C76.9281 86.8446 76.9487 86.9436 76.9693 87.0468C76.02 87.2656 75.0748 87.4885 73.7457 87.7939C77.5637 89.1106 81.0144 90.3035 84.4609 91.4922C84.4114 91.6491 84.3577 91.8059 84.3082 91.9628C82.4301 91.4097 80.5521 90.8566 78.6699 90.3035C78.6121 90.4562 78.5543 90.6048 78.4965 90.7575C78.7855 91.0134 79.0744 91.2693 79.3633 91.5253L79.3221 91.484L79.3262 91.4757ZM85.856 132.141C82.3847 130.816 79.2065 129.718 75.5371 129.053C75.4545 129.26 75.372 129.462 75.2935 129.668C76.4781 130.717 77.6628 131.765 78.8474 132.814C73.9644 130.151 71.6117 128.991 65.9775 128.632C65.9321 128.876 65.8867 129.115 65.8372 129.359C67.3644 130.349 68.8916 131.336 70.4188 132.327C67.2942 131.559 64.764 129.066 61.7963 127.733C63.4143 132.331 66.964 134.927 71.7686 135.191C76.8249 135.472 85.3772 136.062 90.1322 134.328C86.9705 129.441 81.8812 123.716 75.8755 122.623C70.555 121.653 66.188 124.125 61.6725 126.49C61.883 126.808 62.0893 127.122 62.2999 127.439C65.6226 128.24 68.5201 125.421 72.2185 126.007C70.2702 126.519 68.6687 126.94 67.0672 127.361C67.1085 127.547 67.1457 127.737 67.1869 127.922C72.9697 128.228 81.7738 127.01 85.8148 132.182L85.8519 132.137L85.856 132.141ZM85.856 47.5127C81.1877 44.8958 76.5607 41.9239 71.0916 41.4162C74.1006 45.2343 76.053 48.5817 77.9641 53.0561C83.6932 53.0561 87.408 53.799 92.7533 55.8628C97.2854 51.0335 88.5885 42.5307 84.9026 40.1697C78.7896 36.2567 72.5734 35.5055 66.6751 39.7611C73.5393 41.2511 80.548 42.5018 85.8189 47.554L85.856 47.5127ZM39.1853 12.4776C42.5865 15.3257 43.1354 19.6101 44.5058 23.7253C45.4015 22.5325 46.0784 21.6285 46.6852 20.8195C47.5065 20.9268 48.0927 21.0053 48.6086 21.0754C56.418 10.2735 34.5211 1.6262 26.559 2.00594C26.4187 2.22057 26.2783 2.43521 26.138 2.64984C31.8423 7.37181 35.1733 13.2289 34.9999 20.0146C38.335 22.4252 41.2078 24.5013 44.5223 26.8995C43.2097 21.5914 41.9425 17.2244 39.2266 12.4405L39.1853 12.4776ZM14.915 99.1819L14.9563 99.2274C18.4648 97.308 21.6389 95.8675 25.4363 94.6705C22.0847 92.5365 18.9271 90.5264 15.6704 88.4543C5.78893 92.8131 -0.707909 103.355 1.81818 114.05C6.8621 111.168 11.3323 108.238 16.9211 106.434C19.1582 105.712 22.9391 105.105 24.652 103.409C26.4517 101.63 26.819 97.7373 27.4918 95.3639C23.1455 95.7189 19.0014 97.7084 14.915 99.1778V99.1819ZM41.2532 51.2069L41.2904 51.2482C41.6412 50.7941 41.9962 50.3442 42.4668 49.7375C39.5403 48.2103 35.6273 45.0031 32.3624 46.2373C29.6877 47.2485 27.4258 51.6568 26.6168 54.1705C24.9946 59.202 26.0059 67.1724 30.0963 70.9905C35.2187 75.7661 39.5444 63.7053 42.442 60.6797C45.4262 57.5551 52.1088 53.6133 47.5107 48.3134C45.4427 49.2711 43.3501 50.241 41.2574 51.211L41.2532 51.2069ZM66.1055 53.6504C61.3505 48.8624 55.5636 45.0238 48.5302 48.3258C54.2098 54.3232 60.4507 60.2917 66.9971 65.3522C73.6714 70.5117 76.862 63.2265 76.9776 56.9319C77.0932 50.7529 73.8819 43.996 67.8143 41.7795C60.8387 39.2286 58.164 42.4853 53.3719 46.7037C59.2578 46.8523 63.6537 48.59 66.0601 53.6917L66.1055 53.6504ZM30.9425 30.6184C38.1245 33.2436 42.3512 39.3277 46.615 45.2673C46.8337 45.193 47.0525 45.1187 47.2713 45.0444C46.5861 37.396 46.714 30.1355 40.469 24.9801C37.2123 22.2931 32.4821 20.9722 28.404 20.1385C26.2494 19.6968 19.6246 18.5617 18.2378 21.0919C15.7241 25.6818 26.1297 35.3899 28.7879 38.531C31.9703 42.2872 41.9384 52.3791 46.809 46.8027C42.5369 39.7528 37.6664 35.2702 30.9755 30.5813L30.9384 30.6226L30.9425 30.6184ZM47.0608 85.9076C46.9947 85.0697 48.5838 84.1286 46.7017 83.2701C43.7835 85.598 43.5275 89.0611 42.9249 92.3879C44.642 90.6296 45.8266 87.8888 47.1392 85.8333C45.7482 88.6648 44.3572 91.4922 42.9662 94.3238C43.1561 94.4559 43.3459 94.5838 43.5317 94.7159C47.779 94.1793 49.0379 90.1508 52.5876 88.4708C55.8938 86.9065 59.6169 86.9808 62.8984 85.1357C68.9989 81.7057 72.8624 75.0685 73.7127 68.2786C69.2466 70.2227 66.5595 66.3098 63.5877 63.73C60.3145 60.8902 57.8627 62.1574 54.0323 63.957C50.5486 65.5916 47.164 68.0351 45.191 71.4197C42.4668 76.0963 43.0405 79.9102 43.2138 84.9871C44.3902 82.622 45.3519 80.129 46.4788 77.7391C47.3332 75.9188 47.3745 72.3278 48.3733 70.9533C51.2049 70.6685 50.3546 75.2832 50.2927 76.7691H47.8615C46.9865 78.6348 46.1238 80.4716 45.1043 82.6344C48.5921 82.362 46.454 78.577 49.2401 78.0404C49.5621 79.1053 49.8799 80.1537 50.239 81.326C51.2668 80.649 52.2574 79.9928 53.248 79.3365L53.2109 79.2993C51.1595 81.5035 49.1122 83.7076 47.0608 85.9117V85.9076ZM65.2263 22.3715L65.1892 22.3344C64.6897 23.2548 64.1862 24.1794 63.6743 25.1205C71.3929 26.9655 59.0597 35.8935 59.5715 39.4886C63.6661 40.0665 68.1652 38.3659 71.137 35.555C74.3689 32.5047 74.014 29.0706 75.1614 25.1163C76.3172 21.1332 84.2422 9.00634 77.0395 6.94254C70.0267 4.9324 57.2972 12.5107 52.728 17.278C46.4705 23.8038 44.3324 32.4841 48.0473 40.859C48.2206 40.8095 48.394 40.7641 48.5673 40.7145C49.6859 37.3836 45.4675 29.1573 50.755 28.5918C51.1553 32.0631 48.2206 35.4023 50.5321 38.9644C51.7704 34.9689 51.9272 31.0023 52.2285 26.8623C52.4101 24.3239 51.8818 19.4203 54.4781 17.8724C56.4923 20.6297 54.0488 22.7843 53.442 25.3681C52.6495 28.7445 52.7403 32.579 52.4184 36.0338C52.6165 36.0958 52.8105 36.1577 53.0086 36.2155C53.9993 33.6563 54.9899 31.1014 55.931 28.6702C52.8889 24.9471 57.1486 21.2983 59.6995 25.5828C59.0102 27.5227 58.3539 29.376 57.6976 31.2252L58.1681 31.4357C61.9696 27.2132 58.2135 22.4169 60.8387 18.3099C61.0781 18.2645 61.3175 18.2191 61.561 18.1737C62.2173 20.0105 62.8777 21.8473 63.5629 23.7666C64.1201 23.2961 64.6773 22.8338 65.2304 22.3674L65.2263 22.3715ZM25.9853 78.9196C30.8145 80.8843 36.2877 87.6536 39.8251 91.484C40.4938 88.1159 38.9335 85.9159 35.5489 85.3586C35.6273 84.3928 35.7099 83.4063 35.8131 82.1185C35.2971 81.6686 28.0738 75.5061 32.3913 74.9076C34.2859 74.6475 35.5943 80.4303 36.2423 81.6974C36.4405 81.7098 36.6345 81.7222 36.8326 81.7346C38.2566 79.1012 35.9988 75.7001 35.0123 72.9965C26.7447 75.6134 28.3999 65.5709 23.9792 61.6373C21.8577 59.7469 15.2535 57.518 12.3023 57.0763C9.15292 56.6058 7.80732 58.3435 6.99831 61.3897C5.21106 68.1259 9.11577 77.0663 12.8182 82.5436C16.7642 88.3883 22.4933 91.4303 28.8292 94.0844C33.9061 92.3879 35.3178 92.3921 40.2626 94.4352C38.6363 88.0003 30.2119 83.6457 26.0265 78.8783L25.9894 78.9196H25.9853ZM37.0018 124.1C39.2018 117.641 39.7302 110.814 40.4236 104.073C40.9065 99.3883 41.3977 93.7129 34.9793 93.2011C21.9815 92.165 27.0378 114.854 29.4194 121.137C31.1695 125.751 33.0476 131.906 38.8551 129.454C43.8206 127.357 48.4559 123.163 51.337 118.652C54.412 113.831 55.4522 107.895 53.7062 102.377C51.8034 96.3628 47.0319 96.9489 41.5463 96.4784C40.469 105.976 40.7249 115.387 37.0018 124.1ZM46.3013 95.0915C53.0169 97.5392 57.8916 102.253 64.1201 106.108C66.8237 107.784 73.2462 113.435 76.2759 113.393C79.4253 113.352 79.0207 109.229 78.7772 106.624C78.2076 100.528 74.889 94.5714 69.519 91.5046C63.7775 88.2232 52.4844 86.2543 49.0461 93.3827C57.8709 93.6922 62.4072 94.9181 65.441 98.0097C59.3032 94.3816 53.3265 92.6232 46.2972 95.0874L46.3013 95.0915ZM42.7681 190.195C42.9703 190.167 43.1726 190.142 43.3748 190.113C44.2086 182.279 42.1324 174.209 42.9043 166.264C43.6225 158.863 45.9381 151.747 50.4041 145.741C54.994 139.575 59.8068 134.073 60.9212 126.143C61.6188 121.186 62.0563 103.958 55.8567 102.678C55.2582 104.907 58.197 110.021 58.6139 112.572C59.167 115.985 59.1546 119.527 58.4736 122.924C57.0619 129.945 53.0375 137.672 49.1535 143.649C49.0007 143.583 48.8439 143.512 48.6912 143.446C49.7726 137.065 49.4713 130.692 49.1452 124.166C46.2187 125.037 47.8945 128.847 48.0349 130.94C48.2082 133.511 48.0266 136.112 47.5189 138.642C46.3962 144.264 44.2251 149.667 42.4172 155.086C38.5951 166.544 39.0615 178.878 42.7639 190.191L42.7681 190.195ZM13.5612 149.956C19.0715 150.612 23.7357 150.075 29.2378 151.887C34.6367 153.666 39.5651 153.91 43.1272 148.853C37.0885 147.306 31.6194 145.82 25.5849 147.764C25.556 147.677 25.523 147.59 25.4941 147.504C26.5095 147.017 27.5207 146.53 28.5361 146.043C24.8791 144.672 21.8246 146.48 18.6588 147.632C18.6092 147.479 18.5597 147.322 18.5102 147.169C20.8712 146.228 23.2322 145.287 25.5931 144.346C22.7327 144.049 21.6265 142.604 18.8239 144.259C16.6197 145.564 14.8366 147.784 13.5612 149.956ZM49.9088 138.778C50.1152 138.803 50.3216 138.828 50.5279 138.856C57.1858 129.557 60.203 112.514 55.9062 107.722C54.6927 112.939 53.4792 116.439 51.1058 121.199C48.6829 126.057 49.9129 133.309 49.9129 138.782L49.9088 138.778ZM39.4453 80.4881C39.6971 80.4179 39.953 80.3477 40.2048 80.2776C39.4041 78.1064 37.9016 75.6629 38.7024 73.4381C39.4247 71.4197 41.2821 71.1721 41.0675 68.613C41.7692 68.3117 42.3099 68.0764 42.8671 67.8411C42.9373 66.8959 42.9992 66.0291 43.0611 65.1664L43.379 65.1788V71.5229C46.0701 68.9556 48.6086 66.5327 51.3865 63.8827C50.8458 61.6745 50.239 59.1938 49.6777 56.8947C46.8709 58.7067 43.9279 60.172 41.926 62.8343C40.0026 65.3893 38.9046 68.419 36.8367 70.9162C37.039 70.9616 37.2412 71.007 37.4435 71.0483C37.4435 74.5237 37.0183 77.7102 39.4495 80.4963L39.4453 80.4881ZM42.9208 147.789C37.6829 140.549 28.1357 139.211 22.6997 142.79C26.6622 143.867 30.5504 144.928 34.4344 145.985C34.4716 145.84 34.5129 145.7 34.55 145.556C33.9061 145.06 33.2663 144.565 32.2881 143.818C36.1598 145.044 38.8221 148.177 42.9167 147.789H42.9208ZM32.3418 12.3167C30.117 5.2007 21.0569 -0.23535 14.6674 1.61381C21.416 4.64347 26.5301 7.69376 32.3418 12.3167ZM50.2473 46.1712C59.4766 44.8628 59.7779 33.5284 62.9933 27.0811C62.8075 26.9862 62.6177 26.8912 62.4319 26.7963C59.3816 27.985 58.9565 34.0815 57.5944 36.8305C55.7081 40.632 52.7651 42.9022 50.2473 46.1671V46.1712ZM55.0229 62.6073C57.0867 62.0171 58.7295 61.5424 60.3764 61.0719C60.4424 60.849 60.5085 60.6261 60.5745 60.4032C57.8297 58.1619 55.0848 55.9206 52.3358 53.6793C52.1583 53.8114 51.9767 53.9476 51.7992 54.0797C52.8435 56.8411 53.8878 59.6024 55.0229 62.6073ZM42.1985 74.9653C42.3925 74.9653 42.5823 74.9571 42.7763 74.953C42.054 73.368 40.7249 72.0306 39.3009 73.9582C38.6074 74.8993 40.1347 77.4873 40.3163 78.1807C41.4101 82.395 41.1129 87.0922 41.3523 91.4138C41.5463 91.4221 41.7362 91.4262 41.9302 91.4345C42.4956 85.9902 41.699 80.4674 42.1985 74.9653ZM50.5362 53.0024C50.334 53.0602 50.1276 53.1138 49.9253 53.1716C49.4011 56.9566 52.0758 60.0399 52.3523 64.0148C53.2315 63.4535 53.7021 63.1522 54.0983 62.9004C52.86 59.458 51.7002 56.2302 50.5362 53.0024ZM57 27.5888C56.2653 29.9828 55.6544 31.9764 55.0477 33.97L55.609 34.131C56.6368 31.283 57.6646 28.4349 58.7625 25.3846C57.8916 25.0132 57.128 24.6871 56.1786 24.2826C55.8608 25.1164 55.6297 25.719 55.349 26.4537C55.9392 26.8582 56.4428 27.2008 57.0041 27.5847L57 27.5888ZM86.7105 62.7394C83.6478 61.4929 79.0827 60.8201 76.9652 63.6846C80.3375 63.3585 83.268 63.0737 86.7105 62.7394ZM50.2101 43.8722C52.8435 41.3543 54.9197 36.8924 54.606 35.035C53.1036 38.0522 51.6589 40.9622 50.2101 43.8722ZM62.3824 30.8289C65.3213 29.6278 65.9445 28.0098 64.2233 26.0492C63.6042 27.659 63.0758 29.0211 62.3824 30.8289ZM54.0859 39.7611C56.2859 38.3824 57.582 35.8316 57.0207 33.7884C56.0424 35.7779 55.0642 37.7674 54.0859 39.7611ZM46.454 26.6436L47.5231 22.3632C47.3497 22.322 47.1763 22.2766 47.0071 22.2353C45.4799 23.6222 45.1621 24.943 46.4581 26.6436H46.454ZM39.9613 86.7414C40.1677 86.6629 40.3741 86.5845 40.5846 86.5061C40.3864 85.3215 40.1883 84.1369 39.9943 82.9522C39.8003 82.9233 39.6022 82.8903 39.4082 82.8614C38.9954 83.398 38.5827 83.9346 38.1039 84.5537C38.7973 85.3669 39.3793 86.0562 39.9654 86.7455L39.9613 86.7414ZM60.9336 24.1546C61.1359 24.167 61.334 24.1794 61.5362 24.1918C62.5062 23.1392 62.4608 22.0784 61.1235 20.9929C61.0616 22.0454 60.9997 23.098 60.9377 24.1505L60.9336 24.1546ZM33.1219 78.9155C33.3737 78.7834 33.6213 78.6554 33.8731 78.5233C33.5388 77.6978 33.2086 76.8723 32.8742 76.0426C32.6059 76.1541 32.3418 76.2655 32.0735 76.377C32.4243 77.2231 32.771 78.0693 33.1219 78.9113V78.9155ZM62.1182 32.4346C61.8334 32.3768 61.5486 32.3149 61.2597 32.2571L60.4878 35.2042L61.1441 35.3899C61.4702 34.4034 61.7922 33.4169 62.1182 32.4305V32.4346ZM49.1535 75.019C49.3929 74.9695 49.6364 74.9199 49.8758 74.8704C49.69 74.0077 49.5002 73.1451 49.3144 72.2824C49.0915 72.3278 48.8687 72.3732 48.6416 72.4186C48.8109 73.2854 48.9801 74.1522 49.1535 75.019ZM36.0649 84.2855C36.2712 84.4382 36.4817 84.5868 36.6881 84.7395C37.1793 84.0626 37.6705 83.3815 38.1617 82.7046C37.9594 82.556 37.753 82.4074 37.5508 82.2588C37.0555 82.9357 36.5602 83.6127 36.069 84.2855H36.0649ZM48.8026 79.3984C48.5715 79.4149 48.3362 79.4314 48.105 79.4479C48.1463 80.2156 48.1876 80.9834 48.2289 81.7552C48.4229 81.747 48.6127 81.7346 48.8067 81.7263V79.4025L48.8026 79.3984ZM49.6446 30.8248C49.4589 30.7794 49.2773 30.734 49.0915 30.6886C48.9182 31.3697 48.7448 32.0548 48.5756 32.7359C48.7737 32.7854 48.9718 32.835 49.1741 32.8845C49.3309 32.1993 49.4878 31.51 49.6488 30.8248H49.6446ZM36.1474 73.9169C36.3662 73.9004 36.5891 73.8798 36.8078 73.8633C36.7253 73.4216 36.6427 72.9841 36.5643 72.5424C36.3827 72.5713 36.2011 72.6044 36.0194 72.6332C36.0607 73.0625 36.1061 73.4877 36.1474 73.9169ZM53.6071 21.4923C53.7516 21.5295 53.8961 21.5625 54.0405 21.5996C54.1685 21.1745 54.2964 20.7452 54.4203 20.3201C54.2428 20.2747 54.0653 20.2334 53.8919 20.188C53.797 20.6214 53.7021 21.0589 53.6071 21.4923ZM49.4218 42.9888C49.2897 42.9063 49.1576 42.8237 49.0296 42.7412C48.9306 42.9765 48.8356 43.2159 48.7366 43.4511C48.8191 43.4924 48.9017 43.5337 48.9842 43.5791C49.1287 43.381 49.2773 43.187 49.4218 42.9888ZM41.8683 70.7841C41.6577 70.7717 41.6082 70.8831 41.7197 71.1143C41.9302 71.1391 41.9797 71.0276 41.8683 70.7841ZM61.7385 26.0492C61.9655 25.8387 61.9408 25.686 61.6601 25.591C61.4289 25.8057 61.4537 25.9584 61.7385 26.0492Z" fill="white"/>
</svg>
