<svg width="206" height="138" viewBox="0 0 206 138" fill="none" xmlns="http://www.w3.org/2000/svg">
<path d="M202.008 93.2161C196.908 85.1761 187.548 82.0661 178.528 81.1961C174.528 80.8061 170.038 80.7461 168.828 75.8561C168.078 72.8361 169.278 69.6161 169.838 66.6761C170.568 62.8861 170.588 59.2361 168.278 55.9761C157.358 40.5261 131.328 56.0461 121.148 64.8961C106.768 77.4061 97.0984 96.0561 97.0584 115.266C93.9384 103.286 98.5484 90.7561 103.858 79.9361C106.238 75.0761 108.988 70.3961 112.098 65.9561C115.648 60.8761 119.888 56.1661 122.458 50.4661C125.528 43.6561 125.918 34.4861 119.708 29.2461C113.948 24.3861 105.638 25.2461 98.6384 25.0061C93.7484 24.8361 88.2984 24.3561 84.6784 20.6361C81.0484 16.9161 80.3384 11.4161 77.6584 7.11613C73.5384 0.496132 65.4184 -0.643868 58.8384 3.13613C51.1384 7.56613 46.4784 16.9261 44.0284 25.1361C41.2784 34.3761 40.9984 44.2261 42.4684 53.7161C46.0884 77.2261 60.4084 96.7061 75.4984 114.386C67.5684 110.276 55.6084 104.756 52.3184 107.726C43.1984 101.516 34.7684 94.2461 27.7684 85.6861C24.1484 81.2561 20.8884 76.5261 18.0784 71.5361C14.9784 66.0361 11.0984 59.5261 12.9784 53.0861C14.5684 51.0161 18.6084 52.3861 20.0384 53.8261C21.2384 55.0361 21.9184 56.8261 21.0384 58.4361C19.8484 60.6061 16.6484 60.1161 16.7484 57.3761C16.7684 56.7061 15.7884 56.6061 15.6084 57.2261C14.9584 59.4261 17.0284 61.5061 19.2184 61.3961C21.7184 61.2661 23.2584 58.5961 22.9884 56.2861C22.6784 53.7061 20.3984 51.5061 17.9284 50.8961C15.8284 50.3761 14.2784 50.8661 13.2184 52.3561C13.2384 52.3061 13.2484 52.2561 13.2684 52.2161C13.4384 51.7561 12.7784 51.5561 12.5284 51.9061C9.49836 56.1161 11.1184 60.9961 13.0284 65.3561C15.8784 71.8561 19.6384 78.0261 23.8884 83.6861C31.4484 93.7661 40.8284 102.256 51.7984 108.416C51.5884 108.826 51.4684 109.306 51.4484 109.896C42.2984 109.086 33.4384 107.856 24.6684 104.786C15.4584 101.556 4.80836 97.0761 1.79836 87.2161C1.74836 83.9061 5.26836 80.3561 8.03836 83.8861C9.01836 85.1361 9.61836 87.5261 8.16836 88.7161C7.03836 89.6361 5.11836 89.1461 4.79836 87.6961C4.61836 86.8861 3.31836 87.0561 3.34836 87.8961C3.44836 90.2661 6.17836 91.3061 8.19836 90.5361C10.7684 89.5461 10.8684 86.2761 9.66836 84.1861C8.42836 82.0361 5.55836 80.5061 3.29836 82.0861C2.09836 82.9261 1.50836 84.2661 1.39836 85.6761C1.33836 85.3761 1.27836 85.0761 1.22836 84.7761C1.16836 84.3961 0.608364 84.5161 0.588364 84.8661C-0.121636 95.4161 10.8784 101.166 19.1684 104.646C29.1984 108.866 40.5884 111.526 51.5684 111.016C52.5784 115.856 61.5884 119.286 65.3084 120.886C73.0084 124.206 81.2584 126.486 89.3384 128.646C107.118 133.396 125.328 136.276 143.678 137.626C144.218 137.666 144.218 136.826 143.678 136.786C127.928 135.576 112.368 133.076 97.0184 129.356C89.6384 127.566 82.3384 125.486 75.1284 123.106C71.5284 121.916 67.9284 120.666 64.4784 119.056C62.9884 118.366 61.5284 117.606 60.1184 116.766C57.4284 115.156 54.9184 114.226 54.9484 110.826C54.2084 108.736 54.7884 107.986 56.6884 108.576C58.0384 108.656 59.3684 108.886 60.6584 109.276C62.8284 109.846 64.8684 110.756 66.8784 111.746C70.0384 113.306 73.0384 115.176 76.1384 116.856C81.9784 120.016 88.0284 122.796 94.2084 125.196C107.318 130.296 121.128 133.876 135.188 134.776C135.718 134.806 135.848 133.926 135.318 133.846C117.038 130.856 99.3184 126.366 82.6084 118.186C81.9284 117.856 79.9284 116.726 77.2484 115.306C64.9984 99.7461 52.4284 83.2861 46.6584 64.1361C41.2384 46.1361 41.3584 21.1561 56.3584 7.40613C60.8384 3.29613 67.8684 0.976131 73.1684 4.98613C77.1284 7.97613 78.0584 13.1861 80.1484 17.4361C82.9084 23.0361 87.4884 25.8561 93.5984 26.7061C101.398 27.7961 111.708 25.2461 118.218 30.7661C127.638 38.7461 119.698 51.8461 114.168 59.3261C102.378 75.2561 88.4284 98.3461 96.5784 118.766C96.8684 119.486 97.8384 119.376 98.0484 118.846C98.1584 118.756 98.2384 118.626 98.2384 118.436C98.6884 100.836 105.238 84.0861 117.368 71.2161C123.018 65.2261 129.738 60.2361 137.188 56.7061C145.768 52.6361 165.248 46.7261 167.848 60.9661C169.048 67.5561 162.698 76.4161 169.788 81.5261C172.118 83.2061 175.108 83.3261 177.868 83.5861C183.408 84.1161 188.908 85.2661 193.658 88.3361C203.368 94.6261 205.988 107.816 196.548 115.556C189.048 121.696 178.328 123.146 168.998 123.616C156.938 124.236 145.708 121.586 133.978 119.366C124.548 117.586 114.878 117.226 106.208 121.906C105.328 122.386 106.108 123.686 106.988 123.246C119.158 117.146 132.318 121.276 144.818 123.816C155.938 126.076 167.288 126.536 178.538 124.856C186.578 123.656 195.578 121.086 201.038 114.626C206.258 108.456 206.308 99.9761 202.038 93.2561L202.008 93.2161Z" fill="white"/>
<path d="M106.218 39.0959C103.618 38.0259 100.808 38.2859 98.148 38.9459C91.578 40.5959 86.358 42.3859 80.938 36.9259C75.368 31.3259 74.798 20.9659 68.168 16.4859C62.628 12.7359 57.308 19.7959 54.878 24.0459C45.878 39.8059 52.128 58.1959 58.238 73.7059C64.918 90.6359 72.788 108.786 88.328 119.416C88.758 119.716 89.298 119.026 88.888 118.686C77.068 108.836 69.558 95.8659 63.598 81.8759C57.368 67.2459 50.148 50.7159 53.488 34.5159C54.258 30.7759 55.658 27.1159 57.738 23.8959C58.388 22.8959 59.138 21.9059 59.928 21.0159C62.028 18.6359 62.158 18.6059 65.308 19.0759C68.268 19.5159 68.218 19.4159 69.658 21.6159C70.278 22.5559 70.818 23.5559 71.348 24.5459C74.328 30.1259 76.438 36.4959 81.818 40.3259C87.108 44.0959 92.028 42.4359 97.808 40.8759C98.418 40.7159 99.018 40.5659 99.608 40.4359C99.598 40.7459 99.808 41.0859 100.198 41.1059C103.198 41.2259 105.388 42.2759 107.008 44.2359C107.038 44.4359 107.058 44.6559 107.088 44.8859C107.718 49.4059 107.928 47.4859 106.828 49.8959C105.238 53.3759 101.688 56.4359 99.078 59.1559C88.358 70.3559 81.868 84.0459 83.988 99.8559C84.118 100.806 85.608 100.856 85.518 99.8559C84.618 89.8359 86.418 79.8859 91.598 71.1659C96.018 63.7159 103.248 58.6459 107.928 51.4259C110.758 47.0659 111.998 41.4459 106.218 39.0759V39.0959Z" fill="white"/>
<path d="M188.588 95.9261C185.658 91.1161 179.928 88.4961 174.658 87.2261C171.028 86.3561 167.248 86.1661 163.678 85.0461C160.798 84.1361 157.548 82.4161 156.028 79.6661C154.518 76.9461 155.108 74.0361 155.178 71.1361C155.278 66.9861 153.458 61.7661 148.308 62.8561C142.348 64.1161 136.288 68.9461 131.748 72.8261C119.198 83.5561 110.648 98.7361 104.348 113.786C104.198 114.146 104.808 114.396 104.978 114.046C112.108 99.5861 119.918 85.1061 132.298 74.4161C135.618 71.5461 139.228 69.0061 143.108 66.9461C145.708 65.5661 151.038 62.5761 153.078 67.4561C153.968 69.5961 153.148 72.1361 153.118 74.3361C153.018 80.4761 156.728 84.5461 162.418 86.5361C170.278 89.2861 179.468 88.2361 185.588 94.9861C193.678 103.896 184.088 114.846 174.568 116.586C164.578 118.406 154.328 113.846 144.718 111.726C135.678 109.736 126.508 108.636 117.258 108.506C116.248 108.496 116.248 110.056 117.258 110.066C126.978 110.216 136.628 111.406 146.078 113.706C154.608 115.776 163.198 119.276 172.128 118.666C182.758 117.946 195.498 107.276 188.588 95.9161V95.9261Z" fill="white"/>
<path d="M73.3082 84.2959C69.3882 75.9259 66.5882 67.2059 65.0982 58.0859C64.3482 53.5159 63.9482 48.8659 63.7882 44.2359C63.6382 39.8059 64.2482 35.2759 63.8382 30.8759C63.6882 29.2259 61.1582 28.5959 60.7482 30.4559C58.8582 39.0159 60.8782 49.3359 62.8882 57.7659C65.1082 67.0559 68.6182 75.9859 73.1482 84.3859C73.2082 84.4959 73.3682 84.3959 73.3182 84.2859L73.3082 84.2959Z" fill="white"/>
<path d="M95.2781 47.3461C87.0081 53.3161 81.7081 61.6061 80.3281 71.7861C80.2881 72.0561 80.6781 72.1861 80.7481 71.9061C83.1581 62.9061 88.9381 55.0661 97.0381 50.3661C99.0181 49.2161 97.0781 46.0461 95.2681 47.3461H95.2781Z" fill="white"/>
<path d="M143.839 74.936C140.029 77.046 136.649 80.906 133.619 84.016C130.499 87.216 127.659 90.666 124.999 94.256C124.929 94.346 125.079 94.456 125.149 94.376C127.909 91.166 130.889 88.206 134.179 85.526C137.789 82.596 141.989 80.746 145.619 77.986C147.369 76.656 145.879 73.826 143.849 74.946L143.839 74.936Z" fill="white"/>
<path d="M177.078 97.956C166.498 94.626 154.588 96.346 144.118 99.166C143.948 99.206 143.978 99.496 144.158 99.476C155.098 98.116 165.298 100.116 176.058 101.636C178.428 101.966 179.488 98.716 177.068 97.956H177.078Z" fill="white"/>
</svg>
