<svg width="112" height="112" viewBox="0 0 112 112" fill="none" xmlns="http://www.w3.org/2000/svg">
<path d="M50.3176 32.1575H46.6221V35.853H50.3176V32.1575Z" fill="black"/>
<path d="M65.0998 32.1575H61.4043V35.853H65.0998V32.1575Z" fill="black"/>
<path d="M98.3595 48.7874V43.2441C98.3595 31.9727 93.882 21.163 85.9119 13.193C77.9419 5.22292 67.1322 0.745392 55.8608 0.745392C44.5895 0.745392 33.7797 5.22292 25.8097 13.193C17.8396 21.163 13.3621 31.9727 13.3621 43.2441V48.7874C9.93291 48.7913 6.64527 50.1553 4.22045 52.5801C1.79563 55.0049 0.431647 58.2926 0.427734 61.7218V69.1128C0.427734 69.6029 0.622409 70.0729 0.968933 70.4194C1.31546 70.7659 1.78544 70.9606 2.2755 70.9606H14.2213L20.5684 80.4896L13.8351 102.055C12.5565 102.894 11.5062 104.038 10.7786 105.384C10.0511 106.729 9.66896 108.234 9.66658 109.764C9.66658 110.254 9.86125 110.724 10.2078 111.07C10.5543 111.417 11.0243 111.612 11.5143 111.612H29.992C30.4821 111.612 30.9521 111.417 31.2986 111.07C31.6451 110.724 31.8398 110.254 31.8398 109.764C31.8349 108.431 31.5399 107.115 30.9755 105.908C30.411 104.7 29.5906 103.63 28.5711 102.772L35.0457 82.0472H48.4697V102.421C47.3263 103.274 46.3972 104.382 45.7558 105.656C45.1144 106.931 44.7783 108.337 44.7742 109.764C44.7742 110.254 44.9689 110.724 45.3154 111.07C45.6619 111.417 46.1319 111.612 46.622 111.612H65.0996C65.5897 111.612 66.0597 111.417 66.4062 111.07C66.7527 110.724 66.9474 110.254 66.9474 109.764C66.9433 108.337 66.6072 106.931 65.9658 105.656C65.3244 104.382 64.3953 103.274 63.2519 102.421V82.0472H76.6759L83.1431 102.772C82.125 103.631 81.3059 104.701 80.7428 105.909C80.1796 107.116 79.8858 108.432 79.8818 109.764C79.8818 110.254 80.0765 110.724 80.423 111.07C80.7695 111.417 81.2395 111.612 81.7296 111.612H100.207C100.697 111.612 101.167 111.417 101.514 111.07C101.86 110.724 102.055 110.254 102.055 109.764C102.053 108.234 101.671 106.729 100.943 105.384C100.215 104.038 99.1651 102.894 97.8865 102.055L91.1532 80.4914L97.5003 70.9606H109.446C109.936 70.9606 110.406 70.7659 110.753 70.4194C111.099 70.0729 111.294 69.6029 111.294 69.1128V61.7218C111.289 58.2927 109.925 55.0054 107.501 52.5806C105.076 50.1559 101.789 48.7918 98.3595 48.7874ZM17.0577 43.2441C17.0577 32.9528 21.1458 23.0831 28.4228 15.8061C35.6998 8.52911 45.5696 4.44093 55.8608 4.44093C66.152 4.44093 76.0218 8.52911 83.2988 15.8061C90.5758 23.0831 94.664 32.9528 94.664 43.2441V48.7874H68.7952V46.9396C68.7983 46.6537 68.7351 46.371 68.6104 46.1137L66.2416 41.3963H66.9474C68.4176 41.3963 69.8276 40.8123 70.8671 39.7727C71.9067 38.7331 72.4907 37.3232 72.4907 35.853V32.1575C72.486 31.0151 72.1284 29.902 71.4669 28.9706C70.8054 28.0392 69.8723 27.3349 68.7952 26.9541V20.147C68.7952 18.9218 68.3085 17.7469 67.4422 16.8805C66.5759 16.0142 65.4009 15.5275 64.1758 15.5275C62.9506 15.5275 61.7756 16.0142 60.9093 16.8805C60.043 17.7469 59.5563 18.9218 59.5563 20.147V26.6142H52.1653V20.147C52.1653 18.9218 51.6786 17.7469 50.8123 16.8805C49.946 16.0142 48.771 15.5275 47.5458 15.5275C46.3207 15.5275 45.1457 16.0142 44.2794 16.8805C43.4131 17.7469 42.9264 18.9218 42.9264 20.147V26.9541C41.8493 27.3349 40.9162 28.0392 40.2547 28.9706C39.5932 29.902 39.2356 31.0151 39.2309 32.1575V35.853C39.2309 37.3232 39.8149 38.7331 40.8545 39.7727C41.8941 40.8123 43.304 41.3963 44.7742 41.3963H45.48L43.1204 46.1137C42.9926 46.3702 42.9262 46.653 42.9264 46.9396V48.7874H17.0577V43.2441ZM48.4697 26.6142H46.622V20.147C46.622 19.9019 46.7193 19.6669 46.8926 19.4937C47.0658 19.3204 47.3008 19.2231 47.5458 19.2231C47.7909 19.2231 48.0259 19.3204 48.1991 19.4937C48.3724 19.6669 48.4697 19.9019 48.4697 20.147V26.6142ZM44.7742 30.3097H66.9474C67.4375 30.3097 67.9075 30.5044 68.254 30.8509C68.6005 31.1974 68.7952 31.6674 68.7952 32.1575V35.853C68.7952 36.3431 68.6005 36.813 68.254 37.1596C67.9075 37.5061 67.4375 37.7008 66.9474 37.7008H44.7742C44.2841 37.7008 43.8141 37.5061 43.4676 37.1596C43.1211 36.813 42.9264 36.3431 42.9264 35.853V32.1575C42.9264 31.6674 43.1211 31.1974 43.4676 30.8509C43.8141 30.5044 44.2841 30.3097 44.7742 30.3097ZM65.0996 26.6142H63.2519V20.147C63.2519 19.9019 63.3492 19.6669 63.5225 19.4937C63.6957 19.3204 63.9307 19.2231 64.1758 19.2231C64.4208 19.2231 64.6558 19.3204 64.829 19.4937C65.0023 19.6669 65.0996 19.9019 65.0996 20.147V26.6142ZM49.6116 41.3963H62.11L65.0996 47.3757V48.7874H46.622V47.3757L49.6116 41.3963ZM13.6781 107.916C14.0617 106.836 14.7699 105.901 15.7058 105.239C16.6417 104.578 17.7593 104.222 18.9054 104.22H22.601C23.7471 104.222 24.8647 104.578 25.8006 105.239C26.7365 105.901 27.4447 106.836 27.8283 107.916H13.6781ZM25.2654 100.963C24.4038 100.686 23.5059 100.538 22.601 100.525H18.9054C18.6504 100.525 18.4121 100.58 18.1663 100.601L23.9591 82.0472H31.1746L25.2654 100.963ZM48.7857 107.916C49.1693 106.836 49.8775 105.901 50.8134 105.239C51.7493 104.578 52.8669 104.222 54.013 104.22H57.7086C58.8547 104.222 59.9723 104.578 60.9082 105.239C61.8441 105.901 62.5523 106.836 62.9359 107.916H48.7857ZM59.5563 100.71C58.9482 100.586 58.3291 100.524 57.7086 100.525H54.013C53.3925 100.524 52.7734 100.586 52.1653 100.71V82.0472H59.5563V100.71ZM83.8933 107.916C84.2769 106.836 84.9852 105.901 85.921 105.239C86.8569 104.578 87.9745 104.222 89.1207 104.22H92.8162C93.9623 104.222 95.0799 104.578 96.0158 105.239C96.9517 105.901 97.66 106.836 98.0435 107.916H83.8933ZM92.8162 100.525H89.1207C88.2151 100.538 87.3166 100.686 86.4543 100.963L80.5452 82.0472H87.7625L93.5553 100.601C93.3114 100.58 93.0712 100.525 92.8162 100.525ZM88.1321 78.3517H23.5895L18.6615 70.9606H93.0601L88.1321 78.3517ZM107.598 67.2651H4.12327V61.7218C4.12621 59.2724 5.10052 56.9241 6.83251 55.1922C8.56449 53.4602 10.9127 52.4859 13.3621 52.4829H98.3595C100.809 52.4859 103.157 53.4602 104.889 55.1922C106.621 56.9241 107.595 59.2724 107.598 61.7218V67.2651Z" fill="black"/>
<path d="M55.8607 54.3307C54.7643 54.3307 53.6926 54.6558 52.781 55.2649C51.8694 55.874 51.1589 56.7398 50.7393 57.7527C50.3198 58.7656 50.21 59.8801 50.4239 60.9554C50.6378 62.0307 51.1657 63.0185 51.941 63.7937C52.7162 64.5689 53.7039 65.0969 54.7792 65.3108C55.8545 65.5247 56.9691 65.4149 57.982 64.9953C58.9949 64.5758 59.8607 63.8653 60.4698 62.9537C61.0789 62.0421 61.404 60.9704 61.404 59.874C61.404 58.4038 60.82 56.9939 59.7804 55.9543C58.7408 54.9147 57.3309 54.3307 55.8607 54.3307ZM55.8607 61.7218C55.4952 61.7218 55.138 61.6134 54.8341 61.4104C54.5303 61.2073 54.2934 60.9187 54.1536 60.5811C54.0137 60.2435 53.9771 59.8719 54.0484 59.5135C54.1197 59.1551 54.2957 58.8258 54.5541 58.5674C54.8125 58.309 55.1418 58.133 55.5002 58.0617C55.8586 57.9904 56.2302 58.027 56.5678 58.1669C56.9054 58.3067 57.194 58.5436 57.3971 58.8474C57.6001 59.1513 57.7085 59.5085 57.7085 59.874C57.7085 60.3641 57.5138 60.834 57.1673 61.1806C56.8207 61.5271 56.3508 61.7218 55.8607 61.7218Z" fill="black"/>
<path d="M79.8817 54.3307C78.7853 54.3307 77.7136 54.6558 76.802 55.2649C75.8904 55.874 75.1799 56.7398 74.7603 57.7527C74.3408 58.7656 74.231 59.8801 74.4449 60.9554C74.6588 62.0307 75.1867 63.0185 75.962 63.7937C76.7372 64.5689 77.7249 65.0969 78.8002 65.3108C79.8755 65.5247 80.9901 65.4149 82.003 64.9953C83.0159 64.5758 83.8817 63.8653 84.4908 62.9537C85.0999 62.0421 85.425 60.9704 85.425 59.874C85.425 58.4038 84.841 56.9939 83.8014 55.9543C82.7618 54.9147 81.3519 54.3307 79.8817 54.3307ZM79.8817 61.7218C79.5162 61.7218 79.159 61.6134 78.8551 61.4104C78.5513 61.2073 78.3144 60.9187 78.1746 60.5811C78.0347 60.2435 77.9981 59.8719 78.0694 59.5135C78.1407 59.1551 78.3167 58.8258 78.5751 58.5674C78.8335 58.309 79.1628 58.133 79.5212 58.0617C79.8796 57.9904 80.2512 58.027 80.5888 58.1669C80.9264 58.3067 81.215 58.5436 81.4181 58.8474C81.6211 59.1513 81.7295 59.5085 81.7295 59.874C81.7295 60.3641 81.5348 60.834 81.1883 61.1806C80.8417 61.5271 80.3717 61.7218 79.8817 61.7218Z" fill="black"/>
<path d="M31.8397 54.3307C30.7433 54.3307 29.6716 54.6558 28.76 55.2649C27.8484 55.874 27.1379 56.7398 26.7183 57.7527C26.2988 58.7656 26.189 59.8801 26.4029 60.9554C26.6168 62.0307 27.1447 63.0185 27.92 63.7937C28.6952 64.5689 29.683 65.0969 30.7582 65.3108C31.8335 65.5247 32.9481 65.4149 33.961 64.9953C34.9739 64.5758 35.8397 63.8653 36.4488 62.9537C37.0579 62.0421 37.383 60.9704 37.383 59.874C37.383 58.4038 36.799 56.9939 35.7594 55.9543C34.7198 54.9147 33.3099 54.3307 31.8397 54.3307ZM31.8397 61.7218C31.4742 61.7218 31.117 61.6134 30.8131 61.4104C30.5093 61.2073 30.2724 60.9187 30.1326 60.5811C29.9927 60.2435 29.9561 59.8719 30.0274 59.5135C30.0987 59.1551 30.2747 58.8258 30.5331 58.5674C30.7915 58.309 31.1208 58.133 31.4792 58.0617C31.8376 57.9904 32.2092 58.027 32.5468 58.1669C32.8844 58.3067 33.173 58.5436 33.3761 58.8474C33.5791 59.1513 33.6875 59.5085 33.6875 59.874C33.6875 60.3641 33.4928 60.834 33.1463 61.1806C32.7997 61.5271 32.3298 61.7218 31.8397 61.7218Z" fill="black"/>
</svg>
