<svg width="211" height="165" viewBox="0 0 211 165" fill="none" xmlns="http://www.w3.org/2000/svg">
<path d="M185.976 86.0373C180.751 84.6859 176.66 84.2924 171.293 84.3791C172.79 83.4444 174.331 82.5599 175.721 81.4686C183.172 75.6194 191.391 65.4123 193.524 56.0025C193.593 55.6957 193.649 55.3859 193.691 55.0742C191.137 52.8354 187.577 51.7667 184.254 51.4141C184.968 45.821 185.186 40.4362 184.259 34.8446C174.918 33.1116 165.2 35.4223 156.548 38.9199C156.474 30.7704 155.336 23.7974 152.125 16.2634C151.224 14.1497 150.193 11.935 148.907 10.0282C141.308 12.3994 134.136 16.4924 127.898 21.3916C126.433 22.5411 125.151 23.919 123.699 25.0586C122.513 22.1481 121.179 19.1671 119.645 16.4225C116.391 10.5984 111.173 3.8116 105.497 0.192871C103.765 1.09854 102.122 2.47748 100.652 3.7594C100.25 4.11152 99.8529 4.46906 99.4614 4.833C99.0699 5.19695 98.6842 5.5663 98.3041 5.94157C97.9239 6.31684 97.5491 6.69753 97.1802 7.08412C96.8114 7.47072 96.4484 7.86224 96.0909 8.25967C95.7338 8.65661 95.3822 9.05945 95.0369 9.46723C94.6917 9.875 94.3529 10.2877 94.0195 10.7058C93.6866 11.1234 93.3601 11.5465 93.0395 11.9739C92.7194 12.4014 92.4056 12.8338 92.0978 13.2706C91.7905 13.7075 91.4896 14.1492 91.1951 14.5949C90.9011 15.0411 90.6135 15.4912 90.3328 15.9458C90.0521 16.4003 89.7783 16.8593 89.5108 17.3218C89.2439 17.7847 88.9839 18.2511 88.7308 18.7219C88.4776 19.1922 88.2314 19.6665 87.9925 20.1447C87.7537 20.6224 87.5217 21.1035 87.2972 21.5886C87.0726 22.0732 86.8549 22.5612 86.6451 23.0527C86.4353 23.5437 86.2324 24.0382 86.0374 24.5356C84.1719 22.6607 82.3241 20.7558 80.3118 19.0361C79.7716 18.5741 79.2205 18.126 78.6591 17.6901C78.0977 17.2548 77.5259 16.8327 76.9438 16.425C76.3622 16.0167 75.7707 15.6227 75.1699 15.2425C74.5691 14.8623 73.9599 14.4969 73.3418 14.1463C72.7237 13.7951 72.0978 13.4593 71.4635 13.1387C70.8297 12.8176 70.188 12.5117 69.5394 12.2217C68.8908 11.9311 68.2358 11.6563 67.5739 11.3973C66.912 11.1382 66.2447 10.8949 65.571 10.6679C60.8964 16.5067 57.5835 25.034 56.5507 32.4349C56.1927 34.9978 56.1267 37.5656 56.0691 40.1486C54.1174 39.206 52.2854 38.0709 50.2835 37.2199C43.9024 34.5088 33.3323 31.9518 26.412 33.2677C25.1912 38.191 25.0223 43.0922 25.4054 48.1357C25.5295 49.7682 25.8358 51.4116 25.8905 53.0452C22.9834 53.6352 19.4105 55.4199 17.3268 57.543C17.7035 59.8 18.6747 62.1097 19.6439 64.1663C23.0642 71.423 28.1067 77.6972 34.6527 82.3624C35.3441 82.85 36.0543 83.308 36.7831 83.7369C27.8949 82.3767 17.7203 85.4636 10.5232 90.7631C6.52476 93.7076 1.74526 97.5771 0.00976562 102.37V103.299C0.189028 103.547 0.377155 103.77 0.608127 103.973C2.46379 105.601 5.23595 106.174 7.51809 106.995C8.85222 107.477 10.1627 108.016 11.4495 108.614C15.2298 110.373 18.6058 112.76 22.3082 114.627C32.5961 119.816 44.1619 121.035 55.5269 120.215C52.4001 123.228 49.8141 127.284 48.1545 131.294C44.909 139.134 44.4087 148.481 47.7442 156.373C49.2044 159.828 51.3098 163.267 54.929 164.721C56.3498 164.468 57.6682 163.782 58.9905 163.227C60.2118 162.704 61.4632 162.267 62.7441 161.915C64.7943 161.368 66.9184 161.266 69.0095 160.955C73.427 160.297 77.7342 159.094 81.7341 157.09C90.2904 152.803 98.2144 144.688 102.558 136.18C103.542 134.254 104.278 132.174 104.957 130.124C106.084 134.529 110.901 140.521 114.08 143.694C122.244 151.842 133.985 158.549 145.691 159.218C153.172 159.646 157.932 156.462 164.679 161.533C164.772 161.432 164.861 161.327 164.944 161.217C165.563 160.415 165.978 159.39 166.328 158.448C167.884 154.26 168.076 149.648 167.502 145.249C166.103 134.519 159.946 127.274 151.671 120.916C161.362 122.484 170.139 122.554 179.699 120.235C184.185 119.148 188.629 117.539 192.556 115.072C194.741 113.697 196.832 112.19 198.828 110.552C200.82 108.927 202.751 107.192 204.861 105.721C206.674 104.457 208.705 103.761 210.581 102.643V101.746C210.005 100.767 209.442 99.8242 208.676 98.9762C203.825 93.5993 192.972 87.8472 185.974 86.0368L185.976 86.0373ZM192.161 55.5204C191.663 57.3686 190.576 59.3563 189.685 61.0563C185.697 68.6666 180.425 75.2648 173.52 80.4358C171.883 81.6725 170.225 82.9327 168.363 83.8133C176.968 74.8068 181.298 65.1562 184.008 53.1166C186.765 53.7021 189.555 54.4478 192.161 55.5204ZM156.488 40.8874C158.005 40.4092 159.475 39.795 161.003 39.3385C166.604 37.6665 172.259 36.8549 178.097 36.7106C179.429 36.718 180.758 36.7693 182.086 36.8643C183.322 47.2763 181.207 57.8542 176.727 67.2896C176.519 67.7225 176.305 68.1529 176.086 68.5809C175.866 69.0089 175.642 69.4339 175.413 69.8559C175.184 70.278 174.95 70.6976 174.71 71.1142C174.471 71.5308 174.226 71.9445 173.977 72.3553C173.727 72.766 173.473 73.1738 173.213 73.5781C172.953 73.9824 172.689 74.3838 172.42 74.7817C172.15 75.1796 171.876 75.5746 171.598 75.9656C171.319 76.3566 171.035 76.7447 170.747 77.1293C170.459 77.514 170.166 77.8947 169.868 78.2719C169.57 78.6491 169.268 79.0229 168.961 79.3928C168.654 79.7626 168.343 80.1285 168.027 80.491C167.712 80.8535 167.391 81.212 167.067 81.5661C166.742 81.9207 166.414 82.2713 166.081 82.6175C165.748 82.9637 165.411 83.3065 165.069 83.6448C164.728 83.9832 164.383 84.3171 164.033 84.647C163.684 84.977 163.33 85.3025 162.973 85.6236C162.615 85.9447 162.254 86.2619 161.889 86.5741C161.524 86.8868 161.155 87.1946 160.782 87.498C160.41 87.8014 160.034 88.1003 159.654 88.3948C159.274 88.6888 158.89 88.9784 158.504 89.2635C158.117 89.5487 157.727 89.8289 157.333 90.1042C156.939 90.3795 156.542 90.6503 156.142 90.9158C155.741 91.1812 155.338 91.4423 154.931 91.6983C154.524 91.9544 154.115 92.2051 153.702 92.4513C153.289 92.6971 152.874 92.9384 152.455 93.1743C152.036 93.4102 151.615 93.6407 151.19 93.8662C150.766 94.0918 150.339 94.3119 149.909 94.5271C149.48 94.7423 149.048 94.9521 148.613 95.157C148.178 95.3619 147.741 95.5609 147.301 95.7549C146.861 95.9489 146.42 96.137 145.975 96.3203C145.531 96.5035 145.085 96.6812 144.636 96.8536C144.187 97.026 143.737 97.1929 143.284 97.354C144.995 95.0053 146.642 92.5809 147.945 89.9796C150.298 85.2168 152.183 80.4905 153.489 75.3308C153.779 74.1828 154.168 72.9797 154.266 71.8002C154.298 71.4072 154.3 71.029 154.036 70.7153C153.713 70.6498 153.374 71.0827 153.16 71.3083C152.549 71.9504 151.941 72.6877 151.194 73.1747C149.292 74.4158 144.91 75.0427 142.597 75.5391C147.999 69.9569 151.873 62.1831 154.025 54.7792C154.733 52.3404 155.224 49.8017 155.672 47.3034C156.054 45.1724 156.152 43.0198 156.486 40.8869L156.488 40.8874ZM97.263 65.233C96.2514 67.6023 95.0138 69.8643 93.9372 72.2031C91.5571 77.3761 91.1877 82.29 92.413 87.8289C92.4175 87.9264 92.3953 88.0309 92.383 88.1279C92.3219 88.1067 92.2579 88.0929 92.2003 88.0638C92.0318 87.9801 91.795 87.6585 91.662 87.5157C90.2476 85.994 89.699 83.8128 89.1681 81.8448C86.5752 72.2351 88.0418 59.4218 92.9941 50.7941C93.2557 51.0152 94.9222 54.4305 95.426 55.183C94.9389 59.1381 95.4886 61.7226 97.2625 65.233H97.263ZM115.097 54.4743C116.239 53.3604 116.901 51.9972 117.634 50.603C117.665 50.6192 117.7 50.6281 117.727 50.6507C118.284 51.1191 118.778 52.631 119.072 53.3091C121.533 58.9835 123.094 65.2503 123.094 71.4663C123.094 75.1279 121.73 83.0893 119.722 86.1486C119.252 86.8656 118.474 87.5108 117.869 88.117L117.417 88.5908C117.31 88.3322 117.678 86.3658 117.731 85.8891C117.964 83.7862 117.926 81.6956 117.717 79.5937C117.166 74.0632 115.205 69.7028 113.287 64.5938C115.192 61.0297 115.14 58.4142 115.098 54.4739L115.097 54.4743ZM122.585 60.2595C125.008 53.873 127.463 49.42 132.898 45.0301C134.265 43.9264 135.845 42.7406 137.443 42.0087L137.515 42.0826C137.523 42.8134 137.229 43.5984 137.098 44.3219C136.936 45.2197 136.839 46.1278 136.75 47.0355C136.383 50.8266 136.409 54.6467 135.934 58.427C135.883 58.8712 135.824 59.3144 135.758 59.7567C135.691 60.1989 135.618 60.6402 135.536 61.08C135.455 61.5197 135.367 61.9581 135.271 62.3949C135.175 62.8317 135.073 63.2666 134.962 63.7C134.851 64.1333 134.734 64.5647 134.609 64.9942C134.484 65.4236 134.353 65.8506 134.214 66.2756C134.074 66.7006 133.928 67.1232 133.775 67.5433C133.622 67.9633 133.462 68.381 133.295 68.7956C133.128 69.2103 132.953 69.6225 132.773 70.0312C132.592 70.44 132.404 70.8458 132.209 71.2487C132.015 71.6515 131.813 72.0504 131.605 72.4464C131.398 72.8423 131.183 73.2348 130.962 73.6234C130.741 74.012 130.514 74.3971 130.28 74.7783C130.046 75.1594 129.806 75.5367 129.56 75.9095C129.313 76.2828 129.06 76.6516 128.802 77.0161C128.543 77.3805 128.278 77.741 128.007 78.0966C127.104 79.3031 126.169 80.554 125.097 81.6158C124.045 82.6584 122.823 83.5385 121.654 84.4461L121.96 83.5197C124.735 75.5943 124.633 68.3411 122.586 60.2585L122.585 60.2595ZM112.821 63.4645C111.752 61.6094 110.995 59.5129 110.081 57.572C109.484 56.3059 106.094 49.4314 105.344 49.0049C105.051 49.0069 105.044 49.0512 104.814 49.2432C102.195 54.0183 100.183 59.1765 97.8293 64.091C96.2706 61.1267 96.0731 58.7919 96.3775 55.4805C96.8552 50.2843 98.8226 45.5861 101.572 41.203C103.354 38.3624 104.484 36.9884 105.309 33.6474C105.581 34.0897 105.7 34.6575 105.881 35.1441C106.159 35.8995 106.495 36.6279 106.889 37.3292C107.777 38.8795 108.929 40.2624 109.925 41.7428C111.058 43.429 111.976 45.4118 112.666 47.3221C114.338 51.9494 114.985 58.8653 112.82 63.4636L112.821 63.4645ZM87.2026 66.0333C86.4393 71.9839 86.8751 78.2256 88.7416 83.9349L89.1464 84.9676L89.0824 84.912L88.9745 84.8209C87.734 83.7606 86.1876 82.979 85.0687 81.8015C84.3462 81.0416 83.7099 80.1438 83.0855 79.3012C78.3454 72.9024 74.7616 64.2062 74.05 56.2635C73.8968 54.5536 73.9594 52.8369 73.9027 51.123C73.7929 47.8096 73.2556 44.7779 72.3298 41.599C79.9868 44.9735 84.9889 52.96 88.1767 60.3516C87.9221 62.253 87.4479 64.124 87.2031 66.0333H87.2026ZM91.8482 89.1586C92.8011 90.2962 93.6427 91.5698 94.4952 92.7867C95.8466 94.7172 97.2472 96.7512 98.2307 98.8974C97.7574 99.1141 97.2925 99.347 96.8355 99.5967C96.3785 99.8464 95.9313 100.111 95.4935 100.393C95.0552 100.674 94.6277 100.97 94.2106 101.281C93.7934 101.592 93.3876 101.918 92.9937 102.258C91.103 103.816 89.4779 105.761 88.0093 107.709C83.1175 107.867 78.6872 105.955 74.8173 103.092C67.995 98.0449 63.5755 90.7887 60.4541 83.0135C59.0973 79.6341 57.9912 76.3035 57.449 72.6901C58.9575 73.3003 60.2099 74.3724 61.7981 74.9112C66.4372 76.4852 71.366 77.0786 75.9835 78.79C82.0404 81.0352 87.6488 84.1437 91.8482 89.1581V89.1586ZM96.9286 94.5808C95.9436 93.0083 94.6366 91.3915 94.0027 89.6462C92.6135 85.8201 92.3037 81.2952 93.1655 77.3175C94.0308 73.3245 96.7488 68.9242 98.5208 65.1853C100.808 60.358 102.964 55.4623 105.233 50.6242C105.951 51.4244 106.649 53.1048 107.152 54.0774C109.596 58.7466 111.771 63.5384 113.676 68.4519C114.389 70.3302 115.11 72.1937 115.607 74.1444C116.799 78.8328 117.218 84.842 115.887 89.5009C115.422 91.131 114.557 92.3706 113.722 93.8185C112.832 95.3609 112.002 96.9935 111.462 98.6915C109.166 97.9193 106.991 97.5977 104.568 97.5628C102.718 97.6475 100.956 97.9543 99.1644 98.4088C98.4321 97.1274 97.7116 95.8322 96.9286 94.5813V94.5808ZM115.001 93.5904C122.306 81.9783 132.467 79.0998 145.055 76.1163C147.847 75.4544 150.653 75.1442 152.875 73.1644L152.944 73.2688C152.746 74.8585 152.138 76.5108 151.665 78.0365C149.308 85.632 144.866 95.4771 138.686 100.68C134.015 104.613 128.972 108.083 122.562 107.528C121.925 106.868 121.386 106.108 120.781 105.418C119.808 104.309 118.727 103.309 117.595 102.366C117.198 102.025 116.789 101.699 116.367 101.389C115.945 101.079 115.512 100.785 115.068 100.507C114.623 100.23 114.17 99.969 113.706 99.7257C113.242 99.4825 112.77 99.2569 112.289 99.0491C113.236 97.2451 113.909 95.3259 115.001 93.5909L115.001 93.5904ZM124.236 27.9514C124.704 27.4762 125.181 27.0078 125.664 26.5474C126.147 26.0869 126.638 25.6343 127.135 25.1891C127.633 24.7444 128.137 24.3076 128.649 23.8786C129.161 23.4497 129.679 23.0291 130.204 22.6164C130.729 22.2037 131.26 21.7999 131.798 21.4044C132.335 21.009 132.879 20.6219 133.429 20.2432C133.979 19.8649 134.535 19.4951 135.097 19.1346C135.658 18.7741 136.225 18.422 136.799 18.0792C137.371 17.7364 137.95 17.4025 138.533 17.078C139.117 16.7534 139.705 16.4388 140.298 16.1324C140.892 15.8266 141.49 15.5301 142.093 15.243C143.958 14.361 145.897 13.638 147.829 12.917C148.328 13.5051 148.679 14.5787 149.004 15.3031C151.6 21.0932 153.34 27.5486 153.929 33.8681C153.969 34.3394 154.004 34.8107 154.033 35.283C154.062 35.7547 154.086 36.2275 154.103 36.6998C154.121 37.1726 154.132 37.6454 154.138 38.1182C154.144 38.5909 154.145 39.0637 154.139 39.537C154.133 40.0098 154.122 40.4825 154.105 40.9553C154.088 41.4281 154.065 41.9004 154.036 42.3722C154.008 42.844 153.973 43.3158 153.933 43.7871C153.893 44.2584 153.847 44.7292 153.795 45.199C153.743 45.6693 153.686 46.1387 153.622 46.607C153.559 47.0758 153.49 47.5437 153.415 48.0106C153.34 48.4774 153.26 48.9433 153.174 49.4087C153.088 49.8736 152.996 50.3375 152.899 50.8005C152.801 51.2634 152.698 51.7248 152.589 52.1848C152.481 52.6448 152.366 53.1038 152.246 53.5613C152.126 54.0188 152 54.4748 151.869 54.9289C151.738 55.3835 151.602 55.8361 151.459 56.2872C151.317 56.7383 151.169 57.1874 151.016 57.6351C150.863 58.0822 150.704 58.5279 150.54 58.9712C150.375 59.4149 150.206 59.8562 150.031 60.2954C149.856 60.7347 149.675 61.1716 149.49 61.6069C149.304 62.0418 149.113 62.4747 148.917 62.9046C148.72 63.335 148.519 63.763 148.312 64.188C148.105 64.613 147.893 65.036 147.676 65.4561C147.459 65.8762 147.237 66.2938 147.009 66.7085C146.782 67.1232 146.55 67.5349 146.312 67.9441C146.074 68.3534 145.832 68.7592 145.585 69.1625C145.338 69.5659 145.086 69.9658 144.828 70.3627C144.571 70.7596 144.309 71.1531 144.042 71.5437C143.775 71.9342 143.504 72.3213 143.227 72.7049C142.951 73.0886 142.67 73.4692 142.384 73.846C142.099 74.2232 141.809 74.5965 141.514 74.9659C141.219 75.3357 140.92 75.7021 140.616 76.0646C135.927 77.2672 131.484 78.8988 127.05 80.8175C132.672 74.173 136.069 66.5081 137.064 57.8399C137.397 54.9388 137.458 51.9908 137.595 49.0748C137.691 47.5639 137.834 46.0466 138.114 44.5573C138.312 43.5059 138.607 42.451 138.749 41.3931C138.789 41.1001 138.892 40.6953 138.738 40.4441C138.413 40.3146 138.183 40.3673 137.874 40.4978C136.619 41.0252 135.322 41.9767 134.194 42.7479C128.13 46.8956 124.849 51.7982 122.147 58.4964C121.462 56.5088 119.345 50.3178 117.933 49.096C117.731 48.9212 117.618 48.8926 117.359 48.9108C116.981 49.3998 116.731 50.0942 116.449 50.6537C116.042 51.4668 115.606 52.2488 115.114 53.0142C114.801 51.5825 114.57 50.1341 114.177 48.7197C113.751 47.1876 113.139 45.7329 112.522 44.2712C113.253 43.2123 113.845 42.0353 114.483 40.9179C115.521 39.1016 116.594 37.3189 117.8 35.608C118.187 35.0648 118.584 34.5275 118.988 33.9966C119.393 33.4657 119.806 32.9412 120.227 32.4231C120.649 31.9055 121.078 31.3943 121.516 30.89C121.953 30.3857 122.399 29.8888 122.852 29.3983C123.305 28.9083 123.766 28.4252 124.235 27.9499L124.236 27.9514ZM105.155 2.91184C105.274 2.92268 105.311 2.91825 105.434 2.97291C106.43 3.41565 107.721 4.87782 108.511 5.68401C108.88 6.06469 109.244 6.4508 109.603 6.84133C109.961 7.23187 110.314 7.62782 110.661 8.0282C111.009 8.42859 111.351 8.8339 111.687 9.24413C112.023 9.65437 112.353 10.0685 112.678 10.4876C113.003 10.9067 113.322 11.3303 113.635 11.7582C113.948 12.1862 114.255 12.6186 114.556 13.0549C114.858 13.4913 115.153 13.9315 115.442 14.3763C115.731 14.8205 116.014 15.2691 116.29 15.7217C116.567 16.1738 116.838 16.6298 117.101 17.0898C117.365 17.5498 117.623 18.0132 117.875 18.4801C118.126 18.9469 118.371 19.4173 118.609 19.891C118.848 20.3648 119.08 20.8415 119.305 21.3217C119.53 21.8018 119.749 22.2845 119.96 22.771C120.172 23.2571 120.377 23.7461 120.576 24.2376C120.774 24.7296 120.966 25.2236 121.151 25.7205C121.335 26.2174 121.513 26.7173 121.684 27.2191C117.657 31.7612 114.088 36.6939 111.311 42.1043C109.997 40.1142 108.384 38.2191 107.355 36.063C107 35.3155 106.697 34.5467 106.447 33.7577C106.251 33.1431 106.16 32.0804 105.813 31.5633C105.658 31.3308 105.612 31.3288 105.356 31.2924C104.801 31.6179 104.727 32.3232 104.569 32.9067C104.222 34.1601 103.888 35.4204 103.306 36.59C102.739 37.7306 101.96 38.7293 101.254 39.7832C100.365 41.0878 99.5791 42.451 98.895 43.8737C96.0047 37.7493 92.1968 32.1454 87.8689 26.9527C90.9582 17.1996 97.4501 9.43029 105.156 2.91135L105.155 2.91184ZM57.5007 40.68C57.5066 40.2939 57.517 39.9078 57.5322 39.5217C57.5475 39.1356 57.5672 38.75 57.5923 38.3644C57.617 37.9788 57.646 37.5937 57.68 37.209C57.714 36.8244 57.7529 36.4398 57.7957 36.0561C57.8391 35.6725 57.8868 35.2889 57.9395 34.9062C57.9922 34.5235 58.0494 34.1414 58.1114 33.7602C58.1735 33.379 58.2399 32.9983 58.3109 32.6191C58.3818 32.2394 58.4576 31.8607 58.5379 31.483C58.6182 31.1053 58.7034 30.7285 58.7925 30.3527C58.8821 29.977 58.9762 29.6022 59.0747 29.2289C59.1732 28.8556 59.2761 28.4833 59.384 28.1125C59.4918 27.7416 59.6036 27.3718 59.7203 27.0039C59.837 26.6355 59.9582 26.2686 60.0838 25.9037C60.2094 25.5383 60.3394 25.1743 60.4738 24.8124C60.6083 24.4504 60.7471 24.0899 60.89 23.7314C61.0333 23.3729 61.1805 23.0158 61.3322 22.6602C61.4839 22.3052 61.64 21.9516 61.8006 21.6004C61.9611 21.2488 62.1256 20.8996 62.2945 20.5519C62.4634 20.2047 62.6363 19.8595 62.8136 19.5163C62.9909 19.173 63.1721 18.8317 63.3578 18.4934C63.5434 18.1545 63.733 17.8182 63.9266 17.4838C64.1201 17.1499 64.3181 16.818 64.52 16.4885C64.7219 16.159 64.9278 15.8325 65.1376 15.508C65.3474 15.1834 65.5611 14.8618 65.7788 14.5427C65.9965 14.2236 66.2176 13.9069 66.4432 13.5932L66.5677 13.637C73.8973 16.2226 81.2195 21.3074 86.4895 26.9995C91.3212 32.2183 95.2773 38.5373 98.3523 44.9277C97.0743 47.7525 95.9653 50.5769 95.6205 53.6859C94.8764 52.2272 94.1997 50.7315 93.4305 49.2876C93.2212 49.1974 93.1892 49.1871 92.9759 49.2787C91.6443 49.8485 89.1528 56.955 88.6224 58.6008C88.0314 57.4529 87.47 56.2886 86.8456 55.1584C83.8789 49.7869 79.6731 44.2308 74.1554 41.3089C73.4285 40.9243 72.6154 40.4441 71.8151 40.2393C71.5103 40.1614 71.3202 40.1521 71.0473 40.3092C71.0749 41.629 71.7186 43.0538 72.0323 44.3367C72.3997 45.8377 72.611 47.3482 72.7814 48.8813C72.9404 51.4756 72.8129 54.1257 73.0744 56.7023C73.9643 65.4876 77.7116 73.2663 82.5511 80.5245C78.5256 78.6674 74.5626 77.2682 70.316 76.0237C69.8097 75.2269 69.1538 74.4966 68.6027 73.7258C67.6507 72.3951 66.7697 71.0029 65.9044 69.6146C62.1305 63.5586 59.1505 55.8301 58.0666 48.7636C58.007 48.3819 57.9518 47.9997 57.9016 47.6166C57.8514 47.2334 57.8056 46.8503 57.7647 46.4662C57.7238 46.082 57.6874 45.6974 57.6559 45.3128C57.6243 44.9277 57.5973 44.5425 57.5746 44.1569C57.5524 43.7713 57.5347 43.3852 57.5219 42.9996C57.5091 42.6135 57.5007 42.2274 57.4973 41.8413C57.4938 41.4552 57.4948 41.0686 57.5007 40.6825V40.68ZM27.7063 43.0474C27.7171 42.5357 27.7353 42.0245 27.7614 41.5133C27.7875 41.0021 27.8205 40.4919 27.8614 39.9817C27.9407 38.8529 27.9294 36.8052 28.3539 35.7941L28.6356 35.6912C38.4029 35.1047 48.254 38.1507 56.5296 43.2355C56.5685 43.8043 56.6162 44.3721 56.6719 44.939C56.7275 45.5063 56.7911 46.0727 56.8635 46.638C56.9354 47.2034 57.0156 47.7678 57.1043 48.3307C57.1929 48.8941 57.2895 49.4555 57.3939 50.0154C57.4988 50.5759 57.6115 51.1344 57.7322 51.6913C57.8533 52.2483 57.9819 52.8034 58.1193 53.3564C58.2562 53.91 58.4015 54.461 58.5546 55.0102C58.7078 55.5593 58.8688 56.1059 59.0378 56.6501C59.2067 57.1943 59.3835 57.7365 59.5682 58.2753C59.7528 58.8146 59.9454 59.3509 60.1453 59.8847C60.3453 60.4181 60.5536 60.949 60.7688 61.4764C60.9845 62.0039 61.2076 62.5283 61.4386 63.0494C61.6696 63.5704 61.9079 64.088 62.1537 64.6022C62.3994 65.1163 62.653 65.627 62.9136 66.1338C63.1741 66.6405 63.4425 67.1434 63.7178 67.6427C63.9931 68.1416 64.2758 68.6366 64.5653 69.1276C65.9172 71.4136 67.4803 73.5973 69.0503 75.7376C65.8492 75.0181 62.4354 74.4104 59.5716 72.7335C58.6531 72.1957 57.9592 71.36 57.0614 70.8532C56.8142 70.9433 56.6601 71.1044 56.5586 71.3501C55.5796 73.7189 59.9154 84.3062 61.0894 86.8652C62.7451 90.4573 64.918 93.6426 67.0637 96.9418C65.1716 96.0474 63.1928 95.3368 61.2633 94.5271C47.4773 88.7474 37.2535 77.7991 31.6101 64.0245C31.4161 63.5512 31.229 63.075 31.0487 62.5958C30.8685 62.1171 30.6956 61.6355 30.5296 61.1519C30.3637 60.6678 30.2046 60.1817 30.0529 59.6927C29.9012 59.2041 29.7565 58.7131 29.6191 58.2206C29.4817 57.7277 29.3516 57.2327 29.2285 56.7363C29.1059 56.2394 28.9902 55.741 28.8818 55.2411C28.7735 54.7413 28.6725 54.2394 28.5789 53.7366C28.4854 53.2338 28.3992 52.7295 28.3204 52.2237C28.2416 51.7179 28.1702 51.2117 28.1062 50.7039C28.0421 50.1962 27.986 49.688 27.9367 49.1787C27.8875 48.6695 27.8461 48.1593 27.8121 47.6491C27.7782 47.1384 27.7516 46.6277 27.7324 46.1165C27.7132 45.6053 27.7013 45.0936 27.6974 44.5819C27.6935 44.0702 27.6969 43.5586 27.7077 43.0469L27.7063 43.0474ZM35.8479 79.5238C33.9494 78.1636 32.081 76.7398 30.4119 75.1003C26.1343 70.8975 21.2839 63.5847 19.6518 57.8227C21.5995 56.4098 23.9314 55.711 26.1934 54.9777C26.3121 55.0698 26.2648 55.0126 26.3367 55.1806C26.6647 55.9469 26.772 56.9358 26.9784 57.7508C27.3502 59.2204 27.8082 60.6904 28.3002 62.124C28.6149 63.0479 28.9532 63.9634 29.3147 64.8701C29.6762 65.7767 30.0603 66.674 30.4676 67.561C30.8744 68.4484 31.3038 69.3245 31.7554 70.1898C32.207 71.0551 32.6803 71.9086 33.1757 72.7502C33.6707 73.5914 34.1868 74.4197 34.7241 75.2348C35.2614 76.0498 35.8189 76.8506 36.3965 77.6376C36.9747 78.4246 37.5721 79.1958 38.1892 79.9522C38.8062 80.7087 39.4425 81.4489 40.097 82.1728C38.6703 81.308 37.2298 80.459 35.8474 79.5243L35.8479 79.5238ZM51.6018 117.189C41.1386 117.447 30.5429 116.085 21.2582 110.97C19.8143 110.174 18.4753 109.189 17.0392 108.375C12.4133 105.752 7.25117 103.628 2.02154 102.624C2.97941 101.123 4.01115 99.6568 5.22413 98.3488C11.4564 91.6294 22.1319 86.485 31.3442 86.1668C35.1589 86.1417 38.629 86.6169 42.2777 87.7561C43.3932 88.1042 44.5057 88.4529 45.5424 89C46.8977 89.7151 48.0855 90.8119 49.3832 91.6363C52.3455 93.4796 55.4126 95.1284 58.5837 96.5832C61.5248 97.9006 64.5515 99.088 67.5699 100.214C68.6977 100.634 70.0668 100.868 71.1074 101.453C72.2519 102.096 73.1985 103.193 74.2499 103.99C78.1129 106.915 82.5595 108.697 87.4188 108.847C87.1918 109.423 87.016 110.021 86.8263 110.611C84.4117 111.556 81.9459 112.28 79.453 112.982C77.7017 113.487 75.9386 113.948 74.1642 114.364C72.3898 114.78 70.6056 115.151 68.8125 115.477C67.0194 115.804 65.2189 116.084 63.4115 116.32C61.6041 116.555 59.7917 116.745 57.975 116.89C55.8849 117.124 53.7062 117.137 51.6023 117.189H51.6018ZM97.4806 139.583C91.8418 147.997 82.9067 155.105 72.9877 157.603C69.5881 158.459 66.1373 158.613 62.7195 159.289C60.1552 159.963 57.8307 161.004 55.4264 162.097C54.3912 161.413 53.4457 160.675 52.6286 159.734C48.6243 155.122 47.594 147.753 48.0653 141.831C48.7267 133.524 53.06 125.359 59.4066 119.965C69.0927 118.961 77.7697 116.714 86.5215 112.439L86.6279 112.487C86.7589 113.074 86.9253 113.533 87.245 114.046C90.1678 118.735 98.736 121.697 103.959 122.919C102.856 129.051 100.962 134.389 97.4801 139.583H97.4806ZM103.335 121.691C98.6847 120.645 93.7063 118.809 89.9605 115.777C88.8829 114.904 87.862 113.81 87.7488 112.359C87.5596 109.938 89.2006 107.728 90.7061 106.01C93.2084 103.155 96.702 100.211 100.434 99.1732C101.767 98.8023 103.151 98.6906 104.526 98.6034C107.455 98.5221 110.28 99.2416 112.923 100.472C116.389 102.087 121.501 106.777 122.804 110.395C123.169 111.408 123.362 112.567 122.85 113.564C122.263 114.708 121 115.593 119.97 116.307C115.827 119.179 111.399 120.815 106.594 122.228C105.51 122.203 104.392 121.929 103.335 121.691ZM160.776 133.821C164.429 139.627 166.449 146.95 165.593 153.792C165.36 155.652 164.721 157.438 164.305 159.262C163.907 158.735 163.452 158.251 162.926 157.85C160.641 156.105 157.327 155.275 154.486 155.352C153.417 155.381 152.339 155.56 151.28 155.702C150.5 155.775 149.718 155.854 148.935 155.897C137.579 156.518 126.438 151.085 118.131 143.659C113.473 139.494 108.413 133.939 106.79 127.774C106.394 126.264 106.316 124.741 106.229 123.191C110.974 122.543 116.925 119.619 120.872 116.856C122.309 115.849 123.847 114.565 124.165 112.746C125.36 113.174 126.509 113.709 127.69 114.172C130.366 115.226 133.07 116.203 135.801 117.103C137.727 117.74 139.669 118.319 141.629 118.841C143.158 119.243 144.813 119.521 146.275 120.115C147.398 120.57 148.401 121.355 149.378 122.062C153.794 125.253 157.863 129.191 160.776 133.821ZM195.722 109.597C185.125 117.662 175.183 119.454 162.147 119.292C151.717 118.835 141.664 116.205 131.714 113.22C129.167 112.456 126.598 111.751 124.07 110.93L123.187 108.643C124.203 108.626 125.231 108.652 126.24 108.511C130.261 107.948 133.986 105.811 137.146 103.347C138.063 102.632 138.985 101.615 140.013 101.082C140.755 100.697 141.656 100.471 142.451 100.204C143.742 99.7839 145.016 99.3175 146.273 98.8053C151.405 96.6906 156.303 93.8002 160.775 90.5257C161.929 89.6816 163.228 88.8006 164.1 87.6561C165.83 87.4862 167.576 87.4079 169.311 87.2916C171.137 87.0981 173.126 87.1843 174.966 87.233C185.227 87.5069 195.6 91.5161 203.811 97.5874C205.388 98.7536 206.963 99.9321 208.315 101.36C202.765 103.652 200.3 106.113 195.722 109.597Z" fill="white"/>
</svg>
