<svg width="111" height="112" viewBox="0 0 111 112" fill="none" xmlns="http://www.w3.org/2000/svg">
<path d="M109.339 99.7102H101.944V91.5841C101.944 90.9142 101.407 90.37 100.745 90.37H93.3455V82.2439C93.3455 81.5741 92.8081 81.0299 92.1467 81.0299L74.9593 81.0252H57.7671C57.1057 81.0252 56.5684 81.5695 56.5684 82.2393V90.3654H49.1733C48.5119 90.3654 47.9745 90.9096 47.9745 91.5794V99.7056L40.5749 99.7102C39.9135 99.7102 39.3761 100.254 39.3761 100.924V110.264C39.3761 110.934 39.9135 111.478 40.5749 111.478H109.343C110.005 111.478 110.542 110.934 110.542 110.264V100.924C110.538 100.254 110 99.7102 109.339 99.7102ZM90.9475 90.3699H76.1576V83.4531H90.9522V90.3699H90.9475ZM58.9655 83.4531H73.76V90.3699H58.9655V83.4531ZM41.7733 102.138H56.5679V109.055L41.7733 109.05V102.138ZM50.3671 99.7096V92.7928H65.1617V99.7096H50.3671ZM58.9656 102.138H73.7601V109.055L58.9656 109.05V102.138ZM67.5594 99.7096V92.7928H82.354V99.7096H67.5594ZM76.1533 102.138H90.9478V109.055L76.1533 109.05V102.138ZM84.7517 99.7096V92.7928H99.5463V99.7096H84.7517ZM108.141 109.05H93.346V102.133H108.141V109.05ZM26.5152 95.8953H23.2908V71.4568C24.903 69.6428 25.8859 67.2425 25.8859 64.6144C25.8859 64.5354 25.8813 64.4563 25.8813 64.3772L41.158 46.3154C46.1187 45.6595 49.9631 41.3522 49.9631 36.1518C49.9631 33.5238 48.9802 31.1235 47.368 29.3095V17.5272C47.4599 17.4249 47.5517 17.3179 47.639 17.2109L65.686 17.2063V18.1133C65.686 18.7831 66.2234 19.3273 66.8848 19.3273H71.726C72.3874 19.3273 72.9248 18.7831 72.9248 18.1133V14.9968H89.1163V16.6388C89.1163 17.3086 89.6537 17.8528 90.3151 17.8528H93.3419V38.6308C91.1326 39.1797 89.4883 41.1937 89.4883 43.594C89.4883 45.1708 90.2003 46.5849 91.3118 47.5245L81.3538 51.6598C80.9036 51.8458 80.6097 52.2877 80.6097 52.7808V63.3583C80.6097 63.8513 80.9036 64.2932 81.3538 64.4793L84.7435 65.8887V69.7448C84.7435 70.4146 85.2809 70.9588 85.9423 70.9588H103.134C103.796 70.9588 104.333 70.4146 104.333 69.7448V65.8887L107.723 64.4793C108.173 64.2932 108.467 63.8513 108.467 63.3583L108.462 52.7901C108.462 52.297 108.169 51.8551 107.718 51.669L97.7603 47.5338C98.8719 46.5942 99.5838 45.1801 99.5838 43.6033C99.5838 41.1985 97.9395 39.1844 95.7302 38.6401V17.8621H98.7571C99.4185 17.8621 99.9559 17.3179 99.9559 16.6481L99.9605 4.72118C99.9605 4.05136 99.4231 3.50717 98.7617 3.50717H90.3102C89.6488 3.50717 89.1115 4.05139 89.1115 4.72118V6.36315H72.92V3.24663C72.92 2.57681 72.3826 2.03262 71.7212 2.03262H66.88C66.2185 2.03262 65.6812 2.57685 65.6812 3.24663V4.15367H47.6389C45.7787 1.87903 42.9722 0.427826 39.8351 0.427826C34.2544 0.427826 29.7117 5.02818 29.7117 10.6798C29.7117 13.3078 30.6947 15.7081 32.3068 17.5221V29.2997C30.6946 31.1137 29.7117 33.514 29.7117 36.1421C29.7117 36.2211 29.7163 36.3002 29.7163 36.3793L14.4396 54.4459C9.47894 55.1017 5.63449 59.4091 5.63449 64.6095C5.63449 67.2375 6.61743 69.6378 8.22959 71.4518V95.8951H5.00517C2.41006 95.8951 0.301758 98.0301 0.301758 100.658V110.264C0.301758 110.933 0.839158 111.478 1.50054 111.478H30.0197C30.6811 111.478 31.2185 110.933 31.2185 110.264V100.658C31.2185 98.0301 29.1057 95.8953 26.5152 95.8953ZM101.931 68.5442H87.1363V61.6274H101.931V68.5442ZM106.065 62.5531L104.328 63.2741V60.4134C104.328 59.7436 103.791 59.1994 103.13 59.1994H85.9375C85.2761 59.1994 84.7387 59.7437 84.7387 60.4134V63.2741L83.0025 62.5531V53.6036L94.5314 48.8126L106.06 53.6036L106.065 62.5531ZM97.1907 43.5982C97.1907 45.082 96.0011 46.2867 94.5358 46.2867C93.0706 46.2867 91.881 45.082 91.881 43.5982C91.881 42.1143 93.0706 40.9096 94.5358 40.9096C95.9965 40.9096 97.1907 42.1143 97.1907 43.5982ZM91.5044 5.93009H97.5627V15.4285H91.5044V5.93009ZM89.1067 8.79071V12.5771L72.9199 12.5724V8.7907L89.1067 8.79071ZM68.0789 4.46019H70.5224V16.9027H68.0789V4.46019ZM39.8349 20.9359C41.709 20.9359 43.4635 20.4149 44.9701 19.5125V27.3131C43.4636 26.4107 41.709 25.8898 39.8349 25.8898C37.9608 25.8898 36.2063 26.4108 34.6997 27.3131V19.5125C36.2109 20.4149 37.9654 20.9359 39.8349 20.9359ZM65.6849 6.58097V14.7815H49.1124C49.6544 13.5256 49.9621 12.1394 49.9621 10.6836C49.9621 9.22773 49.659 7.84154 49.1124 6.58562L65.6849 6.58097ZM39.8349 2.85513C44.0974 2.85513 47.5652 6.36699 47.5652 10.6836C47.5652 15.0002 44.0974 18.512 39.8349 18.512C35.5724 18.512 32.1046 15.0002 32.1046 10.6836C32.1092 6.36235 35.577 2.85513 39.8349 2.85513ZM39.8349 28.3177C44.0974 28.3177 47.5652 31.8295 47.5652 36.1461C47.5652 40.4627 44.0974 43.9746 39.8349 43.9746C35.5724 43.9746 32.1046 40.4627 32.1046 36.1461C32.1092 31.8295 35.577 28.3177 39.8349 28.3177ZM38.062 46.2402L25.3345 61.2833C24.1541 57.8086 21.1777 55.1713 17.5353 54.5154L30.2628 39.4722C31.4432 42.9469 34.4149 45.5843 38.062 46.2402ZM15.7572 56.7805C20.0197 56.7805 23.4875 60.2924 23.4875 64.609C23.4875 68.9256 20.0197 72.4374 15.7572 72.4374C11.4947 72.4374 8.02691 68.9256 8.02691 64.609C8.03151 60.2924 11.4993 56.7805 15.7572 56.7805ZM10.622 73.442C12.1285 74.3444 13.8831 74.8653 15.7572 74.8653C17.6313 74.8653 19.3858 74.3443 20.8924 73.442V95.8942H10.622V73.442ZM28.8207 109.049H2.69912V100.657C2.69912 99.369 3.73259 98.3225 5.00485 98.3225H26.5147C27.787 98.3225 28.8205 99.369 28.8205 100.657L28.8207 109.049ZM15.7581 70.0316C18.7115 70.0316 21.1138 67.5988 21.1138 64.6079C21.1138 61.617 18.7115 59.1842 15.7581 59.1842C12.8048 59.1842 10.4025 61.617 10.4025 64.6079C10.4025 67.5988 12.8048 70.0316 15.7581 70.0316ZM15.7581 61.6124C17.3887 61.6124 18.7161 62.9566 18.7161 64.6079C18.7161 66.2592 17.3887 67.6034 15.7581 67.6034C14.1276 67.6034 12.8002 66.2592 12.8002 64.6079C12.8002 62.9566 14.1276 61.6124 15.7581 61.6124ZM39.8361 41.5691C42.7895 41.5691 45.1917 39.1363 45.1917 36.1454C45.1917 33.1545 42.7895 30.7217 39.8361 30.7217C36.8827 30.7217 34.4804 33.1545 34.4804 36.1454C34.485 39.1363 36.8873 41.5691 39.8361 41.5691ZM39.8361 33.1499C41.4666 33.1499 42.7941 34.4942 42.7941 36.1454C42.7941 37.7967 41.4666 39.1409 39.8361 39.1409C38.2055 39.1409 36.8781 37.7967 36.8781 36.1454C36.8781 34.4942 38.2055 33.1499 39.8361 33.1499ZM39.8361 16.1026C42.7895 16.1026 45.1917 13.6698 45.1917 10.6789C45.1917 7.69269 42.7895 5.25527 39.8361 5.25527C36.8827 5.25527 34.4804 7.68805 34.4804 10.6789C34.485 13.6698 36.8873 16.1026 39.8361 16.1026ZM39.8361 7.6834C41.4666 7.6834 42.7941 9.02768 42.7941 10.6789C42.7941 12.3302 41.4666 13.6745 39.8361 13.6745C38.2055 13.6745 36.8781 12.3302 36.8781 10.6789C36.8781 9.02768 38.2055 7.6834 39.8361 7.6834Z" fill="white"/>
</svg>
