<svg width="171" height="210" viewBox="0 0 171 210" fill="none" xmlns="http://www.w3.org/2000/svg">
<path d="M98.0231 118.414V66.709C98.0231 65.7061 97.2142 64.8965 96.2121 64.8965H22.9073C21.9051 64.8965 21.0962 65.7061 21.0962 66.709V118.414C21.0962 119.416 21.9051 120.226 22.9073 120.226H96.2121C97.2142 120.226 98.0231 119.417 98.0231 118.414ZM94.401 116.601H24.7186V68.5218H94.401V116.601Z" fill="white"/>
<path d="M87.9957 137.693H77.8961L72.6985 127.476H98.6257C102.29 127.476 105.266 124.498 105.266 120.83V64.2925C105.266 60.6313 102.29 57.6467 98.6257 57.6467H20.4915C16.8272 57.6467 13.8511 60.6313 13.8511 64.2925V120.83C13.8511 124.498 16.8272 127.476 20.4915 127.476H46.4188L41.2212 137.693H31.1216C27.8015 137.693 25.097 140.399 25.097 143.722C25.097 147.045 27.8015 149.751 31.1216 149.751H87.9941C91.3143 149.751 94.0187 147.045 94.0187 143.722C94.0187 140.399 91.3158 137.693 87.9957 137.693ZM17.4741 120.831V64.2932C17.4741 62.6257 18.8264 61.2724 20.4925 61.2724H98.6267C100.293 61.2724 101.645 62.6257 101.645 64.2932V120.831C101.645 122.498 100.293 123.852 98.6267 123.852H20.4925C18.8264 123.852 17.4741 122.498 17.4741 120.831ZM50.4825 127.477H68.6348L73.8385 137.693H45.284L50.4877 127.477H50.4825ZM87.9941 146.128H31.1216C29.7935 146.128 28.719 145.046 28.719 143.723C28.719 142.394 29.7995 141.319 31.1216 141.319H87.9941C89.3222 141.319 90.3968 142.4 90.3968 143.723C90.3968 145.052 89.3162 146.128 87.9941 146.128Z" fill="white"/>
<path d="M150.888 37.5577H86.8929C83.2286 37.5577 80.2524 40.5363 80.2524 44.2035V52.2087C80.2524 53.2116 81.0614 54.0212 82.0635 54.0212C83.0656 54.0212 83.8746 53.2116 83.8746 52.2087V44.2035C83.8746 42.5361 85.2268 41.1828 86.8929 41.1828H150.888C152.554 41.1828 153.907 42.5361 153.907 44.2035V143.104C153.907 144.772 152.554 146.125 150.888 146.125H98.6457C97.6436 146.125 96.8347 146.934 96.8347 147.937C96.8347 148.94 97.6436 149.75 98.6457 149.75H150.888C154.553 149.75 157.529 146.771 157.529 143.104V44.2035C157.529 40.5363 154.553 37.5577 150.888 37.5577Z" fill="white"/>
<path d="M147.868 53.8703C147.868 50.203 144.892 47.2245 141.228 47.2245H96.5502C93.7792 47.2245 91.274 48.9705 90.3141 51.5744C89.97 52.5169 90.453 53.556 91.3887 53.9005C92.3183 54.2509 93.3686 53.7675 93.7128 52.8251C94.1474 51.6409 95.2883 50.8435 96.55 50.8435H141.228C142.894 50.8435 144.246 52.1968 144.246 53.8642V61.8694C144.246 63.5368 142.894 64.8902 141.228 64.8902H110.7C109.698 64.8902 108.889 65.6997 108.889 66.7027C108.889 67.7056 109.698 68.5152 110.7 68.5152H141.228C144.892 68.5152 147.868 65.5367 147.868 61.8694V53.8642L147.868 53.8703Z" fill="white"/>
<path d="M147.868 80.816C147.868 77.1487 144.892 74.1702 141.228 74.1702H110.7C109.698 74.1702 108.889 74.9797 108.889 75.9827C108.889 76.9856 109.698 77.7952 110.7 77.7952H141.228C142.894 77.7952 144.246 79.1485 144.246 80.816V88.8211C144.246 90.4886 142.894 91.8419 141.228 91.8419H110.7C109.698 91.8419 108.889 92.6515 108.889 93.6544C108.889 94.6574 109.698 95.4669 110.7 95.4669H141.228C144.892 95.4669 147.868 92.4884 147.868 88.8211V80.816Z" fill="white"/>
<path d="M140.021 102.07C135.693 102.07 132.173 105.592 132.173 109.924C132.173 114.256 135.693 117.778 140.021 117.778C144.349 117.778 147.869 114.256 147.869 109.924C147.869 105.592 144.349 102.07 140.021 102.07ZM140.021 114.153C137.691 114.153 135.795 112.256 135.795 109.924C135.795 107.592 137.691 105.695 140.021 105.695C142.351 105.695 144.247 107.592 144.247 109.924C144.247 112.256 142.351 114.153 140.021 114.153Z" fill="white"/>
<path d="M140.021 124.376C135.693 124.376 132.173 127.898 132.173 132.23C132.173 136.562 135.693 140.084 140.021 140.084C144.349 140.084 147.869 136.562 147.869 132.23C147.869 127.898 144.349 124.376 140.021 124.376ZM140.021 136.459C137.691 136.459 135.795 134.562 135.795 132.23C135.795 129.898 137.691 128.001 140.021 128.001C142.351 128.001 144.247 129.898 144.247 132.23C144.247 134.562 142.351 136.459 140.021 136.459Z" fill="white"/>
</svg>
