<svg width="125" height="125" viewBox="0 0 125 125" fill="none" xmlns="http://www.w3.org/2000/svg">
<path fill-rule="evenodd" clip-rule="evenodd" d="M19.2945 16.2597H30.4507V1.79948C30.4507 1.0029 31.0991 0.35437 31.8957 0.35437H39.8198C40.6163 0.35437 41.2648 1.00286 41.2648 1.79948V16.2597H48.173V1.79948C48.173 1.0029 48.8214 0.35437 49.6179 0.35437H57.5421C58.3386 0.35437 58.9871 1.00286 58.9871 1.79948V16.2597H65.8952V1.79948C65.8952 1.0029 66.5436 0.35437 67.3402 0.35437H75.2643C76.0608 0.35437 76.7093 1.00286 76.7093 1.79948V16.2597H83.6175V1.79948C83.6175 1.0029 84.2659 0.35437 85.0624 0.35437H92.9866C93.7831 0.35437 94.4316 1.00286 94.4316 1.79948V16.2597H106.154C106.951 16.2597 107.599 16.9082 107.599 17.7049V29.9803H123.172C123.968 29.9803 124.617 30.6288 124.617 31.4254V39.3503C124.617 40.1469 123.968 40.7954 123.172 40.7954H107.599V47.7042H123.172C123.968 47.7042 124.617 48.3527 124.617 49.1493V57.0743C124.617 57.8708 123.968 58.5194 123.172 58.5194H107.599V65.4282H123.172C123.968 65.4282 124.617 66.0767 124.617 66.8733V74.7982C124.617 75.5948 123.968 76.2433 123.172 76.2433H107.599V83.1522H123.172C123.968 83.1522 124.617 83.8006 124.617 84.5973V92.5222C124.617 93.3188 123.968 93.9673 123.172 93.9673H107.599V106.804C107.599 107.601 106.951 108.25 106.154 108.25H94.9983V122.71C94.9983 123.506 94.3499 124.155 93.5533 124.155H85.6292C84.8327 124.155 84.1842 123.506 84.1842 122.71V108.25H77.2761V122.71C77.2761 123.506 76.6276 124.155 75.8311 124.155H67.9069C67.1104 124.155 66.462 123.506 66.462 122.71V108.25H59.5538V122.71C59.5538 123.506 58.9054 124.155 58.1088 124.155H50.1847C49.3882 124.155 48.7397 123.506 48.7397 122.71V108.25H41.8315V122.71C41.8315 123.506 41.1831 124.155 40.3866 124.155H32.4624C31.6659 124.155 31.0175 123.506 31.0175 122.71V108.25H19.2945C18.498 108.25 17.8496 107.601 17.8496 106.804V94.529L2.26138 94.5239C1.46487 94.5239 0.816406 93.8754 0.816406 93.0788V85.1539C0.816406 84.3573 1.46483 83.7088 2.26138 83.7088H17.8339V76.7999L2.26138 76.805C1.46487 76.805 0.816406 76.1565 0.816406 75.3599V67.435C0.816406 66.6384 1.46483 65.9899 2.26138 65.9899H17.8339V59.0811H2.26138C1.46487 59.0811 0.816406 58.4326 0.816406 57.636V49.7111C0.816406 48.9145 1.46483 48.2659 2.26138 48.2659H17.8339V41.3571H2.26138C1.46487 41.3571 0.816406 40.7086 0.816406 39.912V31.9871C0.816406 31.1905 1.46483 30.542 2.26138 30.542H17.8339V17.7049C17.8339 16.9083 18.4823 16.2598 19.2789 16.2598L19.2945 16.2597ZM85.8182 75.5231C87.5235 72.5666 86.2573 68.3948 82.8211 64.0494C82.3258 63.4162 81.7744 62.783 81.1821 62.1346C81.7744 61.4861 82.3258 60.8529 82.8211 60.2198C86.2623 55.8846 87.5286 51.7179 85.8182 48.7461C84.0976 45.7896 79.8598 44.799 74.3864 45.6109C73.5899 45.7334 72.7627 45.8866 71.9101 46.0807C71.6497 45.2432 71.374 44.4569 71.0728 43.7012C69.0356 38.5541 66.064 35.3626 62.6381 35.3626C59.2121 35.3626 56.2406 38.5388 54.2034 43.7012C53.9021 44.4467 53.6264 45.2433 53.366 46.0807C52.5134 45.8866 51.6862 45.7385 50.8898 45.6109C45.4113 44.799 41.1786 45.7896 39.458 48.7615C37.7526 51.718 39.0189 55.8898 42.4551 60.2352C42.9504 60.8684 43.5018 61.5016 44.094 62.15C43.5018 62.7985 42.9503 63.4317 42.4551 64.0648C39.0138 68.4 37.7475 72.5667 39.458 75.5385C41.1786 78.5103 45.4164 79.4856 50.8898 78.6891C51.6863 78.5666 52.5134 78.4134 53.366 78.2193C53.6264 79.0567 53.9021 79.8431 54.2034 80.5988C56.2406 85.7459 59.2121 88.9373 62.6381 88.9373C66.064 88.9373 69.0356 85.7459 71.0728 80.5988C71.374 79.8431 71.6497 79.0567 71.9101 78.2193C72.7628 78.4134 73.59 78.5614 74.3864 78.6891C79.8649 79.501 84.0976 78.5104 85.8182 75.5539V75.5231ZM69.102 77.4482C67.0393 76.8303 64.8642 76.0031 62.633 75.0125C60.4018 76.0184 58.2318 76.8303 56.164 77.4482C56.3836 78.1631 56.6338 78.8524 56.8941 79.5009C58.4923 83.5195 60.5243 85.9961 62.633 85.9961C64.7366 85.9961 66.7891 83.5196 68.3718 79.5009C68.6322 78.8524 68.8671 78.1682 69.102 77.4482ZM59.1917 73.3377C58.4361 72.9394 57.6651 72.5105 56.9095 72.0713L56.8278 72.0152L56.7869 71.9896C56.0721 71.576 55.3572 71.1522 54.668 70.708C54.8722 72.0816 55.1224 73.4041 55.4135 74.6449C56.6388 74.2721 57.905 73.833 59.1968 73.3224L59.1917 73.3377ZM51.477 68.5736C49.496 67.1438 47.709 65.6681 46.1364 64.1975C45.6258 64.7489 45.1612 65.3106 44.717 65.8621C42.0365 69.2474 40.9081 72.2602 41.9497 74.0883C43.0066 75.9163 46.1722 76.4423 50.4508 75.8091C51.1401 75.7121 51.8549 75.5742 52.585 75.4108C52.0897 73.307 51.7068 71.0092 51.4566 68.5837L51.477 68.5736ZM56.1691 46.8204C58.2318 47.4383 60.4069 48.2655 62.6381 49.2561C64.8693 48.2502 67.0393 47.4383 69.1071 46.8204C68.8875 46.1055 68.6374 45.4162 68.377 44.7677C66.7788 40.7491 64.7468 38.2725 62.6381 38.2725C60.5345 38.2725 58.482 40.7643 56.8993 44.7677C56.6389 45.4162 56.404 46.1004 56.1691 46.8204ZM66.0743 50.936C66.8299 51.3343 67.6009 51.7632 68.3566 52.2024C69.1122 52.6415 69.8576 53.096 70.5877 53.5504C70.3835 52.1768 70.1333 50.8543 69.8423 49.6135C68.6169 49.9862 67.3508 50.4254 66.059 50.936L66.0743 50.936ZM73.7941 55.695C75.7751 57.1248 77.5622 58.6005 79.1347 60.0711C79.6453 59.5197 80.1099 58.958 80.5541 58.4066C83.2346 55.0212 84.363 52.0085 83.3214 50.1803C82.2645 48.3523 79.0989 47.8263 74.8203 48.4595C74.1311 48.5566 73.4163 48.6944 72.6861 48.8578C73.1814 50.9616 73.5643 53.2594 73.8145 55.685L73.7941 55.695ZM74.8102 75.7985C79.0888 76.4317 82.2544 75.9108 83.3113 74.0777C84.358 72.2497 83.2296 69.2319 80.5439 65.8515C80.1048 65.3 79.6351 64.7485 79.1246 64.2022C77.5571 65.6881 75.7548 67.1587 73.784 68.5783C73.5338 70.9987 73.1509 73.2965 72.6556 75.4054C73.3857 75.5688 74.1006 75.6965 74.7898 75.8037L74.8102 75.7985ZM77.0925 62.1343C76.1581 61.256 75.1522 60.388 74.0495 59.5199C74.075 60.3726 74.1056 61.256 74.1056 62.1343C74.1056 63.0126 74.0903 63.8806 74.0495 64.7487C75.137 63.8806 76.1531 63.0126 77.0925 62.1343ZM71.0268 57.2936C69.7351 56.4 68.3565 55.5319 66.9269 54.7047H66.9116C65.4819 53.8775 64.0473 53.1218 62.6483 52.4477C61.2596 53.1064 59.8402 53.8519 58.436 54.6638C58.4105 54.6791 58.3952 54.6893 58.3696 54.7046C56.94 55.5318 55.5615 56.3948 54.2697 57.2935C54.1472 58.8611 54.0757 60.4849 54.0757 62.1393C54.0757 63.7886 54.1421 65.4277 54.2697 66.9953C55.5206 67.8634 56.8584 68.7008 58.2472 69.5127C58.3135 69.5383 58.385 69.5791 58.4412 69.6251C59.8605 70.437 61.2595 71.1825 62.6535 71.8412C64.027 71.1825 65.431 70.4523 66.8351 69.6404L66.8606 69.6148C66.8862 69.5995 66.9015 69.5893 66.927 69.574C68.3567 68.7468 69.7351 67.8838 71.0269 66.9851C71.1495 65.4175 71.2209 63.7937 71.2209 62.1393C71.2209 60.49 71.1545 58.8663 71.0268 57.2936ZM59.1917 50.9363C57.8999 50.4257 56.6337 49.9865 55.4083 49.6138C55.1173 50.8546 54.8722 52.172 54.6629 53.5507C55.393 53.0962 56.1334 52.6418 56.8941 52.2027C56.9196 52.1874 56.9502 52.1772 56.9758 52.1619C57.7212 51.7329 58.4462 51.3346 59.1917 50.9517L59.1917 50.9363ZM52.6052 48.8683C51.8751 48.7049 51.1602 48.5772 50.471 48.47C46.1924 47.8368 43.0115 48.3577 41.9699 50.1908C40.913 52.0188 42.0363 55.0366 44.7372 58.417C45.1763 58.9685 45.6461 59.52 46.1566 60.0816C47.724 58.5957 49.5264 57.1251 51.4972 55.7055C51.7474 53.2851 52.1303 50.9873 52.6255 48.8784L52.6052 48.8683ZM48.1734 62.1338C49.1078 63.0121 50.1289 63.8801 51.2164 64.7482C51.1909 63.8954 51.1602 63.0121 51.1602 62.1338C51.1602 61.2555 51.1756 60.3875 51.2164 59.5194C50.1289 60.3874 49.1128 61.2555 48.1734 62.1338ZM66.0738 73.3369C67.3656 73.8475 68.6318 74.302 69.8571 74.6594C70.1482 73.4186 70.3933 72.1012 70.6026 70.7225C69.9031 71.1616 69.1832 71.6008 68.4582 72.0297C68.4582 72.0297 68.3203 72.1114 68.254 72.142C67.5238 72.5556 66.809 72.9539 66.0789 73.3369L66.0738 73.3369ZM17.8492 38.4817V33.457H3.71712V38.4817H17.8492ZM17.8492 56.206V51.1814H3.71712V56.206H17.8492ZM17.8492 73.9251V68.9005L3.71712 68.9056V73.9302H17.8453L17.8492 73.9251ZM17.8492 91.6495V86.6249L3.71712 86.63V91.6546H17.8453L17.8492 91.6495ZM38.9415 108.286H33.9174V121.292H38.9415V108.286ZM56.6642 108.286H51.64V121.292H56.6642V108.286ZM74.3816 108.286H69.3575V121.292H74.3816V108.286ZM92.1042 108.286H87.0801V121.292H92.1042V108.286ZM107.61 86.0638V91.0884H121.738V86.0638H107.61ZM107.61 68.3395V73.3641H121.738V68.3395H107.61ZM107.61 50.6203V55.645H121.738V50.6203H107.61ZM107.61 32.896V37.9206H121.738V32.896H107.61ZM86.5178 16.2592H91.5419V3.25361H86.5178V16.2592ZM68.7951 16.2592H73.8193V3.25361H68.7951V16.2592ZM51.0777 16.2592H56.1019L56.0968 3.25361H51.0726V16.2592H51.0777ZM33.3551 16.2592H38.3792L38.3741 3.25361H33.35V16.2592H33.3551ZM33.3244 99.4652C33.5848 99.741 33.9576 99.9044 34.3711 99.9044H91.0865C91.4592 99.9044 91.8319 99.7665 92.1178 99.4755L99.0106 92.5821C99.2863 92.3216 99.4497 91.9489 99.4497 91.5353V33.0027C99.4497 32.6299 99.3118 32.2572 99.0208 31.9712L92.1281 25.0778C91.8677 24.8021 91.4949 24.6387 91.0814 24.6387H34.3713C33.9985 24.6387 33.6258 24.7766 33.3399 25.0676L26.4472 31.961C26.1714 32.2214 26.0081 32.5942 26.0081 33.0078V91.5561C26.0081 91.9288 26.1459 92.3016 26.4369 92.5875L33.3297 99.4809L33.3244 99.4652ZM28.908 90.948L34.9634 97.0041H90.4788L96.5343 90.948V33.5946L90.4788 27.5386H34.9791L28.9236 33.5946V90.9324L28.908 90.948ZM104.708 19.1591H20.7492V105.378H104.718V19.1591H104.708Z" fill="white"/>
</svg>
