<svg width="112" height="118" viewBox="0 0 112 118" fill="none" xmlns="http://www.w3.org/2000/svg">
<path d="M99.1805 38.6922C99.6794 37.1585 99.9566 35.5879 99.9935 33.9804C100.086 29.6751 98.4783 25.5915 95.5034 22.4688C92.51 19.3645 88.5004 17.5906 84.1951 17.4983C81.405 17.4613 78.6518 18.0895 76.1758 19.4384C73.0346 14.9853 68.0456 12.3245 62.5577 12.2136C61.3012 12.1767 60.0263 12.306 58.7698 12.5647C54.7232 5.00734 47.018 0.240097 38.4074 0.0553205C25.2697 -0.221845 14.4972 10.218 14.2386 23.2633C14.1831 25.5176 14.4788 27.7719 15.0885 30.0077C6.75509 32.7793 0.934617 40.5769 0.74984 49.4462C0.638974 55.0449 2.70847 60.348 6.57031 64.3946C10.4506 68.4413 15.6613 70.714 21.2416 70.8434C21.2601 70.8434 21.334 70.8434 21.4633 70.8434C22.2948 70.8434 25.3436 70.8433 29.7783 70.8249C30.5359 70.8249 31.1641 70.1966 31.1641 69.439C31.1641 68.6815 30.5359 68.0532 29.7783 68.0532C24.7708 68.0717 21.5188 68.0717 21.3155 68.0717C16.4559 67.9793 11.9288 65.9837 8.58438 62.473C5.22144 58.9622 3.4291 54.3613 3.52149 49.5016C3.68779 41.3899 9.30501 34.313 17.158 32.2804C17.5276 32.188 17.8417 31.9293 18.0265 31.5967C18.2113 31.2641 18.2482 30.8576 18.1189 30.4881C17.3058 28.1229 16.9363 25.7208 16.9733 23.3187C17.2135 11.7887 26.8588 2.53133 38.315 2.82697C46.2604 2.99327 53.3189 7.57574 56.7557 14.7636C57.0514 15.3733 57.7166 15.669 58.3633 15.5027C59.7306 15.1331 61.1165 14.9483 62.4653 14.9853C67.4358 15.0777 71.9444 17.72 74.5128 22.0253C74.6976 22.3579 75.0302 22.5796 75.3997 22.672C75.7693 22.7459 76.1573 22.6905 76.4714 22.4872C78.7626 20.9905 81.4234 20.196 84.1027 20.2884C87.6689 20.3623 91.0134 21.822 93.4894 24.3904C95.9654 26.9588 97.2773 30.3587 97.2034 33.9249C97.1664 35.7357 96.7599 37.5096 96.0023 39.1911C95.8176 39.5976 95.836 40.0595 96.0578 40.4476C96.2795 40.8356 96.6675 41.0943 97.0925 41.1497C103.929 41.9997 108.974 47.8202 108.826 54.7123C108.752 58.297 107.292 61.623 104.705 64.099C102.118 66.575 98.7001 67.8684 95.1708 67.813C94.9491 67.813 90.5699 67.813 79.0213 67.8684C78.2638 67.8684 77.6355 68.4967 77.6355 69.2543C77.6355 70.0119 78.2638 70.6401 79.0213 70.6401C86.782 70.6031 94.7459 70.5847 95.0969 70.5847C99.4392 70.6216 103.504 69.0695 106.609 66.0946C109.713 63.1012 111.487 59.0915 111.579 54.7678C111.782 47.0256 106.535 40.4106 99.1805 38.6922Z" fill="white"/>
<path d="M18.322 36.8074C12.483 38.3041 8.32555 43.5702 8.19621 49.5939C8.17773 50.3515 8.7875 50.9982 9.54508 51.0167C9.56356 51.0167 9.56356 51.0167 9.58204 51.0167C10.3396 51.0167 10.9494 50.407 10.9679 49.6679C11.0603 44.8821 14.3678 40.7062 19.0057 39.5236C19.7448 39.3388 20.1882 38.5812 20.0035 37.8421C19.8187 37.0661 19.0611 36.6226 18.322 36.8074Z" fill="white"/>
<path d="M89.9226 37.9345C90.1073 38.0269 90.3106 38.0639 90.4954 38.0639C91.0128 38.0639 91.5301 37.7682 91.7519 37.2508C92.2508 36.1791 92.5094 35.015 92.5279 33.8325C92.5834 31.5043 91.7149 29.3054 90.0889 27.624C88.4628 25.9425 86.2455 25.0001 83.8434 24.9447C82.1435 24.9447 80.4989 25.4436 79.0762 26.386C78.4294 26.811 78.2631 27.6609 78.6881 28.3076C79.1131 28.9544 79.9631 29.1207 80.6098 28.6957C81.5707 28.049 82.6978 27.7164 83.8249 27.7164C85.4694 27.7533 87.0031 28.4 88.1118 29.5456C89.2204 30.6913 89.8117 32.1695 89.7747 33.7586C89.7563 34.5716 89.59 35.3476 89.2389 36.0868C88.9248 36.8074 89.2204 37.6204 89.9226 37.9345Z" fill="white"/>
<path d="M51.3041 18.7547C51.5073 18.7547 51.7106 18.7177 51.8953 18.6254C52.579 18.2928 52.8747 17.4613 52.5421 16.7776C52.191 16.02 51.766 15.2994 51.3041 14.5972C50.8791 13.969 50.0106 13.8027 49.3824 14.2277C48.7541 14.6527 48.5878 15.5211 49.0128 16.1493C49.4009 16.7222 49.7519 17.3319 50.0476 17.9602C50.2878 18.4775 50.7867 18.7547 51.3041 18.7547Z" fill="white"/>
<path d="M38.186 10.2919C41.1424 10.3474 43.9325 11.3451 46.2422 13.1744C46.8335 13.6549 47.7205 13.544 48.1824 12.9527C48.6628 12.3614 48.552 11.4745 47.9607 11.0125C45.1705 8.8137 41.8076 7.59417 38.2229 7.52026H37.8903C29.1319 7.52026 21.8517 14.6527 21.6669 23.4296C21.6484 24.1871 22.2582 24.8339 23.0158 24.8523C23.0343 24.8523 23.0343 24.8523 23.0527 24.8523C23.8103 24.8523 24.4201 24.2426 24.4386 23.5035C24.5864 16.2233 30.6286 10.3104 37.8718 10.3104L38.186 10.2919Z" fill="white"/>
<path d="M71.1126 32.3728H37.3724C34.8224 32.3728 32.7529 34.4423 32.7529 36.9922V95.2709C32.7529 97.8208 34.8224 99.8903 37.3724 99.8903H71.1126C73.6625 99.8903 75.732 97.8208 75.732 95.2709V36.9922C75.732 34.4423 73.6625 32.3728 71.1126 32.3728ZM35.5246 48.5777H72.9604V57.7611H35.5246V48.5777ZM35.5246 60.5328H72.9604V70.4553H35.5246V60.5328ZM37.3724 35.1445H71.1126C72.1289 35.1445 72.9604 35.976 72.9604 36.9922V45.8246H35.5246V36.9922C35.5246 35.976 36.3561 35.1445 37.3724 35.1445ZM71.1126 97.1186H37.3724C36.3561 97.1186 35.5246 96.2871 35.5246 95.2709V73.227H72.9604V95.2709C72.9604 96.2871 72.1289 97.1186 71.1126 97.1186Z" fill="white"/>
<path d="M40.089 43.7181H42.6573C43.4149 43.7181 44.0432 43.0898 44.0432 42.3322C44.0432 41.5747 43.4149 40.9464 42.6573 40.9464H40.089C39.3314 40.9464 38.7031 41.5747 38.7031 42.3322C38.7031 43.0898 39.3129 43.7181 40.089 43.7181Z" fill="white"/>
<path d="M42.6945 53.4374H40.1261C39.3685 53.4374 38.7402 54.0656 38.7402 54.8232C38.7402 55.5808 39.3685 56.209 40.1261 56.209H42.6945C43.452 56.209 44.0803 55.5808 44.0803 54.8232C44.0803 54.0656 43.4705 53.4374 42.6945 53.4374Z" fill="white"/>
<path d="M42.879 65.9282H40.2921C39.5345 65.9282 38.9062 66.5565 38.9062 67.314C38.9062 68.0716 39.5345 68.6999 40.2921 68.6999H42.8605C43.6181 68.6999 44.2463 68.0716 44.2463 67.314C44.2463 66.5565 43.6365 65.9282 42.879 65.9282Z" fill="white"/>
<path d="M99.2724 94.624C99.2539 94.5132 99.2539 94.4023 99.1985 94.3099C99.18 94.2545 99.1431 94.236 99.1061 94.1806C99.0322 94.0697 98.9768 93.9588 98.8844 93.8664C98.8844 93.8664 98.8844 93.848 98.8659 93.848L94.9486 90.1524C94.3943 89.635 93.5074 89.6535 92.99 90.2079C92.4726 90.7622 92.4911 91.6491 93.0454 92.1665L94.4313 93.4784H84.4533V77.1441C84.4533 76.3865 83.8251 75.7583 83.0675 75.7583C82.3099 75.7583 81.6816 76.3865 81.6816 77.1441V94.8642C81.6816 95.6218 82.3099 96.2501 83.0675 96.2501H94.5421L93.1009 97.6728C92.5465 98.2087 92.5465 99.0771 93.0824 99.6315C93.3595 99.9086 93.7106 100.038 94.0802 100.038C94.4312 100.038 94.7823 99.9086 95.041 99.65L98.9028 95.862C99.0322 95.7327 99.1431 95.5849 99.217 95.4186C99.2539 95.3447 99.2539 95.2707 99.2539 95.1968C99.2724 95.086 99.3094 94.9936 99.3094 94.8827C99.3278 94.7534 99.2909 94.6979 99.2724 94.624Z" fill="white"/>
<path d="M26.1012 75.7399C25.3436 75.7399 24.7154 76.3681 24.7154 77.1257V93.46H14.7189L16.1048 92.1481C16.6591 91.6122 16.6776 90.7438 16.1602 90.1894C15.6428 89.6351 14.7559 89.5981 14.2016 90.134L10.2843 93.8295C10.2843 93.8295 10.2843 93.848 10.2658 93.848C10.1734 93.9404 10.0995 94.0513 10.0441 94.1621C10.0256 94.1991 9.97016 94.236 9.95169 94.2915C9.91473 94.3839 9.89625 94.4947 9.87777 94.6056C9.8593 94.6795 9.84082 94.7534 9.84082 94.8273C9.84082 94.9382 9.87778 95.0491 9.89625 95.1414C9.91473 95.2154 9.91473 95.2893 9.93321 95.3632C10.0071 95.5295 10.118 95.6773 10.2473 95.8066L14.1092 99.5946C14.3863 99.8533 14.7374 99.9826 15.07 99.9826C15.4211 99.9826 15.7906 99.8348 16.0678 99.5761C16.6037 99.0218 16.6037 98.1533 16.0493 97.6175L14.6081 96.1947H26.0827C26.8403 96.1947 27.4685 95.5664 27.4685 94.8088V77.0887C27.487 76.3496 26.8773 75.7399 26.1012 75.7399Z" fill="white"/>
<path d="M56.9957 111.162L55.5729 112.603V105.286C55.5729 104.528 54.9446 103.9 54.187 103.9C53.4295 103.9 52.8012 104.528 52.8012 105.286V112.511L51.4893 111.125C50.9719 110.57 50.085 110.533 49.5307 111.069C48.9763 111.605 48.9579 112.474 49.4752 113.028L53.1708 116.945C53.1708 116.945 53.1893 116.945 53.1893 116.964C53.2816 117.056 53.3925 117.13 53.5034 117.185C53.5403 117.204 53.5773 117.241 53.6327 117.259C53.7251 117.296 53.836 117.315 53.9468 117.333C54.0208 117.352 54.0947 117.389 54.1686 117.389C54.1686 117.389 54.1686 117.389 54.187 117.389C54.3718 117.389 54.5566 117.352 54.7229 117.278C54.8892 117.204 55.037 117.111 55.1664 116.982L58.9543 113.12C59.4901 112.566 59.4901 111.697 58.9358 111.162C58.3815 110.626 57.5315 110.607 56.9957 111.162Z" fill="white"/>
<path d="M54.2426 82.8168C51.5264 82.8168 49.3091 85.0341 49.3091 87.7503C49.3091 90.4665 51.5264 92.6839 54.2426 92.6839C56.9588 92.6839 59.1762 90.4665 59.1762 87.7503C59.1762 85.0341 56.9588 82.8168 54.2426 82.8168ZM54.2426 89.9122C53.0416 89.9122 52.0807 88.9329 52.0807 87.7503C52.0807 86.5493 53.0601 85.5884 54.2426 85.5884C55.4437 85.5884 56.4045 86.5677 56.4045 87.7503C56.4045 88.9514 55.4437 89.9122 54.2426 89.9122Z" fill="white"/>
</svg>
