<svg width="125" height="125" viewBox="0 0 125 125" fill="none" xmlns="http://www.w3.org/2000/svg">
<path fill-rule="evenodd" clip-rule="evenodd" d="M57.2487 114.465C53.438 118.998 47.7166 121.878 41.3345 121.878C31.3746 121.878 23.0426 114.86 21.0205 105.511C11.6605 103.491 4.63416 95.169 4.63416 85.2209C4.63416 83.0461 4.97301 80.9487 5.59516 78.9735C2.20669 74.263 0.212402 68.4871 0.212402 62.2514C0.212402 51.8815 5.7284 42.7936 13.983 37.7441C13.6553 36.3958 13.4775 34.9866 13.4775 33.5385C13.4775 25.155 19.3435 18.1245 27.1925 16.322C28.9978 8.4767 36.036 2.62317 44.4292 2.62317C53.3337 2.62317 60.7103 9.20905 61.9375 17.7644C62.0542 18.5634 62.1097 19.379 62.1153 20.2058V20.2835V33.5329H68.7978V13.3209C66.1981 12.411 64.3317 9.93087 64.3317 7.02349C64.3317 3.3393 67.3258 0.35437 71.0087 0.35437C74.6915 0.35437 77.6856 3.34499 77.6856 7.02349C77.6856 9.93087 75.8192 12.4055 73.2195 13.3209V33.5329H81.9908V22.4917C81.9908 20.7329 82.6907 19.0462 83.935 17.8089C85.1793 16.566 86.868 15.8669 88.6234 15.8669H90.8342C91.4175 15.8669 91.9841 15.6339 92.3952 15.2178C92.8118 14.8016 93.0451 14.2413 93.0451 13.6586V13.3424C90.4176 12.4435 88.5234 9.95787 88.5234 7.02834C88.5234 3.34415 91.5176 0.359213 95.2004 0.359213C98.8889 0.359213 101.877 3.34983 101.877 7.02834C101.877 9.9191 100.033 12.3769 97.4612 13.3036V13.6587C97.4612 15.4175 96.7613 17.1042 95.5169 18.3415C94.2726 19.5844 92.584 20.2835 90.8286 20.2835H88.6177C88.0344 20.2835 87.4678 20.5165 87.0567 20.9326C86.6401 21.3488 86.4068 21.9092 86.4068 22.4918V33.533H88.6399C90.4008 33.533 92.0839 34.2321 93.3282 35.4749C94.5725 36.7178 95.2725 38.4045 95.2725 40.1578V46.7826H101.905C103.127 46.7826 104.116 45.795 104.116 44.5743V42.3661C104.116 38.7097 107.088 35.7413 110.749 35.7413H111.032C111.959 33.1668 114.426 31.3247 117.32 31.3247C121.009 31.3247 123.997 34.3153 123.997 37.9938C123.997 41.6724 121.003 44.663 117.32 44.663C114.393 44.663 111.904 42.7766 110.999 40.1521H110.749C109.526 40.1521 108.538 41.1397 108.538 42.3604V44.5687C108.538 48.225 105.566 51.1935 101.905 51.1935H95.2725V60.0376H111.126C112.037 57.4687 114.497 55.6211 117.38 55.6211C121.041 55.6211 124.013 58.5894 124.013 62.2459C124.013 65.9022 121.041 68.8707 117.38 68.8707C114.497 68.8707 112.037 67.0286 111.126 64.4541H95.2725V73.2261H101.905C105.566 73.2261 108.538 76.1945 108.538 79.851V82.0592C108.538 82.6473 108.771 83.2077 109.188 83.6239C109.604 84.04 110.165 84.2731 110.749 84.2731H111.121C112.026 81.6709 114.487 79.8122 117.37 79.8122C121.014 79.8122 123.991 82.7918 123.991 86.4813C123.991 90.1709 121.02 93.1505 117.37 93.1505C114.487 93.1505 112.026 91.2918 111.121 88.6896H110.749C108.988 88.6896 107.305 87.9905 106.06 86.7477C104.816 85.5048 104.116 83.8181 104.116 82.0648V79.8565C104.116 78.6359 103.127 77.6483 101.905 77.6483H95.2726V84.3229C95.2726 86.0818 94.5726 87.7629 93.3283 89.0058C92.084 90.2486 90.3953 90.9477 88.64 90.9477H86.4069V102.017C86.4069 102.599 86.6402 103.165 87.0568 103.576C87.4734 103.992 88.0345 104.225 88.6178 104.225H90.8287C92.5896 104.225 94.2727 104.924 95.517 106.167C96.7613 107.41 97.4613 109.097 97.4613 110.85V111.205C100.033 112.132 101.877 114.595 101.877 117.486C101.877 121.164 98.8833 124.155 95.2005 124.155C91.5177 124.155 88.5235 121.164 88.5235 117.486C88.5235 114.556 90.4177 112.071 93.0452 111.172V110.85C93.0452 110.267 92.8119 109.701 92.3953 109.291C91.9787 108.875 91.4176 108.642 90.8343 108.642H88.6235C86.8625 108.642 85.1794 107.943 83.9351 106.7C82.6908 105.457 81.9909 103.77 81.9909 102.017V90.9478H73.2196V111.183C75.8193 112.092 77.6857 114.573 77.6857 117.48C77.6857 121.158 74.6916 124.149 71.0088 124.149C67.3202 124.149 64.3318 121.158 64.3318 117.48C64.3318 114.573 66.1982 112.092 68.7979 111.183V90.9478H62.1154V101.107C62.1154 106.189 60.2822 110.844 57.2437 114.451L57.2487 114.465ZM57.5487 18.3226C56.5933 11.942 51.0828 7.04283 44.428 7.04283C38.7508 7.04283 33.9015 10.6159 32.0072 15.6262C37.4899 15.7704 42.4616 19.4767 43.9557 25.0362C44.2723 26.2125 43.5724 27.4276 42.3947 27.7438C41.2171 28.06 40.0006 27.3609 39.684 26.1791C38.5508 21.9456 34.318 19.3601 30.0796 20.198C29.863 20.3034 29.6296 20.3811 29.3852 20.4144C22.9027 21.2799 17.8977 26.8338 17.8977 33.5474C17.8977 34.3463 17.97 35.1287 18.1033 35.8887C24.6025 34.0745 31.7573 36.7986 35.2902 42.9019C35.9012 43.956 35.5402 45.3098 34.4792 45.9202C33.4238 46.5305 32.0684 46.1698 31.4573 45.1101C28.6354 40.2331 22.5418 38.4076 17.5423 40.8046C9.86544 44.8938 4.63271 52.9722 4.63271 62.2595C4.63271 67.8467 6.52689 72.9956 9.70432 77.1011C9.7321 77.1122 9.75987 77.1288 9.78209 77.1455C14.9093 80.1027 21.4697 78.3439 24.4307 73.2228C25.0417 72.1686 26.3915 71.808 27.4525 72.4128C28.508 73.0231 28.869 74.3713 28.2635 75.4311C24.4307 82.0669 16.3038 84.7023 9.39858 81.8671C9.17082 82.949 9.05417 84.0754 9.05417 85.2239C9.05417 93.502 15.2256 100.348 23.2191 101.419C23.2691 101.425 23.3135 101.43 23.358 101.441C23.4969 101.452 23.6302 101.475 23.769 101.513C28.1908 102.695 32.7402 100.071 33.9234 95.6543C34.24 94.4781 35.4509 93.779 36.6341 94.0952C37.8117 94.4114 38.5116 95.621 38.1951 96.8027C36.6619 102.517 31.4459 106.279 25.7798 106.213C27.924 112.743 34.0788 117.465 41.3286 117.465C46.3558 117.465 50.8552 115.196 53.8548 111.628C56.2435 108.787 57.6877 105.12 57.6877 101.125V71.081C57.6877 69.8604 58.6765 68.8727 59.8986 68.8727C61.1207 68.8727 62.1094 69.8603 62.1094 71.081V75.5142H77.5856C78.8077 75.5142 79.7965 74.5266 79.7965 73.3059V51.2232C79.7965 50.0026 78.8077 49.0149 77.5856 49.0149H62.1094V53.4149C62.1094 54.6355 61.1207 55.6231 59.8986 55.6231C58.6765 55.6231 57.6877 54.6355 57.6877 53.4149V20.3682L57.5433 18.3375L57.5487 18.3226ZM90.856 84.3321V40.1667C90.856 39.5841 90.6227 39.0182 90.2061 38.6076C89.7895 38.1914 89.2284 37.9584 88.6451 37.9584H62.1153V44.5832H77.5915C81.2521 44.5832 84.2241 47.5515 84.2241 51.208V73.2907C84.2241 76.947 81.2523 79.9155 77.5915 79.9155H62.1153V86.5403H88.6451C89.2284 86.5403 89.795 86.3073 90.2061 85.8911C90.6227 85.475 90.856 84.9147 90.856 84.3321ZM71.0084 9.29044C72.2527 9.29044 73.2637 8.28063 73.2637 7.03786C73.2637 5.79508 72.2527 4.78527 71.0084 4.78527C69.7642 4.78527 68.7532 5.79508 68.7532 7.03786C68.7532 8.28063 69.7642 9.29044 71.0084 9.29044ZM115.176 62.2664C115.176 63.4871 116.165 64.4747 117.387 64.4747C118.609 64.4747 119.598 63.4871 119.598 62.2664C119.598 61.0458 118.609 60.0582 117.387 60.0582C116.165 60.0582 115.176 61.0458 115.176 62.2664ZM95.2004 115.242C93.9561 115.242 92.9452 116.252 92.9452 117.495C92.9452 118.738 93.9562 119.748 95.2004 119.748C96.4446 119.748 97.4556 118.738 97.4556 117.495C97.4556 116.269 96.4724 115.27 95.2503 115.242H95.2004ZM71.0084 115.242C69.7641 115.242 68.7532 116.252 68.7532 117.495C68.7532 118.738 69.7642 119.748 71.0084 119.748C72.2527 119.748 73.2637 118.738 73.2637 117.495C73.2637 116.252 72.2527 115.242 71.0084 115.242ZM119.574 86.4967C119.574 85.2595 118.597 84.2441 117.375 84.2441C116.153 84.2441 115.175 85.2651 115.175 86.4967C115.175 87.734 116.153 88.7493 117.375 88.7493C118.597 88.7493 119.574 87.734 119.574 86.4967ZM95.199 4.78641C93.9547 4.78641 92.9437 5.79621 92.9437 7.03899C92.9437 8.28177 93.9547 9.29158 95.199 9.29158C96.4432 9.29158 97.4542 8.28177 97.4542 7.03899C97.4542 5.79621 96.4432 4.78641 95.199 4.78641ZM119.58 38.0106C119.58 36.7677 118.569 35.758 117.325 35.758C116.081 35.758 115.07 36.7678 115.07 38.0106C115.07 39.2533 116.081 40.2632 117.325 40.2632C118.569 40.2632 119.58 39.2533 119.58 38.0106ZM34.4346 84.1616C33.257 83.8454 32.5571 82.6358 32.8736 81.4596C33.1903 80.2834 34.4012 79.5843 35.5788 79.9005C40.0005 81.0823 44.55 78.4579 45.7331 74.0414C46.0498 72.8652 47.2607 72.1661 48.4383 72.4823C49.6159 72.7985 50.3158 74.008 49.9993 75.1898C48.1829 81.9588 41.2059 85.9814 34.4292 84.167L34.4346 84.1616ZM23.7803 63.1996C22.6027 62.8834 21.9028 61.6739 22.2193 60.4921C22.536 59.3158 23.7469 58.6168 24.9245 58.9329C29.3462 60.1147 33.8957 57.4904 35.0788 53.0794C35.3955 51.9032 36.6064 51.2041 37.784 51.5147C38.9616 51.831 39.6615 53.0405 39.345 54.2222C37.5286 60.9912 30.5516 65.0139 23.7749 63.1995L23.7803 63.1996ZM59.8976 60.0425C61.1197 60.0425 62.1085 61.0302 62.1085 62.2508C62.1085 63.4715 61.1197 64.4591 59.8976 64.4591C58.6755 64.4591 57.6868 63.4715 57.6868 62.2508C57.6868 61.0302 58.6755 60.0425 59.8976 60.0425ZM39.2779 39.0592C38.1002 39.3755 36.8837 38.6764 36.5671 37.5001C36.2506 36.3238 36.9504 35.1087 38.1281 34.7981C44.9051 32.9838 51.8821 37.0064 53.6982 43.7753C54.0148 44.9516 53.3149 46.1667 52.1317 46.4829C50.954 46.7991 49.743 46.1 49.4265 44.9237C48.2433 40.5072 43.6939 37.8829 39.2722 39.0646L39.2779 39.0592Z" fill="white"/>
</svg>
