<svg width="134" height="73" viewBox="0 0 134 73" fill="none" xmlns="http://www.w3.org/2000/svg">
<path d="M132.687 3.15281L121.913 1.09526H121.919C121.792 1.07516 121.659 1.06846 121.532 1.08186L109.448 2.46252V1.84591C109.448 1.13548 108.874 0.559082 108.166 0.559082H104.579C103.87 0.559082 103.296 1.13548 103.296 1.84591V2.45581L91.5597 1.08186C91.4261 1.06846 91.2992 1.06845 91.1656 1.09526L80.3911 3.15281H80.3978C79.8234 3.26675 79.4025 3.74261 79.3558 4.32569C79.3157 4.90209 79.663 5.44496 80.2108 5.63263L87.0508 8.03196V8.03866C87.1911 8.08557 87.3314 8.10568 87.4783 8.11238C87.5184 8.11238 87.5518 8.11238 87.5919 8.10568L103.296 6.6848V7.08023H102.695C101.987 7.08023 101.412 7.65663 101.412 8.36706V13.6753C90.2972 10.4783 78.835 8.6687 67.2856 8.28008C55.7363 8.57498 44.2671 10.3846 33.1862 13.6552V8.36054V8.36724C33.1862 7.65681 32.6117 7.08042 31.9037 7.08042H31.1288V6.68499L46.8329 8.10586C46.873 8.10586 46.9064 8.11257 46.9465 8.11257V8.10586C47.0934 8.10586 47.2337 8.08576 47.3673 8.03884L54.3744 5.63951C54.9221 5.45184 55.2828 4.90897 55.2361 4.32587C55.196 3.74947 54.7685 3.26691 54.2007 3.15299L43.4263 1.09544C43.2994 1.07533 43.1658 1.06863 43.0389 1.08203L31.129 2.46269V1.84608C31.129 1.13565 30.5545 0.559259 29.8464 0.559259H26.2594C25.5513 0.559259 24.9768 1.13565 24.9768 1.84608V2.46269L12.8932 1.08203C12.7663 1.06863 12.6394 1.07533 12.5125 1.09544L1.738 3.15299C1.16354 3.26692 0.736037 3.74949 0.695954 4.33258C0.655876 4.90897 1.0099 5.45184 1.56432 5.63951L8.57811 8.03884H8.57143C8.70502 8.08576 8.8453 8.10586 8.98557 8.10586C9.02565 8.10586 9.07241 8.10586 9.11249 8.09916L24.9768 6.52414V7.07372H24.3756V7.08042C23.6676 7.08042 23.0931 7.65681 23.0931 8.36724V15.6593H21.8106C21.1026 15.6593 20.5281 16.2357 20.5281 16.9461V23.293C20.5281 24.0035 21.1026 24.5799 21.8106 24.5799H44.7282C46.8055 25.2099 48.6291 26.4833 49.9318 28.2259C52.1695 32.4885 56.5114 35.2296 61.314 35.3906H66.0165V37.7966L46.4386 37.7899C45.7305 37.7899 45.156 38.3663 45.156 39.0767V49.3713C45.156 50.0818 45.7238 50.6582 46.4386 50.6582C47.1466 50.6582 47.7211 50.0818 47.7211 49.3713V40.3635H86.5367V49.5457C86.5367 50.2561 87.1111 50.8325 87.8192 50.8325C88.5272 50.8325 89.1017 50.2561 89.1017 49.5457V39.0767C89.1017 38.3663 88.5272 37.7899 87.8192 37.7899H68.5815V35.3906L73.2239 35.3839C77.9866 35.2029 82.2883 32.4684 84.4925 28.2259C85.7951 26.4833 87.6186 25.2099 89.6894 24.5799H112.781C113.489 24.5799 114.064 24.0035 114.064 23.293V16.9461C114.064 16.2356 113.489 15.6592 112.781 15.6592H111.499V8.36722C111.499 7.65679 110.924 7.0804 110.216 7.0804H109.448V6.52411L125.48 8.09913C125.52 8.10584 125.566 8.10584 125.607 8.10584C125.753 8.10584 125.894 8.08573 126.034 8.03882L132.874 5.63948V5.63278C133.422 5.44511 133.769 4.90224 133.729 4.32585C133.682 3.74276 133.261 3.26674 132.687 3.15281ZM87.6384 5.51199L85.5677 4.78815L91.4592 3.66217L98.7268 4.51335L87.6384 5.51199ZM43.1387 3.66222L48.9567 4.7748L46.7925 5.51874L35.7443 4.52011L43.1387 3.66222ZM9.13852 5.51199L6.98099 4.77474L12.799 3.66217L19.7659 4.45973L9.13852 5.51199ZM27.5417 3.13274H28.5637V7.08038H27.535L27.5417 3.13274ZM111.5 18.2329V22.0062H89.5297C89.4295 22.0062 89.336 22.0196 89.2424 22.0397C86.457 22.7971 84.0122 24.4927 82.3222 26.8452C82.2687 26.9189 82.222 26.9994 82.1886 27.0865C80.4184 30.5047 76.945 32.6962 73.1108 32.8168L61.4213 32.8235V32.8168C57.5538 32.723 54.0402 30.5314 52.2367 27.0932C52.2033 27.0061 52.1565 26.9189 52.1031 26.8452C50.4131 24.4927 47.9683 22.797 45.1828 22.0397C45.0893 22.0196 44.9891 22.0062 44.8956 22.0062H23.0929V18.2329H24.3754C25.0835 18.2329 25.6579 17.6565 25.6579 16.946V9.65403H30.6142V15.4046L30.6209 15.3979C30.6209 15.8134 30.8146 16.2022 31.1486 16.4434C31.4826 16.6847 31.9168 16.7517 32.3042 16.6244C43.6464 13.1057 55.4099 11.1688 67.2723 10.8538C79.1488 11.2626 90.9183 13.1995 102.3 16.6244C102.688 16.7517 103.115 16.6847 103.449 16.4434C103.783 16.2022 103.977 15.8134 103.977 15.3979V9.64733L108.933 9.65403V16.946C108.933 17.6565 109.508 18.2329 110.216 18.2329H111.5ZM105.855 7.08038L105.862 3.13274H106.891V7.08038H105.855ZM125.447 5.51206L114.679 4.45311L121.62 3.66224L127.511 4.78821L125.447 5.51206ZM72.9446 22.0062H61.6558C60.9477 22.0062 60.3732 22.5826 60.3732 23.2931V29.9818C60.3732 30.699 60.9477 31.2686 61.6558 31.2686H72.9446C73.6526 31.2686 74.2271 30.699 74.2271 29.9818V23.2931C74.2271 22.5826 73.6526 22.0062 72.9446 22.0062ZM71.6621 28.695H62.9383V24.5799H71.6621V28.695ZM82.6903 44.1369H51.7356C51.0276 44.1436 50.4531 44.7133 50.4531 45.4237V71.3353C50.4531 72.0457 51.0276 72.6221 51.7356 72.6221H82.6903C83.3983 72.6221 83.9728 72.0457 83.9728 71.3353V45.4237C83.9728 44.7133 83.3983 44.1436 82.6903 44.1369ZM67.8145 46.7106H70.8071V54.0897H63.6197V46.7106H67.8145ZM81.4078 70.0484H53.0181V46.7106H61.0538V55.3766C61.0538 56.087 61.6283 56.6634 62.3363 56.6634H72.0887C72.7968 56.6634 73.3712 56.087 73.3712 55.3766V46.7106H81.4069L81.4078 70.0484Z" fill="white"/>
</svg>
