<svg width="107" height="97" viewBox="0 0 107 97" fill="none" xmlns="http://www.w3.org/2000/svg">
<path d="M98.6743 26.0828H8.49568C6.64653 26.0828 5.14355 24.5798 5.14355 22.7307C5.14355 20.8815 6.64653 19.3786 8.49568 19.3786H31.3894C32.7972 19.3786 34.029 18.3804 34.3203 17.0015C34.6983 15.2043 35.6935 13.5772 37.1186 12.4204C38.5437 11.2636 40.3409 10.6261 42.1785 10.6261H64.9886C66.8233 10.6261 68.6205 11.2636 70.0485 12.4204C71.4765 13.5772 72.4688 15.2043 72.8467 16.9986C73.1381 18.3747 74.3699 19.3757 75.7777 19.3757H98.6714C100.521 19.3757 102.024 20.8786 102.024 22.7278C102.026 24.5798 100.521 26.0828 98.6743 26.0828ZM8.49568 21.0489C7.56966 21.0489 6.81385 21.8047 6.81385 22.7307C6.81385 23.6567 7.56966 24.4125 8.49568 24.4125H98.6714C99.5974 24.4125 100.353 23.6567 100.353 22.7307C100.353 21.8047 99.5974 21.0489 98.6714 21.0489H75.7777C74.7103 21.0489 73.666 20.6796 72.8381 20.0074C72.0102 19.3353 71.4332 18.392 71.2111 17.3477C70.5937 14.4225 67.9772 12.2993 64.9886 12.2993H42.1785C39.1899 12.2993 36.5734 14.4225 35.956 17.3477C35.7368 18.392 35.1569 19.3353 34.329 20.0074C33.5011 20.6796 32.4568 21.0489 31.3894 21.0489H8.49568Z" fill="white"/>
<path d="M53.5852 50.6466C51.0321 50.6466 48.9551 48.5696 48.9551 46.0165C48.9551 45.555 49.3301 45.1799 49.7917 45.1799C50.2532 45.1799 50.6283 45.555 50.6283 46.0165C50.6283 47.6464 51.9553 48.9763 53.588 48.9763C55.2208 48.9763 56.5478 47.6493 56.5478 46.0165C56.5478 45.555 56.9229 45.1799 57.3844 45.1799C57.846 45.1799 58.221 45.555 58.221 46.0165C58.2153 48.5696 56.1382 50.6466 53.5852 50.6466Z" fill="white"/>
<path d="M22.0921 21.0486H12.5031C12.0415 21.0486 11.6665 20.6736 11.6665 20.212V10.496C11.6665 10.0344 12.0415 9.65942 12.5031 9.65942H22.095C22.5566 9.65942 22.9316 10.0344 22.9316 10.496V20.212C22.9287 20.6736 22.5537 21.0486 22.0921 21.0486ZM13.3397 19.3783H21.2584V11.3326H13.3397V19.3783Z" fill="white"/>
<path d="M19.7436 11.3327C19.657 11.3327 19.5676 11.3183 19.4782 11.2894C19.0397 11.1423 18.8031 10.6692 18.9503 10.2307C19.2041 9.47199 19.3945 7.96901 19.3945 6.73432C19.3945 5.35827 19.1291 4.14377 18.6474 3.31007C18.4281 2.93216 17.9608 2.29462 17.2973 2.29462C16.6338 2.29462 16.1664 2.92928 15.9472 3.31007C15.4654 4.14089 15.2 5.35827 15.2 6.73432C15.2 7.96901 15.3904 9.47487 15.6443 10.2307C15.7914 10.6692 15.5549 11.1423 15.1164 11.2894C14.6779 11.4365 14.2048 11.2 14.0577 10.7615C13.7086 9.72008 13.5269 7.94593 13.5269 6.73432C13.5269 5.04383 13.8615 3.57259 14.499 2.47348C15.1885 1.28206 16.1837 0.624329 17.2944 0.624329C18.4079 0.624329 19.4003 1.27918 20.0898 2.47348C20.7244 3.5697 21.0619 5.04383 21.0619 6.73432C21.0619 7.94593 20.8802 9.72008 20.5311 10.7615C20.4186 11.1134 20.0926 11.3327 19.7436 11.3327Z" fill="white"/>
<path d="M14.4183 6.47762H1.5319C1.07034 6.47762 0.695312 6.1026 0.695312 5.64103C0.695312 5.17947 1.07034 4.80444 1.5319 4.80444H14.4183C14.8798 4.80444 15.2549 5.17947 15.2549 5.64103C15.2549 6.1026 14.8798 6.47762 14.4183 6.47762Z" fill="white"/>
<path d="M33.0633 6.47762H20.1769C19.7154 6.47762 19.3403 6.1026 19.3403 5.64103C19.3403 5.17947 19.7154 4.80444 20.1769 4.80444H33.0633C33.5249 4.80444 33.8999 5.17947 33.8999 5.64103C33.8999 6.1026 33.5249 6.47762 33.0633 6.47762Z" fill="white"/>
<path d="M94.9501 21.0486H85.361C84.8994 21.0486 84.5244 20.6736 84.5244 20.212V10.496C84.5244 10.0344 84.8994 9.65942 85.361 9.65942H94.9501C95.4116 9.65942 95.7866 10.0344 95.7866 10.496V20.212C95.7866 20.6736 95.4116 21.0486 94.9501 21.0486ZM86.1947 19.3783H94.1135V11.3326H86.1947V19.3783Z" fill="white"/>
<path d="M92.5991 11.3327C92.5125 11.3327 92.4231 11.3183 92.3337 11.2894C91.8952 11.1423 91.6586 10.6692 91.8057 10.2307C92.0596 9.47199 92.25 7.96901 92.25 6.73432C92.25 5.35827 91.9846 4.14377 91.5028 3.31007C91.2836 2.93216 90.8162 2.29462 90.1527 2.29462C89.4892 2.29462 89.0219 2.92928 88.8027 3.31007C88.3209 4.14089 88.0555 5.35827 88.0555 6.73432C88.0555 7.96901 88.2459 9.47487 88.4998 10.2307C88.6469 10.6692 88.4103 11.1423 87.9718 11.2894C87.5334 11.4365 87.0602 11.2 86.9131 10.7615C86.5641 9.72008 86.3823 7.94593 86.3823 6.73432C86.3823 5.04383 86.717 3.57259 87.3545 2.47348C88.044 1.28206 89.0392 0.624329 90.1499 0.624329C91.2605 0.624329 92.2558 1.27918 92.9452 2.47348C93.5799 3.5697 93.9174 5.04383 93.9174 6.73432C93.9174 7.94593 93.7357 9.72008 93.3866 10.7615C93.277 11.1134 92.951 11.3327 92.5991 11.3327Z" fill="white"/>
<path d="M87.2762 6.47762H74.3898C73.9282 6.47762 73.5532 6.1026 73.5532 5.64103C73.5532 5.17947 73.9282 4.80444 74.3898 4.80444H87.2762C87.7377 4.80444 88.1128 5.17947 88.1128 5.64103C88.1128 6.1026 87.7377 6.47762 87.2762 6.47762Z" fill="white"/>
<path d="M105.921 6.47762H93.0348C92.5733 6.47762 92.1982 6.1026 92.1982 5.64103C92.1982 5.17947 92.5733 4.80444 93.0348 4.80444H105.921C106.383 4.80444 106.758 5.17947 106.758 5.64103C106.758 6.1026 106.383 6.47762 105.921 6.47762Z" fill="white"/>
<path d="M59.4074 46.8531H48.1653C40.0447 46.8531 33.0808 41.0547 31.6066 33.0696L30.1931 25.399C30.1469 25.1537 30.2133 24.9028 30.372 24.7124C30.5306 24.522 30.7672 24.4124 31.0153 24.4124H76.5604C76.8085 24.4124 77.045 24.522 77.2037 24.7124C77.3623 24.9028 77.4287 25.1537 77.3825 25.399L75.969 33.0696C74.492 41.0576 67.5281 46.8531 59.4074 46.8531ZM32.0163 26.0826L33.2481 32.7638C34.5751 39.9585 40.8466 45.18 48.1625 45.18H59.4045C66.7203 45.18 72.9919 39.9585 74.3189 32.7638L75.5507 26.0826H32.0163Z" fill="white"/>
<path d="M53.5854 39.7711C50.8679 39.7711 48.6553 37.5585 48.6553 34.841C48.6553 32.1235 50.8679 29.9109 53.5854 29.9109C56.3029 29.9109 58.5155 32.1235 58.5155 34.841C58.5155 37.5614 56.3029 39.7711 53.5854 39.7711ZM53.5854 31.5812C51.7882 31.5812 50.3256 33.0438 50.3256 34.841C50.3256 36.6382 51.7882 38.1008 53.5854 38.1008C55.3826 38.1008 56.8452 36.6382 56.8452 34.841C56.8452 33.0438 55.3826 31.5812 53.5854 31.5812Z" fill="white"/>
<path d="M31.851 30.6378H27.0074C25.0371 30.6378 23.436 29.0367 23.436 27.0664V25.2461C23.436 24.7845 23.8111 24.4095 24.2726 24.4095C24.7342 24.4095 25.1092 24.7845 25.1092 25.2461V27.0664C25.1092 28.1136 25.9631 28.9675 27.0103 28.9675H31.8539C32.3154 28.9675 32.6905 29.3425 32.6905 29.804C32.6905 30.2656 32.3125 30.6378 31.851 30.6378Z" fill="white"/>
<path d="M80.6157 30.6379H75.7721C75.3106 30.6379 74.9355 30.2629 74.9355 29.8013C74.9355 29.3397 75.3106 28.9647 75.7721 28.9647H80.6157C81.6629 28.9647 82.5168 28.1108 82.5168 27.0636V25.2433C82.5168 24.7818 82.8918 24.4067 83.3534 24.4067C83.8149 24.4067 84.19 24.7818 84.19 25.2433V27.0636C84.1871 29.0368 82.586 30.6379 80.6157 30.6379Z" fill="white"/>
<path d="M21.0478 46.8532H16.2043C15.7427 46.8532 15.3677 46.4782 15.3677 46.0166C15.3677 45.555 15.7427 45.18 16.2043 45.18H20.4997L27.2963 29.4694C27.4809 29.0454 27.9713 28.8521 28.3954 29.0338C28.8195 29.2156 29.0127 29.7089 28.831 30.133L21.8152 46.3484C21.6825 46.657 21.3796 46.8532 21.0478 46.8532Z" fill="white"/>
<path d="M90.8428 46.8531H85.9992C85.6646 46.8531 85.3645 46.6541 85.2318 46.3483L78.2189 30.1358C78.0343 29.7117 78.2304 29.2213 78.6545 29.0367C79.0786 28.852 79.569 29.0482 79.7536 29.4723L86.5502 45.1828H90.8456C91.3072 45.1828 91.6822 45.5579 91.6822 46.0194C91.6822 46.481 91.3043 46.8531 90.8428 46.8531Z" fill="white"/>
<path d="M56.6232 19.191H50.5449C49.5612 19.191 48.5717 18.9688 47.6861 18.5448C46.8005 18.1207 46.0014 17.4947 45.3812 16.7331L41.53 11.9905C41.328 11.7396 41.2848 11.3963 41.4232 11.1049C41.5617 10.8135 41.8559 10.6289 42.179 10.6289H64.9891C65.3122 10.6289 65.6064 10.8135 65.7449 11.1049C65.8834 11.3963 65.843 11.7396 65.6382 11.9905L61.787 16.7331C61.1667 17.4976 60.3705 18.1236 59.482 18.5448C58.5935 18.966 57.6069 19.191 56.6232 19.191ZM43.9359 12.2992L46.6793 15.6802C47.6284 16.8514 49.0391 17.5207 50.5449 17.5207H56.6232C58.1291 17.5207 59.5397 16.8485 60.4888 15.6802L63.2323 12.2992H43.9359Z" fill="white"/>
<path d="M12.2201 74.657C11.9604 74.657 11.7037 74.5358 11.5392 74.308C11.271 73.9329 11.3546 73.4108 11.7296 73.1425L45.1788 49.1352C45.5538 48.867 46.076 48.9506 46.3443 49.3256C46.6125 49.7007 46.5289 50.2228 46.1539 50.4911L12.7047 74.4983C12.5605 74.6051 12.3874 74.657 12.2201 74.657Z" fill="white"/>
<path d="M94.9503 74.657C94.783 74.657 94.6099 74.605 94.4628 74.5012L61.0136 50.4939C60.6386 50.2257 60.552 49.7035 60.8232 49.3285C61.0915 48.9535 61.6136 48.8669 61.9887 49.1381L95.4378 73.1453C95.8128 73.4136 95.8994 73.9358 95.6282 74.3108C95.4667 74.5358 95.2099 74.657 94.9503 74.657Z" fill="white"/>
<path d="M53.785 81.7592C53.3321 81.7592 53.0032 81.4563 52.5907 80.9371C52.3138 80.588 51.9734 80.1034 51.581 79.4975C50.7617 78.2311 49.83 76.6214 48.9587 74.9655C47.6058 72.3894 45.3354 67.6612 45.3354 64.9524C45.3354 62.6071 46.1865 60.4146 47.7356 58.7847C49.3107 57.1231 51.4599 56.2086 53.7879 56.2086C56.1159 56.2086 58.2622 57.1231 59.8402 58.7847C61.3864 60.4146 62.2403 62.6071 62.2403 64.9524C62.2403 67.6439 59.9498 72.3836 58.5853 74.9684C57.7314 76.5839 56.7765 78.2369 55.963 79.4975C55.5736 80.1005 55.2389 80.5822 54.9678 80.9313C54.6101 81.3813 54.2783 81.7592 53.785 81.7592ZM53.785 57.876C49.9828 57.876 47.0057 60.9829 47.0057 64.9495C47.0057 66.5852 48.1654 69.7787 50.1905 73.7078C50.9839 75.2511 51.8637 76.806 52.6686 78.0898C53.159 78.8715 53.5225 79.3995 53.7735 79.7312C54.4716 78.7792 55.8678 76.5695 57.3506 73.7107C59.393 69.7671 60.5672 66.5737 60.5672 64.9495C60.5643 60.9829 57.5872 57.876 53.785 57.876Z" fill="white"/>
<path d="M53.7839 68.9799C51.4213 68.9799 49.5 67.0587 49.5 64.696C49.5 62.3334 51.4213 60.4121 53.7839 60.4121C56.1466 60.4121 58.0678 62.3334 58.0678 64.696C58.0678 67.0587 56.1466 68.9799 53.7839 68.9799ZM53.7839 62.0824C52.3415 62.0824 51.1703 63.2536 51.1703 64.696C51.1703 66.1384 52.3415 67.3097 53.7839 67.3097C55.2263 67.3097 56.3975 66.1384 56.3975 64.696C56.3975 63.2536 55.2263 62.0824 53.7839 62.0824Z" fill="white"/>
<path d="M94.95 97.0055H12.2199C11.7583 97.0055 11.3833 96.6305 11.3833 96.1689V73.8204C11.3833 73.3588 11.7583 72.9838 12.2199 72.9838H44.5498C45.0113 72.9838 45.3863 73.3588 45.3863 73.8204C45.3863 74.282 45.0113 74.657 44.5498 74.657H13.0536V95.3352H94.1134V74.657H62.9922C62.5307 74.657 62.1557 74.282 62.1557 73.8204C62.1557 73.3588 62.5307 72.9838 62.9922 72.9838H94.95C95.4115 72.9838 95.7866 73.3588 95.7866 73.8204V96.1689C95.7866 96.6305 95.4115 97.0055 94.95 97.0055Z" fill="white"/>
<path d="M53.6379 97.0056C53.1763 97.0056 52.8013 96.6306 52.8013 96.169V85.2126C52.8013 84.751 53.1763 84.376 53.6379 84.376C54.0994 84.376 54.4744 84.751 54.4744 85.2126V96.169C54.4744 96.6306 54.0994 97.0056 53.6379 97.0056Z" fill="white"/>
<path d="M22.5739 97.0057C22.1123 97.0057 21.7373 96.6307 21.7373 96.1691V73.8207C21.7373 73.3591 22.1123 72.9841 22.5739 72.9841C23.0355 72.9841 23.4105 73.3591 23.4105 73.8207V96.1691C23.4105 96.6307 23.0355 97.0057 22.5739 97.0057Z" fill="white"/>
<path d="M27.7516 97.0057C27.2901 97.0057 26.915 96.6307 26.915 96.1691V73.8207C26.915 73.3591 27.2901 72.9841 27.7516 72.9841C28.2132 72.9841 28.5882 73.3591 28.5882 73.8207V96.1691C28.5882 96.6307 28.2132 97.0057 27.7516 97.0057Z" fill="white"/>
<path d="M32.9308 97.0057C32.4693 97.0057 32.0942 96.6307 32.0942 96.1691V73.8207C32.0942 73.3591 32.4693 72.9841 32.9308 72.9841C33.3924 72.9841 33.7674 73.3591 33.7674 73.8207V96.1691C33.7645 96.6307 33.3924 97.0057 32.9308 97.0057Z" fill="white"/>
<path d="M17.3986 97.0057C16.937 97.0057 16.562 96.6307 16.562 96.1691V73.8207C16.562 73.3591 16.937 72.9841 17.3986 72.9841C17.8602 72.9841 18.2352 73.3591 18.2352 73.8207V96.1691C18.2352 96.6307 17.8602 97.0057 17.3986 97.0057Z" fill="white"/>
<path d="M63.9645 97.0057C63.503 97.0057 63.1279 96.6307 63.1279 96.1691V73.8207C63.1279 73.3591 63.503 72.9841 63.9645 72.9841C64.4261 72.9841 64.8011 73.3591 64.8011 73.8207V96.1691C64.7982 96.6307 64.4261 97.0057 63.9645 97.0057Z" fill="white"/>
<path d="M69.1398 97.0057C68.6782 97.0057 68.3032 96.6307 68.3032 96.1691V73.8207C68.3032 73.3591 68.6782 72.9841 69.1398 72.9841C69.6014 72.9841 69.9764 73.3591 69.9764 73.8207V96.1691C69.9764 96.6307 69.6014 97.0057 69.1398 97.0057Z" fill="white"/>
<path d="M74.3185 97.0057C73.857 97.0057 73.4819 96.6307 73.4819 96.1691V73.8207C73.4819 73.3591 73.857 72.9841 74.3185 72.9841C74.7801 72.9841 75.1551 73.3591 75.1551 73.8207V96.1691C75.1551 96.6307 74.7801 97.0057 74.3185 97.0057Z" fill="white"/>
<path d="M58.7868 97.0055C58.3252 97.0055 57.9502 96.6305 57.9502 96.1689V80.5968C57.9502 80.1353 58.3252 79.7603 58.7868 79.7603C59.2484 79.7603 59.6234 80.1353 59.6234 80.5968V96.1689C59.6234 96.6305 59.2484 97.0055 58.7868 97.0055Z" fill="white"/>
<path d="M53.6368 86.0492H32.9269C32.4654 86.0492 32.0903 85.6741 32.0903 85.2126C32.0903 84.751 32.4654 84.376 32.9269 84.376H53.6368C54.0984 84.376 54.4734 84.751 54.4734 85.2126C54.4734 85.6741 54.0984 86.0492 53.6368 86.0492Z" fill="white"/>
<path d="M53.6368 91.2246H32.9269C32.4654 91.2246 32.0903 90.8495 32.0903 90.388C32.0903 89.9264 32.4654 89.5514 32.9269 89.5514H53.6368C54.0984 89.5514 54.4734 89.9264 54.4734 90.388C54.4734 90.8495 54.0984 91.2246 53.6368 91.2246Z" fill="white"/>
<path d="M48.0894 80.871H32.9269C32.4654 80.871 32.0903 80.496 32.0903 80.0344C32.0903 79.5728 32.4654 79.1978 32.9269 79.1978H48.0894C48.551 79.1978 48.926 79.5728 48.926 80.0344C48.926 80.496 48.551 80.871 48.0894 80.871Z" fill="white"/>
<path d="M95.0284 86.0492H74.3185C73.857 86.0492 73.4819 85.6741 73.4819 85.2126C73.4819 84.751 73.857 84.376 74.3185 84.376H95.0284C95.49 84.376 95.865 84.751 95.865 85.2126C95.865 85.6741 95.49 86.0492 95.0284 86.0492Z" fill="white"/>
<path d="M95.0284 91.2246H74.3185C73.857 91.2246 73.4819 90.8495 73.4819 90.388C73.4819 89.9264 73.857 89.5514 74.3185 89.5514H95.0284C95.49 89.5514 95.865 89.9264 95.865 90.388C95.865 90.8495 95.49 91.2246 95.0284 91.2246Z" fill="white"/>
<path d="M95.0284 80.871H74.3185C73.857 80.871 73.4819 80.496 73.4819 80.0344C73.4819 79.5728 73.857 79.1978 74.3185 79.1978H95.0284C95.49 79.1978 95.865 79.5728 95.865 80.0344C95.865 80.496 95.49 80.871 95.0284 80.871Z" fill="white"/>
</svg>
