<svg width="249" height="159" viewBox="0 0 249 159" fill="none" xmlns="http://www.w3.org/2000/svg">
<mask id="mask0_206_364" style="mask-type:luminance" maskUnits="userSpaceOnUse" x="0" y="0" width="249" height="159">
<path d="M0.927979 0.0976562H248.131V158.25H0.927979V0.0976562Z" fill="white"/>
</mask>
<g mask="url(#mask0_206_364)">
<path d="M213.083 40.2735C212.745 39.8644 212.391 39.4608 212.029 39.0764C216.765 33.8705 220.329 27.5747 225.856 23.1266C231.075 18.9367 236.778 15.381 241.449 10.5541C242.061 10.8753 242.624 11.2378 243.115 11.721C242.552 12.2372 241.948 12.8083 241.331 13.3547C240.348 14.2553 239.439 15.2767 238.384 16.3365C237.363 17.3826 236.295 18.5825 235.136 19.7C234.565 20.2629 233.969 20.8504 233.368 21.438C232.698 21.9679 232.047 22.5226 231.301 23.0937C229.851 24.2359 228.267 25.4028 226.619 26.7702C224.977 28.1128 223.28 29.7136 221.762 31.5147C220.216 33.2116 218.681 35.0951 216.99 36.8469C215.793 38.077 214.513 39.2851 213.083 40.2735ZM202.273 82.8538C201.902 82.5957 201.556 82.3541 201.227 82.1371C202.273 81.7582 203.278 81.2777 204.22 80.6819C204.236 81.6457 204.357 82.7412 204.557 83.8999C204.574 83.9713 204.582 84.0427 204.604 84.1168C204.22 83.801 203.794 83.488 203.245 83.2162C202.957 83.0624 202.627 82.9499 202.273 82.8538ZM198.734 45.1554C198.572 44.6007 198.693 44.0461 198.734 43.4997C198.83 43.4256 198.91 43.3377 199.017 43.2828C199.176 43.1537 199.338 43.1208 199.497 43.0247C199.61 42.9835 199.731 42.9451 199.86 42.8956C199.901 42.8792 200.044 42.816 200.005 42.8462L200.197 42.816C200.447 42.7666 200.705 42.7034 200.977 42.654C201.26 42.6211 201.548 42.5909 201.839 42.5497C203.053 42.4536 204.453 42.5332 205.996 42.7995C209.11 43.291 212.696 44.609 216.968 45.9434C218.769 46.5227 220.579 47.5276 221.655 49.0735C222.196 49.8285 222.55 50.6907 222.671 51.5995C222.742 52.1843 222.701 52.8213 222.572 53.4309C221.688 52.6923 219.395 52.0251 216.422 52.0882C212.77 52.2008 209.953 53.03 209.931 54.0102C209.914 54.9685 212.929 55.7318 216.485 55.611C218.802 55.5478 220.971 55.3227 222.122 54.8641C221.971 55.2266 221.737 55.6439 221.625 55.8691L221.229 56.4814C221.087 56.6653 220.916 56.8356 220.771 57.0113C220.12 57.6867 219.34 58.1782 218.456 58.4912C217.569 58.8042 216.581 58.9168 215.576 58.9086C214.588 58.9003 213.574 58.7795 212.6 58.5544C211.636 58.3374 210.653 58.0409 209.802 57.7114C208.901 57.3819 207.976 56.9152 207.13 56.5445C206.295 56.1354 205.505 55.7318 204.846 55.3227C204.179 54.9355 203.366 54.2766 202.828 53.8812C202.531 53.656 202.314 53.4309 202.281 53.3924C202.224 53.3677 202.177 53.214 202.177 52.7884C202.169 52.6044 202.152 52.426 202.152 52.2502L202.136 51.9372L202.103 51.6627C202.073 51.292 202.04 50.9625 201.99 50.6083C201.856 49.4743 201.589 47.9944 200.664 47.2229C199.868 46.5721 199.039 46.2811 198.734 45.1554ZM199.368 62.0634C198.684 61.797 198.017 61.5884 197.358 61.3714C197.8 60.6795 198.338 59.8915 199.017 59.1419C199.876 58.2002 200.81 57.4945 201.523 57.1788C201.886 56.9948 202.177 56.8987 202.386 56.8575C202.657 57.0607 202.907 57.2858 203.237 57.511C204.066 58.1288 204.92 58.6285 205.796 59.1419C206.696 59.6169 207.556 60.1002 208.572 60.5505C209.294 60.88 210.035 61.1463 210.798 61.3797C209.607 62.1759 208.41 63.9442 207.814 64.7322C207.339 65.3664 206.938 66.0446 206.639 66.7118C206.463 66.4949 206.295 66.2835 206.101 66.0913C205.658 65.7069 205.249 65.2484 204.791 64.9491C202.998 63.5817 201.131 62.747 199.368 62.0634ZM195.019 98.312C194.753 97.2659 194.72 96.1155 194.824 95.0227C195.049 92.8344 195.733 90.8328 196.578 89.232C197.416 87.6313 198.468 86.393 199.514 85.7093C200.038 85.3469 200.543 85.2096 201.027 85.1052C201.51 85.0888 201.968 85.0888 202.394 85.259C202.473 85.2892 202.553 85.3386 202.635 85.3633C202.644 85.3633 202.644 85.3798 202.657 85.3798C204.115 86.9229 205.763 89.0288 205.941 91.8761C205.933 92.2386 205.955 92.5845 205.941 92.9717C205.917 93.3643 205.892 93.7514 205.837 94.1304C205.724 94.8772 205.513 95.4153 205.032 95.97C204.799 96.2528 204.5 96.5356 204.179 96.8239C203.824 97.1039 203.454 97.4115 203.086 97.7162C202.715 98.0292 202.314 98.2873 201.911 98.5701C201.523 98.8584 201.098 99.1413 200.672 99.3746C199.442 100.058 198.083 100.613 196.611 100.86L196.699 100.693C195.878 100.193 195.315 99.3664 195.019 98.312ZM192.759 59.9876C192.54 59.9052 190.73 58.6532 190.964 58.3704C192.485 56.528 194.456 55.0152 196.386 53.6011C197.004 54.2271 197.583 54.8971 198.13 55.5808C197.745 56.0311 197.295 56.5527 196.779 57.1403C195.944 58.0876 195.019 58.9827 193.956 59.6883C193.41 60.0672 193.457 60.188 192.759 59.9876ZM186.911 83.2794C188.319 81.5249 189.934 79.9324 191.568 78.3975C191.639 78.3261 191.705 78.2685 191.752 78.1888C191.985 78.3096 192.227 78.4469 192.435 78.5595C194.56 79.699 196.136 80.4952 197.108 80.8988C197.85 81.2283 199.264 82.1042 199.113 83.0213C198.22 83.4002 197.416 83.9081 196.699 84.5424C196.482 84.7181 194.624 86.835 194.624 86.9641C191.85 85.6269 189.275 84.3969 186.911 83.2794ZM179.253 79.699C178.086 79.169 176.985 78.6638 175.956 78.1888C178.306 76.7638 180.629 75.2537 183.188 74.2378C183.468 74.1334 183.685 73.966 183.847 73.7738C184.577 74.1829 185.31 74.6002 186.002 75.0038C187.032 75.5832 187.995 76.1131 188.912 76.6293C187.161 78.2849 185.511 80.0147 184.022 81.9285C182.334 81.1322 180.733 80.3826 179.253 79.699ZM177.155 63.881C177.073 63.7904 176.96 63.6778 176.856 63.5735C176.922 62.9777 177.21 62.3681 177.919 61.7806C178.16 61.5554 178.449 61.3467 178.764 61.1545C179.077 60.9431 179.44 60.8086 179.791 60.6054C180.154 60.4461 180.549 60.3583 180.942 60.2375C181.362 60.2045 181.779 60.0919 182.238 60.1469C183.138 60.1633 184.176 60.4132 185.343 60.7674C186.507 61.1133 187.811 61.5389 189.212 61.9261C191.977 62.6976 195.074 63.4692 198.317 64.7486C199.909 65.4076 201.548 66.2121 202.948 67.3049C203.336 67.5548 203.591 67.9007 203.929 68.1918C204.236 68.5048 204.47 68.8672 204.75 69.1884C205.175 69.9435 205.513 70.6766 205.65 71.6239C205.996 73.4992 205.571 75.3333 204.17 76.7638C202.819 78.1312 200.914 79.2432 199.017 79.5727C196.732 79.9571 195.002 78.5266 193.231 77.2965C191.559 76.146 189.517 74.7869 187.144 73.2164C185.961 72.4366 184.698 71.6101 183.355 70.7233C182.054 69.8145 180.324 68.8974 179.607 67.9748L179.536 67.876C179.399 67.6371 179.245 67.4257 179.086 67.1923C178.932 66.8793 178.77 66.5581 178.619 66.2368C178.418 65.8661 178.281 65.512 178.031 65.1028L177.636 64.4988L177.427 64.194L177.411 64.1528C177.389 64.1199 177.306 64.0403 177.306 64.0403L177.26 63.9936L177.155 63.881ZM173.358 76.0966C172.707 74.4492 172.361 72.7743 172.361 70.9979C173.213 70.8935 174.091 70.7013 174.942 70.4432C175.788 70.1851 176.593 69.8309 177.372 69.4218C177.427 69.485 177.477 69.5509 177.532 69.6223C177.919 69.9929 178.314 70.4432 178.715 70.715C179.11 70.9814 179.536 71.2944 179.89 71.4893C180.162 71.6403 180.42 71.8023 180.695 71.9561C178.144 73.1532 175.788 74.6826 173.358 76.0966ZM165.05 73.3866C164.954 72.3734 164.929 71.3603 165.017 70.3471C166.321 70.6766 167.721 70.9567 169.209 71.0692C169.223 72.5904 169.448 74.0373 169.86 75.4624C169.448 75.2921 169.064 75.1411 168.693 75.0038C167.263 74.4712 166.016 74.1252 164.97 73.9083C165.025 73.7408 165.058 73.5623 165.05 73.3866ZM158.938 72.6865C159.113 71.3987 159.275 70.122 159.534 68.8507C160.338 69.0759 161.148 69.3093 161.985 69.5344C161.823 70.8221 161.81 72.0906 161.922 73.3866C161.922 73.4031 161.922 73.4278 161.922 73.436C161.085 73.2246 160.096 72.9775 158.938 72.6865ZM158.921 56.5527C157.529 56.2068 156.115 55.8526 154.682 55.4984C155.89 54.7269 157.241 54.0185 158.551 53.3101C159.146 52.9971 159.759 52.6429 160.368 52.2969C160.964 51.9372 161.623 51.5336 162.139 51.1712C163.232 50.4326 164.319 49.6995 165.396 48.9856C169.69 46.0971 173.762 43.3212 177.718 40.732C181.667 38.1346 185.406 35.6333 189.003 33.3818C190.796 32.2478 192.548 31.1276 194.245 30.043C195.09 29.5049 195.944 28.9722 196.771 28.4505C197.616 27.9673 198.459 27.4841 199.297 27.0118C202.611 25.12 205.738 23.3353 208.723 21.5671C210.219 20.6885 211.658 19.8373 213.066 19.0081C214.442 18.1624 215.721 17.2783 216.99 16.4573C219.516 14.7852 221.875 13.2256 224.085 11.7622C226.298 10.2905 228.379 8.9451 230.279 7.77269C234.098 5.40865 237.588 3.95892 240.614 3.75025C241.369 3.67886 242.077 3.72553 242.753 3.77496C243.091 3.82987 243.412 3.87106 243.733 3.92048C244.049 3.97539 244.274 4.04129 244.521 4.15386C245.4 4.51355 245.971 5.24665 246.347 5.97151C246.405 6.24334 246.438 6.52614 246.413 6.83915C246.372 7.65188 246.009 8.58542 245.342 9.51072C244.483 8.64857 243.428 8.05275 242.357 7.50636C242.141 7.40202 241.907 7.3526 241.69 7.33063C241.16 7.02312 240.477 7.02312 239.939 7.61893C234.749 13.2586 227.89 16.7484 222.396 21.9844C217.281 26.8416 213.701 32.9617 208.772 37.9891C208.047 38.7469 208.297 39.6859 208.893 40.2323C208.94 40.3147 208.973 40.4026 209.036 40.4739C209.118 40.5481 209.206 40.6277 209.277 40.7073C208.256 40.5234 207.243 40.3778 206.287 40.3229C204.541 40.2021 202.924 40.2982 201.54 40.603C201.186 40.6991 200.865 40.7952 200.535 40.8776C200.23 40.9901 199.925 41.1192 199.643 41.2318L199.434 41.3196C199.256 41.391 199.28 41.3992 199.192 41.4404C199.08 41.5036 198.959 41.5777 198.846 41.6409C198.588 41.8413 198.308 42.0198 198.13 42.2367C195.944 44.447 198.492 46.001 199.563 47.8434C199.901 48.5573 200.044 49.4908 200.03 50.7456C200.03 51.0421 200.005 51.3881 200.005 51.734L199.997 51.9921C199.997 51.9921 199.98 52.1541 199.972 52.2173C199.964 52.4012 199.956 52.588 199.931 52.7802C199.931 52.7966 199.931 52.8296 199.931 52.8515C199.321 52.1212 198.671 51.421 197.962 50.7621C197.817 50.6413 197.663 50.5452 197.504 50.471C197.078 49.9658 196.378 49.7407 195.67 50.2624C192.99 52.2502 190.28 54.2601 188.182 56.874C188.157 56.8905 188.141 56.8987 188.108 56.9069C187.49 57.2776 187.161 58.1123 187.416 58.796C186.927 58.6669 186.452 58.5461 185.969 58.4281C184.739 58.1288 183.476 57.8624 182.221 57.9283C181.603 57.9119 180.991 58.0739 180.428 58.1947C179.89 58.3869 179.357 58.5626 178.907 58.8289C177.998 59.3369 177.26 59.8833 176.689 60.5258C176.164 61.0886 175.772 61.7558 175.579 62.4478C175.426 62.3187 175.272 62.2061 175.129 62.1018C174.676 61.7888 174.212 61.506 173.737 61.2506C173.954 61.0804 174.171 60.9129 174.404 60.7592C175.08 60.2375 175.763 59.7378 176.389 59.2243C177.669 58.2166 178.869 57.2447 180.003 56.3029C182.271 54.4138 184.322 52.7088 186.156 51.1712C189.83 48.074 192.652 45.6304 194.816 43.7551C199.113 39.9852 200.727 38.6179 200.631 38.4476C200.519 38.2389 198.564 39.3564 194.102 42.9039C191.85 44.6639 188.954 47.0224 185.239 50.0537C183.38 51.5666 181.321 53.2469 179.036 55.114C177.886 56.0311 176.689 56.9948 175.426 57.9915C174.789 58.483 174.13 58.9827 173.462 59.4961C173.037 59.8174 172.578 60.1469 172.145 60.4297C171.17 59.9958 170.165 59.6005 169.143 59.2545C177.315 53.1344 184.297 48.1152 189.959 43.9253C195.845 39.5981 200.414 36.1961 203.874 33.5822C207.347 30.9601 209.681 29.0216 211.169 27.8163C212.633 26.5917 213.22 26.0206 213.146 25.9327C213.075 25.8531 212.342 26.2787 210.757 27.3577C209.157 28.4176 206.776 30.1886 203.215 32.6817C199.676 35.183 195.041 38.4888 189.107 42.7584C183.196 47.0307 175.98 52.1541 167.309 58.6834C165.654 58.2002 163.973 57.7911 162.282 57.3984C161.84 57.2858 161.365 57.1733 160.909 57.0525C163.402 55.2897 165.95 53.656 168.331 52.08C171.17 50.2321 173.888 48.4694 176.48 46.789C181.667 43.442 186.348 40.419 190.571 37.6926C198.992 32.2231 205.529 27.9041 210.477 24.5269C215.422 21.147 218.769 18.7418 220.828 17.0696C221.342 16.6523 221.776 16.2981 222.146 15.9988C222.509 15.6693 222.783 15.381 223 15.1641C223.434 14.7221 223.618 14.5051 223.571 14.464C223.53 14.4228 223.28 14.5765 222.792 14.9307C222.542 15.1229 222.243 15.3481 221.866 15.6309C221.471 15.8945 221.004 16.2185 220.466 16.5781C218.311 18.0828 214.876 20.359 209.865 23.6016C204.821 26.8333 198.234 31.0562 189.791 36.4762C185.552 39.1807 180.846 42.179 175.643 45.5013C173.053 47.1734 170.327 48.9279 167.48 50.7785C164.728 52.5797 161.873 54.3974 158.921 56.5527ZM156.082 92.417C156.025 92.3841 155.978 92.3594 155.928 92.3347C157.45 92.2001 159.009 92.2798 160.506 92.5598C161.898 92.8097 163.257 93.26 164.591 93.7597C163.883 94.523 163.144 95.473 162.419 96.5575C162.227 96.8239 162.035 97.0985 161.856 97.362C161.727 97.1369 161.568 96.9447 161.398 96.7525C161.173 96.4697 160.939 96.1896 160.714 95.9233C160.201 95.4483 159.717 94.9431 159.196 94.5312C158.166 93.702 157.128 93.0101 156.082 92.417ZM134.479 101.689C134.405 101.335 134.43 100.918 134.504 100.492C134.638 99.6135 134.954 98.6827 135.267 97.7657C136.288 94.6603 135.13 89.1112 139.619 88.9657C144.243 88.8202 150.805 92.4802 154.553 94.9101C155.462 95.4977 156.362 96.1484 157.2 96.887C157.617 97.2412 157.971 97.6613 158.367 98.0457C159.105 98.7788 160.714 101.98 160.473 102.952C160.555 103.878 160.451 104.795 160.143 105.638C160.022 105.992 159.847 106.338 159.638 106.659C159.572 106.629 159.501 106.621 159.443 106.629C159.097 106.653 158.825 107.126 158.616 107.914C157.658 108.809 156.403 109.501 154.989 109.83C153.79 110.127 152.447 110.176 151.296 110.064C150.95 110.006 150.558 109.973 150.267 109.902C150 109.83 149.745 109.756 149.471 109.693C148.891 109.484 148.287 109.289 147.711 109.009C146.511 108.479 145.327 107.842 144.089 107.225L143.142 106.774L142.675 106.546L142.129 106.338C141.5 106.121 140.896 105.887 140.278 105.662C139.103 105.228 137.985 104.795 137.013 104.295C136.497 104.053 136.088 103.781 135.684 103.515L135.218 103.106L135.154 103.065C135.154 103.048 135.025 102.897 135.025 102.897C134.946 102.793 134.833 102.656 134.776 102.573C134.704 102.381 134.496 102.06 134.479 101.689ZM125.921 108.35C126.629 107.779 127.538 107.117 128.614 106.541C130.273 105.638 131.89 105.149 132.837 104.907L132.903 104.979L132.911 104.995L133.016 105.099C133.271 105.358 133.546 105.638 133.828 105.887C133.941 105.978 134.067 106.058 134.196 106.137C132.983 107.038 131.261 109.097 129.652 111.678C129.644 111.695 129.636 111.719 129.614 111.728C129.564 111.664 129.509 111.582 129.46 111.519L129.081 111.123C128.093 110.055 127.013 109.147 125.921 108.35ZM123.694 55.9899C123.694 55.3227 123.919 54.6225 124.295 53.9141C124.449 53.9388 124.619 53.9636 124.778 53.9883C125.912 54.1008 127.038 54.1969 128.156 54.2601C129.235 54.3315 130.344 54.4138 131.478 54.5264C133.683 54.8394 135.918 55.1524 138.186 55.4819C146.406 56.9316 154.24 58.9497 161.543 60.5972C165.195 61.3934 168.605 62.143 171.477 63.4444C172.183 63.7739 172.858 64.1199 173.462 64.5317C173.775 64.7404 174.075 64.9326 174.3 65.1358C174.542 65.3033 174.846 65.5943 175.129 65.8744L175.233 65.9787L175.242 66.0034L175.376 66.1874L175.634 66.5581C175.667 66.6075 175.706 66.6706 175.739 66.7283C175.168 67.0248 174.58 67.2747 173.992 67.4587C172.971 67.7634 171.966 67.9666 170.928 67.9886C168.877 68.0709 166.834 67.6509 164.841 67.1374C162.806 66.6075 160.876 66.0913 159.042 65.5998C157.216 65.1193 155.486 64.6361 153.855 64.194C150.572 63.3483 147.661 62.3928 145.08 61.6762C142.488 60.9211 140.212 60.2841 138.252 59.746C137.26 59.4797 136.352 59.2298 135.517 59.0129C134.663 58.8289 133.891 58.6532 133.183 58.4912C131.777 58.1947 130.627 57.9695 129.74 57.824C127.955 57.533 127.159 57.533 127.112 57.7444C127.055 57.953 127.763 58.3539 129.435 59.0129C130.273 59.3369 131.357 59.7213 132.7 60.1798C133.378 60.3967 134.125 60.6548 134.946 60.9211C135.759 61.2177 136.643 61.5307 137.598 61.8602C139.523 62.5219 141.758 63.277 144.3 64.1528C146.873 64.9903 149.729 66.0364 153.059 66.9672C154.16 67.2994 155.327 67.6371 156.532 67.9886C156.258 69.2845 156.099 70.6107 155.912 71.9232C155.599 71.8435 155.294 71.7529 154.956 71.6733C151 70.6272 145.811 69.2681 139.394 66.9672C137.801 66.3741 136.135 65.7371 134.421 64.9656C132.7 64.2187 130.94 63.3483 129.218 62.3022C127.505 61.2589 125.783 59.9876 124.619 58.4281C124.095 57.6373 123.732 56.8108 123.694 55.9899ZM122.719 105.904C121.764 104.616 120.742 103.361 119.592 102.214C122.085 100.613 124.971 99.5668 127.434 97.9249C128.51 99.1715 129.718 100.418 130.41 101.906C129.652 102.439 128.601 103.131 127.184 103.894C125.061 105.053 123.515 105.632 122.719 105.904ZM101.841 101.247C101.616 101.231 101.374 101.206 101.124 101.176C112.947 95.2561 126.805 88.2985 142.971 80.152C144.734 80.7066 146.544 81.3656 148.312 82.2497C149.946 83.0954 151.555 84.1333 152.881 85.5226C153.869 86.5687 154.682 87.8153 155.237 89.2485C155.165 89.254 155.102 89.254 155.028 89.2622C153.765 89.416 152.527 89.7455 151.305 90.1958C150.887 90.0283 150.467 89.8828 150.066 89.7372C146.977 88.6856 136.972 84.9762 134.679 88.8284C134.454 89.2156 134.366 89.6082 134.292 89.9953C134.174 90.7586 134.174 91.4753 134.117 92.2303C134.092 92.6175 134.075 92.947 134.029 93.3725L133.996 93.6883V93.7679L133.979 93.8064L133.955 93.9272C133.924 94.1056 133.9 94.2731 133.834 94.4598C133.65 95.1984 133.32 95.9947 132.933 96.887C132.678 97.4828 132.412 98.1199 132.17 98.842C131.245 97.5405 130.135 96.3489 129.13 95.0859C128.826 94.7015 128.447 94.5395 128.093 94.5559C127.601 94.3775 127.038 94.4187 126.525 94.8278C123.436 97.362 119.567 98.4329 116.462 100.959C115.819 101.481 115.852 102.648 116.429 103.169C116.783 103.482 117.107 103.82 117.437 104.158C116.583 103.869 115.731 103.595 114.919 103.378C110.55 102.181 106.931 101.73 104.438 101.552C103.876 101.514 103.384 101.489 102.95 101.481C102.621 101.384 102.258 101.28 101.841 101.247ZM98.4226 103.482C98.3814 103.169 98.3814 103.177 98.4308 103.073C98.5022 102.961 98.8317 102.823 99.1227 102.744C99.4357 102.648 99.7652 102.582 100.095 102.543C100.649 102.447 101.341 102.414 101.841 102.356C101.904 102.34 101.945 102.34 102 102.34C102.58 102.502 103.337 102.686 104.221 102.897C106.618 103.49 110.084 104.303 114.169 105.745C116.204 106.475 118.392 107.384 120.572 108.584C122.752 109.773 124.957 111.302 126.684 113.295L127.038 113.713C127.143 113.842 127.208 113.963 127.288 114.083L127.714 114.72C126.363 117.109 125.767 118.998 126.33 119.394C126.75 119.69 127.692 119.135 128.889 118.018C129.01 118.798 129.034 119.594 128.864 120.365C128.568 121.958 127.667 123.397 126.346 124.451C125.921 123.383 125.462 122.73 125.028 122.795C124.49 122.859 124.095 124.001 123.99 125.772C123.886 125.81 123.79 125.86 123.677 125.89C121.094 126.694 118.095 126.326 115.528 125.538C114.836 125.385 114.227 125.102 113.584 124.838C112.988 124.597 112.239 124.251 111.638 123.96C110.366 123.334 109.136 122.691 107.994 121.999C105.734 120.648 103.65 119.031 102.774 117.326C101.888 115.58 102.146 113.103 101.413 110.665L101.437 110.769C101.091 109.435 100.611 108.268 100.111 107.288C99.6114 106.266 99.1529 105.412 98.7932 104.561C98.6065 104.158 98.461 103.765 98.4226 103.482ZM87.6924 33.1237C87.308 32.8272 86.9538 32.5114 86.6161 32.1902C87.5798 31.836 88.5298 31.4818 89.4222 31.1523C90.7566 30.6306 91.9866 30.076 93.1865 29.5763C95.567 28.5713 97.6647 27.6378 99.573 26.8498C103.351 25.3534 106.448 24.1068 108.749 23.1184C110.696 22.3139 112.11 21.6796 113.085 21.1799C113.889 20.9383 114.765 20.7214 115.698 20.5924C116.519 20.521 117.371 20.488 118.208 20.6967C119.246 21.0097 119.309 21.114 119.35 21.2596L119.246 21.3886C119.18 21.438 119.229 21.3886 119.029 21.5726C118.818 21.784 118.609 21.9844 118.4 22.1931C118.159 22.3853 117.909 22.594 117.662 22.7971C116.687 23.6181 115.515 24.4144 114.273 25.2573C113.019 26.1112 111.668 26.9459 110.237 28.0085C108.853 29.0546 107.431 30.1474 105.951 31.2978C103.087 33.5658 99.9409 35.9792 96.3056 38.0467C95.7345 37.7475 95.1716 37.4592 94.617 37.1764C93.2744 36.4762 91.9866 35.8172 90.7648 35.1995L90.3063 34.9661L89.9521 34.7245C89.9054 34.6915 89.8477 34.6586 89.8011 34.6366C93.4281 32.753 96.4841 31.177 99.0239 29.8673C100.449 29.1754 101.704 28.5631 102.821 28.0167C103.947 27.4841 104.897 26.9541 105.773 26.6246C109.216 25.1447 110.504 24.4446 110.421 24.2359C110.35 24.0355 108.958 24.3649 105.347 25.595C104.438 25.8778 103.45 26.3501 102.291 26.8416C101.149 27.3413 99.8283 27.8959 98.3896 28.5713C95.6219 29.9058 92.2777 31.5806 88.3047 33.6289C88.1042 33.4614 87.8928 33.2857 87.6924 33.1237ZM64.3347 35.3422L64.343 35.3203H64.3512C64.4253 35.3203 64.3841 35.3285 64.3347 35.3422ZM61.2568 39.782C61.2568 39.4525 61.1827 39.2109 61.2623 38.5931C61.3282 37.7475 61.6 36.6217 62.0915 36.0259C62.237 35.9133 62.3166 35.7129 62.4869 35.6745C62.55 35.6333 62.6159 35.5839 62.6708 35.5289C62.7587 35.5125 62.8411 35.4878 62.9125 35.463C63.0744 35.3587 63.2008 35.4493 63.338 35.3834C63.3545 35.3834 63.3627 35.3752 63.3957 35.3752L63.5247 35.3834L63.7801 35.4081L64.1837 35.3917L64.2002 35.4164L64.2551 35.4493L64.3841 35.4878L64.634 35.5619L65.131 35.6964C65.4687 35.7788 65.8147 35.8749 66.1524 35.9545C66.8443 36.1303 67.5444 36.3005 68.2611 36.4844C69.7163 36.921 71.2621 37.4345 72.8217 37.9095C85.2707 41.8111 95.7125 44.2465 96.0008 43.3212C96.2837 42.3877 86.4293 38.4806 73.8431 34.546C73.3351 34.395 72.8299 34.233 72.3302 34.082C70.4412 29.093 69.6202 23.8982 68.1238 18.7994C66.6191 13.643 64.7466 8.61562 63.7169 3.31643C64.634 3.54981 65.4934 4.01658 66.2512 4.65083C68.0826 6.19666 69.45 8.35203 70.6334 10.3948C71.8085 12.4678 72.7805 14.5353 73.7854 16.4903C74.8562 18.5001 75.8694 20.1585 76.8359 21.8224C77.3246 22.6516 77.8079 23.4314 78.2499 24.2029C78.7579 24.9443 79.2246 25.6746 79.6832 26.3583C81.2427 28.6263 82.7062 30.4686 84.0818 32.0145C84.7655 32.8409 85.4574 33.7744 86.4376 34.6366C86.9126 35.0951 87.3958 35.5674 87.9175 35.9216C88.1838 36.1165 88.4474 36.3087 88.7138 36.5174L88.9224 36.6629L89.0185 36.7343L89.068 36.7837L89.1009 36.8002L89.1805 36.8551L89.6308 37.1214C90.8225 37.8216 92.0855 38.5602 93.4117 39.3482C94.7378 40.128 96.0722 40.9023 97.5769 41.7452C98.3265 42.1625 99.0815 42.5826 99.8531 43.0165C100.625 43.4118 101.413 43.8127 102.217 44.2136C105.452 45.7924 108.79 47.7308 112.393 49.532C113.301 49.9823 114.227 50.4408 115.144 50.8994C115.611 51.1327 116.069 51.3744 116.536 51.5995L117.242 51.951L117.604 52.1212C117.821 52.2338 117.895 52.2502 118.046 52.3051C119.029 52.7335 120.067 53.0712 121.11 53.343C120.773 54.1887 120.556 55.0975 120.564 56.0613C120.572 56.3441 120.622 56.6077 120.668 56.8658C115.569 54.7186 111.209 52.7884 107.431 51.3744C102.887 49.6363 99.2353 48.5106 96.388 47.8736C94.963 47.5853 93.7494 47.3354 92.7445 47.1734C91.7066 47.0856 90.8691 47.0307 90.2266 47.0224C88.9389 46.9895 88.3843 47.0938 88.3513 47.3107C88.3294 47.5276 88.8346 47.8269 90.0399 48.2196C90.6275 48.42 91.4018 48.6451 92.3655 48.895C93.3156 49.2025 94.4495 49.5787 95.7922 50.0125C98.4692 50.8911 101.945 52.2008 106.344 54.0514C110.767 55.8773 116.061 58.3869 122.695 61.1133L122.736 61.042C124.24 62.7525 125.978 63.9112 127.626 64.9244C129.531 66.0748 131.415 66.9589 133.232 67.725C135.034 68.4965 136.78 69.1308 138.436 69.6936C145.088 71.9149 150.396 73.0489 154.465 73.8451C155.237 73.9824 155.945 74.1032 156.637 74.2158C156.741 74.2707 156.821 74.3366 156.933 74.3751C157.153 74.4245 157.4 74.4245 157.642 74.3833C159.967 74.754 161.744 74.9379 163.04 75.0203C164.19 75.4376 165.758 76.0417 167.809 77.0466C169.089 77.6562 170.536 78.4305 172.199 79.331C173.888 80.2563 175.818 81.2201 177.99 82.3156C182.109 84.3639 187.111 86.8268 193.127 89.7125C192.485 91.187 192.001 92.8426 191.768 94.7097C191.622 96.0523 191.617 97.5405 192.01 99.1248C192.13 99.6217 192.339 100.154 192.605 100.676C192.518 100.651 192.435 100.621 192.339 100.613C192.051 100.564 191.752 100.492 191.463 100.418C190.867 100.283 190.263 100.146 189.662 100.001C189.042 99.8716 188.446 99.6217 187.828 99.4378C185.335 98.6827 182.888 97.4746 180.17 96.1896C179.44 95.8821 178.69 95.5526 177.943 95.2396C177.186 94.9898 176.431 94.7399 175.659 94.49C174.138 94.0013 172.578 93.5812 171.123 93.0348C168.139 91.9887 164.97 90.2287 161.06 89.4956C160.231 89.3446 159.388 89.232 158.534 89.1826C157.842 86.9394 156.645 84.9213 155.14 83.3755C153.468 81.6319 151.546 80.4321 149.679 79.5068C147.815 78.565 145.964 77.939 144.218 77.4091C142.475 76.8682 140.8 76.4755 139.24 76.0884C137.697 75.7177 136.223 75.3745 134.85 75.0423C133.482 74.6963 132.211 74.3366 130.989 73.9989C128.551 73.3235 126.379 72.799 124.49 72.3899C120.685 71.6019 117.933 71.5937 116.237 71.7145C116.132 71.7227 116.044 71.7364 115.957 71.7447C115.762 71.6486 115.586 71.5607 115.402 71.4564C114.894 71.1901 114.386 70.8688 113.881 70.5723C112.843 69.9517 111.78 69.2928 110.688 68.6009C109.587 67.9089 108.444 67.2006 107.277 66.4784C106.094 65.77 104.839 65.1193 103.576 64.4027C102.308 63.6943 100.995 62.9777 99.6609 62.2391C98.31 61.5472 96.9344 60.8305 95.5094 60.1002C92.6868 58.6367 89.7352 57.1074 86.638 55.5066C85.8665 55.1058 85.0949 54.6939 84.2987 54.2766C83.5436 53.8427 82.7693 53.3924 81.9896 52.9339C81.1851 52.4754 80.3504 51.9839 79.5294 51.5171C80.268 51.2371 81.0505 50.9213 81.9017 50.3914C82.2559 50.1415 82.6266 49.9082 83.0357 49.37C83.14 49.2162 83.2279 49.1284 83.3185 48.9279C83.4146 48.7357 83.486 48.5271 83.5519 48.3157C83.6068 48.074 83.6232 47.6979 83.5821 47.3849C83.5189 46.973 83.486 47.0142 83.4695 46.9263L83.4393 46.8138V46.8055L83.4228 46.789V46.7808C83.4146 46.7561 83.4063 46.7396 83.4063 46.7396C83.3899 46.6847 83.3404 46.5886 83.2608 46.4019L83.1977 46.3305L82.9808 46.0175C82.8188 45.8006 82.6485 45.6304 82.4975 45.4766C82.1763 45.1389 81.8523 44.9384 81.5146 44.6968C80.2213 43.8676 78.983 43.4036 77.7749 43C76.5531 42.5991 75.3642 42.2834 74.222 42.0033C72.1847 41.5612 69.8289 40.4904 67.16 40.6359C66.4901 40.7238 65.8476 40.7952 65.131 41.0533L64.6258 41.2318L64.2716 41.4075L63.9256 41.586L63.7581 41.6738L63.6758 41.7123L63.6373 41.737L63.4424 41.8413L63.4259 41.8495C63.2666 41.9539 63.1211 42.0445 62.9536 42.1488C62.9372 42.1323 62.9289 42.1241 62.896 42.0994C62.4622 41.6903 61.9322 41.2153 61.5945 40.6689C61.5286 40.5234 61.4325 40.4026 61.3831 40.2488C61.3529 40.0978 61.3035 39.9358 61.2568 39.782ZM59.7439 7.54754C59.7192 6.83916 59.7988 6.17195 59.9279 5.55966C60.0569 4.95835 60.348 4.37901 60.5868 4.00834C60.6116 3.98363 60.6363 3.95068 60.661 3.92872C61.6906 9.30754 63.7169 14.3514 65.1172 19.6368C66.2897 24.1233 67.1738 28.6592 68.6482 33.0441C68.0689 32.9315 67.4813 32.8107 66.9102 32.6817C66.5313 32.6075 66.1524 32.5279 65.7845 32.4565L65.2298 32.3357L65.109 32.3192C64.8262 28.7471 64.2222 25.3863 63.3957 22.2425C62.9372 20.4084 62.3908 18.6786 61.8911 16.957C61.3611 15.2355 60.8285 13.6265 60.4441 12.067C60.0487 10.4992 59.7522 8.96982 59.7439 7.54754ZM30.4116 65.5861C30.6203 65.3747 30.8839 65.1413 31.1914 64.9326C32.1085 64.2572 33.1848 63.6476 34.2556 63.0518C35.3484 62.4313 36.3945 61.9343 37.5999 61.1545C38.6075 60.4763 39.5878 59.8009 40.5378 59.1502C41.4933 58.4994 42.4186 57.8624 43.3192 57.2529C44.2362 56.6653 45.1121 56.0942 45.966 55.5478C47.6876 54.4386 49.2801 53.3924 50.7353 52.4424C51.5315 51.9208 52.2866 51.421 52.9868 50.9543C53.2778 50.817 53.5661 50.6742 53.8956 50.5287C55.0543 49.9741 56.3969 49.3782 57.8768 48.5271C59.2936 47.7308 60.8532 46.8687 62.5171 45.9351C63.3133 45.4766 64.1343 45.0098 64.9717 44.5293L65.0925 44.4799L65.2683 44.3921L65.6225 44.2383L65.9684 44.079L66.21 44.0379C66.3858 44.0214 66.4983 43.9418 66.7098 43.9335L67.3028 43.8841C68.1238 43.8841 69.0491 44.0626 70.0458 44.3426C70.0787 44.3509 70.1117 44.3591 70.1419 44.3756C68.3572 45.6798 66.4517 46.627 64.6724 47.481C62.4127 48.5655 60.3068 49.499 58.4479 50.4793C56.5754 51.4924 55.0543 52.5001 53.6869 53.3595C52.3196 54.2436 51.1224 55.0097 50.0846 55.6769C45.966 58.3786 44.4778 59.5126 44.5987 59.7048C44.7195 59.8833 46.4163 59.0705 50.6639 56.6241C51.7237 56.0146 52.9538 55.2897 54.3624 54.477C55.7709 53.6423 57.3469 52.6758 59.1152 51.767C60.9328 50.8582 63.0333 49.9493 65.3424 48.8648C67.4154 47.8736 69.7492 46.7479 71.9458 44.9467L72.0803 44.9879L72.5004 45.1004L73.3516 45.3421C74.4773 45.6304 75.5729 45.9434 76.6492 46.314C77.72 46.6765 78.7743 47.1185 79.5761 47.6237C79.5843 47.632 79.609 47.6567 79.6173 47.6649C78.9336 48.0356 78.0001 48.3898 77.083 48.744C76.5531 48.9444 75.8447 49.2492 75.3862 49.4908C74.8727 49.7407 74.3648 50.007 73.8678 50.2541C72.8601 50.7456 71.8799 51.2288 70.9299 51.6956C69.9826 52.1294 69.0656 52.6511 68.1732 53.0053C67.2314 53.3924 66.3144 53.7686 65.4385 54.1228C63.8542 54.7982 62.3825 55.3227 61.0152 55.8691C59.0932 56.3029 56.5973 57.1486 53.6869 58.4116C50.4305 59.7789 46.7293 61.6927 42.5476 63.3401C40.4554 64.1528 38.2533 64.8777 35.9195 65.3198C34.7855 65.5614 33.506 65.7206 32.3885 65.7865C31.617 65.8414 30.8784 65.7536 30.4116 65.5861ZM27.7154 149.706C27.1607 149.151 26.6473 148.564 26.1311 147.968C35.903 142.018 46.3367 137.249 56.5973 132.221C61.5039 129.816 66.2512 126.873 71.2209 124.63C73.9227 123.421 76.7865 122.458 79.1835 120.761C80.1637 122.191 81.1933 123.575 82.2888 124.91C80.3257 125.739 78.3872 126.552 76.5037 127.394C74.027 128.449 71.6081 129.695 69.3319 130.75C64.7301 132.93 60.348 135.019 56.1882 136.999C54.096 137.979 52.0697 138.946 50.101 139.885C48.0967 140.772 46.1417 141.647 44.2445 142.493C40.4472 144.198 36.8613 145.796 33.4758 147.317C31.7872 148.089 30.1535 148.781 28.5363 149.56C28.3112 149.681 28.0943 149.786 27.8609 149.898C27.8197 149.835 27.773 149.772 27.7154 149.706ZM3.28141 151.861C2.56478 150.568 3.45988 148.885 4.50324 147.663C5.54935 146.417 6.74922 145.436 7.8173 144.574C8.90459 143.74 9.91775 143.048 10.8266 142.46C11.1972 142.21 11.5432 141.993 11.8864 141.785C12.9106 141.293 14.0445 140.755 15.3048 140.047C15.5711 139.885 15.8292 139.734 16.1011 139.572L16.4964 139.33L16.6008 139.275L16.7793 139.146L16.9797 139.009C17.4849 138.655 18.0313 138.278 18.5804 137.891C19.6732 137.136 20.9033 136.403 22.1828 135.623C23.4705 134.868 24.8296 134.077 26.3013 133.281C27.7071 132.51 29.2447 131.562 30.796 130.662C31.5758 130.195 32.3638 129.728 33.1683 129.245C33.9893 128.77 34.7471 128.215 35.5488 127.686C37.1276 126.615 38.7586 125.505 40.4334 124.371C42.0644 123.229 43.7393 122.071 45.4581 120.887C47.1878 119.723 49.0137 118.573 50.8396 117.373C51.2982 117.076 51.7402 116.785 52.1905 116.497C52.6737 116.217 53.1405 115.934 53.6238 115.651C54.571 115.088 55.5293 114.517 56.5013 113.941C58.4315 112.79 60.3864 111.615 62.3743 110.44C78.3954 101.102 92.9778 92.7932 103.337 86.3024C105.509 84.8883 107.461 83.5127 109.158 82.1783C109.842 81.7033 110.542 81.2366 111.259 80.7451C112.055 80.1822 112.81 79.5068 113.639 78.8478C114.04 78.5266 114.46 78.1806 114.878 77.8346C115.265 77.464 115.657 77.0631 116.061 76.6677C116.536 76.1927 117.016 75.704 117.508 75.2125C118.142 75.196 118.787 75.196 119.405 75.2207C119.946 75.229 120.276 75.2372 120.781 75.2537C121.297 75.2619 121.772 75.3333 122.252 75.3663C122.686 75.4047 123.131 75.4376 123.54 75.4926C111.66 83.2382 103.826 88.444 98.9607 91.7581C93.8949 95.2314 92.0525 96.6701 92.1733 96.8486C92.3024 97.0243 94.3672 95.9068 99.6032 92.6724C104.793 89.4654 113.118 84.147 125.753 75.9209C125.888 75.9511 126.025 75.984 126.154 76.0005C126.571 76.1049 126.967 76.201 127.351 76.3053C128.526 76.621 129.581 76.9093 130.594 77.1839C127.955 78.7435 125.317 80.2234 122.799 81.6539C119.759 83.359 116.857 84.9927 114.089 86.5522C108.54 89.6494 103.538 92.4555 99.0239 94.9815C90.0097 100.042 82.9808 103.982 77.6157 106.999C72.2588 110.022 68.5741 112.128 66.243 113.512C63.9174 114.88 62.9289 115.525 62.9756 115.621C63.0333 115.717 64.1013 115.25 66.5313 114.045C68.953 112.837 72.7256 110.874 78.1456 107.963C83.5738 105.066 90.6687 101.214 99.724 96.2445C104.254 93.7432 109.279 90.9673 114.836 87.8894C117.612 86.3436 120.525 84.7181 123.565 83.013C126.484 81.3656 129.515 79.677 132.716 77.7468C133.529 77.9307 134.279 78.1065 134.954 78.2135C135.638 78.3179 136.247 78.3893 136.788 78.4305C137.359 78.5732 137.936 78.7352 138.532 78.889C139.257 79.0894 140.012 79.2899 140.775 79.5068C102.442 98.8173 77.2532 111.566 61.6824 119.641C53.7501 123.734 48.3136 126.639 44.8567 128.52C43.127 129.487 41.9134 130.195 41.1226 130.667C40.3428 131.151 39.9969 131.384 40.0298 131.442C40.0628 131.48 40.4719 131.329 41.2928 130.942C42.1303 130.555 43.3933 129.937 45.145 129.061C48.6595 127.323 54.1866 124.588 62.1794 120.624C70.6581 116.401 81.9264 110.794 96.5225 103.482C96.5225 103.54 96.517 103.595 96.517 103.661C96.5555 104.265 96.701 104.762 96.863 105.278C97.4725 107.216 98.5351 109.201 98.9058 111.261L98.9195 111.365C99.1309 112.241 99.1776 113.304 99.2572 114.503C99.2902 115.121 99.3479 115.758 99.4604 116.434C99.4769 116.505 99.4906 116.576 99.5071 116.651C94.8751 119.498 90.0262 121.645 85.3036 123.647C83.8484 121.903 82.4646 120.091 81.218 118.185C81.0258 117.101 79.6008 116.23 78.5547 117.244C75.4905 120.253 70.6498 121.379 66.9102 123.397C61.8828 126.131 56.7676 128.699 51.6194 131.2C42.0012 135.881 32.3089 140.401 23.2124 146.071C22.5919 146.458 22.4079 147.051 22.504 147.608C22.3585 148.072 22.4491 148.605 22.8912 149.055C23.6133 149.786 24.275 150.574 24.9669 151.34C24.6429 151.491 24.3052 151.661 23.9922 151.815C21.09 153.237 18.3306 154.42 15.6837 155.008C13.0451 155.626 10.552 155.53 8.36369 154.879C7.23795 154.516 6.18635 154.129 5.27753 153.632C4.39067 153.133 3.65207 152.512 3.28141 151.861ZM1.48023 149.047C1.02993 150.052 0.892649 151.507 1.4967 152.754C2.12272 153.978 3.16059 154.797 4.22318 155.458C5.29126 156.092 6.46641 156.559 7.68001 156.985C10.2225 157.847 13.2236 158.006 16.1834 157.38C19.168 156.793 22.1032 155.563 25.1097 154.162C26.5896 153.462 28.1107 152.737 29.6868 151.99C31.2299 151.274 32.9212 150.574 34.6098 149.835C38.0117 148.355 41.6223 146.787 45.4279 145.129C47.3334 144.302 49.2801 143.449 51.2982 142.581C53.286 141.647 55.3426 140.689 57.4348 139.709C61.6412 137.746 66.048 135.67 70.691 133.506C73.0551 132.43 75.2818 131.271 77.7529 130.234C80.1719 129.149 82.7062 128.119 85.3036 127.04C90.2596 124.951 95.5011 122.721 100.641 119.627C101.253 120.582 101.992 121.395 102.774 122.134C103.843 123.125 105.034 123.984 106.264 124.772C107.503 125.569 108.799 126.302 110.133 126.985C110.841 127.34 111.421 127.636 112.2 127.957C112.947 128.287 113.689 128.633 114.485 128.836C115.273 129.075 116.036 129.341 116.937 129.478C119.559 129.857 121.489 130.113 124.144 129.413C124.191 129.816 124.24 130.217 124.312 130.629C125.012 134.723 125.978 137.916 126.992 137.916C127.922 137.908 128.51 134.264 127.788 130.066C127.667 129.366 127.53 128.69 127.392 128.031C128.238 127.507 129.018 126.881 129.685 126.14C131.028 124.701 131.928 122.867 132.25 120.978C132.62 119.078 132.324 117.18 131.744 115.508C131.687 115.338 131.632 115.171 131.566 115.017C131.89 114.6 132.211 114.157 132.532 113.699C134.204 111.044 135.33 108.551 135.629 107.071C136.772 107.697 137.936 108.213 139.111 108.688C139.699 108.921 140.303 109.163 140.912 109.418L141.283 109.572L141.7 109.781L142.554 110.215C143.705 110.827 144.918 111.519 146.277 112.145C146.945 112.466 147.678 112.749 148.433 113.015L149.712 113.361C150.113 113.441 150.437 113.474 150.805 113.537C152.527 113.721 154.144 113.65 155.832 113.24C156.604 113.062 157.37 112.79 158.084 112.452C158.067 113.136 158.062 113.858 158.092 114.63C158.205 116.851 158.551 118.894 159.138 120.341C159.709 121.782 160.442 122.554 160.876 122.4C161.359 122.233 161.502 121.299 161.598 119.923C161.656 118.54 161.727 116.618 161.607 114.47C161.543 112.949 161.398 111.519 161.181 110.289C162.161 109.298 162.944 108.109 163.394 106.796C163.965 105.157 164.028 103.427 163.723 101.876C163.666 101.514 163.545 101.143 163.441 100.789C164.069 100.138 164.72 99.3746 165.354 98.5042C166.217 97.2028 166.876 95.9315 167.293 94.8442C168.21 95.2231 169.127 95.5856 170.069 95.9233C173.309 97.0902 176.406 97.675 178.877 98.8914C181.579 100.138 184.272 101.426 186.952 102.189C187.628 102.381 188.262 102.639 188.929 102.768C189.604 102.906 190.263 103.048 190.917 103.186C191.238 103.257 191.559 103.339 191.881 103.386C192.227 103.427 192.556 103.46 192.894 103.499C193.231 103.532 193.547 103.565 193.885 103.595C194.214 103.595 194.552 103.589 194.882 103.589C197.528 103.556 200.005 102.711 201.968 101.544C202.457 101.247 202.948 100.959 203.374 100.621C203.8 100.297 204.258 100.009 204.645 99.6547C205.041 99.317 205.425 98.9875 205.804 98.6662C206.197 98.2956 206.576 97.9249 206.93 97.4828C207.276 97.0326 207.564 96.5191 207.789 95.9782C207.976 95.4401 208.08 94.9184 208.135 94.4187C208.185 93.9272 208.217 93.4686 208.217 93.0431C208.217 92.5928 208.176 92.126 208.135 91.6757C208.08 91.0414 207.935 90.4374 207.751 89.8498C208.489 89.232 208.627 86.4973 208.023 83.3041C207.693 81.437 207.18 79.7978 206.617 78.694C207.526 77.6891 208.226 76.459 208.572 75.1631C208.94 73.782 208.901 72.3735 208.684 71.1187C208.61 70.5393 208.401 69.927 208.201 69.3477C208.264 69.2928 208.322 69.2516 208.377 69.2049C209.036 68.7217 209.818 67.9089 210.62 66.8546C211.433 65.7948 212.053 64.6114 212.278 63.6476C212.383 63.2056 212.666 62.4725 212.687 61.8849C213.58 62.0771 214.513 62.2226 215.505 62.272C216.79 62.3187 218.157 62.2144 219.533 61.7641C220.175 61.5554 220.812 61.2671 221.424 60.9129C221.438 61.3055 221.446 61.7256 221.487 62.143C221.858 66.1956 223.346 68.9303 224.272 68.7793C225.26 68.6173 225.298 65.3445 224.994 61.83C224.873 60.4214 224.681 59.0953 224.406 58.008L224.656 57.6153L224.744 57.5028L224.752 57.4698L224.81 57.3819L224.826 57.3243L224.914 57.1156L225.098 56.6983C225.164 56.5445 225.172 56.4402 225.244 56.248L225.331 55.6851C225.927 54.0926 225.864 52.2338 226.594 50.7456C227.27 49.3865 228.766 48.5902 229.617 47.3519C230.23 46.4266 230.576 45.6935 230.913 44.9384C231.084 44.5678 231.226 44.2081 231.355 43.8676C231.468 43.4997 231.564 43.1455 231.638 42.816C231.918 41.5036 231.847 40.6359 231.397 40.452C230.946 40.2653 230.222 40.7568 229.433 41.6491C229.233 41.866 229.041 42.1241 228.838 42.3877C228.596 42.6705 228.365 42.9753 228.116 43.3048C227.641 43.9335 227.116 44.771 226.707 45.4052C226.119 46.2427 225.532 47.1268 225.06 47.9779C224.865 47.6484 224.656 47.319 224.439 47.0307C222.679 44.6886 220.175 43.4668 217.827 42.816C217.119 42.6293 216.413 42.4289 215.697 42.2449C217.039 41.2235 218.182 40.0978 219.252 38.994C221.054 37.105 222.55 35.2379 224.085 33.5163C226.899 30.1062 230.167 27.7586 233.102 25.3534C233.832 24.7658 234.565 24.1316 235.265 23.5357C235.891 22.8932 236.504 22.2425 237.108 21.6302C238.305 20.4002 239.302 19.2003 240.301 18.0993C241.281 17.0284 242.165 15.9521 243.041 15.0845C243.944 14.1811 244.65 13.3712 245.567 12.542C245.913 12.2042 246.226 11.8253 246.509 11.4464C246.685 11.3339 246.976 11.0291 247.313 10.4415C247.459 10.1367 247.61 9.75783 247.723 9.2993C248.047 8.46461 248.214 7.61893 248.165 6.80621C248.134 5.8507 247.756 5.03798 247.355 4.41745C246.935 3.81614 246.454 3.38781 246.017 3.0748C245.784 2.92928 245.584 2.79474 245.391 2.68217C245.183 2.58332 244.996 2.48723 244.829 2.41584C243.703 1.87768 241.764 1.9573 240.534 2.00398C237.067 2.0534 233.165 3.54981 229.167 5.85894C225.139 8.17356 220.754 10.9961 215.609 14.247C214.321 15.0515 213.017 15.9192 211.636 16.7401C210.252 17.5282 208.819 18.3409 207.339 19.1783C204.404 20.8669 201.219 22.6434 197.833 24.5187C197.004 24.9827 196.145 25.4577 195.266 25.941C194.431 26.4489 193.577 26.9871 192.718 27.5335C190.98 28.6043 189.22 29.7218 187.394 30.8558C183.742 33.1072 179.994 35.5839 176.052 38.1593C172.087 40.7073 167.977 43.4997 163.666 46.3854C162.581 47.1021 161.494 47.8434 160.385 48.582C159.814 48.9691 159.322 49.2657 158.784 49.5951C158.221 49.9164 157.666 50.2321 157.062 50.5616C155.053 51.6791 152.809 52.6923 150.734 54.5429C146.898 53.6258 142.9 52.7335 138.765 52.0086C136.409 51.6791 134.092 51.3579 131.791 51.0339C130.665 50.946 129.531 50.8582 128.381 50.7868C127.272 50.7209 126.187 50.6495 125.141 50.5616C123.04 50.3502 121.11 49.9493 119.334 49.2025C119.238 49.1696 119.051 49.1037 119.037 49.0982L118.683 48.9279L117.975 48.582C117.508 48.3651 117.033 48.1399 116.566 47.9148C115.633 47.4727 114.71 47.0307 113.793 46.6023C110.149 44.8835 106.778 43.0494 103.497 41.5997C102.692 41.2235 101.888 40.8446 101.1 40.4822C100.594 40.2323 100.103 39.9852 99.6114 39.7189C102.78 37.7557 105.46 35.6415 107.857 33.7031C109.32 32.5444 110.704 31.4516 112.03 30.4137C113.318 29.4308 114.669 28.5302 115.924 27.6378C117.187 26.729 118.376 25.8613 119.455 24.9031C119.721 24.6615 119.985 24.4363 120.251 24.1947C120.501 23.9311 120.742 23.673 120.976 23.4232C121.072 23.3188 121.335 23.0772 121.481 22.8685C121.659 22.6516 121.802 22.41 121.964 22.1931C122.269 21.7346 122.574 21.2925 122.881 20.8587L122.994 20.6885C123.002 20.6335 123.131 20.5759 123.027 20.5457L122.695 20.3123C122.478 20.1668 122.261 20.0212 122.052 19.8675C121.835 19.7329 121.626 19.571 121.418 19.4419C121.201 19.3211 120.989 19.2085 120.773 19.1042C119.847 18.5496 119.317 18.4782 118.7 18.3244C117.453 18.0993 116.324 18.2283 115.344 18.404C113.398 18.8324 111.959 19.5215 110.792 20.0789C110.487 20.2217 110.204 20.3672 109.946 20.5045C109.353 20.65 108.694 20.8257 107.978 21.0344C105.597 21.751 102.563 22.7313 98.5187 24.1645C96.5308 24.8784 94.3754 25.7872 91.9949 26.7455C90.8225 27.2205 89.5759 27.7504 88.2882 28.2501C87.0966 28.6757 85.8582 29.1342 84.5733 29.6175C83.615 28.305 82.6018 26.8333 81.5393 25.153C81.1302 24.461 80.6963 23.7526 80.2598 23.0141C79.8259 22.2425 79.3921 21.4545 78.9418 20.6253C78.066 18.9916 77.0281 17.1657 76.1193 15.3151C75.1857 13.4014 74.2357 11.2707 73.0386 9.05768C71.8167 6.8721 70.4494 4.49158 68.1073 2.44055C66.9431 1.42739 65.3973 0.548763 63.6456 0.285176C62.7587 0.114943 61.7867 0.156128 60.8038 0.427952C59.8318 0.686048 58.89 1.35325 58.2063 2.18245C56.9927 3.91224 56.7044 5.7601 56.7099 7.57226C56.7099 9.37343 57.0422 11.1087 57.4595 12.8083C57.8686 14.5134 58.415 16.1937 58.923 17.8659C59.398 19.5298 59.9444 21.2513 60.3699 23.0305C61.1744 26.0453 61.7126 29.2221 61.9789 32.5032C61.924 32.5279 61.8581 32.5444 61.8114 32.5773C61.578 32.6734 61.3529 32.786 61.1277 32.8986C60.9328 33.0441 60.7324 33.2033 60.5484 33.3571C60.1366 33.6619 59.9196 34.0737 59.6478 34.4334C59.4227 34.7958 59.2936 35.183 59.1399 35.5537C59.0273 35.9133 58.9477 36.2675 58.868 36.6135C58.8104 36.9595 58.7939 37.2889 58.761 37.6102L58.739 37.8518L58.7308 38.022L58.739 38.077V38.1758L58.7774 38.5849C58.7774 39.0434 58.923 39.815 59.1069 40.4355C59.2442 40.7238 59.3897 41.0066 59.5352 41.262C59.6945 41.5118 59.8949 41.7123 60.0816 41.9237C60.6363 42.4618 61.1827 42.7831 61.6494 43.0165C61.4243 43.162 61.1744 43.3212 60.9575 43.475C59.3568 44.5376 57.8768 45.526 56.5177 46.4348C56.1169 46.7149 55.705 46.9895 55.3124 47.2641C54.7879 47.5194 54.2333 47.8022 53.654 48.1152C52.4074 48.7659 51.0181 49.4908 49.4558 50.3035C47.9292 51.108 46.2406 52.0498 44.4202 53.0712C43.5196 53.5764 42.5888 54.1146 41.6223 54.6637C40.6805 55.2266 39.7333 55.8361 38.7503 56.4484C37.7701 57.0607 36.7652 57.7032 35.7438 58.3457C34.9228 58.8701 33.7312 59.4247 32.6219 60.0123C31.4797 60.6219 30.3155 61.2589 29.1239 62.1018C28.5363 62.5356 27.9268 62.9859 27.3063 63.7739C27.0152 64.1858 26.6473 64.7322 26.5814 65.6492C26.5649 66.1242 26.6143 66.5416 26.8971 67.066C26.9685 67.1923 27.0482 67.3214 27.1141 67.4175L27.1937 67.5163L27.3776 67.7332L27.5232 67.876C28.3606 68.6585 29.3573 69.0045 30.1947 69.1637C31.0459 69.3175 31.8174 69.3175 32.5588 69.2845C34.0222 69.1802 35.2852 68.9962 36.6032 68.7052C39.2089 68.1506 41.6058 67.2829 43.7859 66.3412C48.1461 64.4274 51.7237 62.272 54.7742 60.6383C55.3206 60.35 55.8423 60.0672 56.3585 59.7927C57.7643 59.4 59.4309 58.9333 61.3282 58.4116C62.896 57.9448 64.667 57.478 66.4599 56.8575C67.3687 56.5527 68.3105 56.2315 69.266 55.9103C70.2874 55.5643 71.2127 55.0975 72.2341 54.6637C73.2473 54.2271 74.2604 53.7686 75.2736 53.3046C75.4685 53.2057 75.6772 53.1096 75.8776 53.0218C77.429 53.9141 78.9501 54.7982 80.43 55.6522C81.2345 56.1272 82.0307 56.5857 82.8105 57.036C83.615 57.4451 84.3948 57.8569 85.1828 58.2661C88.2964 59.8833 91.281 61.4264 94.1036 62.8431C95.5176 63.5488 96.9097 64.2489 98.2523 64.9326C99.5812 65.6492 100.866 66.3412 102.113 67.0248C103.368 67.7003 104.614 68.3345 105.773 69.0182C106.94 69.7101 108.074 70.402 109.175 71.061C110.27 71.7364 111.363 72.3817 112.448 73.0077C112.988 73.3235 113.502 73.6365 114.065 73.9083L114.403 74.0868C114.403 74.1664 114.386 74.246 114.372 74.3366C114.348 74.441 114.315 74.5535 114.273 74.6661C114.235 74.6963 114.21 74.7293 114.169 74.7704C113.801 75.1548 113.455 75.5255 113.101 75.8962C112.714 76.2339 112.33 76.5551 111.951 76.8764C111.187 77.5134 110.487 78.1724 109.738 78.7352C108.991 79.2899 108.258 79.828 107.552 80.3442C106.152 81.3903 104.735 82.2415 103.464 83.0954C101.767 84.147 100.248 85.0888 98.8728 85.9427C88.6012 91.6043 75.1061 98.9463 60.5951 107.4C58.6099 108.597 56.6221 109.781 54.6836 110.948C53.7116 111.535 52.7451 112.115 51.7896 112.691C51.3146 112.982 50.8396 113.271 50.3564 113.553C49.8896 113.866 49.4311 114.171 48.9588 114.487C47.1329 115.701 45.3372 116.876 43.6102 118.073C41.8887 119.319 40.2 120.541 38.5664 121.733C32.1085 126.543 26.1064 130.179 20.8566 133.515C19.5854 134.393 18.3635 135.214 17.268 136.09C16.7298 136.516 16.1999 136.949 15.6672 137.353L15.4833 137.504L15.4339 137.537C15.4119 137.562 15.3707 137.595 15.3707 137.595L14.9836 137.867C14.7282 138.053 14.4701 138.229 14.2285 138.399C12.323 139.668 10.4394 140.689 9.0254 141.656C7.67452 142.515 6.71627 143.328 6.08202 143.987C5.14024 144.662 4.14355 145.467 3.17707 146.521C2.55929 147.205 1.93052 147.993 1.48023 149.047Z" fill="white"/>
</g>
<path d="M83.4226 46.7891L83.4394 46.8059C83.4394 46.8059 83.4394 46.8059 83.4226 46.7891Z" fill="white"/>
<path d="M115.265 118.233C110.287 117.766 106.231 118.587 106.256 119.526C106.281 120.533 110.158 121.28 114.919 121.739C119.614 122.23 123.71 122.206 123.853 121.231C123.982 120.292 120.292 118.771 115.265 118.233Z" fill="white"/>
<path d="M142.104 104.153C141.991 104.617 142.771 105.189 144.171 105.738C145.577 106.347 147.565 106.589 149.775 106.759C154.16 106.863 157.603 106.026 157.617 105.068C157.617 104.079 154.086 103.341 149.896 103.245C147.823 103.083 145.907 103.236 144.531 103.275C143.158 103.379 142.208 103.678 142.104 104.153Z" fill="white"/>
<path d="M167.051 86.2625C166.876 87.0971 167.293 87.9511 168.147 88.1927C168.927 88.4014 169.885 87.9346 170.077 87.0971C170.335 85.8369 170.494 84.5656 170.648 83.2944C170.752 82.4404 169.86 81.7266 169.089 81.7266C168.163 81.7266 167.622 82.4404 167.518 83.2944C167.397 84.291 167.271 85.2795 167.051 86.2625Z" fill="white"/>
<path d="M172.144 88.2263C172.015 89.0692 172.328 89.8902 173.237 90.1401C173.978 90.3487 175.038 89.8902 175.151 89.0445C175.288 88.089 175.417 87.1308 175.675 86.1835C176.205 84.2286 173.196 83.4076 172.666 85.3543C172.4 86.2961 172.282 87.2516 172.144 88.2263Z" fill="white"/>
<path d="M177.172 90.8558C177.073 91.6932 177.951 92.4181 178.731 92.4181C179.657 92.4181 180.203 91.6932 180.291 90.8558C180.412 89.8838 180.445 88.9338 180.766 88.0085C181.046 87.2068 180.453 86.2979 179.673 86.0865C178.803 85.8449 178.023 86.3693 177.743 87.1821C177.331 88.3627 177.314 89.6175 177.172 90.8558Z" fill="white"/>
<path d="M182.834 92.9125C182.375 94.8757 185.398 95.7131 185.84 93.7417C186.106 92.6242 186.139 91.4738 186.365 90.348C186.54 89.5106 186.139 88.6759 185.269 88.4343C184.489 88.2091 183.517 88.6896 183.355 89.5271C183.122 90.6446 183.092 91.795 182.834 92.9125Z" fill="white"/>
<path d="M188.166 91.6101C187.899 92.7688 187.732 93.9576 187.861 95.1575C187.949 96.0004 188.503 96.7171 189.42 96.7171C190.2 96.7171 191.076 96.0004 190.98 95.1575C190.892 94.2157 190.972 93.3399 191.197 92.4365C191.664 90.4761 188.649 89.6469 188.166 91.6101Z" fill="white"/>
<path d="M192.638 74.6001C192.572 75.0751 193.064 75.5831 193.997 75.951C194.936 76.297 196.265 76.4178 197.608 76.2667C198.951 76.1048 200.06 75.7917 200.818 75.4375C201.652 75.0834 202.207 74.6578 202.193 74.1663C202.185 73.683 201.661 73.241 200.768 72.9445C199.788 72.6699 198.517 72.615 197.221 72.766C195.944 72.9033 194.873 73.1614 194.069 73.4579C193.281 73.7407 192.701 74.1196 192.638 74.6001Z" fill="white"/>
</svg>
