<svg width="67" height="82" viewBox="0 0 67 82" fill="none" xmlns="http://www.w3.org/2000/svg">
<path d="M30.4987 22.3738H28.4199V24.4063H30.4987V22.3738Z" fill="white"/>
<path d="M34.6564 22.3738H32.5776V24.4063H34.6564V22.3738Z" fill="white"/>
<path d="M38.8136 22.3738H36.7349V24.4063H38.8136V22.3738Z" fill="white"/>
<path d="M5.55366 20.3412H9.71114V22.3738H7.6324C7.39613 22.3712 7.16602 22.4474 6.97998 22.5898C6.79394 22.7322 6.66308 22.9324 6.60897 23.1572C6.55486 23.3821 6.58073 23.6183 6.68231 23.8269C6.7839 24.0355 6.95513 24.204 7.1678 24.3047L15.4828 28.3698C15.6275 28.4384 15.7865 28.4731 15.9474 28.4714H18.0261V39.6504C18.0261 39.9199 18.1356 40.1784 18.3305 40.369C18.5254 40.5596 18.7898 40.6667 19.0655 40.6667H29.4592V45.3141C27.9812 45.3141 26.6716 45.3446 25.6332 45.3761L21.5797 42.0326C21.4563 41.9311 21.3104 41.859 21.1536 41.8222L16.1022 40.626C15.9024 40.5787 15.6927 40.5904 15.4996 40.6596C15.3066 40.7288 15.1389 40.8524 15.0177 41.0148C14.8965 41.1773 14.8274 41.3712 14.8189 41.5721C14.8105 41.7729 14.8632 41.9717 14.9704 42.1433L17.2674 45.8233C17.3385 45.9372 17.432 46.0364 17.5424 46.115C17.6528 46.1937 17.7779 46.2503 17.9107 46.2816L21.9508 47.2389L21.7065 48.2267L13.6296 46.3131L13.1411 48.2887L21.2222 50.2024L20.9779 51.1912L16.9358 50.2339C16.668 50.1704 16.3853 50.2136 16.15 50.3538L12.3865 52.5998C12.2112 52.7045 12.0716 52.8576 11.9852 53.0399C11.8989 53.2222 11.8697 53.4253 11.9014 53.6238C11.9331 53.8222 12.0243 54.0071 12.1633 54.1549C12.3024 54.3027 12.4831 54.407 12.6827 54.4545L17.734 55.6506C17.814 55.6697 17.896 55.6793 17.9783 55.6791C18.0566 55.6793 18.1347 55.6707 18.2111 55.6537L23.3726 54.488C24.862 55.2939 27.0104 56.4189 29.4592 57.5866V58.9596C29.4581 59.1493 29.5114 59.3355 29.613 59.4972C29.7145 59.6588 29.8604 59.7894 30.0339 59.8743L36.2702 62.9231C36.4291 63.0007 36.6056 63.0372 36.7831 63.0292C36.9605 63.0211 37.1329 62.9687 37.2837 62.877C37.4346 62.7852 37.5588 62.6572 37.6447 62.5052C37.7305 62.3531 37.7751 62.1821 37.7741 62.0084V61.106C39.3997 61.7002 41.058 62.205 42.7413 62.6182C44.3396 62.9967 46.0168 62.9033 47.5608 62.3498C49.1048 61.7964 50.4462 60.8076 51.4156 59.5087C52.3849 58.2098 52.9385 56.659 53.0065 55.0524C53.0744 53.4458 52.6536 51.8556 51.7973 50.4829C51.2313 49.5693 50.4854 48.7747 49.603 48.1452C48.7205 47.5156 47.719 47.0635 46.6566 46.8151C43.7346 46.1708 40.7641 45.7582 37.7741 45.5814V40.6667H48.1678C48.4435 40.6667 48.7079 40.5596 48.9028 40.369C49.0977 40.1784 49.2072 39.9199 49.2072 39.6504V28.4714H51.2859C51.4472 28.4716 51.6062 28.435 51.7505 28.3647L60.0655 24.2996C60.2752 24.1974 60.4435 24.0289 60.543 23.8214C60.6424 23.614 60.6673 23.3797 60.6135 23.1567C60.5597 22.9337 60.4304 22.735 60.2466 22.5929C60.0628 22.4508 59.8352 22.3736 59.6009 22.3738H57.5222V20.3412H61.6796C62.0929 20.3394 62.5017 20.2576 62.8824 20.1006C63.2632 19.9436 63.6085 19.7145 63.8983 19.4265C64.1881 19.1385 64.4168 18.7972 64.5712 18.4224C64.7256 18.0476 64.8026 17.6466 64.7978 17.2426C64.7892 16.7529 64.6475 16.2742 64.3873 15.8558C64.127 15.4373 63.7574 15.0941 63.3167 14.8615C62.8492 14.6071 62.3217 14.477 61.7867 14.4843C61.2518 14.4917 60.7282 14.6361 60.2682 14.9032L56.4828 17.1237L52.6974 14.9032C52.2374 14.6361 51.7138 14.4917 51.1789 14.4843C50.6439 14.477 50.1164 14.6071 49.6489 14.8615C49.2019 15.0997 48.8286 15.451 48.568 15.8787C48.3075 16.3064 48.1693 16.7946 48.1678 17.2924C48.1678 18.101 48.4963 18.8765 49.0811 19.4483C49.6659 20.02 50.459 20.3412 51.2859 20.3412H55.4434V22.3738H47.1285C46.1004 19.9675 44.368 17.9121 42.1489 16.4655C39.9298 15.019 37.323 14.246 34.656 14.2436H32.5773C29.9103 14.246 27.3035 15.019 25.0844 16.4655C22.8653 17.9121 21.1329 19.9675 20.1048 22.3738H11.7899V20.3412H15.9474C16.3606 20.3394 16.7694 20.2576 17.1502 20.1006C17.5309 19.9436 17.8762 19.7145 18.166 19.4265C18.4558 19.1385 18.6845 18.7972 18.8389 18.4224C18.9933 18.0476 19.0703 17.6466 19.0655 17.2426C19.0569 16.7529 18.9153 16.2742 18.655 15.8558C18.3947 15.4373 18.0252 15.0941 17.5844 14.8615C17.1169 14.6071 16.5894 14.477 16.0544 14.4843C15.5195 14.4917 14.9959 14.6361 14.5359 14.9032L10.7505 17.1237L6.96512 14.9032C6.50512 14.6361 5.98151 14.4917 5.44657 14.4843C4.91164 14.477 4.3841 14.6071 3.91665 14.8615C3.46964 15.0997 3.09632 15.451 2.83576 15.8787C2.5752 16.3064 2.43698 16.7946 2.43555 17.2924C2.43555 18.101 2.76406 18.8765 3.34882 19.4483C3.93358 20.02 4.72668 20.3412 5.55366 20.3412ZM20.1048 38.6341V28.4714H22.1836V38.6341H20.1048ZM36.7348 38.6341H24.2623V29.9094L25.4275 31.0487C25.909 31.5219 26.4818 31.8971 27.1127 32.1525C27.7435 32.4079 28.4199 32.5384 29.1027 32.5365H38.1306C38.8134 32.5384 39.4898 32.4079 40.1206 32.1525C40.7515 31.8971 41.3243 31.5219 41.8058 31.0487L42.971 29.9084V38.6341H36.7348ZM40.3362 29.6117C40.0471 29.8955 39.7033 30.1205 39.3247 30.2737C38.9462 30.4268 38.5403 30.5051 38.1306 30.504H29.1027C28.693 30.5051 28.2871 30.4268 27.9086 30.2737C27.53 30.1205 27.1862 29.8955 26.8971 29.6117L25.732 28.4714H41.5013L40.3362 29.6117ZM18.0562 43.1789L20.4291 43.7409L22.2054 45.2064L18.8223 44.4056L18.0562 43.1789ZM17.9835 53.6181L15.6106 53.0551L16.8641 52.3071L20.2483 53.1089L17.9835 53.6181ZM25.7559 53.4473C25.7903 53.3491 25.8089 53.2463 25.811 53.1425C25.8124 52.9136 25.7348 52.6909 25.5907 52.5105C25.4466 52.3301 25.2444 52.2026 25.0169 52.1485L22.9964 51.6709L23.2417 50.6821L26.2725 51.3996L26.761 49.4249L23.7302 48.7064L23.9755 47.7186L25.996 48.1973C26.1351 48.2321 26.2801 48.2379 26.4216 48.2143C26.5632 48.1907 26.698 48.1382 26.8174 48.0602C26.9369 47.9823 27.0382 47.8807 27.1147 47.7619C27.1913 47.6432 27.2415 47.51 27.2619 47.371C27.9365 47.3588 28.6692 47.3497 29.4592 47.3477V55.3264C28.0758 54.6506 26.8223 54.0093 25.7559 53.4473ZM50.0231 51.5408C50.6655 52.5704 50.9812 53.7631 50.9302 54.9681C50.8793 56.1731 50.4641 57.3363 49.737 58.3106C49.01 59.2848 48.0038 60.0264 46.8457 60.4415C45.6876 60.8566 44.4296 60.9266 43.2308 60.6426L46.167 48.7898C46.9638 48.9764 47.7148 49.3157 48.3767 49.7879C49.0386 50.2601 49.5982 50.8559 50.0231 51.5408ZM44.132 48.3721L41.228 60.0978C40.147 59.7767 38.9957 59.3885 37.7741 58.9332V47.618C39.9053 47.7615 42.0275 48.0132 44.132 48.3721ZM35.6954 60.3641L31.5379 58.3315V40.6667H35.6954V60.3641ZM47.1285 38.6341H45.0497V28.4714H47.1285V38.6341ZM61.3377 16.6461C61.4848 16.5628 61.6515 16.5182 61.8215 16.5168C61.9914 16.5154 62.1589 16.5571 62.3074 16.6379C62.4302 16.7003 62.5334 16.7942 62.6059 16.9095C62.6784 17.0247 62.7175 17.1571 62.719 17.2924C62.719 17.5619 62.6095 17.8204 62.4146 18.011C62.2197 18.2016 61.9553 18.3087 61.6796 18.3087H58.5023L61.3377 16.6461ZM51.2859 18.3087C51.1479 18.3087 51.0113 18.2819 50.8841 18.2297C50.7568 18.1776 50.6414 18.1011 50.5447 18.0049C50.4479 17.9087 50.3717 17.7947 50.3206 17.6694C50.2694 17.5441 50.2442 17.41 50.2466 17.2751C50.2509 17.1422 50.2918 17.0128 50.3649 16.9007C50.4381 16.7886 50.5408 16.6978 50.6623 16.6379C50.8123 16.5584 50.9802 16.5165 51.1508 16.516C51.3204 16.5153 51.4869 16.5603 51.632 16.6461L54.4633 18.3087H51.2859ZM55.1981 24.4063L51.0406 26.4389H48.1148C48.0613 25.7541 47.9528 25.0745 47.7905 24.4063H55.1981ZM32.5773 16.2761H34.656C37.5067 16.2798 40.2533 17.3237 42.3581 19.2034C44.463 21.0831 45.7746 23.6633 46.0361 26.4389H21.1951C21.4567 23.663 22.7685 21.0825 24.8738 19.2027C26.9792 17.323 29.7263 16.2793 32.5773 16.2761ZM19.1185 26.4389H16.1926L12.0352 24.4063H19.4428C19.2805 25.0745 19.172 25.7541 19.1185 26.4389ZM15.6054 16.6461C15.7525 16.5628 15.9192 16.5182 16.0892 16.5168C16.2592 16.5154 16.4266 16.5571 16.5751 16.6379C16.6979 16.7003 16.8011 16.7942 16.8736 16.9095C16.9461 17.0247 16.9852 17.1571 16.9867 17.2924C16.9867 17.5619 16.8772 17.8204 16.6823 18.011C16.4874 18.2016 16.223 18.3087 15.9474 18.3087H12.77L15.6054 16.6461ZM4.93004 16.6379C5.08006 16.5584 5.2479 16.5165 5.41854 16.516C5.58812 16.5153 5.75463 16.5603 5.89977 16.6461L8.73101 18.3087H5.55366C5.41567 18.3087 5.27905 18.2819 5.15178 18.2297C5.02452 18.1776 4.90914 18.1011 4.81239 18.0049C4.71564 17.9087 4.63946 17.7947 4.58827 17.6694C4.53709 17.5441 4.51194 17.41 4.51429 17.2751C4.5186 17.1422 4.5595 17.0128 4.63266 16.9007C4.70583 16.7886 4.80856 16.6978 4.93004 16.6379Z" fill="white"/>
<path d="M29.252 11.398L30.493 13.024C31.3891 12.3853 32.4694 12.0411 33.5783 12.0411C34.6873 12.0411 35.7676 12.3853 36.6637 13.024L37.9016 11.398C36.6446 10.5048 35.1306 10.0237 33.5768 10.0237C32.0229 10.0237 30.5089 10.5048 29.252 11.398Z" fill="white"/>
<path d="M40.7881 8.43661C38.7506 6.81493 36.2036 5.9295 33.5764 5.9295C30.9492 5.9295 28.4023 6.81493 26.3647 8.43661L27.6785 10.0128C29.3408 8.6792 31.4267 7.95397 33.5769 7.96201C35.7254 7.96428 37.8078 8.68832 39.4754 10.0128L40.7881 8.43661Z" fill="white"/>
<path d="M43.6422 5.4762C40.8307 3.14443 37.2637 1.8645 33.577 1.8645C29.8902 1.8645 26.3233 3.14443 23.5117 5.4762L24.8556 7.02805C27.2918 5.00714 30.3827 3.89781 33.5775 3.89781C36.7723 3.89781 39.8632 5.00714 42.2994 7.02805L43.6422 5.4762Z" fill="white"/>
</svg>
