<svg width="184" height="139" viewBox="0 0 184 139" fill="none" xmlns="http://www.w3.org/2000/svg">
<path d="M90.2602 97.9428C90.2602 101.018 90.2659 103.736 90.2564 106.454C90.2526 107.297 90.2621 108.148 90.1634 108.981C89.928 110.929 88.8745 112.045 86.9326 112.081C82.3692 112.164 77.8021 112.162 73.2388 112.096C71.3709 112.069 70.1181 110.864 69.989 108.992C69.8504 106.971 69.9302 104.934 69.9226 102.905C69.9169 101.38 69.9226 99.8581 69.9226 98.2503H53.3055C56.6274 105.194 57.2557 112.263 55.012 119.552C53.258 125.249 49.9152 129.822 45.1222 133.311C35.4488 140.351 22.7193 140.452 12.9548 133.546C7.4348 129.641 3.64594 124.459 1.90906 117.865C0.179772 111.304 0.741647 104.923 3.58329 98.6071C2.88475 98.5464 2.31338 98.461 1.74011 98.4534C0.773917 98.4382 0.103843 97.9542 0.0696745 97.0316C-0.0100511 94.8525 0.0146259 92.6695 0.0772674 90.4884C0.0981479 89.7595 0.627753 89.321 1.38325 89.2508C2.02865 89.19 2.67594 89.1464 3.52635 89.078C3.52635 87.2766 3.53584 85.4999 3.52635 83.7232C3.49408 77.9696 3.45421 72.2161 3.41625 66.4626C3.39727 63.6152 3.3574 60.7546 4.40333 58.042C5.88584 54.1962 8.69902 51.8196 12.7574 51.216C17.8845 50.451 23.0458 49.9081 28.1938 49.2855C34.7693 48.4902 41.3466 47.7119 47.924 46.9279C49.2566 46.7685 50.5891 46.6242 52.009 46.4628C52.0299 46.1041 52.064 45.7719 52.0659 45.4378C52.0716 39.9652 52.0697 34.4945 52.0811 29.0219C52.083 27.7406 52.1115 26.4593 52.1627 25.178C52.2121 23.9347 52.6316 23.5171 53.8635 23.3937C54.3571 23.3443 54.8487 23.2988 55.4694 23.2399C55.4694 20.9658 55.4941 18.7278 55.441 16.4898C55.4334 16.1842 55.0822 15.8539 54.8316 15.592C53.3833 14.0791 51.9141 12.5871 50.4638 11.0761C50.2057 10.8084 49.9874 10.499 49.771 10.1934C49.3875 9.64862 49.4748 9.12281 49.9209 8.66533C50.3632 8.20976 50.8776 8.22684 51.3617 8.57991C51.84 8.92919 52.3089 9.29934 52.7303 9.71316C54.1559 11.1159 55.5568 12.5453 56.9728 13.9576C57.7663 14.7492 58.1535 15.6926 58.1403 16.8163C58.1194 18.5988 58.1232 20.3812 58.1156 22.1617C58.1156 22.5319 58.1156 22.902 58.1156 23.3671C58.7325 23.3671 59.2868 23.3405 59.8373 23.3728C60.8642 23.4354 61.3236 23.8701 61.3767 24.8819C61.447 26.2239 61.4963 27.5679 61.4982 28.9099C61.5096 34.0997 61.4982 39.2913 61.4982 44.4811C61.4982 44.6652 61.5229 44.8512 61.5495 45.2328C62.9238 45.0828 64.2734 44.9481 65.6193 44.7886C68.8159 44.4128 72.0087 44.0122 75.2072 43.6592C76.0102 43.5699 76.4373 43.3213 76.6176 42.4329C78.1931 34.6938 79.8218 26.9642 81.4486 19.2347C82.0845 16.2108 82.7413 13.1907 83.4341 10.1782C83.567 9.60496 83.4455 9.26517 83.0298 8.87983C81.4068 7.38213 81.0044 5.51807 81.7428 3.49266C82.4945 1.43309 84.1156 0.373877 86.2777 0.307439C88.6505 0.233408 91.0271 0.307439 93.4017 0.307439C107.91 0.299846 122.42 0.286558 136.928 0.280864C138.991 0.280864 141.055 0.25239 143.114 0.326421C145.381 0.409943 147.068 1.88487 147.473 4.00329C147.953 6.51654 146.996 8.53626 144.848 9.53093C144.371 9.75112 143.883 9.94284 143.411 10.1441C143.739 13.4735 144.064 16.7651 144.39 20.0585C144.986 26.0607 145.582 32.0629 146.178 38.0632C146.302 39.3065 146.4 40.5556 146.575 41.7913C146.609 42.0381 146.913 42.3949 147.146 42.4424C157.085 44.502 165.61 49.1944 172.903 56.1988C173.647 56.9126 174.399 57.6244 175.077 58.3989C176.221 59.7049 176.607 61.2235 176.201 62.9376C175.872 64.3214 174.98 65.2211 173.678 65.9102C174.274 66.6676 174.849 67.3927 175.415 68.1216C176.622 69.6763 177.778 71.2746 179.046 72.778C179.921 73.8163 180.02 74.7806 179.448 76.0126C178.598 77.8462 177.909 79.754 177.159 81.6161C178.809 82.5216 180.409 83.4213 182.032 84.2831C183.184 84.8963 183.757 85.7599 183.757 87.1229C183.757 89.9342 183.866 92.7454 183.962 95.5548C183.997 96.5286 183.556 97.117 182.73 97.5574C180.94 98.5141 179.175 99.5145 177.402 100.502C177.19 100.619 176.994 100.767 176.806 100.891C177.776 102.835 178.712 104.733 179.671 106.621C180.325 107.91 180.451 109.129 179.775 110.519C178.712 112.705 177.846 114.987 176.905 117.231C176.601 117.952 176.157 118.39 175.291 118.381C173.42 118.358 171.546 118.409 169.673 118.421C167.782 118.432 166.366 120.017 166.493 121.906C166.637 124.057 166.694 126.215 166.825 128.368C166.869 129.089 166.578 129.588 165.994 129.917C163.382 131.38 160.755 132.821 158.139 134.279C157.511 134.63 156.907 134.615 156.265 134.317C154.229 133.369 152.182 132.441 150.14 131.507C149.1 131.031 147.93 131.38 147.302 132.329C146.009 134.282 144.741 136.255 143.376 138.157C143.084 138.563 142.422 138.929 141.93 138.929C139.179 138.929 136.431 138.8 133.68 138.745C132.847 138.728 132.308 138.385 131.881 137.661C130.717 135.7 129.497 133.774 128.289 131.839C127.688 130.877 126.676 130.613 125.647 131.101C123.502 132.115 121.344 133.098 119.208 134.131C118.439 134.503 117.807 134.516 117.033 134.041C114.983 132.789 112.885 131.61 110.769 130.471C109.632 129.86 109.197 128.984 109.239 127.732C109.311 125.575 109.318 123.417 109.343 121.261C109.354 120.184 108.7 119.524 107.625 119.345C105.008 118.912 102.394 118.453 99.7893 117.952C99.4153 117.88 98.956 117.597 98.7737 117.276C97.3595 114.776 96.0289 112.229 94.6204 109.727C94.013 108.647 94.0984 107.734 94.9279 106.836C96.1162 105.551 97.2874 104.252 98.4586 102.952C99.4248 101.88 99.4457 101.625 98.303 100.82C97.0805 99.9587 95.8561 98.9963 94.4799 98.4895C93.2214 98.0263 91.7598 98.1117 90.2526 97.939L90.2602 97.9428ZM95.5031 77.5084C94.9962 77.5084 94.5938 77.5084 94.1914 77.5084C89.9716 77.4875 85.75 77.5425 81.534 77.4191C78.6829 77.3356 76.5227 74.456 77.0485 71.6447C77.4775 69.3441 77.9805 67.0548 78.4361 64.758C81.739 48.0972 85.0381 31.4365 88.3373 14.7738C88.6258 13.316 88.8934 11.8544 89.182 10.332C88.2822 10.332 87.5058 10.3472 86.7314 10.3263C86.2435 10.313 86.0328 10.4933 85.9265 11.0002C84.1953 19.2499 82.4414 27.4939 80.6893 35.7398C80.08 38.6099 79.4574 41.4762 78.8461 44.3444C78.6316 45.3486 78.0773 45.8839 77.0048 45.9997C73.5254 46.3717 70.0535 46.8007 66.5798 47.2202C60.0973 48.0023 53.6149 48.792 47.1343 49.5816C40.7772 50.3561 34.42 51.1363 28.0609 51.9089C23.3476 52.4802 18.6305 53.0269 13.9191 53.6173C10.7434 54.0159 8.26812 55.5516 7.06275 58.5735C6.46291 60.0769 6.08326 61.772 6.06428 63.3836C5.96557 71.8251 6.01303 80.2665 6.01303 88.7098C6.01303 88.856 6.05479 89.0021 6.07567 89.1293C9.57979 89.6133 10.5745 89.3305 13.3611 87.5386C19.3348 83.6985 25.8723 82.2122 32.8805 83.4099C40.4791 84.7102 46.618 88.5295 51.1946 94.767C51.711 95.4713 52.252 95.7465 53.1308 95.7427C58.4155 95.718 63.6983 95.756 68.9829 95.7712C69.2525 95.7712 69.522 95.7427 69.8125 95.7275C69.8447 95.3707 69.8865 95.0916 69.8903 94.8126C69.9074 93.2504 69.9207 91.6881 69.9264 90.124C69.932 88.4364 69.8068 86.7394 69.9586 85.0671C70.1712 82.7076 71.407 81.6085 73.7817 81.5744C77.6256 81.5212 81.4733 81.6047 85.3172 81.5421C89.2332 81.4775 90.3285 83.0664 90.2621 86.6635C90.2127 89.321 90.2374 91.9785 90.2336 94.6361C90.2336 94.9663 90.264 95.2947 90.2792 95.5947H92.2894C92.2894 95.1315 92.2894 94.7329 92.2894 94.3342C92.3027 91.7413 92.371 89.1464 92.3103 86.5553C92.278 85.1772 92.7867 84.2698 93.9788 83.6131C94.8558 83.129 95.6549 82.5026 96.5224 81.916C94.7305 80.3614 94.6641 80.0691 95.5088 77.5065L95.5031 77.5084ZM137.693 56.7038C117.276 56.7702 101.56 73.4556 100.792 92.157C99.8975 113.926 118.527 129.404 136.357 130.228C158.982 131.274 174.219 111.864 174.693 94.5753C175.287 72.9944 158.014 56.7266 137.693 56.7038ZM28.3039 136.074C40.8474 136.266 52.4437 127.206 53.6699 113.182C54.9379 98.6964 44.418 86.523 30.1794 85.6404C16.4533 84.79 4.8646 94.1273 3.53963 108.377C2.28111 121.917 12.8504 135.742 28.3039 136.074ZM91.9078 10.4098C89.7609 21.2088 87.6387 31.875 85.4994 42.636H120.848V10.4098H91.9078ZM101.771 66.8384C101.477 66.7131 101.34 66.641 101.194 66.5954C96.959 65.2667 95.9207 61.3677 99.085 58.285C104.144 53.3572 109.601 48.9571 116.173 46.1401C116.636 45.9408 117.08 45.696 117.534 45.4739C117.511 45.4017 117.488 45.3296 117.466 45.2575H85.0059C84.947 45.5194 84.8749 45.8193 84.8142 46.1231C83.5784 52.2733 82.3427 58.4236 81.1088 64.5738C80.6172 67.0206 80.0933 69.4637 79.6491 71.92C79.3549 73.5506 80.1502 74.5642 81.8017 74.7958C82.4186 74.8831 83.0469 74.9514 83.6676 74.9457C87.7298 74.9116 91.792 74.8679 95.8523 74.7806C96.1447 74.7749 96.5642 74.4617 96.6971 74.1846C97.2874 72.9469 97.8018 71.6732 98.3333 70.4071C98.9996 68.8183 99.8291 67.3813 101.773 66.8403L101.771 66.8384ZM87.6786 96.8057C87.6786 96.8057 87.6729 96.8057 87.6691 96.8057C87.6691 93.4307 87.6748 90.0556 87.6672 86.6787C87.6615 84.0952 87.652 84.0857 85.1008 84.0933C81.4448 84.1047 77.7888 84.1313 74.1328 84.154C72.6446 84.1635 72.4567 84.3306 72.4548 85.8283C72.4434 92.3297 72.4472 98.8292 72.4472 105.331C72.4472 106.268 72.4073 107.208 72.4605 108.142C72.525 109.249 72.7927 109.53 73.9069 109.541C78.0299 109.583 82.1528 109.596 86.2758 109.588C87.3369 109.586 87.6596 109.264 87.6691 108.148C87.6995 104.366 87.6805 100.585 87.6805 96.8038L87.6786 96.8057ZM138.673 48.1693C139.743 48.2586 141.343 48.306 142.917 48.5357C152.723 49.9746 161.176 54.1051 168.061 61.3089C168.665 61.941 169.264 62.5807 169.906 63.1748C170.967 64.1581 172.396 64.1828 173.344 63.2773C174.196 62.463 174.217 61.1608 173.19 60.0959C171.609 58.4577 170.018 56.8006 168.251 55.3731C157.078 46.3395 144.35 42.6227 130.093 44.6747C120.645 46.0338 112.337 50.0258 105.131 56.29C103.574 57.6434 102.031 59.0139 100.549 60.4471C99.459 61.5006 99.4818 62.7231 100.461 63.7671C101.386 64.7523 102.437 64.8016 103.609 63.8943C103.929 63.6456 104.22 63.359 104.518 63.0856C106.634 61.1475 108.627 59.0519 110.884 57.2941C118.882 51.0679 128.005 48.063 138.667 48.1674L138.673 48.1693ZM123.536 43.3668C123.982 43.289 124.284 43.2434 124.584 43.1846C126.943 42.7271 129.295 42.2241 131.666 41.8388C132.408 41.7192 132.642 41.5104 132.638 40.7511C132.602 30.9638 132.6 21.1766 132.585 11.3874C132.585 11.059 132.549 10.7306 132.528 10.3529H123.536V43.3668ZM114.757 2.85106V2.91371C105.567 2.91371 96.3763 2.90991 87.1869 2.9232C86.6042 2.9232 85.9949 2.99343 85.4425 3.17186C84.5598 3.4566 84.089 4.16653 83.9903 5.07009C83.8973 5.91101 84.1858 6.65891 84.9679 7.03855C85.5659 7.32898 86.2454 7.59853 86.8946 7.61182C89.8312 7.67256 92.7696 7.63839 95.7081 7.6365C111.055 7.627 126.404 7.61941 141.752 7.59663C142.367 7.59663 143.004 7.51121 143.591 7.33278C144.631 7.01577 145.229 6.04578 145.121 5.03213C144.996 3.84953 144.244 3.06177 143.073 2.96116C142.234 2.88903 141.387 2.85676 140.544 2.85676C131.949 2.84917 123.354 2.85296 114.757 2.85296V2.85106ZM140.901 10.294C139.288 10.294 137.822 10.3491 136.362 10.275C135.411 10.2276 135.148 10.5503 135.149 11.488C135.18 21.1443 135.167 30.8006 135.168 40.4587C135.168 40.7663 135.199 41.0719 135.218 41.4174C138.107 41.5483 140.926 41.6755 143.961 41.8122C142.945 31.3435 141.934 20.9127 140.903 10.294H140.901ZM54.7159 25.9392V46.0452C55.7295 45.937 56.6824 45.7567 57.6372 45.7529C58.6167 45.751 58.9128 45.341 58.9052 44.4128C58.8806 40.3866 58.909 36.3605 58.9052 32.3324C58.9052 30.4589 58.8901 28.5872 58.8388 26.7156C58.8312 26.4536 58.5806 25.981 58.4231 25.9734C57.2177 25.9107 56.0085 25.9392 54.714 25.9392H54.7159ZM176.947 97.7757C178.48 96.9633 179.864 96.2514 181.218 95.4884C181.39 95.3916 181.497 95.0252 181.493 94.786C181.449 92.3487 181.385 89.9114 181.303 87.474C181.295 87.2235 181.202 86.859 181.026 86.7508C179.484 85.8055 177.915 84.9057 176.128 83.8617C177.233 88.5845 177.459 93.0567 176.947 97.7776V97.7757ZM100.15 81.4681C101.562 77.1515 103.679 73.2943 106.287 69.7959C105.613 68.767 104.823 68.524 103.804 68.9625C103.466 69.1087 103.083 69.1713 102.713 69.2093C101.919 69.2928 101.443 69.699 101.143 70.4413C100.23 72.6907 99.2388 74.9097 98.3371 77.1629C97.3577 79.6097 97.4393 79.7786 99.6906 81.2289C99.7912 81.2934 99.9051 81.3409 100.15 81.4681ZM98.415 97.751C98.415 97.3961 98.415 97.2195 98.415 97.0449C98.4415 94.581 98.3865 92.1133 98.5213 89.657C98.6067 88.1081 98.973 86.5762 99.2255 85.0367C99.3147 84.4957 99.2426 83.7478 98.6371 84.0041C97.369 84.5394 96.2244 85.3727 95.0437 86.1054C94.9564 86.1605 94.9583 86.3978 94.9583 86.5515C94.9374 89.3856 94.9127 92.2215 94.9222 95.0556C94.9222 95.3232 95.0798 95.701 95.2886 95.8395C96.2662 96.4887 97.2874 97.0715 98.415 97.751ZM111.904 122.897C111.904 124.649 111.877 126.202 111.93 127.751C111.94 128.005 112.247 128.328 112.5 128.483C114.146 129.493 115.808 130.475 117.481 131.441C117.724 131.581 118.1 131.726 118.32 131.638C119.833 131.027 121.319 130.355 122.834 129.693C120.913 128.643 119.047 127.724 117.289 126.631C115.499 125.516 113.813 124.231 111.902 122.895L111.904 122.897ZM106.139 116.673C103.371 113.045 101.253 109.271 100.03 104.814C98.9863 106.077 98.0771 107.138 97.2229 108.243C97.0862 108.419 97.0938 108.84 97.2058 109.059C98.2308 111.054 99.2787 113.037 100.363 115C100.52 115.285 100.875 115.568 101.188 115.642C102.76 116.01 104.351 116.308 106.139 116.674V116.673ZM152.875 129.867C154.274 130.511 155.51 131.103 156.77 131.64C157.009 131.743 157.389 131.718 157.623 131.596C159.695 130.513 161.755 129.4 163.807 128.275C163.991 128.174 164.211 127.916 164.208 127.735C164.173 126.128 164.094 124.522 164.018 122.658C160.563 125.683 157.093 128.195 152.877 129.865L152.875 129.867ZM175.187 79.7767C175.842 78.1348 176.48 76.5877 177.06 75.0198C177.146 74.7901 177.041 74.3934 176.88 74.1827C175.189 71.9826 173.473 69.8034 171.755 67.6243C171.607 67.4364 171.404 67.294 171.267 67.1687C170.567 67.9223 169.897 68.6417 169.38 69.1941C171.271 72.6394 173.182 76.1226 175.189 79.7767H175.187ZM116.925 56.3849C117.728 57.2865 118.445 58.0914 118.965 58.676C122.498 57.3454 125.867 56.0755 129.367 54.7581C129.212 54.0956 129.009 53.2566 128.813 52.4138C128.69 51.8804 128.36 51.8253 127.894 51.9696C127.27 52.1651 126.63 52.317 126.002 52.503C122.885 53.4274 119.836 54.5189 116.923 56.3849H116.925ZM116.763 60.0181C116.31 59.5416 115.805 58.9892 115.279 58.4596C114.827 58.0041 114.385 57.9186 113.819 58.3837C112.521 59.4543 111.11 60.3958 109.856 61.512C108.356 62.8464 106.972 64.31 105.459 65.7944C106.414 66.5328 107.187 67.1326 107.811 67.6167C110.9 64.9952 113.84 62.4991 116.763 60.0181ZM131.894 54.293H142.243C142.439 53.2186 142.619 52.2278 142.809 51.1856C138.87 50.5269 135.039 50.5915 131.133 51.2008C131.41 52.3322 131.668 53.3838 131.892 54.2949L131.894 54.293ZM175.927 104.541C175.836 104.543 175.747 104.545 175.656 104.547C174.429 108.567 172.598 112.288 169.917 115.794C171.576 115.794 172.979 115.818 174.378 115.769C174.606 115.761 174.927 115.477 175.026 115.243C175.88 113.235 176.698 111.211 177.516 109.19C177.594 108.998 177.685 108.738 177.617 108.569C177.074 107.217 176.495 105.881 175.927 104.541ZM131.545 132.323C132.41 133.681 133.101 134.82 133.862 135.909C134.018 136.133 134.438 136.266 134.743 136.276C136.829 136.352 138.919 136.399 141.007 136.412C141.296 136.412 141.702 136.243 141.854 136.017C142.632 134.865 143.346 133.667 144.174 132.342C139.954 133.233 135.897 132.872 131.545 132.323ZM144.768 54.648C145.356 54.7809 145.88 54.853 146.374 55.0201C149.111 55.9426 151.837 56.8974 154.578 57.8104C154.859 57.9035 155.377 57.9092 155.5 57.744C155.935 57.1594 156.244 56.4836 156.62 55.8097C153.126 53.5546 149.367 52.3758 145.349 51.5938C145.144 52.6719 144.96 53.6362 144.768 54.6499V54.648ZM157.6 59.4752C161.243 61.605 164.435 64.1828 167.26 67.275C167.862 66.7511 168.368 66.3107 168.942 65.8096C165.755 62.7496 162.873 59.4562 159.012 57.1669C158.517 57.9775 158.095 58.6646 157.6 59.4733V59.4752ZM8.16562 91.6938H2.5051C2.5051 92.7815 2.47663 93.7724 2.52029 94.7613C2.53737 95.1505 2.67404 95.8452 2.824 95.8642C3.4713 95.9477 4.40712 96.0958 4.76399 95.7427C5.98076 94.5317 6.99821 93.1194 8.16751 91.6938H8.16562Z" fill="white"/>
<path d="M45.3292 59.7942C39.6383 59.7942 33.9493 59.7942 28.2584 59.7942C27.6965 59.7942 27.1309 59.7961 26.5709 59.7562C25.6692 59.6917 25.1415 59.1981 25.1491 58.4578C25.1567 57.5979 25.6901 57.2031 26.4608 57.1746C28.1768 57.1101 29.8928 57.0759 31.6107 57.0797C40.4583 57.1006 49.306 57.1442 58.1555 57.1651C59.8753 57.1689 61.5932 57.0987 63.313 57.0816C63.7477 57.0778 64.2925 56.9962 64.5905 57.2164C65.0138 57.5296 65.4542 58.0687 65.5073 58.5527C65.5453 58.8925 65.0176 59.443 64.6152 59.6404C64.171 59.8568 63.5825 59.8208 63.0586 59.8208C57.1494 59.8302 51.2403 59.8264 45.3311 59.8264C45.3311 59.8151 45.3311 59.8056 45.3311 59.7942H45.3292Z" fill="white"/>
<path d="M45.519 72.1761C39.7066 72.1761 33.8943 72.1837 28.0819 72.1667C27.4023 72.1667 26.662 72.1799 26.0622 71.9237C25.6617 71.7528 25.2004 71.0866 25.2421 70.6917C25.2858 70.2798 25.8515 69.8584 26.2805 69.5775C26.5253 69.4161 26.9487 69.5205 27.2922 69.5205C37.9793 69.53 48.6682 69.5414 59.3552 69.549C60.9155 69.549 62.4797 69.4807 64.0381 69.53C65.0859 69.5623 65.6212 70.1242 65.5643 70.9157C65.5055 71.7187 64.9379 72.1724 63.8958 72.1742C57.7702 72.1818 51.6465 72.178 45.5209 72.178L45.519 72.1761Z" fill="white"/>
<path d="M138.021 71.3485C149.418 71.2934 159.612 80.1657 160.253 92.0069C160.897 103.888 151.814 115.619 138.063 115.795C126.389 115.945 115.992 105.984 115.573 94.41C115.112 81.69 125.389 71.2726 138.019 71.3466L138.021 71.3485ZM157.71 93.59C157.622 80.1164 146.73 73.6263 137.701 73.8978C125.77 74.2566 117.993 83.6338 118.098 93.3793C118.219 104.556 127.3 113.461 138.327 113.297C148.813 113.142 157.856 103.947 157.71 93.59Z" fill="white"/>
<path d="M11.4705 110.555C11.3889 101.447 19.1906 93.8407 28.7045 93.7534C37.7287 93.6698 45.7145 101.369 45.7904 110.226C45.8759 120.241 38.3798 127.978 28.3894 127.859C19.1716 127.749 11.5084 120.086 11.4705 110.555ZM14.0103 110.541C13.9401 118.432 20.5155 125.516 29.0671 125.306C36.9276 125.112 43.2316 118.873 43.2791 111.052C43.3322 101.921 35.9443 96.2685 28.9418 96.333C19.2627 96.4204 13.9648 103.666 14.0103 110.541Z" fill="white"/>
<path d="M137.733 102.808C132.777 102.937 127.984 98.5749 128.371 92.5955C128.692 87.6278 133.2 83.7118 138.132 83.9035C143.553 84.1123 147.794 88.5333 147.458 93.8995C147.135 99.0551 142.704 103.112 137.731 102.808H137.733ZM137.862 100.35C141.953 100.331 145.005 97.3315 144.967 93.368C144.931 89.4957 141.816 86.4053 137.976 86.4357C134.062 86.4661 130.896 89.5089 130.928 93.2105C130.964 97.322 133.921 100.369 137.86 100.35H137.862Z" fill="white"/>
<path d="M28.6437 118.573C23.8431 118.21 20.6161 114.74 20.9597 110.312C21.3052 105.868 24.9175 102.783 29.3822 103.119C33.6437 103.44 36.7795 107.212 36.4644 111.585C36.1076 116.547 31.6164 118.821 28.6437 118.571V118.573ZM28.7918 116.078C31.698 116.078 33.9967 113.871 33.9948 111.079C33.9948 107.965 31.5689 105.663 28.3002 105.667C25.711 105.67 23.4084 108.119 23.4255 110.853C23.4426 113.73 25.8533 116.078 28.7918 116.078Z" fill="white"/>
</svg>
