<svg width="274" height="146" viewBox="0 0 274 146" fill="none" xmlns="http://www.w3.org/2000/svg">
<path d="M244.544 120.478C242.15 128.566 238.245 135.927 232.268 142.021C231.087 143.224 229.764 144.321 228.368 145.262C226.791 146.328 225.977 145.89 225.682 144.067C223.731 131.942 223.316 119.786 225.099 107.606C225.382 105.662 225.927 103.756 226.34 101.829C226.607 100.587 226.981 99.3309 225.883 97.7832C224.95 101.886 223.979 105.64 223.258 109.44C221.491 118.751 220.489 128.136 220.963 137.634C221.067 139.741 221.276 141.845 221.428 143.949C221.48 144.665 221.695 145.436 220.61 145.667C219.545 145.896 218.998 145.37 218.813 144.464C218.032 140.647 217.044 136.849 216.615 132.991C215.794 125.655 215.321 118.28 214.674 110.922C214.171 105.191 213.059 99.576 211.441 94.06C210.855 92.0662 210.23 90.0807 209.625 88.0924C209.468 88.1172 209.311 88.1392 209.154 88.164C208.59 90.5874 207.932 92.9943 207.486 95.4397C207.035 97.9181 206.699 100.427 206.49 102.938C206.281 105.45 206.187 107.983 206.237 110.5C206.286 113.064 206.454 115.642 206.79 118.184C207.117 120.679 207.594 123.171 208.24 125.6C208.884 128.029 209.682 130.438 210.659 132.752C211.636 135.065 213.007 137.213 214.044 139.504C215.043 141.713 217.3 143.164 218.021 145.516C217.842 145.664 217.66 145.81 217.481 145.959C216.862 145.414 216.081 144.973 215.654 144.307C213.901 141.575 212.236 138.785 210.577 135.993C210.051 135.112 209.641 134.162 209.14 133.165C208.193 136.896 207.332 140.44 206.363 143.954C206.204 144.538 205.576 144.992 205.166 145.507C205.092 144.852 204.828 144.153 204.971 143.547C205.796 140.025 206.914 136.557 207.527 133.002C207.852 131.13 207.684 129.028 207.181 127.183C204.957 119.068 204.297 110.878 205.142 102.506C205.342 100.512 205.064 98.3615 204.525 96.42C202.409 88.8222 199.018 81.7585 195.044 74.9675C194.312 73.7173 193.514 72.5028 192.675 71.1617C191.516 72.2908 190.595 72.9655 190.914 74.7941C192.097 81.5658 192.95 88.3981 193.996 95.1946C194.26 96.9075 194.579 98.6617 195.226 100.253C199.461 110.682 201.297 121.563 201.495 132.757C201.556 136.147 201.479 139.543 201.371 142.933C201.341 143.861 200.972 144.778 200.758 145.697C200.499 145.678 200.24 145.659 199.984 145.642C199.924 144.717 199.8 143.789 199.811 142.864C199.858 138.006 200.259 133.129 199.946 128.299C199.112 115.339 196.192 102.903 189.51 91.587C188.302 89.5409 186.816 87.6573 185.448 85.7076C184.925 84.9613 184.367 84.2425 183.825 83.51C183.67 83.6367 183.519 83.7661 183.365 83.8928C182.237 86.4401 181.053 88.9626 180.019 91.5457C179.741 92.2397 179.702 93.176 179.914 93.8948C181.18 98.1963 183.038 102.324 183.445 106.868C183.726 110.019 183.99 113.185 184.532 116.297C186.136 125.487 188.566 134.459 191.932 143.169C192.191 143.841 192.386 144.538 192.645 145.331C191.244 145.689 190.903 144.767 190.622 143.946C189.585 140.911 188.566 137.865 187.62 134.803C186.882 132.416 186.26 129.989 185.454 127.607C184.887 133.737 184.336 139.821 182.358 145.631C182.102 145.62 181.843 145.607 181.587 145.596C181.554 144.965 181.408 144.315 181.51 143.709C182.149 139.964 182.927 136.238 183.503 132.484C184.419 126.487 184.18 120.524 182.9 114.573C182.383 112.164 182.328 109.658 182.077 107.193C181.662 103.131 180.365 99.3281 178.637 95.4231C178.414 96.0345 178.186 96.5027 178.073 96.9984C176.876 102.222 175.497 107.413 174.572 112.687C173.689 117.738 172.319 122.595 170.444 127.349C170.166 128.054 170.051 129.004 170.288 129.695C171.845 134.241 173.538 138.741 175.131 143.277C175.373 143.965 176.361 144.943 175.332 145.43C174.173 145.981 174 144.544 173.747 143.872C172.255 139.881 170.879 135.85 169.462 131.829C169.346 131.501 169.236 131.171 169.063 130.672C167.662 133.019 166.451 135.277 165.02 137.384C163.531 139.578 161.9 141.688 160.202 143.723C159.216 144.902 158.08 146.19 156.241 144.984C156.148 144.924 155.977 144.943 155.853 144.973C154.293 145.328 154.241 145.315 154.351 143.723C154.998 134.393 154.643 125.099 153.214 115.859C152.656 112.249 151.882 108.669 151.205 105.078C151.062 105.084 150.919 105.089 150.776 105.097C150.707 106.003 150.6 106.907 150.578 107.813C150.556 108.774 150.567 109.743 150.641 110.702C151.172 117.374 151.833 124.041 152.232 130.722C152.493 135.084 152.08 139.441 150.872 143.671C150.625 144.535 150.611 145.254 148.973 145.389C147.154 145.54 146.367 144.717 145.382 143.872C141.799 140.793 139.476 136.78 137.341 132.65C137.088 132.162 136.84 131.672 136.576 131.19C136.543 131.127 136.424 131.11 136.267 131.033C135.092 136.194 133.631 141.228 130.907 145.755C130.662 145.697 130.414 145.64 130.169 145.582C130.243 144.948 130.136 144.221 130.417 143.701C132.855 139.157 134.055 134.214 135.169 129.243C135.271 128.786 135.288 128.208 135.098 127.797C132.148 121.403 131.22 114.551 130.375 107.661C130.034 104.872 129.366 102.123 128.636 99.3667C126.014 106.824 124.299 114.436 123.096 122.174C121.883 129.978 122.194 137.775 123.479 145.574C123.253 145.634 123.028 145.695 122.802 145.753C122.53 145.218 122.095 144.712 122.012 144.15C121.55 141.071 121.176 137.981 120.766 134.861C120.68 135.051 120.548 135.288 120.471 135.541C119.64 138.259 118.817 140.977 117.986 143.695C117.92 143.913 117.854 144.164 117.705 144.318C117.304 144.734 116.855 145.105 116.426 145.494C116.39 144.907 116.192 144.276 116.34 143.739C117.934 137.956 119.786 132.237 121.156 126.401C122.307 121.502 122.736 116.435 123.806 111.514C124.827 106.819 126.27 102.214 127.497 97.5629C127.643 97.0094 127.816 96.3319 127.629 95.8445C125.992 91.5733 124.277 87.3323 122.579 83.0831C122.53 82.962 122.428 82.8601 122.249 82.6095C121.751 84.3059 121.335 85.8342 120.848 87.3406C120.24 89.216 119.676 91.1161 118.911 92.9254C116.445 98.747 116.051 104.913 115.573 111.101C115 118.506 114.216 125.894 113.476 133.283C113.137 136.659 112.716 140.027 112.259 143.39C111.984 145.408 111.296 145.871 109.425 145.372C109.108 145.287 108.759 144.731 108.712 144.356C108.604 143.5 108.662 142.619 108.671 141.748C108.794 129.463 108.032 117.261 105.349 105.235C105.261 104.844 105.142 104.459 105.041 104.073C104.906 104.079 104.768 104.084 104.633 104.09C104.633 106.386 104.532 108.688 104.653 110.98C104.98 117.209 105.624 123.433 105.707 129.665C105.77 134.319 105.192 138.986 104.801 143.64C104.749 144.257 104.254 145.094 103.728 145.359C102.608 145.918 101.906 145.43 101.62 144.018C100.904 140.468 100.172 136.915 99.5862 133.341C97.3654 119.789 94.7785 106.331 89.4286 93.5836C84.3154 81.4005 76.5301 71.3545 65.5386 63.8998C65.3487 63.7704 65.1644 63.6355 64.9662 63.517C64.9002 63.4785 64.8038 63.4867 64.6552 63.462C64.68 63.6024 64.6635 63.7456 64.724 63.8282C69.2923 69.9115 72.2425 76.8126 74.9256 83.8625C76.6869 88.4862 78.8803 92.9667 80.3526 97.6758C81.8662 102.517 82.656 107.579 83.9109 112.505C86.4702 122.551 90.967 131.658 97.4259 139.779C98.3946 140.999 99.3853 142.206 100.31 143.459C100.637 143.905 100.803 144.469 101.045 144.981C100.915 145.114 100.783 145.243 100.654 145.375C100.062 144.915 99.3716 144.541 98.8982 143.982C94.8583 139.198 91.3798 134.035 88.5838 128.423C87.5683 126.382 86.5501 124.341 85.5401 122.314C84.4338 126.035 83.5229 129.758 82.2074 133.333C80.914 136.847 79.249 140.228 77.6611 143.629C77.3474 144.301 76.6511 144.794 76.1283 145.37C75.9576 145.276 75.787 145.182 75.6136 145.086C75.7705 144.527 75.809 143.899 76.098 143.42C79.8957 137.136 81.9212 130.199 83.7293 123.163C84.3072 120.916 84.3182 118.814 83.7155 116.556C82.2872 111.203 81.1286 105.778 79.7444 100.41C79.1692 98.1797 78.2886 96.029 77.4685 93.6139C74.1248 99.3942 71.7499 105.169 71.0343 111.5C70.0987 119.8 69.3254 128.122 69.8235 136.491C69.9583 138.777 70.2803 141.052 70.5197 143.332C70.539 143.514 70.6436 143.715 70.5968 143.872C70.4729 144.271 70.2803 144.648 70.1179 145.034C69.8207 144.758 69.3226 144.522 69.2593 144.202C68.9456 142.586 68.5961 140.953 68.541 139.317C68.4337 136.067 68.508 132.809 68.508 129.557C68.3429 129.535 68.175 129.513 68.0099 129.491C67.8641 129.783 67.6934 130.064 67.5751 130.367C67.0852 131.603 66.8155 132.98 66.0945 134.057C64.27 136.783 64.8892 139.534 65.6322 142.346C65.7946 142.966 65.9817 143.588 66.034 144.221C66.0587 144.522 65.7973 144.847 65.6652 145.16C65.3845 144.97 64.9414 144.838 64.8534 144.582C64.4543 143.42 64.1379 142.228 63.8269 141.038C63.7003 140.559 63.6673 140.052 63.5572 139.339C61.4106 141.534 59.9438 144.241 56.8148 145.048C56.9964 144.775 57.134 144.455 57.3707 144.241C63.9425 138.259 66.733 130.381 68.4832 122.001C69.4464 117.396 69.7574 112.726 69.4327 108.033C69.0969 103.225 70.3326 98.6562 71.3866 94.0545C72.0718 91.0638 72.9525 88.1089 73.4643 85.0907C73.6405 84.0442 72.9635 82.8546 72.581 81.3592C72.1489 82.0422 71.9067 82.3561 71.7388 82.7059C69.0254 88.3127 66.0395 93.8094 63.6838 99.5649C60.5933 107.121 60.12 115.245 59.3494 123.295C58.7219 129.86 57.7037 136.389 56.8533 142.935C56.8176 143.205 56.724 143.47 56.6469 143.734C56.1874 145.306 55.8324 145.601 54.1069 145.125C53.6941 145.012 53.2895 143.872 53.3363 143.238C53.9472 134.999 53.3776 126.812 52.1942 118.671C51.5998 114.598 50.6201 110.578 49.7972 106.538C49.6899 106.012 49.4725 105.508 49.3074 104.993C49.145 104.998 48.9854 105.007 48.823 105.012C48.823 105.992 48.713 106.987 48.8396 107.953C49.9046 116.102 50.832 124.264 50.5733 132.501C50.4577 136.164 50.0724 139.821 49.7339 143.475C49.5936 144.995 48.4433 145.742 47.1196 145.205C46.7673 145.061 46.4976 144.433 46.4013 143.982C45.5729 140.08 44.8822 136.15 43.985 132.264C42.0064 123.689 40.4185 114.984 37.7876 106.609C33.1945 91.9974 23.7029 80.9792 10.774 72.8361C11.0135 73.117 11.2391 73.4061 11.4896 73.6732C20.9591 83.7165 26.8291 95.4727 28.5822 109.25C30.038 120.712 34.5953 130.818 42.2293 139.515C43.2585 140.688 44.241 141.9 45.2234 143.109C45.5262 143.481 45.7601 143.907 46.027 144.31C45.9224 144.442 45.8151 144.577 45.7105 144.709C45.1546 144.367 44.4859 144.131 44.0649 143.671C42.3036 141.743 40.5093 139.832 38.9186 137.766C32.1542 128.984 28.3262 119.037 26.9062 108.036C24.889 92.4077 17.1724 79.9052 5.30308 69.7903C4.81873 69.3772 4.58481 68.675 4.23531 68.1077C4.94532 68.1683 5.77642 68.0058 6.34609 68.3197C16.6358 73.9789 25.3045 81.4694 31.9478 91.218C32.1542 91.5209 32.3689 91.8184 32.5863 92.113C32.6386 92.1846 32.7212 92.2342 33.0074 92.4848C32.7734 91.6118 32.6166 90.9564 32.4239 90.3092C27.5887 74.0367 19.0383 60.2207 5.53975 49.6927C4.02341 48.5085 2.39423 47.4703 0.864125 46.3027C0.48435 46.0136 0.283455 45.4848 0 45.0635C0.49811 45.0001 1.09529 44.722 1.48057 44.9038C5.3306 46.7048 9.29347 48.3323 12.9426 50.4858C23.2901 56.5939 31.092 65.2465 37.1078 75.5789C37.6582 76.5262 38.2306 77.4598 39.0012 78.7541C38.9324 78.1455 38.9406 77.9169 38.8801 77.7104C35.2777 65.2079 30.9296 53.0056 24.223 41.7781C22.8635 39.5007 21.3004 37.3417 19.8308 35.1276C19.6272 34.8219 19.3492 34.541 19.2364 34.2078C19.0768 33.7314 19.0355 33.2164 18.9447 32.7152C19.4345 32.8309 20.0648 32.7951 20.3867 33.0925C22.104 34.6732 23.8185 36.2677 25.3954 37.9861C34.9338 48.3874 40.5671 60.8045 43.9823 74.3479C44.7996 77.5892 45.5537 80.847 46.4316 84.4931C47.2131 81.048 46.6792 77.6663 48.2644 74.7803C48.4212 74.772 48.5781 74.7638 48.735 74.7555C48.9111 75.3283 49.2056 75.8956 49.2441 76.4794C49.4477 79.4976 49.5853 82.5214 49.745 85.5451C49.7752 86.1372 49.8 86.7292 49.8303 87.3434C49.9844 87.2993 50.1302 87.2773 50.1302 87.2525C50.3036 83.0584 51.2228 78.8753 50.4027 74.6646C49.6651 70.8836 48.812 67.1246 48.1378 63.3353C46.371 53.3746 44.0483 43.5792 39.8598 34.3125C39.1801 32.8088 38.4315 31.3328 37.8123 29.8072C37.6417 29.3858 37.8151 28.8213 37.8316 28.3228C38.2389 28.5597 38.7783 28.6973 39.0315 29.0443C41.9458 33.0264 45.3198 36.689 47.337 41.2935C48.3029 43.4965 49.478 45.6087 50.7797 47.7072C50.7797 47.0518 50.8072 46.3936 50.7742 45.7409C50.2321 34.9541 49.0377 24.2471 46.5196 13.7274C45.6885 10.2548 44.5602 6.85105 43.6025 3.40874C43.3879 2.63766 42.8595 1.80875 43.8337 0.740258C44.5189 1.82803 45.2675 2.701 45.6748 3.71166C47.8158 9.01833 50.1165 14.2809 51.8722 19.7143C52.9565 23.074 55.0178 25.748 56.5699 28.6781C57.0735 26.9982 57.4946 25.2908 58.1248 23.6661C58.3559 23.0685 59.0852 22.6664 59.5888 22.1762C60.0484 22.6582 60.6126 23.0767 60.9511 23.6303C62.316 25.8554 62.239 28.2512 61.639 30.6856C61.551 31.0409 61.4932 31.4182 61.3308 31.7404C59.9053 34.6126 60.2383 37.4353 60.9896 40.4866C62.6793 47.3354 63.9837 54.2806 65.4451 61.1845C65.4836 61.3608 65.5276 61.5343 65.8083 61.727C65.9184 60.5704 66.0367 59.4138 66.1358 58.2572C66.7275 51.4469 67.3081 44.6339 67.9108 37.8264C67.9934 36.9093 67.9246 36.1603 67.055 35.5655C66.6284 35.2735 66.4248 34.6539 66.1193 34.1858C66.2156 34.0481 66.3092 33.9076 66.4055 33.7699C67.0357 33.9682 67.6632 34.1637 68.6291 34.4667C68.4365 33.5606 68.3952 32.718 68.0787 31.9965C66.9174 29.372 65.8413 26.7559 66.5046 23.7845C66.9614 21.7301 68.1062 20.0943 69.6171 18.7064C70.5417 17.8554 71.2628 17.9463 71.7609 19.1415C72.4379 20.7663 72.8699 22.4929 73.3983 24.1452C74.4 23.7074 75.4513 23.1291 76.5768 22.7876C77.9666 22.3635 78.6216 23.0299 78.2831 24.4509C77.5566 27.4939 75.798 29.8292 73.2139 31.5531C72.4131 32.0873 71.5627 32.5472 70.7646 33.0815C69.6391 33.8333 69.4712 35.5269 70.5335 36.3062C76.2356 40.4921 81.1259 45.4848 85.4493 51.0614C85.4988 51.1247 85.6089 51.1385 85.463 51.0724C87.8875 46.7874 90.3175 42.5354 92.6842 38.2477C92.9016 37.8539 92.8549 37.1875 92.6925 36.7303C91.4321 33.1916 90.0781 29.6832 88.8425 26.1335C88.6223 25.4974 88.8122 24.7208 88.8149 24.0075C89.3571 24.4537 90.0726 24.7979 90.4138 25.3652C92.1669 28.265 93.8208 31.2226 95.5628 34.2519C96.8342 32.8226 98.1002 31.4016 99.3633 29.9834L99.8614 30.2533C99.7513 30.8316 99.7293 31.4429 99.5174 31.9799C98.8955 33.5579 98.1332 35.0808 97.5663 36.6753C97.3681 37.2315 97.3736 38.0384 97.6351 38.5561C101.733 46.7433 104.584 55.3188 105.795 64.4093C106.031 66.18 106.067 67.9755 106.202 69.76C106.276 70.7597 106.364 71.7566 106.607 72.7755C108.062 61.6141 110.396 50.6648 113.872 39.9771C117.337 29.3225 121.123 18.8 126.509 8.94949C126.74 8.98804 126.974 9.02659 127.205 9.06515C127.205 9.67375 127.346 10.3209 127.183 10.8799C126.071 14.7078 124.858 18.5081 123.751 22.3387C120.628 33.1448 118.214 44.1051 116.541 55.2307C116.423 56.0155 116.58 56.3846 117.273 56.726C118.336 57.2493 119.34 57.8909 120.468 58.5381C120.922 57.6623 121.357 56.8169 121.803 55.977C124.921 50.092 129.035 44.9313 133.562 40.101C134.468 39.1344 134.514 38.4102 133.906 37.394C131.581 33.5028 129.253 29.6116 126.98 25.6901C126.627 25.0815 126.558 24.3077 126.358 23.6082C127.035 23.8809 127.893 23.9745 128.358 24.4537C131.394 27.5738 134.344 30.7765 137.319 33.9572C137.688 34.351 138.029 34.7696 138.4 35.1992C139.099 34.5355 139.699 33.9131 140.362 33.3706C140.566 33.2026 140.946 33.2495 141.246 33.1971C141.279 33.5331 141.458 33.9627 141.317 34.1913C140.792 35.0395 140.159 35.8216 139.498 36.7221C145.112 44.6945 149.857 53.2066 153.715 62.6303C154.205 60.6475 154.491 59.0172 155.006 57.4668C157.111 51.1192 159.271 44.7881 161.459 38.468C161.721 37.7162 161.781 37.1517 161.341 36.4357C160.091 34.4061 158.919 32.3297 157.75 30.2533C157.337 29.518 157.023 28.7276 156.522 27.6591C158.421 27.885 159.357 28.9727 160.364 29.8898C161.377 30.8123 162.318 31.8175 163.369 32.8612C163.768 32.035 164.098 31.2309 164.528 30.4818C167.013 26.15 169.487 21.8127 172.057 17.5305C172.475 16.8338 173.857 15.8727 173.959 15.9635C174.93 16.8393 173.827 17.547 173.532 18.3181C171.245 24.3077 168.92 30.2836 166.627 36.2732C166.526 36.5376 166.504 36.9424 166.638 37.1654C168.815 40.8198 171.025 44.4576 173.251 48.1368C174.253 46.9086 175.219 45.5179 176.394 44.331C178.582 42.1169 180.927 40.0597 183.12 37.8539C183.676 37.2949 184.229 36.4274 184.248 35.6894C184.347 31.4732 184.306 27.2543 184.246 23.0382C184.237 22.5177 183.965 21.81 183.571 21.5126C179.108 18.1171 177.107 13.43 176.389 8.05449C176.232 6.87584 176.114 5.67791 176.13 4.49376C176.155 2.75057 176.821 2.3072 178.4 3.11683C180.052 3.96226 181.582 5.03902 183.296 6.0965C183.533 5.61457 183.822 4.86553 184.24 4.19359C184.986 3.00117 185.726 1.78948 186.623 0.71272C187.471 -0.306205 188.167 -0.242866 188.69 0.968828C189.51 2.86623 190.102 4.86277 190.823 6.90888C191.343 6.59494 192.1 6.10751 192.884 5.6724C194.83 4.59565 195.804 5.07207 195.804 7.24761C195.801 13.039 191.676 20.053 186.282 21.8623C186.026 21.9477 185.787 22.0854 185.561 22.19V35.8932C186.731 35.3231 187.779 34.8137 188.83 34.3042C188.979 34.4915 189.128 34.6815 189.276 34.8687C188.407 35.8711 187.603 36.9451 186.643 37.8539C186.045 38.4212 185.864 38.9224 185.938 39.7375C186.535 46.132 187.064 52.5347 187.65 58.9291C187.683 59.3036 187.977 59.7277 188.275 59.9866C189.48 61.0413 190.839 61.9418 191.929 63.1012C192.692 63.9136 193.261 63.8475 194.153 63.484C197.122 62.275 200.116 61.135 203.119 60.0086C203.71 59.7856 204.365 59.6727 204.998 59.6369C205.296 59.6203 205.772 59.8379 205.876 60.0775C205.981 60.3198 205.772 60.7412 205.618 61.0413C205.521 61.2258 205.276 61.336 205.089 61.4682C202.315 63.4151 199.538 65.3594 196.698 67.3504C198.586 69.57 200.469 71.6657 202.219 73.8688C203.975 76.0801 205.596 78.3961 207.349 80.7672C208.546 77.7489 209.432 74.6619 209.055 71.3517C207.527 57.9956 205.915 44.6504 202.191 31.6743C201.688 29.9146 201.008 28.2072 200.4 26.4777C200.202 25.916 199.874 25.3817 199.778 24.8062C199.684 24.2499 199.814 23.6578 199.847 23.0795C200.353 23.4237 201.022 23.6606 201.336 24.1342C202.095 25.2743 202.728 26.5053 203.347 27.7335C204.586 30.1872 205.774 32.6656 206.994 35.1303C207.294 35.7362 207.635 36.32 207.96 36.9121L208.326 36.8405C208.26 36.3641 208.276 35.8601 208.114 35.4195C206.325 30.603 207.715 26.4006 210.684 22.5728C211.95 20.9425 212.996 21.1711 213.521 23.1263C214.713 27.5517 214.094 31.6715 211.182 35.3286C210.896 35.6866 210.566 36.0088 210.282 36.3696C209.267 37.6529 208.799 38.793 209.569 40.6243C212.847 48.3956 215.159 56.4837 216.909 64.8196C217.14 63.6272 217.388 62.4375 217.597 61.2396C221.034 41.7176 226.849 22.9418 235.292 4.99496C235.76 4.00082 236.3 3.03697 236.886 2.10892C237.15 1.69309 237.615 1.40669 237.989 1.05971C238.127 1.13131 238.264 1.20015 238.402 1.27175C238.22 2.17501 238.108 3.09755 237.846 3.97603C236.465 8.63279 234.882 13.2372 233.669 17.9353C230.57 29.9118 228.767 42.1086 227.856 54.4403C227.741 55.9853 227.581 57.5302 227.623 59.1632C228.145 58.0644 228.701 56.9821 229.188 55.8668C234.238 44.353 241.336 34.329 250.808 26.0289C251.876 25.0953 253.007 24.2334 254.154 23.3962C254.383 23.2282 254.809 23.3301 255.142 23.3081C255.115 23.644 255.162 24.0048 255.043 24.305C254.914 24.6354 254.664 24.9356 254.421 25.2055C247.883 32.5059 243.991 41.2411 241.102 50.439C239.335 56.0651 238.069 61.8482 236.577 67.5597C236.751 67.634 236.927 67.7111 237.1 67.7855C237.532 67.1962 237.987 66.6206 238.391 66.0148C246.099 54.4211 256.345 45.6418 268.424 38.9004C269.464 38.3193 270.485 37.6804 271.588 37.2453C272.254 36.9837 273.055 37.0663 273.795 36.9947V37.2701C273.281 37.7823 272.832 38.3992 272.241 38.793C263.376 44.6917 256.785 52.62 251.51 61.7683C246.127 71.1039 242.45 81.0838 239.984 91.5457C239.764 92.4765 239.467 93.3908 239.208 94.3133C239.2 94.3436 239.241 94.3877 239.335 94.5722C240.075 93.4955 240.794 92.4958 241.462 91.4659C248.062 81.3042 256.937 73.7944 267.925 68.7631C268.512 68.496 269.183 68.4161 269.816 68.2481C269.912 68.3886 270.009 68.5263 270.105 68.6667C269.733 69.1211 269.433 69.6719 268.977 70.0134C257.446 78.5861 251.325 90.4524 248.21 104.142M117.57 73.9927C117.339 74.3121 117.037 74.5985 116.891 74.9538C116.112 76.8622 115.41 78.8009 114.615 80.7011C112.887 84.8208 112.102 89.1031 112.251 93.5698C112.49 100.807 112.719 108.047 112.911 115.284C112.977 117.804 112.922 120.326 112.922 122.849C113.104 122.851 113.288 122.857 113.47 122.86C113.619 120.362 113.897 117.867 113.888 115.369C113.861 107.766 115.245 100.314 116.34 92.8455C116.987 88.4311 118.432 84.1296 119.56 79.7895C119.783 78.9303 119.698 78.2612 119.219 77.4791C118.542 76.3748 118.085 75.1355 117.529 73.9514C118.792 74.4608 120.053 74.9703 121.368 75.5018C122.029 73.1583 122.689 70.834 123.339 68.5098C123.399 68.2977 123.504 67.9893 123.407 67.8571C122.408 66.4912 121.374 65.1528 120.35 63.8089C120.207 63.8558 120.061 63.9053 119.918 63.9521C119.12 66.8519 118.308 69.7462 117.546 72.6543C117.436 73.0701 117.557 73.5438 117.573 73.9927H117.57ZM200.956 62.443C200.598 62.399 200.499 62.3549 200.425 62.3824C192.868 65.1088 185.916 68.9118 180.486 74.9125C170.007 86.4869 163.353 99.9753 161.275 115.54C160.193 123.625 159.401 131.749 158.473 139.857C158.327 141.132 158.157 142.404 157.994 143.679C159.244 142.776 160.27 141.801 161.14 140.702C167.172 133.071 171.022 124.374 172.729 114.874C174.094 107.278 175.544 99.7522 178.117 92.46C182.226 80.8195 188.742 70.9827 199.087 63.9494C199.684 63.5418 200.221 63.0434 200.958 62.4458L200.956 62.443ZM219.19 140.132C219.323 140.143 219.455 140.154 219.587 140.168C219.587 139.675 219.606 139.182 219.584 138.689C219.122 128.874 220.074 119.164 221.794 109.515C222.388 106.18 223.39 102.878 223.616 99.5209C224.507 86.3354 225.049 73.128 225.947 59.9453C226.756 48.0376 228.261 36.2043 230.768 24.5225C231.613 20.59 232.593 16.6878 233.512 12.7718C215.847 53.807 212.013 96.3622 219.19 140.132ZM54.1591 122.108C54.2252 122.1 54.2912 122.091 54.3573 122.08C54.8114 119.836 55.2682 117.594 55.714 115.35C57.701 105.359 59.443 95.3295 59.9438 85.1348C60.5548 72.7397 59.1815 60.4933 57.0377 48.313C54.938 36.3861 52.4777 24.5473 48.3469 13.1216C48.1901 12.6865 47.9919 12.2679 47.8131 11.841C47.5929 12.2348 47.5984 12.5488 47.6727 12.8434C50.3614 23.655 51.9163 34.6512 52.1612 45.7657C52.3979 56.4892 52.2685 67.2292 51.9851 77.9555C51.8062 84.7768 51.0989 91.5843 50.543 98.3918C50.3586 100.636 50.1082 102.814 50.6751 105.073C51.7016 109.154 52.53 113.285 53.3913 117.407C53.7161 118.96 53.906 120.538 54.1591 122.105V122.108ZM262.598 73.4777C262.545 73.4144 262.496 73.3538 262.443 73.2905C260.971 74.246 259.455 75.1438 258.029 76.1655C245.582 85.1072 237.651 97.1608 234.203 112.004C232.163 120.786 230.848 129.739 229.21 138.615C228.927 140.154 228.649 141.696 228.297 143.635C229.1 143.04 229.653 142.77 230.014 142.341C232.243 139.672 234.662 137.122 236.589 134.244C242.079 126.049 244.718 116.79 246.259 107.141C248.136 95.3901 252.655 84.8153 260.597 75.8295C261.279 75.0584 261.932 74.2626 262.598 73.4777ZM263.841 43.491C263.8 43.4442 263.759 43.3946 263.715 43.3478C263.035 43.7967 262.353 44.2401 261.681 44.6945C244.454 56.3901 233.424 72.5084 227.746 92.4187C227.416 93.5781 227.29 94.8696 227.405 96.0675C227.606 98.144 228.022 100.204 228.432 102.253C229.678 108.487 230.512 114.763 230.482 121.152C231.076 118.834 231.415 116.465 232.07 114.191C233.311 109.878 234.855 105.654 236.052 101.33C237.565 95.8555 238.672 90.2624 240.282 84.8181C244.112 71.8667 249.71 59.769 258.423 49.3044C260.115 47.2721 262.031 45.4242 263.844 43.491H263.841ZM162.662 39.1923C162.414 39.743 162.219 40.1451 162.054 40.5609C154.389 59.703 151.164 79.6271 151.61 100.187C151.637 101.501 151.957 102.817 152.21 104.117C153.101 108.705 154.054 113.279 154.923 117.87C155.256 119.632 155.432 121.425 155.68 123.204C156.214 121.276 156.415 119.362 156.715 117.462C157.466 112.706 158.493 107.981 158.977 103.197C159.547 97.5904 159.604 91.934 159.981 86.3051C160.568 77.5176 161.145 68.7301 161.905 59.9563C162.365 54.6606 163.003 49.3677 163.889 44.1299C164.219 42.1774 163.672 40.8115 162.665 39.1895L162.662 39.1923ZM43.1594 121.772C43.2503 121.761 43.3411 121.75 43.4319 121.739C43.4732 121.213 43.5089 120.69 43.5585 120.166C44.0814 114.645 44.5189 109.11 45.1794 103.605C45.4133 101.661 45.6307 99.8045 45.0115 97.9154C44.2823 95.693 43.6603 93.4376 42.876 91.2345C36.5657 73.4915 25.8962 59.2734 9.32649 49.8552C8.49539 49.3815 7.63127 48.9657 6.78365 48.5223C7.03408 49.0896 7.41936 49.4118 7.80464 49.7313C20.6619 60.3859 29.2867 73.7724 33.7256 89.8741C34.5402 92.8318 35.1181 95.9023 36.34 98.6865C38.5058 103.627 40.2423 108.666 41.3734 113.932C41.9376 116.553 42.5623 119.161 43.1594 121.777V121.772ZM146.755 143.693C146.94 143.594 147.127 143.492 147.311 143.392C147.245 142.765 147.204 142.134 147.108 141.509C145.011 127.941 141.972 114.579 138.122 101.407C137.522 99.3556 136.777 97.2737 135.692 95.4479C131.999 89.227 127.445 83.6559 122.296 78.5778C121.979 78.2667 121.605 78.0106 121.258 77.7297C127.401 87.6766 130.876 98.4689 132.079 109.9C133.152 120.106 136.65 129.304 142.06 137.86C143.384 139.956 145.178 141.754 146.755 143.69V143.693ZM74.4661 41.1034C74.4 41.1806 74.3367 41.2577 74.2707 41.332C74.5349 41.7038 74.7936 42.0783 75.0605 42.4501C79.9645 49.2962 84.4888 56.3846 86.8032 64.5607C88.559 70.7679 89.9928 77.077 91.311 83.3971C93.3695 93.2641 95.1858 103.183 97.1535 113.073C97.7259 115.948 98.4607 118.79 99.1211 121.645C99.3578 121.34 99.3716 121.07 99.3908 120.8C99.8119 114.854 100.17 108.906 100.673 102.966C101.026 98.8131 101.892 94.6548 100.882 90.5158C99.8394 86.2446 98.6863 81.9926 97.3681 77.7985C93.1879 64.5057 86.5473 52.6641 76.4558 42.9045C75.8118 42.2821 75.1293 41.701 74.4661 41.1007V41.1034ZM170.288 55.7925C170.158 55.798 170.029 55.8007 169.9 55.8063C169.679 56.2056 169.456 56.6049 169.242 57.0042C163.809 67.097 161.019 77.826 161.148 89.3399C161.198 93.7791 160.989 98.2541 160.46 102.66C159.684 109.121 158.432 115.521 157.532 121.968C156.69 128.012 156.002 134.079 156.327 140.206C156.354 140.727 156.423 141.244 156.473 141.765C156.858 140.818 157.001 139.884 157.108 138.945C157.937 131.653 158.567 124.336 159.626 117.077C161.063 107.229 163.52 97.6675 168.724 88.9984C169.514 87.6821 169.922 85.994 170.048 84.4408C170.588 77.8563 170.989 71.2609 172.74 64.8444C172.811 64.5855 172.874 64.2771 172.803 64.0348C171.98 61.2837 171.13 58.5381 170.288 55.7925ZM117.455 58.64C117.97 59.2183 118.459 59.8214 119.007 60.3694C125.499 66.8685 129.952 74.6481 133.438 83.0721C137.624 93.1843 140.442 103.709 143.068 114.298C143.745 117.03 144.402 119.764 145.068 122.499C145.28 122.152 145.291 121.841 145.311 121.527C145.597 116.22 145.401 110.828 146.318 105.634C147.141 100.978 146.634 96.8083 145.049 92.493C141.361 82.4553 136.259 73.351 128.331 66.0203C125.097 63.0324 121.484 60.5732 117.455 58.64ZM249.14 29.7493L248.89 29.5593C246.853 31.7569 244.696 33.8526 242.805 36.1713C236.467 43.9482 231.748 52.6944 227.911 61.9198C227.223 63.5721 226.932 65.4557 226.786 67.2595C226.354 72.6102 226.057 77.972 225.765 83.331C225.55 87.28 225.426 91.2345 225.261 95.1863C225.836 94.2307 226.197 93.2504 226.458 92.2452C228.195 85.5065 230.677 79.0735 234.128 73.0123C234.745 71.9273 235.009 70.611 235.279 69.3662C236.324 64.5304 237.087 59.6203 238.364 54.8507C240.634 46.3688 243.598 38.1348 248.615 30.7985C248.835 30.4791 248.97 30.1018 249.143 29.7493H249.14ZM131.496 29.1958C131.405 29.2591 131.314 29.3225 131.226 29.3886C131.421 29.7714 131.611 30.1596 131.815 30.5369C132.927 32.5913 134.137 34.5989 135.142 36.7055C140.907 48.8252 143.984 61.7188 146.122 74.8932C147.215 81.6319 148.467 88.343 149.659 95.0651C149.714 95.3818 149.876 95.6793 150.102 96.2934C150.16 95.7977 150.193 95.6627 150.19 95.525C150.124 85.4955 151.062 75.5624 153.046 65.7284C153.137 65.2712 153.063 64.7205 152.89 64.2826C148.596 53.4324 143.07 43.2817 135.717 34.183C134.349 32.4894 132.905 30.8591 131.496 29.1985V29.1958ZM123.201 19.4692C123.069 19.4196 122.934 19.3728 122.802 19.3232C121.533 22.6526 120.229 25.9683 118.999 29.3115C114.436 41.7313 110.564 54.3522 108.847 67.5101C107.738 76.0085 107.223 84.5867 106.067 93.0769C105.217 99.3116 106.851 105.136 108.054 111.09C108.186 110.803 108.258 110.511 108.291 110.217C108.783 105.566 109.196 100.906 109.78 96.2658C110.225 92.7216 111.194 89.2215 111.381 85.6745C111.844 76.9944 113.071 68.4271 114.59 59.8902C114.818 58.6069 114.871 57.5852 113.66 56.7894C113.277 56.5388 113.041 56.0679 112.523 55.4345C113.233 55.5006 113.583 55.5088 113.921 55.5722C114.26 55.6355 114.587 55.7512 114.931 55.8503C117.114 43.5241 119.439 31.3355 123.201 19.4719V19.4692ZM75.8118 70.1703C76.8355 65.1859 78.8748 60.7935 81.0296 56.4341C81.2827 55.9219 81.3103 55.0792 81.0681 54.5698C78.2721 48.7509 74.3698 43.6645 70.3739 38.647C70.1317 38.3413 69.7959 38.1128 69.3556 37.7135C69.2483 38.5782 69.1437 39.2418 69.0832 39.9083C68.4943 46.5698 68.0209 53.2424 67.2751 59.8847C66.9972 62.3494 67.4788 63.9439 69.7024 65.2933C71.8599 66.6013 73.6928 68.4437 75.8145 70.1703H75.8118ZM203.724 31.0767C203.65 31.1318 203.576 31.1841 203.501 31.2392C203.801 32.2443 204.137 33.2384 204.396 34.2519C207.888 47.9302 209.591 61.8868 210.816 75.9176C211.281 81.2573 211.735 86.6053 212.432 91.9175C212.754 94.3849 213.642 96.778 214.275 99.2069C214.589 96.2906 214.468 93.366 214.617 90.458C214.892 85.0632 215.393 79.6766 215.662 74.2818C215.792 71.6905 215.924 69.0358 215.519 66.4939C213.775 55.5694 210.326 45.1544 205.623 35.1469C204.987 33.792 204.357 32.4343 203.724 31.0767ZM134.575 70.1896C137.077 68.0251 139.581 65.8881 142.03 63.6878C142.297 63.4482 142.404 62.7845 142.294 62.4045C140.544 56.4341 138.75 50.4776 136.95 44.5237C136.837 44.1492 136.595 43.8132 136.292 43.2239C135.233 45.0745 134.286 46.7323 133.339 48.3874C130.882 52.6916 128.711 57.1253 127.324 61.9033C127.194 62.3522 127.186 63.0902 127.456 63.3573C129.787 65.6788 132.195 67.9232 134.578 70.1869L134.575 70.1896ZM181.84 56.3102C181.981 56.1643 182.124 56.0183 182.264 55.8723C183.552 56.6214 184.84 57.3704 186.315 58.2296C185.756 52.2455 185.214 46.4487 184.642 40.3379C184.295 40.7565 184.177 40.8804 184.081 41.0181C180.91 45.6556 179.066 50.8714 177.534 56.2138C177.363 56.8059 177.479 57.566 177.688 58.1691C178.91 61.6692 180.206 65.1418 181.461 68.6309C181.733 69.3855 181.928 70.1676 182.198 71.0598C183.888 69.8206 185.47 68.7328 186.948 67.5211C187.328 67.2099 187.622 66.4444 187.523 65.979C187.311 64.9711 186.962 63.9356 186.414 63.0709C185.437 61.526 184.251 60.1133 183.2 58.6124C182.691 57.8827 182.286 57.0785 181.835 56.3102H181.84ZM95.0042 43.2872C94.8611 43.2845 94.718 43.2817 94.5748 43.279C93.2181 48.0294 91.8394 52.7743 90.5322 57.5384C90.4083 57.9873 90.634 58.5959 90.8514 59.0586C92.4476 62.454 94.107 65.822 95.6949 69.2203C96.3691 70.6633 96.925 72.1614 97.5332 73.6264C98.3974 71.148 99.2532 68.7907 100.027 66.4058C100.241 65.7449 100.406 64.9628 100.266 64.3074C99.2615 59.6506 98.2185 55.0021 97.0847 50.3729C96.4985 47.9826 95.7059 45.6445 95.0042 43.2817V43.2872ZM62.1289 98.2954C62.2472 98.3174 62.3628 98.3395 62.4812 98.3615C63.0426 97.1305 63.4994 95.839 64.1846 94.6824C66.0587 91.532 66.7137 88.1172 66.5266 84.5234C66.2624 79.4921 65.9514 74.4608 65.5992 69.4323C65.3487 65.8606 62.9958 63.5088 60.6098 61.2066C60.5795 61.1763 60.4557 61.2424 60.6566 61.19C61.1492 73.6044 61.6418 85.9499 62.1317 98.2954H62.1289ZM24.7046 39.4429C30.759 49.8524 35.2943 60.9064 38.9159 72.3404C41.0459 79.068 42.8705 85.8921 44.8409 92.6693C44.9703 93.1099 45.1684 93.5312 45.3363 93.9636L45.8234 93.7598C44.1804 73.5713 38.2857 55.0159 24.7046 39.4429ZM177.313 76.16C178.384 75.0061 179.259 73.9569 180.247 73.0316C180.913 72.4092 181.056 71.8419 180.731 70.9937C178.604 65.4365 176.708 59.7801 174.361 54.3164C171.336 47.2721 167.684 40.5417 162.876 34.508C162.59 34.15 162.285 33.8085 162.004 33.4477C161.748 33.1228 161.511 32.7841 161.267 32.4508C161.151 32.5555 161.038 32.6574 160.923 32.762C168.493 46.3578 174.198 60.6585 177.313 76.16ZM193.842 69.9748C196.145 74.2075 198.556 78.2143 200.551 82.4195C202.533 86.5888 204.096 90.9592 205.89 95.3598C206.534 92.9254 207.038 90.502 207.83 88.1778C208.493 86.2335 208.196 84.606 207.016 83.0308C203.887 78.8532 200.799 74.6453 197.626 70.498C195.878 68.2151 195.818 68.2619 193.839 69.9748H193.842ZM103.4 97.8548C103.208 97.8603 103.012 97.8658 102.82 97.8741C102.757 98.1715 102.679 98.4662 102.63 98.7691C101.394 106.342 100.899 113.973 100.847 121.637C100.8 128.467 100.709 135.304 102.668 141.955C102.809 142.437 102.957 142.916 103.103 143.395C103.5 142.699 103.645 142.076 103.75 141.446C104.843 134.732 104.254 128.012 103.896 121.285C103.601 115.755 103.541 110.214 103.411 104.676C103.359 102.404 103.403 100.129 103.403 97.8548H103.4ZM82.4083 57.2548C82.2845 57.3264 82.1689 57.3512 82.1331 57.4173C79.9012 61.6967 77.9941 66.1001 77.1465 70.8836C77.0667 71.327 77.3336 71.9328 77.6281 72.3238C79.1169 74.2984 80.6691 76.2261 82.2019 78.1648C82.4056 78.4209 82.6422 78.6522 83.0248 79.068C83.1596 78.1207 83.2587 77.446 83.3495 76.7713C83.7375 73.866 83.8256 70.8808 84.5796 68.0747C85.6804 63.9907 84.2934 60.631 82.4056 57.2548H82.4083ZM46.5444 105.769C44.4281 118.445 44.4501 131.041 47.9562 143.503C49.6459 130.843 48.9854 118.272 46.5444 105.769ZM227.364 104.222C224.681 116.796 225.096 129.384 226.926 141.985C229.513 129.422 229.629 116.829 227.364 104.222ZM147.856 104.624C145.817 113.012 146.458 134.101 149.042 143.742C151.585 139.256 149.642 108.226 147.856 104.624ZM147.658 95.7233C147.796 95.7013 147.933 95.6765 148.071 95.6545C146.406 85.5423 144.741 75.4274 143.079 65.3153C142.905 65.3153 142.729 65.3208 142.556 65.3208C142.201 66.0533 141.78 66.7611 141.499 67.5211C140.596 69.9693 139.696 72.4202 138.909 74.907C138.733 75.4605 138.857 76.2398 139.119 76.7823C141.207 81.1059 143.431 85.3661 145.467 89.7144C146.37 91.6366 146.94 93.7158 147.661 95.7233H147.658ZM92.332 31.4484C98.8102 47.7567 102.231 64.8306 105.233 82.0174C105.352 72.2936 104.675 62.6716 101.969 53.2782C99.7486 45.5674 96.1683 38.4598 92.3292 31.4484H92.332ZM54.5334 28.4082C54.5224 28.4963 54.4921 28.59 54.5059 28.6753C56.314 38.5809 58.1248 48.4865 59.9493 58.3894C60.0016 58.6813 60.1117 59.0696 60.3264 59.2045C61.4519 59.9205 62.616 60.5677 64.0058 61.3773C62.5527 49.6707 59.6466 38.7324 54.5334 28.4082ZM104.485 95.324C105.156 91.1905 102.338 70.5311 100.731 68.2399C99.3083 71.6932 98.4249 75.1823 99.2642 78.8615C100.038 82.2542 101.004 85.6057 101.857 88.9791C102.424 91.2235 102.52 93.6442 104.488 95.3213L104.485 95.324ZM135.541 40.7509C135.343 40.6849 135.145 40.6188 134.947 40.5554C130.296 45.6666 125.848 50.9347 122.706 57.1694C121.715 59.1357 121.762 59.1604 123.586 60.4988C124.25 60.9835 124.913 61.4682 125.659 62.0107C126.44 59.8764 127.007 57.7312 127.984 55.7952C130.249 51.3037 132.723 46.9168 135.076 42.4694C135.346 41.9571 135.39 41.3265 135.541 40.7509ZM42.909 36.4412C42.7521 36.51 42.598 36.5789 42.4412 36.6477C46.6462 46.9223 48.4378 57.8055 50.7274 68.5869C50.9944 65.979 51.154 63.3931 51.1485 60.8072C51.1265 50.3591 51.864 53.1405 46.9242 43.5957C45.6665 41.1668 44.2492 38.8233 42.9063 36.4412H42.909ZM165.595 44.5568C165.331 44.5733 165.07 44.5898 164.806 44.6063C163.999 52.4025 163.193 60.1986 162.387 67.9948C162.549 68.0554 162.714 68.1132 162.876 68.1738C162.929 68.0499 162.978 67.9232 163.033 67.802C165.064 63.3022 167.098 58.8052 169.112 54.2999C169.234 54.0328 169.324 53.65 169.225 53.4021C168.036 50.4445 166.809 47.5034 165.593 44.5568H165.595ZM110.913 101.82C110.768 101.823 110.624 101.829 110.479 101.831C110.286 103.869 110.016 105.902 109.914 107.942C109.681 112.695 109.339 117.454 109.392 122.204C109.458 128.155 109.876 134.101 110.129 140.052C110.165 140.903 110.135 141.759 110.135 142.613C110.294 142.619 110.454 142.624 110.613 142.632C110.952 140.336 111.423 138.047 111.601 135.74C112.477 124.41 111.175 113.128 110.908 101.823L110.913 101.82ZM177.561 4.30649C177.721 10.5385 179.05 15.9773 183.855 19.9676C184.392 18.0262 184.961 16.1233 185.421 14.1928C185.564 13.5952 185.572 12.86 185.352 12.3009C183.915 8.65482 181.395 6.0249 177.561 4.30649ZM92.2659 96.7533C90.978 88.9626 89.7176 81.2436 87.6619 73.307C86.44 75.6064 85.4795 77.5286 84.398 79.3847C83.988 80.0897 84.0705 80.5496 84.4475 81.2215C86.4675 84.8126 88.4737 88.4146 90.3726 92.0717C91.1459 93.5588 91.6412 95.1891 92.2632 96.7533H92.2659ZM194.125 6.82627C189.651 7.90302 184.769 15.8066 185.69 20.3835C190.295 19.5738 195.201 11.6896 194.125 6.82627ZM55.6617 141.291C57.8138 130.111 58.3862 118.798 58.8705 107.477C56.2011 118.6 53.8454 129.753 55.6617 141.291ZM189.697 74.7941C189.499 74.7693 189.301 74.7445 189.103 74.7224C188.811 75.7221 188.412 76.7052 188.247 77.7241C187.878 80.0264 187.592 82.3424 187.355 84.6639C187.3 85.2091 187.435 85.8728 187.719 86.3382C188.875 88.2466 190.121 90.1027 191.34 91.9726C191.577 92.3333 191.844 92.672 192.1 93.019C192.185 92.9805 192.273 92.9447 192.359 92.9061C191.47 86.8697 190.583 80.8305 189.695 74.7941H189.697ZM116.349 59.4634C116.211 59.5047 116.071 59.546 115.933 59.5873C114.997 66.1387 114.062 72.6929 113.126 79.2443C113.283 79.2773 113.437 79.3076 113.594 79.3407C114.422 77.1706 115.355 75.0309 116.057 72.8195C117.053 69.6884 117.895 66.5077 118.768 63.3353C118.872 62.9497 118.905 62.3769 118.693 62.1043C117.978 61.1708 117.138 60.3336 116.349 59.4606V59.4634ZM93.8401 39.6935C93.4878 39.7596 93.419 39.7541 93.4053 39.7761C91.2477 43.9124 89.0846 48.0459 86.9573 52.1987C86.8252 52.4576 86.872 52.9422 87.0317 53.1956C87.7086 54.2751 88.4627 55.3051 89.269 56.4727C89.4259 56.1092 89.5332 55.9164 89.5938 55.7099C91.011 50.8714 92.4338 46.0356 93.8208 41.1888C93.9474 40.751 93.8373 40.2442 93.8373 39.6907L93.8401 39.6935ZM173.89 67.634C173.689 67.6395 173.488 67.6478 173.29 67.6533C172.621 73.0619 171.955 78.4677 171.287 83.8763C171.438 83.9093 171.587 83.9423 171.738 83.9754C172.555 82.7747 173.235 81.4418 174.22 80.4036C176.031 78.498 176.301 76.4684 175.508 74.0422C174.828 71.9521 174.418 69.7738 173.887 67.634H173.89ZM124.987 69.4351C124.792 69.4791 124.596 69.5232 124.398 69.5645C123.881 71.9163 123.352 74.2681 122.857 76.6254C122.81 76.8484 122.918 77.1816 123.072 77.3606C124.137 78.5999 125.232 79.8088 126.465 81.194C127.365 79.5307 128.028 78.3355 128.653 77.1211C128.766 76.9007 128.829 76.54 128.727 76.3472C127.5 74.034 126.239 71.7373 124.984 69.4378L124.987 69.4351ZM183.208 39.6852C179.708 42.2683 176.928 45.5179 174.443 49.0373C174.204 49.376 173.898 49.9323 174.022 50.2159C174.702 51.7719 175.505 53.2755 176.411 55.0792C177.869 49.3485 180.269 44.4108 183.208 39.6852ZM70.5858 19.8905C67.1623 22.4544 66.6449 27.739 69.4795 31.1758C72.1324 27.4829 72.5699 22.9969 70.5858 19.8905ZM74.8073 87.0817C74.6422 87.079 74.4743 87.0735 74.3092 87.0707C73.1148 92.7023 71.9177 98.3312 70.7234 103.963C72.614 100.518 74.023 96.9433 75.8118 93.567C77.2208 90.9096 75.4816 89.1692 74.8101 87.0845L74.8073 87.0817ZM209.396 35.0505C212.506 32.3737 213.92 25.3652 211.793 23.4485C209.06 26.866 207.847 30.581 209.396 35.0505ZM186.582 11.5436C189.552 8.51989 189.909 4.39186 187.421 1.91615C185.619 3.32612 185.088 5.43282 184.416 7.45415C184.358 7.63039 184.444 7.89752 184.546 8.07652C185.195 9.2111 185.867 10.3319 186.582 11.5436ZM129.985 78.4622C129.853 78.4732 129.721 78.4842 129.588 78.4952C129.052 79.5858 128.496 80.668 127.992 81.7723C127.899 81.9788 127.918 82.3561 128.05 82.5269C129.244 84.0525 130.475 85.5506 131.98 87.4122C132.261 86.2996 132.759 85.479 132.561 84.8924C131.826 82.7086 130.863 80.6019 129.985 78.4649V78.4622ZM59.4072 33.4175C60.5685 30.0605 61.5565 27.1029 59.5888 23.947C57.756 27.0423 57.8771 30.0302 59.4072 33.4175ZM71.3288 30.9665C73.9432 29.3941 76.3044 27.6178 76.9346 24.2389C72.7901 24.7896 72.5947 28.3091 71.3288 30.9665ZM69.5785 75.1162C69.3171 78.5035 69.0832 81.5079 68.8493 84.5124C71.9728 80.2329 72.1461 78.2446 69.5785 75.1162ZM137.539 74.3727C138.477 71.8777 139.303 69.6774 140.131 67.4771C140.04 67.4247 139.947 67.3752 139.856 67.3229C138.403 68.7356 136.95 70.1456 135.467 71.5858C136.179 72.5469 136.774 73.3428 137.539 74.3727ZM48.3552 83.9534C48.2396 83.9534 48.1213 83.9478 48.0057 83.9478C47.3205 88.3871 47.8131 92.7602 49.0652 97.0947C48.8285 92.7161 48.5919 88.3347 48.3552 83.9561V83.9534ZM165.417 35.279C166.652 31.8395 167.874 28.4412 169.099 25.0402C168.997 24.9934 168.895 24.9439 168.796 24.897C167.459 27.6922 166.149 30.4984 164.767 33.2715C164.33 34.15 164.489 34.72 165.417 35.2818V35.279ZM84.8356 74.5021C86.85 72.4808 87.8627 70.308 85.9501 67.4688C85.5538 69.9748 85.1933 72.2385 84.8356 74.5021ZM188.261 61.6279C188.118 61.7353 187.975 61.8454 187.834 61.9528C188.404 63.2031 188.976 64.4533 189.604 65.8303C190.336 65.3869 190.861 65.0675 191.602 64.6158C190.391 63.5336 189.326 62.578 188.264 61.6251L188.261 61.6279ZM186.676 78.8367C186.568 78.8257 186.464 78.8174 186.356 78.8064C185.641 80.0016 184.925 81.194 184.193 82.414C184.708 82.8931 185.217 83.3668 185.96 84.0608C186.227 82.1055 186.453 80.4725 186.676 78.8367ZM67.6136 78.1951C67.6907 78.1951 67.7677 78.1951 67.8448 78.1923C68.0429 76.887 68.1282 75.5514 68.4695 74.2846C68.852 72.8746 68.2989 71.8667 67.2449 70.8918C67.3687 73.3262 67.4925 75.7607 67.6136 78.1951ZM149.81 104.114C149.659 102.104 149.507 100.094 149.359 98.0861C149.227 98.0971 149.095 98.1054 148.962 98.1164C148.343 100.303 148.525 102.462 149.81 104.117V104.114ZM209.479 79.1011C209.655 80.7561 207.404 82.3589 209.558 84.3416C210.373 82.4773 209.817 80.7919 209.479 79.1011ZM60.4474 104.403C60.563 104.406 60.6759 104.409 60.7914 104.412V97.271C60.6759 97.271 60.563 97.271 60.4474 97.2682V104.403ZM134.762 91.5485C134.891 91.5127 135.021 91.4741 135.15 91.4383C134.666 90.1082 134.184 88.7753 133.609 87.1919C132.178 89.45 134.391 90.1881 134.765 91.5485H134.762Z" fill="black"/>
</svg>
