<svg width="145" height="122" viewBox="0 0 145 122" fill="none" xmlns="http://www.w3.org/2000/svg">
<path d="M97.1365 79.2304C100.249 79.2304 102.781 76.7289 102.781 73.6544C102.781 70.5799 100.249 68.0787 97.1365 68.0787C94.0241 68.0787 91.4918 70.5802 91.4918 73.6544C91.4918 76.7292 94.0241 79.2304 97.1365 79.2304ZM97.1365 70.3389C98.9872 70.3389 100.493 71.8264 100.493 73.6544C100.493 75.4829 98.9872 76.9702 97.1365 76.9702C95.2857 76.9702 93.7799 75.4827 93.7799 73.6544C93.7799 71.8262 95.2857 70.3389 97.1365 70.3389ZM144.538 75.4595C135.277 68.7082 124.955 64.3976 113.009 62.2817L108.997 52.665C106.659 47.0624 101.185 43.4421 95.0503 43.4421H86.1309C81.6317 43.4421 77.8707 46.6194 77.0232 50.8215L65.6201 44.77C67.1883 43.1596 68.1204 40.9539 68.046 38.5671L67.2958 14.5029C67.208 11.688 65.9828 9.11166 63.8454 7.24809C61.8153 5.47833 59.2416 4.59627 56.5568 4.73838C55.079 3.76337 49.191 0.202087 42.0179 0.202087C34.5099 0.202087 8.04042 4.39087 4.3615 8.25955C0.655408 12.157 -0.366784 25.1438 2.62515 30.3161C4.81682 34.1048 14.5031 38.994 23.8286 41.7873C22.0119 43.4302 20.9477 45.7583 20.9477 48.2864C20.9477 52.6743 24.2056 56.3235 28.4571 57.0007C27.6883 60.3925 26.0729 69.482 29.306 74.9744C31.4819 78.6707 35.4623 80.3959 38.7385 81.2022L40.7849 94.0847L29.916 105.892C28.6899 105.966 27.4092 106.211 26.127 106.715C19.8491 109.182 19.8094 116.724 19.8108 117.044C19.8134 117.666 20.3248 118.169 20.9548 118.169H27.3414C27.1509 119.353 27.1458 120.183 27.1463 120.29C27.1489 120.913 27.6603 121.416 28.2904 121.416H54.0843C58.5039 121.416 62.0994 117.864 62.0994 113.498C62.0994 112.355 61.8508 111.268 61.4075 110.286L65.6951 102.267C65.7934 102.083 65.8383 101.875 65.8252 101.667L64.7884 85.5223C66.241 84.451 67.4877 83.1237 68.4676 81.6121L78.02 75.7191L84.6419 79.3827L91.3963 95.0772L86.8573 105.985C84.8956 105.736 82.6302 105.823 80.3621 106.715C74.0845 109.182 74.0445 116.723 74.0459 117.043C74.0485 117.666 74.5599 118.169 75.1899 118.169H81.5765C81.386 119.352 81.3809 120.183 81.3814 120.29C81.384 120.913 81.8954 121.415 82.5255 121.415H108.319C112.739 121.415 116.334 117.864 116.334 113.498C116.334 110.678 114.834 108.2 112.581 106.797L114.905 93.6377C114.936 93.46 114.924 93.2778 114.87 93.1054L110.219 78.4472L112.313 77.0258C116.916 79.3098 122.229 80.4594 127.867 80.4594C133.154 80.4594 138.724 79.4516 144.256 77.4284C144.65 77.2843 144.933 76.9382 144.992 76.5272C145.051 76.1161 144.876 75.7061 144.538 75.4595ZM124.161 67.4325C124.942 70.9503 124.966 74.5071 124.234 78.0277C120.665 77.6813 117.291 76.8168 114.236 75.4346C115.96 73.4501 116.483 70.607 115.441 68.1103L114.047 64.7686C117.561 65.4523 120.925 66.34 124.161 67.4325ZM86.1312 45.7023H95.0506C100.255 45.7023 104.898 48.7734 106.881 53.5262L110.48 62.1507H79.132V52.6161C79.132 48.804 82.2718 45.7023 86.1312 45.7023ZM106.494 73.6544C106.494 78.7512 102.296 82.8979 97.1365 82.8979C91.9769 82.8979 87.7792 78.7512 87.7792 73.6544C87.7792 68.5576 91.9769 64.4109 97.1365 64.4109C102.296 64.4109 106.494 68.5576 106.494 73.6544ZM62.3316 8.94299C63.9902 10.389 64.9414 12.3884 65.0092 14.5727L65.7594 38.6368C65.8509 41.5718 63.8746 44.1315 61.1026 44.9019L59.1944 24.8734C58.711 19.7992 54.0099 15.3426 49.1655 15.075C49.0983 13.2504 49.6709 11.4818 50.8252 10.0126C52.1815 8.28639 54.1415 7.22266 56.344 7.01783C56.6 6.9941 56.8548 6.98223 57.1079 6.98223C59.0345 6.98251 60.8658 7.66482 62.3316 8.94299ZM51.1658 41.5983C51.6575 43.0203 52.5115 44.2589 53.6081 45.2229C49.4795 49.2489 44.1524 51.6869 37.7363 52.5C38.4282 51.247 38.822 49.8112 38.822 48.2864C38.822 46.757 38.4288 45.2882 37.6937 43.9891C44.6978 43.8196 49.1152 42.4346 51.1658 41.5983ZM53.0661 39.817L49.4707 17.3675C53.0598 17.8051 56.5537 21.2805 56.916 25.085L58.8243 45.1136C55.957 44.8675 53.5308 42.7169 53.0661 39.817ZM46.9979 16.3902L48.1419 23.5339C47.4689 23.9798 46.7284 24.2168 45.9694 24.2168C43.2972 24.2168 41.123 21.378 41.123 17.8884C41.123 14.3989 43.2972 11.5601 45.9694 11.5601C46.4344 11.5601 46.8877 11.6457 47.325 11.8141C46.8646 13.2716 46.7476 14.8269 46.9979 16.3902ZM19.447 5.5354C23.2137 4.74912 27.2988 4.0363 31.0686 3.49582V18.4767C31.0686 21.6418 28.462 24.2165 25.2578 24.2165C22.0537 24.2165 19.447 21.6418 19.447 18.4767V5.5354ZM6.0295 9.80696C6.48482 9.32807 7.53562 8.8085 9.00684 8.2748C9.65465 9.5928 10.7 12.3667 9.36378 14.5371C8.09819 16.5922 5.11399 16.8558 3.47974 16.8346C3.95222 13.7468 4.85858 11.0382 6.0295 9.80696ZM4.61176 29.1947C3.28039 26.8935 2.91344 22.909 3.21833 19.0914C3.35103 19.0951 3.48889 19.0979 3.63819 19.0979C5.77781 19.0979 9.51279 18.6436 11.3184 15.7115C13.1259 12.7761 12.0268 9.3617 11.1937 7.55944C12.9163 7.04495 14.9529 6.52792 17.1589 6.03124V18.4767C17.1589 22.8881 20.7921 26.4768 25.2578 26.4768C29.7235 26.4768 33.3567 22.8878 33.3567 18.4767V3.18419C36.858 2.73299 39.9389 2.46232 42.0179 2.46232C46.6709 2.46232 50.8215 4.17587 53.2666 5.45092C51.6089 6.10667 50.1497 7.18622 49.0179 8.62684C48.7345 8.98763 48.4811 9.36367 48.2523 9.75046C47.5204 9.4555 46.7485 9.29982 45.9697 9.29982C42.0359 9.29982 38.8352 13.1527 38.8352 17.8884C38.8352 22.6242 42.0356 26.4771 45.9697 26.4771C46.8551 26.4771 47.7157 26.2804 48.5226 25.9097L50.6739 39.3437C49.0059 40.069 44.2805 41.7478 36.2705 41.7478C25.9774 41.7478 7.24103 33.7398 4.61176 29.1947ZM23.236 48.2864C23.236 45.8857 24.5256 43.7275 26.6246 42.5629C29.5857 43.3178 32.4257 43.8207 34.8828 43.9645C35.9471 45.1621 36.534 46.6779 36.534 48.2864C36.534 51.9081 33.5512 54.8546 29.8849 54.8546C26.2185 54.8546 23.236 51.9081 23.236 48.2864ZM31.284 73.8381C28.3458 68.8463 30.1551 59.7805 30.7924 57.0694C32.6654 56.8818 34.3677 56.1189 35.7194 54.9651C43.8526 54.4136 50.5109 51.5699 55.5326 46.5076C56.701 47.0808 58.0083 47.4009 59.3726 47.4009C59.6423 47.4009 59.9145 47.3885 60.188 47.3631C61.0886 47.2794 61.9449 47.0588 62.7403 46.7268L65.3521 62.2235C62.7629 60.1176 59.4492 58.8513 55.8412 58.8513C47.5782 58.8513 40.8558 65.4918 40.8558 73.6544C40.8558 75.7307 41.2926 77.7073 42.0774 79.5025C39.1481 79.1479 33.6993 77.9418 31.284 73.8381ZM43.3967 81.8913C44.9252 84.1374 47.0608 85.9461 49.5679 87.0929L50.2129 96.4687L43.0292 93.6335L41.1284 81.6669C42.0905 81.8059 42.8828 81.8661 43.3967 81.8913ZM42.3125 95.7847L48.7065 98.3082L40.1508 107.601C39.5036 107.581 38.836 107.6 38.1553 107.664C37.3811 107.274 35.4034 106.384 32.8882 106.022L42.3125 95.7847ZM22.1935 115.909C22.4518 114.002 23.4113 110.215 26.9724 108.815C29.568 107.795 32.2376 108.086 34.2216 108.609C30.4549 110.123 28.6928 113.263 27.8694 115.909H22.1935V115.909ZM29.5202 119.156C29.783 117.001 30.8467 112.365 35.1437 110.676C39.7109 108.882 44.4673 110.501 46.3764 111.321C46.1759 112.013 46.0683 112.743 46.0683 113.498C46.0683 115.712 46.993 117.717 48.4817 119.155H29.5202V119.156ZM54.0837 119.156C50.9256 119.156 48.3564 116.618 48.3564 113.498C48.3564 110.379 50.9256 107.841 54.0837 107.841C57.2418 107.841 59.8107 110.379 59.8107 113.498C59.8107 116.618 57.2418 119.156 54.0837 119.156ZM54.0837 105.58C51.2431 105.58 48.7431 107.047 47.319 109.255C46.3672 108.84 44.8293 108.265 42.9574 107.912L51.7341 98.3791L63.0543 102.365L59.9709 108.132C58.5054 106.564 56.4089 105.58 54.0837 105.58ZM63.4313 100.098L52.4912 96.246L51.9198 87.9397C53.1708 88.275 54.4847 88.4575 55.8415 88.4575C58.2651 88.4575 60.5541 87.8826 62.5819 86.8692L63.4313 100.098ZM55.8415 86.197C48.8403 86.197 43.1442 80.5704 43.1442 73.6541C43.1442 66.7378 48.8403 61.1112 55.8415 61.1112C62.8427 61.1112 68.5388 66.7378 68.5388 73.6541C68.5388 80.5704 62.8427 86.197 55.8415 86.197ZM68.1862 65.2757L65.1176 47.0689L76.8439 53.2919V73.7796L70.202 77.8771C70.6061 76.5379 70.8266 75.1213 70.8266 73.6544C70.8266 70.546 69.8499 67.66 68.1862 65.2757ZM79.132 64.4109H90.2134C87.3504 66.5087 85.4911 69.8708 85.4911 73.6544C85.4911 75.0654 85.7508 76.417 86.2236 77.6672L79.132 73.7437V64.4109ZM87.9047 81.1881L88.8168 81.6927C90.377 83.268 92.3896 84.4027 94.6456 84.8903L99.1611 93.9397H93.3926L87.9047 81.1881ZM93.4026 96.2H100.289L100.726 97.0764L95.7333 107.695C94.6811 107.581 93.5554 107.554 92.391 107.665C91.839 107.386 90.6764 106.853 89.1423 106.439L93.4026 96.2ZM76.4286 115.909C76.6869 114.002 77.6465 110.215 81.2076 108.815C83.8031 107.796 86.4724 108.086 88.4561 108.61C84.6894 110.124 82.9276 113.263 82.1042 115.909H76.4286V115.909ZM83.7553 119.156C84.0184 117.001 85.0821 112.365 89.3791 110.676C93.9461 108.882 98.7024 110.501 100.612 111.321C100.411 112.013 100.304 112.743 100.304 113.498C100.304 115.712 101.228 117.717 102.717 119.155H83.7553V119.156ZM114.046 113.498C114.046 116.617 111.477 119.155 108.319 119.155C105.16 119.155 102.592 116.617 102.592 113.498C102.592 110.378 105.161 107.84 108.319 107.84C111.477 107.84 114.046 110.378 114.046 113.498ZM108.319 105.58C105.478 105.58 102.978 107.047 101.554 109.255C100.755 108.906 99.5424 108.446 98.0669 108.098L102.819 97.9921L112.329 95.0718L110.424 105.859C109.752 105.679 109.047 105.58 108.319 105.58ZM112.343 92.7009L102.588 95.6962L97.3278 85.1534C100.525 85.1019 103.411 83.7729 105.488 81.6599L108.246 79.787L112.343 92.7009ZM108.27 77.0287C108.602 75.961 108.782 74.8283 108.782 73.6544C108.782 69.8708 106.922 66.5087 104.059 64.4109H111.423L113.325 68.9718C114.196 71.0597 113.461 73.5033 111.578 74.7823L108.27 77.0287ZM126.536 78.1766C127.179 74.9057 127.222 71.608 126.666 68.3335C131.896 70.3163 136.783 72.8633 141.392 76.0158C136.333 77.6234 131.291 78.3402 126.536 78.1766ZM55.8415 66.0244C51.5826 66.0244 48.1176 69.4473 48.1176 73.6544C48.1176 77.8618 51.5826 81.2847 55.8415 81.2847C60.1004 81.2847 63.5654 77.8618 63.5654 73.6544C63.5652 69.4473 60.1004 66.0244 55.8415 66.0244ZM55.8415 79.0244C52.8441 79.0244 50.4056 76.6156 50.4056 73.6544C50.4056 70.6938 52.8441 68.2847 55.8415 68.2847C58.8389 68.2847 61.2774 70.6935 61.2774 73.6544C61.2771 76.6153 58.8389 79.0244 55.8415 79.0244Z" fill="black"/>
</svg>
