<svg width="206" height="138" viewBox="0 0 206 138" fill="none" xmlns="http://www.w3.org/2000/svg">
<path d="M202.285 92.9725C197.185 84.9325 187.825 81.8225 178.805 80.9525C174.805 80.5625 170.315 80.5025 169.105 75.6125C168.355 72.5925 169.555 69.3725 170.115 66.4325C170.845 62.6425 170.865 58.9925 168.555 55.7325C157.635 40.2825 131.605 55.8025 121.425 64.6525C107.045 77.1625 97.3747 95.8125 97.3347 115.022C94.2147 103.042 98.8247 90.5125 104.135 79.6925C106.515 74.8325 109.265 70.1525 112.375 65.7125C115.925 60.6325 120.165 55.9225 122.735 50.2225C125.805 43.4125 126.195 34.2425 119.985 29.0025C114.225 24.1425 105.915 25.0025 98.9147 24.7625C94.0247 24.5925 88.5747 24.1125 84.9547 20.3925C81.3247 16.6725 80.6147 11.1725 77.9347 6.87248C73.8147 0.25248 65.6947 -0.887521 59.1147 2.89248C51.4147 7.32248 46.7547 16.6825 44.3047 24.8925C41.5547 34.1325 41.2747 43.9825 42.7447 53.4725C46.3647 76.9825 60.6847 96.4625 75.7747 114.142C67.8447 110.032 55.8847 104.512 52.5947 107.482C43.4747 101.272 35.0447 94.0025 28.0447 85.4425C24.4247 81.0125 21.1647 76.2825 18.3547 71.2925C15.2547 65.7925 11.3747 59.2825 13.2547 52.8425C14.8447 50.7725 18.8847 52.1425 20.3147 53.5825C21.5147 54.7925 22.1947 56.5825 21.3147 58.1925C20.1247 60.3625 16.9247 59.8725 17.0247 57.1325C17.0447 56.4625 16.0647 56.3625 15.8847 56.9825C15.2347 59.1825 17.3047 61.2625 19.4947 61.1525C21.9947 61.0225 23.5347 58.3525 23.2647 56.0425C22.9547 53.4625 20.6747 51.2625 18.2047 50.6525C16.1047 50.1325 14.5547 50.6225 13.4947 52.1125C13.5147 52.0625 13.5247 52.0125 13.5447 51.9725C13.7147 51.5125 13.0547 51.3125 12.8047 51.6625C9.77473 55.8725 11.3947 60.7525 13.3047 65.1125C16.1547 71.6125 19.9147 77.7825 24.1647 83.4425C31.7247 93.5225 41.1047 102.012 52.0747 108.172C51.8647 108.582 51.7447 109.062 51.7247 109.652C42.5747 108.842 33.7147 107.612 24.9447 104.542C15.7347 101.312 5.08473 96.8325 2.07473 86.9725C2.02473 83.6625 5.54473 80.1125 8.31473 83.6425C9.29473 84.8925 9.89473 87.2825 8.44473 88.4725C7.31473 89.3925 5.39473 88.9025 5.07473 87.4525C4.89473 86.6425 3.59473 86.8125 3.62473 87.6525C3.72473 90.0225 6.45473 91.0625 8.47473 90.2925C11.0447 89.3025 11.1447 86.0325 9.94473 83.9425C8.70473 81.7925 5.83473 80.2625 3.57473 81.8425C2.37473 82.6825 1.78473 84.0225 1.67473 85.4325C1.61473 85.1325 1.55473 84.8325 1.50473 84.5325C1.44473 84.1525 0.884731 84.2725 0.864731 84.6225C0.154731 95.1725 11.1547 100.922 19.4447 104.402C29.4747 108.622 40.8647 111.282 51.8447 110.772C52.8547 115.612 61.8647 119.042 65.5847 120.642C73.2847 123.962 81.5347 126.242 89.6147 128.402C107.395 133.152 125.605 136.032 143.955 137.382C144.495 137.422 144.495 136.582 143.955 136.542C128.205 135.332 112.645 132.832 97.2947 129.112C89.9147 127.322 82.6147 125.242 75.4047 122.862C71.8047 121.672 68.2047 120.422 64.7547 118.812C63.2647 118.122 61.8047 117.362 60.3947 116.522C57.7047 114.912 55.1947 113.982 55.2247 110.582C54.4847 108.492 55.0647 107.742 56.9647 108.332C58.3147 108.412 59.6447 108.642 60.9347 109.032C63.1047 109.602 65.1447 110.512 67.1547 111.502C70.3147 113.062 73.3147 114.932 76.4147 116.612C82.2547 119.772 88.3047 122.552 94.4847 124.952C107.595 130.052 121.405 133.632 135.465 134.532C135.995 134.562 136.125 133.682 135.595 133.602C117.315 130.612 99.5947 126.122 82.8847 117.942C82.2047 117.612 80.2047 116.482 77.5247 115.062C65.2747 99.5025 52.7047 83.0425 46.9347 63.8925C41.5147 45.8925 41.6347 20.9125 56.6347 7.16248C61.1147 3.05248 68.1447 0.732479 73.4447 4.74248C77.4047 7.73248 78.3347 12.9425 80.4247 17.1925C83.1847 22.7925 87.7647 25.6125 93.8747 26.4625C101.675 27.5525 111.985 25.0025 118.495 30.5225C127.915 38.5025 119.975 51.6025 114.445 59.0825C102.655 75.0125 88.7047 98.1025 96.8547 118.522C97.1447 119.242 98.1147 119.132 98.3247 118.602C98.4347 118.512 98.5147 118.382 98.5147 118.192C98.9647 100.592 105.515 83.8425 117.645 70.9725C123.295 64.9825 130.015 59.9925 137.465 56.4625C146.045 52.3925 165.525 46.4825 168.125 60.7225C169.325 67.3125 162.975 76.1725 170.065 81.2825C172.395 82.9625 175.385 83.0825 178.145 83.3425C183.685 83.8725 189.185 85.0225 193.935 88.0925C203.645 94.3825 206.265 107.572 196.825 115.312C189.325 121.452 178.605 122.902 169.275 123.372C157.215 123.992 145.985 121.342 134.255 119.122C124.825 117.342 115.155 116.982 106.485 121.662C105.605 122.142 106.385 123.442 107.265 123.002C119.435 116.902 132.595 121.032 145.095 123.572C156.215 125.832 167.565 126.292 178.815 124.612C186.855 123.412 195.855 120.842 201.315 114.382C206.535 108.212 206.585 99.7325 202.315 93.0125L202.285 92.9725Z" fill="black"/>
<path d="M106.494 38.8525C103.894 37.7825 101.084 38.0425 98.4244 38.7025C91.8544 40.3525 86.6344 42.1425 81.2144 36.6825C75.6444 31.0825 75.0744 20.7225 68.4444 16.2425C62.9044 12.4925 57.5844 19.5525 55.1544 23.8025C46.1544 39.5625 52.4044 57.9525 58.5144 73.4625C65.1944 90.3925 73.0644 108.543 88.6044 119.173C89.0344 119.473 89.5744 118.782 89.1644 118.442C77.3444 108.592 69.8344 95.6225 63.8744 81.6325C57.6444 67.0025 50.4244 50.4725 53.7644 34.2725C54.5344 30.5325 55.9344 26.8725 58.0144 23.6525C58.6644 22.6525 59.4144 21.6625 60.2044 20.7725C62.3044 18.3925 62.4344 18.3625 65.5844 18.8325C68.5444 19.2725 68.4944 19.1725 69.9344 21.3725C70.5544 22.3125 71.0944 23.3125 71.6244 24.3025C74.6044 29.8825 76.7144 36.2525 82.0944 40.0825C87.3844 43.8525 92.3044 42.1925 98.0844 40.6325C98.6944 40.4725 99.2944 40.3225 99.8844 40.1925C99.8744 40.5025 100.084 40.8425 100.474 40.8625C103.474 40.9825 105.664 42.0325 107.284 43.9925C107.314 44.1925 107.334 44.4125 107.364 44.6425C107.994 49.1625 108.204 47.2425 107.104 49.6525C105.514 53.1325 101.964 56.1925 99.3544 58.9125C88.6344 70.1125 82.1444 83.8025 84.2644 99.6125C84.3944 100.562 85.8844 100.613 85.7944 99.6125C84.8944 89.5925 86.6944 79.6425 91.8744 70.9225C96.2944 63.4725 103.524 58.4025 108.204 51.1825C111.034 46.8225 112.274 41.2025 106.494 38.8325V38.8525Z" fill="black"/>
<path d="M188.865 95.6822C185.935 90.8722 180.205 88.2522 174.935 86.9822C171.305 86.1122 167.525 85.9222 163.955 84.8022C161.075 83.8922 157.825 82.1722 156.305 79.4222C154.795 76.7022 155.385 73.7922 155.455 70.8922C155.555 66.7422 153.735 61.5222 148.585 62.6122C142.625 63.8722 136.565 68.7022 132.025 72.5822C119.475 83.3122 110.925 98.4922 104.625 113.542C104.475 113.902 105.085 114.152 105.255 113.802C112.385 99.3422 120.195 84.8622 132.575 74.1722C135.895 71.3022 139.505 68.7622 143.385 66.7022C145.985 65.3222 151.315 62.3322 153.355 67.2122C154.245 69.3522 153.425 71.8922 153.395 74.0922C153.295 80.2322 157.005 84.3022 162.695 86.2922C170.555 89.0422 179.745 87.9922 185.865 94.7422C193.955 103.652 184.365 114.602 174.845 116.342C164.855 118.162 154.605 113.602 144.995 111.482C135.955 109.492 126.785 108.392 117.535 108.262C116.525 108.252 116.525 109.812 117.535 109.822C127.255 109.972 136.905 111.162 146.355 113.462C154.885 115.532 163.475 119.032 172.405 118.422C183.035 117.702 195.775 107.032 188.865 95.6722V95.6822Z" fill="black"/>
<path d="M73.5845 84.0523C69.6645 75.6823 66.8645 66.9623 65.3745 57.8423C64.6245 53.2723 64.2245 48.6223 64.0645 43.9923C63.9145 39.5623 64.5245 35.0323 64.1145 30.6323C63.9645 28.9823 61.4345 28.3523 61.0245 30.2123C59.1345 38.7723 61.1545 49.0923 63.1645 57.5223C65.3845 66.8123 68.8945 75.7423 73.4245 84.1423C73.4845 84.2523 73.6445 84.1523 73.5945 84.0423L73.5845 84.0523Z" fill="black"/>
<path d="M95.5544 47.1025C87.2844 53.0725 81.9844 61.3625 80.6044 71.5425C80.5644 71.8125 80.9544 71.9425 81.0244 71.6625C83.4344 62.6625 89.2144 54.8225 97.3144 50.1225C99.2944 48.9725 97.3544 45.8025 95.5444 47.1025H95.5544Z" fill="black"/>
<path d="M144.115 74.6924C140.305 76.8024 136.925 80.6624 133.895 83.7724C130.775 86.9724 127.935 90.4224 125.275 94.0124C125.205 94.1024 125.355 94.2124 125.425 94.1324C128.185 90.9224 131.165 87.9624 134.455 85.2824C138.065 82.3524 142.265 80.5024 145.895 77.7424C147.645 76.4124 146.155 73.5824 144.125 74.7024L144.115 74.6924Z" fill="black"/>
<path d="M177.355 97.7123C166.775 94.3823 154.865 96.1023 144.395 98.9223C144.225 98.9623 144.255 99.2523 144.435 99.2323C155.375 97.8723 165.575 99.8723 176.335 101.392C178.705 101.722 179.765 98.4723 177.345 97.7123H177.355Z" fill="black"/>
</svg>
