<svg width="212" height="165" viewBox="0 0 212 165" fill="none" xmlns="http://www.w3.org/2000/svg">
<path d="M186.823 86.0261C181.599 84.6747 177.507 84.2812 172.14 84.3679C173.638 83.4332 175.178 82.5487 176.568 81.4573C184.02 75.6082 192.239 65.4011 194.371 55.9913C194.44 55.6845 194.496 55.3747 194.538 55.063C191.984 52.8242 188.424 51.7555 185.102 51.4029C185.816 45.8098 186.033 40.425 185.106 34.8334C175.765 33.1004 166.047 35.4111 157.395 38.9087C157.321 30.7591 156.183 23.7861 152.972 16.2522C152.071 14.1385 151.04 11.9238 149.754 10.0169C142.155 12.3882 134.983 16.4812 128.745 21.3804C127.281 22.5298 125.998 23.9078 124.546 25.0474C123.36 22.1368 122.026 19.1559 120.492 16.4113C117.238 10.5872 112.02 3.80037 106.344 0.181641C104.612 1.08731 102.969 2.46625 101.499 3.74817C101.097 4.10029 100.7 4.45783 100.309 4.82177C99.917 5.18572 99.5314 5.55507 99.1512 5.93034C98.771 6.30561 98.3963 6.6863 98.0274 7.07289C97.6585 7.45949 97.2956 7.85101 96.938 8.24844C96.581 8.64538 96.2293 9.04822 95.8841 9.456C95.5389 9.86377 95.2001 10.2765 94.8667 10.6946C94.5337 11.1122 94.2072 11.5352 93.8866 11.9627C93.5665 12.3902 93.2528 12.8226 92.945 13.2594C92.6377 13.6962 92.3368 14.138 92.0423 14.5837C91.7483 15.0299 91.4607 15.48 91.18 15.9346C90.8993 16.3891 90.6254 16.8481 90.358 17.3105C90.0911 17.7735 89.8311 18.2398 89.5779 18.7107C89.3248 19.181 89.0786 19.6552 88.8397 20.1334C88.6009 20.6111 88.3689 21.0923 88.1443 21.5774C87.9198 22.062 87.7021 22.55 87.4923 23.0415C87.2825 23.5325 87.0796 24.027 86.8846 24.5244C85.0191 22.6495 83.1713 20.7446 81.159 19.0249C80.6188 18.5629 80.0677 18.1148 79.5063 17.6789C78.9448 17.2436 78.3731 16.8215 77.791 16.4137C77.2093 16.0055 76.6179 15.6115 76.017 15.2313C75.4162 14.8511 74.807 14.4857 74.189 14.135C73.5709 13.7839 72.945 13.448 72.3107 13.1274C71.6768 12.8063 71.0351 12.5005 70.3865 12.2104C69.7379 11.9199 69.0829 11.6451 68.4211 11.386C67.7592 11.127 67.0919 10.8837 66.4181 10.6567C61.7435 16.4955 58.4306 25.0228 57.3979 32.4237C57.0399 34.9866 56.9739 37.5544 56.9163 40.1374C54.9646 39.1948 53.1325 38.0596 51.1306 37.2086C44.7496 34.4975 34.1795 31.9406 27.2592 33.2565C26.0383 38.1798 25.8694 43.081 26.2526 48.1244C26.3767 49.757 26.683 51.4004 26.7377 53.0339C23.8306 53.6239 20.2576 55.4087 18.174 57.5318C18.5507 59.7888 19.5219 62.0985 20.4911 64.1551C23.9113 71.4118 28.9538 77.6859 35.4998 82.3512C36.1913 82.8387 36.9014 83.2968 37.6303 83.7257C28.7421 82.3655 18.5674 85.4523 11.3704 90.7519C7.37193 93.6964 2.59243 97.5658 0.856934 102.359V103.287C1.0362 103.536 1.22432 103.759 1.4553 103.962C3.31095 105.589 6.08312 106.163 8.36526 106.983C9.69939 107.466 11.0099 108.005 12.2967 108.602C16.077 110.361 19.4529 112.748 23.1554 114.616C33.4433 119.805 45.0091 121.024 56.374 120.204C53.2473 123.217 50.6613 127.273 49.0016 131.282C45.7562 139.123 45.2558 148.47 48.5914 156.361C50.0516 159.817 52.157 163.256 55.7762 164.71C57.197 164.457 58.5153 163.771 59.8376 163.216C61.059 162.693 62.3104 162.256 63.5913 161.904C65.6415 161.357 67.7656 161.255 69.8566 160.943C74.2742 160.286 78.5814 159.083 82.5813 157.078C91.1376 152.791 99.0616 144.677 103.405 136.169C104.389 134.243 105.125 132.163 105.805 130.113C106.931 134.517 111.748 140.51 114.927 143.683C123.091 151.831 134.832 158.538 146.538 159.207C154.019 159.635 158.78 156.451 165.526 161.522C165.62 161.421 165.708 161.316 165.791 161.206C166.41 160.404 166.825 159.379 167.175 158.437C168.732 154.249 168.923 149.637 168.349 145.238C166.95 134.508 160.793 127.263 152.519 120.905C162.209 122.472 170.986 122.542 180.546 120.224C185.032 119.137 189.476 117.528 193.403 115.061C195.588 113.686 197.679 112.179 199.675 110.541C201.668 108.916 203.598 107.181 205.708 105.709C207.521 104.446 209.553 103.75 211.428 102.632V101.735C210.852 100.756 210.289 99.813 209.524 98.965C204.673 93.5881 193.819 87.8359 186.821 86.0256L186.823 86.0261ZM193.008 55.5091C192.51 57.3574 191.423 59.3451 190.533 61.0451C186.544 68.6554 181.272 75.2536 174.367 80.4246C172.73 81.6612 171.072 82.9215 169.21 83.802C177.815 74.7956 182.145 65.145 184.855 53.1054C187.612 53.6909 190.402 54.4365 193.008 55.5091ZM157.335 40.8761C158.852 40.3979 160.322 39.7838 161.85 39.3273C167.451 37.6553 173.106 36.8437 178.944 36.6994C180.276 36.7068 181.605 36.758 182.934 36.8531C184.169 47.2651 182.055 57.843 177.574 67.2784C177.366 67.7113 177.152 68.1417 176.933 68.5697C176.714 68.9976 176.49 69.4226 176.261 69.8447C176.032 70.2668 175.797 70.6863 175.557 71.103C175.318 71.5196 175.073 71.9333 174.824 72.344C174.574 72.7548 174.32 73.1625 174.06 73.5668C173.801 73.9712 173.536 74.3726 173.267 74.7705C172.997 75.1684 172.724 75.5634 172.445 75.9544C172.166 76.3454 171.882 76.7335 171.594 77.1181C171.306 77.5027 171.013 77.8834 170.715 78.2607C170.417 78.6379 170.115 79.0117 169.808 79.3815C169.501 79.7514 169.19 80.1173 168.874 80.4798C168.559 80.8422 168.239 81.2008 167.914 81.5548C167.589 81.9094 167.261 82.2601 166.928 82.6063C166.595 82.9525 166.258 83.2953 165.917 83.6336C165.575 83.9719 165.23 84.3058 164.88 84.6358C164.531 84.9658 164.178 85.2913 163.82 85.6124C163.463 85.9335 163.102 86.2506 162.736 86.5629C162.371 86.8756 162.002 87.1834 161.63 87.4868C161.257 87.7901 160.881 88.0891 160.501 88.3836C160.121 88.6776 159.737 88.9671 159.351 89.2523C158.964 89.5374 158.574 89.8177 158.18 90.0929C157.786 90.3682 157.389 90.6391 156.989 90.9046C156.589 91.17 156.185 91.431 155.778 91.6871C155.372 91.9432 154.962 92.1939 154.549 92.4401C154.136 92.6859 153.721 92.9272 153.302 93.1631C152.884 93.399 152.462 93.6294 152.038 93.855C151.613 94.0806 151.186 94.3007 150.757 94.5159C150.327 94.7311 149.895 94.9409 149.46 95.1458C149.025 95.3507 148.588 95.5496 148.148 95.7437C147.709 95.9377 147.267 96.1258 146.823 96.309C146.378 96.4922 145.932 96.67 145.483 96.8424C145.034 97.0147 144.584 97.1817 144.131 97.3427C145.842 94.9941 147.489 92.5696 148.793 89.9684C151.146 85.2056 153.03 80.4793 154.336 75.3196C154.626 74.1716 155.015 72.9685 155.113 71.789C155.146 71.396 155.148 71.0178 154.883 70.7041C154.56 70.6386 154.222 71.0715 154.007 71.297C153.396 71.9392 152.788 72.6765 152.041 73.1635C150.14 74.4046 145.757 75.0315 143.444 75.5279C148.846 69.9457 152.721 62.1719 154.872 54.768C155.58 52.3292 156.071 49.7905 156.519 47.2921C156.901 45.1612 156.999 43.0086 157.334 40.8756L157.335 40.8761ZM98.1101 65.2218C97.0986 67.5911 95.861 69.8531 94.7844 72.1918C92.4043 77.3648 92.0349 82.2788 93.2602 87.8177C93.2646 87.9152 93.2425 88.0196 93.2302 88.1166C93.1691 88.0955 93.1051 88.0817 93.0474 88.0526C92.879 87.9689 92.6421 87.6473 92.5092 87.5045C91.0948 85.9827 90.5462 83.8015 90.0153 81.8336C87.4224 72.2239 88.889 59.4106 93.8413 50.7828C94.1028 51.0039 95.7694 54.4193 96.2732 55.1718C95.7861 59.1269 96.3357 61.7114 98.1096 65.2218H98.1101ZM115.944 54.4631C117.086 53.3491 117.748 51.986 118.481 50.5917C118.512 50.608 118.547 50.6169 118.574 50.6395C119.132 51.1079 119.626 52.6198 119.92 53.2979C122.38 58.9723 123.942 65.239 123.942 71.4551C123.942 75.1167 122.577 83.0781 120.569 86.1374C120.099 86.8544 119.322 87.4996 118.716 88.1058L118.264 88.5796C118.157 88.321 118.525 86.3545 118.578 85.8778C118.811 83.7749 118.773 81.6844 118.564 79.5825C118.014 74.0519 116.052 69.6915 114.134 64.5826C116.039 61.0185 115.987 58.4029 115.945 54.4626L115.944 54.4631ZM123.432 60.2483C125.855 53.8618 128.31 49.4088 133.745 45.0189C135.112 43.9152 136.692 42.7293 138.29 41.9975L138.362 42.0714C138.37 42.8022 138.076 43.5872 137.945 44.3107C137.783 45.2085 137.686 46.1166 137.598 47.0242C137.23 50.8153 137.256 54.6355 136.782 58.4157C136.73 58.86 136.671 59.3032 136.605 59.7454C136.538 60.1877 136.465 60.6289 136.384 61.0687C136.302 61.5085 136.214 61.9468 136.118 62.3837C136.023 62.8205 135.92 63.2553 135.809 63.6887C135.699 64.1221 135.581 64.5535 135.456 64.9829C135.332 65.4124 135.2 65.8394 135.061 66.2644C134.921 66.6894 134.776 67.1119 134.622 67.532C134.469 67.9521 134.309 68.3697 134.142 68.7844C133.975 69.1991 133.801 69.6113 133.62 70.02C133.439 70.4288 133.251 70.8346 133.056 71.2374C132.862 71.6403 132.66 72.0392 132.453 72.4351C132.245 72.8311 132.031 73.2236 131.809 73.6122C131.588 74.0007 131.361 74.3858 131.127 74.767C130.893 75.1482 130.653 75.5254 130.407 75.8982C130.16 76.2715 129.907 76.6404 129.649 77.0048C129.39 77.3693 129.125 77.7298 128.855 78.0853C127.951 79.2919 127.016 80.5428 125.945 81.6046C124.892 82.6472 123.67 83.5272 122.502 84.4349L122.807 83.5085C125.583 75.5831 125.481 68.3298 123.433 60.2473L123.432 60.2483ZM113.668 63.4533C112.599 61.5981 111.842 59.5017 110.928 57.5608C110.331 56.2946 106.941 49.4201 106.191 48.9937C105.898 48.9956 105.891 49.0399 105.661 49.232C103.042 54.0071 101.03 59.1653 98.6765 64.0797C97.1178 61.1155 96.9203 58.7807 97.2246 55.4692C97.7024 50.2731 99.6698 45.5749 102.419 41.1918C104.201 38.3512 105.331 36.9772 106.156 33.6362C106.428 34.0784 106.547 34.6463 106.728 35.1328C107.006 35.8883 107.342 36.6167 107.737 37.318C108.624 38.8683 109.776 40.2512 110.772 41.7316C111.905 43.4178 112.823 45.4005 113.513 47.3109C115.185 51.9382 115.832 58.8541 113.668 63.4523L113.668 63.4533ZM88.0498 66.0221C87.2864 71.9727 87.7223 78.2144 89.5888 83.9237L89.9936 84.9564L89.9296 84.9008L89.8217 84.8096C88.5812 83.7493 87.0348 82.9678 85.9159 81.7903C85.1934 81.0304 84.5571 80.1326 83.9327 79.2899C79.1925 72.8912 75.6088 64.195 74.8971 56.2523C74.744 54.5424 74.8065 52.8256 74.7499 51.1118C74.6401 47.7984 74.1028 44.7667 73.1769 41.5878C80.834 44.9622 85.8361 52.9487 89.0239 60.3404C88.7693 62.2418 88.295 64.1127 88.0503 66.0221H88.0498ZM92.6953 89.1474C93.6483 90.285 94.4899 91.5586 95.3424 92.7755C96.6938 94.706 98.0944 96.7399 99.0779 98.8862C98.6046 99.1029 98.1397 99.3358 97.6826 99.5855C97.2256 99.8352 96.7785 100.1 96.3406 100.381C95.9023 100.663 95.4749 100.959 95.0577 101.27C94.6406 101.581 94.2348 101.907 93.8408 102.247C91.9502 103.805 90.325 105.75 88.8565 107.698C83.9647 107.856 79.5343 105.943 75.6644 103.081C68.8421 98.0337 64.4226 90.7775 61.3013 83.0022C59.9445 79.6229 58.8384 76.2922 58.2962 72.6789C59.8046 73.2891 61.057 74.3612 62.6453 74.9C67.2844 76.474 72.2131 77.0674 76.8306 78.7787C82.8876 81.024 88.496 84.1325 92.6953 89.1469V89.1474ZM97.7757 94.5696C96.7908 92.9971 95.4837 91.3803 94.8499 89.6349C93.4606 85.8089 93.1509 81.284 94.0127 77.3062C94.878 73.3132 97.596 68.9129 99.3679 65.174C101.655 60.3468 103.811 55.451 106.08 50.6129C106.798 51.4132 107.496 53.0935 108 54.0662C110.443 58.7354 112.618 63.5272 114.523 68.4406C115.236 70.319 115.958 72.1825 116.454 74.1332C117.646 78.8216 118.065 84.8308 116.734 89.4897C116.269 91.1198 115.404 92.3593 114.569 93.8072C113.679 95.3497 112.849 96.9822 112.309 98.6803C110.013 97.9081 107.839 97.5865 105.416 97.5515C103.565 97.6362 101.803 97.9431 100.012 98.3976C99.2793 97.1162 98.5588 95.821 97.7757 94.5701V94.5696ZM115.848 93.5792C123.154 81.9671 133.314 79.0885 145.902 76.1051C148.694 75.4432 151.5 75.1329 153.722 73.1532L153.791 73.2576C153.593 74.8473 152.985 76.4996 152.512 78.0253C150.155 85.6208 145.714 95.4659 139.533 100.669C134.862 104.602 129.819 108.071 123.409 107.516C122.772 106.857 122.233 106.097 121.628 105.407C120.655 104.298 119.574 103.298 118.443 102.355C118.045 102.013 117.636 101.688 117.214 101.378C116.792 101.067 116.359 100.773 115.915 100.496C115.47 100.218 115.017 99.9578 114.553 99.7145C114.089 99.4712 113.617 99.2457 113.136 99.0378C114.083 97.2339 114.756 95.3147 115.848 93.5797L115.848 93.5792ZM125.083 27.9402C125.552 27.465 126.028 26.9966 126.511 26.5361C126.994 26.0757 127.485 25.6231 127.982 25.1779C128.48 24.7332 128.985 24.2963 129.496 23.8674C130.008 23.4384 130.526 23.0179 131.051 22.6052C131.576 22.1925 132.107 21.7886 132.645 21.3932C133.182 20.9977 133.726 20.6106 134.276 20.2319C134.826 19.8537 135.382 19.4838 135.944 19.1234C136.505 18.7629 137.073 18.4107 137.646 18.068C138.219 17.7252 138.797 17.3913 139.38 17.0668C139.964 16.7422 140.552 16.4275 141.145 16.1212C141.739 15.8154 142.337 15.5189 142.94 15.2318C144.805 14.3498 146.744 13.6268 148.676 12.9058C149.175 13.4938 149.526 14.5674 149.851 15.2919C152.447 21.0819 154.187 27.5373 154.776 33.8568C154.817 34.3281 154.852 34.7994 154.881 35.2717C154.91 35.7435 154.933 36.2163 154.951 36.6886C154.968 37.1614 154.98 37.6341 154.985 38.1069C154.991 38.5797 154.992 39.0525 154.986 39.5258C154.981 39.9985 154.969 40.4713 154.952 40.9441C154.935 41.4169 154.912 41.8892 154.884 42.3609C154.855 42.8327 154.82 43.3045 154.78 43.7758C154.74 44.2471 154.694 44.718 154.642 45.1878C154.591 45.6581 154.533 46.1274 154.469 46.5958C154.406 47.0646 154.337 47.5325 154.263 47.9993C154.188 48.4662 154.107 48.9321 154.021 49.3975C153.935 49.8624 153.843 50.3263 153.746 50.7892C153.648 51.2522 153.545 51.7136 153.437 52.1736C153.328 52.6336 153.214 53.0926 153.093 53.5501C152.973 54.0076 152.848 54.4636 152.717 54.9177C152.586 55.3722 152.449 55.8248 152.306 56.2759C152.164 56.727 152.016 57.1762 151.863 57.6238C151.71 58.071 151.551 58.5167 151.387 58.9599C151.222 59.4037 151.053 59.8449 150.878 60.2842C150.703 60.7235 150.523 61.1603 150.337 61.5957C150.151 62.0305 149.96 62.4634 149.764 62.8934C149.567 63.3238 149.366 63.7518 149.159 64.1768C148.952 64.6018 148.74 65.0248 148.523 65.4449C148.306 65.865 148.084 66.2826 147.856 66.6973C147.629 67.1119 147.397 67.5236 147.159 67.9329C146.922 68.3421 146.679 68.7479 146.432 69.1513C146.185 69.5546 145.933 69.9545 145.675 70.3515C145.418 70.7484 145.156 71.1419 144.889 71.5324C144.622 71.923 144.351 72.3101 144.075 72.6937C143.798 73.0773 143.517 73.458 143.232 73.8348C142.946 74.212 142.656 74.5853 142.361 74.9547C142.066 75.3245 141.767 75.6909 141.463 76.0534C136.775 77.256 132.331 78.8876 127.897 80.8063C133.519 74.1618 136.916 66.4968 137.911 57.8287C138.244 54.9275 138.305 51.9795 138.443 49.0636C138.538 47.5527 138.681 46.0353 138.961 44.5461C139.159 43.4946 139.454 42.4397 139.597 41.3819C139.636 41.0889 139.739 40.6841 139.585 40.4329C139.261 40.3034 139.031 40.3561 138.721 40.4866C137.466 41.014 136.169 41.9655 135.042 42.7367C128.977 46.8844 125.696 51.787 122.995 58.4852C122.309 56.4975 120.192 50.3066 118.78 49.0848C118.578 48.9099 118.465 48.8814 118.206 48.8996C117.828 49.3886 117.578 50.083 117.297 50.6425C116.889 51.4556 116.453 52.2376 115.961 53.0029C115.648 51.5713 115.417 50.1229 115.024 48.7085C114.598 47.1764 113.986 45.7216 113.37 44.2599C114.1 43.2011 114.692 42.0241 115.331 40.9067C116.368 39.0904 117.441 37.3076 118.647 35.5968C119.035 35.0536 119.431 34.5163 119.835 33.9854C120.24 33.4545 120.653 32.93 121.074 32.4119C121.496 31.8943 121.925 31.3831 122.363 30.8788C122.8 30.3745 123.246 29.8776 123.699 29.3871C124.152 28.8971 124.613 28.414 125.082 27.9387L125.083 27.9402ZM106.003 2.90061C106.121 2.91145 106.158 2.90702 106.281 2.96168C107.278 3.40442 108.568 4.86659 109.358 5.67278C109.727 6.05346 110.091 6.43957 110.45 6.8301C110.808 7.22064 111.161 7.61659 111.508 8.01697C111.856 8.41736 112.198 8.82267 112.534 9.2329C112.87 9.64314 113.201 10.0573 113.525 10.4764C113.85 10.8955 114.169 11.319 114.482 11.747C114.795 12.175 115.103 12.6074 115.404 13.0437C115.705 13.48 116 13.9203 116.289 14.365C116.578 14.8092 116.861 15.2579 117.138 15.7105C117.414 16.1626 117.685 16.6186 117.949 17.0786C118.213 17.5386 118.471 18.002 118.722 18.4688C118.973 18.9357 119.218 19.406 119.457 19.8798C119.695 20.3536 119.927 20.8303 120.152 21.3104C120.377 21.7906 120.596 22.2732 120.807 22.7598C121.019 23.2459 121.225 23.7349 121.423 24.2264C121.622 24.7184 121.813 25.2124 121.998 25.7093C122.182 26.2062 122.36 26.706 122.532 27.2079C118.504 31.75 114.936 36.6827 112.158 42.093C110.845 40.1029 109.231 38.2079 108.202 36.0518C107.847 35.3042 107.545 34.5355 107.294 33.7465C107.098 33.1319 107.007 32.0691 106.661 31.552C106.505 31.3196 106.459 31.3176 106.204 31.2812C105.648 31.6067 105.575 32.3119 105.416 32.8955C105.069 34.1489 104.735 35.4091 104.153 36.5788C103.586 37.7193 102.807 38.7181 102.101 39.772C101.212 41.0766 100.426 42.4397 99.7422 43.8625C96.8518 37.7381 93.044 32.1341 88.7161 26.9414C91.8054 17.1884 98.2973 9.41906 106.004 2.90012L106.003 2.90061ZM58.3479 40.6688C58.3538 40.2827 58.3642 39.8966 58.3794 39.5105C58.3947 39.1244 58.4144 38.7388 58.4395 38.3532C58.4641 37.9675 58.4932 37.5824 58.5272 37.1978C58.5611 36.8132 58.6 36.4286 58.6429 36.0449C58.6862 35.6613 58.734 35.2776 58.7867 34.895C58.8394 34.5123 58.8965 34.1302 58.9586 33.749C59.0206 33.3678 59.0871 32.9871 59.158 32.6079C59.2289 32.2282 59.3048 31.8495 59.3851 31.4718C59.4653 31.094 59.5505 30.7173 59.6397 30.3415C59.7293 29.9658 59.8234 29.591 59.9219 29.2177C60.0204 28.8444 60.1233 28.4721 60.2311 28.1012C60.339 27.7304 60.4508 27.3605 60.5675 26.9927C60.6842 26.6243 60.8054 26.2574 60.9309 25.8925C61.0565 25.527 61.1865 25.1631 61.321 24.8011C61.4554 24.4392 61.5943 24.0787 61.7371 23.7201C61.8804 23.3616 62.0277 23.0046 62.1794 22.649C62.3311 22.2939 62.4872 21.9403 62.6477 21.5892C62.8083 21.2376 62.9728 20.8884 63.1417 20.5407C63.3106 20.1935 63.4835 19.8483 63.6608 19.505C63.838 19.1618 64.0193 18.8205 64.2049 18.4821C64.3906 18.1433 64.5802 17.807 64.7738 17.4726C64.9673 17.1387 65.1653 16.8067 65.3672 16.4773C65.5691 16.1478 65.775 15.8213 65.9848 15.4967C66.1946 15.1722 66.4083 14.8506 66.626 14.5315C66.8436 14.2124 67.0648 13.8957 67.2903 13.582L67.4149 13.6258C74.7445 16.2113 82.0667 21.2962 87.3367 26.9882C92.1684 32.207 96.1245 38.526 99.1995 44.9164C97.9215 47.7413 96.8124 50.5656 96.4677 53.6747C95.7236 52.2159 95.0469 50.7203 94.2777 49.2763C94.0684 49.1862 94.0363 49.1759 93.8231 49.2675C92.4914 49.8373 90 56.9437 89.4696 58.5896C88.8786 57.4416 88.3172 56.2774 87.6927 55.1472C84.726 49.7757 80.5203 44.2196 75.0025 41.2977C74.2756 40.9131 73.4626 40.4329 72.6623 40.228C72.3574 40.1502 72.1673 40.1409 71.8945 40.298C71.9221 41.6178 72.5658 43.0425 72.8795 44.3254C73.2468 45.8265 73.4581 47.337 73.6285 48.87C73.7876 51.4644 73.66 54.1144 73.9215 56.6911C74.8115 65.4764 78.5587 73.2551 83.3983 80.5133C79.3728 78.6561 75.4098 77.257 71.1632 76.0125C70.6569 75.2157 70.0009 74.4853 69.4498 73.7146C68.4979 72.3839 67.6168 70.9917 66.7515 69.6034C62.9777 63.5474 59.9977 55.8189 58.9138 48.7523C58.8542 48.3707 58.799 47.9885 58.7488 47.6054C58.6985 47.2222 58.6527 46.8391 58.6119 46.4549C58.571 46.0708 58.5345 45.6862 58.503 45.3015C58.4715 44.9164 58.4444 44.5313 58.4218 44.1457C58.3996 43.7601 58.3819 43.374 58.3691 42.9884C58.3563 42.6023 58.3479 42.2162 58.3445 41.8301C58.341 41.444 58.342 41.0574 58.3479 40.6713V40.6688ZM28.5534 43.0361C28.5643 42.5245 28.5825 42.0133 28.6086 41.5021C28.6347 40.9909 28.6677 40.4807 28.7086 39.9705C28.7879 38.8417 28.7765 36.794 29.201 35.7829L29.4827 35.68C39.2501 35.0934 49.1011 38.1394 57.3767 43.2243C57.4156 43.7931 57.4634 44.3609 57.5191 44.9277C57.5747 45.4951 57.6382 46.0614 57.7106 46.6268C57.7825 47.1922 57.8628 47.7565 57.9515 48.3195C58.0401 48.8828 58.1366 49.4443 58.241 50.0042C58.3459 50.5647 58.4587 51.1231 58.5794 51.6801C58.7005 52.2371 58.829 52.7921 58.9664 53.3452C59.1034 53.8987 59.2486 54.4498 59.4018 54.9989C59.555 55.548 59.716 56.0947 59.8849 56.6389C60.0538 57.1831 60.2306 57.7253 60.4153 58.2641C60.6 58.8033 60.7926 59.3396 60.9925 59.8735C61.1925 60.4068 61.4008 60.9377 61.616 61.4652C61.8317 61.9926 62.0548 62.5171 62.2858 63.0382C62.5167 63.5592 62.7551 64.0768 63.0008 64.5909C63.2466 65.1051 63.5002 65.6158 63.7607 66.1225C64.0213 66.6293 64.2896 67.1321 64.5649 67.6315C64.8402 68.1304 65.1229 68.6253 65.4125 69.1163C66.7644 71.4024 68.3275 73.5861 69.8975 75.7264C66.6964 75.0069 63.2825 74.3991 60.4188 72.7223C59.5003 72.1845 58.8064 71.3487 57.9086 70.842C57.6614 70.9321 57.5072 71.0931 57.4058 71.3389C56.4267 73.7077 60.7625 84.295 61.9366 86.8539C63.5923 90.4461 65.7651 93.6314 67.9109 96.9305C66.0187 96.0362 64.04 95.3255 62.1104 94.5159C48.3245 88.7362 38.1006 77.7879 32.4573 64.0133C32.2633 63.54 32.0761 63.0638 31.8959 62.5846C31.7156 62.1059 31.5428 61.6242 31.3768 61.1406C31.2108 60.6565 31.0518 60.1705 30.9001 59.6814C30.7484 59.1929 30.6036 58.7019 30.4662 58.2094C30.3288 57.7164 30.1988 57.2215 30.0757 56.7251C29.9531 56.2282 29.8373 55.7298 29.729 55.2299C29.6206 54.73 29.5197 54.2282 29.4261 53.7254C29.3325 53.2226 29.2464 52.7183 29.1676 52.2125C29.0888 51.7067 29.0174 51.2004 28.9533 50.6927C28.8893 50.185 28.8332 49.6767 28.7839 49.1675C28.7347 48.6583 28.6933 48.1481 28.6593 47.6379C28.6253 47.1272 28.5987 46.6165 28.5795 46.1053C28.5603 45.5941 28.5485 45.0824 28.5446 44.5707C28.5406 44.059 28.5441 43.5473 28.5549 43.0356L28.5534 43.0361ZM36.6951 79.5125C34.7966 78.1523 32.9281 76.7286 31.2591 75.0891C26.9814 70.8863 22.131 63.5735 20.4989 57.8115C22.4467 56.3986 24.7786 55.6997 27.0405 54.9664C27.1592 55.0585 27.112 55.0014 27.1839 55.1693C27.5118 55.9356 27.6192 56.9245 27.8256 57.7396C28.1974 59.2091 28.6554 60.6792 29.1474 62.1128C29.4621 63.0367 29.8004 63.9522 30.1619 64.8588C30.5233 65.7655 30.9075 66.6628 31.3148 67.5497C31.7216 68.4372 32.151 69.3133 32.6026 70.1786C33.0542 71.0439 33.5275 71.8974 34.0229 72.739C34.5178 73.5802 35.034 74.4085 35.5713 75.2235C36.1086 76.0386 36.666 76.8394 37.2437 77.6264C37.8219 78.4133 38.4193 79.1846 39.0363 79.941C39.6534 80.6974 40.2897 81.4376 40.9442 82.1616C39.5175 81.2968 38.077 80.4478 36.6946 79.513L36.6951 79.5125ZM52.449 117.178C41.9858 117.436 31.3901 116.074 22.1054 110.958C20.6615 110.162 19.3224 109.177 17.8864 108.363C13.2605 105.74 8.09834 103.616 2.86871 102.613C3.82658 101.112 4.85832 99.6456 6.0713 98.3375C12.3036 91.6182 22.9791 86.4737 32.1914 86.1556C36.0061 86.1305 39.4761 86.6057 43.1249 87.7448C44.2404 88.093 45.3529 88.4417 46.3895 88.9888C47.7448 89.7039 48.9327 90.8007 50.2304 91.6251C53.1926 93.4684 56.2598 95.1172 59.4309 96.572C62.3719 97.8894 65.3987 99.0767 68.4171 100.203C69.5449 100.623 70.914 100.857 71.9546 101.442C73.0991 102.085 74.0457 103.182 75.0971 103.978C78.9601 106.904 83.4067 108.686 88.266 108.836C88.0389 109.412 87.8631 110.01 87.6735 110.599C85.2589 111.545 82.7931 112.269 80.3001 112.971C78.5489 113.476 76.7858 113.936 75.0114 114.352C73.237 114.769 71.4528 115.14 69.6596 115.466C67.8665 115.792 66.066 116.073 64.2586 116.309C62.4512 116.544 60.6389 116.734 58.8222 116.878C56.7321 117.112 54.5533 117.126 52.4495 117.178H52.449ZM98.3278 139.572C92.6889 147.985 83.7539 155.094 73.8349 157.592C70.4353 158.448 66.9845 158.602 63.5667 159.277C61.0024 159.952 58.6779 160.993 56.2736 162.086C55.2384 161.402 54.2928 160.664 53.4758 159.723C49.4715 155.111 48.4412 147.742 48.9125 141.819C49.5739 133.512 53.9072 125.348 60.2538 119.954C69.9399 118.95 78.6168 116.703 87.3687 112.427L87.475 112.476C87.606 113.063 87.7725 113.522 88.0921 114.035C91.015 118.724 99.5831 121.685 104.806 122.907C103.703 129.04 101.809 134.378 98.3273 139.572H98.3278ZM104.182 121.68C99.5319 120.634 94.5534 118.798 90.8077 115.765C89.7301 114.893 88.7092 113.799 88.5959 112.348C88.4068 109.927 90.0478 107.716 91.5533 105.999C94.0555 103.144 97.5492 100.2 101.281 99.1619C102.614 98.7911 103.998 98.6793 105.373 98.5921C108.302 98.5109 111.127 99.2304 113.77 100.461C117.236 102.076 122.348 106.766 123.652 110.384C124.016 111.397 124.209 112.556 123.697 113.553C123.11 114.697 121.848 115.582 120.817 116.296C116.675 119.168 112.246 120.804 107.441 122.217C106.357 122.192 105.239 121.918 104.182 121.68ZM161.623 133.809C165.276 139.616 167.296 146.939 166.44 153.781C166.208 155.64 165.568 157.427 165.152 159.251C164.754 158.723 164.299 158.24 163.773 157.838C161.488 156.094 158.174 155.264 155.333 155.34C154.264 155.37 153.186 155.549 152.127 155.691C151.347 155.764 150.565 155.843 149.782 155.886C138.426 156.507 127.286 151.074 118.978 143.648C114.32 139.483 109.26 133.927 107.638 127.763C107.241 126.253 107.163 124.729 107.076 123.18C111.821 122.532 117.772 119.608 121.72 116.844C123.157 115.838 124.694 114.554 125.012 112.735C126.207 113.163 127.356 113.697 128.537 114.16C131.213 115.215 133.917 116.192 136.649 117.092C138.574 117.728 140.516 118.308 142.476 118.83C144.005 119.231 145.66 119.51 147.123 120.104C148.245 120.559 149.249 121.344 150.225 122.05C154.641 125.242 158.711 129.18 161.623 133.809ZM196.569 109.586C185.972 117.651 176.031 119.443 162.994 119.281C152.564 118.824 142.512 116.194 132.561 113.209C130.014 112.445 127.445 111.74 124.917 110.919L124.034 108.631C125.051 108.615 126.078 108.641 127.087 108.5C131.109 107.937 134.833 105.8 137.993 103.336C138.91 102.621 139.832 101.604 140.86 101.071C141.602 100.686 142.503 100.46 143.298 100.193C144.589 99.7726 145.863 99.3062 147.12 98.7941C152.252 96.6794 157.15 93.789 161.623 90.5145C162.776 89.6704 164.076 88.7894 164.947 87.6448C166.677 87.4749 168.423 87.3966 170.158 87.2804C171.984 87.0869 173.973 87.173 175.813 87.2218C186.074 87.4956 196.447 91.5049 204.658 97.5762C206.235 98.7424 207.81 99.9209 209.163 101.349C203.612 103.641 201.147 106.101 196.569 109.586Z" fill="black"/>
</svg>
