<svg width="170" height="209" viewBox="0 0 170 209" fill="none" xmlns="http://www.w3.org/2000/svg">
<path d="M97.3303 117.558V65.8534C97.3303 64.8505 96.5213 64.0409 95.5192 64.0409H22.2144C21.2123 64.0409 20.4033 64.8505 20.4033 65.8534V117.558C20.4033 118.561 21.2122 119.37 22.2144 119.37H95.5192C96.5213 119.37 97.3303 118.561 97.3303 117.558ZM93.7081 115.745H24.0258V67.6662H93.7081V115.745Z" fill="black"/>
<path d="M87.3028 136.837H77.2033L72.0056 126.621H97.9329C101.597 126.621 104.573 123.642 104.573 119.975V63.4369C104.573 59.7757 101.597 56.7911 97.9329 56.7911H19.7987C16.1343 56.7911 13.1582 59.7757 13.1582 63.4369V119.975C13.1582 123.642 16.1343 126.621 19.7987 126.621H45.7259L40.5283 136.837H30.4287C27.1086 136.837 24.4041 139.544 24.4041 142.866C24.4041 146.189 27.1086 148.896 30.4287 148.896H87.3013C90.6214 148.896 93.3259 146.189 93.3259 142.866C93.3259 139.544 90.623 136.837 87.3028 136.837ZM16.7813 119.975V63.4376C16.7813 61.7701 18.1335 60.4168 19.7996 60.4168H97.9338C99.5999 60.4168 100.952 61.7701 100.952 63.4376V119.975C100.952 121.643 99.5999 122.996 97.9338 122.996H19.7996C18.1335 122.996 16.7813 121.643 16.7813 119.975ZM49.7896 126.621H67.9419L73.1456 136.838H44.5912L49.7948 126.621H49.7896ZM87.3013 145.272H30.4287C29.1006 145.272 28.0261 144.191 28.0261 142.868C28.0261 141.539 29.1067 140.463 30.4287 140.463H87.3013C88.6293 140.463 89.7039 141.545 89.7039 142.868C89.7039 144.197 88.6233 145.272 87.3013 145.272Z" fill="black"/>
<path d="M150.195 36.7021H86.2C82.5357 36.7021 79.5596 39.6807 79.5596 43.348V51.3531C79.5596 52.356 80.3685 53.1656 81.3706 53.1656C82.3727 53.1656 83.1817 52.3561 83.1817 51.3531V43.348C83.1817 41.6805 84.5339 40.3272 86.2 40.3272H150.195C151.861 40.3272 153.214 41.6805 153.214 43.348V142.249C153.214 143.916 151.861 145.269 150.195 145.269H97.9528C96.9507 145.269 96.1418 146.079 96.1418 147.082C96.1418 148.085 96.9507 148.894 97.9528 148.894H150.195C153.86 148.894 156.836 145.916 156.836 142.249V43.348C156.836 39.6807 153.86 36.7021 150.195 36.7021Z" fill="black"/>
<path d="M147.175 53.0147C147.175 49.3474 144.199 46.3689 140.535 46.3689H95.8573C93.0864 46.3689 90.5811 48.1149 89.6213 50.7189C89.2772 51.6614 89.7601 52.7004 90.6958 53.0449C91.6255 53.3953 92.6758 52.9119 93.0199 51.9695C93.4546 50.7853 94.5955 49.9879 95.8571 49.9879H140.535C142.201 49.9879 143.553 51.3412 143.553 53.0087V61.0138C143.553 62.6813 142.201 64.0346 140.535 64.0346H110.007C109.005 64.0346 108.196 64.8442 108.196 65.8471C108.196 66.85 109.005 67.6596 110.007 67.6596H140.535C144.199 67.6596 147.175 64.6811 147.175 61.0138V53.0087L147.175 53.0147Z" fill="black"/>
<path d="M147.175 79.9604C147.175 76.2931 144.199 73.3146 140.535 73.3146H110.007C109.005 73.3146 108.196 74.1242 108.196 75.1271C108.196 76.13 109.005 76.9396 110.007 76.9396H140.535C142.201 76.9396 143.553 78.2929 143.553 79.9604V87.9655C143.553 89.633 142.201 90.9863 140.535 90.9863H110.007C109.005 90.9863 108.196 91.7959 108.196 92.7988C108.196 93.8018 109.005 94.6113 110.007 94.6113H140.535C144.199 94.6113 147.175 91.6328 147.175 87.9655V79.9604Z" fill="black"/>
<path d="M139.328 101.214C135 101.214 131.48 104.737 131.48 109.069C131.48 113.4 135 116.923 139.328 116.923C143.657 116.923 147.176 113.4 147.176 109.069C147.176 104.737 143.657 101.214 139.328 101.214ZM139.328 113.298C136.998 113.298 135.102 111.401 135.102 109.069C135.102 106.736 136.998 104.839 139.328 104.839C141.658 104.839 143.554 106.736 143.554 109.069C143.554 111.401 141.658 113.298 139.328 113.298Z" fill="black"/>
<path d="M139.328 123.52C135 123.52 131.48 127.042 131.48 131.374C131.48 135.706 135 139.228 139.328 139.228C143.657 139.228 147.176 135.706 147.176 131.374C147.176 127.042 143.657 123.52 139.328 123.52ZM139.328 135.603C136.998 135.603 135.102 133.706 135.102 131.374C135.102 129.042 136.998 127.145 139.328 127.145C141.658 127.145 143.554 129.042 143.554 131.374C143.554 133.706 141.658 135.603 139.328 135.603Z" fill="black"/>
</svg>
