<svg width="232" height="427" viewBox="0 0 232 427" fill="none" xmlns="http://www.w3.org/2000/svg">
<path d="M164.454 0.877868C170.35 0.877868 178.896 2.47008 183.699 10.7152C185.274 11.5414 201.988 20.8623 198.64 41.0532C199.104 42.4217 203.614 56.4331 195.722 64.8245C195.361 65.7024 192.03 73.2848 184.396 75.4278C184.413 75.9356 184.413 76.3573 184.379 76.6672C184.361 76.8393 184.336 76.9942 184.292 77.1233C188.665 81.2286 192.925 86.0999 194.81 92.0815C196.471 97.3659 196.118 103.296 193.837 108.348C193.768 108.503 193.622 108.597 193.458 108.597C193.415 108.597 193.381 108.597 193.338 108.58C193.14 108.52 193.011 108.322 193.045 108.115C193.579 104.578 192.598 101.377 191.315 98.1921C189.517 106.059 187.597 114.837 187.563 123.203C187.554 126.095 187.735 129.847 189.284 133.161C190.825 136.448 193.639 138.798 196.643 139.288C196.858 139.323 197.013 139.521 196.996 139.736C196.979 139.951 196.798 140.115 196.583 140.115C191.531 140.037 187.064 137.817 183.991 133.849C181.22 130.269 179.473 125.475 178.931 120.01C178.483 115.457 178.87 110.844 179.361 106.747C178.406 107.754 177.227 108.494 176.108 108.761C176.073 108.761 176.047 108.77 176.013 108.77C175.918 108.77 175.824 108.735 175.746 108.675C175.643 108.589 175.591 108.46 175.6 108.331C175.927 103.313 175.187 98.4417 173.508 94.2245C174.326 103.141 172.622 111.05 168.534 117.454C169.024 117.634 169.515 117.841 170.006 118.099C173.422 119.872 175.66 122.953 176.478 127.024C177.562 132.446 175.987 139.056 172.407 144.676C181.581 163.111 178.991 175.393 177.7 179.317C176.056 184.318 173.095 187.786 169.584 188.819C168.095 189.258 166.658 189.447 165.315 189.447C157.776 189.447 152.689 183.638 152.629 183.561C152.491 183.397 152.5 183.156 152.646 183.001C152.732 182.915 152.836 182.872 152.947 182.872C153.034 182.872 153.128 182.898 153.197 182.958C155.727 184.86 158.516 185.841 161.115 185.841C162.983 185.841 164.747 185.342 166.245 184.318C171.486 180.755 172.665 172.114 169.489 160.615C168.706 157.767 167.57 154.823 166.193 151.854C163.749 153.92 161.468 154.978 159.385 154.978H159.368C157.681 154.978 156.123 154.29 154.729 152.956C153.877 154.849 152.749 156.648 151.433 158.352C150.563 164.42 150.4 171.391 153.653 177.045C153.765 177.235 153.705 177.476 153.524 177.605C153.455 177.656 153.369 177.674 153.292 177.674C153.171 177.674 153.042 177.622 152.965 177.51C149.961 173.672 148.093 168.731 147.396 162.776C143.893 166.098 139.788 168.972 135.803 171.382L135.829 171.924C139.366 172.054 142.422 173.181 143.153 173.783C143.876 174.386 145.202 181.994 145.718 186.779C147.31 187.098 149.462 187.623 151.837 188.277C152.104 188.096 152.319 187.984 152.465 187.95C152.603 187.915 152.784 187.907 152.999 187.907C154.643 187.907 158.275 188.699 158.731 188.802C158.877 188.836 158.989 188.94 159.041 189.077C159.084 189.215 159.058 189.37 158.963 189.482C158.757 189.723 158.559 189.972 158.361 190.222C162.217 191.461 165.9 192.838 168.172 194.043C173.758 197.004 187.744 228.822 190.3 235.759C190.627 235.811 190.92 235.88 191.204 235.957C191.221 235.957 191.247 235.957 191.264 235.957C191.264 235.957 191.281 235.974 191.29 235.974C191.866 236.138 192.348 236.353 192.727 236.56C193.441 236.956 194.965 240.149 196.083 242.662C196.677 242.524 197.977 242.274 199.604 242.274C202.125 242.274 205.439 242.868 208.227 245.381C212.66 249.375 214.501 260.262 214.054 266.381C214.054 266.433 214.045 266.493 214.037 266.545C213.976 267.337 213.873 268.051 213.727 268.653C214.338 269.858 218.34 278.327 218.263 291.934C218.383 291.986 218.478 292.089 218.495 292.227C218.521 292.382 218.547 292.537 218.572 292.7C219.846 294.215 223.822 299.379 227.842 309.216C232.713 321.128 229.976 341.086 225.673 344.15C225.294 345.364 222.488 353.316 214.252 355.786C212.186 356.406 210.456 356.836 209.002 357.129C209.51 361.492 210.207 367.827 210.138 368.507C210.112 368.739 209.906 369.849 208.356 371.467C208.95 374.445 209.716 378.551 209.716 379.893C209.716 382.148 205.8 388.749 202.831 389.257C202.16 390.144 198.64 394.533 194.836 394.533C194.775 394.533 194.724 394.533 194.663 394.533C193.966 395.264 190.868 398.397 188.26 398.578C187.881 399.112 186.676 400.687 185.231 401.745C188.802 414.096 191.126 424.286 191.333 425.224C191.358 425.344 191.333 425.482 191.255 425.577C191.178 425.671 191.057 425.732 190.928 425.732H130.261C130.106 425.732 129.959 425.646 129.89 425.508L127.524 420.929C127.309 420.929 127.093 420.921 126.878 420.903C126.732 420.903 126.594 420.809 126.525 420.68L118.659 405.291C118.599 405.171 118.599 405.024 118.659 404.904C118.728 404.783 118.848 404.706 118.986 404.689C118.995 404.689 119.046 404.689 119.115 404.671L113.9 394.585C113.168 394.817 112.436 395.023 111.705 395.213C111.025 399.086 110.087 403.484 109.123 407.692C109.467 407.606 109.665 407.555 109.682 407.546C109.725 407.537 109.76 407.529 109.803 407.529C109.906 407.529 110.009 407.572 110.087 407.649C110.199 407.753 110.242 407.907 110.207 408.054L107.075 420.68C107.049 420.791 106.971 420.895 106.859 420.946C106.782 420.989 106.42 421.17 105.758 421.42C105.129 423.83 104.725 425.353 104.708 425.413C104.656 425.594 104.493 425.723 104.303 425.723H39.6422C39.427 425.723 39.2549 425.568 39.2291 425.353C38.4028 418.838 38.3254 411.866 38.6697 405.085C38.1791 404.448 37.9295 403.897 37.9467 403.466C38.0586 401.022 39.384 389.266 39.4356 388.766C39.4529 388.612 39.5561 388.474 39.7024 388.422C39.7541 388.405 39.7971 388.396 39.8488 388.396C39.952 388.396 40.0553 388.431 40.1328 388.508C40.1328 388.508 40.1844 388.551 40.2447 388.612C40.4082 387.432 40.5717 386.288 40.7438 385.169C39.909 385.961 39.1 386.339 38.7041 386.477C38.377 387.562 37.327 389.24 35.2615 389.24C35.1668 389.24 35.0721 389.24 34.9775 389.231C32.5848 389.068 30.0545 384.911 27.6705 380.668C27.4295 380.237 27.2057 379.85 27.025 379.532C26.2762 378.249 25.734 376.261 25.3553 374.54C24.2795 374.178 23.393 373.791 22.8336 373.395C20.9746 372.096 20.2603 368.842 20.0107 365.778C19.2705 364.944 18.7971 364.126 18.5562 363.36C16.1549 362.611 12.9447 360.606 9.79468 355.537C3.58075 345.553 6.21435 322.281 12.2131 306.453C17.7729 291.779 28.6086 283.155 30.7861 281.537C30.7602 280.815 30.7344 280.083 30.7344 279.36C30.7344 279.257 30.7774 279.171 30.8377 279.093C30.8807 271.485 35.6143 262.741 39.9262 255.761C41.6992 252.886 43.7303 251.303 45.9766 251.044C46.1918 251.019 46.4069 251.01 46.6221 251.01C48.5586 251.01 50.0992 252 50.8221 252.576C51.7258 250.554 52.9393 248.445 54.566 246.509C54.6176 246.449 54.6864 246.397 54.7639 246.38C54.8155 246.362 54.8758 246.354 54.9532 246.354C55.2373 246.354 55.6676 246.526 56.141 247.326C58.1291 242.464 61.7008 234.158 65.35 226.197C60.3323 225.793 55.4955 222.316 52.9049 217.195C52.4487 216.291 52.0614 215.353 51.7258 214.363C46.1746 209.053 43.2828 200.972 44.2983 193.355C45.0643 187.623 47.827 182.407 50.4951 177.364C51.1233 176.185 51.743 175.006 52.3369 173.818C53.9549 170.608 55.8139 166.425 56.4766 161.992C53.318 158.834 51.1405 154.97 52.8446 150.529C53.3352 149.246 53.9291 148.17 54.5832 147.241C54.5229 147.275 54.4455 147.301 54.368 147.301C54.3508 147.301 54.3422 147.301 54.325 147.301C48.7049 146.69 44.6942 143.566 41.8369 139.676C35.1668 136.724 30.0373 130.777 28.359 123.952C24.1246 135.958 25.3725 149.926 31.7156 160.736C31.8102 160.899 31.7844 161.115 31.6467 161.252C31.5692 161.33 31.4574 161.373 31.3541 161.373C31.2766 161.373 31.1992 161.356 31.1303 161.313C23.4102 156.458 17.7385 147.499 15.9742 137.343C14.4594 128.642 15.518 119.02 19.1328 108.77C21.1984 102.9 23.9352 97.2712 26.9561 91.677C6.56722 86.1085 4.63936 66.5717 4.50165 64.6782C3.69264 63.6799 -1.47991 56.5192 2.26394 41.6557C5.95615 26.9729 15.9053 21.7143 17.2996 21.043C17.8074 19.8639 21.1984 13.0389 32.843 11.4295C34.3578 11.2229 35.7434 11.1283 37.0086 11.1283C45.3225 11.1283 48.3692 15.1303 48.9717 16.0598C67.1573 19.0205 72.02 30.1487 73.3196 35.5278C73.6036 35.4762 73.8532 35.4504 74.0426 35.4504C74.2233 35.4504 74.361 35.4762 74.4471 35.5192C75.2561 35.9582 77.7692 38.695 79.5336 40.666C83.2344 39.22 87.2967 38.2475 91.6774 38.0668C91.7893 38.0323 99.4061 36.2852 109.7 36.2852C113.529 36.2852 117.729 36.5262 122.059 37.1889C122.351 33.8582 123.203 28.3844 125.665 23.3065C125.734 23.1602 125.88 23.0742 126.043 23.0742C126.069 23.0742 126.388 23.0742 126.947 23.1086C127.92 18.5815 130.665 9.93196 137.929 5.88688C144.831 2.03975 151.872 1.43729 155.59 1.43729C157.001 1.43729 157.931 1.52336 158.197 1.54918C158.654 1.4459 161.141 0.929507 164.489 0.929507M54.7811 146.974C55.2889 146.303 55.8311 145.717 56.3905 145.218C56.0807 145.081 55.7709 144.943 55.461 144.779C48.3692 140.984 44.066 131.052 42.25 125.948C43.7733 142.197 54.4024 146.449 54.5229 146.492C54.7209 146.57 54.8242 146.776 54.7811 146.974ZM50.7619 210.284C50.3487 207.478 50.3574 204.406 50.7877 201.083C51.3213 196.969 52.4401 192.899 53.516 188.974C53.8602 187.735 54.1959 186.495 54.5143 185.247L54.7983 184.146C55.8483 180.118 56.9328 175.978 56.9414 171.795C55.9 174.618 54.5401 177.321 53.2061 179.963C51.3815 183.595 49.4881 187.356 48.4897 191.324C46.9664 197.374 47.8442 204.268 50.7532 210.275M76.3319 174.472C75.979 174.472 75.6262 174.446 75.2733 174.403C76.0135 179.059 77.6573 183.535 80.093 187.339C80.2135 187.528 80.1618 187.778 79.9811 187.907C79.9036 187.958 79.8262 187.984 79.7401 187.984C79.6196 187.984 79.4905 187.933 79.4131 187.821C76.1426 183.664 73.6897 178.775 72.2008 173.577C71.495 173.293 70.8151 172.949 70.1954 172.579C69.5069 176.976 69.0938 181.435 69.4897 185.876C69.9114 190.609 71.5897 199.267 78.0102 204.07C78.0791 204.122 78.1307 204.199 78.1565 204.276C81.9692 202.176 89.9733 199.052 97.2975 196.358C97.7794 195.584 98.1065 195.093 98.227 194.964C99.2081 193.914 104.579 192.382 105.19 192.21C105.224 192.201 105.267 192.193 105.302 192.193C105.422 192.193 105.534 192.245 105.611 192.331C105.715 192.451 105.749 192.623 105.689 192.77C105.629 192.916 105.5 193.157 105.327 193.467C106.429 193.079 107.427 192.726 108.322 192.417C107.445 188.914 106.653 185.437 106.687 184.757C106.739 183.741 107.875 182.046 108.563 181.099C104.002 180.996 98.2184 180.505 91.1782 179.645C87.77 179.223 84.4307 176.245 81.3495 172.329C80.2995 173.456 78.9999 174.154 77.4508 174.377C77.0807 174.429 76.702 174.455 76.3319 174.455M65.7803 225.19C70.1008 215.818 74.4471 207.142 76.3147 205.481C76.5729 205.249 76.9516 204.982 77.4249 204.698C71.2368 201.385 66.8303 194.448 65.3155 185.643C65.1262 184.516 64.9885 183.38 64.8766 182.244C64.2139 183.845 63.5254 185.428 62.8455 186.986C62.1827 188.509 61.5114 190.033 60.8832 191.565C58.6971 196.858 56.5024 203.158 56.8467 209.707C57.1737 216.024 60.8315 222.316 65.7803 225.182M157.087 308.226C156.054 306.092 155.151 303.398 155.09 300.377C154.961 293.793 154.746 282.794 170.169 261.742C168.956 259.367 167.372 255.83 167.742 254.126C167.88 253.489 168.327 252.413 169.024 251.105C165.831 243.126 160.022 233.16 156.984 228.142C156.605 228.375 156.218 228.581 155.831 228.779C155.314 232.041 154.376 237.584 153.249 243.935C153.249 243.944 153.249 243.961 153.249 243.97C150.977 256.785 147.938 272.879 145.976 280.29C146.346 280.531 146.579 280.728 146.639 280.858C147.215 282.166 145.838 291.349 145.029 293.655C147.594 296.806 151.966 302.142 157.096 308.226M73.2336 290.325C74.0512 289.249 74.7655 288.311 75.3508 287.536C76.1684 284.033 78.1909 276.89 78.475 275.9C78.518 275.754 78.6299 275.642 78.7762 275.608C79.2323 275.496 79.6885 275.401 80.1446 275.298C79.9553 269.712 79.6885 263.92 79.4561 263.171C79.3184 262.715 78.4836 261.217 77.511 259.487C77.2012 258.937 76.8655 258.326 76.5127 257.697C74.4643 262.267 71.4176 268.8 68.9991 272.828C69.4381 273.516 69.8426 274.119 70.1868 274.592C70.2471 274.678 70.2815 274.781 70.2643 274.885C70.1868 275.59 69.7479 279.489 69.2229 282.871C70.9528 284.799 72.2782 287.726 73.2077 290.333M76.9602 294.508C77.8639 292.692 78.6815 291.074 79.3872 289.671C78.6471 289.774 78.036 289.851 77.5368 289.912C77.4508 290.643 77.3561 291.444 77.2442 292.313C77.1582 293.01 77.0635 293.75 76.9602 294.516M35.2443 388.396C36.8881 388.396 37.5766 387.037 37.809 386.391C37.2065 386.073 36.1652 385.16 35.8381 382.639C35.6315 381.038 35.0807 378.559 34.5729 376.476C31.5693 376.098 28.557 375.504 26.2418 374.815C26.5947 376.356 27.0852 378.026 27.7049 379.093C27.8942 379.42 28.118 379.807 28.359 380.246C29.9254 383.035 32.8516 388.233 34.9947 388.388C35.0807 388.388 35.1582 388.396 35.2356 388.396M38.3254 385.711C38.6869 385.599 39.909 385.135 40.9332 383.706C41.3119 381.33 41.6992 379.119 42.0692 377.156C42.0692 377.079 42.0692 377.001 42.0606 376.924C41.7336 376.932 41.4065 376.941 41.0623 376.941C39.3754 376.941 37.4303 376.812 35.4594 376.588C35.9414 378.619 36.4578 380.96 36.6643 382.535C36.9914 385.031 38.0414 385.608 38.3254 385.711ZM164.454 0.0172131C161.261 0.0172131 158.826 0.47336 158.111 0.628278C157.724 0.593852 156.82 0.525 155.555 0.525C151.854 0.525 144.59 1.11885 137.473 5.07786C130.321 9.0627 127.386 17.2045 126.224 22.1619C126.078 22.1619 126 22.1619 126 22.1619C125.51 22.1619 125.062 22.4459 124.847 22.8848C122.575 27.5582 121.628 32.5328 121.241 36.1561C117.549 35.6397 113.65 35.3729 109.656 35.3729C99.8364 35.3729 92.5036 36.9393 91.5225 37.1545C87.5893 37.3266 83.6303 38.1442 79.7315 39.5987C75.8414 35.2782 75.0668 34.8565 74.8086 34.7102C74.5934 34.5897 74.3266 34.5381 73.9909 34.5381C73.9651 34.5381 73.9393 34.5381 73.9135 34.5381C72.4332 29.202 67.2348 18.2545 49.4278 15.2164C48.3262 13.7102 44.918 10.216 36.9656 10.216C35.6143 10.216 34.1684 10.3193 32.6795 10.5258C21.3361 12.0922 17.4975 18.4611 16.5939 20.3631C14.5369 21.4303 4.98361 27.0848 1.37747 41.3975C-2.24589 55.7963 2.27256 63.1721 3.61518 64.9536C3.89919 68.1122 6.35205 86.2807 25.6479 92.1589C22.3602 98.304 20.0107 103.494 18.2721 108.434C14.6057 118.831 13.5385 128.59 15.0791 137.447C16.8951 147.835 22.7045 157.009 30.6311 161.992C30.8377 162.122 31.0701 162.19 31.3111 162.19C31.6467 162.19 31.9651 162.061 32.1975 161.829C32.6192 161.416 32.7139 160.77 32.4127 160.263C26.6979 150.511 25.2004 137.911 28.316 126.774C30.5709 132.601 35.3131 137.645 41.2344 140.33C44.4274 144.59 48.3951 147.146 53.0426 147.955C52.6467 148.652 52.2938 149.393 51.9926 150.176C50.4606 154.169 51.6397 158.223 55.5127 162.242C54.7811 166.58 52.8963 170.659 51.5192 173.388C50.934 174.549 50.3057 175.737 49.7033 176.873L49.686 176.916C46.9836 182.029 44.1865 187.313 43.3947 193.191C42.3447 200.997 45.2279 209.251 50.9254 214.794C51.2524 215.749 51.6397 216.67 52.0787 217.539C54.609 222.54 59.1102 226.025 64.0246 226.86C60.8487 233.831 57.7418 241.026 55.7967 245.717C55.461 245.51 55.1512 245.45 54.893 245.45C54.7467 245.45 54.6004 245.467 54.4627 245.51C54.2217 245.588 54.0065 245.726 53.843 245.915C52.5348 247.481 51.3815 249.271 50.4176 251.251C49.4881 250.683 48.1455 250.106 46.5619 250.106C46.3123 250.106 46.0627 250.124 45.8217 250.149C43.3086 250.442 41.0623 252.163 39.143 255.27C34.9172 262.112 30.0717 270.96 29.934 278.818C29.8652 278.973 29.8307 279.145 29.8307 279.317C29.8307 279.859 29.8479 280.436 29.8652 281.073C27.0422 283.242 16.7574 291.883 11.3611 306.101C5.28485 322.126 2.65984 345.742 9.01148 355.95C12.2045 361.079 15.5094 363.162 17.8418 363.997C18.1258 364.685 18.5562 365.382 19.1328 366.08C19.4943 370.159 20.5615 372.844 22.2914 374.058C22.825 374.428 23.5738 374.789 24.5721 375.151C25.0541 377.251 25.6135 378.86 26.2332 379.928C26.4053 380.22 26.6033 380.573 26.827 380.969L26.8787 381.064C29.4865 385.694 32.0512 389.868 34.8742 390.066C34.9947 390.066 35.1065 390.075 35.2184 390.075C36.7332 390.075 37.852 389.352 38.5836 388.422C38.5578 388.491 38.5492 388.569 38.5406 388.646V388.706C38.2996 390.755 37.1463 401.117 37.043 403.406C37.0172 403.983 37.2496 404.611 37.7488 405.326C37.3873 412.779 37.5852 419.544 38.3254 425.439C38.4029 426.076 38.9537 426.558 39.5906 426.558H104.252C104.828 426.558 105.336 426.171 105.482 425.611C105.5 425.551 105.861 424.2 106.429 422.031C106.894 421.841 107.152 421.704 107.204 421.678C107.522 421.506 107.763 421.213 107.849 420.852L110.982 408.226C111.094 407.778 110.956 407.305 110.62 406.995C110.483 406.866 110.328 406.771 110.164 406.711C111.094 402.597 111.843 398.957 112.393 395.875C112.729 395.781 113.073 395.686 113.409 395.591L117.927 404.327C117.927 404.327 117.876 404.413 117.85 404.456C117.643 404.835 117.643 405.282 117.833 405.653L125.699 421.041C125.906 421.446 126.319 421.712 126.784 421.738C126.835 421.738 126.887 421.738 126.938 421.738L129.073 425.869C129.297 426.3 129.727 426.558 130.209 426.558H190.876C191.264 426.558 191.634 426.386 191.875 426.076C192.124 425.766 192.211 425.37 192.124 424.991C191.883 423.907 189.654 414.13 186.169 402.021C187.288 401.091 188.217 399.955 188.682 399.344C191.212 398.939 193.88 396.469 194.982 395.35C198.777 395.23 202.091 391.495 203.279 389.989C206.661 389.007 210.525 382.286 210.525 379.85C210.525 378.757 210.095 376.012 209.234 371.682C210.629 370.125 210.895 368.989 210.947 368.558C210.973 368.317 211.042 367.698 209.906 357.766C211.326 357.456 212.849 357.051 214.458 356.569C222.626 354.108 225.673 346.672 226.37 344.624C230.854 340.819 233.608 321.093 228.599 308.846C224.735 299.396 220.939 294.224 219.347 292.287C219.33 292.201 219.321 292.115 219.304 292.029C219.27 291.84 219.192 291.667 219.08 291.512C219.08 278.663 215.457 270.306 214.588 268.499C214.699 267.939 214.786 267.294 214.846 266.571L214.863 266.407C215.328 260.038 213.46 248.944 208.752 244.701C205.706 241.956 202.065 241.379 199.552 241.379C198.321 241.379 197.271 241.517 196.54 241.646C194.147 236.362 193.441 235.966 193.097 235.776C192.641 235.527 192.133 235.312 191.582 235.148C191.548 235.131 191.513 235.122 191.479 235.105C191.419 235.088 191.358 235.071 191.307 235.071C191.169 235.036 191.023 235.002 190.885 234.967C188.372 228.392 174.593 196.462 168.525 193.243C166.184 192.004 162.647 190.713 159.738 189.749C159.807 189.62 159.841 189.473 159.859 189.327C161.468 189.895 163.284 190.274 165.263 190.274C166.77 190.274 168.293 190.05 169.782 189.611C173.569 188.501 176.736 184.834 178.474 179.558C179.929 175.152 182.304 162.965 173.345 144.693C176.899 138.901 178.363 132.257 177.278 126.818C176.409 122.488 174.016 119.192 170.358 117.299C170.161 117.195 169.963 117.101 169.756 117.006C172.476 112.427 174.051 107.074 174.438 101.222C174.765 103.494 174.86 105.861 174.705 108.245C174.679 108.649 174.851 109.045 175.152 109.303C175.385 109.501 175.677 109.604 175.979 109.604C176.073 109.604 176.177 109.596 176.271 109.57C176.925 109.415 177.597 109.122 178.242 108.718C177.881 112.221 177.657 116.145 178.044 120.061C178.595 125.69 180.411 130.63 183.277 134.348C186.513 138.531 191.221 140.872 196.531 140.949C197.22 140.949 197.77 140.45 197.822 139.779C197.882 139.116 197.409 138.514 196.755 138.402C194.027 137.954 191.462 135.794 190.042 132.756C188.57 129.597 188.389 125.974 188.398 123.168C188.424 116.059 189.809 108.718 191.479 101.204C192.142 103.33 192.52 105.585 192.167 107.952C192.073 108.58 192.46 109.191 193.071 109.372C193.183 109.406 193.312 109.424 193.433 109.424C193.932 109.424 194.388 109.131 194.595 108.666C196.961 103.434 197.331 97.2798 195.602 91.7889C193.588 85.4028 189.043 80.4368 185.196 76.7876C185.196 76.7618 185.196 76.736 185.196 76.7188C185.213 76.5208 185.222 76.2971 185.231 76.0389C192.495 73.6635 195.834 66.6405 196.419 65.2807C204.217 56.8377 200.258 43.3168 199.492 40.9672C202.667 21.0516 187.004 11.55 184.284 10.0611C179.318 1.75574 170.754 0 164.42 0L164.454 0.0172131ZM54.7123 145.597C53.9635 145.261 48.2918 142.507 45.0815 134.477C47.4311 138.772 50.6672 143.092 54.8844 145.399C54.8242 145.459 54.7725 145.528 54.7123 145.588V145.597ZM159.342 155.804C161.373 155.804 163.551 154.918 165.84 153.179C167.045 155.873 167.983 158.438 168.637 160.805C171.71 171.924 170.651 180.221 165.737 183.569C164.42 184.464 162.811 184.938 161.089 184.938C158.628 184.938 156.003 183.974 153.688 182.235C153.464 182.063 153.197 181.977 152.922 181.977C152.569 181.977 152.233 182.123 151.992 182.381C151.545 182.863 151.527 183.595 151.949 184.094C151.975 184.129 153.404 185.755 155.856 187.339C154.806 187.158 153.713 187.02 152.973 187.02C152.681 187.02 152.44 187.046 152.25 187.089C152.078 187.132 151.889 187.21 151.674 187.322C149.729 186.797 147.921 186.349 146.475 186.039C146.165 183.517 144.943 174.154 143.678 173.104C142.904 172.458 140.545 171.563 137.679 171.201C141.148 169.007 144.186 166.761 146.742 164.497C147.594 169.885 149.445 174.429 152.259 178.018C152.508 178.328 152.87 178.508 153.266 178.508C153.524 178.508 153.774 178.431 153.98 178.285C154.531 177.915 154.703 177.166 154.376 176.589C151.82 172.148 151.14 166.451 152.224 158.67C153.326 157.224 154.256 155.761 154.996 154.307C156.33 155.305 157.784 155.813 159.342 155.813V155.804ZM76.3061 175.29C76.7364 175.29 77.1496 175.264 77.5541 175.204C78.9569 174.997 80.1877 174.455 81.2377 173.568C84.7233 177.829 87.9422 180.083 91.0405 180.471C97.2889 181.245 102.634 181.719 106.937 181.882C106.214 183.053 105.827 183.991 105.792 184.688C105.749 185.557 106.618 189.258 107.255 191.84C106.997 191.935 106.722 192.029 106.446 192.124C106.395 191.986 106.317 191.857 106.214 191.737C105.973 191.461 105.62 191.306 105.259 191.306C105.147 191.306 105.026 191.324 104.914 191.349C103.047 191.874 98.6057 193.208 97.5471 194.345C97.4868 194.413 97.3319 194.577 96.6778 195.618C87.813 198.889 81.6249 201.428 78.2684 203.183C72.2868 198.545 70.7032 190.299 70.2987 185.764C69.9889 182.261 70.1438 178.551 70.8151 173.878C71.0217 173.981 71.2282 174.076 71.4434 174.171C72.984 179.343 75.4799 184.232 78.6901 188.311C78.9311 188.621 79.3012 188.802 79.6971 188.802C79.9639 188.802 80.2221 188.724 80.4372 188.57C80.9967 188.174 81.143 187.416 80.7729 186.84C78.6127 183.466 77.0635 179.49 76.2631 175.298C76.2717 175.298 76.2803 175.298 76.2889 175.298L76.3061 175.29ZM49.5828 204.724C48.3779 200.266 48.2574 195.644 49.2988 191.487C50.2713 187.606 52.1389 183.896 53.9463 180.307C54.4713 179.266 54.9963 178.216 55.5127 177.157C55.0996 179.421 54.5143 181.676 53.9377 183.879L53.6537 184.981C53.3352 186.22 52.991 187.459 52.6553 188.699C51.5709 192.666 50.452 196.754 49.9098 200.929C49.7377 202.228 49.6344 203.493 49.5914 204.724H49.5828ZM65.3844 223.917C61.0983 220.99 57.9741 215.276 57.6815 209.647C57.3459 203.27 59.5061 197.081 61.6578 191.874C62.2774 190.368 62.9487 188.845 63.5942 187.365L63.62 187.313C63.8782 186.719 64.145 186.117 64.4032 185.506C64.4204 185.592 64.4291 185.678 64.4463 185.764C65.9008 194.25 70.0061 201.075 75.8069 204.733C75.7725 204.758 75.7467 204.784 75.7209 204.81C74.0426 206.308 70.5655 212.737 65.393 223.917H65.3844ZM156.588 229.33C156.588 229.33 156.631 229.304 156.657 229.296C159.798 234.511 165.014 243.591 168.052 251.044C167.441 252.224 167.019 253.239 166.873 253.928C166.554 255.399 167.312 257.999 169.136 261.639C153.851 282.656 154.066 293.742 154.204 300.377C154.23 301.582 154.376 302.796 154.66 304.009C151.114 299.766 148.093 296.074 145.959 293.458C146.751 290.652 148.111 282.088 147.405 280.496C147.319 280.307 147.172 280.126 146.94 279.928C149.238 271.012 152.681 252 154.083 244.116C154.083 244.108 154.083 244.09 154.083 244.082C155.082 238.444 156.011 232.988 156.597 229.339L156.588 229.33ZM69.9889 272.785C72.0975 269.187 74.6106 263.911 76.5729 259.591C76.6245 259.694 76.6848 259.789 76.7364 259.883C77.5627 261.364 78.4922 263.033 78.6127 263.403C78.7331 263.842 78.9741 267.053 79.2323 274.592C79 274.644 78.7762 274.695 78.5438 274.755C78.0963 274.859 77.7434 275.203 77.6143 275.651C77.2442 276.967 75.3594 283.637 74.5245 287.149L73.4573 288.56C72.4418 286.039 71.3315 284.033 70.1266 282.596C70.6258 279.3 71.0303 275.676 71.1077 274.962C71.1422 274.635 71.0561 274.317 70.8581 274.058C70.6086 273.714 70.3159 273.292 69.9889 272.793V272.785ZM35.2443 387.501C35.184 387.501 35.1238 387.501 35.0635 387.501C33.3766 387.381 30.2783 381.873 29.1164 379.798L29.0389 379.652C28.8238 379.273 28.6258 378.921 28.4623 378.637C28.118 378.043 27.7738 377.148 27.4467 376.012C29.3574 376.494 31.5779 376.915 33.8844 377.225C34.4524 379.635 34.8397 381.528 34.9947 382.725C35.2701 384.868 36.0533 386.021 36.7418 386.641C36.4492 387.105 35.9844 387.51 35.2529 387.51L35.2443 387.501ZM38.4287 384.713C38.1619 384.463 37.7143 383.835 37.525 382.38C37.3787 381.236 37.0602 379.609 36.5783 377.526C38.2135 377.681 39.7455 377.759 41.0709 377.759H41.0881C40.7524 379.566 40.434 381.434 40.1242 383.327C39.5131 384.119 38.8332 384.523 38.4287 384.713ZM39.3582 387.088C39.427 387.054 39.4959 387.028 39.5733 386.985C39.5475 387.166 39.5217 387.355 39.4959 387.544C39.4529 387.553 39.4184 387.57 39.3754 387.579C39.2463 387.63 39.1344 387.691 39.0311 387.777C39.1602 387.553 39.2721 387.321 39.3668 387.088H39.3582Z" fill="black"/>
<path d="M25.1318 371.011C25.1318 371.011 25.8462 376.709 27.3437 379.273C28.8413 381.838 32.2581 388.586 34.9691 388.775C37.6716 388.964 38.3257 386.116 38.3257 386.116C38.3257 386.116 44.5568 384.687 42.474 373.722C40.3912 362.758 25.149 371.02 25.149 371.02L25.1318 371.011Z" stroke="black" stroke-linecap="round" stroke-linejoin="round"/>
<path d="M34.0044 372.526C34.0044 372.526 35.8118 379.273 36.2421 382.553C36.6724 385.832 38.3163 386.116 38.3163 386.116" stroke="black" stroke-linecap="round" stroke-linejoin="round"/>
<path d="M20.4238 359.238C20.4238 359.238 19.3566 370.452 23.023 373.017C26.6894 375.581 44.109 377.828 46.0713 375.581C48.0336 373.335 30.0975 354.297 20.4238 359.246V359.238Z" stroke="black" stroke-linecap="round" stroke-linejoin="round"/>
<path d="M44.6425 367.138C44.5393 367.457 36.3889 399.964 39.5905 425.267H104.252C104.252 425.267 111.601 398.217 112.238 387.536C112.875 376.855 44.6339 367.138 44.6339 367.138H44.6425Z" stroke="black" stroke-linecap="round" stroke-linejoin="round"/>
<path d="M106.609 420.533L109.742 407.907C109.742 407.907 94.0697 412.607 72.846 406.057C51.6222 399.507 39.7968 388.784 39.7968 388.784C39.7968 388.784 38.4198 401.005 38.3079 403.458C38.196 405.919 50.4862 414.965 73.2419 420.533C95.9976 426.102 106.609 420.533 106.609 420.533Z" stroke="black" stroke-linecap="round" stroke-linejoin="round"/>
<path d="M172.071 362.431C172.071 362.431 174.206 374.927 176.237 377.922C178.268 380.917 184.034 382.303 195.894 377.922C207.754 373.542 209.57 369.376 209.673 368.412C209.776 367.448 208.072 353.135 208.072 353.135L172.062 362.431H172.071Z" stroke="black" stroke-linecap="round" stroke-linejoin="round"/>
<path d="M174.773 362.835C174.773 362.835 176.168 375.177 179.963 380.324" stroke="black" stroke-linecap="round" stroke-linejoin="round"/>
<path d="M178.336 362.835C178.336 363.463 181.056 376.916 183.896 380.694" stroke="black" stroke-linecap="round" stroke-linejoin="round"/>
<path d="M182.751 364.531C182.751 364.531 185.092 376.098 187.373 380.324" stroke="black" stroke-linecap="round" stroke-linejoin="round"/>
<path d="M187.383 363.782C187.383 363.782 190.309 376.519 191.91 379.256" stroke="black" stroke-linecap="round" stroke-linejoin="round"/>
<path d="M192.581 360.967C192.581 360.967 196.497 374.419 196.281 377.776" stroke="black" stroke-linecap="round" stroke-linejoin="round"/>
<path d="M196.789 360.967C196.789 360.967 199.965 371.863 199.836 376.313" stroke="black" stroke-linecap="round" stroke-linejoin="round"/>
<path d="M200.627 357.981C200.627 357.981 203.467 371.278 202.942 374.781" stroke="black" stroke-linecap="round" stroke-linejoin="round"/>
<path d="M203.837 355.631C203.837 355.631 205.739 365.925 205.894 372.922" stroke="black" stroke-linecap="round" stroke-linejoin="round"/>
<path d="M207.22 368.197C207.22 368.197 209.251 377.707 209.251 379.842C209.251 381.976 205.266 388.603 202.555 388.818C202.555 388.818 198.536 394.378 194.439 394.051C194.439 394.051 190.764 398.113 187.993 398.113C187.993 398.113 185.213 402.184 182.76 402.279C180.307 402.374 172.897 380.401 174.782 377.776C176.667 375.143 207.229 368.197 207.229 368.197H207.22Z" stroke="black" stroke-linecap="round" stroke-linejoin="round"/>
<path d="M187.993 398.113C187.993 398.113 189.276 391.168 187.993 387.105" stroke="black" stroke-linecap="round" stroke-linejoin="round"/>
<path d="M194.439 394.06C194.439 394.06 195.946 388.93 196.298 385.729" stroke="black" stroke-linecap="round" stroke-linejoin="round"/>
<path d="M202.556 388.818C202.556 388.818 203.287 385.617 203.012 382.518" stroke="black" stroke-linecap="round" stroke-linejoin="round"/>
<path d="M112.247 390.531L130.208 425.267H190.876C190.876 425.267 178.947 372.345 166.442 358.411C153.937 344.477 112.247 390.522 112.247 390.522V390.531Z" stroke="black" stroke-linecap="round" stroke-linejoin="round"/>
<path d="M118.978 405.059C118.978 405.059 159.747 400.893 178.337 380.323C178.337 380.323 182.83 389.601 183.897 398.896C183.897 398.896 163.594 422.151 126.844 420.439L118.978 405.05V405.059Z" stroke="black" stroke-linecap="round" stroke-linejoin="round"/>
<path d="M112.513 191.384C112.513 191.384 80.54 202.211 76.5552 205.774C72.5703 209.337 56.8978 245.803 55.0474 251.07C53.197 256.338 63.8777 275.711 65.8744 276.004C67.8712 276.288 77.1318 255.202 77.1318 255.202L151.208 231.843L155.34 224.717C155.34 224.717 168.869 245.941 171.296 256.768C173.715 267.595 190.953 239.959 190.239 236.964C189.525 233.969 173.861 197.503 167.948 194.37C162.035 191.238 145.95 186.823 143.308 186.823C140.665 186.823 112.522 191.384 112.522 191.384H112.513Z" stroke="black" stroke-linecap="round" stroke-linejoin="round"/>
<path d="M179.18 73.1213C185.42 78.5176 191.935 84.3356 194.414 92.202C196.049 97.4004 195.705 103.201 193.458 108.167C194.061 104.148 192.779 100.559 191.195 96.8065C189.233 105.37 187.176 114.398 187.141 123.186C187.124 126.645 187.443 130.183 188.906 133.316C190.369 136.448 193.157 139.125 196.574 139.684C191.677 139.616 187.305 137.455 184.31 133.574C181.315 129.701 179.817 124.821 179.335 119.95C178.853 115.07 179.335 110.155 179.946 105.293C179.077 106.644 177.562 107.961 176.004 108.331C176.409 102.013 175.204 95.4381 171.89 90.0418C169.756 86.5647 166.821 83.1135 167.079 79.0512C167.252 76.3746 168.973 73.8615 171.409 72.7254C173.836 71.5979 177.166 71.357 179.197 73.1127L179.18 73.1213Z" stroke="black" stroke-linecap="round" stroke-linejoin="round"/>
<path d="M56.4247 153.704C58.387 160.461 55.8394 167.673 52.6636 173.947C49.4878 180.221 45.5977 186.375 44.6681 193.346C43.5923 201.359 46.8886 209.828 53.094 215.009C48.2399 208.347 46.0452 199.181 48.0505 191.177C49.9698 183.552 54.9788 177.028 57.2251 169.489C57.7415 174.877 56.244 180.066 54.8841 185.308C53.5243 190.54 51.8632 195.73 51.1661 201.092C50.469 206.454 50.7874 212.117 53.2317 216.945C55.6759 221.774 60.5214 225.595 65.9349 225.767C60.3751 222.781 56.7345 216.016 56.4075 209.716C56.0804 203.416 58.0685 197.219 60.4784 191.393C62.8882 185.557 65.7628 179.877 67.3464 173.766C68.93 167.656 69.1366 160.917 66.305 155.271C64.7472 152.155 59.437 151.94 56.4333 153.704H56.4247Z" stroke="black" stroke-linecap="round" stroke-linejoin="round"/>
<path d="M66.297 142.594C66.297 142.594 56.8987 140.993 53.1892 150.623C49.4884 160.254 64.7995 167.028 67.6483 170.083C70.497 173.147 78.8282 177.132 82.3224 170.083C85.8167 163.034 66.297 142.594 66.297 142.594Z" stroke="black" stroke-linecap="round" stroke-linejoin="round"/>
<path d="M59.8936 160.048C59.7473 159.764 55.4784 154.849 59.0416 150.469C62.6047 146.088 70.2215 155.985 71.435 158.55C71.435 158.55 69.5157 159.445 70.0063 161.528C70.5055 163.611 72.0719 163.077 72.8551 162.81C73.6383 162.544 75.067 164.42 75.7727 166.442" stroke="black" stroke-linecap="round" stroke-linejoin="round"/>
<path d="M68.8618 166.434C69.1458 166.666 72.2184 169.644 74.3872 167.768" stroke="black" stroke-linecap="round" stroke-linejoin="round"/>
<path d="M62.5957 149.453C62.5957 149.453 59.8933 153.782 63.5941 159.333" stroke="black" stroke-linecap="round" stroke-linejoin="round"/>
<path d="M65.8834 151.708C65.8834 151.708 64.5838 155.202 66.1502 159.333" stroke="black" stroke-linecap="round" stroke-linejoin="round"/>
<path d="M61.8729 139.848C65.393 146.716 65.7802 154.737 65.5048 162.457C65.238 170.169 64.386 177.958 65.6942 185.557C67.0024 193.165 70.8839 200.799 77.7175 204.388C72.1491 200.231 69.6446 192.812 69.0249 185.893C68.4052 178.973 69.7306 172.036 71.0388 165.211C71.6929 173.25 74.7052 181.185 79.6884 187.528C75.6347 181.185 73.8274 173.155 74.4987 165.659C74.8515 161.657 75.9102 157.638 75.2388 153.679C74.6278 150.09 72.6569 146.888 70.6171 143.867C69.6704 142.456 68.6634 141.027 67.252 140.08C65.8405 139.133 63.336 138.987 61.8643 139.831L61.8729 139.848Z" stroke="black" stroke-linecap="round" stroke-linejoin="round"/>
<path d="M154.979 124.718C154.979 124.718 160.306 113.538 169.782 118.452C179.266 123.366 177.821 137.894 169.782 147.516C161.743 157.13 156.967 155.064 154.264 151.863C151.562 148.661 154.979 124.726 154.979 124.726V124.718Z" stroke="black" stroke-linecap="round" stroke-linejoin="round"/>
<path d="M169.781 136.75C169.781 136.75 172.949 130.381 169.222 125.57C165.495 120.759 162.672 125.354 160.676 134.83C160.676 134.83 163.817 134.546 164.204 137.18C164.592 139.813 162.242 140.846 160.676 140.898C159.109 140.958 159.462 144.375 159.893 145.657" stroke="black" stroke-linecap="round" stroke-linejoin="round"/>
<path d="M162.665 145.21C162.665 145.21 165.444 145.227 167.932 140.743" stroke="black" stroke-linecap="round" stroke-linejoin="round"/>
<path d="M161.588 131.052C161.588 131.052 164.867 131.629 166.511 135.329" stroke="black" stroke-linecap="round" stroke-linejoin="round"/>
<path d="M163.62 125.836C163.62 125.836 167.234 128.41 167.054 134.641" stroke="black" stroke-linecap="round" stroke-linejoin="round"/>
<path d="M32.2406 83.0101C27.421 91.3327 22.6788 99.7757 19.4857 108.847C16.2927 117.918 14.6919 127.738 16.3443 137.214C17.9968 146.69 23.1693 155.779 31.3111 160.899C24.6411 149.513 23.6169 134.684 28.4365 122.394C29.8824 130.888 36.6042 137.903 44.8751 140.304C39.7714 125.088 37.7833 108.658 40.3308 92.813C40.6234 90.9798 40.9677 89.1294 40.787 87.2876C40.5976 85.4458 39.7972 83.561 38.248 82.5454C36.6988 81.5298 33.1787 81.4093 32.2492 83.0187L32.2406 83.0101Z" stroke="black" stroke-linecap="round" stroke-linejoin="round"/>
<path d="M126.843 26.0005C126.843 26.0005 128.126 11.7566 138.101 6.19681C148.076 0.636981 158.188 1.91936 158.188 1.91936C158.188 1.91936 175.711 -2.3581 183.406 11.0337C183.406 11.0337 201.78 20.0103 198.217 41.0878C198.217 41.0878 203.631 55.8996 195.369 64.5923C195.369 64.5923 191.091 75.8496 179.842 75.557C168.594 75.2644 126.852 25.9833 126.852 25.9833L126.843 26.0005Z" stroke="black" stroke-linecap="round" stroke-linejoin="round"/>
<path d="M73.3197 38.4282C73.3197 38.4282 72.9238 20.234 48.6705 16.3869C48.6705 16.3869 45.2537 10.0869 32.8603 11.791C20.4668 13.5037 17.5836 21.3012 17.5836 21.3012C17.5836 21.3012 6.57586 26.0004 2.62546 41.7073C-1.32495 57.4143 4.87177 64.4631 4.87177 64.4631C4.87177 64.4631 5.83569 87.7524 30.6226 92.0298C30.6226 92.0298 47.2332 49.152 73.3283 38.4282H73.3197Z" stroke="black" stroke-linecap="round" stroke-linejoin="round"/>
<path d="M80.9368 42.8779C80.9368 42.8779 75.3769 36.466 74.2064 35.8291C73.0273 35.1922 51.6659 42.6627 39.3757 64.8934C27.0856 87.1156 29.9774 96.1697 31.4663 96.8754C32.9638 97.5811 38.4118 98.4418 38.627 98.1147C38.8421 97.7963 80.9368 42.8779 80.9368 42.8779Z" stroke="black" stroke-linecap="round" stroke-linejoin="round"/>
<path d="M40.279 55.4607C40.279 55.4607 36.7245 47.1898 37.5765 45.3738C38.4286 43.5578 48.0249 47.405 48.0249 47.405C48.0249 47.405 55.1511 42.2582 56.8896 42.525C58.6281 42.7918 56.7949 50.4172 56.7949 50.4172C56.7949 50.4172 64.9195 54.1525 65.2466 56.4935C65.5822 58.8345 55.4265 60.3148 55.4265 60.3148C55.4265 60.3148 53.49 71.1074 51.106 72.0541C48.7134 73.0094 45.1589 64.3254 45.1589 64.3254C45.1589 64.3254 35.356 64.3771 35.0376 62.8795C34.7191 61.382 40.279 55.4607 40.279 55.4607Z" stroke="black" stroke-linecap="round" stroke-linejoin="round"/>
<path d="M169.153 81.8397C173.853 82.4078 183.113 77.5623 183.828 77.1405C184.542 76.7102 183.681 57.0529 164.738 40.2443C145.795 23.4357 126.009 23.4357 126.009 23.4357C122.144 31.3881 122.291 40.2443 122.291 40.2443L169.153 81.8397Z" stroke="black" stroke-linecap="round" stroke-linejoin="round"/>
<path d="M159.144 39.9948C159.144 39.9948 169.722 35.2956 172.071 36.3628C174.421 37.43 169.61 49.8235 169.61 49.8235C169.61 49.8235 176.34 58.9034 176.022 61.1497C175.703 63.396 165.875 61.1497 165.875 61.1497C165.875 61.1497 161.193 71.6497 158.189 72.1144C155.185 72.5792 153.128 59.5489 153.128 59.5489C153.128 59.5489 139.229 57.2251 137.964 54.1698C136.699 51.1144 147.81 46.4066 147.81 46.4066C147.81 46.4066 147.594 33.7981 149.522 33.3763C151.442 32.946 159.136 40.0034 159.136 40.0034L159.144 39.9948Z" stroke="black" stroke-linecap="round" stroke-linejoin="round"/>
<path d="M55.8997 60.0394C55.8997 60.0394 69.7132 39.3063 91.6513 38.4198C91.6513 38.4198 122.962 30.9751 144.831 46.1485C166.7 61.3218 184.241 100.215 165.014 121.292L158.602 124.709C158.602 124.709 105.043 64.0243 94.6378 60.3235C84.2325 56.6226 55.8911 60.0394 55.8911 60.0394H55.8997Z" stroke="black" stroke-linecap="round" stroke-linejoin="round"/>
<path d="M72.855 51.0714C72.855 51.0714 104.002 28.2727 144.84 46.1571" stroke="black" stroke-linecap="round" stroke-linejoin="round"/>
<path d="M107.608 52.6552C107.608 52.6552 125.837 44.6339 149.479 49.7806" stroke="black" stroke-linecap="round" stroke-linejoin="round"/>
<path d="M156.277 56.6916C133.582 54.8326 123.426 61.7522 123.426 61.7522" stroke="black" stroke-linecap="round" stroke-linejoin="round"/>
<path d="M147.783 91.2382C147.783 91.2382 161.76 69.1796 157.474 58.1288" stroke="black" stroke-linecap="round" stroke-linejoin="round"/>
<path d="M154.195 106.764C154.195 106.764 169.11 77.9928 160.228 61.7522" stroke="black" stroke-linecap="round" stroke-linejoin="round"/>
<path d="M158.619 117.024C158.619 117.024 178.681 94.9306 165.014 69.3691" stroke="black" stroke-linecap="round" stroke-linejoin="round"/>
<path d="M57.6468 94.4398C61.7263 80.9878 72.9234 76.5382 85.5664 74.6878C98.2095 72.8374 143.334 92.882 151.389 104.845C159.445 116.808 158.077 129.227 155.916 147.146C153.756 165.065 124.743 176.426 120.044 179.206C115.345 181.986 99.0013 180.17 91.1951 179.206C83.3976 178.242 75.7033 163.077 71.2193 155.064C66.7353 147.052 60.1083 134.873 60.005 134.228C60.005 134.228 54.2386 105.723 57.6554 94.4398H57.6468Z" stroke="black" stroke-linecap="round" stroke-linejoin="round"/>
<path d="M144.573 113.202C148.635 119.338 149.556 127.041 149.255 134.391C148.962 141.741 147.568 149.022 147.465 156.372C147.361 163.722 148.721 171.434 153.257 177.218C149.47 170.642 150.141 162.44 151.518 154.987C152.895 147.534 155.09 140.054 154.384 132.507C155.916 137.576 156.192 142.955 155.563 148.213C157.517 142.378 158.395 136.414 158.154 130.269C157.861 122.695 151.441 116.404 144.573 113.202Z" stroke="black" stroke-linecap="round" stroke-linejoin="round"/>
<path d="M83.5353 51.0712C83.5353 51.0712 78.5521 46.9401 72.8545 49.7889C72.8545 49.7889 58.0427 51.9233 49.066 66.0294C40.0894 80.1356 30.6911 102.642 35.3902 120.87C35.3902 120.87 37.671 145.012 54.3332 146.836C54.3332 146.836 41.9398 142.137 41.6214 122.695C41.6214 122.695 49.2037 150.477 65.2291 145.132C65.2291 145.132 54.6517 121.094 66.4082 95.8769C66.4082 95.8769 68.3275 106.885 74.6361 116.068C74.6361 116.068 72.1746 111.79 72.9234 100.576C72.9234 100.576 84.0345 122.695 106.36 126.327C106.36 126.327 96.8496 116.068 94.5 99.0872C94.5 99.0872 96.8496 102.504 98.984 104.105C98.984 104.105 92.684 86.3667 90.9713 83.0618C90.9713 83.0618 107.315 101.97 132.214 105.602C132.214 105.602 163.163 136.267 169.859 160.478C176.555 184.697 162.733 190.678 152.904 183.268C152.904 183.268 159.738 191.246 169.429 188.397C179.12 185.549 186.805 161.691 162.018 128.995C162.018 128.995 162.845 103.993 137.86 73.2245C112.875 42.4561 88.7939 43.5319 83.5267 51.0712H83.5353Z" stroke="black" stroke-linecap="round" stroke-linejoin="round"/>
<path d="M63.224 139.091C63.224 139.091 46.8544 132.412 48.5671 107.84C50.2798 83.2684 59.9622 55.6328 72.8548 49.7889C72.8548 49.7889 39.5905 60.1856 41.6216 122.686" stroke="black" stroke-linecap="round" stroke-linejoin="round"/>
<path d="M81.3923 49.7889C81.3923 49.7889 71.6411 48.6528 67.3636 60.4007C63.0862 72.1573 66.6062 96.8753 66.6062 96.8753" stroke="black" stroke-linecap="round" stroke-linejoin="round"/>
<path d="M83.536 51.0713C83.536 51.0713 72.2098 58.9032 90.9807 83.0532" stroke="black" stroke-linecap="round" stroke-linejoin="round"/>
<path d="M101.626 61.7521C101.626 61.7521 109.106 84.043 132.214 105.594" stroke="black" stroke-linecap="round" stroke-linejoin="round"/>
<path d="M109.175 54.9186C109.175 54.9186 124.589 60.1686 144.806 82.5456" stroke="black" stroke-linecap="round" stroke-linejoin="round"/>
<path d="M119.02 140.743C119.02 140.743 115.758 133.428 117.953 126.697C120.148 119.967 130.243 116.438 132.696 110.405C132.696 110.405 134.392 112.97 133.393 116.567C133.393 116.567 140.941 115.285 143.506 112.367C143.506 112.367 144.892 115.999 142.37 119.313C142.37 119.313 147 121.129 149.952 118.745C149.952 118.745 150.666 123.203 145.503 125.854C145.503 125.854 145.305 133.221 141.939 138.402C141.939 138.402 147.585 122.523 137.593 119.657C127.601 116.791 119.433 127.394 118.753 132.687C118.073 137.98 119.02 140.752 119.02 140.752V140.743Z" fill="black"/>
<path d="M120.948 143.463C120.948 143.463 124.167 146.897 130.166 146.294C137.06 145.597 138.635 142.972 138.635 142.972C138.635 142.972 136.655 146.509 129.796 146.991C122.928 147.473 120.957 143.463 120.957 143.463H120.948Z" fill="black"/>
<path d="M128.049 113.495C128.049 113.495 122.764 114.295 119.124 117.505C115.492 120.707 115.759 129.529 115.759 129.529C115.759 129.529 116.241 120.827 119.924 117.815C123.608 114.803 128.04 113.503 128.04 113.503L128.049 113.495Z" fill="black"/>
<path d="M105.827 113.495C105.827 113.495 107.109 115.345 107.858 115.164C108.606 114.984 120.845 105.103 125.277 104.139C129.701 103.175 134.624 103.821 134.624 103.821C134.624 103.821 123.461 101.704 120.225 102.547C116.989 103.391 105.456 112.531 105.827 113.486V113.495Z" fill="black"/>
<path d="M84.1384 121.774C84.1384 121.774 83.3897 119.313 83.0712 118.943C82.7528 118.573 71.4266 117.712 69.929 118.409C68.4315 119.106 61.1934 128.048 61.1934 128.031C61.1934 128.014 67.3384 122.6 73.0876 121.344C77.2015 120.44 83.5618 122.256 84.147 121.774H84.1384Z" fill="black"/>
<path d="M74.5247 131.982C74.5247 131.982 77.0895 129.95 81.3583 130.648C85.6358 131.345 89.6378 135.777 89.6378 135.777C89.6378 135.777 84.9559 132.016 80.3858 131.233C80.3858 131.233 78.2858 130.708 74.5161 131.99L74.5247 131.982Z" fill="black"/>
<path d="M95.8423 144.375C95.8423 144.375 93.6476 137.963 87.2616 135.441C80.9788 132.963 74.7304 135.045 68.4821 131.698C68.4821 131.698 69.4116 134.916 72.8456 135.398C72.8456 135.398 68.8005 138.548 63.3526 136.681C63.3526 136.681 64.8415 139.512 68.4735 139.994C68.4735 139.994 66.339 142.378 62.2251 142.981C62.2251 142.981 65.3235 144.779 68.2067 145.012C68.2067 145.012 68.7919 149.935 77.7169 155.228C77.7169 155.228 72.1571 152.345 73.4394 146.148C74.7218 139.951 79.5845 138.884 83.5866 138.832C87.5972 138.781 90.9968 137.593 95.8251 144.392L95.8423 144.375Z" fill="black"/>
<path d="M87.2881 158.756C87.2881 158.756 95.6967 159.574 97.9344 152.241C97.9344 152.241 98.2184 155.624 94.6209 157.689C91.0233 159.755 87.2881 158.756 87.2881 158.756Z" fill="black"/>
<path d="M105.62 155.219C105.62 155.219 107.195 156.312 108.908 155.65C108.908 155.65 107.918 156.527 107.264 156.613C106.61 156.691 105.62 155.228 105.62 155.228V155.219Z" fill="black"/>
<path d="M142.542 131.396C142.92 138.385 139.297 144.263 134.46 144.521C129.623 144.779 125.398 139.323 125.019 132.334C124.64 125.346 128.264 119.468 133.1 119.209C137.937 118.951 142.163 124.408 142.542 131.396Z" stroke="black" stroke-linecap="round" stroke-linejoin="round"/>
<path d="M137.24 131.68C137.438 135.304 136.044 138.316 134.133 138.419C132.222 138.522 130.518 135.674 130.329 132.05C130.139 128.427 131.525 125.415 133.436 125.311C135.346 125.208 137.051 128.057 137.24 131.68Z" fill="black"/>
<path d="M126.689 138.91C126.689 138.91 126.672 132.687 133.936 132.05C141.2 131.413 142.413 134.847 142.413 134.847" stroke="black" stroke-miterlimit="10"/>
<path d="M94.5431 142.636C97.7189 148.368 97.3316 154.883 93.6911 157.173C90.0419 159.471 84.5165 156.674 81.3407 150.942C78.1649 145.21 78.5522 138.695 82.1927 136.405C85.8419 134.107 91.3673 136.904 94.5431 142.636Z" stroke="black" stroke-linecap="round" stroke-linejoin="round"/>
<path d="M90.5497 145.158C92.1936 148.128 92.3571 151.269 90.9198 152.173C89.4825 153.076 86.9866 151.407 85.3428 148.437C83.6989 145.468 83.5354 142.327 84.9727 141.423C86.41 140.519 88.9059 142.189 90.5497 145.158Z" fill="black"/>
<path d="M85.3426 155.787C85.3426 155.787 82.7606 150.546 88.1311 146.888C93.5016 143.23 95.8598 145.614 95.8598 145.614" stroke="black" stroke-miterlimit="10"/>
<path d="M130.992 149.367C131.423 149.943 131.732 150.58 131.904 151.277C131.466 150.701 131.164 150.064 130.992 149.367Z" fill="black"/>
<path d="M134.813 147.861C135.227 148.48 135.528 149.195 135.674 149.926C135.252 149.289 134.968 148.618 134.813 147.861Z" fill="black"/>
<path d="M137.705 146.793C138.127 147.189 138.419 147.671 138.592 148.222C138.17 147.826 137.877 147.344 137.705 146.793Z" fill="black"/>
<path d="M139.521 145.545C140.08 145.804 140.545 146.268 140.795 146.836C140.304 146.449 139.9 146.036 139.521 145.545Z" fill="black"/>
<path d="M141.191 144.375C141.604 144.504 141.948 144.762 142.189 145.124C141.768 144.995 141.432 144.736 141.191 144.375Z" fill="black"/>
<path d="M142.12 143.05C142.576 143.136 142.972 143.351 143.299 143.686C142.843 143.6 142.447 143.385 142.12 143.05Z" fill="black"/>
<path d="M104.225 151.208C104.432 151.725 104.569 152.207 104.655 152.758C104.303 152.336 104.148 151.759 104.225 151.208Z" fill="black"/>
<path d="M105.457 149.72C105.784 150.167 105.982 150.666 106.042 151.217C105.715 150.778 105.517 150.27 105.457 149.72Z" fill="black"/>
<path d="M107.006 148.756C107.35 149.16 107.565 149.625 107.643 150.141C107.298 149.745 107.083 149.272 107.006 148.756Z" fill="black"/>
<path d="M109.561 149.926C109.725 150.4 109.82 150.813 109.897 151.312C109.561 150.95 109.432 150.4 109.561 149.926Z" fill="black"/>
<path d="M74.4207 296.083C74.4207 296.083 72.5014 286.985 68.7576 282.983C65.0223 278.981 50.9248 253.213 50.9248 253.213C50.9248 253.213 45.3564 247.628 40.2269 255.933C35.0974 264.238 30.183 273.749 31.3621 281.546C31.3621 281.546 18.7535 290.204 12.5568 306.548C6.3601 322.892 4.11379 345.648 10.0953 355.27C16.0769 364.883 22.2736 363.179 22.2736 363.179C22.2736 363.179 44.0654 376.106 48.0244 373.326C51.9748 370.546 79.4383 317.952 74.4121 296.083H74.4207Z" stroke="black" stroke-linecap="round" stroke-linejoin="round"/>
<path d="M38.3169 291.168C41.7595 301.204 45.5378 311.127 49.6603 320.904C49.9874 321.687 50.6329 322.625 51.4419 322.358C52.182 322.117 52.2423 321.102 52.1304 320.327C51.3386 314.733 49.3849 309.388 47.7583 303.983C46.1316 298.579 44.8321 292.941 45.4001 287.321" stroke="black" stroke-linecap="round" stroke-linejoin="round"/>
<path d="M31.1045 279.308C31.1647 289.301 33.5057 299.276 37.9123 308.244" stroke="black" stroke-linecap="round" stroke-linejoin="round"/>
<path d="M20.518 304.534C18.134 311.884 18.3061 319.871 19.8725 327.436C21.4303 335.001 24.3307 342.214 27.3344 349.331" stroke="black" stroke-linecap="round" stroke-linejoin="round"/>
<path d="M77.6221 285.17C77.6221 285.17 23.3492 356.768 19.7172 359.978C16.0853 363.188 22.0496 371.631 45.2443 374.781C64.5057 377.397 82.6914 307.581 85.3938 285.979C85.9446 281.572 77.6307 285.178 77.6307 285.178L77.6221 285.17Z" stroke="black" stroke-linecap="round" stroke-linejoin="round"/>
<path d="M82.5977 284.206C82.5977 284.206 45.142 357.473 42.5858 374.859C40.0211 392.244 78.0534 390.531 84.6804 384.765C91.3075 378.998 96.6436 283.922 95.1546 283.38C93.6657 282.837 82.6063 284.206 82.6063 284.206H82.5977Z" stroke="black" stroke-linecap="round" stroke-linejoin="round"/>
<path d="M92.5383 281.546C92.5383 281.546 77.1928 387.114 79.1207 391.392C81.0399 395.669 115.234 402.933 129.546 383.276C129.546 383.276 115.587 287.476 114.115 285.178C112.643 282.88 92.5383 281.555 92.5383 281.555V281.546Z" stroke="black" stroke-linecap="round" stroke-linejoin="round"/>
<path d="M110.853 285.17C110.853 285.17 124.494 386.047 127.764 390.746C131.044 395.445 160.951 394.929 168.43 372.431C168.43 372.431 137.533 300.765 132.963 287.846C128.393 274.919 110.853 285.17 110.853 285.17Z" stroke="black" stroke-linecap="round" stroke-linejoin="round"/>
<path d="M82.8554 162.802C83.0103 163.843 83.1308 164.85 83.2254 165.9C82.8468 164.919 82.7177 163.843 82.8554 162.802Z" fill="black"/>
<path d="M86.6514 161.95C86.9956 162.974 87.2022 164.024 87.2624 165.1C86.9182 164.084 86.7116 163.026 86.6514 161.95Z" fill="black"/>
<path d="M91.1351 161.519C91.4019 162.147 91.531 162.81 91.5051 163.499C91.2383 162.87 91.1093 162.208 91.1351 161.519Z" fill="black"/>
<path d="M94.1299 161.416C94.4828 162.173 94.784 162.914 95.0422 163.714C94.5258 163.06 94.2073 162.251 94.1299 161.416Z" fill="black"/>
<path d="M113.468 165.315C113.468 165.315 112.771 165.418 111.36 166.089C109.948 166.761 108.451 166.356 108.718 165.702C108.984 165.048 110.749 165.504 111.498 165.478C111.859 165.47 112.47 165.358 113.021 165.255C113.778 165.108 114.51 164.833 115.181 164.454C116.076 163.938 117.273 163.172 117.755 162.518C118.555 161.425 118.848 160.487 119.329 160.702C119.811 160.917 119.648 161.485 118.047 162.569C118.047 162.569 116.334 164.489 113.477 165.323L113.468 165.315Z" fill="black"/>
<path d="M156.201 144.745C156.201 144.745 149.815 143.161 142.405 148.893C135.003 154.625 137.637 165.693 140.382 167.854" stroke="black" stroke-miterlimit="10"/>
<path d="M81.1519 171.399C81.1519 171.399 84.3277 167.079 91.7121 167.854C99.0965 168.628 104.966 174.92 102.935 180.385" stroke="black" stroke-miterlimit="10"/>
<path d="M109.355 180.677C109.355 180.677 107.135 183.483 107.075 184.765C107.014 186.048 110.216 198.656 110.913 200.154C111.61 201.651 119.726 205.869 128.591 203.786C137.456 201.703 145.632 193.69 145.468 189.31C145.305 184.929 143.489 174.618 142.852 174.085C142.215 173.551 139.22 172.424 135.691 172.32L135.795 173.706C135.795 173.706 139.745 175.625 138.945 177.656C138.144 179.688 128.574 186.581 119.554 185.833C110.534 185.084 109.57 183.913 110.052 183.165C110.534 182.416 111.868 181.719 111.868 181.719V180.669L109.355 180.686V180.677Z" stroke="black" stroke-linecap="round" stroke-linejoin="round"/>
<path d="M135.338 171.124L135.803 180.677" stroke="black" stroke-linecap="round" stroke-linejoin="round"/>
<path d="M75.5404 225.595C74.9035 225.13 74.2839 224.648 73.6814 224.149C73.0015 223.59 72.3044 222.918 72.1925 222.049C72.1495 221.688 72.2355 221.266 72.5454 221.077C72.7777 220.93 73.0704 220.939 73.3372 220.965C74.1978 221.059 75.0326 221.309 75.7986 221.705C75.8761 221.12 75.7384 220.345 75.6867 219.76C75.6351 219.175 75.8072 218.486 76.3408 218.236C76.7454 218.047 77.2187 218.176 77.6146 218.366C78.2429 218.658 78.8023 219.106 79.224 219.657C79.4048 218.546 79.7663 217.496 80.2224 216.472C80.4462 215.964 80.7302 215.439 81.2122 215.164C81.9093 214.768 82.8388 215.026 83.4326 215.577C84.0265 216.128 84.3449 216.894 84.6289 217.651C84.8183 216.136 85.6789 214.708 86.8236 213.692C87.1248 213.425 87.4777 213.176 87.8822 213.116C88.4933 213.038 89.0785 213.434 89.483 213.899C89.8875 214.364 90.1802 214.932 90.6277 215.362C90.7826 214.054 91.3679 212.616 92.0134 211.463C92.1855 211.153 92.4437 210.818 92.7966 210.843C92.9601 210.852 93.1064 210.955 93.2441 211.05C94.3458 211.868 95.0687 213.184 95.1634 214.561C95.3785 213.176 95.8175 211.876 96.4716 210.628C96.6867 210.224 96.9621 209.793 97.4011 209.656C97.7281 209.552 98.0896 209.639 98.3822 209.819C98.6748 210 98.8986 210.267 99.088 210.542C99.7162 211.455 100.052 212.556 100.035 213.658C100.388 212.341 101.171 211.162 102.212 210.275C102.479 210.052 102.789 209.836 103.133 209.845C103.486 209.854 103.796 210.103 104.045 210.361C104.846 211.179 105.405 212.229 105.638 213.339C105.818 212.668 106.076 212.177 106.395 211.558C106.713 210.938 107.17 210.379 107.789 210.06C108.4 209.742 109.183 209.699 109.777 210.06C110.56 210.542 110.81 211.558 110.982 212.461C111.24 211.317 111.955 210.456 112.833 209.664C113.194 209.337 113.633 209.045 114.124 209.045C114.64 209.045 115.105 209.38 115.466 209.75C116.241 210.542 116.766 211.584 116.938 212.677C117.076 211.764 117.48 210.998 118.126 210.344C118.479 209.983 118.926 209.673 119.434 209.682C119.933 209.69 120.363 210.017 120.699 210.387C121.413 211.17 121.852 212.212 121.913 213.27C122.248 212.169 123.204 211.265 124.185 210.671C124.589 210.43 125.045 210.241 125.519 210.275C126.302 210.336 126.93 211.016 127.171 211.764C127.412 212.513 127.352 213.322 127.292 214.105C127.653 213.296 128.453 212.969 129.228 212.548C129.65 212.324 130.132 212.117 130.597 212.229C131.13 212.358 131.5 212.892 131.595 213.434C131.69 213.976 131.595 214.536 131.474 215.078C131.974 214.338 132.473 213.985 133.316 213.684C133.652 213.563 134.013 213.486 134.358 213.589C134.831 213.735 135.141 214.2 135.244 214.682C135.347 215.164 135.27 215.663 135.192 216.154C135.743 215.474 136.613 214.923 137.447 214.639C137.921 214.475 138.454 214.398 138.902 214.622C139.479 214.906 139.728 215.62 139.659 216.257C139.59 216.894 139.281 217.471 138.971 218.03C140.288 216.816 142.147 216.248 143.937 216.395C144.229 216.42 144.548 216.481 144.728 216.713C144.944 216.997 144.858 217.402 144.728 217.737C144.513 218.331 144.221 218.891 143.868 219.407C144.823 218.598 146.166 218.46 147.414 218.598C147.758 218.632 148.111 218.718 148.36 218.951C148.67 219.235 148.765 219.691 148.713 220.104C148.662 220.517 148.481 220.905 148.3 221.283C149.195 220.526 150.331 220.25 151.502 220.113C151.992 220.052 152.517 220.07 152.913 220.362C153.378 220.707 153.524 221.369 153.421 221.946C153.309 222.523 152.991 223.03 152.681 223.521C153.576 222.738 154.729 222.256 155.908 222.101C156.21 222.058 156.537 222.049 156.803 222.204C157.285 222.479 157.337 223.177 157.148 223.702C156.958 224.227 156.606 224.683 156.451 225.216C156.829 224.803 157.544 224.364 158.086 224.218C158.628 224.08 159.317 224.373 159.385 224.932C159.428 225.268 159.231 225.586 159.024 225.853C157.716 227.566 155.642 228.47 153.653 229.304C147.173 223.805 138.764 220.784 130.416 219.2C122.067 217.617 113.478 217.694 105.009 218.426C95.0687 219.278 84.5515 221.257 75.5749 225.612L75.5404 225.595Z" stroke="black" stroke-linecap="round" stroke-linejoin="round"/>
<path d="M111.868 180.66L112.514 184.869" stroke="black" stroke-linecap="round" stroke-linejoin="round"/>
<path d="M155.478 228.134C155.478 228.134 136.733 214.604 114.123 214.458C91.5141 214.312 76.1342 222.436 75.1358 224.433C74.1375 226.43 70.0063 241.526 71.8567 247.086C73.7071 252.637 79.3788 261.613 79.8178 263.042C80.2567 264.471 80.6871 280.703 80.6871 280.703C80.6871 280.703 142.508 285.264 144.221 283.982C145.933 282.699 153.197 242.67 155.478 228.143V228.134Z" stroke="black" stroke-linecap="round" stroke-linejoin="round"/>
<path d="M71.4263 241.81C71.4263 241.81 113.228 223.134 152.801 243.901" stroke="black" stroke-linecap="round" stroke-linejoin="round"/>
<path d="M78.8364 261.063C78.8364 261.063 115.604 248.772 149.393 262.276" stroke="black" stroke-linecap="round" stroke-linejoin="round"/>
<path d="M78.8365 276.003C78.8365 276.003 75.3853 288.182 75.3853 289.352C75.3853 290.523 87.2451 286.787 107.97 287.751C128.694 288.715 143.549 294.378 144.298 294.051C145.047 293.733 146.777 282.278 146.217 281.021C145.658 279.756 116.8 266.708 78.8365 276.003Z" stroke="black" stroke-linecap="round" stroke-linejoin="round"/>
<path d="M171.753 263.817C171.753 263.817 167.587 256.656 168.121 254.203C168.655 251.75 173.354 243.557 180.514 238.996C187.675 234.434 191.522 236.362 192.477 236.896C193.433 237.429 196.755 245.339 196.755 245.339C196.755 245.339 175.282 263.498 171.753 263.825V263.817Z" stroke="black" stroke-linecap="round" stroke-linejoin="round"/>
<path d="M195.791 243.127C195.791 243.127 202.84 241.104 207.892 245.657C212.944 250.21 214.441 263.963 213.236 268.662C213.236 268.662 218.004 277.389 217.798 292.451C217.798 292.451 222.609 297.58 227.411 309.328C232.214 321.076 229.546 341.164 225.277 343.84C225.277 343.84 222.858 352.705 214.097 355.347C205.336 357.981 202.556 357.129 202.556 357.129C202.556 357.129 200.989 365.038 195.223 363.179C195.223 363.179 183.113 371.442 171.219 364.109C171.219 364.109 165.091 367.31 156.76 358.695C148.429 350.08 160.607 312.9 160.607 312.9C160.607 312.9 155.624 307.486 155.478 300.36C155.331 293.234 155.418 282.458 170.634 261.76C170.634 261.76 175.781 262.311 184.379 255.399C192.977 248.488 195.584 247.103 195.799 243.127H195.791Z" stroke="black" stroke-linecap="round" stroke-linejoin="round"/>
<path d="M185.678 336.835C182.063 341.043 179.111 345.82 176.959 350.924C179.154 350.545 180.996 349.125 182.734 347.748C192.52 340.01 202.383 332.204 210.293 322.556" stroke="black" stroke-linecap="round" stroke-linejoin="round"/>
<path d="M218.039 292.261C219.321 299.198 218.116 306.566 214.691 312.728" stroke="black" stroke-linecap="round" stroke-linejoin="round"/>
<path d="M218.53 318.907C214.622 329.803 207.195 339.399 197.633 345.923" stroke="black" stroke-linecap="round" stroke-linejoin="round"/>
<path d="M190.884 276.382C182.037 283.879 175.203 293.742 171.296 304.655C179.093 296.728 187.493 289.395 196.401 282.751" stroke="black" stroke-linecap="round" stroke-linejoin="round"/>
<path d="M213.529 264.72C213.933 267.285 212.797 269.85 211.343 271.993C209.888 274.145 208.09 276.064 206.876 278.353" stroke="black" stroke-linecap="round" stroke-linejoin="round"/>
<path d="M165.057 272.535C162.81 276.021 161.115 279.859 160.03 283.861C159.721 285.015 159.454 286.22 159.643 287.399C159.901 289.103 161.037 290.514 161.967 291.969C164.575 296.014 165.84 300.911 165.513 305.705C162.561 309.982 161.055 314.974 160.573 320.155C159.919 327.092 157.044 334.253 159.729 340.682C158.214 347.016 159.755 354.194 163.353 359.625C164.248 360.976 165.298 362.25 166.666 363.119C168.035 363.988 169.747 364.401 171.296 363.937" stroke="black" stroke-linecap="round" stroke-linejoin="round"/>
<path d="M202.556 357.129C202.556 357.129 209.036 353.884 211.016 349.667" stroke="black" stroke-linecap="round" stroke-linejoin="round"/>
<path d="M195.215 363.179C195.215 363.179 190.369 365.176 186.023 361.897" stroke="black" stroke-linecap="round" stroke-linejoin="round"/>
<path d="M169.558 250.907C169.558 250.907 169.868 257.198 174.507 261.097" stroke="black" stroke-linecap="round" stroke-linejoin="round"/>
<path d="M171.296 248.144C171.296 248.144 173.671 255.348 177.716 259.772" stroke="black" stroke-linecap="round" stroke-linejoin="round"/>
<path d="M174.507 244.443C174.507 244.443 178.354 254.642 181.194 257.732" stroke="black" stroke-linecap="round" stroke-linejoin="round"/>
<path d="M177.717 241.052C177.717 241.052 182.959 251.389 183.785 255.64" stroke="black" stroke-linecap="round" stroke-linejoin="round"/>
<path d="M181.194 238.582C181.194 238.582 185.85 247.507 187.132 252.774" stroke="black" stroke-linecap="round" stroke-linejoin="round"/>
<path d="M185.101 236.732C185.101 236.732 189.637 244.572 190.256 250.709" stroke="black" stroke-linecap="round" stroke-linejoin="round"/>
<path d="M188.811 236.035C188.811 236.035 192.761 243.514 193.39 247.791" stroke="black" stroke-linecap="round" stroke-linejoin="round"/>
<path d="M191.091 236.327C191.367 236.413 194.758 242.559 194.947 246.07" stroke="black" stroke-linecap="round" stroke-linejoin="round"/>
<path d="M48.7826 261.786C48.6105 261.278 49.5658 253.024 54.833 246.724C54.833 246.724 55.6249 246.483 56.4769 249.332C57.3289 252.172 66.1937 269.91 69.8257 274.825C69.8257 274.825 68.5433 286.469 67.6912 287.752C66.8392 289.034 53.8003 276.537 48.7826 261.786Z" stroke="black" stroke-linecap="round" stroke-linejoin="round"/>
<path d="M48.7827 261.786C48.7827 261.786 47.5003 258.524 47.6036 255.933" stroke="black" stroke-linecap="round" stroke-linejoin="round"/>
<path d="M67.6909 287.751C67.6909 287.751 69.8253 292.261 69.8253 294.069" stroke="black" stroke-linecap="round" stroke-linejoin="round"/>
<path d="M55.908 247.826C55.908 247.826 49.3498 258.756 49.8146 264.531" stroke="black" stroke-linecap="round" stroke-linejoin="round"/>
<path d="M57.2943 251.38C57.2943 251.38 50.7533 260.236 51.2267 267.655" stroke="black" stroke-linecap="round" stroke-linejoin="round"/>
<path d="M59.54 256.174C59.54 256.174 54.5999 264.023 53.5068 271.864" stroke="black" stroke-linecap="round" stroke-linejoin="round"/>
<path d="M61.6058 260.322C61.6058 260.322 57.2854 268.662 56.1665 276.004" stroke="black" stroke-linecap="round" stroke-linejoin="round"/>
<path d="M63.3703 263.722C63.3703 263.722 59.7555 273.155 58.6108 279.308" stroke="black" stroke-linecap="round" stroke-linejoin="round"/>
<path d="M65.2813 267.285C65.2813 267.285 61.2534 276.933 61.3911 282.631" stroke="black" stroke-linecap="round" stroke-linejoin="round"/>
<path d="M67.1915 270.676C67.1915 270.676 63.6456 280.806 63.835 285.169" stroke="black" stroke-linecap="round" stroke-linejoin="round"/>
<path d="M110.792 282.08C109.794 291.091 104.415 297.89 98.7863 297.27C93.1576 296.651 89.4052 288.836 90.4035 279.816C91.4019 270.805 96.781 264.006 102.41 264.626C108.038 265.254 111.791 273.06 110.792 282.08Z" stroke="black" stroke-linecap="round" stroke-linejoin="round"/>
<path d="M108.477 281.822C107.703 288.793 103.546 294.052 99.1909 293.57C94.836 293.088 91.9355 287.046 92.7101 280.075C93.4847 273.103 97.6417 267.845 101.997 268.327C106.352 268.809 109.252 274.85 108.477 281.822Z" stroke="black" stroke-linecap="round" stroke-linejoin="round"/>
<path d="M99.6469 220.715C99.4489 219.596 99.6727 218.408 100.275 217.444C100.43 217.203 100.611 216.963 100.86 216.816C101.11 216.67 101.437 216.627 101.687 216.773C101.945 216.928 102.065 217.247 102.143 217.539C102.384 218.443 102.453 219.398 102.349 220.328C102.84 219.002 104.045 217.969 105.379 217.522C105.663 217.427 106.007 217.367 106.239 217.556C106.523 217.789 106.472 218.228 106.369 218.581C105.999 219.854 105.293 221.025 104.337 221.946C105.233 220.999 106.687 220.345 107.987 220.371C108.339 220.371 108.735 220.448 108.916 220.749C109.123 221.094 108.942 221.533 108.71 221.86C108.262 222.505 107.642 223.022 107.04 223.529C107.625 223.357 108.09 223.151 108.692 223.202C109.303 223.254 109.923 223.581 110.155 224.14C110.405 224.76 110.095 225.5 109.596 225.948C109.097 226.395 108.443 226.619 107.797 226.834C108.417 226.877 109.062 226.826 109.648 227.041C110.233 227.265 110.767 227.695 110.964 228.289C111.231 229.089 110.81 229.984 110.173 230.526C109.527 231.069 108.71 231.335 107.909 231.594C108.52 231.619 108.882 231.783 109.441 232.05C110.001 232.317 110.491 232.756 110.715 233.324C110.947 233.892 110.878 234.597 110.483 235.062C110.173 235.424 109.699 235.613 109.226 235.673C108.753 235.733 108.271 235.673 107.806 235.604C108.391 236.043 108.873 236.474 109.355 237.024C109.63 237.343 109.889 237.696 109.94 238.117C110.009 238.66 109.673 239.202 109.2 239.486C108.727 239.77 108.15 239.813 107.608 239.735C107.066 239.649 106.549 239.443 106.042 239.236C107.126 240.045 107.703 241.551 107.496 242.885C107.444 243.195 107.341 243.514 107.092 243.694C106.739 243.944 106.248 243.815 105.861 243.626C105.026 243.23 104.294 242.61 103.769 241.861C104.053 243.247 104.062 244.633 103.821 246.027C103.769 246.328 103.701 246.647 103.537 246.905C103.373 247.172 103.089 247.378 102.78 247.369C102.478 247.369 102.212 247.163 102.005 246.948C101.342 246.276 100.938 245.373 100.869 244.435C100.585 245.424 100.103 246.319 99.5436 247.18C99.3542 247.473 99.1133 247.783 98.7776 247.869C98.4506 247.955 98.1063 247.808 97.8481 247.585C97.3661 247.172 97.1424 246.517 97.1251 245.881C97.1079 245.244 97.2715 244.615 97.4522 244.004C96.7637 244.658 95.946 244.942 95.0165 245.123C94.7411 245.175 94.4571 245.201 94.1903 245.132C93.9235 245.063 93.6653 244.882 93.5706 244.624C93.4587 244.331 93.5706 244.004 93.6911 243.712C94.0354 242.903 94.5174 242.154 95.1112 241.5C94.2764 241.904 93.4157 241.922 92.4948 241.896C92.0387 241.878 91.5137 241.767 91.3157 241.353C91.1092 240.923 91.3932 240.407 91.7547 240.097C92.1247 239.787 92.5809 239.598 92.8993 239.245C92.0731 239.013 91.2555 238.642 90.6358 238.04C90.3948 237.799 90.1625 237.506 90.1538 237.171C90.1538 236.861 90.3432 236.585 90.5411 236.344C91.135 235.622 91.8752 235.01 92.6928 234.572C91.7805 234.589 90.9715 234.201 90.2227 233.694C89.9129 233.487 89.603 233.194 89.603 232.816C89.603 232.437 89.9129 232.136 90.2227 231.929C90.8854 231.482 91.6686 231.198 92.469 231.112C91.7977 230.767 91.1952 230.277 90.6788 229.726C90.4465 229.468 90.2141 229.115 90.3604 228.797C90.4809 228.53 90.8166 228.435 91.1092 228.392C91.8838 228.272 92.667 228.28 93.4329 228.418C92.7014 227.85 92.2624 227.058 91.944 226.189C91.8493 225.948 91.7977 225.629 91.9784 225.449C92.1161 225.319 92.3227 225.311 92.5034 225.319C93.1747 225.337 93.8547 225.449 94.5001 225.638C94.0354 224.863 93.6825 224.029 93.3555 223.185C93.2178 222.815 93.1059 222.359 93.3641 222.075C93.6309 221.782 94.1043 221.86 94.4829 221.963C95.0854 222.126 95.7137 222.299 96.1612 222.738C95.6965 221.928 95.619 221.188 95.5501 220.259C95.5157 219.837 95.5501 219.364 95.8514 219.063C96.1354 218.778 96.5915 218.744 96.9874 218.796C98.1063 218.942 99.1649 219.699 99.6297 220.732L99.6469 220.715Z" stroke="black" stroke-linecap="round" stroke-linejoin="round"/>
<path d="M108.477 233.023C107.703 239.994 103.546 245.252 99.1909 244.77C94.836 244.289 91.9355 238.247 92.7101 231.275C93.4847 224.304 97.6417 219.046 101.997 219.527C106.352 220.009 109.252 226.051 108.477 233.023Z" stroke="black" stroke-linecap="round" stroke-linejoin="round"/>
<path d="M106.696 232.825C106.093 238.212 102.883 242.283 99.5093 241.913C96.1441 241.543 93.8978 236.87 94.4917 231.473C95.0941 226.086 98.3044 222.015 101.678 222.385C105.043 222.755 107.29 227.428 106.696 232.825Z" stroke="black" stroke-linecap="round" stroke-linejoin="round"/>
<path d="M158.61 189.181C158.61 189.181 153.636 188.079 152.517 188.329C151.398 188.578 142.791 196.513 134.675 219.803C126.559 243.092 125.346 275.04 126 275.358C126.663 275.676 129.864 276.003 129.864 276.003C129.864 276.003 129.968 223.443 158.602 189.181H158.61Z" stroke="black" stroke-linecap="round" stroke-linejoin="round"/>
<path d="M105.258 192.598C105.258 192.598 99.414 194.233 98.4931 195.231C97.5636 196.229 85.4628 216.644 81.1509 232.145C76.839 247.654 84.387 269.445 84.2493 272.862C84.103 276.279 87.3821 272.862 87.3821 272.862C87.3821 272.862 80.6862 244.796 85.5316 230.131C90.3771 215.457 104.475 194.517 105.258 192.598Z" stroke="black" stroke-linecap="round" stroke-linejoin="round"/>
<path d="M123.668 272.682C123.668 272.682 131.948 273.215 132.051 273.542C132.154 273.861 130.872 279.739 130.502 279.791C130.132 279.842 124.357 280.109 123.875 279.257C123.393 278.405 123.341 272.948 123.659 272.682H123.668Z" stroke="black" stroke-linecap="round" stroke-linejoin="round"/>
<path d="M82.7005 273.06C82.7005 273.06 88.0452 272.208 89.0607 272.26C90.0763 272.311 88.6304 278.723 88.3636 278.723C88.0968 278.723 83.7161 279.36 83.3976 278.939C83.0792 278.508 82.3304 273.861 82.7005 273.06Z" stroke="black" stroke-linecap="round" stroke-linejoin="round"/>
</svg>
