<svg width="131" height="92" viewBox="0 0 131 92" fill="none" xmlns="http://www.w3.org/2000/svg">
<path d="M129.17 65.6012L119.955 54.3159C119.405 53.6365 118.403 53.5395 117.724 54.0895L116.473 55.1085L114.102 52.2023C118.527 48.455 121.28 43.2355 121.863 37.4494C122.461 31.529 120.715 25.7274 116.953 21.1174C109.187 11.6008 95.1271 10.1826 85.62 17.9523C76.1081 25.722 74.6907 39.7835 82.4565 49.3008C86.2182 53.9108 91.548 56.7794 97.4711 57.3779C98.2364 57.4534 98.9909 57.4911 99.7507 57.4911C104.434 57.4911 108.955 56.0192 112.766 53.2531L115.158 56.1863L113.908 57.2054C113.579 57.475 113.38 57.8524 113.337 58.273C113.294 58.6936 113.418 59.1087 113.687 59.4322L122.903 70.7175C123.7 71.6988 124.87 72.2056 126.045 72.2056C126.945 72.2056 127.85 71.909 128.599 71.2944C129.434 70.615 129.952 69.6445 130.065 68.566C130.167 67.4876 129.855 66.4368 129.17 65.6012ZM97.6429 55.6855C92.1783 55.1355 87.2526 52.4827 83.7762 48.2286C76.6032 39.4398 77.9127 26.4512 86.6972 19.2735C90.5073 16.157 95.1098 14.6419 99.6852 14.6419C105.651 14.6419 111.574 17.2192 115.632 22.196C119.108 26.4555 120.714 31.8096 120.165 37.2774C119.615 42.7447 116.964 47.6728 112.712 51.151C108.465 54.6287 103.108 56.2354 97.6429 55.6855ZM128.367 68.3995C128.303 69.0249 128.006 69.5857 127.521 69.9793C126.519 70.7988 125.037 70.6479 124.218 69.645L115.078 58.4514L118.715 55.4859L127.855 66.6795C128.249 67.1594 128.432 67.774 128.367 68.3995ZM54.3251 45.1659C53.8562 45.1659 53.4736 45.5487 53.4736 46.0178V59.298C53.4736 59.7671 53.8562 60.15 54.3251 60.15H64.2305C64.6993 60.15 65.082 59.7671 65.082 59.298V46.0178C65.082 45.5487 64.6993 45.1659 64.2305 45.1659H54.3251ZM63.379 58.4461H55.1766V46.8698H63.379V58.4461ZM70.3957 38.3072V58.4406H78.598V49.4362C78.598 48.9671 78.9806 48.5843 79.4495 48.5843C79.9184 48.5843 80.301 48.9671 80.301 49.4362V59.2871C80.301 59.7562 79.9184 60.1391 79.4495 60.1391H69.5441C69.0753 60.1391 68.6926 59.7562 68.6926 59.2871V37.456C68.6926 36.9869 69.0753 36.604 69.5441 36.604H75.0573C75.5262 36.604 75.9088 36.9869 75.9088 37.456C75.9088 37.9251 75.5262 38.3079 75.0573 38.3079L70.3957 38.3072ZM85.6144 54.9567V58.4398H93.9408C94.4097 58.4398 94.7923 58.8226 94.7923 59.2917C94.7923 59.7608 94.4097 60.1436 93.9408 60.1436H84.7631C84.2942 60.1436 83.9116 59.7608 83.9116 59.2917V54.9566C83.9116 54.4876 84.2942 54.1047 84.7631 54.1047C85.2319 54.1047 85.6144 54.4876 85.6144 54.9567ZM77.1588 25.2908L72.5455 22.5194C72.594 22.3091 72.6264 22.088 72.6264 21.8616C72.6264 20.3033 71.3599 19.0308 69.797 19.0308C68.2396 19.0308 66.9677 20.2979 66.9677 21.8616C66.9677 22.0071 66.9838 22.1473 67 22.2821L58.3233 26.9676C57.8652 26.5525 57.2617 26.299 56.5988 26.299C55.1869 26.299 54.0335 27.4529 54.0335 28.8656C54.0335 30.2782 55.1868 31.4322 56.5988 31.4322C58.0107 31.4322 59.1641 30.2783 59.1641 28.8656C59.1641 28.7308 59.1479 28.596 59.1317 28.4666L67.7491 23.8134C68.2665 24.3526 68.9886 24.6923 69.7916 24.6923C70.5084 24.6923 71.1659 24.4227 71.6617 23.9752L76.275 26.7466C76.4097 26.8275 76.5606 26.8652 76.7115 26.8652C77.0025 26.8652 77.2828 26.7196 77.439 26.45C77.6923 26.0564 77.563 25.5334 77.1588 25.2908ZM56.5994 29.7282C56.1252 29.7282 55.7372 29.34 55.7372 28.8655C55.7372 28.391 56.1252 28.0028 56.5994 28.0028C57.0737 28.0028 57.4617 28.391 57.4617 28.8655C57.4671 29.34 57.0791 29.7282 56.5994 29.7282ZM69.7976 22.9938C69.1778 22.9938 68.6712 22.4869 68.6712 21.8669C68.6712 21.2468 69.1778 20.74 69.7976 20.74C70.4173 20.74 70.9239 21.2468 70.9239 21.8669C70.9239 22.4869 70.4173 22.9938 69.7976 22.9938ZM37.7638 26.8706C37.7638 21.6943 33.5548 17.4833 28.3812 17.4833C23.2075 17.4833 18.9985 21.6943 18.9985 26.8706C18.9985 32.0468 23.2075 36.2579 28.3812 36.2579C33.5548 36.2525 37.7638 32.0414 37.7638 26.8706ZM20.7073 26.8706C20.7073 22.6326 24.1511 19.1871 28.387 19.1871C32.6229 19.1871 36.0666 22.6326 36.0666 26.8706C36.0666 31.1086 32.6229 34.554 28.387 34.554C24.1511 34.5486 20.7073 31.1032 20.7073 26.8706ZM28.3816 32.5213C27.9127 32.5213 27.5301 32.1385 27.5301 31.6694V31.4753C26.948 31.2866 26.4361 30.9091 26.075 30.3915C25.8109 30.0033 25.9079 29.4749 26.2959 29.2107C26.684 28.9465 27.2121 29.0436 27.4762 29.4318C27.681 29.7283 28.0151 29.9063 28.3762 29.9063C28.9798 29.9063 29.4648 29.4156 29.4648 28.8171C29.4648 28.2132 28.9744 27.7279 28.3762 27.7279C26.8348 27.7279 25.5846 26.4716 25.5846 24.935C25.5846 23.6895 26.3984 22.6326 27.5247 22.2714L27.53 22.0719C27.53 21.6028 27.9127 21.22 28.3815 21.22C28.8504 21.22 29.233 21.6028 29.233 22.0719V22.266C29.8151 22.4547 30.3324 22.8321 30.6881 23.3498C30.9522 23.738 30.8552 24.2664 30.4672 24.5306C30.0792 24.7948 29.551 24.6977 29.2869 24.3095C29.0822 24.013 28.748 23.835 28.387 23.835C27.7834 23.835 27.2983 24.3257 27.2983 24.9242C27.2983 25.5281 27.7888 26.0133 28.387 26.0133C29.9283 26.0133 31.1785 27.2697 31.1785 28.8063C31.1785 30.0518 30.3647 31.1087 29.2385 31.4699V31.664C29.2331 32.1385 28.8558 32.5213 28.3816 32.5213ZM42.7436 51.2468C42.7436 51.7159 42.361 52.0987 41.8921 52.0987L14.8705 52.0933C14.4017 52.0933 14.019 51.7105 14.019 51.2414C14.019 50.7723 14.4017 50.3895 14.8705 50.3895H41.8976C42.3665 50.3948 42.7436 50.7723 42.7436 51.2468ZM42.7436 59.2914C42.7436 59.7605 42.361 60.1433 41.8921 60.1433H14.8705C14.4017 60.1433 14.019 59.7605 14.019 59.2914C14.019 58.8223 14.4017 58.4395 14.8705 58.4395H41.8976C42.3665 58.4449 42.7436 58.8223 42.7436 59.2914ZM42.7436 43.1969C42.7436 43.666 42.361 44.0488 41.8921 44.0488H14.8705C14.4017 44.0488 14.019 43.666 14.019 43.1969C14.019 42.7278 14.4017 42.3449 14.8705 42.3449H41.8976C42.3665 42.3449 42.7436 42.7278 42.7436 43.1969ZM101.109 10.5495V8.93727H8.43065V68.6956H101.109V59.8799C101.109 59.4108 101.492 59.0279 101.961 59.0279C102.429 59.0279 102.812 59.4108 102.812 59.8799V69.5529C102.812 70.022 102.43 70.4048 101.961 70.4048L7.57967 70.3994C7.11082 70.3994 6.72818 70.0166 6.72818 69.5475V8.08588C6.72818 7.61679 7.1108 7.23396 7.57967 7.23396H101.961C102.429 7.23396 102.812 7.61677 102.812 8.08588V10.55C102.812 11.0191 102.43 11.4019 101.961 11.4019C101.492 11.4019 101.109 11.024 101.109 10.5495ZM107.953 57.7179C107.485 57.7179 107.102 58.1007 107.102 58.5698V70.9387C107.102 73.144 105.307 74.9394 103.103 74.9394H65.1466H65.1358H44.404H44.3986H6.44203C4.23778 74.9394 2.44329 73.1439 2.44329 70.9387V6.68885C2.44329 4.48351 4.23792 2.68812 6.44203 2.68812H103.102C105.306 2.68812 107.101 4.48364 107.101 6.68885V11.8543C107.101 12.3234 107.484 12.7062 107.952 12.7062C108.421 12.7062 108.804 12.3234 108.804 11.8543V6.68885C108.804 3.54544 106.249 0.984253 103.102 0.984253H6.442C3.30015 0.984253 0.740234 3.54006 0.740234 6.68885V70.9387C0.740234 74.0821 3.29477 76.6433 6.442 76.6433H43.3473L41.6066 84.9091H30.8228C29.8581 84.9091 29.0875 85.2003 28.5216 85.7718C27.4491 86.8663 27.4814 88.651 27.5084 90.0853C27.5138 90.2902 27.5138 90.4897 27.5138 90.673C27.5138 91.1421 27.8964 91.5249 28.3653 91.5249H81.1847C81.6535 91.5249 82.0362 91.1421 82.0362 90.673C82.0362 90.4843 82.0416 90.2902 82.0416 90.0799C82.0685 88.6456 82.1008 86.861 81.0284 85.7664C80.4679 85.1948 79.6919 84.9037 78.7271 84.9037H67.938L66.1973 76.6379H103.103C106.244 76.6379 108.804 74.0821 108.804 70.9333V58.5644C108.799 58.1007 108.422 57.7179 107.953 57.7179ZM79.8115 86.9641C80.3451 87.5087 80.3612 88.7543 80.3451 89.8218H29.2019C29.1858 88.7542 29.1965 87.5087 29.7355 86.9641C29.9672 86.7269 30.3229 86.6136 30.8187 86.6136H78.7183C79.2249 86.6083 79.5798 86.7269 79.8115 86.9641ZM66.2038 84.9098H43.3432L45.0839 76.644H64.4581L66.2038 84.9098ZM118.582 37.1217C119.088 32.0803 117.606 27.1412 114.4 23.2108C111.193 19.2854 106.655 16.8429 101.611 16.3307C96.5723 15.8238 91.6357 17.3066 87.7072 20.5147C79.6072 27.1306 78.4 39.1118 85.0126 47.2157C88.7581 51.8041 94.2174 54.182 99.7196 54.182C103.939 54.182 108.186 52.7855 111.7 49.9116C115.634 46.7034 118.075 42.163 118.582 37.1217ZM110.633 48.5902C107.431 51.2052 103.567 52.4777 99.7303 52.4777C94.7184 52.4777 89.7495 50.3102 86.3382 46.1368C80.3184 38.7606 81.4178 27.8531 88.7902 21.8307C91.9052 19.2912 95.7153 17.9324 99.6818 17.9324C100.269 17.9324 100.857 17.9648 101.449 18.0241C106.036 18.4878 110.169 20.7092 113.09 24.2841C116.006 27.8589 117.358 32.3558 116.895 36.9443C116.426 41.5381 114.206 45.6732 110.633 48.5902ZM93.7969 35.2669H89.9221C89.4532 35.2669 89.0706 35.6497 89.0706 36.1188V41.9366C89.0706 42.4057 89.4532 42.7885 89.9221 42.7885H93.7969C94.2658 42.7885 94.6484 42.4057 94.6484 41.9366V36.1188C94.6484 35.6444 94.2658 35.2669 93.7969 35.2669ZM92.9454 41.0847H90.7736V36.9653H92.9454V41.0847ZM101.649 32.0857H97.7742C97.3053 32.0857 96.9227 32.4685 96.9227 32.9376V41.9366C96.9227 42.4057 97.3053 42.7885 97.7742 42.7885H101.649C102.118 42.7885 102.501 42.4057 102.501 41.9366V32.9376C102.501 32.4631 102.118 32.0857 101.649 32.0857ZM100.798 41.0847H98.6257V33.7894H100.798V41.0847ZM109.501 27.6373H105.621C105.152 27.6373 104.769 28.0201 104.769 28.4892V41.9312C104.769 42.4003 105.152 42.7832 105.621 42.7832H109.496C109.965 42.7832 110.347 42.4003 110.347 41.9312V28.4892C110.353 28.0202 109.97 27.6373 109.501 27.6373ZM108.65 41.0847H106.478V29.3466H108.65V41.0847Z" fill="black"/>
</svg>
