<svg width="125" height="125" viewBox="0 0 125 125" fill="none" xmlns="http://www.w3.org/2000/svg">
<path fill-rule="evenodd" clip-rule="evenodd" d="M57.2482 114.465C53.4376 118.998 47.7161 121.878 41.334 121.878C31.3741 121.878 23.0422 114.86 21.02 105.511C11.66 103.491 4.63368 95.169 4.63368 85.2209C4.63368 83.0461 4.97252 80.9487 5.59467 78.9735C2.2062 74.263 0.211914 68.4871 0.211914 62.2514C0.211914 51.8815 5.72792 42.7936 13.9825 37.7441C13.6548 36.3958 13.477 34.9866 13.477 33.5385C13.477 25.155 19.343 18.1245 27.192 16.322C28.9973 8.4767 36.0355 2.62317 44.4287 2.62317C53.3332 2.62317 60.7098 9.20905 61.937 17.7644C62.0537 18.5634 62.1092 19.379 62.1148 20.2058V20.2835L62.1148 33.5329L68.7973 33.5329V13.3209C66.1977 12.411 64.3312 9.93087 64.3312 7.02349C64.3312 3.3393 67.3253 0.35437 71.0082 0.35437C74.691 0.35437 77.6851 3.34499 77.6851 7.02349C77.6851 9.93087 75.8187 12.4055 73.219 13.3209V33.5329H81.9903V22.4917C81.9903 20.7329 82.6902 19.0462 83.9345 17.8089C85.1788 16.566 86.8675 15.8669 88.6229 15.8669H90.8337C91.417 15.8669 91.9836 15.6339 92.3947 15.2178C92.8113 14.8016 93.0446 14.2413 93.0446 13.6586V13.3424C90.4171 12.4435 88.5229 9.95787 88.5229 7.02834C88.5229 3.34415 91.5171 0.359213 95.1999 0.359213C98.8884 0.359213 101.877 3.34983 101.877 7.02834C101.877 9.9191 100.033 12.3769 97.4607 13.3036V13.6587C97.4607 15.4175 96.7608 17.1042 95.5165 18.3415C94.2722 19.5844 92.5835 20.2835 90.8281 20.2835H88.6172C88.034 20.2835 87.4674 20.5165 87.0562 20.9326C86.6396 21.3488 86.4063 21.9092 86.4063 22.4918V33.533H88.6394C90.4003 33.533 92.0834 34.2321 93.3277 35.4749C94.572 36.7178 95.272 38.4045 95.272 40.1578L95.272 46.7826H101.905C103.127 46.7826 104.115 45.795 104.115 44.5743L104.115 42.3661C104.115 38.7097 107.087 35.7413 110.748 35.7413H111.031C111.959 33.1668 114.425 31.3247 117.32 31.3247C121.008 31.3247 123.996 34.3153 123.996 37.9938C123.996 41.6724 121.002 44.663 117.32 44.663C114.392 44.663 111.903 42.7766 110.998 40.1521H110.748C109.526 40.1521 108.537 41.1397 108.537 42.3604L108.537 44.5687C108.537 48.225 105.565 51.1935 101.905 51.1935H95.272V60.0376L111.125 60.0376C112.036 57.4687 114.497 55.6211 117.38 55.6211C121.04 55.6211 124.012 58.5894 124.012 62.2459C124.012 65.9022 121.041 68.8707 117.38 68.8707C114.497 68.8707 112.036 67.0286 111.125 64.4541H95.272V73.2261H101.905C105.565 73.2261 108.537 76.1945 108.537 79.8509V82.0592C108.537 82.6473 108.771 83.2077 109.187 83.6239C109.604 84.04 110.165 84.2731 110.748 84.2731H111.12C112.026 81.6709 114.487 79.8122 117.37 79.8122C121.014 79.8122 123.991 82.7918 123.991 86.4813C123.991 90.1709 121.019 93.1505 117.37 93.1505C114.487 93.1505 112.026 91.2918 111.12 88.6896H110.748C108.987 88.6896 107.304 87.9905 106.06 86.7477C104.815 85.5048 104.116 83.8181 104.116 82.0648V79.8565C104.116 78.6359 103.127 77.6483 101.905 77.6483H95.2721V84.3229C95.2721 86.0818 94.5721 87.7629 93.3278 89.0058C92.0835 90.2486 90.3948 90.9477 88.6395 90.9477H86.4064V102.017C86.4064 102.599 86.6397 103.165 87.0563 103.576C87.4729 103.992 88.034 104.225 88.6173 104.225H90.8282C92.5891 104.225 94.2723 104.924 95.5166 106.167C96.7608 107.41 97.4608 109.097 97.4608 110.85V111.205C100.033 112.132 101.877 114.595 101.877 117.486C101.877 121.164 98.8828 124.155 95.2 124.155C91.5172 124.155 88.523 121.164 88.523 117.486C88.523 114.556 90.4172 112.071 93.0447 111.172V110.85C93.0447 110.267 92.8114 109.701 92.3948 109.291C91.9782 108.875 91.4172 108.642 90.8338 108.642H88.623C86.862 108.642 85.1789 107.943 83.9346 106.7C82.6903 105.457 81.9904 103.77 81.9904 102.017V90.9478H73.2191V111.183C75.8188 112.092 77.6852 114.573 77.6852 117.48C77.6852 121.158 74.6911 124.149 71.0083 124.149C67.3197 124.149 64.3313 121.158 64.3313 117.48C64.3313 114.573 66.1977 112.092 68.7974 111.183V90.9478H62.1149V101.107C62.1149 106.189 60.2817 110.844 57.2432 114.451L57.2482 114.465ZM57.5482 18.3226C56.5928 11.942 51.0823 7.04283 44.4275 7.04283C38.7504 7.04283 33.901 10.6159 32.0067 15.6262C37.4894 15.7704 42.4611 19.4767 43.9552 25.0362C44.2719 26.2125 43.5719 27.4276 42.3942 27.7438C41.2166 28.06 40.0001 27.3609 39.6835 26.1791C38.5503 21.9456 34.3175 19.3601 30.0791 20.198C29.8625 20.3034 29.6292 20.3811 29.3847 20.4144C22.9022 21.2799 17.8973 26.8338 17.8973 33.5474C17.8973 34.3463 17.9695 35.1287 18.1028 35.8887C24.602 34.0745 31.7568 36.7986 35.2897 42.9019C35.9008 43.956 35.5397 45.3098 34.4787 45.9202C33.4233 46.5305 32.0679 46.1698 31.4568 45.1101C28.6349 40.2331 22.5413 38.4076 17.5418 40.8046C9.86496 44.8938 4.63222 52.9722 4.63222 62.2595C4.63222 67.8467 6.5264 72.9956 9.70384 77.1011C9.73161 77.1122 9.75939 77.1288 9.78161 77.1455C14.9088 80.1027 21.4692 78.3439 24.4302 73.2228C25.0412 72.1686 26.391 71.808 27.452 72.4128C28.5075 73.0231 28.8685 74.3713 28.2631 75.4311C24.4302 82.0669 16.3033 84.7023 9.39809 81.8671C9.17034 82.949 9.05369 84.0754 9.05369 85.2239C9.05369 93.502 15.2251 100.348 23.2186 101.419C23.2686 101.425 23.3131 101.43 23.3575 101.441C23.4964 101.452 23.6297 101.475 23.7685 101.513C28.1903 102.695 32.7397 100.071 33.9229 95.6543C34.2395 94.4781 35.4504 93.779 36.6336 94.0952C37.8112 94.4114 38.5111 95.621 38.1946 96.8027C36.6614 102.517 31.4454 106.279 25.7793 106.213C27.9235 112.743 34.0783 117.465 41.3281 117.465C46.3553 117.465 50.8547 115.196 53.8544 111.628C56.243 108.787 57.6872 105.12 57.6872 101.125V71.081C57.6872 69.8604 58.676 68.8727 59.8981 68.8727C61.1202 68.8727 62.109 69.8603 62.109 71.081V75.5142H77.5852C78.8072 75.5142 79.796 74.5266 79.796 73.3059V51.2232C79.796 50.0026 78.8073 49.0149 77.5852 49.0149L62.109 49.0149V53.4149C62.109 54.6355 61.1202 55.6231 59.8981 55.6231C58.676 55.6231 57.6872 54.6355 57.6872 53.4149L57.6872 20.3682L57.5428 18.3375L57.5482 18.3226ZM90.8555 84.3321L90.8555 40.1667C90.8555 39.5841 90.6222 39.0182 90.2056 38.6076C89.789 38.1914 89.228 37.9584 88.6446 37.9584L62.1148 37.9584V44.5832L77.591 44.5832C81.2516 44.5832 84.2236 47.5515 84.2236 51.208V73.2907C84.2236 76.947 81.2518 79.9155 77.591 79.9155H62.1148V86.5403H88.6446C89.2279 86.5403 89.7945 86.3073 90.2056 85.8911C90.6222 85.475 90.8555 84.9147 90.8555 84.3321ZM71.0079 9.29044C72.2522 9.29044 73.2632 8.28063 73.2632 7.03786C73.2632 5.79508 72.2522 4.78527 71.0079 4.78527C69.7637 4.78527 68.7527 5.79508 68.7527 7.03786C68.7527 8.28063 69.7637 9.29044 71.0079 9.29044ZM115.175 62.2664C115.175 63.4871 116.164 64.4747 117.386 64.4747C118.608 64.4747 119.597 63.4871 119.597 62.2664C119.597 61.0458 118.608 60.0582 117.386 60.0582C116.164 60.0582 115.175 61.0458 115.175 62.2664ZM95.1999 115.242C93.9556 115.242 92.9447 116.252 92.9447 117.495C92.9447 118.738 93.9557 119.748 95.1999 119.748C96.4441 119.748 97.4551 118.738 97.4551 117.495C97.4551 116.269 96.4719 115.27 95.2498 115.242H95.1999ZM71.0079 115.242C69.7636 115.242 68.7527 116.252 68.7527 117.495C68.7527 118.738 69.7637 119.748 71.0079 119.748C72.2522 119.748 73.2632 118.738 73.2632 117.495C73.2632 116.252 72.2522 115.242 71.0079 115.242ZM119.574 86.4967C119.574 85.2595 118.596 84.2442 117.374 84.2442C116.152 84.2442 115.174 85.2651 115.174 86.4967C115.174 87.734 116.152 88.7493 117.374 88.7493C118.596 88.7493 119.574 87.734 119.574 86.4967ZM95.1985 4.78641C93.9542 4.78641 92.9432 5.79621 92.9432 7.03899C92.9432 8.28177 93.9542 9.29158 95.1985 9.29158C96.4427 9.29158 97.4537 8.28177 97.4537 7.03899C97.4537 5.79621 96.4427 4.78641 95.1985 4.78641ZM119.58 38.0106C119.58 36.7677 118.569 35.758 117.324 35.758C116.08 35.758 115.069 36.7678 115.069 38.0106C115.069 39.2533 116.08 40.2632 117.324 40.2632C118.569 40.2632 119.58 39.2533 119.58 38.0106ZM34.4341 84.1616C33.2565 83.8454 32.5566 82.6359 32.8732 81.4596C33.1898 80.2834 34.4007 79.5843 35.5783 79.9005C40.0001 81.0823 44.5495 78.4579 45.7326 74.0414C46.0493 72.8652 47.2602 72.1661 48.4378 72.4823C49.6155 72.7985 50.3154 74.008 49.9988 75.1898C48.1824 81.9588 41.2054 85.9814 34.4287 84.167L34.4341 84.1616ZM23.7798 63.1996C22.6022 62.8834 21.9023 61.6739 22.2188 60.4921C22.5355 59.3158 23.7464 58.6168 24.924 58.9329C29.3457 60.1147 33.8952 57.4904 35.0783 53.0794C35.395 51.9032 36.6059 51.2041 37.7835 51.5147C38.9611 51.831 39.661 53.0405 39.3445 54.2222C37.5281 60.9912 30.5511 65.0139 23.7744 63.1995L23.7798 63.1996ZM59.8971 60.0425C61.1192 60.0425 62.108 61.0301 62.108 62.2508C62.108 63.4715 61.1192 64.4591 59.8971 64.4591C58.675 64.4591 57.6863 63.4715 57.6863 62.2508C57.6863 61.0301 58.675 60.0425 59.8971 60.0425ZM39.2774 39.0592C38.0997 39.3755 36.8832 38.6764 36.5667 37.5001C36.2501 36.3238 36.9499 35.1087 38.1276 34.7981C44.9046 32.9838 51.8816 37.0064 53.6977 43.7753C54.0143 44.9516 53.3144 46.1667 52.1312 46.4829C50.9535 46.7991 49.7425 46.1 49.426 44.9237C48.2428 40.5072 43.6934 37.8829 39.2717 39.0646L39.2774 39.0592Z" fill="black"/>
</svg>
