<svg width="257" height="140" viewBox="0 0 257 140" fill="none" xmlns="http://www.w3.org/2000/svg">
<mask id="mask0_206_348" style="mask-type:luminance" maskUnits="userSpaceOnUse" x="0" y="0" width="257" height="140">
<path d="M0.882812 0.769531H256.035V139.578H0.882812V0.769531Z" fill="white"/>
</mask>
<g mask="url(#mask0_206_348)">
<path d="M15.3361 38.165C15.6079 36.8223 14.268 35.4742 13.1999 34.472C12.3872 35.3506 11.7008 36.3007 11.2532 37.3852C10.8304 38.4643 10.5421 39.6641 10.5421 40.9958C10.5064 41.6685 10.4735 42.3549 10.4405 43.0413C11.2285 42.2314 12.0742 41.4598 12.9913 40.6993C13.7299 40.0787 15.1274 39.1836 15.3361 38.165ZM23.8725 40.9052C24.1306 39.7712 24.6852 36.2183 22.4063 36.8388C20.369 37.4017 18.4909 39.4225 17.8045 41.4104C16.8929 44.0106 18.2822 46.446 21.1817 45.5839C22.6644 44.6311 23.51 42.5279 23.8725 40.9052ZM29.4792 88.2877C29.7373 85.3251 29.2238 82.3844 27.2359 80.2812C26.1514 79.1472 25.1327 78.4938 24.1717 78.2439C24.353 78.9386 24.5699 79.6772 24.8252 80.2318C25.3963 81.3905 25.1657 82.799 23.9631 83.4937C22.9115 84.1142 21.2723 83.8177 20.7012 82.6343C20.3031 81.7886 20.0065 80.9347 19.7484 80.0588C18.5403 81.5552 17.6288 83.7518 17.0576 86.1433C17.1483 86.168 17.2471 86.2174 17.3405 86.2696C18.1093 86.7666 18.9549 87.1125 19.732 87.593C20.833 88.2877 21.2558 89.7045 20.5941 90.8714C19.9406 91.9587 18.4085 92.42 17.3075 91.7335C17.0247 91.5441 16.7337 91.3931 16.4371 91.2366C16.4042 94.0097 16.9094 96.5605 18.0928 98.0514C18.4909 98.5813 18.6474 99.1524 18.6145 99.6988C20.0312 101.637 21.5963 101.777 23.046 101C22.8538 100.844 22.6891 100.652 22.5655 100.429C22.1015 99.5835 21.5963 98.897 21.2558 97.9937C20.8 96.7856 21.7528 95.3771 22.9279 95.0641C24.2706 94.6989 25.421 95.5089 25.8604 96.7197C25.8439 96.6703 25.8439 96.6538 25.8439 96.6373C25.9098 96.7362 26.0169 96.9751 26.0333 96.9998C26.1184 97.1151 26.2008 97.2414 26.275 97.3567C26.3244 97.4144 26.3573 97.4803 26.3903 97.5462C26.7884 96.9421 27.1371 96.3051 27.4254 95.7011C27.8071 94.8719 28.1887 93.9603 28.51 92.9746C27.8894 92.8181 27.2689 92.6533 26.6484 92.4968C25.3881 92.1811 24.6358 90.789 24.9653 89.5479C25.3222 88.2712 26.6648 87.5765 27.9141 87.8923C28.4441 88.0241 28.9493 88.1476 29.4792 88.2877ZM34.4983 69.3012C33.9519 68.2825 33.3616 67.3133 32.634 66.4182C31.5494 65.0371 29.9597 64.0679 28.1722 63.2469C24.4106 61.7395 19.839 61.8137 16.3218 63.8839C13.1999 65.7235 10.8139 70.1469 9.17475 73.2852C8.40321 74.7157 5.88816 78.5926 5.95405 79.9737C5.97053 80.4871 5.987 81.0088 6.06113 81.4729L6.15998 82.195C6.2094 82.4091 6.26706 82.5904 6.31648 82.799C6.4016 83.2713 6.57458 83.5102 6.69814 83.8012C6.93976 84.0977 7.09626 84.4382 7.4532 84.754C8.11492 85.4569 8.99354 86.1103 9.96826 86.7473C9.45482 78.0627 11.3027 69.076 19.526 65.567C26.2338 62.6758 30.9289 65.0206 34.4983 69.3012ZM37.2056 106.209C40.915 98.3095 39.3829 89.5974 36.2446 81.838C33.4961 75.7673 26.879 62.1706 18.8726 71.8849C17.4887 73.5735 16.4948 75.4213 15.8084 77.3323C20.0477 71.8355 27.0437 71.5691 31.5 78.038C36.3434 85.0258 34.2567 95.0284 29.4462 101.481C26.7225 105.141 23.0295 106.846 19.6496 106.036C20.4458 107.376 21.481 108.501 22.8538 109.158C27.4419 111.384 34.5807 111.816 37.2056 106.209ZM64.1107 91.9065C64.0777 89.375 63.9102 86.7144 63.7372 83.9742C57.3041 82.1291 50.0417 79.9737 41.7936 78.0627C41.8431 78.2439 41.9007 78.4334 41.9666 78.6091C43.7046 83.8589 44.608 87.7166 44.7892 90.2179C44.8331 90.6984 44.8496 91.0965 44.8496 91.4782C48.1609 91.3683 51.5381 90.7561 55.0416 90.7561C56.1426 90.7149 57.2876 90.8384 58.331 90.9565C59.3496 91.0965 60.3326 91.253 61.3183 91.3931C62.2875 91.5276 63.2156 91.7171 64.1107 91.9065ZM65.3682 37.7998C64.8053 30.0405 66.2386 22.6051 69.1353 15.4004C59.4238 15.6091 49.4706 17.3801 40.418 20.6584C37.9826 21.5535 35.3742 22.4568 33.238 23.9889C28.7928 27.1932 32.601 30.4221 36.3764 31.2678C40.1215 32.1107 43.9298 32.4182 47.6722 33.1788C53.6441 34.4061 59.4567 36.2842 65.3682 37.7998ZM76.0517 15.5322C75.876 15.5322 76.0187 15.5157 75.843 15.4993C74.8903 15.4498 73.8716 15.4334 72.9051 15.4004C69.6323 22.844 68.1002 30.5951 68.8552 38.6784C69.2863 38.769 69.5416 38.8844 69.9727 38.9585C70.445 39.0601 71.082 39.1507 71.082 39.2331V39.2166C72.6717 31.2513 72.6717 22.9703 76.0517 15.5322ZM83.1713 16.5179C82.1691 16.2955 81.1697 16.1033 80.184 15.9633C76.3565 23.2915 76.5322 31.8389 75.2554 39.8371C75.994 39.9607 76.7381 40.0787 77.4822 40.1858C77.5838 31.9707 79.4948 23.8791 83.1713 16.5179ZM110.043 37.1299C111.004 37.4786 111.974 37.8492 112.893 38.305C108.281 28.0032 97.7811 20.7078 86.6748 17.413C86.6418 17.5036 86.6089 17.6025 86.5677 17.6958C82.883 24.8154 81.0846 32.734 81.0516 40.7322C84.2915 41.2209 87.504 41.7838 90.6753 42.6295C90.9965 41.1798 91.5868 39.8371 92.4463 38.8185C96.455 34.0574 104.835 35.2655 110.043 37.1299ZM115.667 90.1849C115.584 85.9209 115.543 81.4893 115.807 77.1594C112.18 75.5037 108.687 73.9222 105.348 72.4148C101.795 70.9156 98.3522 69.573 95.1041 68.2496C88.5721 65.6412 82.5837 63.4885 77.2763 61.292C73.4433 59.7462 69.9398 58.3294 66.7191 56.995C65.7004 65.1442 66.5433 74.227 67.1831 82.5739C68.8387 83.0544 70.4615 83.5266 72.01 83.9742C80.8786 86.2366 88.0833 87.3377 93.4649 88.6528C98.8657 89.9296 102.526 91.0965 104.785 92.0328C107.045 92.9938 107.973 93.4798 107.907 93.6473C107.751 94.0701 103.899 92.387 93.1107 90.3167C87.7099 89.2157 80.5629 88.3041 71.4389 86.1103C70.1127 85.7561 68.7564 85.391 67.3561 84.9928C67.5455 87.7001 67.6801 90.2838 67.6965 92.7192C69.1188 93.035 70.5109 93.3562 71.8453 93.6638C73.4268 93.9603 74.9424 94.2349 76.3894 94.4984C79.4783 95.0805 82.3448 95.4759 84.8956 96.1157C87.4463 96.7856 89.7967 97.3402 91.8669 97.9608C93.9372 98.5978 95.8015 99.1853 97.4736 99.6988C100.785 100.759 103.319 101.637 105.2 102.343L105.315 102.392C106.474 102.865 107.386 103.276 108.08 103.642C108.503 103.74 108.901 103.839 109.324 103.933C110.027 104.089 110.766 104.254 111.51 104.279L112.064 104.328C112.18 104.345 112.287 104.361 112.372 104.345C112.528 104.328 112.685 104.312 112.852 104.295C112.91 104.262 113.042 104.295 113.058 104.237V103.966C113.058 103.79 113.058 103.617 113.042 103.444C113.066 102.417 113.165 101.365 113.305 100.289C113.44 99.1853 113.58 98.0514 113.835 96.8927C114.06 95.7175 114.299 94.4984 114.697 93.2739C114.964 92.2552 115.301 91.2201 115.667 90.1849ZM116.37 71.4703C117.182 65.7482 118.698 60.158 119.137 54.4113C113.066 54.0131 106.987 53.6919 100.952 53.0302C98.5746 52.7721 95.2633 52.7556 93.2425 51.3224C91.661 50.2213 90.7906 48.3268 90.5352 46.2895C84.4975 44.5981 78.3114 44.2687 72.1995 43.0084C71.9606 42.959 71.719 42.8931 71.4636 42.8436C71.4224 43.0249 71.3565 43.2006 71.2385 43.3736C69.0447 46.7508 67.7377 50.6689 67.0074 54.8918C70.3873 56.2097 74.0638 57.6567 78.0808 59.2409C83.38 61.3771 89.3985 63.4885 95.9662 66.0722C99.2281 67.3957 102.682 68.7136 106.285 70.2127C109.39 71.6103 112.644 73.093 115.999 74.6086C116.098 73.557 116.221 72.5054 116.37 71.4703ZM118.168 50.7595C117.836 50.2543 117.531 49.7079 117.248 49.1697C116.337 49.1697 115.376 48.5986 115.285 47.4482C115.203 46.5448 115.079 45.6333 114.923 44.7574C114.151 43.563 113.289 42.5444 112.147 41.9403C108.231 39.8865 102.301 38.1156 97.9212 39.4994C95.5763 40.2517 91.3123 47.2725 95.6587 48.4833C97.3995 48.9803 99.1458 49.2686 100.952 49.4443C106.683 49.9825 112.421 50.3778 118.168 50.7595ZM129.497 46.2044C127.242 43.8376 125.307 41.2045 123.475 38.3544C119.458 32.0942 114.648 26.4875 109.645 21.0071L109.514 21.1719C103.594 16.0209 96.9355 12.8414 90.6588 10.7382C84.3492 8.65148 78.3608 7.59988 72.9298 7.16881C70.2363 6.91346 67.529 6.75421 65.0964 6.61418C62.6445 6.49886 60.3326 6.35883 58.1964 6.43296C57.1283 6.43296 56.0767 6.44943 55.0746 6.44943C54.1053 6.56475 53.1471 6.65536 52.2273 6.75421C51.3157 6.88051 50.3877 6.89698 49.5777 7.06996C48.7814 7.27589 48.0044 7.41043 47.274 7.63283C44.3114 8.50322 41.9996 9.95294 40.0858 11.1693C39.144 11.7898 38.2901 12.3609 37.5378 12.932C36.791 13.4784 36.121 13.9672 35.5499 14.4147C32.0876 16.9984 29.5863 19.8649 26.706 23.0938C26.0663 23.8626 25.3222 24.6259 24.5452 25.403C23.7901 26.191 22.9279 27.001 21.9779 27.7478C20.1136 29.2634 17.9939 30.5951 16.006 32.0613C15.9731 32.0942 15.9402 32.1272 15.8907 32.1437C16.7529 33.0552 17.5464 34.0245 18.1093 35.0761C18.9961 34.3567 19.9736 33.7856 21.0087 33.511C30.4155 30.9685 28.4276 45.6992 22.8044 48.8046C22.6808 48.8732 22.549 48.9309 22.4063 48.9638C18.6474 50.3202 14.8721 48.217 14.0264 44.664C9.99572 48.1181 9.01001 51.4816 7.74974 56.4486C6.89857 59.845 6.44279 63.5544 6.22588 67.4368C6.2094 68.4308 6.17645 69.4165 6.15998 70.4187C6.1435 70.9156 6.12703 71.4538 6.12703 71.9837C6.52516 71.0227 6.92328 70.037 7.30219 69.0184C7.88153 67.5549 8.43891 66.0722 9.23241 64.5401C9.64701 63.7768 10.0781 63.0163 10.7975 62.2283L11.3521 61.6407C11.5251 61.5007 11.7008 61.3853 11.8738 61.2426L12.9007 60.5149C15.6656 58.6177 18.8231 57.7912 21.7528 57.6759C24.7017 57.599 27.4583 58.1042 29.8773 59.1888C32.2606 60.309 34.4489 61.7972 35.8959 63.7439C37.3291 65.6247 38.3231 67.6208 38.9601 69.4165C39.641 71.2149 40.1215 72.8706 40.591 74.3862C40.7091 74.7486 40.8244 75.0726 40.9315 75.4213C43.5399 76.0254 46.0906 76.58 48.4849 77.2335C51.5052 78.0792 54.4211 78.8315 57.1613 79.6442C59.3908 80.2977 61.494 80.9182 63.5478 81.5058C62.9245 72.9859 62.1475 63.8674 63.3144 55.5699C63.232 55.537 63.1332 55.5123 63.0591 55.4793C58.8691 53.7743 55.2338 52.168 52.1449 50.6524C45.9341 47.6294 42.2082 44.4911 39.9787 42.462C37.9085 40.2188 37.1067 39.2001 37.2385 39.093C37.3621 38.9777 38.3972 39.7877 40.591 41.7838C42.9688 43.5301 46.6947 46.3554 52.8808 49.1203C55.9202 50.4959 59.4732 51.9786 63.6137 53.5683C64.3742 49.3949 65.7169 45.4932 67.8778 42.0144C63.6466 40.9793 59.4567 39.7547 55.2173 38.6455C48.2762 36.8141 40.624 36.5752 33.8421 34.299C22.4584 30.488 27.2936 22.0422 36.2034 18.4646C51.5052 12.2785 71.2055 8.93429 87.1882 13.893C101.837 18.4152 115.683 28.8653 118.473 44.4911C118.53 44.6146 118.615 44.7409 118.673 44.8892C123.135 44.9469 126.688 45.5262 129.497 46.2044ZM147.456 8.55264C147.555 8.42908 147.555 8.17099 147.176 7.78934C146.984 7.58341 146.729 7.39395 146.471 7.21823C146.281 7.18528 146.072 7.15233 145.883 7.10291C145.089 7.02878 144.31 6.92993 143.524 6.83932C141.968 6.65536 140.436 6.48238 138.92 6.32588C135.88 6.03483 132.899 5.86186 130.018 5.65318C118.423 5.0656 108.023 5.18916 98.7806 5.24133C95.2633 5.2578 91.8999 5.29075 88.7121 5.29075C89.8296 5.58729 90.9636 5.91128 92.125 6.27646C95.5763 7.41043 99.1787 8.86016 102.748 10.7712C105.167 10.1918 107.509 10.0518 109.73 9.96942C112.303 9.91176 114.714 9.98589 116.993 9.91176C121.611 9.60424 125.809 9.32967 129.653 9.09903C131.583 8.98371 133.429 8.87663 135.158 8.75857C136.037 8.71738 136.899 8.66796 137.709 8.61854L138.332 8.58559C138.621 8.58559 138.794 8.60206 139.002 8.60206C139.4 8.63501 139.796 8.65148 140.177 8.66796C141.742 8.75857 143.192 8.82446 144.543 8.82446C145.23 8.84368 145.883 8.82446 146.471 8.77504C146.778 8.75857 147.075 8.71738 147.283 8.66796C147.349 8.66796 147.423 8.63501 147.456 8.55264ZM157.368 96.2063C156.168 92.6533 154.579 89.3914 152.591 86.7309C150.196 83.4525 147.143 80.9594 143.895 79.4026C140.641 77.8705 137.196 77.044 134.142 77.3818C131.086 77.714 128.36 79.0072 126.24 80.9182C124.088 82.799 122.465 85.1082 121.183 87.42C119.922 89.7209 118.912 92.0987 118.234 94.3419C117.819 95.443 117.564 96.5605 117.306 97.6285C117.009 98.6884 116.834 99.7427 116.669 100.759C116.479 101.769 116.337 102.755 116.254 103.691C116.18 104.496 116.098 105.273 116.015 106.019C115.974 106.398 115.938 106.772 115.889 107.137C115.889 107.178 115.889 107.227 115.873 107.26L115.733 107.277H115.444L114.887 107.293C114.151 107.293 113.44 107.31 112.734 107.326C112.405 107.326 112.097 107.26 111.781 107.227L111.111 107.12C110.2 106.994 109.423 106.755 108.676 106.533C105.681 105.621 103.511 104.636 101.779 104.032C101.54 103.933 101.315 103.864 101.076 103.773C99.7663 103.518 98.2946 103.202 96.6197 102.829C94.9311 102.434 93.0338 102.002 90.9471 101.53C88.8604 101.05 86.5677 100.635 84.0664 100.097C81.5486 99.5835 78.8084 99.3117 75.843 98.8394C74.2862 98.5978 72.6635 98.3424 70.9584 98.0678C69.3275 97.7384 67.6279 97.3897 65.8734 97.0162C64.1683 96.7197 62.3699 96.2227 60.5742 96.0305C59.6626 95.907 58.7346 95.7587 57.801 95.6352C56.873 95.55 56.0191 95.4594 55.0581 95.4924C51.9033 95.4759 48.2597 96.2392 44.0698 96.2886C44.1028 97.3897 44.1028 98.4824 44.0369 99.567C58.6604 99.0618 70.6839 101 80.3569 102.865C82.883 103.293 85.2251 103.839 87.4463 104.345C89.6731 104.858 91.7434 105.347 93.7065 105.794C97.6054 106.739 101.01 107.551 103.94 108.263C106.823 108.949 109.373 109.52 111.477 110.143C112.893 110.572 115.716 112.186 117.199 111.467C119.044 110.555 117.339 106.558 117.446 104.743C118.25 91.4095 128.088 79.1802 142.396 82.5739C142.778 82.6672 143.093 82.8237 143.332 83.0214C148.955 85.7726 153.799 90.5254 157.368 96.2063ZM162.113 13.6047C160.408 12.5202 158.703 11.518 156.954 10.6888L155.869 10.1342L154.752 9.67014C154.008 9.36536 153.269 9.06608 152.541 8.75857C151.786 8.53616 151.059 8.29454 150.315 8.07214L149.214 7.73991L149.145 7.72344C149.161 7.73991 149.161 7.73991 149.161 7.75639C149.37 8.28631 149.296 8.96724 148.988 9.51363C148.782 10.0024 148.302 10.3071 147.747 10.4499C147.349 10.5488 147.009 10.5899 146.663 10.6394C145.957 10.7053 145.279 10.7382 144.56 10.7712C143.143 10.8041 141.66 10.7712 140.103 10.7217C139.705 10.7053 139.315 10.6888 138.903 10.6723H138.365L137.758 10.7217C136.949 10.7794 136.103 10.8453 135.243 10.9112C133.519 11.0375 131.707 11.1858 129.793 11.3258C125.944 11.6168 121.704 11.9134 117.067 12.2621C114.714 12.3609 112.27 12.295 109.788 12.3609C108.511 12.4103 107.221 12.468 105.936 12.619C107.476 13.5882 109.025 14.6398 110.54 15.815C119.36 14.7469 128.121 15.2933 137.023 15.1945C145.419 15.1039 153.733 14.0523 162.113 13.6047ZM158.165 73.5241C158.645 73.2248 159.076 73.06 159.471 72.953C156.954 71.0227 155.232 69.1776 153.865 67.8103C153.494 67.4368 153.145 67.0909 152.841 66.7751C152.335 66.6928 151.838 66.6104 151.35 66.5363C150.229 66.3441 149.145 66.0887 148.044 65.88C145.883 65.4325 143.747 65.0042 141.66 64.5731C140.625 64.3644 139.639 64.2079 138.522 63.9526L137.602 63.7109C137.154 63.5709 136.707 63.3979 136.295 63.1563C135.466 62.6758 134.829 61.8988 134.587 60.9707C134.348 59.985 134.365 59.1888 134.365 58.744L134.332 57.2778C134.299 56.2921 134.241 55.5123 134.066 54.6364C133.983 54.2053 133.884 53.7743 133.777 53.3597L133.602 52.7227L133.552 52.5662L133.445 52.2751L133.206 51.704L132.981 51.1329L132.849 50.8419L132.635 50.4959L131.707 49.1203C131.625 49.0132 131.567 48.9144 131.482 48.821C131.449 48.8046 131.432 48.8046 131.408 48.7881C130.307 48.5986 129.082 48.2582 127.69 48.044C126.273 47.8628 124.725 47.6706 123.011 47.4647C122.05 47.3905 121.065 47.3576 120.013 47.3411C120.636 48.3597 121.356 49.3098 122.325 50.1637C122.88 50.6524 123.011 51.2565 122.838 51.7864C122.838 51.7946 122.855 51.8111 122.855 51.8276C122.74 58.0301 121.048 63.7933 120.189 69.8805C119.582 74.1281 119.343 78.4773 119.269 82.8237C120.378 81.0775 121.737 79.3532 123.442 77.7799C125.993 75.3554 129.604 73.4911 133.67 73.0189C137.742 72.5054 141.935 73.5076 145.85 75.295C148.143 76.3549 150.372 77.8128 152.418 79.5948C153.244 78.6256 153.991 77.5904 154.735 76.6459C155.902 75.2291 157.063 74.0952 158.165 73.5241ZM143.492 134.116C156.16 134.63 160.954 123.847 158.494 112.345C156.35 102.241 150.537 91.8736 140.965 87.1619C114.316 81.061 118.39 133.097 143.492 134.116ZM179.122 78.642C178.675 77.7469 178.345 76.7118 178.244 75.5037C178.12 74.0046 178.617 72.1732 179.792 70.7674C178.601 70.5917 177.417 70.4352 176.259 70.2457C171.24 69.5153 166.396 68.8124 161.734 68.1425C159.853 67.8514 158.041 67.5714 156.201 67.2968C157.7 68.4885 159.455 69.9135 161.684 71.2808C162.404 71.6954 163.164 72.0579 163.961 72.4889C164.79 72.8459 165.649 73.1918 166.561 73.5735C168.516 74.3203 170.734 75.0726 172.961 76.0583C174.087 76.5388 175.256 77.044 176.465 77.5575C177.327 77.9034 178.236 78.2686 179.122 78.642ZM189.21 77.2335C189.227 77.0111 189.125 76.7942 189.108 76.5718L189.141 76.5224L189.158 76.3906L189.125 76.1242C189.108 75.7426 188.985 75.4049 188.87 75.0726C188.587 74.4686 188.233 73.9057 187.744 73.6641C187.519 73.5735 187.189 73.4005 187.104 73.4417C187.038 73.4335 187.071 73.3181 186.643 73.384L185.83 73.4335C184.919 73.59 184.125 73.8151 183.793 74.1116C183.469 74.4027 183.263 74.7486 183.189 75.3719C183.057 76.6459 183.842 78.211 184.688 79.1637C185.317 79.9078 186.053 80.4048 186.659 80.77C187.395 80.2153 188.315 79.5454 188.812 78.7656C188.968 78.5432 189.034 78.2686 189.108 78.0627C189.108 77.9556 189.108 77.8705 189.141 77.7799C189.158 77.7305 189.174 77.7305 189.194 77.6234L189.21 77.2335ZM195.959 45.8255C201.505 42.9095 196.994 39.1672 193.557 36.5752C191.884 35.3506 190.245 34.1151 188.603 32.9234C186.981 31.7483 185.366 30.5869 183.793 29.4364C180.622 27.1767 177.483 24.8154 174.411 22.5227C171.811 20.6255 169.493 18.7474 167.132 17.0149C157.989 17.1577 148.939 18.6541 139.829 18.7474C130.795 18.8463 121.77 18.1928 112.784 19.1263C115.922 22.5557 119.011 26.0427 121.795 29.7522C126.084 35.4412 129.412 41.8168 134.895 46.446C136.246 46.4954 137.586 46.5448 138.887 46.6107C140.74 46.6684 142.473 46.8935 144.211 47.0253C145.932 47.1818 147.605 47.3246 149.246 47.4647C150.886 47.6129 152.475 47.7529 154.024 47.8051C155.564 47.8628 157.096 47.9287 158.579 48.011C160.076 48.044 161.558 48.0769 162.991 48.1017C165.874 48.1675 168.615 48.2334 171.223 48.2911C173.807 48.2911 176.259 48.3076 178.568 48.3076C179.726 48.3076 180.86 48.3268 181.964 48.3268C183.057 48.3268 184.076 48.217 185.103 48.184C188.62 48.0275 192.818 47.4647 195.959 45.8255ZM196.728 76.7942C196.761 76.7942 196.95 76.7448 196.917 76.6953C196.901 76.6624 196.884 76.6294 196.868 76.5965L196.835 76.5388C196.802 76.5224 196.851 76.5388 196.612 76.3549C195.899 75.8167 195.196 75.3554 194.559 74.8997C194.268 74.691 194.021 74.5262 193.746 74.3533C193.845 74.8832 193.922 75.4049 193.872 75.9183L193.864 76.44V76.7118L193.845 76.8354L193.812 77.077V77.1264L193.795 77.1758C193.73 77.4257 193.664 77.681 193.622 77.9227L193.573 78.1121C193.889 77.9886 194.194 77.854 194.485 77.7469C195.056 77.5245 195.594 77.2994 196.091 77.077L196.678 76.8107L196.728 76.7942ZM234.382 117.23C234.19 117.156 234.017 117.074 233.841 117.008C231.532 117.362 228.776 117.834 225.536 118.441C223.913 118.795 222.167 119.16 220.286 119.558C218.979 119.88 217.612 120.105 216.206 120.311C220.511 123.938 232.798 123.161 234.382 117.23ZM238.852 91.9587C238.902 91.0142 238.836 89.8198 238.438 88.8698C238.314 88.6858 238.191 88.5622 237.661 88.3728C237.139 88.1971 236.384 88.0653 235.525 88.057C233.808 87.9911 231.672 88.2135 229.297 88.6364C228.103 88.8533 226.845 89.1004 225.519 89.4244C224.866 89.5809 224.188 89.7539 223.501 89.9296C222.878 90.1026 222.257 90.2838 221.62 90.4595C221.604 90.476 221.604 90.476 221.604 90.4925C221.62 90.4925 221.637 90.5996 221.736 91.3931C221.969 92.9416 222.051 94.482 222.15 96.0305C222.581 95.9646 223.004 95.907 223.449 95.8246C226.151 95.4924 228.534 95.5089 230.969 95.3029C233.347 95.097 235.656 94.7071 237.263 93.6143C237.883 93.1997 238.397 92.6698 238.852 92.0658C238.852 92.0163 238.852 91.9834 238.852 91.9587ZM240.351 62.7582L239.986 62.4369C239.16 61.7395 238.405 60.9543 237.436 60.3996C236.502 59.7956 235.59 59.1558 234.621 58.5353C233.57 57.9971 232.518 57.4178 231.433 56.8632C227.136 54.6858 222.29 52.7721 217.274 51.3553C214.773 50.743 211.873 50.2708 208.96 49.4772C207.477 49.0462 205.978 48.5657 204.421 47.7859C204.04 47.6129 203.641 47.407 203.246 47.1324C202.856 46.8935 202.458 46.619 202.06 46.273C201.978 46.1961 201.887 46.0973 201.788 46.0149C201.489 46.3389 201.124 46.6107 200.679 46.7947C199.833 47.2148 199.262 47.3905 198.609 47.6871C197.886 47.9616 197.159 48.2499 196.379 48.5327C193.315 49.7408 189.622 50.57 185.366 51.0835C184.315 51.1741 183.205 51.3388 182.088 51.3718C180.97 51.3965 179.825 51.4294 178.642 51.4651C176.308 51.531 173.807 51.5887 171.19 51.6711C168.582 51.7205 165.858 51.6875 162.975 51.704C160.119 51.704 157.096 51.6875 153.865 51.5805C152.234 51.564 150.611 51.4487 148.955 51.3388C147.316 51.207 145.628 51.1 143.903 50.9764C142.198 50.8748 140.436 50.6854 138.678 50.6524L137.676 50.6195H137.487L137.314 50.6359C137.248 50.6359 137.154 50.6195 137.248 50.7018C137.297 50.743 137.33 50.8089 137.363 50.8583C137.396 50.927 137.413 50.9599 137.47 51.1329L137.503 51.24L137.536 51.2894L137.586 51.4816L137.827 52.2586C137.967 52.7721 138.074 53.2938 138.19 53.8402C138.431 54.8918 138.522 56.0834 138.571 57.102L138.621 58.6506C138.637 59.2053 138.67 59.4469 138.67 59.4469C138.67 59.4963 138.711 59.5375 138.761 59.554L138.879 59.5869L139.466 59.7269C140.37 59.9356 141.471 60.1168 142.506 60.3255C144.593 60.7209 146.712 61.1355 148.865 61.5501C149.941 61.7395 151.026 61.9811 152.127 62.1706C153.228 62.3271 154.321 62.4864 155.441 62.6511C157.684 62.9833 159.96 63.3128 162.289 63.6533C166.984 64.2985 171.86 64.9712 176.912 65.6741C181.948 66.4511 187.104 66.9975 192.439 67.5879C195.097 67.8515 197.812 67.8515 200.544 68.0162C201.936 68.0601 203.32 68.1754 204.701 68.159C206.11 68.0766 207.51 68.0162 208.927 67.9338C214.564 67.7444 220.519 67.1074 226.639 66.5527C229.811 66.2287 232.867 66.1381 235.747 65.6082C236.45 65.449 237.197 65.3336 237.867 65.1442C238.191 65.0536 238.556 64.9712 238.762 64.8779C238.852 64.812 239.017 64.779 239.094 64.7378C239.16 64.6884 239.226 64.639 239.3 64.606C239.506 64.4331 239.698 64.2244 240.003 63.6039C240.113 63.3458 240.244 63.0575 240.351 62.7582ZM242.122 82.6096C241.949 82.4009 241.727 82.2114 241.436 82.0028C241.104 81.8216 240.725 81.6321 240.261 81.5223C239.349 81.2669 238.314 81.1434 237.295 81.1104C235.258 81.0253 233.279 81.1846 231.516 81.3575C228.825 81.6651 226.398 82.5245 223.773 83.2301C221.67 83.8012 219.328 83.8753 217.172 84.2488C214.564 84.7045 211.544 85.358 208.611 87.0054C208.993 87.4447 209.355 87.8923 209.704 88.3398L210.681 89.4903L210.953 89.8198C211.145 90.0614 211.17 90.1191 211.269 90.2508L211.75 90.9235C212.37 91.7912 212.958 92.6698 213.562 93.4798C214.168 94.3255 214.822 95.0805 215.442 95.734C215.599 95.907 215.742 95.9811 215.906 96.1321L216.112 96.3051C216.154 96.3216 216.206 96.3381 216.255 96.3628C216.354 96.4122 216.412 96.4946 216.568 96.4946C216.719 96.511 216.785 96.5769 217.016 96.5769C217.131 96.5769 217.257 96.5769 217.381 96.5852C217.274 94.9295 217.205 93.3892 216.999 91.9834C217.016 91.5605 216.568 89.5068 216.288 88.0241C215.734 87.0054 217.016 87.0631 217.636 86.7666C218.391 86.5249 219.119 86.2861 219.858 86.0774L220.684 85.855L221.239 85.715C221.62 85.6134 222.002 85.5228 222.373 85.4239C223.119 85.2674 223.831 85.1082 224.553 84.9434C225.967 84.6606 227.326 84.4382 228.633 84.2817C231.241 83.9412 233.627 83.8177 235.879 84.0895C236.991 84.2323 238.092 84.4712 239.176 84.9928C239.887 85.3251 240.626 85.9538 241.131 86.6979C241.485 85.391 241.801 84.0401 242.122 82.6096ZM242.265 106.382C242.232 106.357 242.183 106.341 242.155 106.308L241.727 105.951C241.576 105.844 241.42 105.704 241.37 105.704C241.214 105.638 241.148 105.481 240.898 105.465C240.692 105.413 240.467 105.322 240.384 105.306C240.277 105.306 239.97 105.306 239.747 105.306C238.745 105.322 237.644 105.605 236.326 105.926C235.989 106.003 235.656 106.069 235.316 106.143C235.019 106.159 234.712 106.192 234.415 106.225C233.808 106.258 233.229 106.308 232.658 106.357C231.705 106.415 230.813 106.481 229.951 106.549C228.883 106.755 227.782 106.961 226.571 107.227C225.777 107.392 224.948 107.568 224.089 107.741C223.185 107.881 222.224 108.021 221.288 108.139C219.41 108.394 217.43 108.603 215.475 108.998C214.481 109.207 213.512 109.446 212.559 109.811C211.527 110.176 210.854 110.539 210.061 111.159C209.979 111.211 209.918 111.294 209.836 111.335C210.324 111.516 210.887 111.574 211.508 111.549C212.669 111.5 213.844 111.211 215.061 111.003C215.648 110.896 216.362 110.797 216.909 110.78C217.48 110.756 218.034 110.723 218.581 110.706C219.657 110.638 220.7 110.588 221.67 110.555C223.625 110.481 225.363 110.415 226.895 110.349C228.435 110.382 229.778 110.399 230.936 110.432C231.277 110.432 231.573 110.448 231.897 110.465C233.188 110.259 234.728 109.984 236.518 109.52C237.71 109.191 239.034 108.76 240.294 108.073C241.071 107.642 241.776 107.087 242.265 106.382ZM246.993 72.1073C246.612 71.2644 246.197 70.4352 245.799 69.573C245.261 68.7465 244.714 67.9009 244.16 67.0415C244.061 66.8657 243.954 66.7092 243.847 66.5527C243.424 67.2144 242.869 67.9338 242.122 68.4802C241.851 68.6559 241.576 68.8124 241.312 68.9689C241.038 69.1117 240.799 69.1941 240.541 69.3012C240.019 69.5401 239.607 69.6416 239.16 69.7652C238.281 70.0041 237.452 70.1276 236.609 70.3281C233.246 70.9321 230.05 71.0063 227.084 71.3138C220.967 71.8519 215.044 72.4725 209.1 72.6784C207.634 72.747 206.168 72.8294 204.718 72.8871C203.271 72.9035 201.838 72.78 200.421 72.7306C199.817 72.6949 199.213 72.6619 198.609 72.6454C198.716 72.7306 198.847 72.7964 198.971 72.8706C199.097 72.953 199.526 73.2413 199.891 73.4911C200.264 73.7465 200.646 74.0046 201.025 74.2764C201.788 74.7981 202.351 75.3719 203.062 75.9595L203.576 76.407C203.716 76.5718 204.081 76.7118 203.768 76.8683C203.427 77.2088 203.079 77.541 202.749 77.8705C202.409 78.211 202.06 78.5432 201.73 78.8644C201.341 79.1967 200.918 79.5124 200.503 79.8337C200.089 80.1659 199.559 80.4213 199.081 80.7288C198.798 80.9017 198.666 80.9594 198.523 81.0445L198.079 81.2669C197.952 81.3328 197.812 81.374 197.681 81.4399C198.062 81.4729 198.433 81.4729 198.831 81.5058C199.817 81.5552 200.868 81.838 201.92 82.044C202.475 82.2526 203.062 82.4256 203.609 82.6837C204.081 82.972 204.611 83.2301 205.058 83.5431C206.956 82.3515 208.875 81.5223 210.665 80.9924C212.842 80.3389 214.822 80.0423 216.568 79.8666C221.587 79.3861 225.983 77.7799 230.936 76.9864C232.814 76.6789 234.937 76.3906 237.419 76.407C238.679 76.44 240.019 76.5224 241.535 76.937C242.164 77.0935 242.836 77.3653 243.523 77.714C243.539 77.681 243.556 77.6316 243.572 77.6069C243.954 76.7777 244.418 76.0583 244.865 75.3719C245.7 74.1446 246.455 73.1424 246.993 72.1073ZM249.874 110.399C250.247 109.91 250.563 109.273 250.835 108.518C249.816 108.677 248.698 108.825 247.614 108.62C247.026 108.551 246.554 108.394 246.041 108.263C245.593 108.09 245.112 107.947 244.731 107.774C244.607 107.708 244.492 107.659 244.368 107.609C244.176 107.914 243.97 108.188 243.731 108.411C243.009 109.207 242.183 109.712 241.403 110.143C239.846 110.962 238.364 111.368 237.04 111.656C234.382 112.23 232.312 112.313 230.728 112.362C229.619 112.362 228.776 112.329 228.119 112.28C227.74 112.296 227.375 112.313 226.969 112.329C225.445 112.453 223.723 112.601 221.793 112.76C220.841 112.826 219.822 112.9 218.754 112.982C218.216 113.015 217.669 113.057 217.098 113.09C216.511 113.123 216.079 113.205 215.492 113.315C214.358 113.521 213.1 113.845 211.618 113.919C210.887 113.952 210.077 113.935 209.232 113.661C208.801 113.554 208.353 113.348 207.958 113.073C207.766 113.249 207.56 113.438 207.318 113.636C206.233 114.556 204.718 115.541 203.254 115.989C200.264 117.09 197.077 117.263 193.955 117.247C192.398 117.23 190.816 117.172 189.26 117.123C187.711 117.074 186.138 117.09 184.446 117.107C181.119 117.172 177.566 117.247 173.79 117.123C170.635 117.008 167.272 116.741 163.804 115.94C163.854 116.991 163.854 118.043 163.804 119.094C167.214 119.053 168.963 119.004 171.289 118.952C174.029 118.886 176.912 118.812 179.139 118.746C183.62 118.713 187.123 118.663 189.798 118.836C195.089 119.226 197.109 119.591 197.109 119.921C197.093 120.261 194.957 120.484 189.671 120.528C187.022 120.577 183.452 120.799 179.015 120.956C176.78 121.058 174.103 121.181 171.363 121.313C168.98 121.354 167.181 121.42 163.628 121.486C163.513 122.365 163.357 123.21 163.181 124.045C170.427 124.435 177.151 124.783 183.296 125.096C186.799 125.404 190.037 125.736 193.035 125.786C194.509 125.819 195.959 125.786 197.126 125.561C197.681 125.437 198.161 125.33 198.4 125.096C198.543 125.055 198.699 124.899 198.864 124.718C199.037 124.591 199.213 124.369 199.386 124.127C200.116 123.218 200.835 121.966 201.903 120.717L202.831 119.814C203.161 119.525 203.592 119.267 203.99 119.037C204.405 118.729 204.701 118.68 205.075 118.523L206.093 118.125C208.784 117.247 211.236 116.991 213.463 116.725C215.717 116.453 217.735 116.277 219.534 115.94C221.497 115.64 223.292 115.368 224.981 115.119C226.381 114.937 243.712 113.073 243.712 115.143C243.712 115.484 242.422 115.83 239.506 116.211C239.448 116.211 239.382 116.228 239.3 116.228C239.3 116.404 239.283 116.577 239.267 116.75C240.31 116.95 241.403 117.024 242.57 116.848C242.902 116.848 243.218 116.725 243.572 116.626L244.077 116.486C244.234 116.437 244.335 116.343 244.475 116.277C245.005 116.055 245.486 115.467 246.164 114.762C246.356 114.539 246.312 114.572 246.472 114.075L246.694 113.331C246.785 113.04 246.96 112.626 247.183 112.28C247.49 111.45 248.333 111.003 249.146 110.764C249.684 110.588 249.561 110.621 249.684 110.572C249.766 110.522 249.832 110.465 249.874 110.399ZM251.2 95.55C251.315 95.4759 251.389 95.41 251.488 95.3441C251.249 92.3376 250.818 89.1333 250.42 85.6463C250.057 83.112 249.676 80.4871 248.989 77.8458C248.94 77.9227 248.871 78.005 248.822 78.0627C248.459 78.6256 248.127 79.1472 247.888 79.6607C247.779 79.9078 247.647 80.1659 247.581 80.4213C247.507 80.6793 247.408 80.9017 247.331 81.2834C246.694 83.9577 246.123 86.8736 245.211 89.7045C244.624 91.1459 244.27 92.4611 243.35 93.9603C242.471 95.3935 241.263 96.6703 239.863 97.5791C236.991 99.427 233.951 99.7235 231.335 99.9816C228.743 100.171 226.192 100.171 224.105 100.429C221.826 100.717 219.484 101.324 216.568 101.132C216.239 101.132 215.758 100.984 215.344 100.893C214.913 100.827 214.498 100.602 214.1 100.38L213.496 100.031L213.065 99.6823C212.801 99.4599 212.494 99.2018 212.255 98.9629C211.343 98.0267 210.583 97.0657 209.926 96.1486C209.256 95.2206 208.669 94.309 208.081 93.4468L207.65 92.8346C207.593 92.7522 207.51 92.6121 207.51 92.6121L207.285 92.3541C206.956 91.9395 206.615 91.5276 206.283 91.113C204.992 89.4738 203.85 88.0241 202.631 87.1125C202.335 86.8736 202.011 86.7473 201.714 86.5414C201.39 86.3931 201.058 86.3025 200.753 86.1515C199.957 85.995 199.196 85.7397 198.351 85.6957C193.988 85.1493 189.847 85.6628 185.432 84.8528C184.589 84.6606 183.875 84.3394 183.106 84.0977C181.64 83.5431 180.108 83.1313 178.842 82.508C177.516 81.9204 176.242 81.3493 175.015 80.8029C173.84 80.2318 172.689 79.6936 171.58 79.1637C169.375 78.0627 167.354 77.2664 165.476 76.4235C164.491 75.9513 163.546 75.4872 162.634 75.0397C162.272 74.8173 161.907 74.5921 161.542 74.3697C161.525 74.4027 161.525 74.4356 161.509 74.4686C161.27 74.9161 160.839 75.3719 160.35 76.1242C159.804 76.8107 159.216 77.7799 158.354 79.1802C157.717 80.1824 156.989 81.5744 155.713 83.0544C155.919 83.3207 156.144 83.5761 156.333 83.8506C159.183 87.6342 161.352 92.1646 162.72 97.0327C164.027 101.514 164.713 105.687 164.839 111.277C167.86 111.964 170.965 112.23 173.98 112.362C177.566 112.486 181.036 112.436 184.397 112.42C186.069 112.403 187.76 112.403 189.416 112.486C191.022 112.551 192.571 112.642 194.021 112.658C196.95 112.744 199.611 112.584 201.763 111.832C202.922 111.516 203.666 111.003 204.561 110.308C205.44 109.622 206.316 108.694 207.477 107.823C208.611 106.978 210.077 106.275 211.22 105.943C212.411 105.531 213.63 105.273 214.756 105.091C215.36 104.984 215.964 104.916 216.552 104.841C217.496 104.345 219.805 103.856 224.047 103.359C225.519 103.227 227.136 102.898 229.014 102.631C229.951 102.483 230.953 102.343 232.021 102.192C232.551 102.118 233.089 102.035 233.652 101.978C233.935 101.928 234.223 101.895 234.506 101.862C234.761 101.777 235.019 101.703 235.283 101.637C236.334 101.341 237.776 100.844 239.506 100.734C239.986 100.717 240.483 100.717 240.972 100.701C241.576 100.827 242.024 100.967 242.521 101.116C242.993 101.206 243.506 101.563 244.003 101.829C244.27 102.002 244.401 102.101 244.558 102.225L245.022 102.598C245.244 102.738 245.486 102.881 245.717 103.038C245.717 103.071 245.991 103.169 246.263 103.276C246.057 102.914 245.9 102.417 245.818 101.945L245.766 101.464L245.749 101.341C245.749 101.239 245.749 101.19 245.749 101.132L245.766 100.734C245.851 99.6658 246.472 98.79 247.01 98.26C247.581 97.7054 248.144 97.3567 248.649 97.0327C249.676 96.4122 250.53 95.9646 251.2 95.55ZM251.697 103.309C251.787 101.58 251.771 99.707 251.664 97.7384C251.15 98.1859 250.629 98.6307 250.074 99.0618C249.195 99.7235 248.418 100.512 248.443 100.967C248.443 101 248.443 101.033 248.443 101.083L248.427 101.116L248.443 101.223L248.476 101.72C248.542 101.846 248.525 101.945 248.616 102.118C248.764 102.417 248.989 102.705 249.302 102.93C249.799 103.243 250.387 103.444 250.958 103.551C251.01 103.535 251.043 103.535 251.093 103.518C251.282 103.46 251.488 103.395 251.697 103.309ZM255.439 95.3771C255.596 98.5978 255.612 101.637 255.274 104.537C254.909 107.417 254.322 110.226 252.334 112.642C252.144 112.801 251.993 112.982 251.82 113.123C251.631 113.249 251.439 113.397 251.216 113.471C250.867 113.661 250.23 113.828 250.23 113.828C250.025 113.853 249.849 113.902 249.783 114.075C249.701 114.174 249.577 114.523 249.368 115.086C249.286 115.308 249.179 115.64 248.94 115.989C248.847 116.154 248.731 116.31 248.632 116.486L248.251 116.884C247.869 117.23 247.63 117.521 247.142 117.884C246.727 118.232 246.296 118.573 245.733 118.779C245.469 118.886 245.211 119.037 244.956 119.111C244.714 119.16 244.475 119.21 244.234 119.259C243.781 119.35 243.333 119.484 242.869 119.465C241.966 119.493 241.104 119.525 240.318 119.35C239.764 119.267 239.267 119.144 238.795 119.004C235.332 128.559 215.824 129.8 210.887 121.198C209.72 121.42 208.578 121.711 207.477 122.109L206.747 122.422C206.508 122.521 206.168 122.614 206.093 122.746C205.945 122.87 205.786 122.919 205.629 123.059C205.489 123.235 205.325 123.4 205.149 123.556C204.479 124.352 203.858 125.503 202.873 126.837C202.631 127.175 202.384 127.507 202.011 127.856C201.681 128.21 201.332 128.542 200.819 128.85C199.891 129.512 198.889 129.75 198.01 129.959C196.264 130.322 194.641 130.354 192.985 130.371C189.704 130.354 186.352 130.041 182.947 129.783C176.432 129.47 169.309 129.13 161.575 128.748C157.418 137.337 147.731 141.354 137.918 137.842C128.294 134.421 121.098 124.907 118.481 114.712C118.473 114.712 118.456 114.712 118.44 114.712C118.135 114.622 117.77 114.49 117.339 114.333C116.875 114.207 116.353 114.051 115.733 113.853C114.508 113.488 112.893 113.123 110.856 112.76C108.753 112.42 106.235 112.038 103.262 111.574C100.23 111.052 96.8366 110.432 92.902 109.688C90.9471 109.314 88.8439 108.9 86.6254 108.485C84.4151 108.037 82.0703 107.584 79.5689 107.211C69.7915 105.572 57.7653 103.757 43.3504 104.377C42.1561 109.413 39.3252 113.488 33.875 114.83C22.0685 117.711 15.2125 110.415 12.2472 99.858C11.5772 97.4803 11.5937 94.169 10.0451 92.3376C8.45538 90.4595 5.69596 89.8198 3.97441 88.0406C3.4692 87.5601 3.02165 86.8736 2.59057 86.2531C2.19245 85.5063 1.83002 84.7375 1.7147 84.0566C1.48955 83.3537 1.39894 82.7002 1.33304 82.0604C1.24244 81.407 1.22596 80.8029 1.19301 80.1988C1.09142 77.7964 1.24244 75.5614 1.33304 73.4664C1.39894 72.3819 1.41541 71.4373 1.44836 70.4022C1.47307 69.3177 1.50602 68.2661 1.53897 67.2144C1.81354 63.0328 2.33522 59.0487 3.32093 55.3228C4.22975 51.6546 5.44061 48.4586 5.81128 45.4273C6.00347 44.664 6.01995 43.9117 6.06113 43.1676C6.12703 42.4043 6.17645 41.6355 6.22588 40.8887C6.25059 39.1013 6.68166 37.2864 7.40378 35.6801C8.10668 34.0409 9.18299 32.6983 10.284 31.6055C11.4015 30.488 12.5602 29.6094 13.6969 28.8488C15.9402 27.3003 17.9939 26.1086 19.732 24.8319C20.5941 24.2113 21.3547 23.5414 22.1015 22.8275C22.8538 22.1411 23.5842 21.4876 24.2376 20.7737C26.9449 18.05 29.1881 15.5157 31.327 13.6377C31.8652 13.1572 32.3457 12.6932 32.8591 12.295C34.7701 10.8453 36.3434 8.87663 38.3643 7.59988C39.6575 6.80638 41.1209 6.56475 42.5212 6.01836C47.4003 4.15403 51.7303 2.87179 57.0048 2.53133C61.9059 1.52915 67.8036 1.44678 74.5525 1.59779C81.4827 1.77077 89.4836 1.47972 98.7147 1.2738C107.957 1.0514 118.423 0.768588 130.224 1.24085C133.173 1.4303 136.213 1.58131 139.315 1.83666C140.88 1.99317 142.456 2.16889 144.054 2.3254C144.848 2.42424 145.661 2.49838 146.454 2.58075C147.3 2.74 148.162 2.8965 149.021 3.04477L150.315 3.28639L151.572 3.66804C152.401 3.90692 153.252 4.15403 154.106 4.41213C154.919 4.75259 155.737 5.08208 156.558 5.41431L157.799 5.92775L158.991 6.51533C162.256 8.04743 165.284 10.0353 168.357 12.0891C171.363 14.1923 174.328 16.6085 177.294 18.7639C180.289 20.9742 183.329 23.2586 186.593 25.5787C188.224 26.7621 189.864 27.9373 191.503 29.1316C193.125 30.3315 194.765 31.5231 196.437 32.7505C198.128 34.0245 199.85 35.3671 201.472 36.9733C203.128 38.5961 204.18 40.9793 206.011 42.3549C209.405 44.8727 214.481 45.5838 218.433 46.7178C224.015 48.3268 228.965 50.3367 233.586 52.6897C234.712 53.2938 235.829 53.8978 236.93 54.4936C238.026 55.1746 239.077 55.9269 240.129 56.6216C241.23 57.2778 242.122 58.2058 243.059 59.0158C243.523 59.4304 243.987 59.845 244.451 60.2569C244.882 60.6879 245.244 61.1849 245.642 61.6242C246.041 62.1047 246.422 62.5687 246.818 63.0163C247.216 63.4721 247.581 63.9361 247.869 64.4495C248.509 65.449 249.113 66.4347 249.733 67.4286C250.694 69.4989 251.697 71.4868 252.268 73.5405C253.635 77.5904 254.149 81.5552 254.577 85.218C254.909 88.7517 255.299 92.1646 255.439 95.3771Z" fill="black"/>
</g>
<path d="M243.904 72.1368C244.02 72.296 243.613 72.7079 242.779 73.3476C242.356 73.7101 241.776 73.9352 241.104 74.2565C240.417 74.6052 239.624 74.8468 238.729 75.1021C236.947 75.6238 234.778 75.956 232.403 76.1949C231.192 76.3102 229.967 76.4036 228.693 76.486C227.4 76.5766 226.085 76.6425 224.841 76.8155C222.257 77.2053 219.674 77.7929 217.307 78.1251C214.913 78.4574 212.686 78.5727 210.788 78.3146C208.891 78.0757 207.411 77.5211 206.508 76.8072C205.662 76.1702 205.39 75.6568 205.489 75.5167C205.58 75.3355 206.135 75.6073 207.046 75.9149C207.873 76.1949 209.248 76.4365 210.92 76.4201C212.587 76.4036 214.613 76.1373 216.892 75.6732C219.168 75.2257 221.653 74.5887 224.459 74.1576C225.917 73.9517 227.26 73.9187 228.534 73.8611C229.811 73.8117 231.052 73.7787 232.227 73.7265C234.555 73.6359 236.625 73.5041 238.331 73.257C241.776 72.8095 243.646 71.7908 243.904 72.1368Z" fill="black"/>
<path d="M200.47 106.993C200.662 106.894 200.786 106.779 200.786 106.779C200.695 106.498 200.248 106.018 199.817 105.653L199.751 105.603C199.262 105.106 198.334 104.774 197.455 104.585C196.563 104.393 195.676 104.277 194.814 104.203C193.109 104.079 191.593 104.055 190.336 104.03C189.68 104.03 189.108 104.014 188.603 103.981C185.929 104.088 183.263 104.137 180.654 104.601C180.067 104.692 179.446 104.791 178.79 104.889C177.483 105.106 172.928 105.842 172.513 107.391C172.48 107.514 172.48 107.641 172.497 107.772C176.846 108.692 181.467 107.756 185.863 107.822L186.816 107.838H186.915C190.16 108.055 193.573 108.072 196.555 107.822C198.01 107.69 199.542 107.448 200.47 106.993ZM202.889 105.842C203.161 106.29 203.246 107.21 202.889 107.847C202.54 108.533 202.06 108.808 201.645 109.071C199.99 109.95 198.449 110.126 196.818 110.348C193.556 110.705 190.278 110.754 186.61 110.504L185.814 110.496C181.275 110.414 176.637 110.96 172.406 110.016C170.948 109.694 170.188 109.255 169.889 108.742C169.103 107.374 171.769 105.546 173.79 104.535C180.017 101.479 188.123 102.498 194.88 102.432C195.783 102.432 196.777 102.465 197.837 102.613C198.864 102.803 200.023 103.028 201.184 103.931L201.217 103.964C201.78 104.428 202.409 104.873 202.889 105.842Z" fill="black"/>
<path d="M144.26 91.8572C152.044 95.2536 155.281 103.071 154.09 111.368C153.112 118.076 149.321 126.489 141.899 127.873C122.292 131.565 119.565 85.3746 143.019 91.4454C143.225 91.4783 143.431 91.5113 143.664 91.6019C143.895 91.6678 144.087 91.7666 144.26 91.8572ZM138.173 120.627C138.19 120.61 138.19 120.627 138.19 120.627C138.19 120.643 137.852 120.931 137.852 120.931C137.758 121.022 137.66 121.132 137.585 121.247C137.396 121.453 137.212 121.678 137.014 121.884C137.014 121.884 136.998 121.901 136.981 121.901C139.076 123.54 141.569 124.037 144.087 121.678C144.491 121.297 144.897 120.866 145.262 120.418C145.197 120.369 145.122 120.352 145.056 120.294C144.054 119.3 143.176 118.573 141.817 118.018C140.625 117.505 140.37 115.748 140.965 114.729C141.677 113.504 143.036 113.381 144.227 113.878C145.542 114.449 146.729 115.336 147.797 116.31C148.988 113.653 149.658 110.657 149.609 107.758C148.003 108.222 146.347 108.502 144.716 108.949C141.742 109.778 140.485 105.157 143.448 104.345C145.213 103.864 147.025 103.568 148.766 103.029C148.782 103.013 148.782 103.013 148.799 103.013C147.78 100.031 145.726 97.5298 142.396 96.2064C141.866 96.0636 141.377 95.9483 140.9 95.8742C140.9 97.4804 140.847 99.0784 140.551 100.652C140.309 101.928 138.777 102.64 137.618 102.324C136.278 101.961 135.707 100.652 135.946 99.3777C136.004 99.0125 136.07 98.3425 136.103 97.7385C136.119 97.3404 136.103 96.9258 136.119 96.5276C133.884 97.6891 132.467 100.031 131.723 102.813C132.02 102.931 132.294 103.104 132.5 103.378C133.687 104.842 134.895 106.275 136.213 107.609C138.398 109.811 135.018 113.189 132.833 110.986C132.237 110.382 131.657 109.745 131.086 109.092C131.185 110.937 131.465 112.744 131.962 114.273C132.344 115.467 132.997 116.901 133.86 118.265C134.447 117.645 134.985 117.057 135.724 116.536C136.775 115.78 138.365 116.343 138.986 117.387C139.672 118.556 139.208 119.847 138.19 120.61C138.19 120.61 138.19 120.61 138.173 120.627Z" fill="black"/>
<path d="M82.2375 53.2188C84.5467 53.0376 84.5302 56.6207 82.2375 56.8129C78.0641 57.1342 73.9483 55.5526 70.5766 53.1858C68.7067 51.8597 70.4942 48.7543 72.3915 50.0805C75.2882 52.1342 78.6352 53.4989 82.2375 53.2188Z" fill="black"/>
<path d="M25.8442 96.6379C25.8274 96.6016 25.8274 96.6016 25.8274 96.6016C25.8274 96.6016 25.8442 96.6016 25.8442 96.6379Z" fill="black"/>
</svg>
