<svg width="242" height="182" viewBox="0 0 242 182" fill="none" xmlns="http://www.w3.org/2000/svg">
<path d="M9.10671 146.205C4.26879 140.228 -0.231407 133.023 0.617013 124.973C0.932769 121.966 1.80315 119.116 2.56646 116.2L9.66408 93.7265C10.4109 91.7112 11.0836 89.4954 12.0556 87.5789C13.3104 86.8101 14.999 86.0194 16.0588 85.0282C16.3608 83.3945 16.5201 81.5357 17.0555 79.9596L24.219 75.4841C24.6336 75.2233 25.8307 74.6824 26.0339 74.3227C26.2453 73.952 26.3305 73.1338 26.443 72.7055L27.6457 68.3508C27.8214 67.777 27.9806 67.0686 28.387 66.6073C28.829 66.1021 29.5374 65.6985 30.0893 65.3058L34.3863 62.3899C35.7757 61.4317 37.1265 60.3334 38.5598 59.4465L39.1172 49.6581C39.2023 47.9805 39.0678 46.0201 39.4384 44.3974C39.5977 43.6972 40.0342 42.9641 40.5751 42.4863C41.3165 41.8411 42.1869 41.6709 43.1149 41.4649L43.1781 33.1537C44.1857 33.1537 46.6953 32.9039 47.5053 33.3816C48.3537 34.4442 48.2796 40.8609 48.5596 41.0723C48.6255 41.1245 49.1719 41.1931 49.2872 41.2206C50.7727 41.5391 51.8902 42.1843 52.2828 43.7604C52.4915 44.5676 52.4228 45.5094 52.4256 46.3441L52.4915 50.3885C52.5052 50.9047 52.4311 51.5828 52.6013 52.0716L61.2502 51.7778L63.9657 51.7311C64.1689 51.7256 64.6192 51.7778 64.7785 51.7146C65.0118 51.6295 65.5473 50.9156 65.7587 50.685C69.1633 47.0442 72.3868 43.0602 76.3763 40.0317L73.9299 38.2333C73.3588 37.8516 72.7575 37.5825 72.3291 37.0306C72.3456 36.1932 72.7739 35.6798 73.3643 35.1169C75.278 33.2773 77.6366 32.1351 80.083 31.1823C86.4612 28.7002 93.4463 27.8188 100.239 27.385V17.484L100.33 14.98C100.341 14.7466 100.319 14.3759 100.387 14.17C100.511 13.8185 101.019 13.327 101.274 13.0717C103.199 11.1085 105.003 10.0954 107.631 9.35402C107.658 9.35402 108.078 9.23321 108.084 9.22772C108.221 8.97237 108.141 7.72582 108.158 7.38261L108.295 3.71711C108.306 3.14875 108.21 2.30033 108.432 1.78139C108.559 1.48485 108.808 1.21303 109.086 1.04829C109.44 0.83687 110.527 0.938461 110.961 0.938461L114.632 1.00161C115.055 1.25696 115.448 1.46838 115.577 1.98183C115.736 2.64628 115.618 3.47274 115.582 4.16191L115.299 8.51658C117.131 8.73899 120.467 9.09318 121.612 10.7269C122.331 11.7565 122.098 14.4445 122.172 15.6856L122.757 27.396L131.076 28.0001L144.478 29.4992C150.279 30.29 156.117 30.9846 161.792 32.4755C164.73 33.2443 167.531 34.285 170.309 35.4931C171.603 36.0559 173.374 36.6819 174.345 37.7253C174.689 38.0905 174.779 38.3843 174.757 38.8812C174.716 40.0948 170.411 43.7658 169.335 44.8422L178.497 50.0123C184.252 53.3868 189.982 57.1127 195.287 61.1598C199.158 64.1142 203.008 67.2306 206.514 70.6215C206.995 71.0938 209.891 74.3584 210.125 74.438C210.46 74.5616 217.044 73.7983 217.749 73.628L217.777 70.5831C217.766 69.6276 217.502 68.1119 218.279 67.3953C218.551 67.1482 218.927 67.0631 219.287 67.0933C219.718 67.1372 220.061 67.28 220.339 67.6177C221.176 68.6528 220.753 71.3464 220.778 72.6451C220.783 72.7906 220.794 73.5155 220.852 73.5786C221.061 73.801 223.425 74.6247 223.87 74.8307L234.158 79.8114C235.83 80.6104 237.7 81.3023 239.298 82.2303C239.918 82.5845 240.495 83.0238 240.934 83.5977C241.423 84.2347 241.774 85.2451 241.673 86.0523C241.593 86.714 241.286 87.2934 240.887 87.8233L238.23 91.022L231.332 99.3744L216.701 117.43L210.051 125.513L202.324 135.478L197.047 142.309L193.208 148.078C191.808 150.225 190.265 152.479 189.115 154.769C195.139 160.115 202.159 164.793 206.031 172.078C206.833 173.591 207.59 175.32 207.695 177.047C207.75 177.918 207.574 178.665 206.964 179.313C204.938 181.46 200.361 181.355 197.615 181.333C192.132 181.29 186.638 180.504 181.212 179.785L162.772 177.319C157.556 176.603 152.322 175.771 147.064 175.425C142.918 175.156 138.717 175.235 134.577 175.557C122.888 176.323 111.398 179.035 99.6927 179.807C96.7768 180.002 93.8169 180.167 90.89 180.04C87.6281 179.889 84.3772 179.222 81.2279 178.385C74.9183 176.71 15.279 158.069 13.9172 156.88C12.9507 156.043 6.12488 147.929 6.06722 147.281C6.02604 146.853 6.16881 146.598 6.41318 146.263C7.20119 145.887 8.25829 146.098 9.10671 146.205ZM7.63776 139.539C9.00512 141.677 10.6553 143.734 12.289 145.675C12.4619 145.887 12.904 146.535 13.1099 146.644C13.3433 146.768 13.9199 146.809 14.1917 146.859L18 147.548L22.4975 148.506L49.9187 154.335C64.9569 157.534 80.2889 160.779 95.7225 160.991C104.748 161.111 114.176 159.972 122.952 157.85C126.947 156.886 130.763 155.45 134.714 154.352C137.402 153.602 140.134 152.924 142.902 152.537C150.485 151.477 158.198 151.933 165.636 153.673C170.878 154.903 175.913 156.993 180.927 158.907C182.824 139.788 190.658 121.678 200.218 105.212C203.054 100.322 205.998 95.492 209.309 90.904C206.371 90.9259 203.362 91.2746 200.424 91.4778L172.547 94.2235L140.955 98.3036L93.6357 106.925L57.9527 114.896L18.5601 125.03L12.0611 126.636L3.52745 128.764C3.80202 132.562 5.60594 136.378 7.63776 139.539ZM3.73338 123.133L106.491 92.4169L110.299 77.6532C109.251 77.9168 108.199 78.3589 107.175 78.7241L102.356 80.4374L87.543 85.6432L60.7533 95.2586L29.2684 107.439L13.0248 113.638C10.496 114.605 7.70091 115.415 5.32039 116.683C4.71908 118.814 4.0409 120.931 3.73338 123.133ZM107.419 92.1258C108.169 92.1835 109.303 91.7689 110.055 91.6041L116.886 90.1187L136.639 86.1704L185.056 77.2441C183.87 77.0904 182.613 77.1261 181.407 77.0959L174.37 76.9366L149.25 76.2941L126.342 76.3326C121.384 76.4424 116.282 76.4644 111.365 77.192C111.12 77.6423 111.057 78.2518 110.936 78.7515L110.316 81.132L107.419 92.1258ZM18.7908 81.8377L18.4915 83.5482L22.3382 81.1567C22.9478 80.701 22.8983 79.7098 23.0054 78.9876L18.7908 81.8377ZM24.8039 77.7466V79.7894L30.913 76.3326C31.2727 75.9701 31.1766 74.1854 31.1931 73.6692L24.8039 77.7466ZM45.9622 37.599C45.9155 37.0581 45.9622 36.3085 45.5805 35.8967C45.295 35.8912 45.4378 35.8582 45.1605 36.023L45.1303 39.4112C45.1248 39.985 45.0561 40.6303 45.1934 41.1821L45.6821 41.2261L46.1214 41.1464L46.2532 40.935L45.9622 37.599ZM49.7595 44.0404C49.2186 43.8125 48.6887 43.7549 48.1093 43.6807C46.8628 43.4803 43.0463 43.7713 42.0331 44.5456C41.8162 44.7159 41.7146 44.8751 41.6624 45.1497C41.3741 46.5774 41.4345 48.2413 41.3549 49.7048L40.814 57.8403L42.0221 57.2774L50.1686 52.585L49.9764 46.3495C49.9599 45.7592 50.0725 44.4962 49.7595 44.0404ZM59.5342 54.8283L54.3942 54.7843C53.8149 54.7431 52.8127 54.5619 52.2773 54.7157C51.8325 54.8392 51.341 55.177 50.9374 55.4049L48.5816 56.742L40.6053 61.3877L33.5434 66.2092C32.6263 66.8434 31.0174 67.6781 30.4518 68.6171C29.7928 69.699 29.5759 71.4754 29.315 72.7055L33.7027 69.9625L43.4169 64.224L51.0582 59.8858C54.3887 58.1478 58.6748 57.39 61.4781 54.864C61.0031 54.7047 60.0641 54.8228 59.5342 54.8283ZM33.4583 74.6138L37.769 72.1481C38.0491 71.5688 37.8102 70.0367 37.791 69.353L33.5846 72.052C33.4638 72.8785 33.4885 73.7763 33.4583 74.6138ZM40.2923 70.8329L44.2242 68.5375L44.3779 65.5557L40.3939 67.9637C40.1139 68.6748 40.2923 70.0367 40.2923 70.8329ZM46.6212 67.1564L51.9011 64.2927V61.4509L46.9342 64.3201C46.7035 65.2317 46.6898 66.2256 46.6212 67.1564ZM54.2185 62.9143C56.0911 61.9616 57.862 59.8968 59.1031 58.2219L54.4217 60.2373L54.2185 62.9143ZM112.6 3.67867L110.961 3.61552L110.802 8.72251L112.644 8.46716L112.809 3.87087L112.6 3.67867ZM119.357 12.3496C117.872 11.7291 116.562 11.4819 114.962 11.3419L114.813 11.3309C111.557 11.1525 106.422 11.8938 103.951 14.2112C103.553 14.5818 103.062 15.1282 102.902 15.6581C102.727 16.243 102.801 17.0063 102.79 17.6213L102.738 21.4873L102.493 27.3164L107.515 27.1681L120.178 27.2999L119.357 12.3496ZM169.774 39.8422C170.282 39.8422 170.644 39.8779 171.073 39.5924C171.226 39.2958 171.339 39.1997 171.284 38.8538C168.008 37.3272 164.497 35.9955 161.001 35.0647C158.632 34.4332 156.202 34.0241 153.78 33.604L141.573 31.855L122.147 29.9715L121.551 29.9358L104.662 29.9824C97.271 30.2048 89.9208 30.8418 82.8287 33.0961C80.6486 33.7852 78.0347 34.7243 76.3763 36.347C76.7936 36.6902 77.1615 37.0526 77.5267 37.4562L87.3948 36.5117C89.5419 36.314 91.7494 36.2234 93.8691 35.8335C94.5638 35.699 95.1019 35.2926 95.7691 35.1581C96.1618 35.3228 96.5489 35.4711 96.9718 35.526C99.4648 35.828 102.079 35.839 104.594 35.9928C106.832 36.1356 109.075 36.4321 111.313 36.4568C111.502 36.303 111.65 36.2289 111.881 36.1465C112.087 36.347 112.23 36.4733 112.515 36.5337C113.756 36.7753 115.209 36.6655 116.477 36.7341L125.694 37.253L127.238 37.3382L127.614 36.9785C127.973 37.0526 127.995 37.0581 128.245 37.3272C130.774 37.6896 133.484 37.6237 136.046 37.772L148.725 38.5573L169.774 39.8422ZM94.6187 39.6885L107.191 40.2184L110.947 40.32L111.005 37.6292L98.6851 37.1624L96.516 37.0773C96.0382 38.0905 95.3298 38.8291 94.6187 39.6885ZM112.617 40.4298L124.316 41.0174L126.834 41.1739L126.936 38.4639L115.184 37.772L112.776 37.7143C112.51 38.398 112.639 39.672 112.617 40.4298ZM128.668 38.5792L128.69 41.2618L141.408 42.2337H142.822L142.811 39.7626L130.17 38.6753L128.668 38.5792ZM144.546 42.3655L154.744 43.3101L156.883 43.5215L156.872 41.0174L146.578 40.0372L144.665 39.9576L144.546 42.3655ZM158.786 43.7384L166.353 44.4193L168.475 42.0525L160.897 41.3222L158.876 41.1931L158.786 43.7384ZM175.199 51.2534C174.329 50.512 172.951 49.9327 171.927 49.3863C170.685 48.7301 169.175 47.7059 167.816 47.3655C166.204 46.9591 164.326 46.8959 162.668 46.7202L152.289 45.6686L107.323 42.695C101.39 42.5358 95.4561 42.2585 89.5227 42.5193L93.9405 36.8824L78.625 37.9971C79.3334 38.6479 80.0885 39.2327 80.2203 40.2404C80.1736 40.4188 80.1187 40.5726 79.9979 40.7154C79.3663 41.4704 78.1637 42.0059 77.3675 42.6209C76.3076 43.4418 75.3357 44.4028 74.3966 45.3556L65.8712 54.5427C64.0508 56.558 62.2469 58.631 60.2755 60.5064L81.5684 50.3885L86.1015 48.321C87.0763 47.8762 88.0592 47.3819 89.1026 47.1074C89.9208 46.8959 91.0081 47.0442 91.8565 47.0689L96.9306 47.2227L134.074 48.6395L175.246 51.3275L175.199 51.2534ZM104.997 52.0606L120.047 52.5329L122.098 52.5795L121.999 50.9513L106.98 50.3638C106.708 50.3418 106.524 50.3143 106.263 50.4214C105.956 51.0255 105.637 51.4401 105.151 51.9123L104.997 52.0606ZM124.22 51.0584L124.305 52.6701L136.301 53.0408L138.58 53.0683V51.8162C138.511 51.7531 138.465 51.6625 138.374 51.624C138.237 51.5664 137.754 51.6103 137.589 51.6048L134.645 51.5252L126.213 51.1161L124.22 51.0584ZM140.892 53.0792L153.81 53.5543C154.209 53.5543 154.749 53.6504 155.051 53.4005L155.01 52.5109C154.56 52.1292 152.984 52.2555 152.306 52.2253L142.213 51.7641L140.892 51.7146L140.724 51.8794C140.724 52.272 140.645 52.7745 140.892 53.0792ZM157.352 52.5109V53.5186C157.427 53.5762 157.481 53.6668 157.567 53.6888C158.085 53.8426 159.082 53.7355 159.645 53.7465L167.218 53.9689C167.759 53.9908 168.516 54.1171 169.022 53.9167C169.035 53.5488 169.085 53.395 168.893 53.0792L159.464 52.5219C159.024 52.4944 157.66 52.294 157.352 52.5109ZM178.758 53.5927C178.376 53.4856 177.682 53.5543 177.261 53.535L172.728 53.2797C172.297 53.2358 171.91 53.1891 171.482 53.2632C171.443 53.5652 171.38 53.8206 171.539 54.0897L178.991 54.345C179.323 54.367 179.647 54.3889 179.982 54.3615C179.664 54.1611 179.101 53.6833 178.758 53.5927ZM195.556 65.1054C195.372 64.9626 195.037 64.6441 194.837 64.559C194.507 64.4272 193.442 64.5261 193.038 64.5123L187.014 64.3366C186.663 64.3256 186.421 64.2295 186.149 64.4684V66.4426L196.385 66.7693C196.786 66.7968 197.179 66.8434 197.582 66.7336C196.956 66.1295 196.245 65.6298 195.556 65.1054ZM205.803 73.8559L202.022 70.3195C201.715 70.0367 201.072 69.3255 200.712 69.1937C200.235 69.018 199.029 69.1471 198.488 69.1306L190.254 68.8972L135.431 67.6507L112.872 67.2004L103.682 67.0878L106.455 59.8831L191.723 62.0494C191.426 61.6623 190.778 61.3246 190.369 61.039L187.544 59.0347C186.803 58.4883 185.954 57.5794 185.1 57.2527C184.447 57.0029 183.412 57.0935 182.709 57.055L176.053 56.7804L122.246 55.1468L109.223 54.7843C107.246 54.7267 105.165 54.5043 103.199 54.6113C102.71 54.6306 102.249 54.9381 101.821 55.1523L98.8333 56.6843L103.501 50.3143L91.0658 49.8585C90.6676 49.8283 90.1954 49.757 89.8027 49.8338C89.023 49.9876 88.0894 50.5285 87.3646 50.8552L81.6563 53.4966L61.1294 63.4992L53.0516 67.4173L45.9045 71.4013L31.9509 79.1277L20.4492 85.808L14.2027 89.5751L5.97112 114.1C6.37474 114.036 6.81405 113.745 7.1957 113.564L9.70527 112.436L24.3673 106.362L64.7839 90.5058L101.878 77.3814L107.817 75.3249C109.012 74.8883 110.56 73.9877 111.807 73.9356L178.459 73.8175L188.472 74.0564L196.899 74.2211C198.549 74.3117 199.927 75.1492 201.492 75.4677C202.096 75.5885 202.796 75.4512 203.406 75.388L206.874 74.9734L205.803 73.8559ZM183.73 64.5068L183.747 64.3037C183.036 63.9055 181.18 64.0593 180.326 64.0346L171.539 63.8424L168.299 63.7737L168.31 66.0746L180.941 66.4261L183.843 66.4783C183.826 65.8275 183.689 65.1521 183.73 64.5068ZM165.949 66.0444L165.823 63.6694L153.086 63.3454L148.901 63.2328L148.874 65.5502C149.807 65.8467 151.287 65.6875 152.278 65.7204L161.979 65.9538L165.949 66.0444ZM146.636 63.1532L131.178 62.8347L129.179 62.7825L129.225 65.1164L144.95 65.5667L146.669 65.6353C146.886 65.1438 146.663 63.749 146.636 63.1532ZM127.073 65.0725L126.993 62.7029L111.148 62.3377L108.221 62.2691L107.4 64.6716L123.462 65.0368L127.073 65.0725ZM203.258 78.2875L183.62 80.9096L166.899 83.8997L134.838 89.77L102.504 96.5272L67.5351 105.816L58.5512 108.52L30.6192 116.804L11.1797 122.543L3.46979 125.047L3.43684 126.823L17.4097 122.754L45.2209 115.203L60.6215 111.228L131.246 96.648L164.173 91.9446L198.077 88.3917L210.671 87.675L218.933 76.3792L203.258 78.2875ZM231.066 94.8935C232.34 93.5975 238.707 86.552 238.916 85.613C238.666 85.3165 238.416 85.0968 238.087 84.8964C236.98 84.2127 235.717 83.702 234.534 83.1529L229.636 80.83C226.591 79.4132 223.551 77.7384 220.366 76.6758L220.009 76.6401L211.646 87.9469L230.599 94.877L231.066 94.8935ZM202.187 130.912L213.565 116.7L229.237 97.5184L210.926 91.2115H210.553C209.54 92.2988 208.735 93.5673 207.892 94.7809L202.297 103.669C194.422 117.038 187.442 131.384 183.964 146.581C183.011 150.771 182.443 155.019 181.869 159.277L183.552 159.925C185.067 156.07 186.885 152.586 189.098 149.085C193.011 142.669 197.604 136.856 202.187 130.912ZM13.9172 152.66C14.4086 153.226 14.9935 154.091 15.614 154.5C16.1384 154.849 16.9237 155.046 17.5278 155.252L25.9433 157.841L55.7094 167.207L72.568 172.635C77.4828 174.195 82.3948 175.795 87.5018 176.603C92.0048 177.314 96.6011 177.053 101.126 176.66L118.048 174.546C124.215 173.648 130.381 172.863 136.603 172.492C144.956 171.99 153.02 173.039 161.268 174.148L172.888 175.653L188.653 177.731C193.164 178.231 197.86 178.829 202.376 178.187C203.162 178.083 204.048 177.997 204.762 177.646C204.847 177.49 204.858 177.484 204.897 177.275C204.965 176.888 204.779 176.347 204.658 175.977C204.147 174.337 203.304 172.833 202.371 171.405C199.672 167.652 196.256 164.634 192.753 161.663C191.097 160.263 189.433 158.811 187.64 157.591C186.621 158.764 186.35 162.63 185.438 163.217C185.136 163.415 184.798 163.503 184.436 163.434C183.62 163.286 182.761 162.91 181.981 162.63L176.526 160.45C173.242 159.113 169.933 157.883 166.518 156.927C162.838 155.9 159.151 155.296 155.334 155.082C148.338 154.695 141.433 155.628 134.709 157.548L124.755 160.56C119.506 161.965 114.108 162.899 108.71 163.514C88.8912 165.768 68.8339 161.639 49.5206 157.484L29.639 153.215L11.2758 148.915L10.8777 148.863L10.7596 148.978L13.9172 152.66ZM22.794 90.8628C22.9642 91.2335 23.1702 91.2856 23.5299 91.4394C23.7221 91.4504 23.906 91.4613 24.0982 91.4339C24.6446 91.3543 25.1306 90.8463 25.4354 90.418C25.688 90.0556 25.7841 89.6959 25.699 89.262C25.5974 88.7349 25.1526 88.3972 24.7352 88.1253C24.4469 88.0567 24.1998 88.0732 23.906 88.0732C23.4667 88.2901 22.989 88.5344 22.772 89.0067C22.5222 89.5421 22.5496 90.3329 22.794 90.8628ZM26.8494 98.7374C27.0663 99.2152 27.3272 99.5117 27.8104 99.6875L28.6066 99.5282C29.4221 99.3003 30.0591 98.8445 30.4655 98.1004C30.5204 97.7408 30.5451 97.4277 30.3913 97.0818C30.1854 96.6205 29.8779 96.4668 29.4221 96.3075C29.1832 96.2993 28.9828 96.302 28.7549 96.3734C27.9861 96.6205 27.1459 97.0928 26.7698 97.8204C26.7396 98.1499 26.7121 98.4299 26.8494 98.7374ZM26.918 87.6284C27.0416 88.2599 27.4233 88.5619 27.9312 88.9051C28.2222 88.9628 28.398 88.9683 28.6808 88.8694C29.359 88.625 30.1442 87.9826 30.4023 87.2934C30.5561 86.8843 30.5314 86.4395 30.3337 86.0468C30.1113 85.6075 29.7571 85.5114 29.3205 85.3577L29.002 85.3302C28.3568 85.591 27.577 85.9617 27.1322 86.5191C26.8823 86.8266 26.8439 87.2522 26.918 87.6284ZM32.0635 85.1929C32.2392 85.7448 32.5248 85.9672 33.0135 86.239C33.2496 86.2967 33.4034 86.3187 33.6477 86.2692C34.3122 86.132 35.059 85.4785 35.3556 84.8854C35.5423 84.5147 35.6741 83.8558 35.4846 83.4659C35.2348 82.9442 34.9904 82.7904 34.4907 82.59C34.3012 82.5735 34.1777 82.568 33.9937 82.5955C33.2881 82.7053 32.5769 83.3011 32.1898 83.8832C31.9839 84.1907 31.9399 84.8332 32.0635 85.1929ZM32.047 95.6787C32.1486 96.4201 32.4232 96.7605 32.9696 97.263L33.3457 97.3591C34.0788 97.1834 35.405 96.8072 35.8443 96.1235C36.0557 95.7886 36.0722 95.3795 35.9816 95.0033C35.8553 94.4844 35.6219 94.2098 35.1826 93.916L35.0481 93.8638C34.4605 93.6881 34.0514 93.9709 33.5324 94.2098L32.7746 94.586C32.349 94.8715 32.1651 95.19 32.047 95.6787ZM37.4039 93.4135C37.3764 94.0753 37.9173 94.6601 38.3786 95.0472C38.5323 95.0829 38.6614 95.1214 38.8179 95.0884C39.3643 94.9841 40.792 94.3251 41.0886 93.8419L41.1462 93.732C41.3659 93.3394 41.4126 92.8452 41.3 92.4059C41.1737 91.9281 40.8827 91.7744 40.5065 91.5245L40.1605 91.4559C39.518 91.3872 38.5076 91.9007 38.0244 92.2933C37.6674 92.5816 37.4203 92.9523 37.4039 93.4135ZM21.2345 101.093C21.3306 101.618 21.7067 101.988 22.146 102.244H22.3629C23.1537 102.17 24.7874 101.379 25.2102 100.72C25.3914 100.44 25.4491 99.9785 25.3503 99.6655C25.18 99.1575 24.7984 98.9242 24.3481 98.699C24.1614 98.6578 23.9719 98.6111 23.7797 98.6249C23.1592 98.6963 21.7918 99.4047 21.4239 99.8989C21.1878 100.223 21.1603 100.706 21.2345 101.093ZM37.3874 82.5735C37.5631 83.0183 37.8322 83.205 38.2523 83.3945C38.4966 83.4274 38.6751 83.4384 38.914 83.3808C39.5345 83.2215 41.0035 82.3401 41.2533 81.7526C41.4126 81.3709 41.3741 80.8712 41.1957 80.506C40.9678 80.0283 40.6438 79.8416 40.155 79.6933C39.9491 79.6741 39.7679 79.6796 39.562 79.7153C38.7877 79.869 37.7965 80.6708 37.3489 81.3023C37.2336 81.7581 37.2062 82.1232 37.3874 82.5735ZM43.1149 79.1963C43.2 79.7482 43.4856 80.0392 43.9167 80.3577C44.1281 80.3989 44.334 80.4429 44.5509 80.4044C45.2675 80.2836 46.6294 79.4983 47.0138 78.8449C47.2417 78.4632 47.2774 77.9278 47.1621 77.505C47.0385 77.0629 46.709 76.8899 46.3438 76.6758C46.1489 76.6346 45.9402 76.5907 45.7453 76.6126C45.1083 76.6813 43.7135 77.6148 43.3538 78.1145C43.1149 78.4413 43.0518 78.8037 43.1149 79.1963ZM43.2632 91.4092C43.4334 91.9116 43.8453 92.178 44.2983 92.4004C44.5097 92.3949 44.7156 92.3894 44.9243 92.3372C45.6712 92.145 46.9863 91.541 47.346 90.8298C47.5272 90.4756 47.5739 89.9457 47.4257 89.5696C47.2362 89.1028 46.9122 88.9216 46.4619 88.7568C46.234 88.7211 46.0528 88.7102 45.8304 88.7568C45.1302 88.9051 43.7299 89.5943 43.3703 90.2148C43.1616 90.5717 43.1369 91.0275 43.2632 91.4092ZM49.9544 89.0122C50.1686 89.4103 50.4322 89.5421 50.8413 89.6849C51.1598 89.7014 51.4289 89.6382 51.7282 89.5256C52.3267 89.3087 53.7106 88.647 53.9741 88.0732C54.1718 87.6421 54.1663 87.2714 53.9851 86.8376C53.7902 86.3763 53.5293 86.1649 53.0736 85.9892C52.7194 85.9425 52.464 85.9617 52.1235 86.0908C51.3081 86.4038 50.1466 86.9392 49.7815 87.7492C49.743 88.194 49.7485 88.6031 49.9544 89.0122ZM49.3312 76.4012C49.4932 76.9366 49.8556 77.192 50.3361 77.4308L50.8413 77.3759C51.5634 77.2277 53.112 76.4287 53.4991 75.7917C53.7215 75.4265 53.727 74.8087 53.5843 74.4133C53.414 73.9411 53.0379 73.7324 52.6068 73.5265L52.2251 73.4743C51.4673 73.7763 49.8062 74.5396 49.408 75.2727C49.2296 75.594 49.2241 76.0498 49.3312 76.4012ZM56.5414 85.9095C56.7391 86.4065 57.0521 86.5191 57.5133 86.6948C57.7083 86.7003 57.884 86.7058 58.079 86.6454C58.8066 86.4175 60.6242 85.6762 60.907 84.954C61.0333 84.641 61.0965 84.0809 60.9482 83.7679C60.7258 83.2956 60.259 83.0238 59.8033 82.8454C59.633 82.8234 59.5177 82.8344 59.353 82.8865C58.2821 83.2105 57.0466 83.8311 56.4892 84.8277C56.4425 85.1984 56.3986 85.5554 56.5414 85.9095ZM56.0746 73.3397C56.2229 73.7598 56.5002 73.9081 56.8818 74.0948C57.1152 74.114 57.3102 74.1195 57.5435 74.0728C58.3123 73.9191 60.1904 72.9224 60.583 72.2689C60.8384 71.8571 60.7478 71.4589 60.6572 71.0141C60.3606 70.627 60.1437 70.4677 59.7017 70.2536C59.4106 70.1795 59.1306 70.1218 58.834 70.2014C58.1641 70.3826 56.4672 71.4589 56.1487 72.0465C55.9153 72.4886 55.9099 72.8757 56.0746 73.3397ZM63.7488 82.7163C63.8861 83.1721 64.1579 83.3917 64.5615 83.6224C64.7043 83.6498 64.8471 83.6718 64.9899 83.6663C65.701 83.6498 67.9964 82.5269 68.3726 81.9475C68.5538 81.6674 68.595 81.0634 68.4742 80.7449C68.2682 80.1985 67.9744 80.0392 67.4665 79.8223C67.3292 79.7894 67.2276 79.7619 67.0739 79.7674C66.2199 79.7839 64.3282 80.8657 63.7653 81.5247C63.5951 81.9365 63.617 82.288 63.7488 82.7163ZM63.2821 69.5754C63.4523 70.0943 63.7021 70.2756 64.1771 70.498C64.3639 70.5474 64.4956 70.5474 64.6878 70.5309C65.5473 70.4513 67.461 69.4656 67.9552 68.7764C68.1447 68.5156 68.2133 68.1641 68.1612 67.8484C68.0651 67.258 67.7905 66.9231 67.3072 66.6073C67.0958 66.5359 66.846 66.4892 66.6181 66.5222C65.8383 66.6265 63.823 67.8676 63.3946 68.5156C63.2189 68.7901 63.175 69.2569 63.2821 69.5754ZM71.3654 79.1277C71.5191 79.7153 71.8459 80.0228 72.3621 80.3138C72.6696 80.4099 72.859 80.4429 73.183 80.3303C74.2017 79.9871 75.904 79.3446 76.412 78.3726C76.4696 77.9772 76.5191 77.6093 76.3269 77.2441C76.1154 76.8295 75.8299 76.6977 75.4098 76.5495C75.267 76.522 75.0858 76.4808 74.943 76.4918C74.0315 76.5605 71.9585 77.5983 71.434 78.3095C71.3324 78.617 71.2803 78.8147 71.3654 79.1277ZM79.7864 62.0467C80.0143 62.486 80.352 62.6178 80.7941 62.7771C81.0275 62.8155 81.1812 62.8155 81.4146 62.7551C82.1944 62.5656 84.531 61.4042 84.9127 60.7041C85.0829 60.3965 85.0994 59.8337 84.9566 59.5097C84.7397 59.0127 84.1768 58.8013 83.6936 58.6777C83.4767 58.6558 83.2652 58.6613 83.0566 58.7354C82.3372 59.0072 79.9072 60.3224 79.6958 61.0061C79.5833 61.3603 79.6162 61.7172 79.7864 62.0467ZM89.1932 72.1426C89.4842 72.5133 89.6764 72.6671 90.1048 72.8538H90.1679C90.3821 72.8702 90.5303 72.8785 90.7363 72.8373C91.6588 72.6423 93.9872 71.7445 94.4759 70.9482C94.6654 70.6352 94.7395 70.2975 94.6297 69.9406C94.4704 69.4491 94.1766 69.2322 93.7373 68.9988C93.4792 68.9192 93.2074 68.8972 92.9411 68.9137C92.046 68.9768 90.0361 69.9516 89.4952 70.6572C89.1081 71.1569 89.13 71.5441 89.1932 72.1426ZM71.2418 65.8577C71.4176 66.308 71.6866 66.5112 72.1122 66.7116C72.2962 66.7803 72.4142 66.7803 72.6147 66.7611C73.378 66.6897 76.0138 65.4404 76.3928 64.7924C76.5465 64.5316 76.6152 64.0593 76.5493 63.7682C76.423 63.2081 76.1539 62.9995 75.7008 62.7029C75.3988 62.6453 75.1819 62.5903 74.8799 62.6507C74.1632 62.788 71.6235 63.9961 71.305 64.6112C71.1265 64.9626 71.0936 65.4871 71.2418 65.8577ZM80.0885 76.1239C80.3466 76.6456 80.7666 76.8103 81.2966 76.9641C82.2685 76.8158 84.7397 75.6434 85.3492 74.8746C85.6622 74.4874 85.6512 74.1195 85.5881 73.6528C85.2202 73.0432 84.9758 72.8373 84.2866 72.6259C83.8995 72.6725 83.5508 72.7412 83.1856 72.8895C82.2631 73.2766 80.363 73.9877 80.0253 74.9679C79.8963 75.3249 79.9127 75.7917 80.0885 76.1239ZM14.8287 136.076C14.9276 136.667 15.1033 137.084 15.603 137.435C15.8611 137.455 15.8309 137.46 16.0945 137.444C16.4075 137.43 16.5887 137.317 16.7947 137.078C17.5113 136.246 17.5497 135 17.4372 133.959C17.374 133.287 17.1653 133.075 16.6684 132.682C16.5311 132.65 16.3718 132.608 16.229 132.608C15.9051 132.608 15.6085 132.883 15.4163 133.122C14.7903 133.902 14.6585 135.107 14.8287 136.076ZM20.4602 134.948C20.4711 135.662 20.7512 136.145 21.2647 136.623C21.4404 136.675 21.6436 136.741 21.8275 136.743C22.146 136.749 22.4975 136.595 22.7034 136.356C23.3349 135.648 23.4997 134.607 23.4612 133.69C23.4283 132.99 23.1537 132.402 22.6512 131.93C22.5496 131.881 22.5057 131.856 22.3904 131.84C22.0307 131.782 21.7067 131.851 21.4349 132.095C20.6881 132.762 20.4437 133.987 20.4602 134.948ZM26.2893 134.193C26.3716 134.909 26.5968 135.541 27.1789 135.986C27.4013 136.019 27.599 136.024 27.8159 135.966C28.2497 135.843 28.5902 135.483 28.8016 135.096C29.2739 134.237 29.3837 133.122 29.0817 132.199C28.9032 131.647 28.7329 131.315 28.214 131.043C27.9998 131.002 27.772 131.008 27.555 130.991C27.3326 131.101 27.1157 131.203 26.9455 131.389C26.3414 132.051 26.1822 133.344 26.2893 134.193ZM32.8542 134.253C33.0382 134.755 33.2716 134.915 33.7219 135.137L34.411 135.101C34.8311 134.83 35.1112 134.544 35.3309 134.088C35.6851 133.355 35.7372 131.867 35.4627 131.106C35.2759 130.615 35.0261 130.382 34.5566 130.165C34.3177 130.132 34.1475 130.126 33.9141 130.211C33.5214 130.354 33.2881 130.656 33.0931 131.013C32.662 131.801 32.5522 133.41 32.8542 134.253ZM39.6087 133.298C39.7432 133.805 40.0068 134.061 40.4516 134.316C40.6053 134.346 40.803 134.396 40.9623 134.379C41.3275 134.352 41.5444 134.135 41.7723 133.877C42.4559 133.097 42.585 131.697 42.4559 130.7C42.3708 130.019 42.0633 129.558 41.5224 129.157L40.8991 129.097C40.479 129.289 40.2182 129.522 39.9738 129.915C39.3972 130.843 39.3396 132.262 39.6087 133.298ZM47.1978 132.114C47.3515 132.688 47.659 133.012 48.1533 133.314C48.3262 133.341 48.4773 133.35 48.6447 133.303C49.1911 133.149 49.4575 132.757 49.6963 132.268C50.2043 131.225 50.3169 129.865 49.9297 128.764C49.732 128.207 49.5041 128.015 48.9907 127.773C48.7738 127.751 48.815 127.74 48.5816 127.773C48.1697 127.82 47.8622 128.133 47.6371 128.462C46.9644 129.459 46.9012 130.969 47.1978 132.114ZM64.114 129.676C64.2842 130.239 64.5396 130.599 65.064 130.868C65.4182 130.923 65.701 130.865 66.0497 130.793C66.3517 130.566 66.6016 130.343 66.8075 130.016C67.3457 129.163 67.4281 127.713 67.1809 126.738C67.0107 126.085 66.7032 125.703 66.1238 125.379C65.896 125.332 65.7065 125.286 65.4676 125.36C65.0366 125.486 64.6439 125.942 64.4325 126.323C63.9355 127.216 63.812 128.696 64.114 129.676ZM55.0532 130.804C55.2372 131.425 55.5612 131.84 56.1295 132.142C56.3135 132.221 56.4096 132.221 56.6155 132.183C57.1317 132.103 57.5188 131.606 57.7577 131.186C58.2986 130.247 58.4359 128.77 58.0899 127.735C57.895 127.147 57.6342 126.785 57.0768 126.516L56.5057 126.477C56.0005 126.694 55.7314 126.922 55.4541 127.4C54.9242 128.328 54.7402 129.783 55.0532 130.804ZM74.0891 128.317C74.2484 128.902 74.6245 129.3 75.1297 129.602C75.3988 129.624 75.7283 129.676 75.9891 129.585C76.412 129.448 76.6948 129.033 76.8678 128.652C77.3894 127.512 77.5322 126.118 77.0764 124.929C76.8568 124.358 76.6454 124.119 76.088 123.874L75.8464 123.863C75.2945 123.91 74.8442 124.371 74.5724 124.824C73.9793 125.805 73.7816 127.21 74.0891 128.317ZM85.7501 127.166C85.9752 127.702 86.3075 128.031 86.8319 128.248C87.0021 128.276 87.1614 128.27 87.3261 128.243C87.8203 128.155 88.18 127.74 88.4354 127.342C89.0285 126.414 89.1767 125.184 88.9131 124.124C88.7484 123.465 88.4079 122.839 87.8149 122.49C87.5375 122.422 87.3096 122.427 87.0406 122.512C86.5463 122.666 86.1372 123.207 85.9368 123.657C85.503 124.621 85.3437 126.175 85.7501 127.166ZM97.9739 125.003C98.1222 125.725 98.4297 126.192 99.0475 126.579C99.2534 126.653 99.4484 126.669 99.6708 126.647C100.102 126.606 100.462 126.26 100.711 125.931C101.395 125.041 101.458 123.743 101.285 122.674C101.151 121.859 100.967 121.346 100.283 120.851C100.044 120.761 99.6763 120.709 99.4237 120.788C99.0557 120.903 98.7427 121.222 98.5423 121.535C97.9108 122.515 97.7351 123.874 97.9739 125.003ZM111.642 123.435C111.859 124.165 112.188 124.643 112.867 125.003C112.993 125.041 112.993 125.047 113.147 125.041C113.652 125.008 114.119 124.558 114.388 124.171C115.055 123.213 115.173 121.853 114.956 120.725C114.813 119.97 114.473 119.377 113.825 118.962C113.608 118.91 113.364 118.921 113.141 118.905C112.696 119.108 112.378 119.308 112.133 119.742C111.568 120.755 111.302 122.309 111.642 123.435ZM127.762 121.667C128.017 122.304 128.372 122.707 128.998 122.974C129.179 122.993 129.39 122.982 129.566 122.924C130.055 122.749 130.409 122.235 130.631 121.796C131.205 120.665 131.378 119.24 130.933 118.034C130.7 117.411 130.436 116.974 129.81 116.7C129.602 116.661 129.338 116.593 129.127 116.667C128.649 116.832 128.229 117.394 128.012 117.828C127.493 118.888 127.323 120.544 127.762 121.667ZM144.945 120.505C145.183 120.994 145.464 121.356 145.988 121.518C146.293 121.54 146.562 121.494 146.836 121.37C147.394 121.126 147.781 120.352 147.962 119.808C148.377 118.586 148.385 117.161 147.781 116C147.542 115.549 147.295 115.33 146.812 115.187C146.556 115.198 146.26 115.198 146.015 115.294C145.485 115.505 145.098 116.211 144.906 116.719C144.5 117.834 144.42 119.415 144.945 120.505ZM179.312 116.969C179.568 117.702 179.903 118.188 180.603 118.539C180.883 118.641 181.07 118.646 181.355 118.517C181.863 118.295 182.341 117.617 182.558 117.128C183.096 115.915 183.091 114.138 182.558 112.919C182.272 112.271 182.039 111.931 181.383 111.661C181.174 111.639 181.015 111.65 180.809 111.708C180.246 111.856 179.829 112.532 179.59 113.018C179.005 114.229 178.879 115.709 179.312 116.969ZM161.74 118.062C161.973 118.883 162.366 119.456 163.107 119.896C163.289 119.912 163.489 119.94 163.67 119.901C164.252 119.78 164.862 119.102 165.128 118.603C165.705 117.526 165.908 115.978 165.499 114.8C165.213 113.968 164.799 113.421 163.997 113.051C163.84 113.045 163.706 113.045 163.547 113.081C163.039 113.199 162.509 113.773 162.242 114.19C161.581 115.25 161.394 116.848 161.74 118.062Z" fill="black"/>
</svg>
