<svg width="107" height="97" viewBox="0 0 107 97" fill="none" xmlns="http://www.w3.org/2000/svg">
<path d="M97.979 26.0828H7.80037C5.95122 26.0828 4.44824 24.5798 4.44824 22.7307C4.44824 20.8815 5.95122 19.3786 7.80037 19.3786H30.6941C32.1019 19.3786 33.3337 18.3804 33.625 17.0015C34.0029 15.2043 34.9982 13.5772 36.4233 12.4204C37.8484 11.2636 39.6456 10.6261 41.4832 10.6261H64.2933C66.128 10.6261 67.9252 11.2636 69.3532 12.4204C70.7812 13.5772 71.7735 15.2043 72.1514 16.9986C72.4428 18.3747 73.6746 19.3757 75.0824 19.3757H97.9761C99.8252 19.3757 101.328 20.8786 101.328 22.7278C101.331 24.5798 99.8252 26.0828 97.979 26.0828ZM7.80037 21.0489C6.87435 21.0489 6.11854 21.8047 6.11854 22.7307C6.11854 23.6567 6.87435 24.4125 7.80037 24.4125H97.9761C98.9021 24.4125 99.6579 23.6567 99.6579 22.7307C99.6579 21.8047 98.9021 21.0489 97.9761 21.0489H75.0824C74.015 21.0489 72.9707 20.6796 72.1428 20.0074C71.3148 19.3353 70.7379 18.392 70.5158 17.3477C69.8984 14.4225 67.2819 12.2993 64.2933 12.2993H41.4832C38.4946 12.2993 35.8781 14.4225 35.2607 17.3477C35.0415 18.392 34.4616 19.3353 33.6337 20.0074C32.8057 20.6796 31.7615 21.0489 30.6941 21.0489H7.80037Z" fill="black"/>
<path d="M52.8899 50.6466C50.3368 50.6466 48.2598 48.5696 48.2598 46.0165C48.2598 45.555 48.6348 45.1799 49.0964 45.1799C49.5579 45.1799 49.9329 45.555 49.9329 46.0165C49.9329 47.6464 51.2599 48.9763 52.8927 48.9763C54.5255 48.9763 55.8525 47.6493 55.8525 46.0165C55.8525 45.555 56.2276 45.1799 56.6891 45.1799C57.1507 45.1799 57.5257 45.555 57.5257 46.0165C57.5199 48.5696 55.4429 50.6466 52.8899 50.6466Z" fill="black"/>
<path d="M21.3968 21.0486H11.8078C11.3462 21.0486 10.9712 20.6736 10.9712 20.212V10.496C10.9712 10.0344 11.3462 9.65942 11.8078 9.65942H21.3997C21.8613 9.65942 22.2363 10.0344 22.2363 10.496V20.212C22.2334 20.6736 21.8584 21.0486 21.3968 21.0486ZM12.6444 19.3783H20.5631V11.3326H12.6444V19.3783Z" fill="black"/>
<path d="M19.0483 11.3327C18.9617 11.3327 18.8723 11.3183 18.7829 11.2894C18.3444 11.1423 18.1078 10.6692 18.255 10.2307C18.5088 9.47199 18.6992 7.96901 18.6992 6.73432C18.6992 5.35827 18.4338 4.14377 17.952 3.31007C17.7328 2.93216 17.2655 2.29462 16.602 2.29462C15.9385 2.29462 15.4711 2.92928 15.2519 3.31007C14.7701 4.14089 14.5047 5.35827 14.5047 6.73432C14.5047 7.96901 14.6951 9.47487 14.949 10.2307C15.0961 10.6692 14.8596 11.1423 14.4211 11.2894C13.9826 11.4365 13.5095 11.2 13.3623 10.7615C13.0133 9.72008 12.8315 7.94593 12.8315 6.73432C12.8315 5.04383 13.1662 3.57259 13.8037 2.47348C14.4932 1.28206 15.4884 0.624329 16.5991 0.624329C17.7126 0.624329 18.705 1.27918 19.3944 2.47348C20.0291 3.5697 20.3666 5.04383 20.3666 6.73432C20.3666 7.94593 20.1849 9.72008 19.8358 10.7615C19.7233 11.1134 19.3973 11.3327 19.0483 11.3327Z" fill="black"/>
<path d="M13.723 6.47762H0.83659C0.375023 6.47762 0 6.1026 0 5.64103C0 5.17947 0.375023 4.80444 0.83659 4.80444H13.723C14.1845 4.80444 14.5595 5.17947 14.5595 5.64103C14.5595 6.1026 14.1845 6.47762 13.723 6.47762Z" fill="black"/>
<path d="M32.368 6.47762H19.4816C19.02 6.47762 18.645 6.1026 18.645 5.64103C18.645 5.17947 19.02 4.80444 19.4816 4.80444H32.368C32.8295 4.80444 33.2046 5.17947 33.2046 5.64103C33.2046 6.1026 32.8295 6.47762 32.368 6.47762Z" fill="black"/>
<path d="M94.2547 21.0486H84.6657C84.2041 21.0486 83.8291 20.6736 83.8291 20.212V10.496C83.8291 10.0344 84.2041 9.65942 84.6657 9.65942H94.2547C94.7163 9.65942 95.0913 10.0344 95.0913 10.496V20.212C95.0913 20.6736 94.7163 21.0486 94.2547 21.0486ZM85.4994 19.3783H93.4181V11.3326H85.4994V19.3783Z" fill="black"/>
<path d="M91.9037 11.3327C91.8172 11.3327 91.7278 11.3183 91.6383 11.2894C91.1999 11.1423 90.9633 10.6692 91.1104 10.2307C91.3643 9.47199 91.5547 7.96901 91.5547 6.73432C91.5547 5.35827 91.2893 4.14377 90.8075 3.31007C90.5883 2.93216 90.1209 2.29462 89.4574 2.29462C88.7939 2.29462 88.3266 2.92928 88.1073 3.31007C87.6256 4.14089 87.3602 5.35827 87.3602 6.73432C87.3602 7.96901 87.5506 9.47487 87.8044 10.2307C87.9516 10.6692 87.715 11.1423 87.2765 11.2894C86.838 11.4365 86.3649 11.2 86.2178 10.7615C85.8688 9.72008 85.687 7.94593 85.687 6.73432C85.687 5.04383 86.0216 3.57259 86.6592 2.47348C87.3487 1.28206 88.3439 0.624329 89.4546 0.624329C90.5652 0.624329 91.5604 1.27918 92.2499 2.47348C92.8846 3.5697 93.2221 5.04383 93.2221 6.73432C93.2221 7.94593 93.0403 9.72008 92.6913 10.7615C92.5817 11.1134 92.2557 11.3327 91.9037 11.3327Z" fill="black"/>
<path d="M86.5809 6.47762H73.6945C73.2329 6.47762 72.8579 6.1026 72.8579 5.64103C72.8579 5.17947 73.2329 4.80444 73.6945 4.80444H86.5809C87.0424 4.80444 87.4175 5.17947 87.4175 5.64103C87.4175 6.1026 87.0424 6.47762 86.5809 6.47762Z" fill="black"/>
<path d="M105.226 6.47762H92.3395C91.878 6.47762 91.5029 6.1026 91.5029 5.64103C91.5029 5.17947 91.878 4.80444 92.3395 4.80444H105.226C105.687 4.80444 106.062 5.17947 106.062 5.64103C106.062 6.1026 105.687 6.47762 105.226 6.47762Z" fill="black"/>
<path d="M58.7121 46.8531H47.47C39.3493 46.8531 32.3855 41.0547 30.9113 33.0696L29.4978 25.399C29.4516 25.1537 29.518 24.9028 29.6766 24.7124C29.8353 24.522 30.0719 24.4124 30.3199 24.4124H75.865C76.1131 24.4124 76.3497 24.522 76.5084 24.7124C76.667 24.9028 76.7334 25.1537 76.6872 25.399L75.2737 33.0696C73.7967 41.0576 66.8328 46.8531 58.7121 46.8531ZM31.321 26.0826L32.5528 32.7638C33.8798 39.9585 40.1513 45.18 47.4672 45.18H58.7092C66.025 45.18 72.2966 39.9585 73.6236 32.7638L74.8554 26.0826H31.321Z" fill="black"/>
<path d="M52.8901 39.7711C50.1726 39.7711 47.96 37.5585 47.96 34.841C47.96 32.1235 50.1726 29.9109 52.8901 29.9109C55.6075 29.9109 57.8202 32.1235 57.8202 34.841C57.8202 37.5614 55.6075 39.7711 52.8901 39.7711ZM52.8901 31.5812C51.0928 31.5812 49.6303 33.0438 49.6303 34.841C49.6303 36.6382 51.0928 38.1008 52.8901 38.1008C54.6873 38.1008 56.1499 36.6382 56.1499 34.841C56.1499 33.0438 54.6873 31.5812 52.8901 31.5812Z" fill="black"/>
<path d="M31.1557 30.6378H26.3121C24.3418 30.6378 22.7407 29.0367 22.7407 27.0664V25.2461C22.7407 24.7845 23.1157 24.4095 23.5773 24.4095C24.0389 24.4095 24.4139 24.7845 24.4139 25.2461V27.0664C24.4139 28.1136 25.2678 28.9675 26.315 28.9675H31.1585C31.6201 28.9675 31.9951 29.3425 31.9951 29.804C31.9951 30.2656 31.6172 30.6378 31.1557 30.6378Z" fill="black"/>
<path d="M79.9204 30.6379H75.0768C74.6153 30.6379 74.2402 30.2629 74.2402 29.8013C74.2402 29.3397 74.6153 28.9647 75.0768 28.9647H79.9204C80.9676 28.9647 81.8215 28.1108 81.8215 27.0636V25.2433C81.8215 24.7818 82.1965 24.4067 82.6581 24.4067C83.1196 24.4067 83.4946 24.7818 83.4946 25.2433V27.0636C83.4918 29.0368 81.8907 30.6379 79.9204 30.6379Z" fill="black"/>
<path d="M20.3525 46.8532H15.509C15.0474 46.8532 14.6724 46.4782 14.6724 46.0166C14.6724 45.555 15.0474 45.18 15.509 45.18H19.8044L26.601 29.4694C26.7856 29.0454 27.276 28.8521 27.7001 29.0338C28.1241 29.2156 28.3174 29.7089 28.1357 30.133L21.1199 46.3484C20.9872 46.657 20.6843 46.8532 20.3525 46.8532Z" fill="black"/>
<path d="M90.1474 46.8531H85.3039C84.9692 46.8531 84.6692 46.6541 84.5365 46.3483L77.5236 30.1358C77.339 29.7117 77.5351 29.2213 77.9592 29.0367C78.3833 28.852 78.8737 29.0482 79.0583 29.4723L85.8549 45.1828H90.1503C90.6119 45.1828 90.9869 45.5579 90.9869 46.0194C90.9869 46.481 90.609 46.8531 90.1474 46.8531Z" fill="black"/>
<path d="M55.9279 19.191H49.8496C48.8659 19.191 47.8764 18.9688 46.9908 18.5448C46.1052 18.1207 45.3061 17.4947 44.6858 16.7331L40.8346 11.9905C40.6327 11.7396 40.5894 11.3963 40.7279 11.1049C40.8664 10.8135 41.1606 10.6289 41.4837 10.6289H64.2938C64.6169 10.6289 64.9111 10.8135 65.0496 11.1049C65.1881 11.3963 65.1477 11.7396 64.9429 11.9905L61.0917 16.7331C60.4714 17.4976 59.6752 18.1236 58.7867 18.5448C57.8982 18.966 56.9116 19.191 55.9279 19.191ZM43.2406 12.2992L45.984 15.6802C46.9331 16.8514 48.3438 17.5207 49.8496 17.5207H55.9279C57.4337 17.5207 58.8444 16.8485 59.7935 15.6802L62.5369 12.2992H43.2406Z" fill="black"/>
<path d="M11.5247 74.657C11.2651 74.657 11.0084 74.5358 10.8439 74.308C10.5756 73.9329 10.6593 73.4108 11.0343 73.1425L44.4835 49.1352C44.8585 48.867 45.3807 48.9506 45.649 49.3256C45.9172 49.7007 45.8336 50.2228 45.4586 50.4911L12.0094 74.4983C11.8651 74.6051 11.6921 74.657 11.5247 74.657Z" fill="black"/>
<path d="M94.255 74.657C94.0877 74.657 93.9146 74.605 93.7675 74.5012L60.3183 50.4939C59.9433 50.2257 59.8567 49.7035 60.1279 49.3285C60.3962 48.9535 60.9183 48.8669 61.2933 49.1381L94.7425 73.1453C95.1175 73.4136 95.2041 73.9358 94.9329 74.3108C94.7714 74.5358 94.5146 74.657 94.255 74.657Z" fill="black"/>
<path d="M53.0897 81.7592C52.6368 81.7592 52.3079 81.4563 51.8954 80.9371C51.6184 80.588 51.278 80.1034 50.8857 79.4975C50.0664 78.2311 49.1346 76.6214 48.2634 74.9655C46.9105 72.3894 44.6401 67.6612 44.6401 64.9524C44.6401 62.6071 45.4911 60.4146 47.0403 58.7847C48.6154 57.1231 50.7646 56.2086 53.0926 56.2086C55.4206 56.2086 57.5669 57.1231 59.1449 58.7847C60.6911 60.4146 61.545 62.6071 61.545 64.9524C61.545 67.6439 59.2545 72.3836 57.89 74.9684C57.0361 76.5839 56.0812 78.2369 55.2677 79.4975C54.8783 80.1005 54.5436 80.5822 54.2725 80.9313C53.9147 81.3813 53.583 81.7592 53.0897 81.7592ZM53.0897 57.876C49.2875 57.876 46.3104 60.9829 46.3104 64.9495C46.3104 66.5852 47.4701 69.7787 49.4952 73.7078C50.2886 75.2511 51.1684 76.806 51.9733 78.0898C52.4637 78.8715 52.8272 79.3995 53.0782 79.7312C53.7763 78.7792 55.1725 76.5695 56.6553 73.7107C58.6977 69.7671 59.8718 66.5737 59.8718 64.9495C59.869 60.9829 56.8918 57.876 53.0897 57.876Z" fill="black"/>
<path d="M53.0886 68.9799C50.726 68.9799 48.8047 67.0587 48.8047 64.696C48.8047 62.3334 50.726 60.4121 53.0886 60.4121C55.4512 60.4121 57.3725 62.3334 57.3725 64.696C57.3725 67.0587 55.4512 68.9799 53.0886 68.9799ZM53.0886 62.0824C51.6462 62.0824 50.475 63.2536 50.475 64.696C50.475 66.1384 51.6462 67.3097 53.0886 67.3097C54.531 67.3097 55.7022 66.1384 55.7022 64.696C55.7022 63.2536 54.531 62.0824 53.0886 62.0824Z" fill="black"/>
<path d="M94.2547 97.0055H11.5246C11.063 97.0055 10.688 96.6305 10.688 96.1689V73.8204C10.688 73.3588 11.063 72.9838 11.5246 72.9838H43.8544C44.316 72.9838 44.691 73.3588 44.691 73.8204C44.691 74.282 44.316 74.657 43.8544 74.657H12.3583V95.3352H93.4181V74.657H62.2969C61.8354 74.657 61.4603 74.282 61.4603 73.8204C61.4603 73.3588 61.8354 72.9838 62.2969 72.9838H94.2547C94.7162 72.9838 95.0912 73.3588 95.0912 73.8204V96.1689C95.0912 96.6305 94.7162 97.0055 94.2547 97.0055Z" fill="black"/>
<path d="M52.9425 97.0056C52.481 97.0056 52.106 96.6306 52.106 96.169V85.2126C52.106 84.751 52.481 84.376 52.9425 84.376C53.4041 84.376 53.7791 84.751 53.7791 85.2126V96.169C53.7791 96.6306 53.4041 97.0056 52.9425 97.0056Z" fill="black"/>
<path d="M21.8786 97.0057C21.417 97.0057 21.042 96.6307 21.042 96.1691V73.8207C21.042 73.3591 21.417 72.9841 21.8786 72.9841C22.3401 72.9841 22.7152 73.3591 22.7152 73.8207V96.1691C22.7152 96.6307 22.3401 97.0057 21.8786 97.0057Z" fill="black"/>
<path d="M27.0563 97.0057C26.5947 97.0057 26.2197 96.6307 26.2197 96.1691V73.8207C26.2197 73.3591 26.5947 72.9841 27.0563 72.9841C27.5179 72.9841 27.8929 73.3591 27.8929 73.8207V96.1691C27.8929 96.6307 27.5179 97.0057 27.0563 97.0057Z" fill="black"/>
<path d="M32.2355 97.0057C31.7739 97.0057 31.3989 96.6307 31.3989 96.1691V73.8207C31.3989 73.3591 31.7739 72.9841 32.2355 72.9841C32.6971 72.9841 33.0721 73.3591 33.0721 73.8207V96.1691C33.0692 96.6307 32.6971 97.0057 32.2355 97.0057Z" fill="black"/>
<path d="M16.7033 97.0057C16.2417 97.0057 15.8667 96.6307 15.8667 96.1691V73.8207C15.8667 73.3591 16.2417 72.9841 16.7033 72.9841C17.1649 72.9841 17.5399 73.3591 17.5399 73.8207V96.1691C17.5399 96.6307 17.1649 97.0057 16.7033 97.0057Z" fill="black"/>
<path d="M63.2692 97.0057C62.8076 97.0057 62.4326 96.6307 62.4326 96.1691V73.8207C62.4326 73.3591 62.8076 72.9841 63.2692 72.9841C63.7308 72.9841 64.1058 73.3591 64.1058 73.8207V96.1691C64.1029 96.6307 63.7308 97.0057 63.2692 97.0057Z" fill="black"/>
<path d="M68.4445 97.0057C67.9829 97.0057 67.6079 96.6307 67.6079 96.1691V73.8207C67.6079 73.3591 67.9829 72.9841 68.4445 72.9841C68.9061 72.9841 69.2811 73.3591 69.2811 73.8207V96.1691C69.2811 96.6307 68.9061 97.0057 68.4445 97.0057Z" fill="black"/>
<path d="M73.6232 97.0057C73.1616 97.0057 72.7866 96.6307 72.7866 96.1691V73.8207C72.7866 73.3591 73.1616 72.9841 73.6232 72.9841C74.0848 72.9841 74.4598 73.3591 74.4598 73.8207V96.1691C74.4598 96.6307 74.0848 97.0057 73.6232 97.0057Z" fill="black"/>
<path d="M58.0915 97.0055C57.6299 97.0055 57.2549 96.6305 57.2549 96.1689V80.5968C57.2549 80.1353 57.6299 79.7603 58.0915 79.7603C58.553 79.7603 58.9281 80.1353 58.9281 80.5968V96.1689C58.9281 96.6305 58.553 97.0055 58.0915 97.0055Z" fill="black"/>
<path d="M52.9415 86.0492H32.2316C31.77 86.0492 31.395 85.6741 31.395 85.2126C31.395 84.751 31.77 84.376 32.2316 84.376H52.9415C53.4031 84.376 53.7781 84.751 53.7781 85.2126C53.7781 85.6741 53.4031 86.0492 52.9415 86.0492Z" fill="black"/>
<path d="M52.9415 91.2246H32.2316C31.77 91.2246 31.395 90.8495 31.395 90.388C31.395 89.9264 31.77 89.5514 32.2316 89.5514H52.9415C53.4031 89.5514 53.7781 89.9264 53.7781 90.388C53.7781 90.8495 53.4031 91.2246 52.9415 91.2246Z" fill="black"/>
<path d="M47.3941 80.871H32.2316C31.77 80.871 31.395 80.496 31.395 80.0344C31.395 79.5728 31.77 79.1978 32.2316 79.1978H47.3941C47.8556 79.1978 48.2307 79.5728 48.2307 80.0344C48.2307 80.496 47.8556 80.871 47.3941 80.871Z" fill="black"/>
<path d="M94.3331 86.0492H73.6232C73.1616 86.0492 72.7866 85.6741 72.7866 85.2126C72.7866 84.751 73.1616 84.376 73.6232 84.376H94.3331C94.7947 84.376 95.1697 84.751 95.1697 85.2126C95.1697 85.6741 94.7947 86.0492 94.3331 86.0492Z" fill="black"/>
<path d="M94.3331 91.2246H73.6232C73.1616 91.2246 72.7866 90.8495 72.7866 90.388C72.7866 89.9264 73.1616 89.5514 73.6232 89.5514H94.3331C94.7947 89.5514 95.1697 89.9264 95.1697 90.388C95.1697 90.8495 94.7947 91.2246 94.3331 91.2246Z" fill="black"/>
<path d="M94.3331 80.871H73.6232C73.1616 80.871 72.7866 80.496 72.7866 80.0344C72.7866 79.5728 73.1616 79.1978 73.6232 79.1978H94.3331C94.7947 79.1978 95.1697 79.5728 95.1697 80.0344C95.1697 80.496 94.7947 80.871 94.3331 80.871Z" fill="black"/>
</svg>
