<svg width="201" height="129" viewBox="0 0 201 129" fill="none" xmlns="http://www.w3.org/2000/svg">
<mask id="mask0_75_24" style="mask-type:luminance" maskUnits="userSpaceOnUse" x="0" y="0" width="201" height="129">
<path d="M0.046875 0.108154H200.51V128.357H0.046875V0.108154Z" fill="white"/>
</mask>
<g mask="url(#mask0_75_24)">
<path d="M172.089 32.6872C171.815 32.3554 171.528 32.0281 171.234 31.7164C175.075 27.4949 177.965 22.3894 182.447 18.7824C186.68 15.3846 191.304 12.5013 195.092 8.58698C195.588 8.84749 196.045 9.14139 196.443 9.53327C195.987 9.95186 195.497 10.415 194.996 10.8581C194.199 11.5884 193.462 12.4166 192.607 13.2761C191.779 14.1244 190.913 15.0974 189.973 16.0036C189.51 16.4601 189.027 16.9365 188.539 17.413C187.996 17.8428 187.468 18.2925 186.862 18.7556C185.687 19.6819 184.402 20.6282 183.066 21.737C181.735 22.8258 180.359 24.1239 179.127 25.5845C177.874 26.9605 176.629 28.4879 175.258 29.9084C174.287 30.9059 173.249 31.8856 172.089 32.6872ZM163.323 67.2165C163.023 67.0072 162.742 66.8113 162.475 66.6354C163.323 66.3281 164.138 65.9385 164.902 65.4553C164.915 66.2368 165.013 67.1252 165.176 68.0648C165.189 68.1227 165.196 68.1806 165.214 68.2407C164.902 67.9847 164.557 67.7308 164.112 67.5104C163.878 67.3857 163.611 67.2944 163.323 67.2165ZM160.453 36.646C160.322 36.1962 160.42 35.7464 160.453 35.3034C160.531 35.2432 160.596 35.172 160.683 35.1275C160.812 35.0228 160.943 34.9961 161.072 34.9182C161.164 34.8848 161.262 34.8536 161.366 34.8135C161.4 34.8002 161.515 34.749 161.484 34.7734L161.64 34.749C161.843 34.7089 162.052 34.6577 162.272 34.6176C162.502 34.5909 162.736 34.5664 162.972 34.533C163.956 34.455 165.091 34.5196 166.343 34.7356C168.867 35.1341 171.775 36.2029 175.24 37.285C176.7 37.7548 178.168 38.5697 179.041 39.8233C179.479 40.4356 179.766 41.1347 179.864 41.8717C179.922 42.3459 179.889 42.8625 179.784 43.3568C179.067 42.7579 177.208 42.2168 174.797 42.268C171.835 42.3593 169.551 43.0317 169.533 43.8266C169.52 44.6037 171.965 45.2226 174.848 45.1247C176.727 45.0735 178.486 44.8909 179.419 44.5191C179.297 44.813 179.107 45.1514 179.016 45.334L178.695 45.8305C178.58 45.9797 178.442 46.1177 178.324 46.2602C177.796 46.8079 177.164 47.2065 176.447 47.4603C175.727 47.7142 174.926 47.8054 174.111 47.7988C173.309 47.7921 172.488 47.6941 171.697 47.5115C170.916 47.3356 170.119 47.0952 169.429 46.828C168.698 46.5608 167.948 46.1823 167.262 45.8817C166.585 45.5499 165.944 45.2226 165.41 44.8909C164.869 44.5769 164.209 44.0426 163.773 43.7219C163.533 43.5394 163.357 43.3568 163.33 43.3256C163.283 43.3056 163.245 43.1809 163.245 42.8358C163.239 42.6866 163.225 42.5419 163.225 42.3994L163.212 42.1455L163.185 41.9229C163.161 41.6223 163.134 41.3551 163.094 41.0679C162.985 40.1483 162.769 38.9482 162.019 38.3226C161.373 37.7949 160.7 37.5589 160.453 36.646ZM160.968 50.3571C160.413 50.1411 159.872 49.9719 159.338 49.796C159.696 49.2349 160.133 48.5959 160.683 47.988C161.38 47.2243 162.137 46.6521 162.715 46.396C163.009 46.2469 163.245 46.1689 163.415 46.1355C163.635 46.3003 163.838 46.4829 164.105 46.6654C164.777 47.1664 165.47 47.5717 166.18 47.988C166.91 48.3732 167.607 48.7651 168.431 49.1302C169.017 49.3974 169.618 49.6134 170.237 49.8027C169.27 50.4484 168.3 51.8823 167.816 52.5213C167.431 53.0356 167.106 53.5856 166.864 54.1266C166.721 53.9507 166.585 53.7793 166.427 53.6234C166.069 53.3117 165.737 52.9399 165.365 52.6972C163.911 51.5884 162.397 50.9115 160.968 50.3571ZM157.441 79.752C157.225 78.9037 157.198 77.9707 157.283 77.0846C157.465 75.31 158.02 73.6869 158.705 72.3888C159.385 71.0907 160.237 70.0865 161.086 69.5321C161.511 69.2382 161.921 69.1269 162.312 69.0423C162.704 69.0289 163.076 69.0289 163.421 69.167C163.486 69.1915 163.55 69.2315 163.617 69.2516C163.624 69.2516 163.624 69.2649 163.635 69.2649C164.817 70.5163 166.153 72.224 166.298 74.533C166.291 74.8269 166.309 75.1074 166.298 75.4213C166.278 75.7397 166.258 76.0537 166.213 76.361C166.122 76.9666 165.951 77.403 165.561 77.8527C165.372 78.0821 165.129 78.3114 164.869 78.5452C164.581 78.7723 164.281 79.0217 163.982 79.2688C163.682 79.5227 163.357 79.7319 163.029 79.9613C162.715 80.1951 162.37 80.4244 162.025 80.6137C161.028 81.1681 159.926 81.6178 158.732 81.8182L158.803 81.6824C158.138 81.2772 157.681 80.607 157.441 79.752ZM155.608 48.6738C155.43 48.607 153.963 47.5917 154.152 47.3624C155.386 45.8683 156.984 44.6415 158.55 43.4948C159.051 44.0025 159.52 44.5458 159.963 45.1002C159.652 45.4653 159.287 45.8884 158.868 46.3649C158.191 47.133 157.441 47.8589 156.579 48.4311C156.136 48.7384 156.174 48.8363 155.608 48.6738ZM150.866 67.5616C152.008 66.1389 153.317 64.8475 154.642 63.6028C154.7 63.5449 154.753 63.4982 154.791 63.4336C154.98 63.5316 155.176 63.6429 155.346 63.7342C157.069 64.6582 158.347 65.3039 159.135 65.6312C159.736 65.8984 160.883 66.6087 160.761 67.3523C160.037 67.6596 159.385 68.0715 158.803 68.5858C158.628 68.7283 157.12 70.445 157.12 70.5497C154.871 69.4653 152.783 68.4678 150.866 67.5616ZM144.656 64.6582C143.71 64.2285 142.817 63.8188 141.982 63.4336C143.888 62.278 145.771 61.0534 147.847 60.2296C148.074 60.145 148.25 60.0092 148.381 59.8533C148.973 60.1851 149.568 60.5235 150.129 60.8508C150.964 61.3206 151.745 61.7503 152.489 62.1689C151.068 63.5115 149.73 64.9143 148.523 66.4662C147.154 65.8205 145.856 65.2126 144.656 64.6582ZM142.955 51.831C142.888 51.7576 142.797 51.6663 142.712 51.5817C142.766 51.0985 142.999 50.6042 143.574 50.1277C143.77 49.9452 144.004 49.7759 144.26 49.6201C144.513 49.4486 144.807 49.3395 145.092 49.1748C145.386 49.0456 145.707 48.9744 146.025 48.8764C146.366 48.8497 146.704 48.7584 147.076 48.8029C147.806 48.8163 148.648 49.0189 149.594 49.3061C150.538 49.5867 151.596 49.9318 152.732 50.2457C154.974 50.8714 157.485 51.4971 160.115 52.5346C161.406 53.069 162.736 53.7214 163.871 54.6076C164.185 54.8102 164.392 55.0907 164.666 55.3267C164.915 55.5806 165.105 55.8745 165.332 56.135C165.677 56.7473 165.951 57.3418 166.062 58.1099C166.343 59.6307 165.997 61.118 164.862 62.278C163.766 63.3868 162.221 64.2886 160.683 64.5558C158.83 64.8675 157.427 63.7075 155.991 62.71C154.635 61.777 152.979 60.6749 151.055 59.4013C150.095 58.769 149.071 58.0988 147.982 57.3796C146.927 56.6426 145.524 55.899 144.943 55.1508L144.885 55.0707C144.774 54.877 144.649 54.7055 144.52 54.5163C144.395 54.2624 144.264 54.0019 144.142 53.7414C143.979 53.4408 143.868 53.1536 143.665 52.8219L143.344 52.332L143.175 52.0849L143.162 52.0515C143.144 52.0248 143.077 51.9602 143.077 51.9602L143.039 51.9223L142.955 51.831ZM139.876 61.737C139.348 60.401 139.067 59.0428 139.067 57.6023C139.757 57.5177 140.47 57.3618 141.16 57.1525C141.846 56.9432 142.498 56.656 143.131 56.3242C143.175 56.3754 143.215 56.4289 143.26 56.4868C143.574 56.7873 143.894 57.1525 144.22 57.3729C144.54 57.5889 144.885 57.8427 145.172 58.0008C145.393 58.1233 145.602 58.2546 145.825 58.3793C143.756 59.3501 141.846 60.5903 139.876 61.737ZM133.138 59.5394C133.06 58.7178 133.04 57.8962 133.111 57.0746C134.169 57.3418 135.304 57.5689 136.511 57.6602C136.522 58.8937 136.705 60.0671 137.039 61.2226C136.705 61.0846 136.393 60.9621 136.093 60.8508C134.933 60.4188 133.922 60.1383 133.073 59.9624C133.118 59.8266 133.145 59.6819 133.138 59.5394ZM128.182 58.9716C128.324 57.9273 128.456 56.892 128.665 55.8611C129.317 56.0437 129.974 56.2329 130.653 56.4155C130.522 57.4598 130.511 58.4884 130.602 59.5394C130.602 59.5527 130.602 59.5728 130.602 59.5794C129.923 59.408 129.121 59.2076 128.182 58.9716ZM128.168 45.8884C127.039 45.6078 125.893 45.3206 124.731 45.0334C125.71 44.4077 126.806 43.8333 127.868 43.2588C128.351 43.005 128.847 42.7178 129.342 42.4372C129.825 42.1455 130.359 41.8182 130.778 41.5243C131.664 40.9254 132.546 40.3309 133.419 39.752C136.901 37.4097 140.203 35.1586 143.411 33.059C146.613 30.9527 149.646 28.9243 152.562 27.0985C154.016 26.179 155.437 25.2705 156.813 24.391C157.499 23.9546 158.191 23.5227 158.861 23.0996C159.547 22.7078 160.231 22.3159 160.91 21.9329C163.597 20.3988 166.133 18.9516 168.553 17.5177C169.767 16.8052 170.934 16.1149 172.076 15.4425C173.191 14.7568 174.229 14.0398 175.258 13.3741C177.306 12.0181 179.219 10.7534 181.011 9.56666C182.806 8.37323 184.493 7.28222 186.034 6.33149C189.131 4.41443 191.961 3.23881 194.415 3.06959C195.027 3.0117 195.602 3.04955 196.149 3.08963C196.423 3.13416 196.684 3.16756 196.944 3.20764C197.2 3.25217 197.383 3.3056 197.583 3.39689C198.296 3.68857 198.759 4.28306 199.064 4.87087C199.111 5.0913 199.137 5.32063 199.117 5.57446C199.084 6.23352 198.79 6.99054 198.249 7.74089C197.552 7.04176 196.697 6.55859 195.829 6.11551C195.653 6.0309 195.464 5.99082 195.288 5.97301C194.858 5.72364 194.304 5.72364 193.867 6.2068C189.659 10.7801 184.097 13.6101 179.642 17.8561C175.494 21.7949 172.59 26.7579 168.594 30.8347C168.006 31.4492 168.208 32.2107 168.692 32.6538C168.729 32.7206 168.756 32.7918 168.807 32.8497C168.874 32.9098 168.945 32.9744 169.003 33.039C168.175 32.8898 167.353 32.7718 166.579 32.7272C165.162 32.6293 163.851 32.7072 162.729 32.9544C162.442 33.0323 162.181 33.1102 161.914 33.177C161.667 33.2683 161.42 33.3729 161.19 33.4642L161.021 33.5355C160.876 33.5934 160.896 33.6001 160.825 33.6334C160.734 33.6847 160.636 33.7448 160.545 33.796C160.335 33.9585 160.108 34.1033 159.963 34.2791C158.191 36.0715 160.257 37.3317 161.126 38.8258C161.4 39.4047 161.515 40.1617 161.504 41.1792C161.504 41.4197 161.484 41.7002 161.484 41.9808L161.478 42.1901C161.478 42.1901 161.464 42.3214 161.457 42.3727C161.451 42.5218 161.444 42.6732 161.424 42.8291C161.424 42.8425 161.424 42.8692 161.424 42.887C160.93 42.2947 160.402 41.727 159.828 41.1926C159.71 41.0946 159.585 41.0167 159.456 40.9566C159.111 40.5469 158.543 40.3643 157.968 40.7874C155.795 42.3994 153.598 44.0292 151.897 46.1489C151.877 46.1622 151.863 46.1689 151.837 46.1756C151.336 46.4762 151.068 47.1531 151.275 47.7075C150.879 47.6028 150.494 47.5049 150.102 47.4091C149.105 47.1664 148.08 46.9504 147.063 47.0039C146.562 46.9905 146.065 47.1219 145.609 47.2199C145.172 47.3757 144.741 47.5182 144.375 47.7342C143.638 48.1461 143.039 48.5892 142.576 49.1102C142.151 49.5666 141.833 50.1077 141.677 50.6688C141.552 50.5641 141.427 50.4729 141.312 50.3882C140.944 50.1344 140.568 49.9051 140.183 49.698C140.359 49.56 140.535 49.4241 140.724 49.2995C141.272 48.8764 141.826 48.4712 142.334 48.0548C143.371 47.2377 144.344 46.4495 145.264 45.6858C147.103 44.1539 148.766 42.7712 150.253 41.5243C153.233 39.0128 155.521 37.0312 157.276 35.5104C160.761 32.4534 162.07 31.3446 161.992 31.2065C161.901 31.0373 160.315 31.9435 156.697 34.8202C154.871 36.2474 152.522 38.16 149.51 40.6181C148.002 41.845 146.333 43.2076 144.48 44.7217C143.547 45.4653 142.576 46.2469 141.552 47.0551C141.036 47.4536 140.501 47.8589 139.96 48.2752C139.615 48.5358 139.243 48.8029 138.891 49.0323C138.101 48.6805 137.286 48.3599 136.458 48.0793C143.084 43.1163 148.746 39.0462 153.337 35.6485C158.111 32.1394 161.816 29.3807 164.621 27.2611C167.438 25.1347 169.331 23.5628 170.537 22.5853C171.724 21.5923 172.201 21.1291 172.14 21.0579C172.083 20.9933 171.488 21.3384 170.203 22.2135C168.905 23.0729 166.975 24.509 164.087 26.5308C161.217 28.5591 157.459 31.2399 152.647 34.7022C147.853 38.1667 142.002 42.3214 134.97 47.6162C133.628 47.2243 132.265 46.8926 130.894 46.5742C130.535 46.4829 130.15 46.3916 129.78 46.2936C131.802 44.8642 133.868 43.5394 135.799 42.2613C138.101 40.7629 140.305 39.3334 142.407 37.9708C146.613 35.2566 150.409 32.8052 153.834 30.5942C160.663 26.1589 165.964 22.6566 169.976 19.9179C173.986 17.177 176.7 15.2266 178.37 13.8706C178.787 13.5322 179.139 13.2449 179.439 13.0022C179.733 12.735 179.956 12.5013 180.132 12.3254C180.483 11.9669 180.633 11.791 180.595 11.7576C180.561 11.7242 180.359 11.8489 179.962 12.1361C179.76 12.292 179.517 12.4745 179.212 12.7039C178.891 12.9176 178.513 13.1804 178.076 13.472C176.329 14.6922 173.543 16.538 169.48 19.1676C165.39 21.7882 160.048 25.2126 153.201 29.6078C149.764 31.801 145.947 34.2324 141.728 36.9265C139.628 38.2825 137.417 39.7052 135.108 41.2059C132.877 42.6666 130.562 44.1405 128.168 45.8884ZM125.866 74.9716C125.819 74.9449 125.781 74.9248 125.741 74.9048C126.975 74.7957 128.24 74.8603 129.453 75.0874C130.582 75.29 131.684 75.6551 132.766 76.0604C132.192 76.6794 131.593 77.4497 131.005 78.3292C130.849 78.5452 130.693 78.7679 130.548 78.9816C130.444 78.799 130.315 78.6432 130.177 78.4873C129.994 78.258 129.805 78.0309 129.622 77.8149C129.206 77.4297 128.814 77.02 128.391 76.686C127.556 76.0136 126.714 75.4525 125.866 74.9716ZM108.348 82.4906C108.287 82.2034 108.307 81.865 108.368 81.5199C108.477 80.8074 108.733 80.0526 108.987 79.3089C109.815 76.7907 108.875 72.2908 112.516 72.1728C116.265 72.0548 121.587 75.0228 124.626 76.9933C125.363 77.4698 126.093 77.9975 126.772 78.5964C127.111 78.8836 127.398 79.2243 127.719 79.536C128.317 80.1305 129.622 82.7267 129.426 83.5149C129.493 84.2652 129.408 85.0089 129.159 85.6924C129.061 85.9797 128.919 86.2602 128.749 86.5207C128.696 86.4962 128.638 86.4895 128.591 86.4962C128.311 86.5163 128.09 86.8992 127.921 87.5382C127.144 88.2641 126.127 88.8252 124.98 89.0924C124.007 89.3328 122.918 89.3729 121.985 89.2816C121.705 89.2349 121.386 89.2082 121.15 89.1503C120.934 89.0924 120.727 89.0322 120.505 88.981C120.035 88.8118 119.545 88.6537 119.077 88.4266C118.104 87.9969 117.145 87.4803 116.14 86.9794L115.372 86.6142L114.994 86.4294L114.551 86.2602C114.041 86.0843 113.551 85.895 113.05 85.7125C112.097 85.3607 111.191 85.0089 110.403 84.6036C109.984 84.4077 109.652 84.1873 109.325 83.9713L108.946 83.6395L108.895 83.6061C108.895 83.5928 108.791 83.4703 108.791 83.4703C108.726 83.3857 108.635 83.2744 108.588 83.2076C108.53 83.0517 108.361 82.7912 108.348 82.4906ZM101.407 87.8923C101.982 87.4291 102.719 86.8925 103.592 86.425C104.936 85.6924 106.248 85.2961 107.016 85.1002L107.07 85.1581L107.076 85.1714L107.161 85.256C107.368 85.4653 107.591 85.6924 107.82 85.895C107.911 85.9685 108.014 86.0331 108.118 86.0977C107.134 86.828 105.738 88.4979 104.433 90.5908C104.427 90.6042 104.42 90.6242 104.402 90.6309C104.362 90.5797 104.317 90.5129 104.277 90.4617L103.97 90.1411C103.169 89.2749 102.294 88.538 101.407 87.8923ZM99.6017 45.4319C99.6017 44.8909 99.7842 44.3231 100.089 43.7487C100.214 43.7687 100.352 43.7887 100.481 43.8088C101.401 43.9001 102.314 43.978 103.22 44.0292C104.095 44.0871 104.994 44.1539 105.914 44.2452C107.702 44.499 109.514 44.7528 111.353 45.02C118.02 46.1956 124.372 47.8322 130.295 49.1681C133.256 49.8138 136.021 50.4216 138.35 51.477C138.923 51.7442 139.47 52.0248 139.96 52.3587C140.214 52.528 140.457 52.6838 140.639 52.8486C140.835 52.9844 141.082 53.2204 141.312 53.4475L141.396 53.5321L141.403 53.5522L141.512 53.7013L141.721 54.0019C141.748 54.042 141.779 54.0932 141.806 54.14C141.343 54.3804 140.866 54.5831 140.39 54.7322C139.562 54.9794 138.747 55.1442 137.905 55.162C136.242 55.2288 134.585 54.8881 132.969 54.4717C131.319 54.042 129.754 53.6234 128.266 53.2249C126.786 52.8352 125.383 52.4433 124.06 52.0849C121.397 51.3991 119.037 50.6243 116.944 50.0431C114.842 49.4308 112.997 48.9143 111.407 48.4779C110.603 48.2619 109.866 48.0593 109.189 47.8834C108.497 47.7342 107.871 47.5917 107.297 47.4603C106.157 47.2199 105.224 47.0373 104.505 46.9193C103.057 46.6833 102.412 46.6833 102.374 46.8547C102.327 47.0239 102.901 47.349 104.257 47.8834C104.936 48.1461 105.816 48.4578 106.905 48.8297C107.455 49.0056 108.06 49.2148 108.726 49.4308C109.385 49.6713 110.102 49.9251 110.877 50.1923C112.438 50.7289 114.25 51.3412 116.312 52.0515C118.398 52.7306 120.714 53.5789 123.415 54.3337C124.307 54.6031 125.254 54.877 126.231 55.162C126.009 56.2129 125.879 57.2883 125.728 58.3526C125.474 58.288 125.227 58.2146 124.953 58.15C121.745 57.3017 117.537 56.1995 112.333 54.3337C111.042 53.8528 109.69 53.3362 108.301 52.7105C106.905 52.1049 105.478 51.3991 104.081 50.5508C102.692 49.7047 101.296 48.6738 100.352 47.4091C99.9267 46.7679 99.6328 46.0977 99.6017 45.4319ZM98.8112 85.9084C98.0364 84.8642 97.2081 83.8466 96.2752 82.9159C98.2969 81.6178 100.637 80.7695 102.634 79.438C103.507 80.4489 104.487 81.4598 105.048 82.6665C104.433 83.0985 103.581 83.6596 102.432 84.2786C100.71 85.2182 99.4569 85.688 98.8112 85.9084ZM81.8805 82.1322C81.698 82.1188 81.502 82.0988 81.2994 82.0743C90.8869 77.2738 102.124 71.6318 115.234 65.0256C116.664 65.4753 118.131 66.0097 119.565 66.7267C120.89 67.4124 122.194 68.2541 123.27 69.3807C124.071 70.229 124.731 71.2399 125.18 72.4021C125.122 72.4066 125.071 72.4066 125.011 72.4133C123.987 72.538 122.983 72.8052 121.992 73.1703C121.653 73.0345 121.313 72.9165 120.988 72.7985C118.483 71.9457 110.369 68.9376 108.51 72.0615C108.328 72.3754 108.256 72.6938 108.196 73.0078C108.1 73.6267 108.1 74.2079 108.054 74.8202C108.034 75.1341 108.02 75.4013 107.982 75.7464L107.956 76.0025V76.067L107.942 76.0982L107.922 76.1962C107.898 76.3409 107.878 76.4767 107.824 76.6281C107.675 77.2271 107.408 77.8728 107.094 78.5964C106.887 79.0796 106.671 79.5961 106.475 80.1817C105.725 79.1263 104.825 78.16 104.01 77.1358C103.763 76.8241 103.456 76.6927 103.169 76.7061C102.77 76.5613 102.314 76.5947 101.897 76.9265C99.3924 78.9816 96.2551 79.85 93.7369 81.8984C93.2159 82.3214 93.2426 83.2677 93.7102 83.6908C93.9974 83.9446 94.2602 84.2185 94.5273 84.4923C93.8349 84.2585 93.1447 84.0359 92.4856 83.86C88.9432 82.8892 86.0086 82.524 83.9869 82.3793C83.5304 82.3481 83.1319 82.3281 82.7801 82.3214C82.5129 82.2435 82.219 82.1589 81.8805 82.1322ZM79.1085 83.9446C79.0751 83.6908 79.0751 83.6974 79.1152 83.6128C79.173 83.5215 79.4402 83.4102 79.6763 83.3456C79.9301 83.2677 80.1973 83.2143 80.4645 83.1831C80.9142 83.1052 81.4753 83.0785 81.8805 83.0317C81.9317 83.0183 81.9651 83.0183 82.0097 83.0183C82.4795 83.1497 83.094 83.2989 83.811 83.4703C85.7547 83.9513 88.5646 84.6103 91.8778 85.7793C93.5276 86.3715 95.3022 87.1085 97.0701 88.0815C98.838 89.0456 100.626 90.2858 102.026 91.9023L102.314 92.2407C102.398 92.3454 102.452 92.4433 102.516 92.5413L102.861 93.0579C101.766 94.995 101.283 96.5268 101.739 96.8474C102.08 97.0879 102.844 96.6382 103.814 95.7319C103.912 96.3643 103.932 97.01 103.794 97.6356C103.554 98.927 102.823 100.094 101.753 100.949C101.407 100.083 101.036 99.5527 100.684 99.6061C100.247 99.6574 99.9267 100.584 99.8421 102.02C99.7575 102.051 99.6796 102.091 99.5883 102.115C97.4931 102.768 95.0617 102.469 92.9799 101.83C92.4188 101.706 91.9245 101.476 91.4035 101.263C90.9203 101.067 90.3125 100.786 89.8249 100.55C88.794 100.043 87.7965 99.5215 86.8702 98.9604C85.0378 97.865 83.3478 96.5535 82.6376 95.1709C81.9184 93.7548 82.1277 91.7464 81.5332 89.7692L81.5532 89.8539C81.2727 88.7717 80.883 87.8255 80.4778 87.0306C80.0726 86.2023 79.7007 85.5098 79.4091 84.8196C79.2577 84.4923 79.1397 84.1739 79.1085 83.9446ZM70.4071 26.8892C70.0954 26.6488 69.8082 26.3927 69.5343 26.1322C70.3158 25.845 71.0862 25.5578 71.8098 25.2906C72.892 24.8675 73.8894 24.4178 74.8624 24.0125C76.7929 23.1976 78.494 22.4406 80.0414 21.8016C83.1051 20.5881 85.6167 19.5772 87.4825 18.7757C89.0612 18.1233 90.2078 17.609 90.9983 17.2037C91.6506 17.0078 92.3609 16.8319 93.1179 16.7273C93.7837 16.6694 94.4739 16.6426 95.153 16.8119C95.9946 17.0657 96.0459 17.1503 96.0793 17.2683L95.9946 17.373C95.9412 17.413 95.9813 17.373 95.8187 17.5221C95.6473 17.6936 95.4781 17.8561 95.3089 18.0253C95.1129 18.1812 94.9103 18.3504 94.7099 18.5152C93.9195 19.1809 92.9688 19.8266 91.9624 20.5102C90.9448 21.2026 89.8494 21.8795 88.6893 22.7412C87.5671 23.5895 86.4138 24.4756 85.2137 25.4086C82.8914 27.2477 80.3398 29.2048 77.3918 30.8814C76.9287 30.6387 76.4722 30.405 76.0225 30.1756C74.9337 29.6078 73.8895 29.0735 72.8986 28.5725L72.5268 28.3832L72.2396 28.1873C72.2017 28.1606 72.155 28.1339 72.1171 28.1161C75.0584 26.5886 77.5365 25.3106 79.5961 24.2485C80.7517 23.6874 81.7692 23.1909 82.6754 22.7478C83.5883 22.3159 84.3587 21.8862 85.069 21.619C87.8611 20.4189 88.9053 19.8511 88.8385 19.6819C88.7806 19.5193 87.6518 19.7865 84.7238 20.784C83.9869 21.0134 83.1853 21.3963 82.2457 21.7949C81.3195 22.2001 80.2485 22.6499 79.0818 23.1976C76.8374 24.2797 74.1255 25.6379 70.9036 27.2989C70.7411 27.1631 70.5697 27.0206 70.4071 26.8892ZM51.4659 28.6883L51.4725 28.6705H51.4792C51.5393 28.6705 51.5059 28.6771 51.4659 28.6883ZM48.9699 32.2886C48.9699 32.0214 48.9098 31.8255 48.9743 31.3245C49.0278 30.6387 49.2482 29.7259 49.6468 29.2427C49.7648 29.1514 49.8293 28.9889 49.9674 28.9577C50.0186 28.9243 50.072 28.8842 50.1166 28.8397C50.1878 28.8263 50.2546 28.8063 50.3125 28.7862C50.4439 28.7016 50.5463 28.7751 50.6576 28.7217C50.671 28.7217 50.6777 28.715 50.7044 28.715L50.809 28.7217L51.0161 28.7417L51.3434 28.7284L51.3568 28.7484L51.4013 28.7751L51.5059 28.8063L51.7085 28.8664L52.1116 28.9755C52.3854 29.0423 52.666 29.1202 52.9398 29.1848C53.5009 29.3273 54.0687 29.4653 54.6498 29.6145C55.8299 29.9685 57.0834 30.3849 58.3481 30.7701C68.4433 33.934 76.9109 35.909 77.1447 35.1586C77.374 34.4016 69.3829 31.2332 59.1764 28.0426C58.7645 27.9201 58.3548 27.7888 57.9496 27.6663C56.4177 23.6207 55.752 19.408 54.5385 15.2733C53.3183 11.0919 51.7998 7.01504 50.9649 2.71779C51.7085 2.90705 52.4055 3.28557 53.02 3.7999C54.5051 5.05345 55.6139 6.80129 56.5736 8.45784C57.5265 10.1389 58.3147 11.8155 59.1296 13.4008C59.998 15.0306 60.8196 16.3755 61.6033 17.7247C61.9997 18.3972 62.3915 19.0295 62.75 19.6552C63.1619 20.2563 63.5404 20.8486 63.9123 21.403C65.177 23.2421 66.3637 24.7362 67.4792 25.9897C68.0336 26.6599 68.5947 27.4169 69.3896 28.1161C69.7748 28.4879 70.1667 28.8709 70.5897 29.1581C70.8057 29.3162 71.0194 29.472 71.2354 29.6412L71.4046 29.7593L71.4825 29.8171L71.5226 29.8572L71.5493 29.8706L71.6139 29.9151L71.9791 30.1311C72.9454 30.6989 73.9696 31.2978 75.045 31.9368C76.1205 32.5692 77.2026 33.197 78.4227 33.8806C79.0306 34.219 79.6429 34.5597 80.2685 34.9115C80.8942 35.2321 81.5332 35.5572 82.1856 35.8823C84.8084 37.1625 87.5159 38.7345 90.4372 40.1951C91.1742 40.5602 91.9245 40.9321 92.6682 41.3039C93.0467 41.4932 93.4185 41.6891 93.797 41.8717L94.3693 42.1567L94.6632 42.2947C94.8391 42.386 94.8992 42.3994 95.0216 42.4439C95.8187 42.7912 96.6604 43.0651 97.5065 43.2855C97.2326 43.9713 97.0567 44.7083 97.0634 45.4898C97.0701 45.7192 97.1101 45.9329 97.148 46.1422C93.0133 44.401 89.4775 42.8358 86.4138 41.6891C82.7289 40.2797 79.7675 39.3668 77.4586 38.8503C76.303 38.6165 75.3189 38.4139 74.504 38.2825C73.6623 38.2112 72.9832 38.1667 72.4622 38.16C71.418 38.1333 70.9682 38.2179 70.9415 38.3938C70.9237 38.5697 71.3334 38.8124 72.3108 39.1308C72.7873 39.2933 73.4152 39.4759 74.1967 39.6785C74.9671 39.9279 75.8867 40.2329 76.9754 40.5847C79.1463 41.2972 81.9651 42.3593 85.5321 43.86C89.1191 45.3407 93.4118 47.3757 98.7912 49.5867L98.8246 49.5288C100.045 50.9159 101.454 51.8555 102.79 52.6771C104.335 53.6101 105.863 54.327 107.337 54.9482C108.797 55.5739 110.213 56.0882 111.556 56.5447C116.951 58.3459 121.255 59.2655 124.555 59.9112C125.18 60.0225 125.755 60.1205 126.316 60.2118C126.4 60.2563 126.465 60.3097 126.556 60.3409C126.734 60.381 126.935 60.381 127.131 60.3476C129.017 60.6482 130.457 60.7974 131.508 60.8642C132.441 61.2026 133.712 61.6924 135.376 62.5074C136.413 63.0017 137.587 63.6295 138.936 64.3598C140.305 65.1102 141.87 65.8917 143.632 66.7801C146.972 68.4411 151.028 70.4383 155.907 72.7784C155.386 73.9741 154.994 75.3167 154.805 76.8308C154.687 77.9195 154.682 79.1263 155 80.411C155.098 80.8141 155.268 81.246 155.484 81.6691C155.412 81.649 155.346 81.6245 155.268 81.6178C155.034 81.5778 154.791 81.5199 154.557 81.4598C154.074 81.3507 153.584 81.2393 153.097 81.1213C152.594 81.0167 152.11 80.8141 151.609 80.6649C149.588 80.0526 147.604 79.0729 145.4 78.0309C144.807 77.7815 144.199 77.5143 143.594 77.2605C142.979 77.0579 142.367 76.8552 141.741 76.6526C140.508 76.2563 139.243 75.9156 138.063 75.4726C135.643 74.6242 133.073 73.197 129.903 72.6025C129.23 72.4801 128.547 72.3888 127.854 72.3487C127.293 70.5296 126.322 68.8931 125.102 67.6396C123.746 66.2257 122.188 65.2527 120.674 64.5023C119.162 63.7386 117.661 63.231 116.245 62.8013C114.831 62.3626 113.473 62.0442 112.208 61.7303C110.957 61.4297 109.761 61.1514 108.648 60.882C107.539 60.6014 106.508 60.3097 105.518 60.0359C103.54 59.4882 101.779 59.0629 100.247 58.7311C97.1614 58.0921 94.9304 58.0854 93.5543 58.1834C93.4697 58.1901 93.3985 58.2012 93.3272 58.2079C93.1692 58.13 93.0266 58.0587 92.8775 57.9741C92.4656 57.7581 92.0536 57.4976 91.644 57.2571C90.8023 56.7539 89.9407 56.2196 89.0545 55.6585C88.1616 55.0974 87.2354 54.5229 86.2891 53.9374C85.3295 53.3629 84.3119 52.8352 83.2877 52.2541C82.259 51.6796 81.1948 51.0985 80.1127 50.4996C79.0172 49.9385 77.9017 49.3573 76.7461 48.7651C74.4572 47.5783 72.0637 46.3381 69.5521 45.0401C68.9265 44.715 68.3008 44.381 67.6551 44.0426C67.0428 43.6908 66.4149 43.3256 65.7826 42.9538C65.1302 42.582 64.4533 42.1834 63.7876 41.8049C64.3865 41.5778 65.0211 41.3217 65.7113 40.892C65.9986 40.6894 66.2991 40.5001 66.6309 40.0637C66.7155 39.939 66.7868 39.8678 66.8602 39.7052C66.9382 39.5494 66.996 39.3802 67.0495 39.2087C67.094 39.0128 67.1074 38.7078 67.074 38.4539C67.0228 38.1199 66.996 38.1533 66.9827 38.0821L66.9582 37.9908V37.9841L66.9448 37.9708V37.9641C66.9382 37.944 66.9315 37.9307 66.9315 37.9307C66.9181 37.8862 66.878 37.8082 66.8135 37.6568L66.7623 37.5989L66.5864 37.3451C66.455 37.1692 66.3169 37.0312 66.1945 36.9065C65.934 36.6326 65.6712 36.4701 65.3974 36.2741C64.3487 35.6017 63.3445 35.2254 62.3648 34.8981C61.374 34.5731 60.4099 34.317 59.4837 34.0899C57.8316 33.7314 55.9212 32.8631 53.757 32.9811C53.2137 33.0523 52.6927 33.1102 52.1116 33.3195L51.7019 33.4642L51.4146 33.6067L51.1341 33.7515L50.9983 33.8227L50.9315 33.8539L50.9003 33.8739L50.7422 33.9585L50.7289 33.9652C50.5997 34.0498 50.4817 34.1233 50.3459 34.2079C50.3325 34.1945 50.3259 34.1879 50.2991 34.1678C49.9473 33.8361 49.5176 33.4509 49.2438 33.0078C49.1903 32.8898 49.1124 32.7918 49.0723 32.6671C49.0478 32.5447 49.0077 32.4133 48.9699 32.2886ZM47.7431 6.14891C47.723 5.57446 47.7876 5.03341 47.8922 4.53689C47.9969 4.04927 48.2329 3.57947 48.4266 3.27889C48.4467 3.25885 48.4667 3.23213 48.4867 3.21432C49.3217 7.57613 50.9649 11.6663 52.1004 15.9524C53.0512 19.5906 53.7681 23.2689 54.9638 26.8247C54.494 26.7334 54.0175 26.6354 53.5544 26.5308C53.2471 26.4706 52.9398 26.4061 52.6415 26.3482L52.1917 26.2502L52.0937 26.2368C51.8644 23.3401 51.3746 20.6148 50.7044 18.0654C50.3325 16.5781 49.8895 15.1753 49.4842 13.7793C49.0545 12.3833 48.6225 11.0785 48.3108 9.81381C47.9902 8.54245 47.7497 7.30226 47.7431 6.14891ZM23.9568 53.2137C24.126 53.0423 24.3398 52.853 24.5892 52.6838C25.3328 52.1361 26.2056 51.6418 27.074 51.1586C27.9602 50.6554 28.8085 50.2524 29.7859 49.6201C30.6031 49.0701 31.398 48.5224 32.1683 47.9947C32.9432 47.467 33.6935 46.9504 34.4238 46.4562C35.1675 45.9797 35.8778 45.5165 36.5702 45.0735C37.9663 44.1739 39.2577 43.3256 40.4377 42.5552C41.0834 42.1322 41.6957 41.727 42.2635 41.3484C42.4995 41.2371 42.7333 41.1213 43.0005 41.0033C43.9401 40.5536 45.0289 40.0704 46.229 39.3802C47.3779 38.7345 48.6426 38.0353 49.9919 37.2783C50.6376 36.9065 51.3033 36.528 51.9824 36.1383L52.0804 36.0982L52.2229 36.027L52.5101 35.9023L52.7906 35.7732L52.9866 35.7398C53.1291 35.7264 53.2204 35.6618 53.3918 35.6552L53.8728 35.6151C54.5385 35.6151 55.2888 35.7598 56.0971 35.9869C56.1238 35.9936 56.1505 36.0003 56.175 36.0136C54.7277 37.0712 53.1825 37.8394 51.7397 38.5319C49.9073 39.4113 48.1995 40.1684 46.6921 40.9633C45.1736 41.7849 43.9401 42.602 42.8313 43.2989C41.7225 44.0159 40.7517 44.6371 39.9101 45.1781C36.5702 47.369 35.3634 48.2886 35.4614 48.4445C35.5594 48.5892 36.9354 47.9301 40.3799 45.9463C41.2393 45.452 42.2368 44.8642 43.379 44.2051C44.5212 43.5282 45.7993 42.7445 47.2332 42.0075C48.7072 41.2705 50.4105 40.5335 52.283 39.654C53.964 38.8503 55.8566 37.9374 57.6379 36.4768L57.747 36.5102L58.0876 36.6014L58.7778 36.7974C59.6907 37.0312 60.5791 37.285 61.4519 37.5856C62.3203 37.8795 63.1753 38.238 63.8254 38.6476C63.8321 38.6543 63.8522 38.6744 63.8588 38.681C63.3044 38.9816 62.5474 39.2688 61.8037 39.5561C61.374 39.7186 60.7996 39.9658 60.4277 40.1617C60.0114 40.3643 59.5994 40.5803 59.1964 40.7807C58.3793 41.1792 57.5844 41.5711 56.814 41.9496C56.0459 42.3014 55.3022 42.7245 54.5786 43.0117C53.8149 43.3256 53.0712 43.6307 52.3609 43.9179C51.0762 44.4656 49.8828 44.8909 48.774 45.334C47.2154 45.6858 45.1914 46.3715 42.8313 47.3958C40.1906 48.5046 37.1892 50.0565 33.7982 51.3924C32.1015 52.0515 30.3158 52.6393 28.4233 52.9978C27.5037 53.1937 26.4661 53.3228 25.5599 53.3763C24.9343 53.4208 24.3353 53.3496 23.9568 53.2137ZM21.7703 121.429C21.3206 120.979 20.9042 120.502 20.4856 120.019C28.4099 115.194 36.8708 111.327 45.1914 107.25C49.1703 105.299 53.02 102.913 57.05 101.093C59.241 100.114 61.5633 99.3323 63.507 97.9563C64.3019 99.1163 65.1369 100.238 66.0253 101.321C64.4333 101.993 62.8613 102.652 61.3339 103.336C59.3256 104.191 57.364 105.201 55.5182 106.056C51.7865 107.824 48.2329 109.519 44.8597 111.124C43.163 111.919 41.5199 112.703 39.9234 113.464C38.298 114.183 36.7127 114.894 35.1742 115.579C32.0949 116.962 29.187 118.258 26.4416 119.491C25.0723 120.117 23.7475 120.678 22.4361 121.311C22.2535 121.409 22.0776 121.493 21.8884 121.584C21.855 121.533 21.8171 121.482 21.7703 121.429ZM1.95627 123.176C1.37514 122.128 2.101 120.763 2.94708 119.772C3.7954 118.761 4.7684 117.966 5.63453 117.267C6.51625 116.59 7.33784 116.029 8.07483 115.553C8.37541 115.35 8.65596 115.174 8.93428 115.005C9.76478 114.606 10.6843 114.17 11.7063 113.596C11.9223 113.464 12.1316 113.342 12.352 113.21L12.6727 113.014L12.7573 112.97L12.902 112.865L13.0645 112.754C13.4742 112.467 13.9173 112.162 14.3626 111.848C15.2488 111.235 16.2463 110.641 17.2838 110.009C18.3281 109.396 19.4302 108.755 20.6237 108.109C21.7637 107.484 23.0105 106.716 24.2685 105.985C24.9009 105.607 25.5399 105.228 26.1923 104.836C26.858 104.451 27.4725 104.001 28.1227 103.572C29.403 102.703 30.7255 101.804 32.0837 100.884C33.4063 99.9579 34.7645 99.0183 36.1583 98.0587C37.561 97.1146 39.0417 96.1817 40.5224 95.2087C40.8942 94.9682 41.2527 94.7322 41.6178 94.4984C42.0097 94.2713 42.3882 94.042 42.7801 93.8127C43.5482 93.3562 44.3253 92.8931 45.1135 92.4255C46.6788 91.4926 48.2641 90.5396 49.8761 89.5867C62.868 82.0142 74.6932 75.2766 83.094 70.0131C84.8552 68.8664 86.4383 67.7509 87.8143 66.6688C88.3687 66.2836 88.9365 65.9051 89.5176 65.5065C90.1633 65.0501 90.7756 64.5023 91.448 63.968C91.7731 63.7075 92.1138 63.4269 92.4522 63.1464C92.7661 62.8458 93.0845 62.5207 93.4118 62.2001C93.797 61.8149 94.1867 61.4186 94.5852 61.02C95.0996 61.0067 95.6228 61.0067 96.1238 61.0267C96.5624 61.0334 96.8296 61.0401 97.2393 61.0534C97.6579 61.0601 98.0431 61.118 98.4327 61.1447C98.7845 61.1759 99.1452 61.2026 99.477 61.2471C89.8427 67.5282 83.4903 71.7498 79.5449 74.4372C75.4369 77.2538 73.9429 78.4205 74.0409 78.5652C74.1455 78.7077 75.8199 77.8015 80.0659 75.1787C84.2741 72.578 91.025 68.2652 101.272 61.5945C101.381 61.619 101.492 61.6457 101.597 61.659C101.935 61.7436 102.256 61.8216 102.567 61.9062C103.52 62.1622 104.375 62.396 105.197 62.6187C103.057 63.8834 100.918 65.0835 98.8758 66.2435C96.411 67.6262 94.0575 68.951 91.8132 70.2157C87.3133 72.7272 83.2565 75.0028 79.5961 77.0512C72.2863 81.1547 66.5864 84.3498 62.2357 86.7968C57.8917 89.2482 54.9036 90.956 53.0133 92.0782C51.1274 93.187 50.3259 93.7102 50.3637 93.7882C50.4105 93.8661 51.2766 93.4876 53.2471 92.5101C55.2109 91.5304 58.2702 89.9385 62.6654 87.5783C67.0673 85.2293 72.8207 82.1055 80.1639 78.0754C83.8377 76.047 87.9123 73.796 92.4188 71.3C94.6698 70.0465 97.0322 68.7283 99.497 67.3456C101.864 66.0097 104.322 64.6404 106.918 63.0751C107.577 63.2243 108.185 63.3668 108.733 63.4536C109.287 63.5382 109.781 63.5961 110.22 63.6295C110.683 63.7453 111.151 63.8767 111.634 64.0014C112.222 64.1639 112.834 64.3264 113.453 64.5023C82.3681 80.1617 61.9418 90.4995 49.315 97.0478C42.8825 100.368 38.4739 102.723 35.6707 104.248C34.268 105.032 33.2838 105.607 32.6426 105.99C32.0103 106.382 31.7297 106.571 31.7564 106.618C31.7831 106.649 32.1149 106.526 32.7806 106.212C33.4597 105.898 34.4839 105.397 35.9045 104.687C38.7545 103.278 43.2365 101.06 49.718 97.8449C56.5936 94.4205 65.7314 89.8739 77.5677 83.9446C77.5677 83.9913 77.5633 84.0359 77.5633 84.0893C77.5944 84.5792 77.7124 84.9822 77.8438 85.4007C78.3381 86.9727 79.1998 88.5825 79.5004 90.2524L79.5115 90.337C79.6829 91.0473 79.7208 91.909 79.7854 92.882C79.8121 93.3829 79.8588 93.8995 79.9501 94.4472C79.9635 94.5051 79.9746 94.563 79.988 94.6231C76.2318 96.9321 72.2997 98.6732 68.47 100.296C67.2899 98.8825 66.1678 97.413 65.1569 95.8678C65.0011 94.9883 63.8455 94.2825 62.9972 95.1041C60.5123 97.5444 56.5869 98.4572 53.5544 100.094C49.4775 102.311 45.3295 104.393 41.1547 106.422C33.3551 110.218 25.4954 113.883 18.1188 118.481C17.6156 118.795 17.4664 119.275 17.5444 119.727C17.4263 120.104 17.4998 120.536 17.8583 120.901C18.4439 121.493 18.9805 122.132 19.5416 122.753C19.2788 122.876 19.005 123.014 18.7511 123.139C16.3977 124.292 14.16 125.252 12.0136 125.728C9.87389 126.229 7.85218 126.151 6.07761 125.623C5.16473 125.329 4.31196 125.016 3.57497 124.613C2.8558 124.207 2.25685 123.704 1.95627 123.176ZM0.495652 120.894C0.130498 121.709 0.0191702 122.889 0.509011 123.9C1.01666 124.893 1.8583 125.557 2.71998 126.093C3.5861 126.608 4.53907 126.986 5.5232 127.331C7.58499 128.03 10.0186 128.159 12.4188 127.652C14.8391 127.175 17.2193 126.178 19.6573 125.042C20.8575 124.474 22.091 123.887 23.369 123.281C24.6203 122.7 25.9919 122.132 27.3612 121.533C30.1199 120.333 33.0478 119.062 36.1338 117.717C37.6791 117.047 39.2577 116.354 40.8942 115.651C42.5062 114.894 44.1739 114.117 45.8705 113.322C49.2816 111.73 52.8552 110.046 56.6203 108.292C58.5374 107.419 60.3431 106.48 62.347 105.638C64.3086 104.758 66.3637 103.923 68.47 103.048C72.4889 101.354 76.7394 99.546 80.9075 97.0367C81.4041 97.8115 82.003 98.4706 82.6376 99.0695C83.5037 99.8733 84.47 100.57 85.4675 101.209C86.4717 101.855 87.5226 102.449 88.6047 103.004C89.1792 103.291 89.649 103.532 90.2813 103.792C90.8869 104.059 91.4881 104.34 92.1338 104.505C92.7728 104.698 93.3918 104.914 94.1221 105.026C96.2485 105.333 97.8137 105.54 99.9668 104.972C100.005 105.299 100.045 105.625 100.103 105.958C100.67 109.278 101.454 111.868 102.276 111.868C103.031 111.861 103.507 108.906 102.921 105.502C102.823 104.934 102.712 104.387 102.601 103.852C103.287 103.427 103.919 102.919 104.46 102.318C105.549 101.151 106.279 99.664 106.54 98.1322C106.84 96.5914 106.6 95.0528 106.13 93.6969C106.083 93.5588 106.039 93.423 105.985 93.2983C106.248 92.9599 106.508 92.6014 106.769 92.2296C108.125 90.0765 109.038 88.0548 109.28 86.8547C110.207 87.3623 111.151 87.7809 112.104 88.1661C112.58 88.3554 113.07 88.5513 113.564 88.7584L113.865 88.8831L114.203 89.0523L114.896 89.4041C115.829 89.9006 116.813 90.4617 117.915 90.9694C118.456 91.2299 119.051 91.4592 119.663 91.6752L120.7 91.9557C121.026 92.0203 121.288 92.047 121.587 92.0982C122.983 92.2474 124.294 92.1895 125.663 91.8577C126.289 91.713 126.91 91.4926 127.489 91.2187C127.476 91.7731 127.471 92.3587 127.496 92.9844C127.587 94.7857 127.868 96.4422 128.344 97.6156C128.807 98.7845 129.402 99.4102 129.754 99.2855C130.145 99.1497 130.261 98.3927 130.339 97.2772C130.386 96.155 130.444 94.5964 130.346 92.8552C130.295 91.6217 130.177 90.4617 130.001 89.4642C130.796 88.6604 131.43 87.6963 131.795 86.632C132.258 85.3028 132.31 83.9001 132.063 82.6421C132.016 82.3481 131.918 82.0476 131.833 81.7603C132.343 81.2326 132.871 80.6137 133.385 79.9079C134.084 78.8525 134.619 77.8216 134.957 76.9399C135.701 77.2471 136.444 77.541 137.208 77.8149C139.835 78.7612 142.347 79.2354 144.351 80.2218C146.542 81.2326 148.726 82.2769 150.899 82.8959C151.447 83.0517 151.961 83.261 152.502 83.3657C153.05 83.477 153.584 83.5928 154.114 83.7041C154.375 83.762 154.635 83.8288 154.896 83.8667C155.176 83.9001 155.444 83.9268 155.717 83.9579C155.991 83.9847 156.247 84.0114 156.521 84.0359C156.788 84.0359 157.062 84.0314 157.329 84.0314C159.476 84.0047 161.484 83.3189 163.076 82.3726C163.472 82.1322 163.871 81.8984 164.216 81.6245C164.561 81.3618 164.933 81.128 165.247 80.8408C165.568 80.5669 165.879 80.2997 166.187 80.0392C166.505 79.7386 166.812 79.438 167.1 79.0796C167.38 78.7144 167.614 78.298 167.796 77.8594C167.948 77.423 168.032 77 168.077 76.5947C168.117 76.1962 168.144 75.8244 168.144 75.4792C168.144 75.1141 168.11 74.7356 168.077 74.3704C168.032 73.8561 167.914 73.3662 167.765 72.8898C168.364 72.3888 168.476 70.1711 167.986 67.5817C167.719 66.0676 167.302 64.7384 166.846 63.8433C167.583 63.0284 168.15 62.0309 168.431 60.9799C168.729 59.86 168.698 58.7178 168.522 57.7002C168.462 57.2304 168.293 56.7339 168.13 56.2641C168.182 56.2196 168.228 56.1862 168.273 56.1483C168.807 55.7565 169.442 55.0974 170.092 54.2424C170.751 53.383 171.254 52.4233 171.437 51.6418C171.521 51.2833 171.751 50.6888 171.769 50.2123C172.492 50.3682 173.249 50.4862 174.053 50.5263C175.095 50.5641 176.204 50.4795 177.319 50.1144C177.84 49.9452 178.357 49.7114 178.854 49.4241C178.865 49.7425 178.871 50.0832 178.905 50.4216C179.205 53.708 180.412 55.9257 181.162 55.8032C181.964 55.6718 181.995 53.0178 181.748 50.1678C181.65 49.0256 181.494 47.9502 181.272 47.0685L181.474 46.7501L181.545 46.6588L181.552 46.632L181.599 46.5608L181.612 46.514L181.683 46.3448L181.833 46.0064C181.886 45.8817 181.893 45.7971 181.951 45.6412L182.022 45.1848C182.505 43.8934 182.454 42.386 183.046 41.1792C183.594 40.0771 184.807 39.4314 185.498 38.4272C185.994 37.6769 186.275 37.0824 186.548 36.4701C186.687 36.1695 186.802 35.8778 186.907 35.6017C186.998 35.3034 187.076 35.0161 187.136 34.749C187.363 33.6847 187.305 32.9811 186.94 32.8319C186.575 32.6805 185.987 33.079 185.348 33.8027C185.186 33.9786 185.03 34.1879 184.865 34.4016C184.669 34.6309 184.482 34.8781 184.28 35.1453C183.894 35.6552 183.469 36.3343 183.137 36.8486C182.661 37.5277 182.184 38.2446 181.801 38.9349C181.643 38.6677 181.474 38.4005 181.298 38.1667C179.871 36.2675 177.84 35.2766 175.937 34.749C175.362 34.5975 174.79 34.435 174.209 34.2858C175.298 33.4576 176.224 32.5447 177.092 31.6496C178.553 30.1177 179.766 28.6037 181.011 27.2076C183.293 24.4422 185.943 22.5385 188.323 20.5881C188.915 20.1116 189.51 19.5973 190.078 19.1141C190.585 18.5931 191.082 18.0654 191.572 17.5689C192.542 16.5714 193.351 15.5984 194.161 14.7055C194.956 13.8372 195.673 12.9644 196.383 12.2608C197.116 11.5283 197.688 10.8714 198.432 10.199C198.712 9.92514 198.966 9.61788 199.195 9.31061C199.338 9.21932 199.574 8.97217 199.848 8.49569C199.966 8.24855 200.088 7.94128 200.179 7.56945C200.442 6.89258 200.578 6.2068 200.538 5.54774C200.513 4.7729 200.206 4.11384 199.881 3.61064C199.54 3.12303 199.151 2.77568 198.797 2.52186C198.607 2.40385 198.445 2.29475 198.289 2.20346C198.12 2.12331 197.968 2.04538 197.833 1.98749C196.92 1.55108 195.348 1.61565 194.35 1.6535C191.538 1.69358 188.374 2.90705 185.132 4.77958C181.866 6.65656 178.31 8.94546 174.138 11.5817C173.093 12.2341 172.036 12.9377 170.916 13.6034C169.794 14.2424 168.631 14.9015 167.431 15.5806C165.051 16.9499 162.468 18.3905 159.723 19.9112C159.051 20.2875 158.354 20.6727 157.641 21.0646C156.964 21.4765 156.272 21.9129 155.575 22.356C154.166 23.2243 152.738 24.1305 151.258 25.0501C148.296 26.8759 145.257 28.8842 142.06 30.9727C138.845 33.039 135.511 35.3034 132.016 37.6435C131.136 38.2246 130.255 38.8258 129.355 39.4247C128.892 39.7387 128.493 39.9791 128.057 40.2463C127.601 40.5068 127.151 40.7629 126.661 41.03C125.031 41.9363 123.212 42.7579 121.529 44.2585C118.418 43.5149 115.176 42.7913 111.823 42.2034C109.913 41.9363 108.034 41.6757 106.168 41.413C105.255 41.3418 104.335 41.2705 103.402 41.2126C102.503 41.1592 101.623 41.1013 100.775 41.03C99.0717 40.8586 97.5065 40.5335 96.0659 39.9279C95.988 39.9012 95.8366 39.8478 95.8254 39.8433L95.5382 39.7052L94.9638 39.4247C94.5852 39.2488 94.2 39.0662 93.8215 38.8837C93.0645 38.5252 92.3164 38.1667 91.5727 37.8194C88.6181 36.4255 85.8839 34.9382 83.2231 33.7626C82.5708 33.4576 81.9184 33.1503 81.2794 32.8564C80.8697 32.6538 80.4711 32.4534 80.0726 32.2374C82.642 30.6454 84.8151 28.931 86.7589 27.359C87.9457 26.4194 89.0678 25.5333 90.1433 24.6916C91.1875 23.8945 92.283 23.1642 93.3005 22.4406C94.3247 21.7036 95.2888 21 96.1639 20.2229C96.3798 20.027 96.5936 19.8444 96.8096 19.6485C97.0122 19.4347 97.2081 19.2254 97.3974 19.0228C97.4753 18.9382 97.689 18.7423 97.8071 18.5731C97.9518 18.3972 98.0676 18.2012 98.1989 18.0253C98.4461 17.6535 98.6932 17.295 98.9426 16.9432L99.0339 16.8052C99.0406 16.7606 99.1452 16.7139 99.0606 16.6894L98.7912 16.5001C98.6153 16.3821 98.4394 16.2641 98.2702 16.1394C98.0943 16.0303 97.9251 15.899 97.7558 15.7943C97.5799 15.6964 97.4085 15.6051 97.2326 15.5205C96.4823 15.0707 96.0525 15.0128 95.5516 14.8881C94.5407 14.7055 93.6256 14.8102 92.8307 14.9527C91.2521 15.3 90.0854 15.8589 89.1391 16.3109C88.8919 16.4267 88.6626 16.5447 88.4533 16.656C87.9724 16.774 87.438 16.9165 86.8569 17.0857C84.9265 17.6669 82.4661 18.4617 79.1864 19.624C77.5744 20.2029 75.8265 20.9399 73.8961 21.717C72.9454 22.1021 71.9345 22.5319 70.8903 22.9371C69.924 23.2822 68.9198 23.6541 67.8778 24.0459C67.1007 22.9816 66.2791 21.7882 65.4174 20.4256C65.0857 19.8645 64.7339 19.29 64.3798 18.6911C64.0281 18.0654 63.6763 17.4264 63.3111 16.754C62.6008 15.4292 61.7592 13.9485 61.0222 12.4478C60.2652 10.8959 59.4948 9.16811 58.524 7.37351C57.5332 5.60118 56.4244 3.67076 54.5251 2.00752C53.5811 1.18593 52.3275 0.473431 50.907 0.259682C50.1878 0.121637 49.3996 0.155034 48.6025 0.375463C47.8143 0.584759 47.0506 1.12581 46.4962 1.79823C45.5121 3.20096 45.2783 4.69942 45.2827 6.16895C45.2827 7.62956 45.5521 9.03675 45.8906 10.415C46.2223 11.7977 46.6654 13.1603 47.0773 14.5163C47.4625 15.8656 47.9056 17.2616 48.2507 18.7044C48.9031 21.1492 49.3395 23.7253 49.5555 26.386C49.5109 26.4061 49.4575 26.4194 49.4197 26.4461C49.2304 26.5241 49.0478 26.6154 48.8652 26.7067C48.7072 26.8247 48.5446 26.9538 48.3954 27.0785C48.0615 27.3256 47.8856 27.6596 47.6651 27.9513C47.4826 28.2452 47.3779 28.5591 47.2532 28.8597C47.1619 29.1514 47.0974 29.4386 47.0328 29.7192C46.986 29.9997 46.9727 30.2669 46.946 30.5274L46.9281 30.7233L46.9215 30.8614L46.9281 30.9059V30.9861L46.9593 31.3178C46.9593 31.6897 47.0773 32.3153 47.2265 32.8185C47.3378 33.0523 47.4558 33.2817 47.5738 33.4887C47.703 33.6913 47.8655 33.8539 48.0169 34.0253C48.4667 34.4617 48.9098 34.7222 49.2883 34.9115C49.1057 35.0295 48.9031 35.1586 48.7272 35.2833C47.4291 36.145 46.229 36.9466 45.1269 37.6835C44.8018 37.9107 44.4678 38.1333 44.1494 38.356C43.7241 38.563 43.2744 38.7924 42.8046 39.0462C41.7937 39.5739 40.6671 40.1617 39.4002 40.8208C38.1622 41.4731 36.7929 42.2368 35.3167 43.0651C34.5864 43.4748 33.8316 43.9112 33.0478 44.3565C32.2841 44.813 31.516 45.3073 30.7189 45.8038C29.924 46.3003 29.1091 46.8213 28.2808 47.3423C27.615 47.7676 26.6487 48.2174 25.7492 48.6938C24.8229 49.1881 23.8789 49.7047 22.9126 50.3882C22.4361 50.74 21.9418 51.1052 21.4386 51.7442C21.2026 52.0782 20.9042 52.5213 20.8508 53.2649C20.8374 53.6501 20.8775 53.9886 21.1068 54.4138C21.1647 54.5163 21.2293 54.6209 21.2827 54.6988L21.3473 54.779L21.4965 54.9549L21.6145 55.0707C22.2936 55.7052 23.1018 55.9858 23.7809 56.1149C24.4712 56.2396 25.0968 56.2396 25.698 56.2129C26.8847 56.1283 27.9089 55.9791 28.9777 55.7431C31.0907 55.2933 33.0345 54.5897 34.8023 53.826C38.3381 52.2741 41.2393 50.5263 43.713 49.2015C44.1561 48.9677 44.5791 48.7384 44.9977 48.5157C46.1377 48.1973 47.4892 47.8188 49.0278 47.3958C50.2991 47.0172 51.7353 46.6387 53.1892 46.1355C53.9262 45.8884 54.6899 45.6279 55.4647 45.3674C56.293 45.0868 57.0434 44.7083 57.8716 44.3565C58.6932 44.0025 59.5148 43.6307 60.3364 43.2544C60.4945 43.1742 60.6637 43.0963 60.8263 43.025C62.0843 43.7487 63.3178 44.4656 64.5179 45.1581C65.1703 45.5433 65.816 45.9151 66.4483 46.2803C67.1007 46.612 67.733 46.946 68.3721 47.2777C70.897 48.5892 73.3172 49.8405 75.6061 50.9894C76.7528 51.5616 77.8817 52.1294 78.9704 52.6838C80.0481 53.2649 81.0901 53.826 82.101 54.3804C83.1185 54.9282 84.1294 55.4425 85.069 55.9969C86.0152 56.558 86.9348 57.1191 87.8277 57.6535C88.716 58.2012 89.6022 58.7244 90.4817 59.2321C90.9203 59.4882 91.3367 59.742 91.7931 59.9624L92.067 60.1071C92.067 60.1717 92.0536 60.2363 92.0425 60.3097C92.0225 60.3944 91.9958 60.4856 91.9624 60.5769C91.9312 60.6014 91.9111 60.6281 91.8778 60.6615C91.5794 60.9733 91.2989 61.2738 91.0116 61.5744C90.6977 61.8483 90.386 62.1088 90.0787 62.3693C89.4597 62.8859 88.8919 63.4202 88.2841 63.8767C87.6785 64.3264 87.084 64.7629 86.5118 65.1814C85.3762 66.0298 84.2273 66.72 83.1964 67.4124C81.8204 68.2652 80.5891 69.0289 79.4736 69.7214C71.1441 74.3125 60.2006 80.2663 48.4333 87.1219C46.8235 88.0927 45.2115 89.0523 43.6395 89.9986C42.8513 90.4751 42.0676 90.9449 41.2927 91.4124C40.9076 91.6485 40.5224 91.8822 40.1305 92.1116C39.752 92.3654 39.3801 92.6125 38.9972 92.8686C37.5165 93.8527 36.0603 94.8057 34.6598 95.7765C33.2638 96.7873 31.8945 97.7781 30.5697 98.7445C25.3328 102.645 20.4656 105.593 16.2084 108.299C15.1775 109.011 14.1867 109.677 13.2983 110.387C12.8619 110.732 12.4322 111.084 12.0002 111.411L11.8511 111.534L11.811 111.56C11.7932 111.581 11.7598 111.607 11.7598 111.607L11.4458 111.828C11.2388 111.979 11.0295 112.122 10.8335 112.26C9.2883 113.288 7.76089 114.117 6.61421 114.9C5.51875 115.597 4.74168 116.256 4.22735 116.791C3.46364 117.338 2.65541 117.991 1.87166 118.846C1.37069 119.4 0.860806 120.039 0.495652 120.894Z" fill="black"/>
</g>
<path d="M66.9434 37.9708L66.9572 37.9846C66.9572 37.9846 66.9572 37.9846 66.9434 37.9708Z" fill="black"/>
<path d="M92.7649 95.9078C88.7281 95.5293 85.4395 96.1951 85.4596 96.9566C85.4796 97.7737 88.6235 98.3793 92.4843 98.7512C96.2917 99.1497 99.6137 99.1297 99.7295 98.3392C99.8342 97.5778 96.8417 96.3443 92.7649 95.9078Z" fill="black"/>
<path d="M114.53 84.488C114.438 84.8643 115.071 85.3274 116.206 85.7727C117.346 86.267 118.958 86.4629 120.751 86.601C124.306 86.6856 127.099 86.0065 127.11 85.2294C127.11 84.4279 124.246 83.8289 120.849 83.751C119.168 83.6196 117.613 83.7443 116.498 83.7755C115.385 83.8601 114.614 84.1028 114.53 84.488Z" fill="black"/>
<path d="M134.76 69.9819C134.617 70.6588 134.956 71.3512 135.648 71.5471C136.28 71.7164 137.057 71.3379 137.213 70.6588C137.423 69.6368 137.552 68.6059 137.676 67.575C137.761 66.8825 137.037 66.3036 136.412 66.3036C135.661 66.3036 135.223 66.8825 135.138 67.575C135.04 68.3832 134.938 69.1848 134.76 69.9819Z" fill="black"/>
<path d="M138.891 71.574C138.786 72.2575 139.04 72.9233 139.777 73.1259C140.378 73.2951 141.237 72.9233 141.329 72.2375C141.44 71.4626 141.545 70.6856 141.754 69.9174C142.184 68.3321 139.743 67.6664 139.314 69.245C139.098 70.0087 139.002 70.7835 138.891 71.574Z" fill="black"/>
<path d="M142.967 73.7048C142.887 74.3839 143.599 74.9717 144.232 74.9717C144.982 74.9717 145.425 74.3839 145.496 73.7048C145.594 72.9166 145.621 72.1462 145.882 71.3959C146.109 70.7457 145.628 70.0087 144.996 69.8373C144.29 69.6414 143.657 70.0666 143.43 70.7257C143.096 71.6831 143.083 72.7006 142.967 73.7048Z" fill="black"/>
<path d="M147.558 75.3747C147.186 76.9666 149.638 77.6457 149.996 76.0471C150.212 75.1409 150.239 74.2079 150.422 73.2951C150.564 72.616 150.239 71.9391 149.533 71.7432C148.901 71.5606 148.113 71.9502 147.981 72.6293C147.792 73.5355 147.768 74.4685 147.558 75.3747Z" fill="black"/>
<path d="M151.882 74.3192C151.666 75.2588 151.53 76.2229 151.635 77.1959C151.706 77.8795 152.156 78.4606 152.9 78.4606C153.532 78.4606 154.242 77.8795 154.165 77.1959C154.093 76.4322 154.158 75.7219 154.34 74.9894C154.719 73.3996 152.274 72.7272 151.882 74.3192Z" fill="black"/>
<path d="M155.51 60.5236C155.456 60.9088 155.855 61.3207 156.612 61.619C157.373 61.8996 158.451 61.9975 159.54 61.8751C160.628 61.7437 161.528 61.4899 162.143 61.2027C162.819 60.9154 163.269 60.5703 163.258 60.1718C163.251 59.7799 162.826 59.4214 162.102 59.181C161.308 58.9583 160.277 58.9138 159.226 59.0362C158.19 59.1476 157.322 59.3569 156.67 59.5973C156.031 59.8267 155.561 60.1339 155.51 60.5236Z" fill="black"/>
</svg>
