<svg width="63" height="50" viewBox="0 0 63 50" fill="none" xmlns="http://www.w3.org/2000/svg">
<path d="M3.55366 6.34123H7.71114V8.37378H5.6324C5.39613 8.37118 5.16602 8.44737 4.97998 8.58979C4.79394 8.73221 4.66308 8.93236 4.60897 9.15725C4.55486 9.38213 4.58073 9.61834 4.68231 9.82692C4.7839 10.0355 4.95513 10.204 5.1678 10.3047L13.4828 14.3698C13.6275 14.4384 13.7865 14.4731 13.9474 14.4714H16.0261V25.6504C16.0261 25.9199 16.1356 26.1784 16.3305 26.369C16.5254 26.5596 16.7898 26.6667 17.0655 26.6667H27.4592V31.3141C25.9812 31.3141 24.6716 31.3446 23.6332 31.3761L19.5797 28.0326C19.4563 27.9311 19.3104 27.859 19.1536 27.8222L14.1022 26.626C13.9024 26.5787 13.6927 26.5904 13.4996 26.6596C13.3066 26.7288 13.1389 26.8524 13.0177 27.0148C12.8965 27.1773 12.8274 27.3712 12.8189 27.5721C12.8105 27.7729 12.8632 27.9717 12.9704 28.1433L15.2674 31.8233C15.3385 31.9372 15.432 32.0364 15.5424 32.115C15.6528 32.1937 15.7779 32.2503 15.9107 32.2816L19.9508 33.2389L19.7065 34.2267L11.6296 32.3131L11.1411 34.2887L19.2222 36.2024L18.9779 37.1912L14.9358 36.2339C14.668 36.1704 14.3853 36.2136 14.15 36.3538L10.3865 38.5998C10.2112 38.7045 10.0716 38.8576 9.98523 39.0399C9.8989 39.2222 9.86975 39.4253 9.90144 39.6238C9.93314 39.8222 10.0243 40.0071 10.1633 40.1549C10.3024 40.3027 10.4831 40.407 10.6827 40.4545L15.734 41.6506C15.814 41.6697 15.896 41.6793 15.9783 41.6791C16.0566 41.6793 16.1347 41.6707 16.2111 41.6537L21.3726 40.488C22.862 41.2939 25.0104 42.4189 27.4592 43.5866V44.9596C27.4581 45.1493 27.5114 45.3355 27.613 45.4972C27.7145 45.6588 27.8604 45.7894 28.0339 45.8743L34.2702 48.9231C34.4291 49.0007 34.6056 49.0372 34.7831 49.0292C34.9605 49.0211 35.1329 48.9687 35.2837 48.877C35.4346 48.7852 35.5588 48.6572 35.6447 48.5052C35.7305 48.3531 35.7751 48.1821 35.7741 48.0084V47.106C37.3997 47.7002 39.058 48.205 40.7413 48.6182C42.3396 48.9967 44.0168 48.9033 45.5608 48.3498C47.1048 47.7964 48.4462 46.8076 49.4156 45.5087C50.3849 44.2098 50.9385 42.659 51.0065 41.0524C51.0744 39.4458 50.6536 37.8556 49.7973 36.4829C49.2313 35.5693 48.4854 34.7747 47.603 34.1452C46.7205 33.5156 45.719 33.0635 44.6566 32.8151C41.7346 32.1708 38.7641 31.7582 35.7741 31.5814V26.6667H46.1678C46.4435 26.6667 46.7079 26.5596 46.9028 26.369C47.0977 26.1784 47.2072 25.9199 47.2072 25.6504V14.4714H49.2859C49.4472 14.4716 49.6062 14.435 49.7505 14.3647L58.0655 10.2996C58.2752 10.1974 58.4435 10.0289 58.543 9.82144C58.6424 9.61398 58.6673 9.37974 58.6135 9.15673C58.5597 8.93372 58.4304 8.73503 58.2466 8.59291C58.0628 8.45078 57.8352 8.37356 57.6009 8.37378H55.5222V6.34123H59.6796C60.0929 6.33938 60.5017 6.2576 60.8824 6.10061C61.2632 5.94362 61.6085 5.71452 61.8983 5.4265C62.1881 5.13848 62.4168 4.79724 62.5712 4.42243C62.7256 4.04762 62.8026 3.64665 62.7978 3.24261C62.7892 2.7529 62.6475 2.27423 62.3873 1.85577C62.127 1.4373 61.7574 1.09413 61.3167 0.861485C60.8492 0.607074 60.3217 0.47703 59.7867 0.484342C59.2518 0.491654 58.7282 0.636064 58.2682 0.903153L54.4828 3.12371L50.6974 0.903153C50.2374 0.636064 49.7138 0.491654 49.1789 0.484342C48.6439 0.47703 48.1164 0.607074 47.6489 0.861485C47.2019 1.09972 46.8286 1.45105 46.568 1.8787C46.3075 2.30636 46.1693 2.79462 46.1678 3.29241C46.1678 4.10101 46.4963 4.87649 47.0811 5.44825C47.6659 6.02002 48.459 6.34123 49.2859 6.34123H53.4434V8.37378H45.1285C44.1004 5.96755 42.368 3.91205 40.1489 2.46553C37.9298 1.01901 35.323 0.245994 32.656 0.243591H30.5773C27.9103 0.245994 25.3035 1.01901 23.0844 2.46553C20.8653 3.91205 19.1329 5.96755 18.1048 8.37378H9.78988V6.34123H13.9474C14.3606 6.33938 14.7694 6.2576 15.1502 6.10061C15.5309 5.94362 15.8762 5.71452 16.166 5.4265C16.4558 5.13848 16.6845 4.79724 16.8389 4.42243C16.9933 4.04762 17.0703 3.64665 17.0655 3.24261C17.0569 2.7529 16.9153 2.27423 16.655 1.85577C16.3947 1.4373 16.0252 1.09413 15.5844 0.861485C15.1169 0.607074 14.5894 0.47703 14.0544 0.484342C13.5195 0.491654 12.9959 0.636064 12.5359 0.903153L8.75051 3.12371L4.96512 0.903153C4.50512 0.636064 3.98151 0.491654 3.44657 0.484342C2.91164 0.47703 2.3841 0.607074 1.91665 0.861485C1.46964 1.09972 1.09632 1.45105 0.835762 1.8787C0.575203 2.30636 0.436977 2.79462 0.435547 3.29241C0.435547 4.10101 0.764061 4.87649 1.34882 5.44825C1.93358 6.02002 2.72668 6.34123 3.55366 6.34123ZM18.1048 24.6341V14.4714H20.1836V24.6341H18.1048ZM34.7348 24.6341H22.2623V15.9094L23.4275 17.0487C23.909 17.5219 24.4818 17.8971 25.1127 18.1525C25.7435 18.4079 26.4199 18.5384 27.1027 18.5365H36.1306C36.8134 18.5384 37.4898 18.4079 38.1206 18.1525C38.7515 17.8971 39.3243 17.5219 39.8058 17.0487L40.971 15.9084V24.6341H34.7348ZM38.3362 15.6117C38.0471 15.8955 37.7033 16.1205 37.3247 16.2737C36.9462 16.4268 36.5403 16.5051 36.1306 16.504H27.1027C26.693 16.5051 26.2871 16.4268 25.9086 16.2737C25.53 16.1205 25.1862 15.8955 24.8971 15.6117L23.732 14.4714H39.5013L38.3362 15.6117ZM16.0562 29.1789L18.4291 29.7409L20.2054 31.2064L16.8223 30.4056L16.0562 29.1789ZM15.9835 39.6181L13.6106 39.0551L14.8641 38.3071L18.2483 39.1089L15.9835 39.6181ZM23.7559 39.4473C23.7903 39.3491 23.8089 39.2463 23.811 39.1425C23.8124 38.9136 23.7348 38.6909 23.5907 38.5105C23.4466 38.3301 23.2444 38.2026 23.0169 38.1485L20.9964 37.6709L21.2417 36.6821L24.2725 37.3996L24.761 35.4249L21.7302 34.7064L21.9755 33.7186L23.996 34.1973C24.1351 34.2321 24.2801 34.2379 24.4216 34.2143C24.5632 34.1907 24.698 34.1382 24.8174 34.0602C24.9369 33.9823 25.0382 33.8807 25.1147 33.7619C25.1913 33.6432 25.2415 33.51 25.2619 33.371C25.9365 33.3588 26.6692 33.3497 27.4592 33.3477V41.3264C26.0758 40.6506 24.8223 40.0093 23.7559 39.4473ZM48.0231 37.5408C48.6655 38.5704 48.9812 39.7631 48.9302 40.9681C48.8793 42.1731 48.4641 43.3363 47.737 44.3106C47.01 45.2848 46.0038 46.0264 44.8457 46.4415C43.6876 46.8566 42.4296 46.9266 41.2308 46.6426L44.167 34.7898C44.9638 34.9764 45.7148 35.3157 46.3767 35.7879C47.0386 36.2601 47.5982 36.8559 48.0231 37.5408ZM42.132 34.3721L39.228 46.0978C38.147 45.7767 36.9957 45.3885 35.7741 44.9332V33.618C37.9053 33.7615 40.0275 34.0132 42.132 34.3721ZM33.6954 46.3641L29.5379 44.3315V26.6667H33.6954V46.3641ZM45.1285 24.6341H43.0497V14.4714H45.1285V24.6341ZM59.3377 2.64606C59.4848 2.56277 59.6515 2.51824 59.8215 2.51682C59.9914 2.51539 60.1589 2.55712 60.3074 2.63793C60.4302 2.70034 60.5334 2.79419 60.6059 2.90946C60.6784 3.02473 60.7175 3.1571 60.719 3.29241C60.719 3.56194 60.6095 3.82044 60.4146 4.01102C60.2197 4.20161 59.9553 4.30868 59.6796 4.30868H56.5023L59.3377 2.64606ZM49.2859 4.30868C49.1479 4.3087 49.0113 4.28186 48.8841 4.22971C48.7568 4.17756 48.6414 4.10115 48.5447 4.00494C48.4479 3.90873 48.3717 3.79465 48.3206 3.66935C48.2694 3.54405 48.2442 3.41004 48.2466 3.27513C48.2509 3.14219 48.2918 3.01284 48.3649 2.90071C48.4381 2.78857 48.5408 2.69779 48.6623 2.63793C48.8123 2.55842 48.9802 2.51652 49.1508 2.51598C49.3204 2.51529 49.4869 2.56029 49.632 2.64606L52.4633 4.30868H49.2859ZM53.1981 10.4063L49.0406 12.4389H46.1148C46.0613 11.7541 45.9528 11.0745 45.7905 10.4063H53.1981ZM30.5773 2.27614H32.656C35.5067 2.27983 38.2533 3.32371 40.3581 5.20342C42.463 7.08313 43.7746 9.66332 44.0361 12.4389H19.1951C19.4567 9.66297 20.7685 7.08249 22.8738 5.20273C24.9792 3.32297 27.7263 2.27932 30.5773 2.27614ZM17.1185 12.4389H14.1926L10.0352 10.4063H17.4428C17.2805 11.0745 17.172 11.7541 17.1185 12.4389ZM13.6054 2.64606C13.7525 2.56277 13.9192 2.51824 14.0892 2.51682C14.2592 2.51539 14.4266 2.55712 14.5751 2.63793C14.6979 2.70034 14.8011 2.79419 14.8736 2.90946C14.9461 3.02473 14.9852 3.1571 14.9867 3.29241C14.9867 3.56194 14.8772 3.82044 14.6823 4.01102C14.4874 4.20161 14.223 4.30868 13.9474 4.30868H10.77L13.6054 2.64606ZM2.93004 2.63793C3.08006 2.55842 3.2479 2.51652 3.41854 2.51598C3.58812 2.51529 3.75463 2.56029 3.89977 2.64606L6.73101 4.30868H3.55366C3.41567 4.3087 3.27905 4.28186 3.15178 4.22971C3.02452 4.17756 2.90914 4.10115 2.81239 4.00494C2.71564 3.90873 2.63946 3.79465 2.58827 3.66935C2.53709 3.54405 2.51194 3.41004 2.51429 3.27513C2.5186 3.14219 2.5595 3.01284 2.63266 2.90071C2.70583 2.78857 2.80856 2.69779 2.93004 2.63793Z" fill="black"/>
</svg>
