<svg width="248" height="158" viewBox="0 0 248 158" fill="none" xmlns="http://www.w3.org/2000/svg">
<path d="M212.083 40.2735C211.745 39.8644 211.391 39.4608 211.029 39.0764C215.765 33.8705 219.329 27.5747 224.856 23.1266C230.075 18.9367 235.778 15.381 240.449 10.5541C241.061 10.8753 241.624 11.2378 242.115 11.721C241.552 12.2372 240.948 12.8083 240.331 13.3547C239.348 14.2553 238.439 15.2767 237.384 16.3365C236.363 17.3826 235.295 18.5825 234.136 19.7C233.565 20.2629 232.969 20.8504 232.368 21.438C231.698 21.9679 231.047 22.5226 230.301 23.0937C228.851 24.2359 227.267 25.4028 225.619 26.7702C223.977 28.1128 222.28 29.7136 220.762 31.5147C219.216 33.2116 217.681 35.0951 215.99 36.8469C214.793 38.077 213.513 39.2851 212.083 40.2735ZM201.273 82.8538C200.902 82.5957 200.556 82.3541 200.227 82.1371C201.273 81.7582 202.278 81.2777 203.22 80.6819C203.236 81.6457 203.357 82.7412 203.557 83.8999C203.574 83.9713 203.582 84.0427 203.604 84.1168C203.22 83.801 202.794 83.488 202.245 83.2162C201.957 83.0624 201.627 82.9499 201.273 82.8538ZM197.734 45.1554C197.572 44.6007 197.693 44.0461 197.734 43.4997C197.83 43.4256 197.91 43.3377 198.017 43.2828C198.176 43.1537 198.338 43.1208 198.497 43.0247C198.61 42.9835 198.731 42.9451 198.86 42.8956C198.901 42.8792 199.044 42.816 199.005 42.8462L199.197 42.816C199.447 42.7666 199.705 42.7034 199.977 42.654C200.26 42.6211 200.548 42.5909 200.839 42.5497C202.053 42.4536 203.453 42.5332 204.996 42.7995C208.11 43.291 211.696 44.609 215.968 45.9434C217.769 46.5227 219.579 47.5276 220.655 49.0735C221.196 49.8285 221.55 50.6907 221.671 51.5995C221.742 52.1843 221.701 52.8213 221.572 53.4309C220.688 52.6923 218.395 52.0251 215.422 52.0882C211.77 52.2008 208.953 53.03 208.931 54.0102C208.914 54.9685 211.929 55.7318 215.485 55.611C217.802 55.5478 219.971 55.3227 221.122 54.8641C220.971 55.2266 220.737 55.6439 220.625 55.8691L220.229 56.4814C220.087 56.6653 219.916 56.8356 219.771 57.0113C219.12 57.6867 218.34 58.1782 217.456 58.4912C216.569 58.8042 215.581 58.9168 214.576 58.9086C213.588 58.9003 212.574 58.7795 211.6 58.5544C210.636 58.3374 209.653 58.0409 208.802 57.7114C207.901 57.3819 206.976 56.9152 206.13 56.5445C205.295 56.1354 204.505 55.7318 203.846 55.3227C203.179 54.9355 202.366 54.2766 201.828 53.8812C201.531 53.656 201.314 53.4309 201.281 53.3924C201.224 53.3677 201.177 53.214 201.177 52.7884C201.169 52.6044 201.152 52.426 201.152 52.2502L201.136 51.9372L201.103 51.6627C201.073 51.292 201.04 50.9625 200.99 50.6083C200.856 49.4743 200.589 47.9944 199.664 47.2229C198.868 46.5721 198.039 46.2811 197.734 45.1554ZM198.368 62.0634C197.684 61.797 197.017 61.5884 196.358 61.3714C196.8 60.6795 197.338 59.8915 198.017 59.1419C198.876 58.2002 199.81 57.4945 200.523 57.1788C200.886 56.9948 201.177 56.8987 201.386 56.8575C201.657 57.0607 201.907 57.2858 202.237 57.511C203.066 58.1288 203.92 58.6285 204.796 59.1419C205.696 59.6169 206.556 60.1002 207.572 60.5505C208.294 60.88 209.035 61.1463 209.798 61.3797C208.607 62.1759 207.41 63.9442 206.814 64.7322C206.339 65.3664 205.938 66.0446 205.639 66.7118C205.463 66.4949 205.295 66.2835 205.101 66.0913C204.658 65.7069 204.249 65.2484 203.791 64.9491C201.998 63.5817 200.131 62.747 198.368 62.0634ZM194.019 98.312C193.753 97.2659 193.72 96.1155 193.824 95.0227C194.049 92.8344 194.733 90.8328 195.578 89.232C196.416 87.6313 197.468 86.393 198.514 85.7093C199.038 85.3469 199.543 85.2096 200.027 85.1052C200.51 85.0888 200.968 85.0888 201.394 85.259C201.473 85.2892 201.553 85.3386 201.635 85.3633C201.644 85.3633 201.644 85.3798 201.657 85.3798C203.115 86.9229 204.763 89.0288 204.941 91.8761C204.933 92.2386 204.955 92.5845 204.941 92.9717C204.917 93.3643 204.892 93.7514 204.837 94.1304C204.724 94.8772 204.513 95.4153 204.032 95.97C203.799 96.2528 203.5 96.5356 203.179 96.8239C202.824 97.1039 202.454 97.4115 202.086 97.7162C201.715 98.0292 201.314 98.2873 200.911 98.5701C200.523 98.8584 200.098 99.1413 199.672 99.3746C198.442 100.058 197.083 100.613 195.611 100.86L195.699 100.693C194.878 100.193 194.315 99.3664 194.019 98.312ZM191.759 59.9876C191.54 59.9052 189.73 58.6532 189.964 58.3704C191.485 56.528 193.456 55.0152 195.386 53.6011C196.004 54.2271 196.583 54.8971 197.13 55.5808C196.745 56.0311 196.295 56.5527 195.779 57.1403C194.944 58.0876 194.019 58.9827 192.956 59.6883C192.41 60.0672 192.457 60.188 191.759 59.9876ZM185.911 83.2794C187.319 81.5249 188.934 79.9324 190.568 78.3975C190.639 78.3261 190.705 78.2685 190.752 78.1888C190.985 78.3096 191.227 78.4469 191.435 78.5595C193.56 79.699 195.136 80.4952 196.108 80.8988C196.85 81.2283 198.264 82.1042 198.113 83.0213C197.22 83.4002 196.416 83.9081 195.699 84.5424C195.482 84.7181 193.624 86.835 193.624 86.9641C190.85 85.6269 188.275 84.3969 185.911 83.2794ZM178.253 79.699C177.086 79.169 175.985 78.6638 174.956 78.1888C177.306 76.7638 179.629 75.2537 182.188 74.2378C182.468 74.1334 182.685 73.966 182.847 73.7738C183.577 74.1829 184.31 74.6002 185.002 75.0038C186.032 75.5832 186.995 76.1131 187.912 76.6293C186.161 78.2849 184.511 80.0147 183.022 81.9285C181.334 81.1322 179.733 80.3826 178.253 79.699ZM176.155 63.881C176.073 63.7904 175.96 63.6778 175.856 63.5735C175.922 62.9777 176.21 62.3681 176.919 61.7806C177.16 61.5554 177.449 61.3467 177.764 61.1545C178.077 60.9431 178.44 60.8086 178.791 60.6054C179.154 60.4461 179.549 60.3583 179.942 60.2375C180.362 60.2045 180.779 60.0919 181.238 60.1469C182.138 60.1633 183.176 60.4132 184.343 60.7674C185.507 61.1133 186.811 61.5389 188.212 61.9261C190.977 62.6976 194.074 63.4692 197.317 64.7486C198.909 65.4076 200.548 66.2121 201.948 67.3049C202.336 67.5548 202.591 67.9007 202.929 68.1918C203.236 68.5048 203.47 68.8672 203.75 69.1884C204.175 69.9435 204.513 70.6766 204.65 71.6239C204.996 73.4992 204.571 75.3333 203.17 76.7638C201.819 78.1312 199.914 79.2432 198.017 79.5727C195.732 79.9571 194.002 78.5266 192.231 77.2965C190.559 76.146 188.517 74.7869 186.144 73.2164C184.961 72.4366 183.698 71.6101 182.355 70.7233C181.054 69.8145 179.324 68.8974 178.607 67.9748L178.536 67.876C178.399 67.6371 178.245 67.4257 178.086 67.1923C177.932 66.8793 177.77 66.5581 177.619 66.2368C177.418 65.8661 177.281 65.512 177.031 65.1028L176.636 64.4988L176.427 64.194L176.411 64.1528C176.389 64.1199 176.306 64.0403 176.306 64.0403L176.26 63.9936L176.155 63.881ZM172.358 76.0966C171.707 74.4492 171.361 72.7743 171.361 70.9979C172.213 70.8935 173.091 70.7013 173.942 70.4432C174.788 70.1851 175.593 69.8309 176.372 69.4218C176.427 69.485 176.477 69.5509 176.532 69.6223C176.919 69.9929 177.314 70.4432 177.715 70.715C178.11 70.9814 178.536 71.2944 178.89 71.4893C179.162 71.6403 179.42 71.8023 179.695 71.9561C177.144 73.1532 174.788 74.6826 172.358 76.0966ZM164.05 73.3866C163.954 72.3734 163.929 71.3603 164.017 70.3471C165.321 70.6766 166.721 70.9567 168.209 71.0692C168.223 72.5904 168.448 74.0373 168.86 75.4624C168.448 75.2921 168.064 75.1411 167.693 75.0038C166.263 74.4712 165.016 74.1252 163.97 73.9083C164.025 73.7408 164.058 73.5623 164.05 73.3866ZM157.938 72.6865C158.113 71.3987 158.275 70.122 158.534 68.8507C159.338 69.0759 160.148 69.3093 160.985 69.5344C160.823 70.8221 160.81 72.0906 160.922 73.3866C160.922 73.4031 160.922 73.4278 160.922 73.436C160.085 73.2246 159.096 72.9775 157.938 72.6865ZM157.921 56.5527C156.529 56.2068 155.115 55.8526 153.682 55.4984C154.89 54.7269 156.241 54.0185 157.551 53.3101C158.146 52.9971 158.759 52.6429 159.368 52.2969C159.964 51.9372 160.623 51.5336 161.139 51.1712C162.232 50.4326 163.319 49.6995 164.396 48.9856C168.69 46.0971 172.762 43.3212 176.718 40.732C180.667 38.1346 184.406 35.6333 188.003 33.3818C189.796 32.2478 191.548 31.1276 193.245 30.043C194.09 29.5049 194.944 28.9722 195.771 28.4505C196.616 27.9673 197.459 27.4841 198.297 27.0118C201.611 25.12 204.738 23.3353 207.723 21.5671C209.219 20.6885 210.658 19.8373 212.066 19.0081C213.442 18.1624 214.721 17.2783 215.99 16.4573C218.516 14.7852 220.875 13.2256 223.085 11.7622C225.298 10.2905 227.379 8.9451 229.279 7.77269C233.098 5.40865 236.588 3.95892 239.614 3.75025C240.369 3.67886 241.077 3.72553 241.753 3.77496C242.091 3.82987 242.412 3.87106 242.733 3.92048C243.049 3.97539 243.274 4.04129 243.521 4.15386C244.4 4.51355 244.971 5.24665 245.347 5.97151C245.405 6.24334 245.438 6.52614 245.413 6.83915C245.372 7.65188 245.009 8.58542 244.342 9.51072C243.483 8.64857 242.428 8.05275 241.357 7.50636C241.141 7.40202 240.907 7.3526 240.69 7.33063C240.16 7.02312 239.477 7.02312 238.939 7.61893C233.749 13.2586 226.89 16.7484 221.396 21.9844C216.281 26.8416 212.701 32.9617 207.772 37.9891C207.047 38.7469 207.297 39.6859 207.893 40.2323C207.94 40.3147 207.973 40.4026 208.036 40.4739C208.118 40.5481 208.206 40.6277 208.277 40.7073C207.256 40.5234 206.243 40.3778 205.287 40.3229C203.541 40.2021 201.924 40.2982 200.54 40.603C200.186 40.6991 199.865 40.7952 199.535 40.8776C199.23 40.9901 198.925 41.1192 198.643 41.2318L198.434 41.3196C198.256 41.391 198.28 41.3992 198.192 41.4404C198.08 41.5036 197.959 41.5777 197.846 41.6409C197.588 41.8413 197.308 42.0198 197.13 42.2367C194.944 44.447 197.492 46.001 198.563 47.8434C198.901 48.5573 199.044 49.4908 199.03 50.7456C199.03 51.0421 199.005 51.3881 199.005 51.734L198.997 51.9921C198.997 51.9921 198.98 52.1541 198.972 52.2173C198.964 52.4012 198.956 52.588 198.931 52.7802C198.931 52.7966 198.931 52.8296 198.931 52.8515C198.321 52.1212 197.671 51.421 196.962 50.7621C196.817 50.6413 196.663 50.5452 196.504 50.471C196.078 49.9658 195.378 49.7407 194.67 50.2624C191.99 52.2502 189.28 54.2601 187.182 56.874C187.157 56.8905 187.141 56.8987 187.108 56.9069C186.49 57.2776 186.161 58.1123 186.416 58.796C185.927 58.6669 185.452 58.5461 184.969 58.4281C183.739 58.1288 182.476 57.8624 181.221 57.9283C180.603 57.9119 179.991 58.0739 179.428 58.1947C178.89 58.3869 178.357 58.5626 177.907 58.8289C176.998 59.3369 176.26 59.8833 175.689 60.5258C175.164 61.0886 174.772 61.7558 174.579 62.4478C174.426 62.3187 174.272 62.2061 174.129 62.1018C173.676 61.7888 173.212 61.506 172.737 61.2506C172.954 61.0804 173.171 60.9129 173.404 60.7592C174.08 60.2375 174.763 59.7378 175.389 59.2243C176.669 58.2166 177.869 57.2447 179.003 56.3029C181.271 54.4138 183.322 52.7088 185.156 51.1712C188.83 48.074 191.652 45.6304 193.816 43.7551C198.113 39.9852 199.727 38.6179 199.631 38.4476C199.519 38.2389 197.564 39.3564 193.102 42.9039C190.85 44.6639 187.954 47.0224 184.239 50.0537C182.38 51.5666 180.321 53.2469 178.036 55.114C176.886 56.0311 175.689 56.9948 174.426 57.9915C173.789 58.483 173.13 58.9827 172.462 59.4961C172.037 59.8174 171.578 60.1469 171.145 60.4297C170.17 59.9958 169.165 59.6005 168.143 59.2545C176.315 53.1344 183.297 48.1152 188.959 43.9253C194.845 39.5981 199.414 36.1961 202.874 33.5822C206.347 30.9601 208.681 29.0216 210.169 27.8163C211.633 26.5917 212.22 26.0206 212.146 25.9327C212.075 25.8531 211.342 26.2787 209.757 27.3577C208.157 28.4176 205.776 30.1886 202.215 32.6817C198.676 35.183 194.041 38.4888 188.107 42.7584C182.196 47.0307 174.98 52.1541 166.309 58.6834C164.654 58.2002 162.973 57.7911 161.282 57.3984C160.84 57.2858 160.365 57.1733 159.909 57.0525C162.402 55.2897 164.95 53.656 167.331 52.08C170.17 50.2321 172.888 48.4694 175.48 46.789C180.667 43.442 185.348 40.419 189.571 37.6926C197.992 32.2231 204.529 27.9041 209.477 24.5269C214.422 21.147 217.769 18.7418 219.828 17.0696C220.342 16.6523 220.776 16.2981 221.146 15.9988C221.509 15.6693 221.783 15.381 222 15.1641C222.434 14.7221 222.618 14.5051 222.571 14.464C222.53 14.4228 222.28 14.5765 221.792 14.9307C221.542 15.1229 221.243 15.3481 220.866 15.6309C220.471 15.8945 220.004 16.2185 219.466 16.5781C217.311 18.0828 213.876 20.359 208.865 23.6016C203.821 26.8333 197.234 31.0562 188.791 36.4762C184.552 39.1807 179.846 42.179 174.643 45.5013C172.053 47.1734 169.327 48.9279 166.48 50.7785C163.728 52.5797 160.873 54.3974 157.921 56.5527ZM155.082 92.417C155.025 92.3841 154.978 92.3594 154.928 92.3347C156.45 92.2001 158.009 92.2798 159.506 92.5598C160.898 92.8097 162.257 93.26 163.591 93.7597C162.883 94.523 162.144 95.473 161.419 96.5575C161.227 96.8239 161.035 97.0985 160.856 97.362C160.727 97.1369 160.568 96.9447 160.398 96.7525C160.173 96.4697 159.939 96.1896 159.714 95.9233C159.201 95.4483 158.717 94.9431 158.196 94.5312C157.166 93.702 156.128 93.0101 155.082 92.417ZM133.479 101.689C133.405 101.335 133.43 100.918 133.504 100.492C133.638 99.6135 133.954 98.6827 134.267 97.7657C135.288 94.6603 134.13 89.1112 138.619 88.9657C143.243 88.8202 149.805 92.4802 153.553 94.9101C154.462 95.4977 155.362 96.1484 156.2 96.887C156.617 97.2412 156.971 97.6613 157.367 98.0457C158.105 98.7788 159.714 101.98 159.473 102.952C159.555 103.878 159.451 104.795 159.143 105.638C159.022 105.992 158.847 106.338 158.638 106.659C158.572 106.629 158.501 106.621 158.443 106.629C158.097 106.653 157.825 107.126 157.616 107.914C156.658 108.809 155.403 109.501 153.989 109.83C152.79 110.127 151.447 110.176 150.296 110.064C149.95 110.006 149.558 109.973 149.267 109.902C149 109.83 148.745 109.756 148.471 109.693C147.891 109.484 147.287 109.289 146.711 109.009C145.511 108.479 144.327 107.842 143.089 107.225L142.142 106.774L141.675 106.546L141.129 106.338C140.5 106.121 139.896 105.887 139.278 105.662C138.103 105.228 136.985 104.795 136.013 104.295C135.497 104.053 135.088 103.781 134.684 103.515L134.218 103.106L134.154 103.065C134.154 103.048 134.025 102.897 134.025 102.897C133.946 102.793 133.833 102.656 133.776 102.573C133.704 102.381 133.496 102.06 133.479 101.689ZM124.921 108.35C125.629 107.779 126.538 107.117 127.614 106.541C129.273 105.638 130.89 105.149 131.837 104.907L131.903 104.979L131.911 104.995L132.016 105.099C132.271 105.358 132.546 105.638 132.828 105.887C132.941 105.978 133.067 106.058 133.196 106.137C131.983 107.038 130.261 109.097 128.652 111.678C128.644 111.695 128.636 111.719 128.614 111.728C128.564 111.664 128.509 111.582 128.46 111.519L128.081 111.123C127.093 110.055 126.013 109.147 124.921 108.35ZM122.694 55.9899C122.694 55.3227 122.919 54.6225 123.295 53.9141C123.449 53.9388 123.619 53.9636 123.778 53.9883C124.912 54.1008 126.038 54.1969 127.156 54.2601C128.235 54.3315 129.344 54.4138 130.478 54.5264C132.683 54.8394 134.918 55.1524 137.186 55.4819C145.406 56.9316 153.24 58.9497 160.543 60.5972C164.195 61.3934 167.605 62.143 170.477 63.4444C171.183 63.7739 171.858 64.1199 172.462 64.5317C172.775 64.7404 173.075 64.9326 173.3 65.1358C173.542 65.3033 173.846 65.5943 174.129 65.8744L174.233 65.9787L174.242 66.0034L174.376 66.1874L174.634 66.5581C174.667 66.6075 174.706 66.6706 174.739 66.7283C174.168 67.0248 173.58 67.2747 172.992 67.4587C171.971 67.7634 170.966 67.9666 169.928 67.9886C167.877 68.0709 165.834 67.6509 163.841 67.1374C161.806 66.6075 159.876 66.0913 158.042 65.5998C156.216 65.1193 154.486 64.6361 152.855 64.194C149.572 63.3483 146.661 62.3928 144.08 61.6762C141.488 60.9211 139.212 60.2841 137.252 59.746C136.26 59.4797 135.352 59.2298 134.517 59.0129C133.663 58.8289 132.891 58.6532 132.183 58.4912C130.777 58.1947 129.627 57.9695 128.74 57.824C126.955 57.533 126.159 57.533 126.112 57.7444C126.055 57.953 126.763 58.3539 128.435 59.0129C129.273 59.3369 130.357 59.7213 131.7 60.1798C132.378 60.3967 133.125 60.6548 133.946 60.9211C134.759 61.2177 135.643 61.5307 136.598 61.8602C138.523 62.5219 140.758 63.277 143.3 64.1528C145.873 64.9903 148.729 66.0364 152.059 66.9672C153.16 67.2994 154.327 67.6371 155.532 67.9886C155.258 69.2845 155.099 70.6107 154.912 71.9232C154.599 71.8435 154.294 71.7529 153.956 71.6733C150 70.6272 144.811 69.2681 138.394 66.9672C136.801 66.3741 135.135 65.7371 133.421 64.9656C131.7 64.2187 129.94 63.3483 128.218 62.3022C126.505 61.2589 124.783 59.9876 123.619 58.4281C123.095 57.6373 122.732 56.8108 122.694 55.9899ZM121.719 105.904C120.764 104.616 119.742 103.361 118.592 102.214C121.085 100.613 123.971 99.5668 126.434 97.9249C127.51 99.1715 128.718 100.418 129.41 101.906C128.652 102.439 127.601 103.131 126.184 103.894C124.061 105.053 122.515 105.632 121.719 105.904ZM100.841 101.247C100.616 101.231 100.374 101.206 100.124 101.176C111.947 95.2561 125.805 88.2985 141.971 80.152C143.734 80.7066 145.544 81.3656 147.312 82.2497C148.946 83.0954 150.555 84.1333 151.881 85.5226C152.869 86.5687 153.682 87.8153 154.237 89.2485C154.165 89.254 154.102 89.254 154.028 89.2622C152.765 89.416 151.527 89.7455 150.305 90.1958C149.887 90.0283 149.467 89.8828 149.066 89.7372C145.977 88.6856 135.972 84.9762 133.679 88.8284C133.454 89.2156 133.366 89.6082 133.292 89.9953C133.174 90.7586 133.174 91.4753 133.117 92.2303C133.092 92.6175 133.075 92.947 133.029 93.3725L132.996 93.6883V93.7679L132.979 93.8064L132.955 93.9272C132.924 94.1056 132.9 94.2731 132.834 94.4598C132.65 95.1984 132.32 95.9947 131.933 96.887C131.678 97.4828 131.412 98.1199 131.17 98.842C130.245 97.5405 129.135 96.3489 128.13 95.0859C127.826 94.7015 127.447 94.5395 127.093 94.5559C126.601 94.3775 126.038 94.4187 125.525 94.8278C122.436 97.362 118.567 98.4329 115.462 100.959C114.819 101.481 114.852 102.648 115.429 103.169C115.783 103.482 116.107 103.82 116.437 104.158C115.583 103.869 114.731 103.595 113.919 103.378C109.55 102.181 105.931 101.73 103.438 101.552C102.876 101.514 102.384 101.489 101.95 101.481C101.621 101.384 101.258 101.28 100.841 101.247ZM97.4226 103.482C97.3814 103.169 97.3814 103.177 97.4308 103.073C97.5022 102.961 97.8317 102.823 98.1227 102.744C98.4357 102.648 98.7652 102.582 99.0947 102.543C99.6493 102.447 100.341 102.414 100.841 102.356C100.904 102.34 100.945 102.34 101 102.34C101.58 102.502 102.337 102.686 103.221 102.897C105.618 103.49 109.084 104.303 113.169 105.745C115.204 106.475 117.392 107.384 119.572 108.584C121.752 109.773 123.957 111.302 125.684 113.295L126.038 113.713C126.143 113.842 126.208 113.963 126.288 114.083L126.714 114.72C125.363 117.109 124.767 118.998 125.33 119.394C125.75 119.69 126.692 119.135 127.889 118.018C128.01 118.798 128.034 119.594 127.864 120.365C127.568 121.958 126.667 123.397 125.346 124.451C124.921 123.383 124.462 122.73 124.028 122.795C123.49 122.859 123.095 124.001 122.99 125.772C122.886 125.81 122.79 125.86 122.677 125.89C120.094 126.694 117.095 126.326 114.528 125.538C113.836 125.385 113.227 125.102 112.584 124.838C111.988 124.597 111.239 124.251 110.638 123.96C109.366 123.334 108.136 122.691 106.994 121.999C104.734 120.648 102.65 119.031 101.774 117.326C100.888 115.58 101.146 113.103 100.413 110.665L100.437 110.769C100.091 109.435 99.6109 108.268 99.1112 107.288C98.6114 106.266 98.1529 105.412 97.7932 104.561C97.6065 104.158 97.461 103.765 97.4226 103.482ZM86.6924 33.1237C86.308 32.8272 85.9538 32.5114 85.6161 32.1902C86.5798 31.836 87.5298 31.4818 88.4222 31.1523C89.7566 30.6306 90.9866 30.076 92.1865 29.5763C94.567 28.5713 96.6647 27.6378 98.573 26.8498C102.351 25.3534 105.448 24.1068 107.749 23.1184C109.696 22.3139 111.11 21.6796 112.085 21.1799C112.889 20.9383 113.765 20.7214 114.698 20.5924C115.519 20.521 116.371 20.488 117.208 20.6967C118.246 21.0097 118.309 21.114 118.35 21.2596L118.246 21.3886C118.18 21.438 118.229 21.3886 118.029 21.5726C117.818 21.784 117.609 21.9844 117.4 22.1931C117.159 22.3853 116.909 22.594 116.662 22.7971C115.687 23.6181 114.515 24.4144 113.273 25.2573C112.019 26.1112 110.668 26.9459 109.237 28.0085C107.853 29.0546 106.431 30.1474 104.951 31.2978C102.087 33.5658 98.9409 35.9792 95.3056 38.0467C94.7345 37.7475 94.1716 37.4592 93.617 37.1764C92.2744 36.4762 90.9866 35.8172 89.7648 35.1995L89.3063 34.9661L88.9521 34.7245C88.9054 34.6915 88.8477 34.6586 88.8011 34.6366C92.4281 32.753 95.4841 31.177 98.0239 29.8673C99.4489 29.1754 100.704 28.5631 101.821 28.0167C102.947 27.4841 103.897 26.9541 104.773 26.6246C108.216 25.1447 109.504 24.4446 109.421 24.2359C109.35 24.0355 107.958 24.3649 104.347 25.595C103.438 25.8778 102.45 26.3501 101.291 26.8416C100.149 27.3413 98.8283 27.8959 97.3896 28.5713C94.6219 29.9058 91.2777 31.5806 87.3047 33.6289C87.1042 33.4614 86.8928 33.2857 86.6924 33.1237ZM63.3347 35.3422L63.343 35.3203H63.3512C63.4253 35.3203 63.3841 35.3285 63.3347 35.3422ZM60.2568 39.782C60.2568 39.4525 60.1827 39.2109 60.2623 38.5931C60.3282 37.7475 60.6 36.6217 61.0915 36.0259C61.237 35.9133 61.3166 35.7129 61.4869 35.6745C61.55 35.6333 61.6159 35.5839 61.6708 35.5289C61.7587 35.5125 61.8411 35.4878 61.9125 35.463C62.0744 35.3587 62.2008 35.4493 62.338 35.3834C62.3545 35.3834 62.3627 35.3752 62.3957 35.3752L62.5247 35.3834L62.7801 35.4081L63.1837 35.3917L63.2002 35.4164L63.2551 35.4493L63.3841 35.4878L63.634 35.5619L64.131 35.6964C64.4687 35.7788 64.8147 35.8749 65.1524 35.9545C65.8443 36.1303 66.5444 36.3005 67.2611 36.4844C68.7163 36.921 70.2621 37.4345 71.8217 37.9095C84.2707 41.8111 94.7125 44.2465 95.0008 43.3212C95.2837 42.3877 85.4293 38.4806 72.8431 34.546C72.3351 34.395 71.8299 34.233 71.3302 34.082C69.4412 29.093 68.6202 23.8982 67.1238 18.7994C65.6191 13.643 63.7466 8.61562 62.7169 3.31643C63.634 3.54981 64.4934 4.01658 65.2512 4.65083C67.0826 6.19666 68.45 8.35203 69.6334 10.3948C70.8085 12.4678 71.7805 14.5353 72.7854 16.4903C73.8562 18.5001 74.8694 20.1585 75.8359 21.8224C76.3246 22.6516 76.8079 23.4314 77.2499 24.2029C77.7579 24.9443 78.2246 25.6746 78.6832 26.3583C80.2427 28.6263 81.7062 30.4686 83.0818 32.0145C83.7655 32.8409 84.4574 33.7744 85.4376 34.6366C85.9126 35.0951 86.3958 35.5674 86.9175 35.9216C87.1838 36.1165 87.4474 36.3087 87.7138 36.5174L87.9224 36.6629L88.0185 36.7343L88.068 36.7837L88.1009 36.8002L88.1805 36.8551L88.6308 37.1214C89.8225 37.8216 91.0855 38.5602 92.4117 39.3482C93.7378 40.128 95.0722 40.9023 96.5769 41.7452C97.3265 42.1625 98.0815 42.5826 98.8531 43.0165C99.6246 43.4118 100.413 43.8127 101.217 44.2136C104.452 45.7924 107.79 47.7308 111.393 49.532C112.301 49.9823 113.227 50.4408 114.144 50.8994C114.611 51.1327 115.069 51.3744 115.536 51.5995L116.242 51.951L116.604 52.1212C116.821 52.2338 116.895 52.2502 117.046 52.3051C118.029 52.7335 119.067 53.0712 120.11 53.343C119.773 54.1887 119.556 55.0975 119.564 56.0613C119.572 56.3441 119.622 56.6077 119.668 56.8658C114.569 54.7186 110.209 52.7884 106.431 51.3744C101.887 49.6363 98.2353 48.5106 95.388 47.8736C93.963 47.5853 92.7494 47.3354 91.7445 47.1734C90.7066 47.0856 89.8691 47.0307 89.2266 47.0224C87.9389 46.9895 87.3843 47.0938 87.3513 47.3107C87.3294 47.5276 87.8346 47.8269 89.0399 48.2196C89.6275 48.42 90.4018 48.6451 91.3655 48.895C92.3156 49.2025 93.4495 49.5787 94.7922 50.0125C97.4692 50.8911 100.945 52.2008 105.344 54.0514C109.767 55.8773 115.061 58.3869 121.695 61.1133L121.736 61.042C123.24 62.7525 124.978 63.9112 126.626 64.9244C128.531 66.0748 130.415 66.9589 132.232 67.725C134.034 68.4965 135.78 69.1308 137.436 69.6936C144.088 71.9149 149.396 73.0489 153.465 73.8451C154.237 73.9824 154.945 74.1032 155.637 74.2158C155.741 74.2707 155.821 74.3366 155.933 74.3751C156.153 74.4245 156.4 74.4245 156.642 74.3833C158.967 74.754 160.744 74.9379 162.04 75.0203C163.19 75.4376 164.758 76.0417 166.809 77.0466C168.089 77.6562 169.536 78.4305 171.199 79.331C172.888 80.2563 174.818 81.2201 176.99 82.3156C181.109 84.3639 186.111 86.8268 192.127 89.7125C191.485 91.187 191.001 92.8426 190.768 94.7097C190.622 96.0523 190.617 97.5405 191.01 99.1248C191.13 99.6217 191.339 100.154 191.605 100.676C191.518 100.651 191.435 100.621 191.339 100.613C191.051 100.564 190.752 100.492 190.463 100.418C189.867 100.283 189.263 100.146 188.662 100.001C188.042 99.8716 187.446 99.6217 186.828 99.4378C184.335 98.6827 181.888 97.4746 179.17 96.1896C178.44 95.8821 177.69 95.5526 176.943 95.2396C176.186 94.9898 175.431 94.7399 174.659 94.49C173.138 94.0013 171.578 93.5812 170.123 93.0348C167.139 91.9887 163.97 90.2287 160.06 89.4956C159.231 89.3446 158.388 89.232 157.534 89.1826C156.842 86.9394 155.645 84.9213 154.14 83.3755C152.468 81.6319 150.546 80.4321 148.679 79.5068C146.815 78.565 144.964 77.939 143.218 77.4091C141.475 76.8682 139.8 76.4755 138.24 76.0884C136.697 75.7177 135.223 75.3745 133.85 75.0423C132.482 74.6963 131.211 74.3366 129.989 73.9989C127.551 73.3235 125.379 72.799 123.49 72.3899C119.685 71.6019 116.933 71.5937 115.237 71.7145C115.132 71.7227 115.044 71.7364 114.957 71.7447C114.762 71.6486 114.586 71.5607 114.402 71.4564C113.894 71.1901 113.386 70.8688 112.881 70.5723C111.843 69.9517 110.78 69.2928 109.688 68.6009C108.587 67.9089 107.444 67.2006 106.277 66.4784C105.094 65.77 103.839 65.1193 102.576 64.4027C101.308 63.6943 99.9953 62.9777 98.6609 62.2391C97.31 61.5472 95.9344 60.8305 94.5094 60.1002C91.6868 58.6367 88.7352 57.1074 85.638 55.5066C84.8665 55.1058 84.0949 54.6939 83.2987 54.2766C82.5436 53.8427 81.7693 53.3924 80.9896 52.9339C80.1851 52.4754 79.3504 51.9839 78.5294 51.5171C79.268 51.2371 80.0505 50.9213 80.9017 50.3914C81.2559 50.1415 81.6266 49.9082 82.0357 49.37C82.14 49.2162 82.2279 49.1284 82.3185 48.9279C82.4146 48.7357 82.486 48.5271 82.5519 48.3157C82.6068 48.074 82.6232 47.6979 82.5821 47.3849C82.5189 46.973 82.486 47.0142 82.4695 46.9263L82.4393 46.8138V46.8055L82.4228 46.789V46.7808C82.4146 46.7561 82.4063 46.7396 82.4063 46.7396C82.3899 46.6847 82.3404 46.5886 82.2608 46.4019L82.1977 46.3305L81.9808 46.0175C81.8188 45.8006 81.6485 45.6304 81.4975 45.4766C81.1763 45.1389 80.8523 44.9384 80.5146 44.6968C79.2213 43.8676 77.983 43.4036 76.7749 43C75.5531 42.5991 74.3642 42.2834 73.222 42.0033C71.1847 41.5612 68.8289 40.4904 66.16 40.6359C65.4901 40.7238 64.8476 40.7952 64.131 41.0533L63.6258 41.2318L63.2716 41.4075L62.9256 41.586L62.7581 41.6738L62.6758 41.7123L62.6373 41.737L62.4424 41.8413L62.4259 41.8495C62.2666 41.9539 62.1211 42.0445 61.9536 42.1488C61.9372 42.1323 61.9289 42.1241 61.896 42.0994C61.4622 41.6903 60.9322 41.2153 60.5945 40.6689C60.5286 40.5234 60.4325 40.4026 60.3831 40.2488C60.3529 40.0978 60.3035 39.9358 60.2568 39.782ZM58.7439 7.54754C58.7192 6.83916 58.7988 6.17195 58.9279 5.55966C59.0569 4.95835 59.348 4.37901 59.5868 4.00834C59.6116 3.98363 59.6363 3.95068 59.661 3.92872C60.6906 9.30754 62.7169 14.3514 64.1172 19.6368C65.2897 24.1233 66.1738 28.6592 67.6482 33.0441C67.0689 32.9315 66.4813 32.8107 65.9102 32.6817C65.5313 32.6075 65.1524 32.5279 64.7845 32.4565L64.2298 32.3357L64.109 32.3192C63.8262 28.7471 63.2222 25.3863 62.3957 22.2425C61.9372 20.4084 61.3908 18.6786 60.8911 16.957C60.3611 15.2355 59.8285 13.6265 59.4441 12.067C59.0487 10.4992 58.7522 8.96982 58.7439 7.54754ZM29.4116 65.5861C29.6203 65.3747 29.8839 65.1413 30.1914 64.9326C31.1085 64.2572 32.1848 63.6476 33.2556 63.0518C34.3484 62.4313 35.3945 61.9343 36.5999 61.1545C37.6075 60.4763 38.5878 59.8009 39.5378 59.1502C40.4933 58.4994 41.4186 57.8624 42.3192 57.2529C43.2362 56.6653 44.1121 56.0942 44.966 55.5478C46.6876 54.4386 48.2801 53.3924 49.7353 52.4424C50.5315 51.9208 51.2866 51.421 51.9868 50.9543C52.2778 50.817 52.5661 50.6742 52.8956 50.5287C54.0543 49.9741 55.3969 49.3782 56.8768 48.5271C58.2936 47.7308 59.8532 46.8687 61.5171 45.9351C62.3133 45.4766 63.1343 45.0098 63.9717 44.5293L64.0925 44.4799L64.2683 44.3921L64.6225 44.2383L64.9684 44.079L65.21 44.0379C65.3858 44.0214 65.4983 43.9418 65.7098 43.9335L66.3028 43.8841C67.1238 43.8841 68.0491 44.0626 69.0458 44.3426C69.0787 44.3509 69.1117 44.3591 69.1419 44.3756C67.3572 45.6798 65.4517 46.627 63.6724 47.481C61.4127 48.5655 59.3068 49.499 57.4479 50.4793C55.5754 51.4924 54.0543 52.5001 52.6869 53.3595C51.3196 54.2436 50.1224 55.0097 49.0846 55.6769C44.966 58.3786 43.4778 59.5126 43.5987 59.7048C43.7195 59.8833 45.4163 59.0705 49.6639 56.6241C50.7237 56.0146 51.9538 55.2897 53.3624 54.477C54.7709 53.6423 56.3469 52.6758 58.1152 51.767C59.9328 50.8582 62.0333 49.9493 64.3424 48.8648C66.4154 47.8736 68.7492 46.7479 70.9458 44.9467L71.0803 44.9879L71.5004 45.1004L72.3516 45.3421C73.4773 45.6304 74.5729 45.9434 75.6492 46.314C76.72 46.6765 77.7743 47.1185 78.5761 47.6237C78.5843 47.632 78.609 47.6567 78.6173 47.6649C77.9336 48.0356 77.0001 48.3898 76.083 48.744C75.5531 48.9444 74.8447 49.2492 74.3862 49.4908C73.8727 49.7407 73.3648 50.007 72.8678 50.2541C71.8601 50.7456 70.8799 51.2288 69.9299 51.6956C68.9826 52.1294 68.0656 52.6511 67.1732 53.0053C66.2314 53.3924 65.3144 53.7686 64.4385 54.1228C62.8542 54.7982 61.3825 55.3227 60.0152 55.8691C58.0932 56.3029 55.5973 57.1486 52.6869 58.4116C49.4305 59.7789 45.7293 61.6927 41.5476 63.3401C39.4554 64.1528 37.2533 64.8777 34.9195 65.3198C33.7855 65.5614 32.506 65.7206 31.3885 65.7865C30.617 65.8414 29.8784 65.7536 29.4116 65.5861ZM26.7154 149.706C26.1607 149.151 25.6473 148.564 25.1311 147.968C34.903 142.018 45.3367 137.249 55.5973 132.221C60.5039 129.816 65.2512 126.873 70.2209 124.63C72.9227 123.421 75.7865 122.458 78.1835 120.761C79.1637 122.191 80.1933 123.575 81.2888 124.91C79.3257 125.739 77.3872 126.552 75.5037 127.394C73.027 128.449 70.6081 129.695 68.3319 130.75C63.7301 132.93 59.348 135.019 55.1882 136.999C53.096 137.979 51.0697 138.946 49.101 139.885C47.0967 140.772 45.1417 141.647 43.2445 142.493C39.4472 144.198 35.8613 145.796 32.4758 147.317C30.7872 148.089 29.1535 148.781 27.5363 149.56C27.3112 149.681 27.0943 149.786 26.8609 149.898C26.8197 149.835 26.773 149.772 26.7154 149.706ZM2.28141 151.861C1.56478 150.568 2.45988 148.885 3.50324 147.663C4.54935 146.417 5.74922 145.436 6.8173 144.574C7.90459 143.74 8.91775 143.048 9.82658 142.46C10.1972 142.21 10.5432 141.993 10.8864 141.785C11.9106 141.293 13.0445 140.755 14.3048 140.047C14.5711 139.885 14.8292 139.734 15.1011 139.572L15.4964 139.33L15.6008 139.275L15.7793 139.146L15.9797 139.009C16.4849 138.655 17.0313 138.278 17.5804 137.891C18.6732 137.136 19.9033 136.403 21.1828 135.623C22.4705 134.868 23.8296 134.077 25.3013 133.281C26.7071 132.51 28.2447 131.562 29.796 130.662C30.5758 130.195 31.3638 129.728 32.1683 129.245C32.9893 128.77 33.7471 128.215 34.5488 127.686C36.1276 126.615 37.7586 125.505 39.4334 124.371C41.0644 123.229 42.7393 122.071 44.4581 120.887C46.1878 119.723 48.0137 118.573 49.8396 117.373C50.2982 117.076 50.7402 116.785 51.1905 116.497C51.6737 116.217 52.1405 115.934 52.6238 115.651C53.571 115.088 54.5293 114.517 55.5013 113.941C57.4315 112.79 59.3864 111.615 61.3743 110.44C77.3954 101.102 91.9778 92.7932 102.337 86.3024C104.509 84.8883 106.461 83.5127 108.158 82.1783C108.842 81.7033 109.542 81.2366 110.259 80.7451C111.055 80.1822 111.81 79.5068 112.639 78.8478C113.04 78.5266 113.46 78.1806 113.878 77.8346C114.265 77.464 114.657 77.0631 115.061 76.6677C115.536 76.1927 116.016 75.704 116.508 75.2125C117.142 75.196 117.787 75.196 118.405 75.2207C118.946 75.229 119.276 75.2372 119.781 75.2537C120.297 75.2619 120.772 75.3333 121.252 75.3663C121.686 75.4047 122.131 75.4376 122.54 75.4926C110.66 83.2382 102.826 88.444 97.9607 91.7581C92.8949 95.2314 91.0525 96.6701 91.1733 96.8486C91.3024 97.0243 93.3672 95.9068 98.6032 92.6724C103.793 89.4654 112.118 84.147 124.753 75.9209C124.888 75.9511 125.025 75.984 125.154 76.0005C125.571 76.1049 125.967 76.201 126.351 76.3053C127.526 76.621 128.581 76.9093 129.594 77.1839C126.955 78.7435 124.317 80.2234 121.799 81.6539C118.759 83.359 115.857 84.9927 113.089 86.5522C107.54 89.6494 102.538 92.4555 98.0239 94.9815C89.0097 100.042 81.9808 103.982 76.6157 106.999C71.2588 110.022 67.5741 112.128 65.243 113.512C62.9174 114.88 61.9289 115.525 61.9756 115.621C62.0333 115.717 63.1013 115.25 65.5313 114.045C67.953 112.837 71.7256 110.874 77.1456 107.963C82.5738 105.066 89.6687 101.214 98.724 96.2445C103.254 93.7432 108.279 90.9673 113.836 87.8894C116.612 86.3436 119.525 84.7181 122.565 83.013C125.484 81.3656 128.515 79.677 131.716 77.7468C132.529 77.9307 133.279 78.1065 133.954 78.2135C134.638 78.3179 135.247 78.3893 135.788 78.4305C136.359 78.5732 136.936 78.7352 137.532 78.889C138.257 79.0894 139.012 79.2899 139.775 79.5068C101.442 98.8173 76.2532 111.566 60.6824 119.641C52.7501 123.734 47.3136 126.639 43.8567 128.52C42.127 129.487 40.9134 130.195 40.1226 130.667C39.3428 131.151 38.9969 131.384 39.0298 131.442C39.0628 131.48 39.4719 131.329 40.2928 130.942C41.1303 130.555 42.3933 129.937 44.145 129.061C47.6595 127.323 53.1866 124.588 61.1794 120.624C69.6581 116.401 80.9264 110.794 95.5225 103.482C95.5225 103.54 95.517 103.595 95.517 103.661C95.5555 104.265 95.701 104.762 95.863 105.278C96.4725 107.216 97.5351 109.201 97.9058 111.261L97.9195 111.365C98.1309 112.241 98.1776 113.304 98.2572 114.503C98.2902 115.121 98.3479 115.758 98.4604 116.434C98.4769 116.505 98.4906 116.576 98.5071 116.651C93.8751 119.498 89.0262 121.645 84.3036 123.647C82.8484 121.903 81.4646 120.091 80.218 118.185C80.0258 117.101 78.6008 116.23 77.5547 117.244C74.4905 120.253 69.6498 121.379 65.9102 123.397C60.8828 126.131 55.7676 128.699 50.6194 131.2C41.0012 135.881 31.3089 140.401 22.2124 146.071C21.5919 146.458 21.4079 147.051 21.504 147.608C21.3585 148.072 21.4491 148.605 21.8912 149.055C22.6133 149.786 23.275 150.574 23.9669 151.34C23.6429 151.491 23.3052 151.661 22.9922 151.815C20.09 153.237 17.3306 154.42 14.6837 155.008C12.0451 155.626 9.55201 155.53 7.36369 154.879C6.23795 154.516 5.18635 154.129 4.27753 153.632C3.39067 153.133 2.65207 152.512 2.28141 151.861ZM0.480228 149.047C0.0299337 150.052 -0.107351 151.507 0.496702 152.754C1.12272 153.978 2.16059 154.797 3.22318 155.458C4.29126 156.092 5.46641 156.559 6.68001 156.985C9.22253 157.847 12.2236 158.006 15.1834 157.38C18.168 156.793 21.1032 155.563 24.1097 154.162C25.5896 153.462 27.1107 152.737 28.6868 151.99C30.2299 151.274 31.9212 150.574 33.6098 149.835C37.0117 148.355 40.6223 146.787 44.4279 145.129C46.3334 144.302 48.2801 143.449 50.2982 142.581C52.286 141.647 54.3426 140.689 56.4348 139.709C60.6412 137.746 65.048 135.67 69.691 133.506C72.0551 132.43 74.2818 131.271 76.7529 130.234C79.1719 129.149 81.7062 128.119 84.3036 127.04C89.2596 124.951 94.5011 122.721 99.6411 119.627C100.253 120.582 100.992 121.395 101.774 122.134C102.843 123.125 104.034 123.984 105.264 124.772C106.503 125.569 107.799 126.302 109.133 126.985C109.841 127.34 110.421 127.636 111.2 127.957C111.947 128.287 112.689 128.633 113.485 128.836C114.273 129.075 115.036 129.341 115.937 129.478C118.559 129.857 120.489 130.113 123.144 129.413C123.191 129.816 123.24 130.217 123.312 130.629C124.012 134.723 124.978 137.916 125.992 137.916C126.922 137.908 127.51 134.264 126.788 130.066C126.667 129.366 126.53 128.69 126.392 128.031C127.238 127.507 128.018 126.881 128.685 126.14C130.028 124.701 130.928 122.867 131.25 120.978C131.62 119.078 131.324 117.18 130.744 115.508C130.687 115.338 130.632 115.171 130.566 115.017C130.89 114.6 131.211 114.157 131.532 113.699C133.204 111.044 134.33 108.551 134.629 107.071C135.772 107.697 136.936 108.213 138.111 108.688C138.699 108.921 139.303 109.163 139.912 109.418L140.283 109.572L140.7 109.781L141.554 110.215C142.705 110.827 143.918 111.519 145.277 112.145C145.945 112.466 146.678 112.749 147.433 113.015L148.712 113.361C149.113 113.441 149.437 113.474 149.805 113.537C151.527 113.721 153.144 113.65 154.832 113.24C155.604 113.062 156.37 112.79 157.084 112.452C157.067 113.136 157.062 113.858 157.092 114.63C157.205 116.851 157.551 118.894 158.138 120.341C158.709 121.782 159.442 122.554 159.876 122.4C160.359 122.233 160.502 121.299 160.598 119.923C160.656 118.54 160.727 116.618 160.607 114.47C160.543 112.949 160.398 111.519 160.181 110.289C161.161 109.298 161.944 108.109 162.394 106.796C162.965 105.157 163.028 103.427 162.723 101.876C162.666 101.514 162.545 101.143 162.441 100.789C163.069 100.138 163.72 99.3746 164.354 98.5042C165.217 97.2028 165.876 95.9315 166.293 94.8442C167.21 95.2231 168.127 95.5856 169.069 95.9233C172.309 97.0902 175.406 97.675 177.877 98.8914C180.579 100.138 183.272 101.426 185.952 102.189C186.628 102.381 187.262 102.639 187.929 102.768C188.604 102.906 189.263 103.048 189.917 103.186C190.238 103.257 190.559 103.339 190.881 103.386C191.227 103.427 191.556 103.46 191.894 103.499C192.231 103.532 192.547 103.565 192.885 103.595C193.214 103.595 193.552 103.589 193.882 103.589C196.528 103.556 199.005 102.711 200.968 101.544C201.457 101.247 201.948 100.959 202.374 100.621C202.8 100.297 203.258 100.009 203.645 99.6547C204.041 99.317 204.425 98.9875 204.804 98.6662C205.197 98.2956 205.576 97.9249 205.93 97.4828C206.276 97.0326 206.564 96.5191 206.789 95.9782C206.976 95.4401 207.08 94.9184 207.135 94.4187C207.185 93.9272 207.217 93.4686 207.217 93.0431C207.217 92.5928 207.176 92.126 207.135 91.6757C207.08 91.0414 206.935 90.4374 206.751 89.8498C207.489 89.232 207.627 86.4973 207.023 83.3041C206.693 81.437 206.18 79.7978 205.617 78.694C206.526 77.6891 207.226 76.459 207.572 75.1631C207.94 73.782 207.901 72.3735 207.684 71.1187C207.61 70.5393 207.401 69.927 207.201 69.3477C207.264 69.2928 207.322 69.2516 207.377 69.2049C208.036 68.7217 208.818 67.9089 209.62 66.8546C210.433 65.7948 211.053 64.6114 211.278 63.6476C211.383 63.2056 211.666 62.4725 211.687 61.8849C212.58 62.0771 213.513 62.2226 214.505 62.272C215.79 62.3187 217.157 62.2144 218.533 61.7641C219.175 61.5554 219.812 61.2671 220.424 60.9129C220.438 61.3055 220.446 61.7256 220.487 62.143C220.858 66.1956 222.346 68.9303 223.272 68.7793C224.26 68.6173 224.298 65.3445 223.994 61.83C223.873 60.4214 223.681 59.0953 223.406 58.008L223.656 57.6153L223.744 57.5028L223.752 57.4698L223.81 57.3819L223.826 57.3243L223.914 57.1156L224.098 56.6983C224.164 56.5445 224.172 56.4402 224.244 56.248L224.331 55.6851C224.927 54.0926 224.864 52.2338 225.594 50.7456C226.27 49.3865 227.766 48.5902 228.617 47.3519C229.23 46.4266 229.576 45.6935 229.913 44.9384C230.084 44.5678 230.226 44.2081 230.355 43.8676C230.468 43.4997 230.564 43.1455 230.638 42.816C230.918 41.5036 230.847 40.6359 230.397 40.452C229.946 40.2653 229.222 40.7568 228.433 41.6491C228.233 41.866 228.041 42.1241 227.838 42.3877C227.596 42.6705 227.365 42.9753 227.116 43.3048C226.641 43.9335 226.116 44.771 225.707 45.4052C225.119 46.2427 224.532 47.1268 224.06 47.9779C223.865 47.6484 223.656 47.319 223.439 47.0307C221.679 44.6886 219.175 43.4668 216.827 42.816C216.119 42.6293 215.413 42.4289 214.697 42.2449C216.039 41.2235 217.182 40.0978 218.252 38.994C220.054 37.105 221.55 35.2379 223.085 33.5163C225.899 30.1062 229.167 27.7586 232.102 25.3534C232.832 24.7658 233.565 24.1316 234.265 23.5357C234.891 22.8932 235.504 22.2425 236.108 21.6302C237.305 20.4002 238.302 19.2003 239.301 18.0993C240.281 17.0284 241.165 15.9521 242.041 15.0845C242.944 14.1811 243.65 13.3712 244.567 12.542C244.913 12.2042 245.226 11.8253 245.509 11.4464C245.685 11.3339 245.976 11.0291 246.313 10.4415C246.459 10.1367 246.61 9.75783 246.723 9.2993C247.047 8.46461 247.214 7.61893 247.165 6.80621C247.134 5.8507 246.756 5.03798 246.355 4.41745C245.935 3.81614 245.454 3.38781 245.017 3.0748C244.784 2.92928 244.584 2.79474 244.391 2.68217C244.183 2.58332 243.996 2.48723 243.829 2.41584C242.703 1.87768 240.764 1.9573 239.534 2.00398C236.067 2.0534 232.165 3.54981 228.167 5.85894C224.139 8.17356 219.754 10.9961 214.609 14.247C213.321 15.0515 212.017 15.9192 210.636 16.7401C209.252 17.5282 207.819 18.3409 206.339 19.1783C203.404 20.8669 200.219 22.6434 196.833 24.5187C196.004 24.9827 195.145 25.4577 194.266 25.941C193.431 26.4489 192.577 26.9871 191.718 27.5335C189.98 28.6043 188.22 29.7218 186.394 30.8558C182.742 33.1072 178.994 35.5839 175.052 38.1593C171.087 40.7073 166.977 43.4997 162.666 46.3854C161.581 47.1021 160.494 47.8434 159.385 48.582C158.814 48.9691 158.322 49.2657 157.784 49.5951C157.221 49.9164 156.666 50.2321 156.062 50.5616C154.053 51.6791 151.809 52.6923 149.734 54.5429C145.898 53.6258 141.9 52.7335 137.765 52.0086C135.409 51.6791 133.092 51.3579 130.791 51.0339C129.665 50.946 128.531 50.8582 127.381 50.7868C126.272 50.7209 125.187 50.6495 124.141 50.5616C122.04 50.3502 120.11 49.9493 118.334 49.2025C118.238 49.1696 118.051 49.1037 118.037 49.0982L117.683 48.9279L116.975 48.582C116.508 48.3651 116.033 48.1399 115.566 47.9148C114.633 47.4727 113.71 47.0307 112.793 46.6023C109.149 44.8835 105.778 43.0494 102.497 41.5997C101.692 41.2235 100.888 40.8446 100.1 40.4822C99.5944 40.2323 99.1029 39.9852 98.6114 39.7189C101.78 37.7557 104.46 35.6415 106.857 33.7031C108.32 32.5444 109.704 31.4516 111.03 30.4137C112.318 29.4308 113.669 28.5302 114.924 27.6378C116.187 26.729 117.376 25.8613 118.455 24.9031C118.721 24.6615 118.985 24.4363 119.251 24.1947C119.501 23.9311 119.742 23.673 119.976 23.4232C120.072 23.3188 120.335 23.0772 120.481 22.8685C120.659 22.6516 120.802 22.41 120.964 22.1931C121.269 21.7346 121.574 21.2925 121.881 20.8587L121.994 20.6885C122.002 20.6335 122.131 20.5759 122.027 20.5457L121.695 20.3123C121.478 20.1668 121.261 20.0212 121.052 19.8675C120.835 19.7329 120.626 19.571 120.418 19.4419C120.201 19.3211 119.989 19.2085 119.773 19.1042C118.847 18.5496 118.317 18.4782 117.7 18.3244C116.453 18.0993 115.324 18.2283 114.344 18.404C112.398 18.8324 110.959 19.5215 109.792 20.0789C109.487 20.2217 109.204 20.3672 108.946 20.5045C108.353 20.65 107.694 20.8257 106.978 21.0344C104.597 21.751 101.563 22.7313 97.5187 24.1645C95.5308 24.8784 93.3754 25.7872 90.9949 26.7455C89.8225 27.2205 88.5759 27.7504 87.2882 28.2501C86.0966 28.6757 84.8582 29.1342 83.5733 29.6175C82.615 28.305 81.6018 26.8333 80.5393 25.153C80.1302 24.461 79.6963 23.7526 79.2598 23.0141C78.8259 22.2425 78.3921 21.4545 77.9418 20.6253C77.066 18.9916 76.0281 17.1657 75.1193 15.3151C74.1857 13.4014 73.2357 11.2707 72.0386 9.05768C70.8167 6.8721 69.4494 4.49158 67.1073 2.44055C65.9431 1.42739 64.3973 0.548763 62.6456 0.285176C61.7587 0.114943 60.7867 0.156128 59.8038 0.427952C58.8318 0.686048 57.89 1.35325 57.2063 2.18245C55.9927 3.91224 55.7044 5.7601 55.7099 7.57226C55.7099 9.37343 56.0422 11.1087 56.4595 12.8083C56.8686 14.5134 57.415 16.1937 57.923 17.8659C58.398 19.5298 58.9444 21.2513 59.3699 23.0305C60.1744 26.0453 60.7126 29.2221 60.9789 32.5032C60.924 32.5279 60.8581 32.5444 60.8114 32.5773C60.578 32.6734 60.3529 32.786 60.1277 32.8986C59.9328 33.0441 59.7324 33.2033 59.5484 33.3571C59.1366 33.6619 58.9196 34.0737 58.6478 34.4334C58.4227 34.7958 58.2936 35.183 58.1399 35.5537C58.0273 35.9133 57.9477 36.2675 57.868 36.6135C57.8104 36.9595 57.7939 37.2889 57.761 37.6102L57.739 37.8518L57.7308 38.022L57.739 38.077V38.1758L57.7774 38.5849C57.7774 39.0434 57.923 39.815 58.1069 40.4355C58.2442 40.7238 58.3897 41.0066 58.5352 41.262C58.6945 41.5118 58.8949 41.7123 59.0816 41.9237C59.6363 42.4618 60.1827 42.7831 60.6494 43.0165C60.4243 43.162 60.1744 43.3212 59.9575 43.475C58.3568 44.5376 56.8768 45.526 55.5177 46.4348C55.1169 46.7149 54.705 46.9895 54.3124 47.2641C53.7879 47.5194 53.2333 47.8022 52.654 48.1152C51.4074 48.7659 50.0181 49.4908 48.4558 50.3035C46.9292 51.108 45.2406 52.0498 43.4202 53.0712C42.5196 53.5764 41.5888 54.1146 40.6223 54.6637C39.6805 55.2266 38.7333 55.8361 37.7503 56.4484C36.7701 57.0607 35.7652 57.7032 34.7438 58.3457C33.9228 58.8701 32.7312 59.4247 31.6219 60.0123C30.4797 60.6219 29.3155 61.2589 28.1239 62.1018C27.5363 62.5356 26.9268 62.9859 26.3063 63.7739C26.0152 64.1858 25.6473 64.7322 25.5814 65.6492C25.5649 66.1242 25.6143 66.5416 25.8971 67.066C25.9685 67.1923 26.0482 67.3214 26.1141 67.4175L26.1937 67.5163L26.3776 67.7332L26.5232 67.876C27.3606 68.6585 28.3573 69.0045 29.1947 69.1637C30.0459 69.3175 30.8174 69.3175 31.5588 69.2845C33.0222 69.1802 34.2852 68.9962 35.6032 68.7052C38.2089 68.1506 40.6058 67.2829 42.7859 66.3412C47.1461 64.4274 50.7237 62.272 53.7742 60.6383C54.3206 60.35 54.8423 60.0672 55.3585 59.7927C56.7643 59.4 58.4309 58.9333 60.3282 58.4116C61.896 57.9448 63.667 57.478 65.4599 56.8575C66.3687 56.5527 67.3105 56.2315 68.266 55.9103C69.2874 55.5643 70.2127 55.0975 71.2341 54.6637C72.2473 54.2271 73.2604 53.7686 74.2736 53.3046C74.4685 53.2057 74.6772 53.1096 74.8776 53.0218C76.429 53.9141 77.9501 54.7982 79.43 55.6522C80.2345 56.1272 81.0307 56.5857 81.8105 57.036C82.615 57.4451 83.3948 57.8569 84.1828 58.2661C87.2964 59.8833 90.281 61.4264 93.1036 62.8431C94.5176 63.5488 95.9097 64.2489 97.2523 64.9326C98.5812 65.6492 99.8662 66.3412 101.113 67.0248C102.368 67.7003 103.614 68.3345 104.773 69.0182C105.94 69.7101 107.074 70.402 108.175 71.061C109.27 71.7364 110.363 72.3817 111.448 73.0077C111.988 73.3235 112.502 73.6365 113.065 73.9083L113.403 74.0868C113.403 74.1664 113.386 74.246 113.372 74.3366C113.348 74.441 113.315 74.5535 113.273 74.6661C113.235 74.6963 113.21 74.7293 113.169 74.7704C112.801 75.1548 112.455 75.5255 112.101 75.8962C111.714 76.2339 111.33 76.5551 110.951 76.8764C110.187 77.5134 109.487 78.1724 108.738 78.7352C107.991 79.2899 107.258 79.828 106.552 80.3442C105.152 81.3903 103.735 82.2415 102.464 83.0954C100.767 84.147 99.2484 85.0888 97.8728 85.9427C87.6012 91.6043 74.1061 98.9463 59.5951 107.4C57.6099 108.597 55.6221 109.781 53.6836 110.948C52.7116 111.535 51.7451 112.115 50.7896 112.691C50.3146 112.982 49.8396 113.271 49.3564 113.553C48.8896 113.866 48.4311 114.171 47.9588 114.487C46.1329 115.701 44.3372 116.876 42.6102 118.073C40.8887 119.319 39.2 120.541 37.5664 121.733C31.1085 126.543 25.1064 130.179 19.8566 133.515C18.5854 134.393 17.3635 135.214 16.268 136.09C15.7298 136.516 15.1999 136.949 14.6672 137.353L14.4833 137.504L14.4339 137.537C14.4119 137.562 14.3707 137.595 14.3707 137.595L13.9836 137.867C13.7282 138.053 13.4701 138.229 13.2285 138.399C11.323 139.668 9.43944 140.689 8.0254 141.656C6.67452 142.515 5.71627 143.328 5.08202 143.987C4.14024 144.662 3.14355 145.467 2.17707 146.521C1.55929 147.205 0.930522 147.993 0.480228 149.047Z" fill="black"/>
</svg>
