<svg width="247" height="142" viewBox="0 0 247 142" fill="none" xmlns="http://www.w3.org/2000/svg">
<mask id="mask0_206_379" style="mask-type:luminance" maskUnits="userSpaceOnUse" x="0" y="0" width="247" height="142">
<path d="M0.329346 0.402344H247V141.949H0.329346V0.402344Z" fill="white"/>
</mask>
<g mask="url(#mask0_206_379)">
<path d="M218.022 131.513C221.937 131.041 225.839 130.42 229.559 129.039C231.149 128.446 232.728 127.792 234.249 127.043C235.63 126.37 236.385 125.151 236.547 123.614C236.844 120.764 237.126 117.911 237.357 115.061C238.131 105.404 237.983 95.7173 237.978 86.0469C237.978 83.0074 237.659 79.9624 237.533 76.923C237.343 72.2717 237.201 67.615 237.047 62.9583C237.033 62.519 237.061 62.0742 237.074 61.4949C237.681 61.569 238.214 61.5773 238.705 61.7036C243.167 62.8705 246.152 59.3587 246.489 55.9953C246.725 53.59 246.879 51.1711 246.907 48.7521C246.948 46.0613 246.833 43.3733 246.725 40.6825C246.69 39.8011 246.569 38.8896 246.319 38.0411C245.605 35.603 244.446 33.5327 241.778 33.1483C240.767 31.6601 239.998 30.2049 238.928 29.0298C237.862 27.8656 236.495 26.976 235.18 25.9107C235.078 23.5192 235.073 21.0041 234.828 18.5165C234.6 16.1113 234.202 13.7198 233.716 11.353C233.469 10.1394 232.942 8.96695 232.409 7.83573C231.695 6.3201 230.616 5.21908 228.837 4.8841C226.201 4.39262 223.607 3.65128 220.96 3.2257C217.517 2.66558 214.019 2.41023 210.573 1.85011C206.605 1.21036 202.594 0.880875 198.563 0.710641C194.81 0.548645 191.048 0.4498 187.289 0.441563C183.528 0.436071 179.769 0.576103 176.007 0.650236C175.293 0.663965 174.571 0.663965 173.857 0.691422C170.637 0.825961 167.386 0.760064 164.198 1.16368C158.781 1.84461 153.3 1.79794 147.924 3.01703C142.425 4.26357 136.81 5.01864 131.277 6.1581C127.422 6.95161 123.628 8.05813 119.8 8.99441C116.492 9.80439 113.194 10.6858 109.858 11.3392C106.678 11.9598 103.592 12.8686 100.531 13.8872C95.1739 15.6747 89.7814 17.3249 84.2763 18.6126C80.004 19.6093 75.8113 20.9492 71.5719 22.0831C66.7203 23.3764 61.8522 24.6037 56.995 25.8557C56.3004 26.0397 55.5645 26.1276 54.9193 26.4159C53.8128 26.9156 52.6815 26.9815 51.5091 26.8881C50.323 26.7948 49.211 26.976 48.1045 27.4537C47.3768 27.7695 46.5669 27.9727 45.7788 28.0331C44.5735 28.1292 43.5219 28.5246 42.517 29.1533C40.4412 30.4383 38.2117 31.2428 35.7927 31.7123C32.8137 32.2999 29.895 33.217 26.9489 33.9967C25.9988 34.2548 25.0681 34.5898 24.1043 34.8067C18.4976 36.0725 13.0117 37.6924 7.75643 40.0428C6.85859 40.4491 5.93604 40.7978 5.05192 41.2289C3.96188 41.7616 3.19309 42.6182 2.72632 43.7357C1.96576 45.5561 1.27934 47.3957 0.996528 49.3699C0.408949 53.5571 0.329324 57.7607 0.362272 61.9726C0.417186 68.5184 0.441897 75.0559 0.529759 81.5989C0.570945 84.3748 0.713722 87.1534 0.834532 89.9293C0.941615 92.3483 1.03497 94.7618 1.21069 97.1752C1.47977 101.016 1.71041 104.863 2.14148 108.691C2.49293 111.804 4.06073 114.226 6.95469 115.687C8.57191 116.502 10.2358 117.123 12.0342 117.359C13.267 117.513 14.0496 118.067 14.6893 119.259C16.1253 121.941 18.3081 123.817 21.2872 124.855C24.5574 125.991 27.2674 125.176 29.7522 123.062C30.5018 122.427 31.1223 121.653 31.8966 120.838C39.115 121.719 46.4076 122.4 53.7249 123.674C55.0675 126.162 57.0609 128.062 59.3453 129.679C61.476 131.194 63.8483 131.823 66.4567 131.593C67.7307 131.485 68.9086 131.161 69.9877 130.434C71.7669 129.234 73.5735 128.075 75.5147 126.801C78.8508 126.955 103.112 130.082 105.72 130.722C106.3 131.639 106.915 132.625 107.546 133.594C110.094 137.551 113.768 140.011 118.197 141.318C121.113 142.18 124.086 141.743 126.95 140.928C129.553 140.187 131.851 138.723 134.094 137.254C134.896 136.727 135.489 135.892 136.151 135.165C136.681 134.572 137.153 133.937 137.584 133.405C149.124 133.932 160.458 134.443 171.782 134.956C174.618 139.33 178.75 141.202 183.824 141.285C184.45 141.29 185.079 141.249 185.705 141.285C189.269 141.472 192.424 140.307 195.241 138.232C197.251 136.749 199.129 135.085 201.24 133.358C206.63 132.765 212.333 132.194 218.022 131.513ZM176.345 134.599C177.281 134.552 177.894 134.517 178.514 134.484C179.222 134.437 179.936 134.377 180.645 134.344C181.263 134.308 181.891 134.322 182.512 134.289C183.226 134.248 183.931 134.168 184.64 134.121C185.26 134.086 185.886 134.099 186.507 134.053C187.215 133.998 187.924 133.91 188.629 133.836C189.25 133.77 189.87 133.688 190.491 133.641C191.196 133.589 191.913 133.534 192.627 133.528C193.187 133.52 193.813 133.191 194.346 133.723C189.486 139.006 180.354 139.047 176.345 134.599ZM109.894 130.082C109.69 128.399 109.69 126.694 109.677 124.989C109.63 119.967 110.061 114.973 110.533 109.987C110.668 108.564 110.984 107.156 111.234 105.747C111.409 104.756 111.86 103.899 112.554 103.153C113.908 101.697 115.143 101.513 116.821 102.634C118.856 103.996 119.726 106.03 120.264 108.685C119.726 108.199 119.471 107.963 119.207 107.735C118.021 106.711 117.01 106.489 115.83 107.244C115.182 107.653 114.482 108.282 114.24 108.963C113.463 111.137 112.587 113.328 112.151 115.56C111.511 118.828 111.895 122.178 112.878 125.385C113.221 126.497 113.606 127.548 113.559 128.762C113.532 129.429 113.869 130.157 114.171 130.796C115.102 132.751 116.95 133.009 118.518 131.463C119.578 130.426 120.075 129.08 120.594 127.746C120.811 127.191 120.959 126.606 121.2 125.857C121.409 126.241 121.552 126.376 121.557 126.518C121.585 127.941 121.371 129.377 121.862 130.777C121.969 131.082 121.862 131.485 121.769 131.823C121.335 133.372 120.94 134.942 119.718 136.134C119.509 136.337 119.471 136.702 119.342 137.004C120.278 137.315 120.959 137.111 121.39 136.458C121.983 135.568 122.51 134.632 122.988 133.677C123.386 132.886 123.669 132.051 124.045 131.134C126.889 131.458 129.638 131.76 132.381 132.092C133.575 132.232 133.831 132.968 133.043 133.959C131.964 135.318 130.555 136.282 129.072 137.12C124.119 139.909 119.166 140.03 114.375 136.79C112.022 135.198 110.242 133.048 109.894 130.082ZM116.645 111.025C116.099 110.706 115.742 110.497 115.371 110.289C115.38 109.273 115.89 108.63 116.813 108.315C117.636 108.496 118.021 109.144 118.29 109.783C118.809 111.011 119.347 112.263 119.638 113.559C120.495 117.353 120.412 121.186 119.704 124.989C119.462 126.296 119.004 127.57 118.559 128.822C118.188 129.868 117.447 130.629 116.247 131.107C115.876 130.656 115.514 130.217 115.13 129.739C115.654 129.363 116.047 129.072 116.544 128.715C114.435 126.417 113.674 123.679 113.444 120.783C113.328 119.366 113.403 117.933 113.458 116.502C113.518 114.918 114.171 113.578 115.311 112.472C115.736 112.054 116.113 111.596 116.645 111.025ZM56.185 112.768C55.8885 109.19 56.3278 105.626 56.9072 102.093C56.9813 101.656 57.1296 101.225 57.2833 100.808C57.7364 99.5667 58.4557 98.441 59.8643 98.408C61.1328 98.3806 61.9675 99.3635 62.4205 100.489C62.9779 101.892 63.4831 103.334 63.8538 104.803C64.8807 108.833 64.7187 112.971 64.8999 117.076C65.0344 119.995 64.6692 122.784 63.2497 125.379C63.1262 125.596 63.052 125.912 63.1207 126.134C63.1756 126.31 63.5325 126.565 63.6588 126.518C63.9636 126.403 64.3123 126.195 64.4688 125.917C65.0015 125 65.4518 124.036 65.957 123.048C68.1426 123.317 70.2046 123.693 72.6153 124.591C72.165 125.008 71.8822 125.231 71.6378 125.486C69.7186 127.534 67.2255 128.053 64.5704 128.182C63.3431 128.243 62.297 127.872 61.3277 127.145C59.1641 125.514 57.8901 123.331 57.1625 120.75C56.4157 118.133 56.4074 115.431 56.185 112.768ZM16.6525 114.264C16.1995 110.075 16.194 105.849 17.0561 101.684C17.2703 100.646 17.6821 99.6409 18.0995 98.6634C18.2477 98.3257 18.7008 98.117 19.0385 97.8205C20.1011 98.603 20.4663 99.6079 20.6475 100.673C20.8918 102.087 21.106 103.501 21.2735 104.924C21.5645 107.332 21.8419 109.729 22.056 112.142C22.1851 113.564 21.8474 115.116 22.3059 116.409C22.9127 118.128 21.5838 119.273 21.4575 120.857C23.7144 120.978 23.1625 118.531 24.5299 117.85C26.073 118.119 27.7643 118.141 29.2937 118.721C29.3294 119.05 29.409 119.253 29.3486 119.388C28.297 121.727 26.537 123.155 23.9313 123.048C21.3751 122.946 19.1456 121.969 18.1269 119.407C17.4735 117.762 16.8392 116.019 16.6525 114.264ZM3.21231 72.9664C5.53242 72.1921 15.1753 71.47 19.1181 71.5853C19.2334 72.4337 19.3954 73.1284 19.4092 73.8231C19.508 79.2815 19.5767 84.7455 19.6563 90.2066C19.67 91.1621 19.5492 92.1396 19.9007 93.0155C23.6073 93.2104 28.5798 92.9276 30.4743 92.4224C30.4936 89.9568 30.5073 87.4637 30.5292 84.9679C30.5485 82.3732 30.521 79.773 30.6034 77.1783C30.6775 74.6989 30.1833 72.2031 30.6555 69.5617C32.2398 69.4602 33.7417 69.386 35.2464 69.2734C36.7482 69.1581 38.2529 69.0044 39.8289 68.8534C40.1255 85.2507 40.3533 101.568 40.1914 117.924C38.2639 118.41 36.5258 117.771 34.7686 117.628C33.0745 117.493 31.3832 117.265 29.7 117.049C27.9455 116.826 26.1279 116.914 24.3871 115.991C24.2279 115.154 23.9917 114.3 23.9094 113.424C23.7199 111.28 23.5854 109.135 23.4646 106.994C23.3026 104.094 22.5228 101.346 21.4108 98.6909C21.139 98.0511 20.6942 97.4443 20.2109 96.9391C19.4613 96.1566 18.6871 96.1703 17.7974 96.7496C16.6443 97.5047 16.194 98.6497 15.9853 99.9182C15.4389 103.194 15.0545 106.467 15.384 109.803C15.5405 111.373 15.7135 112.979 15.4581 114.547C13.0062 114.709 12.4186 114.621 10.4307 113.814C5.96899 112.002 4.88444 110.593 4.54122 105.835C3.92619 97.1752 3.10522 88.5208 3.13817 79.8279C3.14641 77.516 3.18485 75.2042 3.21231 72.9664ZM32.1382 67.2965C35.1859 65.3581 36.8224 61.9809 39.6724 59.7761C40.1529 61.7722 40.1447 64.2571 39.6944 67.2636C37.3413 67.9171 32.7038 68.1532 30.6226 67.6809C30.6555 65.1274 30.6967 62.541 30.7297 59.9518C30.7434 58.9194 31.1745 58.093 31.8225 57.2885C33.3518 55.4241 34.807 53.4884 36.2897 51.5884C36.7812 50.9542 37.2946 50.3281 37.7724 49.6802C38.2996 48.98 38.7965 48.2661 39.6669 47.058C39.774 50.2348 39.7877 52.7334 39.969 55.221C40.098 56.9727 39.4912 58.2522 38.2776 59.4933C36.2156 61.5965 34.3156 63.8672 32.3689 66.0857C32.119 66.374 31.666 66.6925 32.1382 67.2965ZM21.3559 91.3571C21.2213 90.6432 21.0456 90.1517 21.0456 89.6602C21.0401 88.4137 21.1335 87.1672 21.1252 85.9179C21.1197 85.064 21.3971 84.3967 21.9764 83.7625C24.0714 81.4506 26.1197 79.0976 28.1954 76.7747C28.4178 76.5248 28.7226 76.3354 29.1317 76.0059C29.538 77.5764 29.2141 78.9905 29.3019 80.3853C29.3678 81.4094 28.9917 82.2524 28.3245 83.0623C26.7347 84.9816 25.2383 86.9777 23.6815 88.9244C23.028 89.7399 22.4487 90.6377 21.3559 91.3571ZM28.459 84.4983C28.5798 84.3556 28.8708 84.3556 29.247 84.2348C29.2415 86.6812 29.2415 88.9711 29.2333 91.5603C28.2421 91.5603 27.638 91.574 27.023 91.5603C26.3091 91.5465 25.5952 91.5465 24.8868 91.4779C24.3267 91.4257 23.6952 91.7085 23.0417 91.1759C24.8813 88.8915 26.6606 86.6812 28.459 84.4983ZM21.0786 79.0371C21.0127 76.6264 21.0401 74.213 21.0319 71.794C21.0319 70.7753 21.3229 69.8995 22.0039 69.0895C23.7941 66.9753 25.5129 64.7897 27.2866 62.6536C27.7314 62.1154 28.2558 61.6432 29.0246 60.8551C29.1729 61.6239 29.2937 61.9671 29.2937 62.3104C29.2745 64.7238 29.2333 67.1428 29.1866 69.5563C29.1591 70.984 29.4502 72.5408 28.9642 73.8011C28.4782 75.0559 27.2124 76.0114 26.2899 77.0959C25.9384 77.5078 25.6144 77.9334 25.2575 78.337C24.6644 79.0124 24.0576 79.6659 23.4646 80.3386C22.8303 81.0525 22.2043 81.7801 21.4575 82.6505C20.8177 81.3161 21.1143 80.1492 21.0786 79.0371ZM21.0868 67.4942C21.1801 65.3828 21.3229 63.1588 21.3559 60.9348C21.3696 59.8777 21.6936 59.0347 22.4267 58.2934C24.7523 55.9486 27.0642 53.5818 29.3815 51.2315C29.4282 51.1848 29.5435 51.1985 29.8346 51.1354C29.7248 53.4088 29.6781 55.6328 29.4831 57.8431C29.4365 58.4005 28.9971 58.9826 28.621 59.4521C26.4711 62.088 24.2883 64.7019 22.1027 67.3103C21.894 67.5464 21.6936 67.9171 21.0868 67.4942ZM21.8666 56.5471C21.5975 51.1299 21.732 48.689 22.4596 46.237C24.9061 45.7648 27.4348 45.2788 30.3068 44.7352C30.2574 45.6632 30.2107 46.3716 30.197 47.0717C30.1696 48.4885 29.6396 49.5923 28.5523 50.5643C26.4848 52.4094 24.5299 54.3863 22.5146 56.2918C22.3663 56.4346 22.1027 56.4538 21.8666 56.5471ZM32.1712 44.0542C34.6258 43.5078 37.0667 42.6374 39.6477 42.4095C40.2188 43.9334 39.8893 45.1195 38.986 46.2782C36.891 48.9525 34.8757 51.6955 32.8054 54.3918C32.3881 54.9299 31.8554 55.383 31.2816 55.976C30.9054 52.618 31.4051 46.0888 32.1712 44.0542ZM3.09699 70.8357C4.73617 69.1115 6.15844 67.6672 7.51207 66.1736C8.88766 64.6497 10.1946 63.0654 11.5235 61.4949C12.8497 59.9326 14.1512 58.3401 15.4856 56.7833C16.8008 55.2539 17.8304 53.461 19.5767 52.1266C19.7387 52.5576 19.9144 52.7938 19.9061 53.0244C19.8046 58.5378 19.6837 64.0484 19.5684 69.5343C15.999 70.1411 5.72736 70.9923 3.09699 70.8357ZM4.00032 58.8865C5.65872 56.6625 7.3638 54.4714 9.06339 52.2831C9.77727 51.3578 10.5131 50.4627 10.45 49.2079C13.2808 48.4748 16.0457 47.7472 18.8161 47.0388C19.2389 46.9317 19.6837 46.8713 20.4251 46.7285C20.6008 48.5489 20.3043 49.801 19.1373 50.902C17.9649 52.0003 16.8996 53.2194 15.8562 54.4467C12.0287 58.9469 8.22595 63.4773 4.40668 67.9775C4.14859 68.2822 3.79165 68.4964 3.22054 68.9769C3.30017 65.877 3.34684 63.1121 3.46766 60.3554C3.49511 59.8502 3.69829 59.2846 4.00032 58.8865ZM9.11555 50.0316C7.53952 52.154 5.96349 54.271 4.37099 56.3879C4.27764 56.5142 4.08818 56.5746 3.93442 56.6432C3.89324 56.657 3.8191 56.5828 3.61592 56.4675C3.86029 54.6279 3.48962 52.6867 3.99483 50.7263C5.55164 49.93 7.25123 50.0316 9.11555 50.0316ZM40.3753 33.6151C40.4632 36.1878 40.2188 38.5601 39.796 40.9049C29.1125 43.4474 18.5113 45.9735 7.91019 48.4885C6.7927 48.7521 5.64499 48.9251 4.31058 49.1832C3.90697 45.6028 5.13429 43.549 8.11887 42.3958C13.6377 40.2652 19.346 38.7825 25.0543 37.2806C27.045 36.7616 29.0246 36.2015 31.007 35.6551C33.5934 34.9495 36.1771 34.2274 38.7773 33.5657C39.2413 33.4586 39.7685 33.5931 40.3753 33.6151ZM52.1626 29.8535C52.1955 30.2708 52.2834 30.7156 52.2559 31.1467C51.6629 40.7978 51.7041 50.4764 50.9298 60.1193C50.8556 61.0089 50.8749 61.9122 50.8666 62.8101C50.8611 68.1807 50.8062 73.5512 50.8611 78.9301C50.9353 85.9124 51.0698 92.8947 51.2263 99.8825C51.3004 103.194 51.4872 106.508 51.608 109.816C51.7041 112.499 51.7919 115.182 51.8523 117.872C51.8661 118.539 52.0061 119.259 51.6491 119.846C50.2269 120.008 50.5591 118.221 49.2714 118.133C49.1615 118.74 49.049 119.355 48.9282 119.995C47.7887 119.772 47.58 118.754 46.965 118.141C46.8716 118.045 46.6492 118.081 46.4598 118.054C46.3198 118.457 46.177 118.869 45.9079 119.652C45.2874 119.091 44.9249 118.721 44.5048 118.41C44.2358 118.207 43.7992 117.892 43.6152 117.985C42.5389 118.545 42.2671 117.614 42.0941 117.057C41.8031 116.132 41.696 115.129 41.663 114.157C41.5395 110.223 41.4406 106.28 41.3995 102.343C41.3034 93.5674 41.2292 84.7949 41.1963 76.0196C41.1825 72.5271 41.3583 69.0373 41.3528 65.5448C41.3391 60.3554 41.1551 55.1606 41.2045 49.9712C41.2512 45.0509 41.4736 40.1251 41.6685 35.2048C41.7152 34.0599 41.9321 32.8985 42.9425 32.1324C43.3873 32.3191 43.7772 32.4811 44.1616 32.6431C44.5131 32.2175 44.8151 31.8469 45.1254 31.4762C45.4631 31.7727 45.7047 31.9841 45.9738 32.2175C46.5284 31.619 46.9924 31.1192 47.451 30.6278C47.9287 31.0122 48.2198 31.8414 48.7799 31.1C49.3922 30.2845 49.6201 31.133 50.0182 31.2675C50.9408 31.1275 50.8941 29.6119 52.1626 29.8535ZM54.4607 91.3104C55.4108 91.6536 55.7485 91.0139 56.1246 90.5691C57.4536 88.993 58.733 87.3758 60.0482 85.7916C60.2953 85.495 60.6523 85.2781 61.1053 84.9074C61.5639 87.3896 61.0724 89.5779 61.0504 91.9117C59.5156 91.9721 58.0851 92.1588 56.6848 92.0325C55.2213 91.898 53.659 92.6036 52.1681 91.607C52.2642 87.2001 52.3575 82.818 52.4591 78.3178C53.3021 77.3925 54.1972 76.404 55.1005 75.4266C55.1417 75.3799 55.2762 75.4183 55.5041 75.4183C55.8556 78.5676 55.6743 81.7801 56.3882 84.9074C56.5145 83.6609 56.5145 82.4226 56.5145 81.1815C56.509 78.9438 56.4761 76.706 56.5283 74.4683C56.542 73.8752 56.7232 73.2025 57.0472 72.7111C58.2745 70.8357 59.5897 69.0236 60.8774 67.1895C61.0724 66.9067 61.3003 66.5964 61.8467 66.9671C61.8 67.777 61.7533 68.6529 61.6984 69.5343C61.638 70.52 61.5309 71.503 61.5089 72.4887C61.4568 75.1685 61.3607 77.8592 61.4211 80.5418C61.4485 81.7142 61.1108 82.623 60.3777 83.4714C59.2657 84.7592 58.2553 86.1485 57.0746 87.3621C55.9571 88.5263 55.2817 89.9211 54.4607 91.3104ZM154.017 22.8108C153.893 19.6285 153.773 16.611 153.652 13.4013C155.782 12.8082 157.669 12.2892 159.555 11.7566C163.896 10.5375 168.358 10.1394 172.833 9.88402C174.887 9.7687 176.952 9.59297 179.006 9.61494C182.767 9.65612 186.521 9.85656 190.274 9.93069C192.687 9.97737 195.106 9.90324 197.52 9.87852C198.234 9.87029 198.948 9.84283 199.67 9.85656C205.587 9.97737 211.457 10.6528 217.305 11.5095C219.167 11.7785 220.987 12.2618 222.841 12.5803C224.389 12.8439 225.177 13.706 225.375 15.2491C225.575 16.8471 225.894 18.4286 226.108 20.0266C226.177 20.5318 226.352 21.1057 225.608 21.6301C223.73 21.7729 221.715 21.2594 219.691 21.0123C217.698 20.768 215.595 21.0453 213.714 20.0733C213.741 17.8246 214.107 15.6665 213.283 13.544C212.931 13.4287 212.602 13.253 212.259 13.2283C208.066 12.9043 203.868 12.5473 199.67 12.303C197.08 12.1547 194.48 12.1273 191.886 12.141C187.948 12.1629 184.005 12.2371 180.071 12.3579C177.833 12.4238 175.604 12.6132 173.371 12.8082C172.496 12.8823 171.573 12.9098 170.785 13.6099C170.475 15.9355 171.054 18.349 170.609 20.8421C168.674 21.0178 166.815 21.1716 164.953 21.361C163.174 21.5368 161.395 21.7592 159.615 21.9486C157.776 22.149 155.997 22.8382 154.017 22.8108ZM161.543 23.585C162.284 23.4505 163.067 23.5658 163.841 23.5576C163.789 24.4554 163.174 24.7657 162.757 25.183C160.236 27.731 157.812 30.3532 155.62 33.1895C155.019 33.972 154.407 34.7381 153.74 35.4684C153.484 35.7512 153.078 35.8995 152.526 36.2345C151.604 32.4811 151.927 28.8952 151.51 25.0403C154.967 24.071 158.308 24.1726 161.543 23.585ZM172.625 14.4007C177.935 13.4095 209.543 13.6978 212.278 14.9663C212.157 16.6384 212.561 18.3957 212.097 20.2957C210.062 20.2435 208.102 20.271 206.147 20.1282C199.898 19.6642 193.637 19.5955 187.383 19.8262C184.969 19.9113 182.564 20.1282 180.159 20.282C177.679 20.444 175.197 20.6664 172.671 20.4797C172.185 18.4094 172.575 16.4764 172.625 14.4007ZM215.238 23.64C213.917 26.7261 181.795 75.2975 178.009 79.913C176.944 79.9487 175.79 79.9954 174.632 80.0283C173.38 80.0613 172.125 80.0558 170.878 80.1162C169.72 80.1711 168.561 80.2974 167.399 80.3716C166.147 80.4457 164.901 80.4869 163.646 80.561C162.487 80.6297 161.321 80.7285 160.162 80.7834C158.956 80.8383 157.748 81.2282 156.255 81.0388C156.625 80.3523 156.834 79.8938 157.109 79.4682C159.799 75.3442 162.515 71.2339 165.189 67.1016C169.132 61.0089 173.047 54.9052 176.971 48.8043C178.616 46.2425 180.238 43.6616 181.91 41.1218C185.557 35.5892 189.541 30.2791 192.781 24.4747C193.165 23.78 193.706 23.1732 194.11 22.6158C198.536 21.9074 212.44 22.6076 215.238 23.64ZM154.857 81.209C153.907 81.3353 153.114 81.4698 152.317 81.544C152.068 81.5714 151.807 81.4643 151.367 81.3847C151.164 78.1091 150.917 74.8252 150.78 71.5441C150.7 69.5974 150.409 67.6343 150.829 65.5997C151.678 65.5668 152.466 65.553 153.254 65.5064C155.283 65.3828 156.59 64.2845 157.177 62.3927C157.52 61.2862 157.798 60.1413 157.919 58.9936C158.182 56.5005 158.391 54.0019 158.484 51.5005C158.586 48.7246 158.49 45.946 157.979 43.2031C157.575 41.0285 156.785 39.0653 154.75 37.8737C154.333 37.6238 153.882 37.4289 153.388 37.179C155.64 34.631 157.743 32.2065 159.912 29.8343C161.963 27.5883 164.077 25.4054 166.115 23.2418C173.069 22.3385 189.088 21.9074 192.687 22.5746C186.54 32.5552 179.599 41.8961 173.561 51.8245C167.523 61.7502 160.565 71.1131 154.857 81.209ZM147.924 59.4274C147.781 54.238 147.641 49.0541 147.526 43.8648C147.512 43.387 147.721 42.9065 147.869 42.2338C148.397 43.2442 148.732 44.0734 149.237 44.7956C149.931 45.7868 151.104 45.8856 152.062 45.1443C152.869 44.5265 153.416 43.722 153.619 42.7116C153.773 41.9373 153.921 41.1548 154.116 40.1389C154.583 40.6029 154.953 40.8445 155.162 41.1905C155.922 42.4425 156.205 43.8318 156.266 45.2925C156.463 49.9437 156.381 54.5949 156.106 59.2434C156.071 59.7843 156.071 60.3225 155.997 60.8469C155.722 62.9172 154.393 64.0237 152.331 63.9358C149.286 63.8013 148.012 62.5053 147.924 59.4274ZM150.093 28.6948C150.25 30.5619 150.242 30.5619 149.668 31.9484C148.759 31.402 147.864 30.8639 146.906 30.29C146.831 29.4691 146.724 28.6866 146.711 27.8985C146.697 27.2917 146.799 26.6794 146.859 25.9711C147.803 25.6471 148.671 25.2434 149.838 25.6141C149.918 26.6245 150.006 27.6624 150.093 28.6948ZM145.511 35.8171C144.885 35.765 144.242 35.7567 143.644 35.5947C142.787 35.3668 141.911 35.1087 141.151 34.6777C140.234 34.1587 140.349 32.6761 141.313 32.2587C141.87 32.0171 142.518 31.8414 143.119 31.8606C148.732 32.0171 151.96 36.3361 152.326 40.9406C152.405 41.9181 152.169 42.8736 150.747 43.5957C150.398 42.0718 150.154 40.8445 149.824 39.6446C149.212 37.4563 147.889 36.0258 145.511 35.8171ZM144.75 22.0145C144.811 24.3346 144.838 26.652 144.849 28.9694C144.849 29.2 144.662 29.4361 144.391 30.0621C143.69 28.0468 143.55 24.5076 143.921 21.3089C144.547 21.1386 144.737 21.5422 144.75 22.0145ZM142.551 37.8654C142.611 38.8044 142.699 39.6062 142.713 40.3997C142.782 44.1558 142.847 47.9147 142.875 51.668C142.883 52.1815 142.76 52.7416 142.537 53.2056C142.194 53.9277 141.757 54.6142 141.285 55.2676C138.301 59.4054 135.3 63.5377 132.296 67.6562C131.837 68.2822 131.291 68.8341 130.563 69.6826C130.374 68.8561 130.165 68.3619 130.171 67.8704C130.198 65.5448 130.198 63.2137 130.36 60.8963C130.744 55.4434 130.717 49.9849 130.536 44.5265C130.462 42.3025 130.615 40.2926 132.296 38.6013C132.974 37.9203 133.408 36.984 133.938 36.1548C136.48 32.1516 139.201 28.2555 141.34 24.0024C141.494 23.6866 141.845 23.4642 142.378 22.9261C142.315 25.4658 142.74 27.5828 142.254 29.6503C139.951 30.798 139.122 31.7343 139.034 33.3103C138.905 35.7018 140.673 36.7067 142.551 37.8654ZM136.87 22.5746C138.172 22.5417 139.349 21.7399 141.123 21.9623C139.91 24.1314 138.927 26.026 137.815 27.8381C136.694 29.664 135.462 31.4158 134.256 33.1895C133.098 34.8863 132.482 36.984 130.467 38.4859C130.467 36.391 130.42 34.6173 130.495 32.8463C130.517 32.3548 130.824 31.8414 131.11 31.402C132.988 28.4779 134.901 25.5812 136.87 22.5746ZM130.239 29.9935C129.915 28.3516 129.902 26.7591 129.869 25.1885C129.855 24.6449 130.184 24.1314 130.777 24.0024C132.073 23.7196 133.372 23.4972 134.91 23.2006C133.839 25.3368 131.357 28.9501 130.239 29.9935ZM104.899 45.4024C102.755 47.7939 100.687 50.125 98.5978 52.4368C98.4358 52.618 98.1393 52.6812 97.8949 52.8075C97.2826 48.6038 97.0795 34.6722 97.5737 30.5536C99.7483 29.4965 102.115 29.5981 104.413 29.4883C104.575 34.9275 104.737 40.1773 104.899 45.4024ZM106.187 44.6747C106.179 43.4529 106.569 42.437 107.291 41.4595C108.935 39.2273 110.498 36.9429 112.118 34.6914C112.623 33.9912 113.202 33.3433 113.856 32.536C114.051 33 114.213 33.217 114.218 33.4394C114.342 37.9066 114.462 42.3684 114.537 46.8356C114.542 47.3353 114.366 47.9147 114.092 48.3265C111.821 51.7367 109.152 54.8366 106.516 58.1534C106.368 57.7415 106.212 57.5054 106.212 57.2693C106.198 53.0711 106.206 48.8729 106.187 44.6747ZM106.077 29.038C108.491 28.574 110.923 28.1072 113.49 27.6157C114.347 29.4883 113.847 30.798 112.823 32.0967C111.558 33.7139 110.424 35.441 109.226 37.1104C108.598 37.9807 107.977 38.8649 107.304 39.6941C107.068 39.9906 106.678 40.1581 106.294 40.4272C105.605 37.2394 105.511 31.7123 106.077 29.038ZM116.395 27.1105C120.097 26.4021 123.855 25.6828 127.636 24.9524C128.043 25.5729 127.867 26.0726 127.441 26.6328C125.138 29.7107 122.873 32.8188 120.569 35.905C119.342 37.5552 118.073 39.1751 116.807 40.7978C116.719 40.9049 116.503 40.9131 116.343 40.9681C115.613 37.9533 115.621 29.9194 116.395 27.1105ZM142.889 54.8311C143.004 60.2758 143.193 65.1 143.171 69.9269C143.152 74.7237 143.751 79.5176 143.279 84.4983C139.149 84.3611 135.16 84.2265 131.244 84.1002C131.101 83.8174 130.967 83.6609 130.961 83.4989C130.791 79.5643 130.629 75.6352 130.475 71.7116C131.851 69.9187 133.224 68.1532 134.566 66.374C135.967 64.5152 137.362 62.6536 138.718 60.7618C140.006 58.9469 141.178 57.0469 142.889 54.8311ZM117.211 61.407C120.959 56.473 124.531 51.7696 128.372 46.7148C129.086 51.1711 128.85 57.9035 127.947 60.8469C124.449 60.4158 120.953 60.9622 117.211 61.407ZM116.678 59.9848C116.604 59.3121 116.544 58.9688 116.538 58.6174C116.47 55.5779 116.417 52.5329 116.343 49.4934C116.302 47.8817 116.22 46.27 116.206 44.661C116.2 44.2354 116.269 43.7302 116.497 43.4007C117.554 41.8494 118.661 40.3256 119.786 38.8237C122.145 35.6689 124.531 32.536 126.909 29.3949C127.145 29.0847 127.45 28.8211 127.908 28.3433C127.914 29.178 127.9 29.7107 127.922 30.2434C128.109 34.2686 128.271 38.291 128.526 42.3134C128.6 43.4611 128.391 44.4304 127.699 45.3282C127.428 45.6852 127.227 46.0888 126.964 46.454C123.836 50.7125 120.703 54.9656 117.562 59.216C117.42 59.4136 117.183 59.5482 116.678 59.9848ZM114.287 60.4103C114.171 63.8013 114.078 67.1895 114.004 70.5859C113.976 71.6979 113.694 72.6699 113.018 73.5732C111.206 76.0114 109.441 78.4798 107.642 80.9262C107.472 81.1541 107.203 81.3106 106.665 81.7746C106.717 80.1244 106.813 78.8889 106.791 77.6561C106.706 72.4749 106.604 67.2965 106.461 62.1209C106.442 61.2917 106.442 60.5778 106.994 59.8639C109.399 56.7641 111.752 53.6175 114.13 50.4901C114.18 50.4297 114.292 50.4297 114.624 50.3144C114.624 50.88 114.644 51.2315 114.63 51.5802C114.515 54.5208 114.38 57.4642 114.287 60.4103ZM113.721 75.3387C113.639 81.673 113.559 87.6175 113.485 93.7019C111.86 93.669 110.358 93.6552 108.856 93.6086C108.249 93.5893 107.642 93.4878 106.711 93.3862C106.744 90.4208 106.739 87.752 106.846 85.0914C106.865 84.5176 107.211 83.897 107.554 83.411C109.265 81.0195 111.025 78.6527 112.777 76.2887C112.958 76.0388 113.221 75.8357 113.721 75.3387ZM105.506 92.1945C105.506 92.5295 105.377 92.8672 105.284 93.3395C102.574 93.3258 99.9597 93.9381 97.2414 93.4603C96.7225 91.3571 96.9943 89.3088 97.0328 87.2797C97.041 86.8157 97.4721 86.3297 97.7824 85.9069C99.0564 84.1798 100.35 82.4693 101.67 80.7834C102.769 79.3831 103.913 78.0075 105.039 76.6319C105.08 76.577 105.209 76.5907 105.308 76.577C105.404 76.7006 105.586 76.8269 105.586 76.9477C105.566 82.0245 105.544 87.1122 105.506 92.1945ZM97.1014 84.2952C96.8571 82.461 96.6292 80.8713 97.7219 79.4902C99.8773 76.7665 102.082 74.0784 104.284 71.3959C104.52 71.1048 104.905 70.9373 105.317 70.6463C105.794 72.4996 105.594 73.9027 104.427 75.2975C102.203 77.9608 100.168 80.7779 98.0377 83.5209C97.829 83.768 97.5325 83.9382 97.1014 84.2952ZM97.4995 77.4941C97.5325 69.905 97.5599 62.5932 97.5874 55.1743C100.308 52.8404 101.994 49.9026 104.778 47.6593C104.946 49.4715 105.02 51.0503 104.987 52.64C104.905 56.3055 104.951 59.971 105.289 63.6255C105.377 64.603 105.234 65.5997 105.349 66.5689C105.506 67.8512 104.973 68.8067 104.205 69.732C102.263 72.0686 100.35 74.4271 98.4084 76.7665C98.2189 76.9971 97.9361 77.1509 97.4995 77.4941ZM95.0998 62.3433C92.928 62.5794 90.7314 62.8293 88.5348 63.0517C88.4058 63.0654 88.2658 62.8979 88.1312 62.8101C88.123 62.7277 88.0708 62.6069 88.1038 62.5657C90.1466 60.2209 92.1949 57.8815 94.2569 55.5505C94.4793 55.3006 94.7895 55.1194 95.0916 54.8832C95.5309 56.462 95.5309 59.9189 95.0998 62.3433ZM86.3575 62.3653C86.1433 62.6014 85.8248 62.7497 85.3416 63.0846C85.1988 62.0687 85.0094 61.2999 84.9956 60.5257C84.9435 56.7695 84.9819 53.0244 84.8968 49.271C84.8693 48.0217 85.2318 47.0333 85.9347 46.0476C88.6831 42.1926 91.3849 38.2965 94.1141 34.4306C94.3118 34.1532 94.5946 33.9501 94.9515 33.6014C95.0312 34.0379 95.1135 34.2878 95.1273 34.5431C95.281 38.1976 95.4375 41.8577 95.5721 45.5094C95.6325 47.2063 95.605 48.9059 95.6929 50.5972C95.745 51.668 95.3744 52.5055 94.6605 53.2523C93.8587 54.0897 93.0515 54.9244 92.269 55.7866C90.3003 57.9776 88.3399 60.1797 86.3575 62.3653ZM77.3818 36.4514C78.9661 34.653 80.8853 34.005 83.5624 34.3811C83.5267 36.1411 83.4992 37.9148 83.4745 39.4717C81.8903 41.3305 80.5284 43.0905 78.9908 44.6857C77.4148 46.3304 76.2835 48.4144 74.0925 49.8421C74.0458 48.1178 73.9909 46.6132 73.9772 45.1196C73.9634 43.5216 73.9854 41.9236 73.9854 40.4409C74.6169 39.7133 75.1496 39.112 75.6685 38.5079C76.2424 37.827 76.7888 37.1186 77.3818 36.4514ZM74.2133 38.0411C73.7081 35.7897 73.7548 35.7375 76.2286 35.6277C75.7042 36.6408 75.0892 37.4014 74.2133 38.0411ZM52.8573 65.1549C52.7337 64.1967 52.6129 63.5102 52.5717 62.8156C52.525 61.926 52.5717 61.0364 52.525 60.1467C52.4125 57.9502 52.6458 55.8799 54.3866 54.2627C54.771 53.9058 54.9934 53.3868 55.3366 52.9777C55.5865 52.6867 55.9077 52.4643 56.5145 51.9316C56.3196 55.1002 56.1246 57.8294 56.0038 60.5723C55.9022 62.681 54.5074 63.8123 52.8573 65.1549ZM55.5645 64.6415C55.6798 65.5311 55.8336 66.2065 55.8336 66.8792C55.8336 68.1257 55.6386 69.3805 55.721 70.6133C55.8967 73.241 54.1972 74.7868 52.6596 76.599C52.5195 76.2475 52.3905 76.0855 52.3987 75.9235C52.4454 73.4304 52.4866 70.9428 52.5937 68.4497C52.6129 67.9528 52.8078 67.3789 53.1126 66.9945C53.7524 66.1736 54.4662 65.3828 55.5645 64.6415ZM72.6373 50.254C72.651 51.2177 72.3462 51.9454 71.7257 52.6592C69.3287 55.4241 66.9756 58.2275 64.5896 61.0034C64.2739 61.3741 63.9032 61.6981 63.409 62.1758C62.9999 58.362 63.3156 54.8091 63.4831 51.2589C63.5188 50.4901 63.9087 49.93 64.3617 49.3562C66.6791 46.4128 68.9772 43.4474 71.2946 40.5013C71.5582 40.1636 71.9014 39.889 72.5823 39.2136C72.6016 43.3046 72.5823 46.7834 72.6373 50.254ZM74.0376 52.9091C74.0595 52.4313 74.3561 51.8849 74.6855 51.5143C77.3873 48.4418 80.1248 45.3941 82.8677 42.3491C82.9693 42.2393 83.1917 42.2476 83.3922 42.1871C83.4745 42.4288 83.6283 42.6731 83.6365 42.9148C83.6887 45.0509 83.7161 47.1953 83.7436 49.3314C83.7491 50.0865 83.4059 50.6576 82.8952 51.2177C81.7475 52.4643 80.6904 53.7795 79.5784 55.059C77.9392 56.9398 76.2973 58.8206 74.6389 60.6794C74.5428 60.7865 74.3149 60.7673 74.1529 60.814C74.065 60.6739 73.8975 60.5311 73.8975 60.3911C73.925 57.8898 73.936 55.3967 74.0376 52.9091ZM60.6935 56.3989C59.8725 57.2089 59.2245 58.1863 58.464 59.0622C58.2059 59.3587 57.945 59.809 57.2696 59.4329C57.2696 58.7986 57.2312 58.0985 57.2696 57.4038C57.3575 55.7124 57.621 54.0211 57.5524 52.3352C57.4865 50.6109 57.9972 49.2079 59.0955 47.9421C59.6831 47.2694 60.1965 46.5391 60.7813 45.8664C60.99 45.6248 61.314 45.482 61.8412 45.1113C61.9208 46.2508 62.0279 47.1212 62.0279 47.9833C62.0224 49.7543 61.9345 51.528 61.9263 53.299C61.9208 54.5071 61.5913 55.5175 60.6935 56.3989ZM52.9177 54.0623C53.0385 49.271 52.7557 45.0235 53.3268 40.9186C55.1142 40.0757 55.1142 40.0757 56.7973 40.0565C56.866 40.2185 56.995 40.386 56.9868 40.548C56.8715 43.1372 56.7589 45.7236 56.5969 48.3128C56.5639 48.8317 56.4267 49.4111 56.1384 49.8229C55.235 51.1299 54.2246 52.3627 52.9177 54.0623ZM58.0713 39.4634C59.4277 39.3618 60.6413 38.755 62.0416 38.8649C62.5688 40.6633 62.2311 42.2283 61.0641 43.6286C60.1608 44.7132 59.2657 45.7977 58.3624 46.885C58.1867 46.8356 58.0109 46.7889 57.8352 46.7423C57.8572 44.3782 57.7226 42.0114 58.0713 39.4634ZM63.8071 38.4805C67.1568 37.1049 70.1634 36.4102 72.4423 36.4788C72.4286 36.7287 72.5164 37.0499 72.3929 37.2065C69.6994 40.7182 66.929 44.1558 63.7 47.8076C63.4309 44.37 63.5517 41.3909 63.8071 38.4805ZM84.6991 33.6947C85.9676 33.2911 87.0522 32.8985 88.1587 32.5964C89.9626 32.1104 91.7912 31.6876 93.6034 31.2291C93.9796 31.133 94.2843 31.133 94.4189 31.5778C92.755 34.6392 87.011 42.5715 85.0231 44.4633C84.5179 40.8527 84.7266 37.4151 84.6991 33.6947ZM83.8836 63.1807C80.6163 63.3812 77.5301 63.5789 73.7355 63.8123C77.132 59.7569 80.0891 56.2259 83.0682 52.7004C83.1368 52.618 83.3784 52.7004 83.7107 52.7059C83.7711 56.138 83.8232 59.5674 83.8836 63.1807ZM72.5494 62.5328C72.5412 63.4498 71.9755 64.0154 71.053 64.117C68.5736 64.3943 66.086 64.6277 63.1262 64.9325C63.3239 64.2708 63.3156 63.7464 63.5572 63.5651C65.2239 62.3104 66.4237 60.6327 67.7444 59.0677C69.2189 57.3159 70.7482 55.6054 72.5027 53.59C72.5274 56.8437 72.5686 59.6882 72.5494 62.5328ZM61.8522 63.4965C61.8329 64.0704 61.5694 64.7156 61.2344 65.1878C60.0482 66.86 58.788 68.4772 57.5387 70.0944C57.3986 70.2839 57.1296 70.3772 56.7369 70.6353C56.8056 68.0791 56.8522 65.6876 56.9593 63.3016C56.9813 62.8897 57.157 62.4119 57.4179 62.088C58.5985 60.6327 59.8258 59.2242 61.0449 57.8074C61.1465 57.6866 61.347 57.6482 61.8659 57.3901C61.8659 59.6004 61.9208 61.5498 61.8522 63.4965ZM144.668 7.56665C144.89 11.1992 145.961 14.9334 145.275 18.8405C144.737 18.9833 144.311 19.1096 143.88 19.1919C139.918 19.9333 135.948 20.6417 131.991 21.4159C128.822 22.0365 125.69 22.797 122.521 23.3956C116.362 24.5708 110.19 25.6745 104.023 26.8195C102.263 27.1517 100.49 27.462 98.7516 27.8848C94.1416 29.0188 89.559 30.2653 84.9352 31.3554C78.9249 32.7776 72.8789 34.0709 66.8548 35.4684C63.1948 36.3168 59.4414 36.7809 55.883 38.0823C55.1554 38.3514 54.3454 38.3981 53.4613 38.5683C53.4503 37.6567 53.3817 36.9429 53.4421 36.2345C53.637 34.1066 53.8814 31.9759 54.1093 29.7931C57.3794 28.3845 60.8033 27.7228 64.1393 26.8057C68.1151 25.7157 72.1101 24.719 76.0996 23.6674C79.3972 22.797 82.6728 21.8937 85.9731 21.0508C88.9247 20.3039 91.8983 19.6285 94.8554 18.9091C96.8571 18.4231 98.8532 17.9097 100.849 17.4045C101.887 17.1436 102.925 16.8608 103.963 16.5972C108.125 15.5319 112.291 14.4611 116.464 13.4232C118.026 13.0306 119.619 12.756 121.187 12.3908C128.163 10.7544 135.124 9.08776 142.101 7.45682C142.861 7.28384 143.649 6.92415 144.668 7.56665ZM230.839 12.5721C231.627 15.7873 231.811 19.0903 232.061 22.4456C230.853 22.7284 229.87 22.3714 228.925 22.0886C228.81 21.8278 228.675 21.6576 228.683 21.4956C228.81 19.137 228.137 16.8801 227.868 14.5737C227.706 13.1926 226.937 12.2645 225.806 11.6166C225.191 11.2651 224.496 11.0152 223.81 10.8532C220.144 10.0131 216.465 9.258 212.69 9.10973C206.523 8.8736 200.378 8.25856 194.189 8.27229C188.739 8.28602 183.278 8.02518 177.828 7.92908C170.068 7.79454 162.493 9.08776 155.005 11.0152C153.893 11.2981 152.77 11.5946 151.881 12.4375C151.886 14.1838 151.859 15.8834 151.914 17.5802C151.966 19.3457 152.177 21.1057 152.122 22.959C150.524 23.3956 149.075 23.7608 147.554 23.618C146.974 19.9937 146.568 8.73082 146.993 6.41345C147.6 6.29814 148.119 6.1636 148.644 6.10319C154.421 5.41677 160.203 4.7221 165.977 4.06863C170.958 3.50302 175.961 3.30532 180.974 3.25316C188.044 3.18451 195.115 3.12411 202.168 3.62383C206.361 3.92036 210.548 4.29652 214.733 4.7276C218.829 5.15318 222.879 5.86157 226.863 6.95985C228.09 7.29482 228.958 7.91535 229.444 9.06854C229.93 10.2492 230.542 11.3722 230.839 12.5721ZM240.328 37.2806C240.226 37.9066 239.952 38.453 239.016 38.2855C238.664 37.0499 238.348 35.7705 237.928 34.5239C237.483 33.2087 236.421 32.3795 235.273 31.5915C235.248 30.776 235.221 30.0017 235.18 28.7332C237.472 30.1171 238.919 31.586 239.674 33.648C240.1 34.8122 240.537 36.0066 240.328 37.2806ZM236.717 56.3247C236.547 52.3023 236.245 48.2853 236.009 44.2629C235.902 42.4754 235.8 40.6825 235.732 38.8978C235.718 38.593 235.592 38.1702 236.19 38.0137C236.912 38.453 236.816 39.3838 237.214 40.029C238.024 41.3634 239.4 41.6353 240.646 40.6907C241.481 40.0565 241.885 39.1614 242.107 38.1894C242.283 37.4206 242.316 36.6189 242.464 35.441C243.881 36.5118 244.021 37.7666 244.224 38.9994C244.79 42.47 244.663 45.968 244.663 49.4577C244.663 51.3386 244.576 53.2194 244.515 55.0919C244.474 56.2918 244.07 57.3708 243.329 58.3154C242.255 59.669 240.646 60.0589 238.697 59.4466C237.162 58.9551 236.778 57.8294 236.717 56.3247ZM233.818 50.4572C233.906 51.5143 233.549 52.349 232.909 53.1644C231.371 55.1386 229.911 57.1814 228.365 59.1556C223.736 65.0808 219.084 70.9923 214.442 76.901C213.783 77.7384 213.093 78.5539 212.495 79.2815C208.728 79.309 205.147 79.3145 201.578 79.3611C197.998 79.4078 194.425 79.5643 190.848 79.5314C187.303 79.4957 183.764 79.9487 180.238 79.7785C180.192 79.4435 180.09 79.2211 180.159 79.1195C192.641 60.7673 204.98 42.3217 216.929 23.478C222.124 23.5384 227.242 24.2523 232.39 24.914C232.53 25.6553 232.7 26.2539 232.753 26.8607C232.854 28.1072 232.909 29.362 232.961 30.614C233.09 33.7414 233.211 36.877 233.326 40.0016C233.387 41.7012 233.406 43.4062 233.48 45.1058C233.563 46.885 233.67 48.678 233.818 50.4572ZM235.287 79.9213C232.78 80.1025 230.509 79.5369 228.211 79.5176C225.886 79.4957 223.56 79.4078 221.234 79.3007C218.972 79.1991 216.693 79.611 214.126 79.147C215.65 77.2524 216.984 75.594 218.31 73.9301C221.108 70.4321 223.939 66.9671 226.674 63.4224C228.697 60.8002 230.578 58.071 232.558 55.4159C232.827 55.059 233.024 54.378 233.947 54.7679C234.614 63.0325 235.287 71.3959 235.287 79.9213ZM235.185 92.9688C231.695 94.4652 228.67 96.4943 226.33 99.3169C205.754 93.993 185.711 95.3219 166.167 102.62C165.749 102.356 165.508 102.241 165.299 102.074C161.529 98.9682 157.427 96.4531 152.757 94.9375C151.024 94.3774 149.616 93.2791 148.051 92.1726C147.902 90.2314 147.674 88.2709 147.628 86.316C147.526 81.6593 147.512 77.0026 147.458 72.3459C147.438 70.2839 147.383 68.2218 147.378 66.1653C147.378 65.6546 147.526 65.1412 147.606 64.6415C148.591 64.6634 149.028 65.0615 149.055 65.9566C149.143 69.1773 149.272 72.4008 149.36 75.627C149.412 77.5957 149.459 79.5698 149.412 81.5385C149.385 82.7301 150.135 83.6829 151.576 83.7488C151.845 83.7625 152.114 83.757 152.386 83.735C154.346 83.5456 156.307 83.3863 158.262 83.1502C159.953 82.947 161.617 82.5434 163.317 82.4281C167.603 82.137 171.883 81.9091 176.188 81.9146C182.814 81.9229 189.425 81.2419 196.056 81.3435C198.113 81.3765 200.169 81.2886 202.231 81.2694C203.483 81.2557 204.738 81.2612 205.99 81.2694C209.483 81.2886 212.981 81.209 216.465 81.3573C221.567 81.5659 226.654 81.9366 231.764 81.7938C232.909 81.7609 234.054 81.8487 235.369 81.8817C235.679 85.6213 235.545 89.2484 235.185 92.9688ZM170.304 102.612C172.866 101.81 175.433 101.003 178.036 100.355C186.688 98.1994 195.463 97.2741 204.395 97.5514C210.771 97.7463 217.064 98.4959 223.285 99.8633C223.837 99.9841 224.579 99.8633 224.848 100.605C224.782 100.794 224.754 100.981 224.653 101.11C222.618 103.751 220.974 106.604 219.801 109.742C219.37 110.904 218.703 111.994 218.036 113.054C216.322 115.761 213.708 116.969 210.614 117.279C209.906 117.353 209.178 117.279 208.472 117.345C204.637 117.697 200.815 118.155 196.979 118.416C193.679 118.647 190.362 118.748 187.053 118.74C184.64 118.74 182.207 118.619 179.821 118.281C176.559 117.823 173.912 116.45 172.652 113.04C171.653 110.349 170.049 107.944 168.377 105.605C168.028 105.113 167.704 104.602 167.353 104.07C168.229 103.186 169.302 102.93 170.304 102.612ZM234.889 113.161C232.289 114.286 229.565 114.676 226.789 114.759C226.399 114.77 225.872 114.811 225.644 114.097C226.405 112.601 227.294 111.09 228.703 109.945C228.763 110.459 228.758 110.997 228.92 111.475C229.007 111.725 229.403 112.04 229.639 112.027C229.903 112.007 230.259 111.692 230.361 111.423C230.765 110.396 230.361 109.926 228.966 109.682C229.532 108.57 230.529 107.963 231.649 107.628C232.72 107.304 233.826 106.826 235.119 107.351C235.147 108.334 235.18 109.297 235.207 110.261C235.226 111.233 235.347 112.211 234.889 113.161ZM219.543 127.979C220.803 123.984 222.665 120.143 224.592 115.945C228.225 116.974 231.454 115.635 234.924 114.94C235.119 117.702 234.902 120.245 234.142 122.729C233.812 123.795 233.071 124.624 232.135 125.176C231.144 125.755 230.092 126.343 228.985 126.612C226.297 127.279 223.568 127.784 220.853 128.325C220.455 128.399 219.982 128.608 219.543 127.979ZM217.522 128.682C216.976 128.789 216.369 128.937 215.757 129.012C213.714 129.267 211.666 129.511 209.617 129.725C207.569 129.942 205.518 130.239 203.464 130.313C195.496 130.588 187.531 130.945 179.585 131.625C178.338 131.735 177.078 131.727 175.826 131.768C175.03 131.796 174.431 131.477 174.126 130.717C173.923 130.217 173.75 129.712 173.542 129.215C171.842 125.055 169.882 121.033 167.46 117.244C165.568 114.278 163.308 111.609 160.533 109.432C159.629 108.726 158.613 108.037 157.54 107.694C154.481 106.717 151.354 106.832 148.254 107.601C147.21 107.856 146.804 108.578 147.054 109.649C147.285 110.607 147.641 111.53 147.938 112.472C148.88 115.511 151.01 117.211 154.064 117.859C157.567 118.6 161.051 119.429 164.577 120.069C165.985 120.324 166.793 120.997 167.361 122.232C168.599 124.915 169.901 127.57 171.167 130.244C171.342 130.623 171.458 131.032 171.661 131.593C171.156 131.686 170.818 131.801 170.48 131.815C155.134 132.32 139.89 130.758 124.633 129.605C124.295 129.577 123.971 129.437 123.526 129.314C123.526 127.293 123.512 125.332 123.526 123.377C123.548 118.438 123.216 113.523 122.326 108.658C122.085 107.345 121.695 106.036 121.209 104.789C120.588 103.194 119.699 101.744 118.271 100.692C115.714 98.8117 112.549 99.3306 110.802 102.013C109.872 103.441 109.103 104.965 108.968 106.725C108.713 109.94 108.411 113.147 108.18 116.362C107.972 119.314 107.851 122.265 107.656 125.217C107.606 125.903 107.62 126.659 106.961 127.164C93.8807 125.695 80.8441 123.951 67.8378 121.941C67.4122 121.876 67.0086 121.705 66.4979 121.565C66.4759 121.052 66.41 120.615 66.4567 120.181C66.7724 117.23 66.7066 114.273 66.4704 111.327C66.1739 107.647 65.4463 104.042 63.9911 100.632C63.6122 99.7425 63.074 98.8528 62.3986 98.1719C60.7154 96.4806 58.895 96.6206 57.2037 98.2872C56.6491 98.8254 56.2317 99.5942 55.9709 100.327C55.6194 101.332 55.4025 102.403 55.2488 103.463C54.7435 106.925 54.642 110.418 54.587 113.916C54.5541 115.862 54.8451 117.817 54.5623 119.712C53.8814 119.934 53.4833 119.717 53.3872 119.245C53.2197 118.369 53.1181 117.474 53.0851 116.576C52.8023 109.506 52.5333 102.43 52.2834 95.3603C52.2642 94.7755 52.4179 94.1742 52.5058 93.4932C55.1609 93.4603 57.6622 93.3999 60.1608 93.4054C61.1712 93.4054 62.1295 93.3669 63.0136 92.4911C63.1481 89.652 63.376 86.7086 63.398 83.757C63.4309 79.3694 63.2964 74.9735 63.2744 70.5859C63.2689 69.2734 63.1399 67.9253 63.6451 66.5689C67.1651 66.1845 70.6219 65.7892 74.0842 65.4432C77.6427 65.0863 81.1901 64.8035 84.7952 64.8254C88.2383 64.8446 91.6951 64.2378 95.2481 64.2049C95.5968 67.1483 95.4485 69.9187 95.2206 72.6699C94.7017 78.7626 94.8774 84.847 95.2755 90.9343C95.3497 92.0792 95.6929 93.2049 95.907 94.3307C96.8378 94.9897 97.862 95.234 98.9685 95.2121C100.308 95.1928 101.651 95.1105 102.991 95.1324C106.753 95.1736 110.506 95.2532 114.268 95.3082C114.435 95.3082 114.602 95.2066 115.02 95.072C115.209 94.586 115.649 93.9518 115.687 93.2983C115.885 90.171 116.025 87.0381 116.093 83.9053C116.228 77.7247 116.288 71.5441 116.417 65.3636C116.428 64.6826 116.665 64.0099 116.821 63.2329C117.65 63.0709 118.345 62.8622 119.045 62.8238C121.546 62.6673 124.045 62.5602 126.546 62.4724C127.043 62.4531 127.557 62.6261 128.224 62.7359C129.053 70.5529 128.553 78.3507 129.322 86.154C130.077 86.2638 130.676 86.3984 131.291 86.4258C134.242 86.5658 137.194 86.6949 140.146 86.7828C141.129 86.8075 142.12 86.7828 143.092 86.6592C144.426 86.4917 144.783 86.0881 144.835 84.74C144.992 80.7175 145.121 76.6868 145.255 72.6561C145.261 72.3871 145.214 72.118 145.201 71.8544C145.019 67.7359 144.797 63.6173 144.676 59.5015C144.52 54.2243 144.459 48.9388 144.316 43.6616C144.278 42.0526 144.089 40.4491 143.973 38.8374C143.935 38.2361 144.297 37.7858 144.668 37.989C144.937 38.1372 145.159 38.4393 145.288 38.7303C145.39 38.9527 145.335 39.2547 145.335 39.5238C145.261 46.6077 145.599 53.6779 145.961 60.7535C146.233 65.9374 146.151 71.1405 146.211 76.3354C146.252 80.0091 146.225 83.6829 146.307 87.3539C146.332 88.7844 146.562 90.2066 146.689 91.6344C146.826 93.1088 147.641 94.1412 148.902 94.7892C150.491 95.6102 152.122 96.3515 153.745 97.1066C155.45 97.9028 157.164 98.6771 158.869 99.4789C160.763 100.368 162.339 101.67 163.803 103.153C166.916 106.313 169.409 109.904 171.351 113.88C173.13 117.535 176.134 119.366 180.052 119.75C183.885 120.121 187.726 120.418 191.589 120.19C195.612 119.948 199.637 119.684 203.651 119.36C206.509 119.133 209.354 118.8 212.204 118.485C213.371 118.356 214.436 117.933 215.479 117.364C218.351 115.821 220.01 113.281 221.108 110.404C222.739 106.132 225.191 102.458 228.387 99.229C229.977 97.62 231.742 96.2637 233.766 95.2587C234.142 95.072 234.526 94.748 235.106 95.2587C235.119 98.6085 235.139 102.068 235.161 105.64C234.438 105.78 233.837 105.948 233.239 105.997C230.314 106.211 228.277 107.829 226.608 110.088C225.103 112.115 223.782 114.231 222.786 116.557C221.034 120.58 219.288 124.605 217.522 128.682ZM153.882 116.178C153.289 116.038 152.721 115.714 152.183 115.412C150.102 114.251 148.8 111.878 148.786 109.111C150.181 109.028 151.584 108.921 152.985 108.875C153.693 108.853 154.44 108.814 155.107 109.001C156.293 109.333 157.562 109.635 158.578 110.289C161.57 112.216 163.553 115.028 165.324 118.828C161.139 117.859 157.507 117.043 153.882 116.178Z" fill="black"/>
</g>
<path d="M146.109 100.858C146.076 98.2441 145.673 97.8597 143.004 97.6922C140.239 97.522 137.491 97.2721 134.729 97.1129C131.417 96.9152 130.981 97.2996 130.887 100.583C130.786 104.059 130.758 107.544 130.676 111.023C130.657 111.824 130.569 112.626 130.517 113.428C130.475 113.96 130.393 114.499 130.407 115.031C130.448 116.286 130.86 116.871 132.079 117.093C134.27 117.5 136.472 117.862 138.682 118.131C140.099 118.307 141.535 118.307 142.957 118.348C143.852 118.376 144.75 118.354 145.626 117.533C145.692 116.083 145.788 114.493 145.827 112.903C145.914 109.243 145.975 105.583 146.057 101.923C146.063 101.572 146.118 101.215 146.109 100.858ZM144.352 99.4714C144.338 102.206 144.352 104.963 144.297 107.714C144.242 110.55 144.783 113.4 144.171 116.319C141.055 116.541 138.103 115.624 135.091 115.597C134.492 115.591 133.891 115.435 133.15 115.322C133.023 109.727 132.9 104.235 132.774 98.763C135.146 98.4473 141.587 98.8509 144.352 99.4714Z" fill="black"/>
<path d="M207.177 126.759C207.144 125.606 207.064 124.455 207.001 123.294C206.301 120.49 206.287 120.452 203.404 120.43C201.886 120.425 200.365 120.49 198.854 120.6C196.534 120.768 194.217 120.943 191.913 121.218C190.085 121.435 189.64 122.033 189.676 123.881C189.695 124.864 189.75 125.85 189.829 126.827C189.958 128.324 190.505 128.821 192.108 128.793C194.077 128.76 196.037 128.667 198.006 128.571C200.323 128.458 202.641 128.329 204.966 128.181C205.406 128.154 205.864 128.101 206.268 127.945C206.773 127.756 207.199 127.379 207.177 126.759ZM205.406 126.665C203.599 126.731 202.089 126.773 200.579 126.847C199.063 126.921 197.553 127.028 196.043 127.102C194.555 127.171 193.086 127.723 191.543 127.3C191.048 125.817 190.713 124.387 191.265 122.789C195.889 122.478 200.384 121.948 204.925 122.143C205.628 123.612 205.444 125.013 205.406 126.665Z" fill="black"/>
<path d="M48.3953 46.5658C48.1647 51.9391 47.7199 57.3097 47.7281 62.6803C47.7418 69.1382 47.6128 75.5796 47.3767 82.0292C47.1268 88.9237 47.1268 95.8264 46.9923 102.726C46.9456 105.233 46.8385 107.74 46.704 110.247C46.6902 110.483 46.3525 110.7 46.1356 110.922C45.9626 105.483 45.7594 100.052 45.6112 94.6128C45.4684 89.4152 45.592 84.2203 45.7869 79.0227C46.0011 73.383 45.9214 67.7351 45.9489 62.0872C45.9873 53.6497 47.1735 45.2863 47.654 36.8817C47.6677 36.6731 47.923 36.4836 48.1372 36.1953C48.7907 36.9421 48.6973 37.7576 48.6836 38.5127C48.6177 41.1952 48.5079 43.8778 48.3953 46.5658Z" fill="black"/>
<path d="M46.1301 110.996C46.1355 111.037 46.1438 111.07 46.1493 111.103C46.1355 111.062 46.1218 111.015 46.1026 110.977C46.0971 110.969 46.0889 110.969 46.0889 110.969C46.1026 110.955 46.1163 110.936 46.1301 110.922C46.1301 110.941 46.1301 110.977 46.1301 110.996Z" fill="black"/>
<path d="M46.2703 112.362C46.2319 111.944 46.1852 111.527 46.144 111.102C46.2841 111.505 46.4186 111.903 46.5559 112.301C46.4598 112.321 46.3664 112.343 46.2703 112.362Z" fill="black"/>
<path d="M59.8781 121.214C59.9989 121.733 60.4245 122.151 61.045 122.159C61.6518 122.164 62.0499 121.802 62.2641 121.275C62.4673 120.783 62.6347 120.264 62.7418 119.745C63.1949 117.549 63.2004 110.155 62.9038 107.903C62.5084 106.912 62.1625 105.896 61.6847 104.946C61.3278 104.243 60.3448 104.218 59.8918 104.864C59.5953 105.295 59.3317 105.794 59.2383 106.3C59.0571 107.263 58.928 108.255 58.9226 109.232C58.9006 111.739 58.8622 114.251 59.0159 116.752C59.1093 118.249 59.5211 119.737 59.8781 121.214ZM60.4711 119.388C59.9247 115.844 60.3503 112.285 60.3036 108.732C60.2954 108.161 60.1966 107.48 60.8034 107.041C61.7589 109.803 62.0362 113.768 61.6381 119.133C61.5969 119.652 61.6435 120.204 60.8885 120.542C60.7484 120.157 60.5315 119.786 60.4711 119.388Z" fill="black"/>
<path d="M17.7509 114.871C17.7564 115.134 17.8031 115.412 17.8992 115.659C18.1408 116.307 18.2287 117.095 19.0853 117.279C19.618 117.391 20.2111 116.636 20.2715 115.45C20.3786 113.234 20.3923 111.002 20.3593 108.786C20.3374 107.54 20.1562 106.299 20.0134 104.742C19.9612 104.445 19.8788 103.825 19.6976 103.232C19.6427 103.05 19.2995 102.855 19.0908 102.855C18.8767 102.855 18.5801 103.037 18.4566 103.226C18.2753 103.514 18.1545 103.871 18.1079 104.217C17.6356 107.754 17.6301 111.312 17.7509 114.871ZM19.1128 110.565C19.1128 110.552 19.1924 110.532 19.2391 110.51C19.2611 110.585 19.2858 110.659 19.2858 110.733C19.2858 110.747 19.1979 110.766 19.1595 110.788C19.1375 110.714 19.1128 110.64 19.1128 110.565ZM19.0496 113.41C19.0634 113.22 19.1128 113.031 19.1375 112.842C19.1869 113.072 19.2254 113.308 19.2858 113.632C19.1512 113.503 19.0496 113.448 19.0496 113.41Z" fill="black"/>
<path d="M115.898 125.855C115.811 125.715 115.676 125.539 115.695 125.397C116.2 121.86 116.343 118.326 115.594 114.804C115.5 114.373 115.561 113.906 116.113 113.738C117.864 116.676 117.98 121.986 116.335 126.091C116.038 125.937 115.937 125.915 115.898 125.855Z" fill="black"/>
<path d="M158.761 111.751C159.434 111.589 160.263 112.141 160.587 113.017C160.708 113.349 160.755 113.719 160.741 114.068C160.722 114.708 160.189 115.221 159.536 115.315C158.577 115.458 157.762 114.856 157.594 113.892C157.419 112.91 157.946 111.946 158.761 111.751Z" fill="black"/>
<path d="M153.174 111.422C153.328 111.172 153.734 110.95 154.031 110.942C154.772 110.928 155.384 111.57 155.648 112.465C155.673 112.553 155.681 112.641 155.667 112.567C155.81 113.383 155.478 114.151 154.898 114.212C154.426 114.264 153.827 114.124 153.457 113.841C152.77 113.314 152.669 112.224 153.174 111.422Z" fill="black"/>
<path d="M232.989 108.758C233.516 109.296 233.974 109.579 234.142 109.985C234.405 110.606 233.925 111.333 233.387 111.366C232.928 111.394 232.417 110.949 232.431 110.348C232.45 109.903 232.733 109.458 232.989 108.758Z" fill="black"/>
</svg>
