<svg width="112" height="139" viewBox="0 0 112 139" fill="none" xmlns="http://www.w3.org/2000/svg">
<g clip-path="url(#clip0_74_13151)">
<path d="M63.042 50.189C64.3307 45.7543 67.4827 41.8186 74.431 41.0795C75.252 40.988 76.0777 40.9448 76.9038 40.9501H78.8368C79.6923 40.9503 80.547 40.9996 81.3967 41.098C84.0096 41.19 86.5224 42.1253 88.5596 43.764C90.5967 45.4026 92.0488 47.6566 92.6987 50.189" stroke="black" stroke-width="3.69554" stroke-linecap="round" stroke-linejoin="round"/>
<path d="M92.0147 72.3622C91.9257 73.8945 92.0125 75.432 92.2734 76.9446C93.3082 82.5619 89.1876 83.689 87.1181 85.9433C85.0671 88.1976 84.0324 92.6876 80.9466 92.6876H74.7751C71.6893 92.6876 70.673 88.1976 68.6035 85.9433C66.5525 83.689 62.432 82.5619 63.4667 76.9446C63.7276 75.432 63.8144 73.8945 63.7254 72.3622" stroke="black" stroke-width="3.69554" stroke-linecap="round" stroke-linejoin="round"/>
<path d="M65.8313 83.5967C65.6465 86.0542 65.4433 88.9737 65.2031 90.341C65.1107 91.0062 64.9628 91.6714 64.8335 92.3366V92.4844" stroke="black" stroke-width="3.69554" stroke-linecap="round" stroke-linejoin="round"/>
<path d="M90.887 92.4844V92.3365C90.7946 91.6713 90.6837 91.0061 90.6098 90.3409C90.4435 88.9366 90.2772 85.9063 90.1294 83.4118" stroke="black" stroke-width="3.69554" stroke-linecap="round" stroke-linejoin="round"/>
<path d="M90.8873 92.4474V92.4659C94.3981 93.7594 105.688 98.7114 109.328 109.318H46.5039C50.1071 98.8223 61.1937 93.8702 64.8153 92.5029H64.8338" stroke="black" stroke-width="3.69554" stroke-linecap="round" stroke-linejoin="round"/>
<path d="M90.8935 92.4648L86.9072 97.9213C85.7829 99.2066 84.3915 100.231 82.8303 100.923C81.2691 101.614 79.5756 101.957 77.8683 101.927C76.1173 101.93 74.3847 101.57 72.7803 100.869C71.2546 100.203 69.9027 99.194 68.8294 97.9212L64.8291 92.5138" stroke="black" stroke-width="3.69554" stroke-linecap="round" stroke-linejoin="round"/>
<path d="M68.6774 13.2336H5.85325C3.81226 13.2336 2.15771 14.8881 2.15771 16.9291C2.15771 18.9701 3.81226 20.6247 5.85325 20.6247H68.6774C70.7184 20.6247 72.3729 18.9701 72.3729 16.9291C72.3729 14.8881 70.7184 13.2336 68.6774 13.2336Z" stroke="black" stroke-width="3.69554" stroke-linecap="round" stroke-linejoin="round"/>
<path d="M9.54834 13.2336V2.14697" stroke="black" stroke-width="3.69554" stroke-linecap="round" stroke-linejoin="round"/>
<path d="M16.9399 5.84253H2.15771" stroke="black" stroke-width="3.69554" stroke-linecap="round" stroke-linejoin="round"/>
<path d="M64.9814 13.2336V2.14697" stroke="black" stroke-width="3.69554" stroke-linecap="round" stroke-linejoin="round"/>
<path d="M72.3725 5.84253H57.5903" stroke="black" stroke-width="3.69554" stroke-linecap="round" stroke-linejoin="round"/>
<path d="M43.0246 31.7113H31.5056C29.9543 31.7113 28.4424 31.2232 27.1839 30.3162C25.9255 29.4092 24.9843 28.1291 24.4938 26.6575L22.4829 20.6247H52.0472L50.0363 26.6575C49.5457 28.1291 48.6046 29.4091 47.3462 30.3162C46.0877 31.2232 44.5758 31.7113 43.0246 31.7113Z" stroke="black" stroke-width="3.69554" stroke-linecap="round" stroke-linejoin="round"/>
<path d="M11.3964 20.6247C9.05319 22.968 7.19441 25.7498 5.92625 28.8114C4.65809 31.873 4.00537 35.1545 4.00537 38.4683V50.189" stroke="black" stroke-width="3.69554" stroke-linecap="round" stroke-linejoin="round"/>
<path d="M61.2861 20.6247C63.6294 22.968 65.4882 25.7498 66.7563 28.8114C68.0245 31.873 68.6772 35.1545 68.6772 38.4683V40.9502" stroke="black" stroke-width="3.69554" stroke-linecap="round" stroke-linejoin="round"/>
<path d="M33.5693 40.9501V31.7113" stroke="black" stroke-width="3.69554" stroke-linecap="round" stroke-linejoin="round"/>
<path d="M40.9604 40.9501V31.7113" stroke="black" stroke-width="3.69554" stroke-linecap="round" stroke-linejoin="round"/>
<path d="M53.8951 40.9501H20.6353" stroke="black" stroke-width="3.69554" stroke-linecap="round" stroke-linejoin="round"/>
<path d="M26.1787 40.9501H48.3519V59.4278C48.3519 60.4079 47.9626 61.3479 47.2695 62.041C46.5765 62.734 45.6365 63.1234 44.6564 63.1234H29.8742C28.8941 63.1234 27.9542 62.734 27.2611 62.041C26.5681 61.3479 26.1787 60.4079 26.1787 59.4278V40.9501Z" stroke="black" stroke-width="3.69554" stroke-linecap="round" stroke-linejoin="round"/>
<path d="M37.2649 55.7323C39.3059 55.7323 40.9604 54.0777 40.9604 52.0367C40.9604 49.9957 39.3059 48.3412 37.2649 48.3412C35.2239 48.3412 33.5693 49.9957 33.5693 52.0367C33.5693 54.0777 35.2239 55.7323 37.2649 55.7323Z" stroke="black" stroke-width="3.69554" stroke-linecap="round" stroke-linejoin="round"/>
<path d="M31.7219 5.84064H42.8085C43.7886 5.84064 44.7286 6.22999 45.4217 6.92304C46.1147 7.61608 46.5041 8.55606 46.5041 9.53618V13.2317H28.0264V9.53618C28.0264 8.55606 28.4157 7.61608 29.1088 6.92304C29.8018 6.22999 30.7418 5.84064 31.7219 5.84064Z" stroke="black" stroke-width="3.69554" stroke-linecap="round" stroke-linejoin="round"/>
<path d="M94.5457 50.189H61.2859C59.2449 50.189 57.5903 51.8435 57.5903 53.8845V68.6667C57.5903 70.7076 59.2449 72.3622 61.2859 72.3622H94.5457C96.5867 72.3622 98.2412 70.7076 98.2412 68.6667V53.8845C98.2412 51.8435 96.5867 50.189 94.5457 50.189Z" stroke="black" stroke-width="3.69554" stroke-linecap="round" stroke-linejoin="round"/>
<path d="M64.9814 64.9712V59.4278C64.9814 58.9378 65.1761 58.4678 65.5226 58.1213C65.8692 57.7748 66.3392 57.5801 66.8292 57.5801H89.0024C89.4925 57.5801 89.9625 57.7748 90.309 58.1213C90.6555 58.4678 90.8502 58.9378 90.8502 59.4278V64.9712" stroke="black" stroke-width="3.69554" stroke-linecap="round" stroke-linejoin="round"/>
<path d="M81.6118 41.1349V50.1889H74.2207V41.0979" stroke="black" stroke-width="3.69554" stroke-linecap="round" stroke-linejoin="round"/>
</g>
<defs>
<clipPath id="clip0_74_13151">
<rect width="110.866" height="138.583" fill="white" transform="translate(0.30957 0.299194)"/>
</clipPath>
</defs>
</svg>
