<svg width="185" height="139" viewBox="0 0 185 139" fill="none" xmlns="http://www.w3.org/2000/svg">
<path d="M90.4363 97.773C90.4363 100.848 90.442 103.566 90.4325 106.285C90.4287 107.127 90.4382 107.978 90.3395 108.811C90.1041 110.759 89.0506 111.875 87.1087 111.911C82.5454 111.994 77.9782 111.993 73.4149 111.926C71.5471 111.9 70.2942 110.694 70.1651 108.823C70.0266 106.801 70.1063 104.764 70.0987 102.735C70.093 101.211 70.0987 99.6883 70.0987 98.0805H53.4816C56.8035 105.024 57.4318 112.093 55.1881 119.382C53.4342 125.079 50.0914 129.652 45.2984 133.141C35.625 140.181 22.8955 140.282 13.131 133.376C7.61095 129.471 3.82208 124.289 2.0852 117.695C0.355919 111.135 0.917795 104.753 3.75944 98.4373C3.06089 98.3766 2.48953 98.2912 1.91626 98.2836C0.950064 98.2684 0.27999 97.7844 0.245822 96.8618C0.166096 94.6827 0.190773 92.4997 0.253415 90.3186C0.274295 89.5897 0.803901 89.1512 1.5594 89.081C2.20479 89.0202 2.85209 88.9766 3.70249 88.9082C3.70249 87.1068 3.71199 85.3301 3.70249 83.5534C3.67022 77.7998 3.63036 72.0463 3.5924 66.2928C3.57342 63.4454 3.53355 60.5848 4.57948 57.8722C6.06199 54.0264 8.87516 51.6498 12.9336 51.0462C18.0607 50.2812 23.222 49.7383 28.37 49.1157C34.9454 48.3204 41.5228 47.5421 48.1001 46.7581C49.4327 46.5987 50.7653 46.4544 52.1851 46.293C52.206 45.9343 52.2402 45.6021 52.2421 45.268C52.2478 39.7954 52.2459 34.3247 52.2573 28.8521C52.2592 27.5708 52.2876 26.2895 52.3389 25.0082C52.3882 23.7649 52.8077 23.3473 54.0397 23.2239C54.5332 23.1745 55.0249 23.129 55.6456 23.0701C55.6456 20.796 55.6703 18.558 55.6171 16.32C55.6095 16.0144 55.2584 15.6841 55.0078 15.4222C53.5594 13.9093 52.0902 12.4173 50.64 10.9063C50.3818 10.6386 50.1635 10.3292 49.9471 10.0236C49.5637 9.47882 49.651 8.95301 50.0971 8.49553C50.5394 8.03996 51.0538 8.05704 51.5378 8.41011C52.0162 8.75939 52.485 9.12954 52.9065 9.54336C54.332 10.9461 55.7329 12.3755 57.149 13.7878C57.9425 14.5794 58.3297 15.5228 58.3164 16.6465C58.2955 18.429 58.2993 20.2114 58.2917 21.9919C58.2917 22.3621 58.2917 22.7322 58.2917 23.1973C58.9086 23.1973 59.4629 23.1707 60.0134 23.203C61.0404 23.2656 61.4997 23.7003 61.5529 24.7121C61.6231 26.0541 61.6725 27.3981 61.6744 28.7401C61.6858 33.9299 61.6744 39.1215 61.6744 44.3113C61.6744 44.4954 61.6991 44.6814 61.7256 45.063C63.0999 44.913 64.4496 44.7783 65.7954 44.6188C68.992 44.243 72.1849 43.8424 75.3834 43.4894C76.1863 43.4001 76.6134 43.1515 76.7938 42.2631C78.3693 34.524 79.998 26.7944 81.6247 19.0649C82.2607 16.041 82.9174 13.0209 83.6103 10.0084C83.7432 9.43516 83.6217 9.09538 83.206 8.71003C81.583 7.21233 81.1806 5.34827 81.919 3.32286C82.6707 1.26329 84.2918 0.204077 86.4538 0.137639C88.8266 0.0636081 91.2032 0.137639 93.5779 0.137639C108.086 0.130046 122.596 0.116758 137.104 0.111064C139.168 0.111064 141.231 0.0825903 143.291 0.156621C145.557 0.240143 147.245 1.71507 147.649 3.83349C148.129 6.34674 147.172 8.36646 145.024 9.36113C144.547 9.58132 144.059 9.77304 143.587 9.97425C143.915 13.3037 144.24 16.5953 144.566 19.8887C145.162 25.8909 145.758 31.8931 146.354 37.8934C146.478 39.1367 146.576 40.3858 146.751 41.6215C146.785 41.8683 147.089 42.2251 147.322 42.2726C157.262 44.3322 165.786 49.0246 173.079 56.029C173.824 56.7428 174.575 57.4546 175.253 58.2291C176.398 59.5351 176.783 61.0537 176.377 62.7678C176.048 64.1516 175.156 65.0513 173.854 65.7404C174.45 66.4978 175.025 67.2229 175.591 67.9518C176.798 69.5065 177.954 71.1048 179.222 72.6082C180.097 73.6465 180.196 74.6108 179.625 75.8428C178.774 77.6764 178.085 79.5842 177.335 81.4463C178.985 82.3518 180.585 83.2515 182.208 84.1133C183.36 84.7265 183.934 85.5901 183.934 86.9531C183.934 89.7644 184.042 92.5756 184.139 95.385C184.173 96.3588 183.732 96.9472 182.907 97.3876C181.117 98.3443 179.351 99.3447 177.578 100.332C177.366 100.449 177.17 100.598 176.982 100.721C177.952 102.665 178.888 104.563 179.847 106.452C180.502 107.741 180.627 108.959 179.951 110.349C178.888 112.535 178.022 114.817 177.081 117.061C176.777 117.782 176.333 118.221 175.467 118.211C173.596 118.188 171.722 118.24 169.849 118.251C167.958 118.262 166.542 119.847 166.669 121.736C166.813 123.887 166.87 126.045 167.001 128.198C167.045 128.919 166.755 129.418 166.17 129.747C163.558 131.21 160.931 132.651 158.315 134.109C157.687 134.46 157.083 134.445 156.441 134.147C154.405 133.2 152.358 132.271 150.316 131.337C149.276 130.861 148.106 131.21 147.478 132.159C146.185 134.113 144.917 136.085 143.553 137.987C143.26 138.393 142.598 138.759 142.106 138.759C139.356 138.759 136.607 138.63 133.856 138.575C133.023 138.558 132.484 138.215 132.057 137.491C130.893 135.531 129.673 133.604 128.465 131.67C127.864 130.707 126.852 130.443 125.823 130.931C123.678 131.945 121.52 132.928 119.384 133.961C118.616 134.333 117.983 134.346 117.209 133.872C115.159 132.619 113.061 131.44 110.945 130.301C109.808 129.69 109.373 128.815 109.415 127.562C109.487 125.405 109.495 123.247 109.519 121.091C109.531 120.015 108.876 119.354 107.801 119.175C105.184 118.743 102.57 118.283 99.9654 117.782C99.5915 117.71 99.1321 117.427 98.9499 117.106C97.5357 114.606 96.205 112.059 94.7965 109.557C94.1891 108.477 94.2745 107.564 95.1041 106.666C96.2924 105.381 97.4636 104.083 98.6348 102.782C99.601 101.71 99.6218 101.456 98.4791 100.651C97.2567 99.7889 96.0323 98.8265 94.6561 98.3197C93.3976 97.8565 91.9359 97.9419 90.4287 97.7692L90.4363 97.773ZM95.6792 77.3386C95.1724 77.3386 94.77 77.3386 94.3675 77.3386C90.1478 77.3177 85.9261 77.3727 81.7102 77.2493C78.859 77.1658 76.6988 74.2862 77.2247 71.4749C77.6537 69.1743 78.1567 66.885 78.6123 64.5882C81.9152 47.9274 85.2143 31.2667 88.5134 14.604C88.8019 13.1462 89.0696 11.6846 89.3581 10.1622C88.4584 10.1622 87.682 10.1774 86.9075 10.1565C86.4197 10.1432 86.209 10.3235 86.1027 10.8304C84.3715 19.0801 82.6175 27.3241 80.8655 35.57C80.2561 38.4401 79.6335 41.3064 79.0223 44.1746C78.8078 45.1788 78.2535 45.7141 77.181 45.8299C73.7015 46.2019 70.2297 46.6309 66.7559 47.0504C60.2735 47.8325 53.791 48.6222 47.3105 49.4118C40.9533 50.1863 34.5962 50.9665 28.2371 51.7391C23.5238 52.3104 18.8067 52.8571 14.0953 53.4475C10.9196 53.8461 8.44427 55.3818 7.23889 58.4037C6.63905 59.9071 6.25941 61.6022 6.24043 63.2138C6.14172 71.6553 6.18917 80.0967 6.18917 88.54C6.18917 88.6862 6.23093 88.8323 6.25181 88.9595C9.75594 89.4436 10.7506 89.1607 13.5372 87.3688C19.5109 83.5287 26.0484 82.0424 33.0567 83.2401C40.6553 84.5404 46.7942 88.3597 51.3708 94.5972C51.8871 95.3015 52.4281 95.5767 53.307 95.5729C58.5916 95.5482 63.8744 95.5862 69.1591 95.6014C69.4286 95.6014 69.6982 95.5729 69.9886 95.5577C70.0209 95.2009 70.0626 94.9218 70.0664 94.6428C70.0835 93.0806 70.0968 91.5183 70.1025 89.9542C70.1082 88.2666 69.9829 86.5696 70.1348 84.8973C70.3474 82.5378 71.5831 81.4387 73.9578 81.4046C77.8017 81.3514 81.6494 81.4349 85.4933 81.3723C89.4094 81.3077 90.5047 82.8966 90.4382 86.4937C90.3889 89.1512 90.4135 91.8087 90.4097 94.4663C90.4097 94.7965 90.4401 95.1249 90.4553 95.4249H92.4655C92.4655 94.9617 92.4655 94.5631 92.4655 94.1644C92.4788 91.5715 92.5471 88.9766 92.4864 86.3855C92.4541 85.0074 92.9629 84.1 94.1549 83.4433C95.0319 82.9592 95.8311 82.3328 96.6986 81.7462C94.9066 80.1916 94.8402 79.8993 95.6849 77.3367L95.6792 77.3386ZM137.869 56.534C117.452 56.6004 101.736 73.2858 100.968 91.9872C100.074 113.756 118.703 129.234 136.533 130.058C159.158 131.104 174.395 111.695 174.869 94.4055C175.464 72.8246 158.19 56.5568 137.869 56.534ZM28.4801 135.905C41.0236 136.096 52.6198 127.036 53.8461 113.012C55.1141 98.5266 44.5941 86.3532 30.3555 85.4706C16.6294 84.6202 5.04075 93.9575 3.71578 108.208C2.45726 121.748 13.0266 135.572 28.4801 135.905ZM92.084 10.24C89.9371 21.039 87.8149 31.7052 85.6756 42.4662H121.024V10.24H92.084ZM101.947 66.6686C101.653 66.5433 101.516 66.4712 101.37 66.4256C97.1352 65.0969 96.0968 61.1979 99.2612 58.1152C104.32 53.1874 109.777 48.7873 116.349 45.9703C116.812 45.771 117.256 45.5262 117.71 45.3041C117.687 45.2319 117.665 45.1598 117.642 45.0877H85.182C85.1232 45.3496 85.051 45.6495 84.9903 45.9533C83.7546 52.1035 82.5188 58.2538 81.285 64.404C80.7933 66.8508 80.2694 69.2939 79.8252 71.7502C79.531 73.3808 80.3264 74.3944 81.9778 74.626C82.5947 74.7133 83.2231 74.7816 83.8438 74.7759C87.906 74.7418 91.9682 74.6981 96.0285 74.6108C96.3208 74.6051 96.7403 74.2919 96.8732 74.0148C97.4636 72.7771 97.978 71.5034 98.5095 70.2373C99.1758 68.6485 100.005 67.2115 101.949 66.6705L101.947 66.6686ZM87.8547 96.6359C87.8547 96.6359 87.849 96.6359 87.8452 96.6359C87.8452 93.2609 87.8509 89.8858 87.8433 86.5089C87.8376 83.9254 87.8281 83.9159 85.2769 83.9235C81.6209 83.9349 77.965 83.9615 74.309 83.9842C72.8208 83.9937 72.6328 84.1608 72.6309 85.6585C72.6196 92.1599 72.6233 98.6594 72.6233 105.161C72.6233 106.099 72.5835 107.038 72.6366 107.972C72.7012 109.079 72.9688 109.36 74.0831 109.371C78.206 109.413 82.329 109.426 86.4519 109.419C87.513 109.417 87.8357 109.094 87.8452 107.978C87.8756 104.197 87.8566 100.415 87.8566 96.634L87.8547 96.6359ZM138.849 47.9995C139.919 48.0888 141.52 48.1362 143.093 48.3659C152.899 49.8048 161.352 53.9353 168.237 61.1391C168.841 61.7712 169.441 62.4109 170.082 63.005C171.143 63.9883 172.573 64.013 173.52 63.1075C174.372 62.2932 174.393 60.991 173.366 59.9261C171.785 58.2879 170.194 56.6308 168.427 55.2033C157.254 46.1697 144.526 42.4529 130.269 44.5049C120.821 45.864 112.513 49.856 105.307 56.1202C103.75 57.4736 102.207 58.8441 100.725 60.2773C99.6351 61.3308 99.6579 62.5533 100.637 63.5973C101.562 64.5825 102.613 64.6318 103.785 63.7245C104.105 63.4758 104.396 63.1892 104.694 62.9158C106.81 60.9777 108.804 58.8821 111.061 57.1243C119.058 50.8981 128.181 47.8932 138.843 47.9976L138.849 47.9995ZM123.712 43.197C124.158 43.1192 124.46 43.0736 124.76 43.0148C127.12 42.5573 129.471 42.0543 131.842 41.669C132.585 41.5494 132.818 41.3406 132.814 40.5813C132.778 30.794 132.776 21.0068 132.761 11.2176C132.761 10.8892 132.725 10.5608 132.704 10.1831H123.712V43.197ZM114.933 2.68126V2.74391C105.744 2.74391 96.5524 2.74011 87.3631 2.7534C86.7803 2.7534 86.171 2.82363 85.6186 3.00206C84.7359 3.2868 84.2652 3.99674 84.1665 4.90029C84.0735 5.74121 84.362 6.48911 85.1441 6.86875C85.742 7.15918 86.4216 7.42873 87.0708 7.44202C90.0073 7.50276 92.9458 7.46859 95.8842 7.4667C111.231 7.4572 126.58 7.44961 141.928 7.42683C142.543 7.42683 143.18 7.34141 143.767 7.16298C144.807 6.84597 145.405 5.87598 145.297 4.86233C145.172 3.67973 144.42 2.89197 143.249 2.79136C142.41 2.71923 141.563 2.68696 140.72 2.68696C132.125 2.67937 123.53 2.68316 114.933 2.68316V2.68126ZM141.077 10.1242C139.464 10.1242 137.998 10.1793 136.539 10.1052C135.588 10.0578 135.324 10.3805 135.326 11.3182C135.356 20.9745 135.343 30.6308 135.345 40.2889C135.345 40.5965 135.375 40.9021 135.394 41.2476C138.283 41.3785 141.102 41.5057 144.137 41.6424C143.122 31.1737 142.11 20.7429 141.079 10.1242H141.077ZM54.892 25.7694V45.8754C55.9057 45.7672 56.8586 45.5869 57.8134 45.5831C58.7929 45.5812 59.089 45.1712 59.0814 44.243C59.0567 40.2168 59.0852 36.1907 59.0814 32.1626C59.0814 30.2891 59.0662 28.4174 59.0149 26.5458C59.0074 26.2838 58.7568 25.8112 58.5992 25.8036C57.3939 25.7409 56.1847 25.7694 54.8901 25.7694H54.892ZM177.123 97.6059C178.656 96.7935 180.04 96.0816 181.394 95.3186C181.566 95.2218 181.673 94.8554 181.669 94.6162C181.625 92.1789 181.561 89.7416 181.479 87.3042C181.472 87.0537 181.379 86.6892 181.202 86.581C179.661 85.6357 178.091 84.7359 176.305 83.6919C177.409 88.4147 177.635 92.8869 177.123 97.6078V97.6059ZM100.326 81.2983C101.738 76.9817 103.855 73.1245 106.463 69.6261C105.789 68.5972 105 68.3542 103.98 68.7927C103.642 68.9389 103.259 69.0015 102.889 69.0395C102.095 69.123 101.619 69.5292 101.319 70.2715C100.406 72.5209 99.4149 74.7399 98.5133 76.9931C97.5338 79.4399 97.6154 79.6088 99.8667 81.0591C99.9673 81.1236 100.081 81.1711 100.326 81.2983ZM98.5911 97.5812C98.5911 97.2263 98.5911 97.0497 98.5911 96.8751C98.6177 94.4112 98.5626 91.9435 98.6974 89.4872C98.7828 87.9383 99.1492 86.4064 99.4016 84.8669C99.4909 84.3259 99.4187 83.578 98.8132 83.8343C97.5452 84.3696 96.4006 85.2029 95.2198 85.9356C95.1325 85.9907 95.1344 86.228 95.1344 86.3817C95.1136 89.2158 95.0889 92.0517 95.0984 94.8858C95.0984 95.1534 95.2559 95.5312 95.4647 95.6697C96.4423 96.3189 97.4636 96.9017 98.5911 97.5812ZM112.08 122.727C112.08 124.479 112.053 126.032 112.106 127.581C112.116 127.835 112.423 128.158 112.676 128.314C114.322 129.323 115.985 130.305 117.657 131.271C117.9 131.411 118.276 131.556 118.496 131.468C120.009 130.857 121.495 130.185 123.01 129.523C121.089 128.473 119.223 127.554 117.465 126.461C115.675 125.347 113.99 124.062 112.078 122.725L112.08 122.727ZM106.315 116.503C103.547 112.875 101.429 109.102 100.206 104.645C99.1625 105.907 98.2532 106.968 97.399 108.073C97.2624 108.249 97.2699 108.671 97.3819 108.889C98.407 110.884 99.4548 112.868 100.539 114.83C100.696 115.115 101.051 115.398 101.364 115.472C102.936 115.84 104.527 116.138 106.315 116.505V116.503ZM153.051 129.697C154.45 130.341 155.686 130.933 156.946 131.47C157.186 131.573 157.565 131.548 157.799 131.427C159.872 130.343 161.931 129.23 163.983 128.105C164.167 128.004 164.387 127.746 164.384 127.566C164.35 125.958 164.27 124.352 164.194 122.488C160.739 125.514 157.269 128.025 153.053 129.695L153.051 129.697ZM175.363 79.6069C176.018 77.965 176.656 76.4179 177.237 74.85C177.322 74.6203 177.218 74.2236 177.056 74.0129C175.365 71.8128 173.649 69.6336 171.931 67.4545C171.783 67.2666 171.58 67.1242 171.443 66.9989C170.743 67.7525 170.073 68.4719 169.556 69.0243C171.447 72.4696 173.359 75.9528 175.365 79.6069H175.363ZM117.101 56.2151C117.904 57.1167 118.621 57.9216 119.141 58.5062C122.674 57.1756 126.043 55.9057 129.544 54.5883C129.388 53.9258 129.185 53.0868 128.989 52.244C128.866 51.7106 128.536 51.6555 128.071 51.7998C127.446 51.9953 126.806 52.1472 126.178 52.3332C123.061 53.2576 120.013 54.3491 117.099 56.2151H117.101ZM116.939 59.8483C116.486 59.3718 115.981 58.8194 115.455 58.2898C115.003 57.8343 114.561 57.7488 113.995 58.2139C112.697 59.2845 111.286 60.226 110.032 61.3422C108.532 62.6766 107.148 64.1402 105.635 65.6246C106.59 66.363 107.363 66.9628 107.987 67.4469C111.076 64.8254 114.016 62.3293 116.939 59.8483ZM132.07 54.1232H142.419C142.615 53.0488 142.795 52.058 142.985 51.0158C139.046 50.3571 135.216 50.4217 131.309 51.031C131.586 52.1624 131.844 53.214 132.068 54.1251L132.07 54.1232ZM176.103 104.371C176.012 104.373 175.923 104.375 175.832 104.377C174.606 108.397 172.774 112.118 170.094 115.624C171.753 115.624 173.155 115.649 174.554 115.599C174.782 115.592 175.103 115.307 175.202 115.073C176.056 113.065 176.874 111.042 177.692 109.02C177.77 108.828 177.861 108.568 177.793 108.399C177.25 107.048 176.671 105.711 176.103 104.371ZM131.721 132.154C132.586 133.511 133.277 134.65 134.039 135.739C134.194 135.963 134.614 136.096 134.919 136.106C137.006 136.182 139.095 136.229 141.184 136.242C141.472 136.242 141.878 136.074 142.03 135.848C142.808 134.695 143.522 133.498 144.35 132.173C140.13 133.063 136.074 132.702 131.721 132.154ZM144.944 54.4782C145.532 54.6111 146.056 54.6832 146.55 54.8503C149.287 55.7728 152.013 56.7276 154.754 57.6406C155.035 57.7337 155.553 57.7394 155.677 57.5742C156.111 56.9896 156.421 56.3138 156.796 55.6399C153.302 53.3848 149.543 52.206 145.525 51.424C145.32 52.5021 145.136 53.4664 144.944 54.4801V54.4782ZM157.776 59.3054C161.419 61.4352 164.611 64.013 167.436 67.1052C168.038 66.5813 168.545 66.1409 169.118 65.6398C165.931 62.5798 163.049 59.2864 159.188 56.9971C158.693 57.8077 158.271 58.4948 157.776 59.3035V59.3054ZM8.34176 91.524H2.68125C2.68125 92.6117 2.65277 93.6026 2.69643 94.5915C2.71352 94.9807 2.85019 95.6754 3.00015 95.6944C3.64745 95.7779 4.58327 95.926 4.94014 95.5729C6.1569 94.3619 7.17435 92.9496 8.34366 91.524H8.34176Z" fill="black"/>
<path d="M45.5053 59.6243C39.8144 59.6243 34.1255 59.6243 28.4346 59.6243C27.8727 59.6243 27.307 59.6261 26.747 59.5863C25.8454 59.5217 25.3177 59.0282 25.3253 58.2879C25.3329 57.428 25.8663 57.0332 26.6369 57.0047C28.3529 56.9402 30.0689 56.906 31.7868 56.9098C40.6345 56.9307 49.4821 56.9743 58.3317 56.9952C60.0515 56.999 61.7693 56.9288 63.4891 56.9117C63.9238 56.9079 64.4686 56.8263 64.7667 57.0465C65.19 57.3597 65.6303 57.8988 65.6835 58.3828C65.7215 58.7226 65.1938 59.2731 64.7913 59.4705C64.3471 59.6869 63.7587 59.6508 63.2348 59.6508C57.3256 59.6603 51.4164 59.6565 45.5072 59.6565C45.5072 59.6451 45.5072 59.6356 45.5072 59.6243H45.5053Z" fill="black"/>
<path d="M45.695 72.0065C39.8827 72.0065 34.0703 72.0141 28.2579 71.997C27.5784 71.997 26.838 72.0103 26.2382 71.754C25.8377 71.5832 25.3764 70.9169 25.4182 70.5221C25.4618 70.1101 26.0275 69.6887 26.4565 69.4078C26.7014 69.2464 27.1247 69.3508 27.4683 69.3508C38.1553 69.3603 48.8442 69.3717 59.5312 69.3793C61.0916 69.3793 62.6557 69.311 64.2141 69.3603C65.262 69.3926 65.7973 69.9545 65.7403 70.746C65.6815 71.549 65.1139 72.0027 64.0718 72.0046C57.9462 72.0122 51.8225 72.0084 45.6969 72.0084L45.695 72.0065Z" fill="black"/>
<path d="M138.198 71.1788C149.594 71.1238 159.788 79.9961 160.43 91.8372C161.073 103.718 151.99 115.449 138.239 115.626C126.565 115.776 116.169 105.814 115.749 94.2404C115.288 81.5203 125.565 71.1029 138.196 71.1769L138.198 71.1788ZM157.886 93.4203C157.799 79.9467 146.907 73.4567 137.877 73.7281C125.946 74.0869 118.169 83.4641 118.274 93.2096C118.395 104.386 127.476 113.291 138.503 113.128C148.989 112.972 158.032 103.777 157.886 93.4203Z" fill="black"/>
<path d="M11.6466 110.385C11.565 101.277 19.3667 93.671 28.8806 93.5837C37.9048 93.5002 45.8907 101.199 45.9666 110.057C46.052 120.072 38.5559 127.809 28.5655 127.689C19.3477 127.579 11.6846 119.916 11.6466 110.385ZM14.1865 110.372C14.1162 118.263 20.6917 125.347 29.2432 125.136C37.1038 124.942 43.4078 118.703 43.4552 110.882C43.5084 101.752 36.1205 96.0988 29.1179 96.1634C19.4389 96.2507 14.1409 103.496 14.1865 110.372Z" fill="black"/>
<path d="M137.909 102.638C132.953 102.767 128.16 98.4052 128.547 92.4258C128.868 87.4581 133.376 83.5421 138.308 83.7338C143.729 83.9426 147.97 88.3636 147.634 93.7299C147.311 98.8855 142.881 102.942 137.907 102.638H137.909ZM138.038 100.18C142.129 100.161 145.181 97.1619 145.143 93.1984C145.107 89.326 141.992 86.2357 138.152 86.266C134.238 86.2964 131.072 89.3393 131.104 93.0408C131.14 97.1524 134.097 100.199 138.036 100.18H138.038Z" fill="black"/>
<path d="M28.8199 118.403C24.0193 118.04 20.7923 114.571 21.1359 110.142C21.4813 105.698 25.0937 102.614 29.5583 102.95C33.8198 103.27 36.9557 107.042 36.6406 111.416C36.2837 116.378 31.7925 118.652 28.8199 118.401V118.403ZM28.968 115.909C31.8741 115.909 34.1729 113.701 34.171 110.909C34.171 107.796 31.7451 105.493 28.4763 105.497C25.8871 105.501 23.5846 107.949 23.6017 110.683C23.6187 113.561 26.0295 115.909 28.968 115.909Z" fill="black"/>
</svg>
