<svg width="31" height="31" viewBox="0 0 31 31" fill="none" xmlns="http://www.w3.org/2000/svg">
<path d="M12.8965 14.8342C13.3988 14.0515 13.6639 13.6651 14.3666 12.991L17.7897 9.76639C19.9792 7.707 22.176 5.65856 24.4118 3.64931L26.0481 2.17639C26.745 1.54727 27.4436 0.770213 28.429 0.66468C30.1611 0.453827 31.4096 2.33784 30.5859 3.87898C30.4006 4.22583 30.1176 4.5258 29.866 4.82608L28.8669 6.00228C26.3591 8.91143 23.8083 11.7118 21.1357 14.4667L19.4055 16.2296C18.8474 16.79 17.3755 18.2846 16.6605 18.3094C16.3376 18.3206 16.1221 18.1029 15.904 17.8988L14.1986 16.1996C13.8098 15.8131 13.2492 15.2539 12.8965 14.8342Z" fill="#D12028"/>
<path d="M15.1724 21.7204C14.2193 21.9924 13.6633 21.3296 13.0548 20.738L11.6553 19.368C10.778 18.5017 9.05122 17.3626 9.9078 16.0019C10.1344 15.642 10.4734 15.2155 10.9056 15.1152C11.8188 15.0263 12.4131 15.9729 13.0196 16.5685L14.8512 18.3789C15.3895 18.9127 16.7934 19.9885 16.3639 20.815C16.1374 21.2508 15.6315 21.5819 15.1724 21.7204Z" fill="#D12028"/>
<path d="M5.14426 30.2033C4.29712 30.3807 2.70139 30.314 1.82246 30.314C1.37994 30.314 0.203852 30.5293 0.155496 29.8385C0.128967 29.4594 0.54929 29.1986 0.770002 28.9552C2.34446 27.2187 2.43873 25.7821 2.75873 23.6715C3.16055 21.021 4.83728 18.8288 7.66499 18.6196C9.10172 18.5042 9.82322 19.3852 10.7152 20.2529C11.5875 21.1013 12.5727 21.8173 12.7296 23.1004C13.1138 26.2441 10.0761 28.8658 7.36083 29.7508C6.64058 29.9855 5.89536 30.1165 5.14426 30.2033Z" fill="#D12028"/>
</svg>
